<svg width="369" height="140" viewBox="0 0 369 140" fill="none" xmlns="http://www.w3.org/2000/svg">
<path d="M5.61317 103.646V90.3646L52.7966 15.6636H63.2899V35.3295H56.539L22.7841 88.7502V89.6308H87.5788V103.646H5.61317ZM57.2728 125V99.6105L57.4195 93.5199V15.6636H73.1229V125H57.2728Z" fill="#952AFF"/>
<path fill-rule="evenodd" clip-rule="evenodd" d="M268.06 70.4314C268.64 67.0849 268.93 63.5802 268.93 59.9174C268.93 49.6001 266.565 40.4292 261.837 32.4047C257.108 24.5234 250.516 18.2901 242.062 13.7046C233.607 9.26246 223.792 7.04138 212.615 7.04138C201.438 7.04138 191.622 9.26246 183.167 13.7046C174.713 18.2901 168.121 24.5234 163.393 32.4047C158.664 40.4292 156.3 49.6001 156.3 59.9174C156.3 63.5802 156.589 67.0849 157.169 70.4314L173.337 70.4314C172.439 67.1609 171.99 63.6562 171.99 59.9174C171.99 52.7526 173.638 46.376 176.934 40.7874C180.373 35.3422 185.102 31.0433 191.12 27.8909C197.282 24.7384 204.447 23.1621 212.615 23.1621C220.926 23.1621 228.091 24.7384 234.109 27.8909C240.127 31.0433 244.784 35.3422 248.08 40.7874C251.519 46.376 253.239 52.7526 253.239 59.9174C253.239 63.6562 252.771 67.1609 251.834 70.4314L268.06 70.4314Z" fill="#952AFF"/>
<path fill-rule="evenodd" clip-rule="evenodd" d="M103.465 65.7084C102.769 69.0328 102.357 72.5253 102.229 76.186C101.869 86.497 103.912 95.7448 108.358 103.929C112.809 111.971 119.179 118.43 127.469 123.308C135.763 128.042 145.495 130.604 156.666 130.994C167.836 131.384 177.723 129.507 186.327 125.362C194.936 121.075 201.742 115.075 206.742 107.363C211.748 99.5088 214.431 90.4259 214.791 80.1149C214.919 76.4543 214.751 72.9415 214.288 69.5767L198.131 69.0127C198.914 72.3127 199.24 75.831 199.11 79.5676C198.86 86.728 196.99 93.0433 193.502 98.5134C189.875 103.835 184.999 107.967 178.874 110.907C172.606 113.843 165.391 115.168 157.228 114.883C148.922 114.593 141.816 112.768 135.912 109.408C130.007 106.047 125.503 101.588 122.399 96.0316C119.157 90.3265 117.661 83.8938 117.911 76.7333C118.041 72.9967 118.631 69.5104 119.681 66.2744L103.465 65.7084Z" fill="#952AFF"/>
<path d="M281.976 103.646V90.3646L329.16 15.6636H339.653V35.3295H332.902L299.147 88.7502V89.6308H363.942V103.646H281.976ZM333.636 125V99.6105L333.783 93.5199V15.6636H349.486V125H333.636Z" fill="#952AFF"/>
</svg>
