<svg width="359" height="140" viewBox="0 0 359 140" fill="none" xmlns="http://www.w3.org/2000/svg">
<path d="M43.9176 126.468C37.2155 126.468 31.1984 125.196 25.8661 122.652C20.5827 120.059 16.3511 116.512 13.1713 112.012C9.99152 107.462 8.30378 102.301 8.10809 96.5285H24.105C24.4963 101.176 26.5754 105.016 30.3423 108.049C34.1091 111.082 38.6342 112.599 43.9176 112.599C48.1247 112.599 51.8426 111.62 55.0714 109.664C58.3001 107.707 60.8439 105.041 62.7029 101.665C64.5619 98.2407 65.4913 94.3271 65.4913 89.9243C65.4913 85.5215 64.5374 81.5834 62.6295 78.1101C60.7216 74.5879 58.08 71.8239 54.7045 69.8181C51.3779 67.8124 47.5377 66.8096 43.1838 66.8096C39.8572 66.8096 36.5307 67.3966 33.2041 68.5707C29.8775 69.6958 27.1869 71.1635 25.1323 72.9735L9.9426 70.7721L16.1065 15.6636H76.2048V29.826H29.902L26.4531 60.4255H27.0402C29.1437 58.3219 31.9566 56.6097 35.4789 55.2889C39.05 53.9191 42.8903 53.2342 46.9996 53.2342C53.6527 53.2342 59.572 54.8241 64.7575 58.004C69.992 61.1348 74.1013 65.4398 77.0854 70.9189C80.0695 76.349 81.5616 82.5863 81.5616 89.6308C81.5616 96.7242 79.9472 103.059 76.7185 108.636C73.4898 114.164 69.0381 118.518 63.3633 121.698C57.7375 124.878 51.2556 126.468 43.9176 126.468Z" fill="#952AFF"/>
<path fill-rule="evenodd" clip-rule="evenodd" d="M263.062 70.4313C263.642 67.0847 263.932 63.58 263.932 59.9172C263.932 49.6 261.567 40.4291 256.839 32.4045C252.11 24.5233 245.518 18.2899 237.064 13.7045C228.609 9.26234 218.794 7.04126 207.617 7.04126C196.44 7.04126 186.624 9.26234 178.169 13.7045C169.715 18.2899 163.123 24.5233 158.395 32.4045C153.666 40.4291 151.302 49.6 151.302 59.9172C151.302 63.58 151.591 67.0847 152.171 70.4313L168.339 70.4313C167.441 67.1607 166.992 63.656 166.992 59.9172C166.992 52.7525 168.64 46.3758 171.936 40.7873C175.375 35.3421 180.104 31.0432 186.122 27.8907C192.284 24.7382 199.449 23.162 207.617 23.162C215.928 23.162 223.092 24.7382 229.111 27.8907C235.129 31.0432 239.786 35.3421 243.082 40.7873C246.521 46.3758 248.241 52.7525 248.241 59.9172C248.241 63.656 247.773 67.1607 246.836 70.4313L263.062 70.4313Z" fill="#952AFF"/>
<path fill-rule="evenodd" clip-rule="evenodd" d="M98.4672 65.7082C97.771 69.0326 97.359 72.5251 97.2312 76.1857C96.8713 86.4967 98.9143 95.7445 103.36 103.929C107.811 111.971 114.181 118.43 122.471 123.308C130.765 128.042 140.497 130.604 151.668 130.994C162.838 131.384 172.725 129.507 181.329 125.362C189.938 121.074 196.743 115.075 201.744 107.363C206.75 99.5085 209.433 90.4257 209.793 80.1147C209.921 76.454 209.753 72.9413 209.29 69.5765L193.133 69.0125C193.916 72.3124 194.242 75.8307 194.112 79.5673C193.862 86.7278 191.992 93.043 188.504 98.5132C184.877 103.835 180.001 107.966 173.876 110.907C167.608 113.843 160.393 115.168 152.23 114.883C143.924 114.593 136.818 112.768 130.914 109.407C125.009 106.047 120.505 101.588 117.401 96.0313C114.159 90.3263 112.663 83.8935 112.913 76.7331C113.043 72.9965 113.633 69.5102 114.683 66.2742L98.4672 65.7082Z" fill="#952AFF"/>
<path d="M315.281 126.468C308.579 126.468 302.562 125.196 297.229 122.652C291.946 120.059 287.714 116.512 284.535 112.012C281.355 107.462 279.667 102.301 279.471 96.5285H295.468C295.86 101.176 297.939 105.016 301.706 108.049C305.472 111.082 309.998 112.599 315.281 112.599C319.488 112.599 323.206 111.62 326.435 109.664C329.663 107.707 332.207 105.041 334.066 101.665C335.925 98.2407 336.855 94.3271 336.855 89.9243C336.855 85.5215 335.901 81.5834 333.993 78.1101C332.085 74.5879 329.443 71.8239 326.068 69.8181C322.741 67.8124 318.901 66.8096 314.547 66.8096C311.221 66.8096 307.894 67.3966 304.567 68.5707C301.241 69.6958 298.55 71.1635 296.496 72.9735L281.306 70.7721L287.47 15.6636H347.568V29.826H301.265L297.816 60.4255H298.403C300.507 58.3219 303.32 56.6097 306.842 55.2889C310.413 53.9191 314.254 53.2342 318.363 53.2342C325.016 53.2342 330.935 54.8241 336.121 58.004C341.355 61.1348 345.465 65.4398 348.449 70.9189C351.433 76.349 352.925 82.5863 352.925 89.6308C352.925 96.7242 351.311 103.059 348.082 108.636C344.853 114.164 340.401 118.518 334.727 121.698C329.101 124.878 322.619 126.468 315.281 126.468Z" fill="#952AFF"/>
</svg>
