<svg width="359" height="140" viewBox="0 0 359 140" fill="none" xmlns="http://www.w3.org/2000/svg">
<path d="M44.4176 126.468C37.7155 126.468 31.6984 125.196 26.3661 122.652C21.0827 120.059 16.8511 116.512 13.6713 112.012C10.4915 107.462 8.80378 102.301 8.60809 96.5285H24.605C24.9963 101.176 27.0754 105.016 30.8423 108.049C34.6091 111.082 39.1342 112.599 44.4176 112.599C48.6247 112.599 52.3426 111.62 55.5714 109.664C58.8001 107.707 61.3439 105.041 63.2029 101.665C65.0619 98.2407 65.9913 94.3271 65.9913 89.9243C65.9913 85.5215 65.0374 81.5834 63.1295 78.1101C61.2216 74.5879 58.58 71.8239 55.2045 69.8181C51.8779 67.8124 48.0377 66.8096 43.6838 66.8096C40.3572 66.8096 37.0307 67.3966 33.7041 68.5707C30.3775 69.6958 27.6869 71.1635 25.6323 72.9735L10.4426 70.7721L16.6065 15.6636H76.7048V29.826H30.402L26.9531 60.4255H27.5402C29.6437 58.3219 32.4566 56.6097 35.9789 55.2889C39.55 53.9191 43.3903 53.2342 47.4996 53.2342C54.1527 53.2342 60.072 54.8241 65.2575 58.004C70.492 61.1348 74.6013 65.4398 77.5854 70.9189C80.5695 76.349 82.0616 82.5863 82.0616 89.6308C82.0616 96.7242 80.4472 103.059 77.2185 108.636C73.9898 114.164 69.5381 118.518 63.8633 121.698C58.2375 124.878 51.7556 126.468 44.4176 126.468Z" fill="#952AFF"/>
<path fill-rule="evenodd" clip-rule="evenodd" d="M263.56 70.4315C264.14 67.085 264.43 63.5803 264.43 59.9175C264.43 49.6002 262.065 40.4293 257.337 32.4048C252.608 24.5235 246.016 18.2902 237.562 13.7047C229.107 9.26258 219.292 7.0415 208.115 7.0415C196.938 7.0415 187.122 9.26258 178.667 13.7047C170.213 18.2902 163.621 24.5235 158.893 32.4048C154.164 40.4293 151.8 49.6002 151.8 59.9175C151.8 63.5803 152.089 67.085 152.669 70.4315L168.837 70.4315C167.939 67.161 167.49 63.6563 167.49 59.9175C167.49 52.7527 169.138 46.3761 172.434 40.7876C175.873 35.3423 180.602 31.0435 186.62 27.891C192.782 24.7385 199.947 23.1622 208.115 23.1622C216.426 23.1622 223.591 24.7385 229.609 27.891C235.627 31.0435 240.284 35.3423 243.58 40.7876C247.019 46.3761 248.739 52.7527 248.739 59.9175C248.739 63.6563 248.271 67.161 247.334 70.4315L263.56 70.4315Z" fill="#952AFF"/>
<path fill-rule="evenodd" clip-rule="evenodd" d="M98.9652 65.7084C98.269 69.0328 97.857 72.5253 97.7293 76.186C97.3694 86.497 99.4124 95.7448 103.858 103.929C108.309 111.971 114.679 118.43 122.969 123.308C131.263 128.042 140.995 130.604 152.166 130.994C163.336 131.384 173.223 129.507 181.827 125.362C190.436 121.075 197.242 115.075 202.242 107.363C207.248 99.5088 209.931 90.4259 210.291 80.1149C210.419 76.4543 210.251 72.9415 209.788 69.5767L193.631 69.0127C194.414 72.3127 194.74 75.831 194.61 79.5676C194.36 86.728 192.49 93.0433 189.002 98.5134C185.375 103.835 180.499 107.967 174.374 110.907C168.106 113.843 160.891 115.168 152.728 114.883C144.422 114.593 137.316 112.768 131.412 109.408C125.507 106.047 121.003 101.588 117.899 96.0316C114.657 90.3265 113.161 83.8938 113.411 76.7333C113.541 72.9967 114.131 69.5104 115.181 66.2744L98.9652 65.7084Z" fill="#952AFF"/>
<path d="M279.678 125V113.112L316.661 74.6612C320.575 70.552 323.804 66.9319 326.348 63.801C328.94 60.6212 330.873 57.6126 332.145 54.7752C333.465 51.9379 334.126 48.9293 334.126 45.7495C334.126 42.0805 333.27 38.9251 331.558 36.2834C329.845 33.6418 327.522 31.6116 324.586 30.1929C321.651 28.7742 318.325 28.0649 314.607 28.0649C310.693 28.0649 307.293 28.872 304.407 30.4864C301.521 32.0518 299.27 34.3022 297.656 37.2374C296.091 40.1237 295.308 43.5236 295.308 47.4372H279.604C279.604 40.7841 281.121 34.9626 284.154 29.9727C287.236 24.9829 291.443 21.1182 296.775 18.3787C302.157 15.5902 308.223 14.196 314.974 14.196C321.871 14.196 327.938 15.5658 333.172 18.3053C338.406 21.0448 342.491 24.7628 345.426 29.4591C348.362 34.1065 349.829 39.3654 349.829 45.2358C349.829 49.2962 349.071 53.2587 347.554 57.1234C346.087 60.9881 343.47 65.3175 339.703 70.1117C335.985 74.8569 330.799 80.5806 324.146 87.2826L302.426 110.03V110.911H351.59V125H279.678Z" fill="#952AFF"/>
</svg>
