<svg width="394" height="140" viewBox="0 0 394 140" fill="none" xmlns="http://www.w3.org/2000/svg">
<path d="M43.7379 126.468C37.0359 126.468 31.0187 125.196 25.6864 122.652C20.403 120.059 16.1714 116.512 12.9916 112.012C9.81183 107.462 8.12409 102.301 7.92841 96.5285H23.9253C24.3166 101.176 26.3957 105.016 30.1626 108.049C33.9294 111.082 38.4545 112.599 43.7379 112.599C47.945 112.599 51.663 111.62 54.8917 109.664C58.1204 107.707 60.6643 105.041 62.5232 101.665C64.3822 98.2407 65.3117 94.3271 65.3117 89.9243C65.3117 85.5215 64.3577 81.5834 62.4498 78.1101C60.542 74.5879 57.9003 71.8239 54.5248 69.8181C51.1982 67.8124 47.358 66.8096 43.0041 66.8096C39.6775 66.8096 36.351 67.3966 33.0244 68.5707C29.6978 69.6958 27.0072 71.1635 24.9526 72.9735L9.76291 70.7721L15.9268 15.6636H76.0252V29.826H29.7223L26.2734 60.4255H26.8605C28.964 58.3219 31.7769 56.6097 35.2992 55.2889C38.8704 53.9191 42.7106 53.2342 46.8199 53.2342C53.473 53.2342 59.3923 54.8241 64.5779 58.004C69.8123 61.1348 73.9216 65.4398 76.9057 70.9189C79.8898 76.349 81.3819 82.5863 81.3819 89.6308C81.3819 96.7242 79.7675 103.059 76.5388 108.636C73.3101 114.164 68.8584 118.518 63.1836 121.698C57.5578 124.878 51.0759 126.468 43.7379 126.468Z" fill="#952AFF"/>
<path d="M269.926 60.082C269.926 63.7451 269.636 67.2499 269.056 70.5967L252.829 70.5967C253.766 67.3259 254.235 63.8212 254.235 60.082C254.235 52.9173 252.515 46.5407 249.076 40.9521C245.78 35.5071 241.124 31.2081 235.105 28.0557C229.087 24.9032 221.921 23.3271 213.61 23.3271C205.443 23.3272 198.278 24.9032 192.116 28.0557C186.098 31.2081 181.37 35.5071 177.931 40.9521C174.635 46.5407 172.986 52.9173 172.986 60.082C172.986 63.8213 173.437 67.3258 174.335 70.5967L158.167 70.5967C157.587 67.2499 157.296 63.7452 157.296 60.082C157.296 49.7648 159.66 40.5939 164.389 32.5693C169.117 24.6882 175.709 18.4546 184.163 13.8691C192.617 9.42703 202.433 7.2061 213.61 7.20606C224.787 7.20606 234.603 9.42709 243.058 13.8691C251.512 18.4546 258.104 24.6881 262.833 32.5693C267.562 40.5938 269.926 49.7648 269.926 60.082Z" fill="#952AFF"/>
<path d="M97.0056 78.009C97.0056 74.4675 97.2763 71.0739 97.8183 67.828L114.007 67.8283C113.133 71.0033 112.696 74.3974 112.696 78.0095C112.696 85.174 114.416 91.5502 117.855 97.1386C121.151 102.584 125.808 106.883 131.827 110.035C137.845 113.188 145.009 114.764 153.32 114.764C161.488 114.764 168.653 113.188 174.815 110.036C180.833 106.883 185.562 102.584 189.001 97.139C192.296 91.5504 193.944 85.1735 193.944 78.0088C193.944 74.3964 193.524 71.003 192.687 67.8278L208.82 67.8281C209.362 71.0741 209.636 74.4677 209.636 78.0093C209.636 88.3264 207.271 97.4973 202.543 105.522C197.814 113.403 191.222 119.637 182.768 124.222C174.314 128.664 164.497 130.885 153.32 130.885C142.143 130.885 132.327 128.664 123.873 124.221C115.419 119.636 108.827 113.403 104.098 105.522C99.3693 97.4976 97.0056 88.3263 97.0056 78.009Z" fill="#952AFF"/>
<path d="M393.018 60.0405C393.018 63.7036 392.727 67.2084 392.147 70.5552L375.921 70.5552C376.858 67.2844 377.327 63.7797 377.327 60.0405C377.327 52.8758 375.607 46.4992 372.168 40.9106C368.872 35.4656 364.215 31.1666 358.197 28.0142C352.179 24.8617 345.013 23.2856 336.702 23.2856C328.534 23.2857 321.37 24.8617 315.208 28.0142C309.19 31.1666 304.461 35.4656 301.022 40.9106C297.727 46.4992 296.078 52.8758 296.078 60.0405C296.078 63.7798 296.529 67.2843 297.427 70.5552L281.259 70.5552C280.679 67.2084 280.388 63.7036 280.388 60.0405C280.388 49.7233 282.752 40.5524 287.48 32.5278C292.209 24.6467 298.801 18.4131 307.255 13.8276C315.709 9.38553 325.525 7.1646 336.702 7.16455C347.879 7.16455 357.695 9.38558 366.149 13.8276C374.604 18.4131 381.196 24.6466 385.925 32.5278C390.653 40.5523 393.018 49.7233 393.018 60.0405Z" fill="#952AFF"/>
<path fill-rule="evenodd" clip-rule="evenodd" d="M220.237 67.7464C219.657 71.0931 219.367 74.5978 219.367 78.2607C219.367 88.578 221.732 97.7489 226.46 105.773C231.189 113.655 237.781 119.888 246.235 124.473C254.689 128.916 264.505 131.137 275.682 131.137C286.859 131.137 296.675 128.916 305.129 124.473C313.584 119.888 320.175 113.655 324.904 105.773C329.633 97.7489 331.997 88.578 331.997 78.2607C331.997 74.5978 331.707 71.0931 331.128 67.7464H314.96C315.858 71.0171 316.306 74.5218 316.306 78.2607C316.306 85.4255 314.659 91.8022 311.363 97.3907C307.924 102.836 303.195 107.135 297.177 110.287C291.015 113.44 283.85 115.016 275.682 115.016C267.371 115.016 260.206 113.44 254.188 110.287C248.17 107.135 243.512 102.836 240.217 97.3907C236.778 91.8022 235.058 85.4255 235.058 78.2607C235.058 74.5218 235.526 71.0171 236.463 67.7464H220.237Z" fill="#952AFF"/>
</svg>
