<svg width="369" height="140" viewBox="0 0 369 140" fill="none" xmlns="http://www.w3.org/2000/svg">
<path d="M6.11317 103.646V90.3646L53.2966 15.6636H63.7899V35.3295H57.039L23.2841 88.7502V89.6308H88.0788V103.646H6.11317ZM57.7728 125V99.6105L57.9195 93.5199V15.6636H73.6229V125H57.7728Z" fill="#952AFF"/>
<path fill-rule="evenodd" clip-rule="evenodd" d="M268.56 70.4315C269.14 67.085 269.43 63.5803 269.43 59.9175C269.43 49.6002 267.065 40.4293 262.337 32.4048C257.608 24.5235 251.016 18.2902 242.562 13.7047C234.107 9.26258 224.292 7.0415 213.115 7.0415C201.938 7.0415 192.122 9.26258 183.667 13.7047C175.213 18.2902 168.621 24.5235 163.893 32.4048C159.164 40.4293 156.8 49.6002 156.8 59.9175C156.8 63.5803 157.089 67.085 157.669 70.4315L173.837 70.4315C172.939 67.161 172.49 63.6563 172.49 59.9175C172.49 52.7527 174.138 46.3761 177.434 40.7876C180.873 35.3423 185.602 31.0435 191.62 27.891C197.782 24.7385 204.947 23.1622 213.115 23.1622C221.426 23.1622 228.591 24.7385 234.609 27.891C240.627 31.0435 245.284 35.3423 248.58 40.7876C252.019 46.3761 253.739 52.7527 253.739 59.9175C253.739 63.6563 253.271 67.161 252.334 70.4315L268.56 70.4315Z" fill="#952AFF"/>
<path fill-rule="evenodd" clip-rule="evenodd" d="M103.965 65.7084C103.269 69.0328 102.857 72.5253 102.729 76.186C102.369 86.497 104.412 95.7448 108.858 103.929C113.309 111.971 119.679 118.43 127.969 123.308C136.263 128.042 145.995 130.604 157.166 130.994C168.336 131.384 178.223 129.507 186.827 125.362C195.436 121.075 202.242 115.075 207.242 107.363C212.248 99.5088 214.931 90.4259 215.291 80.1149C215.419 76.4543 215.251 72.9415 214.788 69.5767L198.631 69.0127C199.414 72.3127 199.74 75.831 199.61 79.5676C199.36 86.728 197.49 93.0433 194.002 98.5134C190.375 103.835 185.499 107.967 179.374 110.907C173.106 113.843 165.891 115.168 157.728 114.883C149.422 114.593 142.316 112.768 136.412 109.408C130.507 106.047 126.003 101.588 122.899 96.0316C119.657 90.3265 118.161 83.8938 118.411 76.7333C118.541 72.9967 119.131 69.5104 120.181 66.2744L103.965 65.7084Z" fill="#952AFF"/>
<path d="M322.762 126.468C315.375 126.468 308.82 125.22 303.096 122.725C297.373 120.181 292.848 116.659 289.521 112.158C286.194 107.658 284.433 102.448 284.238 96.5285H300.821C301.066 99.7572 302.167 102.546 304.124 104.894C306.08 107.242 308.649 109.077 311.829 110.397C315.057 111.669 318.653 112.305 322.615 112.305C326.92 112.305 330.736 111.547 334.063 110.03C337.389 108.514 339.982 106.435 341.841 103.793C343.749 101.103 344.703 97.9961 344.703 94.4739C344.703 90.8049 343.773 87.5761 341.914 84.7877C340.055 81.9503 337.34 79.7489 333.769 78.1835C330.198 76.618 325.893 75.8353 320.854 75.8353H311.535V62.3334H320.854C324.866 62.3334 328.412 61.5996 331.494 60.132C334.576 58.6644 336.973 56.6342 338.686 54.0414C340.447 51.4487 341.327 48.3912 341.327 44.8689C341.327 41.4934 340.569 38.5582 339.053 36.0633C337.536 33.5195 335.408 31.5626 332.668 30.1929C329.929 28.7742 326.7 28.0649 322.982 28.0649C319.411 28.0649 316.085 28.7008 313.003 29.9727C309.921 31.2447 307.401 33.0792 305.444 35.4763C303.537 37.8244 302.534 40.6862 302.436 44.0617H286.512C286.659 38.1424 288.371 32.9569 291.649 28.5051C294.976 24.0045 299.378 20.5067 304.857 18.0118C310.385 15.4679 316.5 14.196 323.202 14.196C330.198 14.196 336.24 15.5658 341.327 18.3053C346.464 20.9959 350.426 24.616 353.215 29.1656C356.003 33.6662 357.398 38.5827 357.398 43.915C357.398 50.1278 355.685 55.3623 352.261 59.6183C348.837 63.8254 344.263 66.6873 338.539 68.2038V69.011C345.779 70.1361 351.38 73.0224 355.343 77.6698C359.354 82.3172 361.36 88.0898 361.36 94.9875C361.36 101.005 359.672 106.386 356.297 111.131C352.97 115.876 348.396 119.619 342.575 122.358C336.802 125.098 330.198 126.468 322.762 126.468Z" fill="#952AFF"/>
</svg>
