<svg width="225" height="113" viewBox="0 0 225 113" fill="none" xmlns="http://www.w3.org/2000/svg">
<path d="M0.294812 89.6464V76.3646L47.4782 1.66362H57.9716V21.3295H51.2206L17.4658 74.7502V75.6308H82.2604V89.6464H0.294812ZM51.9544 111V85.6105L52.1012 79.5199V1.66362H67.8045V111H51.9544ZM132.379 1.66362V111H116.089V18.2475H115.355L89.3783 35.3451V19.495L116.529 1.66362H132.379ZM185.359 112.468C177.728 112.468 170.977 111.147 165.107 108.505C159.285 105.863 154.711 102.243 151.384 97.6448C148.107 92.9974 146.468 87.714 146.468 81.7947C146.468 77.2451 147.422 73.0136 149.33 69.1C151.287 65.1863 153.928 61.9332 157.255 59.3404C160.581 56.7476 164.324 55.0843 168.482 54.3505V53.6901C163.052 52.3693 158.674 49.4585 155.347 44.9579C152.069 40.4083 150.431 35.2228 150.431 29.4013C150.431 23.7755 151.923 18.7612 154.907 14.3584C157.94 9.95557 162.074 6.50671 167.308 4.01178C172.591 1.46794 178.608 0.196019 185.359 0.196019C192.013 0.196019 197.956 1.46794 203.191 4.01178C208.474 6.50671 212.608 9.95557 215.592 14.3584C218.625 18.7612 220.142 23.7755 220.142 29.4013C220.142 35.2228 218.478 40.4083 215.152 44.9579C211.874 49.4585 207.569 52.3693 202.237 53.6901V54.3505C206.346 55.0843 210.064 56.7476 213.391 59.3404C216.717 61.9332 219.359 65.1863 221.316 69.1C223.273 73.0136 224.251 77.2451 224.251 81.7947C224.251 87.714 222.588 92.9974 219.261 97.6448C215.935 102.243 211.336 105.863 205.466 108.505C199.644 111.147 192.942 112.468 185.359 112.468ZM185.359 98.9657C189.86 98.9657 193.774 98.2319 197.1 96.7643C200.427 95.2477 202.995 93.1197 204.805 90.3802C206.615 87.6407 207.52 84.4609 207.52 80.8408C207.52 77.025 206.542 73.674 204.585 70.7877C202.677 67.8525 200.06 65.5532 196.733 63.89C193.407 62.1778 189.616 61.3217 185.359 61.3217C181.054 61.3217 177.214 62.1533 173.839 63.8166C170.512 65.4799 167.895 67.7791 165.987 70.7143C164.079 73.6495 163.125 77.025 163.125 80.8408C163.125 84.4609 164.03 87.6407 165.84 90.3802C167.65 93.1197 170.219 95.2477 173.545 96.7643C176.872 98.2319 180.81 98.9657 185.359 98.9657ZM185.359 48.1866C188.98 48.1866 192.184 47.4528 194.972 45.9852C197.81 44.5176 200.035 42.4874 201.65 39.8947C203.313 37.3019 204.145 34.2689 204.145 30.7955C204.145 27.3711 203.338 24.387 201.723 21.8432C200.158 19.2993 197.956 17.318 195.119 15.8994C192.331 14.4807 189.077 13.7713 185.359 13.7713C181.593 13.7713 178.291 14.4807 175.453 15.8994C172.616 17.318 170.414 19.2993 168.849 21.8432C167.283 24.387 166.501 27.3711 166.501 30.7955C166.501 34.2689 167.308 37.3019 168.922 39.8947C170.537 42.4874 172.738 44.5176 175.527 45.9852C178.364 47.4528 181.642 48.1866 185.359 48.1866Z" fill="#952AFF"/>
</svg>
