<svg width="30" height="26" viewBox="0 0 30 26" fill="none" xmlns="http://www.w3.org/2000/svg">
<g clip-path="url(#clip0_901_1893)">
<path d="M28.3711 22.957C29.0014 23.021 29.4931 23.5531 29.4932 24.2002C29.4932 24.8474 29.0014 25.3793 28.3711 25.4434L28.2432 25.4502H1.75684C1.06652 25.4502 0.506836 24.8905 0.506836 24.2002C0.506915 23.5099 1.06657 22.9502 1.75684 22.9502H28.2432L28.3711 22.957ZM28.3711 11.7568C29.0013 11.8208 29.4931 12.3529 29.4932 13C29.4932 13.6472 29.0014 14.1791 28.3711 14.2432L28.2432 14.25H1.75684C1.06652 14.25 0.506836 13.6903 0.506836 13C0.506945 12.3098 1.06658 11.75 1.75684 11.75H28.2432L28.3711 11.7568ZM28.3711 0.556641C29.0014 0.62065 29.4931 1.15266 29.4932 1.7998C29.4932 2.44701 29.0014 2.97895 28.3711 3.04297L28.2432 3.0498H1.75684C1.06648 3.0498 0.506836 2.49016 0.506836 1.7998C0.506911 1.10951 1.06653 0.549805 1.75684 0.549805H28.2432L28.3711 0.556641Z" fill="white"/>
</g>
<defs>
<clipPath id="clip0_901_1893">
<rect width="30" height="26" fill="white"/>
</clipPath>
</defs>
</svg>
