<svg width="45" height="45" viewBox="0 0 45 45" fill="none" xmlns="http://www.w3.org/2000/svg">
<g clip-path="url(#clip0_849_1948)">
<rect width="4" height="10" rx="2" transform="matrix(1 0 0.00262751 0.999997 21 0)" fill="#FF3DA8"/>
<rect width="4" height="10" rx="2" transform="matrix(1 0 0.00262751 0.999997 21 35)" fill="#FF3DA8"/>
<rect width="4" height="10" rx="2" transform="matrix(-4.37114e-08 1 -0.999997 0.00262747 45 20.5)" fill="#F6D0E5"/>
<rect width="4" height="10" rx="2" transform="matrix(-4.37114e-08 1 -0.999997 0.00262747 10 20.5)" fill="#FF3DA8"/>
<rect width="4" height="10" rx="2" transform="matrix(0.866025 0.5 -0.497723 0.867336 32.4512 2.26465)" fill="#F480C0"/>
<rect width="4" height="10" rx="2" transform="matrix(0.866025 0.5 -0.497723 0.867336 14.9512 32.5752)" fill="#FF3DA8"/>
<rect width="4" height="10" rx="2" transform="matrix(-0.5 0.866025 -0.867336 -0.497723 42.9854 32.0176)" fill="#F2E1EC"/>
<rect width="4" height="10" rx="2" transform="matrix(-0.5 0.866025 -0.867336 -0.497723 12.6748 14.5176)" fill="#FF3DA8"/>
<rect width="4" height="10" rx="2" transform="matrix(0.5 0.866025 -0.864709 0.502274 41.3633 9.98926)" fill="#F6BCDD"/>
<rect width="4" height="10" rx="2" transform="matrix(0.5 0.866025 -0.864709 0.502274 11.0527 27.4883)" fill="#FF3DA8"/>
<rect width="4" height="10" rx="2" transform="matrix(-0.866025 0.5 -0.502274 -0.864709 35.6094 41.0225)" fill="#F2E1EC"/>
<rect width="4" height="10" rx="2" transform="matrix(-0.866025 0.5 -0.502274 -0.864709 18.1094 10.7119)" fill="#FF3DA8"/>
</g>
<defs>
<clipPath id="clip0_849_1948">
<rect width="45" height="45" fill="white"/>
</clipPath>
</defs>
</svg>
