<svg width="44" height="32" viewBox="0 0 44 32" fill="none" xmlns="http://www.w3.org/2000/svg">
<g clip-path="url(#clip0_901_1893)">
<path d="M0 19.0635C6.82202e-06 17.9497 0.10898 16.8956 0.328125 15.9014H4.37598C4.01779 16.8659 3.8379 17.9198 3.83789 19.0635C3.83789 20.8162 4.25928 22.376 5.10059 23.7432C5.90685 25.0752 7.04625 26.1272 8.51855 26.8984C9.99077 27.6695 11.7434 28.0547 13.7764 28.0547C15.7743 28.0547 17.5269 27.6695 19.0342 26.8984C20.5065 26.1272 21.6636 25.0752 22.5049 23.7432C23.3111 22.3761 23.7148 20.8162 23.7148 19.0635C23.7148 17.9196 23.5407 16.8661 23.1973 15.9014L27.2236 15.9014C27.4428 16.8957 27.5527 17.9496 27.5527 19.0635C27.5527 21.5874 26.9742 23.8309 25.8174 25.7939C24.6606 27.7219 23.0486 29.2474 20.9805 30.3691C18.9122 31.4558 16.5106 31.999 13.7764 31.999C11.0421 31.999 8.6405 31.4558 6.57227 30.3691C4.50407 29.2474 2.89215 27.7219 1.73535 25.7939C0.578542 23.8309 0 21.5874 0 19.0635Z" fill="white"/>
<path d="M43.2848 13.8587C43.2422 14.9706 43.0926 16.0194 42.836 17.0051L38.7912 16.8763C39.1854 15.9246 39.4051 14.8782 39.4488 13.7365C39.5158 11.9852 39.1551 10.413 38.3667 9.02012C37.6118 7.66341 36.513 6.57585 35.071 5.75836C33.629 4.94086 31.8913 4.50029 29.8591 4.43557C27.8622 4.37201 26.0957 4.70105 24.5598 5.42362C23.0587 6.1474 21.862 7.16178 20.9702 8.46611C20.1122 9.80654 19.6499 11.3525 19.5829 13.1039C19.5393 14.2456 19.6709 15.3031 19.9765 16.2772L15.9542 16.1491C15.7735 15.1494 15.7035 14.0937 15.746 12.9817C15.8425 10.4596 16.5065 8.23619 17.7378 6.3114C18.9677 4.42161 20.6381 2.94864 22.7481 1.89353C24.8567 0.873653 27.2773 0.407129 30.0099 0.494118C32.7428 0.581148 35.1224 1.20041 37.1481 2.35211C39.1724 3.53888 40.7261 5.11453 41.8086 7.07795C42.8896 9.07634 43.3813 11.3367 43.2848 13.8587Z" fill="white"/>
</g>
<defs>
<clipPath id="clip0_901_1893">
<rect width="44" height="32" fill="white"/>
</clipPath>
</defs>
</svg>
