<svg width="200" height="23" viewBox="0 0 200 23" fill="none" xmlns="http://www.w3.org/2000/svg">
<path fill-rule="evenodd" clip-rule="evenodd" d="M4.51672 20.5208C5.77755 21.2508 7.23746 21.6158 8.89646 21.6158C10.1573 21.6158 11.2854 21.4056 12.2808 20.9853C13.2983 20.5429 14.1831 19.9015 14.9352 19.0609C15.6873 18.1982 16.2624 17.1697 16.6605 15.9752L14.1721 15.2784H13.8071C13.5416 16.0305 13.1656 16.683 12.679 17.236C12.2144 17.789 11.6614 18.2093 11.02 18.4968C10.3785 18.7844 9.67065 18.9282 8.89646 18.9282C7.76834 18.9282 6.784 18.6738 5.94345 18.165C5.12501 17.6563 4.48354 16.9485 4.01902 16.0415C3.5545 15.1125 3.32224 14.0507 3.32224 12.8563C3.32224 11.6618 3.5545 10.6111 4.01902 9.70419C4.48354 8.79727 5.12501 8.08943 5.94345 7.58068C6.784 7.07192 7.76834 6.81754 8.89646 6.81754C10.0024 6.81754 10.9757 7.14934 11.8163 7.81294C12.679 8.45441 13.2983 9.33921 13.6744 10.4673H14.0393L16.4946 9.77055C16.1407 8.57607 15.5988 7.56962 14.8688 6.75118C14.161 5.91062 13.2983 5.26915 12.2808 4.82675C11.2854 4.36223 10.1573 4.12997 8.89646 4.12997C7.23746 4.12997 5.77755 4.49495 4.51672 5.22491C3.25588 5.95486 2.27155 6.98344 1.56371 8.31063C0.855871 9.61571 0.501953 11.1309 0.501953 12.8563C0.501953 14.6037 0.855871 16.13 1.56371 17.4351C2.27155 18.7402 3.25588 19.7687 4.51672 20.5208ZM49.8406 4.56131V21.1844H52.6609V12.3586C52.6609 11.142 52.9043 10.1245 53.3909 9.30603C53.8996 8.48759 54.5411 7.8793 55.3153 7.48114C56.1116 7.06086 56.9301 6.85072 57.7706 6.85072C58.5448 6.85072 59.2305 6.9945 59.8278 7.28206C60.4471 7.56962 60.9338 8.06732 61.2877 8.77515C61.6416 9.46087 61.8186 10.401 61.8186 11.5954V21.1844H64.6389V10.8987C64.6389 9.39451 64.3734 8.14474 63.8425 7.14934C63.3117 6.15394 62.5706 5.40187 61.6195 4.89311C60.6905 4.38435 59.6287 4.12997 58.4342 4.12997C57.4167 4.12997 56.4545 4.31799 55.5476 4.69403C54.6628 5.07007 53.8886 5.60095 53.225 6.28666C52.9796 6.54024 52.7584 6.81197 52.5614 7.10185V4.56131H49.8406ZM68.9903 4.56131V21.1844H71.8106V12.3586C71.8106 11.142 72.0539 10.1245 72.5406 9.30603C73.0493 8.48759 73.6908 7.8793 74.465 7.48114C75.2613 7.06086 76.0798 6.85072 76.9203 6.85072C77.6945 6.85072 78.3802 6.9945 78.9775 7.28206C79.5968 7.56962 80.0835 8.06732 80.4374 8.77515C80.7913 9.46087 80.9683 10.401 80.9683 11.5954V21.1844H83.7886V10.8987C83.7886 9.39451 83.5231 8.14474 82.9922 7.14934C82.4614 6.15394 81.7203 5.40187 80.7692 4.89311C79.8401 4.38435 78.7784 4.12997 77.5839 4.12997C76.5664 4.12997 75.6042 4.31799 74.6973 4.69403C73.8125 5.07007 73.0383 5.60095 72.3747 6.28666C72.1293 6.54024 71.9081 6.81197 71.7111 7.10185V4.56131H68.9903ZM91.1262 20.5208C92.3649 21.2508 93.7917 21.6158 95.4064 21.6158C97.0433 21.6158 98.4811 21.2287 99.7198 20.4545C100.981 19.6581 101.921 18.5743 102.54 17.2028L100.218 16.1743H99.8194C99.3991 17.0369 98.8129 17.7227 98.0608 18.2314C97.3087 18.718 96.4239 18.9614 95.4064 18.9614C94.3668 18.9614 93.4378 18.707 92.6193 18.1982C91.8009 17.6895 91.1594 17.0038 90.6949 16.1411C90.3447 15.474 90.1265 14.744 90.0403 13.9512H102.706L103.204 13.4867V13.0885C103.204 11.2968 102.872 9.72631 102.208 8.37699C101.545 7.02768 100.616 5.98804 99.4212 5.25809C98.2488 4.50601 96.8774 4.12997 95.3069 4.12997C93.7143 4.12997 92.2986 4.49495 91.0599 5.22491C89.8433 5.95486 88.8921 6.98344 88.2064 8.31063C87.5207 9.61571 87.1778 11.1309 87.1778 12.8563C87.1778 14.6037 87.5207 16.13 88.2064 17.4351C88.9142 18.7402 89.8875 19.7687 91.1262 20.5208ZM90.0875 11.33C90.1943 10.667 90.3968 10.0587 90.6949 9.50511C91.1594 8.64243 91.8009 7.97884 92.6193 7.51432C93.4378 7.02768 94.3336 6.78436 95.3069 6.78436C96.2138 6.78436 97.0322 6.9945 97.7622 7.41478C98.4922 7.81294 99.0894 8.38805 99.5539 9.14013C99.939 9.76366 100.187 10.4936 100.299 11.33H90.0875ZM109.791 20.5208C111.052 21.2508 112.512 21.6158 114.171 21.6158C115.432 21.6158 116.56 21.4056 117.556 20.9853C118.573 20.5429 119.458 19.9015 120.21 19.0609C120.962 18.1982 121.537 17.1697 121.935 15.9752L119.447 15.2784H119.082C118.816 16.0305 118.44 16.683 117.954 17.236C117.489 17.789 116.936 18.2093 116.295 18.4968C115.653 18.7844 114.945 18.9282 114.171 18.9282C113.043 18.9282 112.059 18.6738 111.218 18.165C110.4 17.6563 109.758 16.9485 109.294 16.0415C108.829 15.1125 108.597 14.0507 108.597 12.8563C108.597 11.6618 108.829 10.6111 109.294 9.70419C109.758 8.79727 110.4 8.08943 111.218 7.58068C112.059 7.07192 113.043 6.81754 114.171 6.81754C115.277 6.81754 116.25 7.14934 117.091 7.81294C117.954 8.45441 118.573 9.33921 118.949 10.4673H119.314L121.769 9.77055C121.415 8.57607 120.874 7.56962 120.144 6.75118C119.436 5.91062 118.573 5.26915 117.556 4.82675C116.56 4.36223 115.432 4.12997 114.171 4.12997C112.512 4.12997 111.052 4.49495 109.791 5.22491C108.531 5.95486 107.546 6.98344 106.838 8.31063C106.131 9.61571 105.777 11.1309 105.777 12.8563C105.777 14.6037 106.131 16.13 106.838 17.4351C107.546 18.7402 108.531 19.7687 109.791 20.5208ZM127.411 19.824C128.318 20.731 129.491 21.1844 130.928 21.1844H133.682V18.8618L133.516 18.4968H131.526C130.597 18.4968 129.922 18.2978 129.502 17.8996C129.081 17.4793 128.871 16.7936 128.871 15.8425V7.2157H133.682V4.56131H128.871V0.0820312H126.051V4.56131H123.197V7.2157H126.051V16.0747C126.051 17.6452 126.504 18.895 127.411 19.824ZM139.73 20.5208C140.968 21.2508 142.395 21.6158 144.01 21.6158C145.647 21.6158 147.084 21.2287 148.323 20.4545C149.584 19.6581 150.524 18.5743 151.143 17.2028L148.821 16.1743H148.423C148.002 17.0369 147.416 17.7227 146.664 18.2314C145.912 18.718 145.027 18.9614 144.01 18.9614C142.97 18.9614 142.041 18.707 141.223 18.1982C140.404 17.6895 139.763 17.0038 139.298 16.1411C138.948 15.474 138.73 14.744 138.644 13.9512H151.309L151.807 13.4867V13.0885C151.807 11.2968 151.475 9.72631 150.812 8.37699C150.148 7.02768 149.219 5.98804 148.024 5.25809C146.852 4.50601 145.481 4.12997 143.91 4.12997C142.318 4.12997 140.902 4.49495 139.663 5.22491C138.447 5.95486 137.495 6.98344 136.81 8.31063C136.124 9.61571 135.781 11.1309 135.781 12.8563C135.781 14.6037 136.124 16.13 136.81 17.4351C137.518 18.7402 138.491 19.7687 139.73 20.5208ZM138.691 11.33C138.798 10.667 139 10.0587 139.298 9.50511C139.763 8.64243 140.404 7.97884 141.223 7.51432C142.041 7.02768 142.937 6.78436 143.91 6.78436C144.817 6.78436 145.636 6.9945 146.365 7.41478C147.095 7.81294 147.693 8.38805 148.157 9.14013C148.542 9.76366 148.791 10.4936 148.902 11.33H138.691ZM157.499 20.9522C158.406 21.3946 159.434 21.6158 160.585 21.6158C161.668 21.6158 162.664 21.4167 163.571 21.0185C164.5 20.5982 165.296 20.0342 165.96 19.3263C166.114 19.1619 166.258 18.9931 166.391 18.8197V21.1844H169.045V11.8277C169.045 9.37239 168.426 7.47008 167.187 6.12076C165.971 4.77145 164.234 4.09679 161.978 4.09679C160.253 4.09679 158.782 4.50601 157.565 5.32445C156.349 6.14288 155.497 7.29312 155.01 8.77515L157.466 9.57147H157.831C158.096 8.68667 158.594 8.00096 159.324 7.51432C160.054 7.00556 160.927 6.75118 161.945 6.75118C163.25 6.75118 164.29 7.1604 165.064 7.97884C165.808 8.74358 166.204 9.70145 166.253 10.8524L160.585 11.2636C158.727 11.4185 157.267 11.9494 156.205 12.8563C155.165 13.7632 154.645 14.9466 154.645 16.4065C154.645 17.424 154.9 18.3309 155.409 19.1273C155.917 19.9015 156.614 20.5098 157.499 20.9522ZM166.258 13.3789V13.7853C166.258 14.7365 166.015 15.5991 165.528 16.3733C165.064 17.1475 164.422 17.7669 163.604 18.2314C162.786 18.6959 161.879 18.9282 160.883 18.9282C159.91 18.9282 159.114 18.6849 158.494 18.1982C157.875 17.7116 157.565 17.1033 157.565 16.3733C157.565 15.5991 157.853 15.0019 158.428 14.5816C159.025 14.1392 159.932 13.8738 161.149 13.7853L166.258 13.3789ZM173.423 4.56131V21.1844H176.243V12.3586C176.243 11.1199 176.497 10.1023 177.006 9.30603C177.515 8.48759 178.145 7.8793 178.897 7.48114C179.671 7.06086 180.435 6.85072 181.187 6.85072C181.895 6.85072 182.536 6.9945 183.111 7.28206C183.708 7.56962 184.184 8.05626 184.538 8.74197C184.892 9.42769 185.069 10.3678 185.069 11.5623V21.1844H187.889V12.3586C187.889 11.0977 188.143 10.0692 188.652 9.27285C189.161 8.45441 189.791 7.84612 190.543 7.44796C191.296 7.0498 192.048 6.85072 192.8 6.85072C193.53 6.85072 194.182 6.9945 194.757 7.28206C195.332 7.56962 195.797 8.05626 196.151 8.74197C196.505 9.42769 196.682 10.3678 196.682 11.5623V21.1844H199.502V10.8987C199.502 9.39451 199.237 8.14474 198.706 7.14934C198.175 6.15394 197.456 5.40187 196.549 4.89311C195.642 4.38435 194.625 4.12997 193.496 4.12997C192.39 4.12997 191.362 4.32905 190.411 4.72721C189.46 5.12537 188.641 5.67837 187.955 6.3862C187.665 6.69566 187.411 7.02837 187.193 7.38433C186.812 6.55844 186.281 5.88287 185.6 5.35763C184.538 4.53919 183.288 4.12997 181.85 4.12997C180.899 4.12997 179.992 4.31799 179.13 4.69403C178.267 5.04795 177.515 5.55671 176.873 6.2203C176.6 6.49377 176.357 6.79136 176.143 7.11307V4.56131H173.423ZM46.2454 13.1847C46.3629 12.6278 46.4276 12.0407 46.4395 11.4236C46.4703 9.83123 46.1328 8.40877 45.4269 7.15618C44.7206 5.9257 43.7218 4.944 42.4307 4.21107C41.1391 3.50026 39.6308 3.12818 37.9058 3.09483C36.1808 3.06148 34.6592 3.37499 33.3411 4.03536C32.0226 4.71784 30.9867 5.66021 30.2334 6.86247C29.4796 8.08684 29.0873 9.4952 29.0565 11.0875C29.0446 11.7047 29.0866 12.2938 29.1824 12.8548L31.6928 12.9034C31.5375 12.3553 31.466 11.7657 31.4782 11.1343C31.4996 10.0286 31.7729 9.04932 32.2983 8.19664C32.8453 7.3665 33.588 6.71714 34.5262 6.24855C35.4866 5.78038 36.5971 5.55849 37.8577 5.58286C39.1404 5.60765 40.2415 5.8723 41.1609 6.37681C42.0804 6.88131 42.7863 7.55868 43.2788 8.40891C43.7929 9.28169 44.0392 10.271 44.0178 11.3768C44.0056 12.0081 43.9078 12.5945 43.7242 13.136L46.2454 13.1847ZM20.5315 11.9528C20.3947 12.5052 20.3096 13.0896 20.2761 13.706C20.1898 15.2963 20.4775 16.7296 21.1393 18.0061C21.8022 19.2605 22.7661 20.2764 24.0309 21.0539C25.2969 21.8094 26.7913 22.2338 28.5141 22.3273C30.237 22.4208 31.7685 22.1606 33.1088 21.5466C34.4504 20.9105 35.5185 20.0049 36.3133 18.8296C37.1093 17.6323 37.5505 16.2385 37.6368 14.6482C37.6703 14.0318 37.6489 13.4417 37.5727 12.8776L35.0655 12.7416C35.2016 13.2947 35.2525 13.8864 35.2183 14.5169C35.1583 15.6213 34.851 16.5904 34.2962 17.4242C33.7206 18.2348 32.9557 18.8579 32.0017 19.2934C31.0255 19.7278 29.908 19.9108 28.649 19.8425C27.3679 19.773 26.2767 19.4701 25.3754 18.9338C24.4741 18.3975 23.7923 17.6959 23.3298 16.8291C22.8465 15.9389 22.6348 14.9416 22.6947 13.8372C22.7289 13.2067 22.8472 12.6241 23.0495 12.0894L20.5315 11.9528Z" fill="white"/>
</svg>
