<svg width="141" height="141" viewBox="0 0 141 141" fill="none" xmlns="http://www.w3.org/2000/svg">
<circle cx="70.6304" cy="70.6304" r="70" fill="#4200FF"/>
<path d="M116.207 67.1638C116.168 69.1656 115.966 71.0746 115.602 72.8904L107.045 72.725C107.612 70.9564 107.918 69.0497 107.957 67.0043C108.03 63.2374 107.191 59.8673 105.439 56.8942C103.762 53.9978 101.357 51.6898 98.2251 49.9712C95.0929 48.2525 91.3413 47.3513 86.9716 47.2669C82.6774 47.1839 78.8944 47.9395 75.6229 49.5343C72.4266 51.1305 69.8967 53.3432 68.0332 56.171C66.2437 59.0757 65.3116 62.4116 65.2387 66.1785C65.1992 68.2241 65.4216 70.1407 65.8982 71.9296L57.3734 71.7648C57.0792 69.9362 56.9506 68.0208 56.9893 66.019C57.0942 60.5946 58.4309 55.7969 60.9987 51.626C63.565 47.5304 67.0936 44.3198 71.5852 41.9949C76.0754 39.7453 81.2589 38.6773 87.1354 38.7909C93.0119 38.9045 98.1503 40.172 102.55 42.5935C106.949 45.0903 110.351 48.4348 112.758 52.6266C115.162 56.8936 116.312 61.7394 116.207 67.1638Z" fill="white"/>
<path d="M28.2561 74.4334C28.3646 72.4344 28.6328 70.5341 29.0604 68.7323L37.6065 69.1961C36.9777 70.9437 36.6059 72.838 36.495 74.8806C36.2908 78.6426 37.0123 82.04 38.6587 85.0724C40.2341 88.0255 42.5569 90.4159 45.6271 92.2428C48.6975 94.0697 52.4153 95.1012 56.7794 95.3381C61.0682 95.5708 64.8751 94.9476 68.2003 93.4679C71.4504 91.9841 74.0558 89.8612 76.0168 87.0999C77.9067 84.2594 78.9546 80.9582 79.1588 77.1961C79.2696 75.1534 79.115 73.2306 78.7012 71.4265L87.2141 71.8885C87.4442 73.726 87.5061 75.6442 87.3976 77.6432C87.1036 83.0607 85.6003 87.8087 82.8886 91.8876C80.181 95.8912 76.5425 98.9767 71.9725 101.144C67.4065 103.235 62.189 104.122 56.32 103.803C50.451 103.485 45.3601 102.039 41.0473 99.4652C36.7386 96.8164 33.4545 93.3552 31.1961 89.0821C28.9419 84.7338 27.9621 79.8508 28.2561 74.4334Z" fill="white"/>
</svg>
