<svg width="36" height="36" viewBox="0 0 36 36" fill="none" xmlns="http://www.w3.org/2000/svg">
<path fill-rule="evenodd" clip-rule="evenodd" d="M4.15675 16.1928C12.5785 12.5236 18.1942 10.1047 21.0041 8.93595C29.0269 5.59901 30.6939 5.01934 31.7805 5.0002C32.0195 4.99599 32.5538 5.05522 32.8999 5.33608C33.1922 5.57323 33.2726 5.89358 33.3111 6.11842C33.3496 6.34327 33.3975 6.85547 33.3594 7.25568C32.9246 11.8237 31.0435 22.9091 30.0864 28.0253C29.6815 30.1902 28.8841 30.9161 28.1121 30.9871C26.4345 31.1415 25.1606 29.8784 23.5357 28.8133C20.9931 27.1466 19.5567 26.1091 17.0887 24.4827C14.2364 22.6031 16.0854 21.57 17.7109 19.8817C18.1363 19.4399 25.528 12.7166 25.6711 12.1067C25.6889 12.0304 25.7056 11.7461 25.5366 11.5959C25.3677 11.4458 25.1184 11.4971 24.9385 11.538C24.6835 11.5958 20.6217 14.2806 12.753 19.5921C11.6001 20.3838 10.5558 20.7696 9.62011 20.7494C8.58863 20.7271 6.60447 20.1661 5.12945 19.6867C3.32028 19.0986 1.88239 18.7877 2.0076 17.7889C2.07282 17.2687 2.7892 16.7367 4.15675 16.1928Z"/>
</svg>
