<svg width="63" height="63" viewBox="0 0 63 63" fill="none" xmlns="http://www.w3.org/2000/svg">
<path fill-rule="evenodd" clip-rule="evenodd" d="M14.2587 31.1673C23.4416 27.1664 29.5649 24.5288 32.6288 23.2545C41.3767 19.6159 43.1944 18.9839 44.3792 18.963C44.6397 18.9584 45.2224 19.023 45.5998 19.3292C45.9185 19.5878 46.0061 19.9371 46.0481 20.1823C46.0901 20.4274 46.1423 20.9859 46.1008 21.4223C45.6267 26.4032 43.5755 38.4905 42.532 44.0692C42.0904 46.4298 41.221 47.2213 40.3792 47.2987C38.55 47.467 37.1609 46.0898 35.3892 44.9284C32.6168 43.1111 31.0505 41.9798 28.3594 40.2064C25.2494 38.1569 27.2655 37.0305 29.0379 35.1896C29.5018 34.7078 37.5615 27.3768 37.7175 26.7118C37.737 26.6286 37.7551 26.3186 37.571 26.1549C37.3868 25.9912 37.1149 26.0471 36.9188 26.0917C36.6407 26.1548 32.2117 29.0822 23.6319 34.8738C22.3747 35.7371 21.2361 36.1577 20.2158 36.1356C19.0911 36.1113 16.9276 35.4997 15.3193 34.9769C13.3466 34.3356 11.7787 33.9966 11.9153 32.9076C11.9864 32.3403 12.7675 31.7602 14.2587 31.1673Z" fill="#F2F2F2"/>
</svg>
