<svg width="64" height="63" viewBox="0 0 64 63" fill="none" xmlns="http://www.w3.org/2000/svg">
<path d="M49.9596 22.2423C49.5187 20.5864 48.224 19.2851 46.5768 18.8418C43.5941 18.0376 31.6283 18.0376 31.6283 18.0376C31.6283 18.0376 19.6626 18.0376 16.6799 18.8418C15.0326 19.2851 13.7381 20.5864 13.2971 22.2423C12.4971 25.2407 12.4971 31.5004 12.4971 31.5004C12.4971 31.5004 12.4971 37.76 13.2971 40.7584C13.7381 42.4143 15.0326 43.7157 16.6799 44.1588C19.6626 44.9631 31.6283 44.9631 31.6283 44.9631C31.6283 44.9631 43.5941 44.9631 46.5768 44.1588C48.224 43.7157 49.5187 42.4143 49.9596 40.7584C50.7596 37.76 50.7596 31.5004 50.7596 31.5004C50.7596 31.5004 50.7564 25.2407 49.9596 22.2423Z" fill="#F2F2F2"/>
<path d="M27.7986 37.1688L37.7391 31.4301L27.7986 25.6913V37.1688Z" fill="#4200FF"/>
</svg>
