<svg width="36" height="36" viewBox="0 0 36 36" fill="none" xmlns="http://www.w3.org/2000/svg">
<path d="M35.2472 8.9561C34.8324 7.39809 33.6143 6.17372 32.0645 5.75666C29.2582 5 17.9999 5 17.9999 5C17.9999 5 6.74184 5 3.93545 5.75666C2.38558 6.17372 1.1676 7.39809 0.752716 8.9561C2.38419e-07 11.7772 0 17.6667 0 17.6667C0 17.6667 2.38419e-07 23.5562 0.752716 26.3773C1.1676 27.9353 2.38558 29.1596 3.93545 29.5766C6.74184 30.3333 17.9999 30.3333 17.9999 30.3333C17.9999 30.3333 29.2582 30.3333 32.0645 29.5766C33.6143 29.1596 34.8324 27.9353 35.2472 26.3773C36 23.5562 36 17.6667 36 17.6667C36 17.6667 35.997 11.7772 35.2472 8.9561Z"/>
<path d="M14.3965 23L23.7491 17.6006L14.3965 12.2012V23Z" fill="#4200FF"/>
</svg>
