<svg viewBox="0 0 515 290" fill="none" xmlns="http://www.w3.org/2000/svg">
<path d="M194.955 21C194.955 19.9738 194.955 19.4606 194.936 19.0269C194.486 8.72124 186.234 0.468892 175.928 0.0189354C175.494 0 174.981 0 173.955 0H35.8301C29.4378 0 26.2416 0 23.6095 0.659313C15.7352 2.63173 9.58681 8.78008 7.6144 16.6544C6.95508 19.2866 6.95508 22.4827 6.95508 28.875C6.95508 31.7806 6.95508 33.2334 7.25476 34.4298C8.15132 38.0091 10.946 40.8038 14.5253 41.7003C15.7217 42 17.1745 42 20.0801 42H173.955C174.981 42 175.494 42 175.928 41.9811C186.234 41.5311 194.486 33.2788 194.936 22.9731C194.955 22.5394 194.955 22.0262 194.955 21Z" fill="#D4C5FF"/>
<path d="M146.258 22.3531V31.8076H145.113V23.5534H145.057L142.749 25.086V23.9227L145.113 22.3531H146.258ZM151.745 31.9369C151.111 31.9369 150.551 31.8245 150.065 31.5999C149.582 31.3721 149.205 31.0597 148.934 30.6627C148.663 30.2626 148.529 29.8071 148.532 29.2963C148.529 28.8962 148.607 28.5268 148.768 28.1883C148.928 27.8467 149.146 27.562 149.423 27.3343C149.703 27.1034 150.016 26.9572 150.36 26.8957V26.8403C149.908 26.7233 149.548 26.4694 149.28 26.0786C149.012 25.6846 148.88 25.2368 148.883 24.7352C148.88 24.2551 149.001 23.8257 149.248 23.4472C149.494 23.0686 149.832 22.7701 150.263 22.5516C150.697 22.3331 151.191 22.2238 151.745 22.2238C152.293 22.2238 152.782 22.3331 153.213 22.5516C153.644 22.7701 153.983 23.0686 154.229 23.4472C154.478 23.8257 154.604 24.2551 154.607 24.7352C154.604 25.2368 154.467 25.6846 154.196 26.0786C153.929 26.4694 153.573 26.7233 153.13 26.8403V26.8957C153.472 26.9572 153.779 27.1034 154.053 27.3343C154.327 27.562 154.546 27.8467 154.709 28.1883C154.872 28.5268 154.955 28.8962 154.958 29.2963C154.955 29.8071 154.817 30.2626 154.543 30.6627C154.272 31.0597 153.895 31.3721 153.412 31.5999C152.932 31.8245 152.376 31.9369 151.745 31.9369ZM151.745 30.9213C152.173 30.9213 152.542 30.852 152.853 30.7135C153.164 30.575 153.404 30.3796 153.573 30.1272C153.743 29.8749 153.829 29.5794 153.832 29.2409C153.829 28.8838 153.736 28.5684 153.555 28.2945C153.373 28.0206 153.125 27.8051 152.812 27.6482C152.501 27.4912 152.145 27.4127 151.745 27.4127C151.342 27.4127 150.982 27.4912 150.665 27.6482C150.351 27.8051 150.103 28.0206 149.922 28.2945C149.743 28.5684 149.655 28.8838 149.659 29.2409C149.655 29.5794 149.737 29.8749 149.903 30.1272C150.072 30.3796 150.314 30.575 150.628 30.7135C150.942 30.852 151.314 30.9213 151.745 30.9213ZM151.745 26.434C152.084 26.434 152.384 26.3663 152.645 26.2309C152.91 26.0955 153.118 25.9062 153.269 25.6631C153.419 25.42 153.496 25.1353 153.499 24.809C153.496 24.489 153.421 24.2104 153.273 23.9735C153.125 23.7334 152.921 23.5487 152.659 23.4195C152.398 23.2871 152.093 23.221 151.745 23.221C151.391 23.221 151.082 23.2871 150.817 23.4195C150.553 23.5487 150.348 23.7334 150.203 23.9735C150.059 24.2104 149.988 24.489 149.991 24.809C149.988 25.1353 150.06 25.42 150.208 25.6631C150.359 25.9062 150.566 26.0955 150.831 26.2309C151.096 26.3663 151.4 26.434 151.745 26.434ZM157.28 30.5981C157.052 30.5981 156.857 30.5165 156.694 30.3534C156.531 30.1903 156.449 29.9949 156.449 29.7671C156.449 29.5394 156.531 29.344 156.694 29.1808C156.857 29.0177 157.052 28.9362 157.28 28.9362C157.508 28.9362 157.703 29.0177 157.866 29.1808C158.029 29.344 158.111 29.5394 158.111 29.7671C158.111 29.9179 158.072 30.0564 157.996 30.1826C157.922 30.3088 157.822 30.4104 157.695 30.4873C157.572 30.5612 157.434 30.5981 157.28 30.5981ZM157.28 25.8154C157.052 25.8154 156.857 25.7339 156.694 25.5708C156.531 25.4076 156.449 25.2122 156.449 24.9845C156.449 24.7567 156.531 24.5613 156.694 24.3982C156.857 24.2351 157.052 24.1535 157.28 24.1535C157.508 24.1535 157.703 24.2351 157.866 24.3982C158.029 24.5613 158.111 24.7567 158.111 24.9845C158.111 25.1353 158.072 25.2738 157.996 25.3999C157.922 25.5261 157.822 25.6277 157.695 25.7046C157.572 25.7785 157.434 25.8154 157.28 25.8154ZM162.742 31.9369C162.2 31.9369 161.713 31.8292 161.279 31.6137C160.845 31.3983 160.497 31.1028 160.235 30.7274C159.974 30.3519 159.831 29.9241 159.806 29.444H160.914C160.957 29.8718 161.151 30.2257 161.496 30.5058C161.843 30.7828 162.259 30.9213 162.742 30.9213C163.13 30.9213 163.475 30.8305 163.776 30.6489C164.081 30.4673 164.319 30.218 164.492 29.901C164.667 29.5809 164.755 29.2193 164.755 28.8161C164.755 28.4037 164.664 28.036 164.483 27.7128C164.304 27.3866 164.058 27.1296 163.744 26.9419C163.43 26.7541 163.071 26.6587 162.668 26.6556C162.379 26.6526 162.082 26.6972 161.777 26.7895C161.473 26.8788 161.222 26.9942 161.025 27.1357L159.954 27.0065L160.526 22.3531H165.438V23.3687H161.486L161.154 26.157H161.209C161.403 26.0032 161.646 25.8754 161.939 25.7739C162.231 25.6723 162.536 25.6215 162.853 25.6215C163.431 25.6215 163.947 25.76 164.399 26.037C164.855 26.3109 165.212 26.6864 165.47 27.1634C165.732 27.6405 165.863 28.1852 165.863 28.7977C165.863 29.4009 165.727 29.9395 165.457 30.4134C165.189 30.8843 164.82 31.2567 164.349 31.5306C163.878 31.8015 163.342 31.9369 162.742 31.9369ZM170.576 31.9369C170.188 31.9307 169.8 31.8569 169.413 31.7153C169.025 31.5737 168.671 31.3352 168.351 30.9997C168.031 30.6612 167.774 30.2042 167.58 29.6286C167.386 29.05 167.289 28.3237 167.289 27.4497C167.289 26.6125 167.367 25.8708 167.524 25.2245C167.681 24.5751 167.909 24.0289 168.208 23.5857C168.506 23.1394 168.866 22.8009 169.288 22.57C169.713 22.3392 170.191 22.2238 170.724 22.2238C171.253 22.2238 171.724 22.33 172.136 22.5423C172.552 22.7516 172.89 23.044 173.152 23.4195C173.414 23.795 173.583 24.2274 173.66 24.7167H172.533C172.429 24.292 172.226 23.9396 171.924 23.6595C171.622 23.3795 171.222 23.2394 170.724 23.2394C169.991 23.2394 169.414 23.558 168.992 24.195C168.574 24.8321 168.363 25.7262 168.36 26.8772H168.434C168.606 26.6156 168.811 26.3925 169.048 26.2078C169.288 26.0201 169.553 25.8754 169.842 25.7739C170.131 25.6723 170.437 25.6215 170.761 25.6215C171.302 25.6215 171.798 25.757 172.247 26.0278C172.696 26.2955 173.057 26.6664 173.327 27.1404C173.598 27.6112 173.734 28.1514 173.734 28.7607C173.734 29.3455 173.603 29.881 173.341 30.3673C173.08 30.8505 172.712 31.2352 172.238 31.5214C171.767 31.8045 171.213 31.943 170.576 31.9369ZM170.576 30.9213C170.964 30.9213 171.312 30.8243 171.619 30.6304C171.93 30.4365 172.175 30.1765 172.353 29.8502C172.535 29.524 172.626 29.1608 172.626 28.7607C172.626 28.3699 172.538 28.0144 172.363 27.6943C172.19 27.3712 171.952 27.1142 171.647 26.9234C171.345 26.7326 171.001 26.6372 170.613 26.6372C170.32 26.6372 170.048 26.6956 169.796 26.8126C169.543 26.9265 169.322 27.0834 169.131 27.2835C168.943 27.4835 168.796 27.7128 168.688 27.9713C168.58 28.2268 168.526 28.4961 168.526 28.7792C168.526 29.1547 168.614 29.5055 168.789 29.8318C168.968 30.158 169.211 30.4211 169.519 30.6212C169.83 30.8212 170.182 30.9213 170.576 30.9213Z" fill="#421DFF"/>
<path d="M37.5971 13.4545V28H35.8358V15.017H28.5062V28H26.7449V13.4545H37.5971ZM40.9228 32.0909V17.0909H42.5421V18.8239H42.7409C42.8641 18.6345 43.0345 18.393 43.2523 18.0994C43.4748 17.8011 43.7921 17.536 44.204 17.304C44.6207 17.0672 45.1841 16.9489 45.8944 16.9489C46.8129 16.9489 47.6226 17.1785 48.3233 17.6378C49.0241 18.0971 49.571 18.7481 49.964 19.5909C50.3569 20.4337 50.5534 21.428 50.5534 22.5739C50.5534 23.7292 50.3569 24.7306 49.964 25.5781C49.571 26.4209 49.0265 27.0743 48.3304 27.5384C47.6344 27.9976 46.8319 28.2273 45.9228 28.2273C45.222 28.2273 44.6609 28.1113 44.2395 27.8793C43.8181 27.6425 43.4938 27.375 43.2665 27.0767C43.0392 26.7737 42.8641 26.5227 42.7409 26.3239H42.5989V32.0909H40.9228ZM42.5705 22.5455C42.5705 23.3693 42.6912 24.0961 42.9327 24.7259C43.1742 25.3509 43.5269 25.8409 43.9909 26.196C44.455 26.5464 45.0231 26.7216 45.6955 26.7216C46.3962 26.7216 46.981 26.5369 47.4498 26.1676C47.9232 25.7936 48.2783 25.2917 48.5151 24.6619C48.7566 24.0275 48.8773 23.322 48.8773 22.5455C48.8773 21.7784 48.7589 21.0871 48.5222 20.4716C48.2902 19.8513 47.9374 19.3613 47.464 19.0014C46.9952 18.6368 46.4057 18.4545 45.6955 18.4545C45.0137 18.4545 44.4408 18.6274 43.9767 18.973C43.5127 19.3139 43.1623 19.7921 42.9256 20.4077C42.6889 21.0185 42.5705 21.7311 42.5705 22.5455ZM54.7864 25.5284L60.0421 17.0909H61.9739V28H60.2978V19.5625L55.0705 28H53.1103V17.0909H54.7864V25.5284ZM65.0439 28V17.0909H66.72V21.8352H67.8279L71.7484 17.0909H73.9075L69.5041 22.3466L73.9643 28H71.8052L68.2257 23.3977H66.72V28H65.0439ZM79.7686 28.2273C78.7838 28.2273 77.9197 27.9929 77.1763 27.5241C76.4377 27.0554 75.86 26.3996 75.4434 25.5568C75.0314 24.714 74.8255 23.7292 74.8255 22.6023C74.8255 21.4659 75.0314 20.474 75.4434 19.6264C75.86 18.7789 76.4377 18.1207 77.1763 17.652C77.9197 17.1832 78.7838 16.9489 79.7686 16.9489C80.7535 16.9489 81.6152 17.1832 82.3539 17.652C83.0972 18.1207 83.6749 18.7789 84.0868 19.6264C84.5035 20.474 84.7118 21.4659 84.7118 22.6023C84.7118 23.7292 84.5035 24.714 84.0868 25.5568C83.6749 26.3996 83.0972 27.0554 82.3539 27.5241C81.6152 27.9929 80.7535 28.2273 79.7686 28.2273ZM79.7686 26.7216C80.5167 26.7216 81.1323 26.5298 81.6152 26.1463C82.0982 25.7628 82.4557 25.2585 82.6877 24.6335C82.9197 24.0085 83.0357 23.3314 83.0357 22.6023C83.0357 21.8731 82.9197 21.1937 82.6877 20.5639C82.4557 19.9342 82.0982 19.4252 81.6152 19.0369C81.1323 18.6487 80.5167 18.4545 79.7686 18.4545C79.0205 18.4545 78.405 18.6487 77.9221 19.0369C77.4391 19.4252 77.0816 19.9342 76.8496 20.5639C76.6176 21.1937 76.5016 21.8731 76.5016 22.6023C76.5016 23.3314 76.6176 24.0085 76.8496 24.6335C77.0816 25.2585 77.4391 25.7628 77.9221 26.1463C78.405 26.5298 79.0205 26.7216 79.7686 26.7216ZM86.3045 28V26.4375H86.7022C87.0289 26.4375 87.3012 26.3736 87.519 26.2457C87.7368 26.1132 87.912 25.8835 88.0446 25.5568C88.1819 25.2254 88.286 24.7661 88.3571 24.179C88.4328 23.5871 88.4873 22.8343 88.5204 21.9205L88.7193 17.0909H95.992V28H94.3159V18.6534H90.3102L90.1397 22.5455C90.1019 23.4403 90.0214 24.2287 89.8983 24.9105C89.7799 25.5876 89.5976 26.1558 89.3514 26.6151C89.1099 27.0743 88.7879 27.42 88.3855 27.652C87.983 27.884 87.4788 28 86.8727 28H86.3045ZM100.516 21.0398H103.641C104.92 21.0398 105.897 21.3641 106.574 22.0128C107.251 22.6615 107.59 23.483 107.59 24.4773C107.59 25.1307 107.439 25.7249 107.135 26.2599C106.832 26.7902 106.387 27.214 105.8 27.5312C105.213 27.8438 104.493 28 103.641 28H99.0673V17.0909H100.743V26.4375H103.641C104.304 26.4375 104.849 26.2623 105.275 25.9119C105.701 25.5616 105.914 25.1117 105.914 24.5625C105.914 23.9848 105.701 23.5137 105.275 23.1491C104.849 22.7846 104.304 22.6023 103.641 22.6023H100.516V21.0398ZM117.443 21.7784V23.3409H111.42V21.7784H117.443ZM111.818 17.0909V28H110.142V17.0909H111.818ZM118.721 17.0909V28H117.045V17.0909H118.721ZM126.214 28.2273C125.229 28.2273 124.365 27.9929 123.622 27.5241C122.883 27.0554 122.305 26.3996 121.889 25.5568C121.477 24.714 121.271 23.7292 121.271 22.6023C121.271 21.4659 121.477 20.474 121.889 19.6264C122.305 18.7789 122.883 18.1207 123.622 17.652C124.365 17.1832 125.229 16.9489 126.214 16.9489C127.199 16.9489 128.061 17.1832 128.799 17.652C129.543 18.1207 130.12 18.7789 130.532 19.6264C130.949 20.474 131.157 21.4659 131.157 22.6023C131.157 23.7292 130.949 24.714 130.532 25.5568C130.12 26.3996 129.543 27.0554 128.799 27.5241C128.061 27.9929 127.199 28.2273 126.214 28.2273ZM126.214 26.7216C126.962 26.7216 127.578 26.5298 128.061 26.1463C128.544 25.7628 128.901 25.2585 129.133 24.6335C129.365 24.0085 129.481 23.3314 129.481 22.6023C129.481 21.8731 129.365 21.1937 129.133 20.5639C128.901 19.9342 128.544 19.4252 128.061 19.0369C127.578 18.6487 126.962 18.4545 126.214 18.4545C125.466 18.4545 124.85 18.6487 124.367 19.0369C123.884 19.4252 123.527 19.9342 123.295 20.5639C123.063 21.1937 122.947 21.8731 122.947 22.6023C122.947 23.3314 123.063 24.0085 123.295 24.6335C123.527 25.2585 123.884 25.7628 124.367 26.1463C124.85 26.5298 125.466 26.7216 126.214 26.7216Z" fill="black"/>
<path fill-rule="evenodd" clip-rule="evenodd" d="M284.89 57.8627C287.059 62.1184 287.059 67.6895 287.059 78.8316V80.1684C287.059 91.3105 287.059 96.8816 284.89 101.137C282.983 104.881 279.939 107.924 276.196 109.832C271.94 112 266.369 112 255.227 112H39.8902C28.7481 112 23.177 112 18.9213 109.832C18.3914 109.562 17.8756 109.269 17.375 108.955C16.4919 109.522 15.4785 110.084 14.4143 110.503C10.3845 112.09 0.00109863 111.999 0.00109863 111.999C0.00109863 111.999 5.66751 110.503 7.77322 103.686C8.181 102.366 8.45441 99.1869 8.63522 95.8839C8.05859 92.1947 8.05859 87.3335 8.05859 80.1684V73.5263C8.05859 64.2412 8.05859 59.5987 9.8656 56.0523C11.4551 52.9327 13.9913 50.3965 17.1109 48.807C20.6573 47 25.2998 47 34.5849 47H255.227C266.369 47 271.94 47 276.196 49.1684C279.939 51.0758 282.983 54.1193 284.89 57.8627Z" fill="#D4C5FF"/>
<path d="M27.358 75H25.5114L30.8523 60.4545H32.6705L38.0114 75H36.1648L31.8182 62.7557H31.7045L27.358 75ZM28.0398 69.3182H35.483V70.8807H28.0398V69.3182ZM54.0838 64.0909V75H52.4077V64.0909H54.0838ZM53.4304 69.2898V70.8523C53.0516 70.9943 52.6752 71.1198 52.3011 71.2287C51.9271 71.3329 51.5341 71.4157 51.1222 71.4773C50.7102 71.5341 50.258 71.5625 49.7656 71.5625C48.5298 71.5625 47.5379 71.2287 46.7898 70.5611C46.0464 69.8935 45.6747 68.892 45.6747 67.5568V64.0625H47.3509V67.5568C47.3509 68.1155 47.4574 68.5748 47.6705 68.9347C47.8835 69.2945 48.1723 69.562 48.5369 69.7372C48.9015 69.9124 49.3111 70 49.7656 70C50.4759 70 51.1174 69.9361 51.6903 69.8082C52.268 69.6757 52.848 69.5028 53.4304 69.2898ZM55.6747 65.6534V64.0909H64.5384V65.6534H60.9588V75H59.2827V65.6534H55.6747ZM70.8487 75.2273C69.8639 75.2273 68.9998 74.9929 68.2564 74.5241C67.5178 74.0554 66.9401 73.3996 66.5234 72.5568C66.1115 71.714 65.9055 70.7292 65.9055 69.6023C65.9055 68.4659 66.1115 67.474 66.5234 66.6264C66.9401 65.7789 67.5178 65.1207 68.2564 64.652C68.9998 64.1832 69.8639 63.9489 70.8487 63.9489C71.8336 63.9489 72.6953 64.1832 73.4339 64.652C74.1773 65.1207 74.755 65.7789 75.1669 66.6264C75.5836 67.474 75.7919 68.4659 75.7919 69.6023C75.7919 70.7292 75.5836 71.714 75.1669 72.5568C74.755 73.3996 74.1773 74.0554 73.4339 74.5241C72.6953 74.9929 71.8336 75.2273 70.8487 75.2273ZM70.8487 73.7216C71.5968 73.7216 72.2124 73.5298 72.6953 73.1463C73.1783 72.7628 73.5357 72.2585 73.7678 71.6335C73.9998 71.0085 74.1158 70.3314 74.1158 69.6023C74.1158 68.8731 73.9998 68.1937 73.7678 67.5639C73.5357 66.9342 73.1783 66.4252 72.6953 66.0369C72.2124 65.6487 71.5968 65.4545 70.8487 65.4545C70.1006 65.4545 69.4851 65.6487 69.0021 66.0369C68.5192 66.4252 68.1617 66.9342 67.9297 67.5639C67.6977 68.1937 67.5817 68.8731 67.5817 69.6023C67.5817 70.3314 67.6977 71.0085 67.9297 71.6335C68.1617 72.2585 68.5192 72.7628 69.0021 73.1463C69.4851 73.5298 70.1006 73.7216 70.8487 73.7216ZM83.9755 75V64.0909H85.6516V68.8352H86.7596L90.68 64.0909H92.8391L88.4357 69.3466L92.896 75H90.7369L87.1573 70.3977H85.6516V75H83.9755ZM98.8423 75.2273C97.7912 75.2273 96.8845 74.9953 96.1222 74.5312C95.3646 74.0625 94.7798 73.4091 94.3679 72.571C93.9607 71.7282 93.7571 70.7481 93.7571 69.6307C93.7571 68.5133 93.9607 67.5284 94.3679 66.6761C94.7798 65.8191 95.3527 65.1515 96.0866 64.6733C96.8253 64.1903 97.687 63.9489 98.6719 63.9489C99.2401 63.9489 99.8011 64.0436 100.355 64.233C100.909 64.4223 101.413 64.7301 101.868 65.1562C102.322 65.5777 102.685 66.1364 102.955 66.8324C103.224 67.5284 103.359 68.3854 103.359 69.4034V70.1136H94.9503V68.6648H101.655C101.655 68.0492 101.532 67.5 101.286 67.017C101.044 66.5341 100.698 66.1529 100.249 65.8736C99.8035 65.5942 99.2779 65.4545 98.6719 65.4545C98.0043 65.4545 97.4266 65.6203 96.9389 65.9517C96.456 66.2784 96.0843 66.7045 95.8239 67.2301C95.5634 67.7557 95.4332 68.3191 95.4332 68.9205V69.8864C95.4332 70.7102 95.5753 71.4086 95.8594 71.9815C96.1482 72.5497 96.5483 72.983 97.0597 73.2812C97.571 73.5748 98.1652 73.7216 98.8423 73.7216C99.2827 73.7216 99.6804 73.66 100.036 73.5369C100.395 73.4091 100.705 73.2197 100.966 72.9688C101.226 72.7131 101.428 72.3958 101.57 72.017L103.189 72.4716C103.018 73.0208 102.732 73.5038 102.33 73.9205C101.927 74.3324 101.43 74.6544 100.838 74.8864C100.246 75.1136 99.581 75.2273 98.8423 75.2273ZM107.585 72.5284L112.841 64.0909H114.773V75H113.097V66.5625L107.869 75H105.909V64.0909H107.585V72.5284ZM111.733 60.4545H113.295C113.295 61.2216 113.03 61.849 112.5 62.3366C111.97 62.8243 111.25 63.0682 110.341 63.0682C109.446 63.0682 108.733 62.8243 108.203 62.3366C107.678 61.849 107.415 61.2216 107.415 60.4545H108.977C108.977 60.8239 109.079 61.1482 109.283 61.4276C109.491 61.7069 109.844 61.8466 110.341 61.8466C110.838 61.8466 111.193 61.7069 111.406 61.4276C111.624 61.1482 111.733 60.8239 111.733 60.4545ZM122.275 75.2273C121.252 75.2273 120.371 74.9858 119.632 74.5028C118.894 74.0199 118.326 73.3546 117.928 72.5071C117.53 71.6596 117.331 70.6913 117.331 69.6023C117.331 68.4943 117.535 67.5166 117.942 66.669C118.354 65.8168 118.927 65.1515 119.661 64.6733C120.4 64.1903 121.261 63.9489 122.246 63.9489C123.013 63.9489 123.704 64.0909 124.32 64.375C124.935 64.6591 125.44 65.0568 125.833 65.5682C126.226 66.0795 126.47 66.6761 126.564 67.358H124.888C124.76 66.8608 124.476 66.4205 124.036 66.0369C123.6 65.6487 123.013 65.4545 122.275 65.4545C121.621 65.4545 121.048 65.625 120.556 65.9659C120.068 66.3021 119.687 66.7779 119.412 67.3935C119.142 68.0043 119.007 68.7216 119.007 69.5455C119.007 70.3883 119.14 71.1222 119.405 71.7472C119.675 72.3722 120.054 72.8575 120.542 73.2031C121.034 73.5488 121.612 73.7216 122.275 73.7216C122.71 73.7216 123.105 73.6458 123.461 73.4943C123.816 73.3428 124.116 73.125 124.363 72.8409C124.609 72.5568 124.784 72.2159 124.888 71.8182H126.564C126.47 72.4621 126.235 73.0421 125.861 73.5582C125.492 74.0696 125.002 74.4768 124.391 74.7798C123.785 75.0781 123.079 75.2273 122.275 75.2273ZM130.463 68.0398H133.588C134.867 68.0398 135.845 68.3641 136.522 69.0128C137.199 69.6615 137.537 70.483 137.537 71.4773C137.537 72.1307 137.386 72.7249 137.083 73.2599C136.78 73.7902 136.335 74.214 135.748 74.5312C135.16 74.8438 134.441 75 133.588 75H129.015V64.0909H130.691V73.4375H133.588C134.251 73.4375 134.796 73.2623 135.222 72.9119C135.648 72.5616 135.861 72.1117 135.861 71.5625C135.861 70.9848 135.648 70.5137 135.222 70.1491C134.796 69.7846 134.251 69.6023 133.588 69.6023H130.463V68.0398ZM139.27 75V64.0909H140.946V75H139.27ZM150.265 67.983V69.5455H143.901V67.983H150.265ZM152.022 65.6534V64.0909H160.886V65.6534H157.306V75H155.63V65.6534H152.022ZM167.196 75.2273C166.212 75.2273 165.347 74.9929 164.604 74.5241C163.865 74.0554 163.288 73.3996 162.871 72.5568C162.459 71.714 162.253 70.7292 162.253 69.6023C162.253 68.4659 162.459 67.474 162.871 66.6264C163.288 65.7789 163.865 65.1207 164.604 64.652C165.347 64.1832 166.212 63.9489 167.196 63.9489C168.181 63.9489 169.043 64.1832 169.782 64.652C170.525 65.1207 171.103 65.7789 171.515 66.6264C171.931 67.474 172.14 68.4659 172.14 69.6023C172.14 70.7292 171.931 71.714 171.515 72.5568C171.103 73.3996 170.525 74.0554 169.782 74.5241C169.043 74.9929 168.181 75.2273 167.196 75.2273ZM167.196 73.7216C167.944 73.7216 168.56 73.5298 169.043 73.1463C169.526 72.7628 169.883 72.2585 170.115 71.6335C170.347 71.0085 170.463 70.3314 170.463 69.6023C170.463 68.8731 170.347 68.1937 170.115 67.5639C169.883 66.9342 169.526 66.4252 169.043 66.0369C168.56 65.6487 167.944 65.4545 167.196 65.4545C166.448 65.4545 165.833 65.6487 165.35 66.0369C164.867 66.4252 164.509 66.9342 164.277 67.5639C164.045 68.1937 163.929 68.8731 163.929 69.6023C163.929 70.3314 164.045 71.0085 164.277 71.6335C164.509 72.2585 164.867 72.7628 165.35 73.1463C165.833 73.5298 166.448 73.7216 167.196 73.7216ZM184.897 75.2273C183.846 75.2273 182.939 74.9953 182.177 74.5312C181.419 74.0625 180.835 73.4091 180.423 72.571C180.015 71.7282 179.812 70.7481 179.812 69.6307C179.812 68.5133 180.015 67.5284 180.423 66.6761C180.835 65.8191 181.407 65.1515 182.141 64.6733C182.88 64.1903 183.742 63.9489 184.727 63.9489C185.295 63.9489 185.856 64.0436 186.41 64.233C186.964 64.4223 187.468 64.7301 187.923 65.1562C188.377 65.5777 188.739 66.1364 189.009 66.8324C189.279 67.5284 189.414 68.3854 189.414 69.4034V70.1136H181.005V68.6648H187.71C187.71 68.0492 187.586 67.5 187.34 67.017C187.099 66.5341 186.753 66.1529 186.303 65.8736C185.858 65.5942 185.333 65.4545 184.727 65.4545C184.059 65.4545 183.481 65.6203 182.994 65.9517C182.511 66.2784 182.139 66.7045 181.879 67.2301C181.618 67.7557 181.488 68.3191 181.488 68.9205V69.8864C181.488 70.7102 181.63 71.4086 181.914 71.9815C182.203 72.5497 182.603 72.983 183.114 73.2812C183.626 73.5748 184.22 73.7216 184.897 73.7216C185.337 73.7216 185.735 73.66 186.09 73.5369C186.45 73.4091 186.76 73.2197 187.021 72.9688C187.281 72.7131 187.482 72.3958 187.624 72.017L189.244 72.4716C189.073 73.0208 188.787 73.5038 188.384 73.9205C187.982 74.3324 187.485 74.6544 186.893 74.8864C186.301 75.1136 185.636 75.2273 184.897 75.2273ZM196.396 75.2273C195.373 75.2273 194.492 74.9858 193.754 74.5028C193.015 74.0199 192.447 73.3546 192.049 72.5071C191.651 71.6596 191.452 70.6913 191.452 69.6023C191.452 68.4943 191.656 67.5166 192.063 66.669C192.475 65.8168 193.048 65.1515 193.782 64.6733C194.521 64.1903 195.382 63.9489 196.367 63.9489C197.134 63.9489 197.826 64.0909 198.441 64.375C199.057 64.6591 199.561 65.0568 199.954 65.5682C200.347 66.0795 200.591 66.6761 200.685 67.358H199.009C198.881 66.8608 198.597 66.4205 198.157 66.0369C197.721 65.6487 197.134 65.4545 196.396 65.4545C195.742 65.4545 195.169 65.625 194.677 65.9659C194.189 66.3021 193.808 66.7779 193.533 67.3935C193.263 68.0043 193.129 68.7216 193.129 69.5455C193.129 70.3883 193.261 71.1222 193.526 71.7472C193.796 72.3722 194.175 72.8575 194.663 73.2031C195.155 73.5488 195.733 73.7216 196.396 73.7216C196.831 73.7216 197.227 73.6458 197.582 73.4943C197.937 73.3428 198.237 73.125 198.484 72.8409C198.73 72.5568 198.905 72.2159 199.009 71.8182H200.685C200.591 72.4621 200.356 73.0421 199.982 73.5582C199.613 74.0696 199.123 74.4768 198.512 74.7798C197.906 75.0781 197.201 75.2273 196.396 75.2273ZM202.276 65.6534V64.0909H211.14V65.6534H207.56V75H205.884V65.6534H202.276ZM215.034 68.0398H218.159C219.437 68.0398 220.415 68.3641 221.092 69.0128C221.769 69.6615 222.108 70.483 222.108 71.4773C222.108 72.1307 221.956 72.7249 221.653 73.2599C221.35 73.7902 220.905 74.214 220.318 74.5312C219.731 74.8438 219.011 75 218.159 75H213.585V64.0909H215.261V73.4375H218.159C218.822 73.4375 219.366 73.2623 219.792 72.9119C220.218 72.5616 220.431 72.1117 220.431 71.5625C220.431 70.9848 220.218 70.5137 219.792 70.1491C219.366 69.7846 218.822 69.6023 218.159 69.6023H215.034V68.0398ZM30.9659 99.2273C29.9432 99.2273 29.0625 98.9858 28.3239 98.5028C27.5852 98.0199 27.017 97.3546 26.6193 96.5071C26.2216 95.6596 26.0227 94.6913 26.0227 93.6023C26.0227 92.4943 26.2263 91.5166 26.6335 90.669C27.0455 89.8168 27.6184 89.1515 28.3523 88.6733C29.0909 88.1903 29.9527 87.9489 30.9375 87.9489C31.7045 87.9489 32.3958 88.0909 33.0114 88.375C33.6269 88.6591 34.1312 89.0568 34.5241 89.5682C34.9171 90.0795 35.161 90.6761 35.2557 91.358H33.5795C33.4517 90.8608 33.1676 90.4205 32.7273 90.0369C32.2917 89.6487 31.7045 89.4545 30.9659 89.4545C30.3125 89.4545 29.7396 89.625 29.2472 89.9659C28.7595 90.3021 28.3783 90.7779 28.1037 91.3935C27.8338 92.0043 27.6989 92.7216 27.6989 93.5455C27.6989 94.3883 27.8314 95.1222 28.0966 95.7472C28.3665 96.3722 28.7453 96.8575 29.233 97.2031C29.7254 97.5488 30.303 97.7216 30.9659 97.7216C31.4015 97.7216 31.7969 97.6458 32.152 97.4943C32.5071 97.3428 32.8078 97.125 33.054 96.8409C33.3002 96.5568 33.4754 96.2159 33.5795 95.8182H35.2557C35.161 96.4621 34.9266 97.0421 34.5526 97.5582C34.1832 98.0696 33.6932 98.4768 33.0824 98.7798C32.4763 99.0781 31.7708 99.2273 30.9659 99.2273ZM43.331 103.091V88.0909H44.9503V89.8239H45.1491C45.2723 89.6345 45.4427 89.393 45.6605 89.0994C45.883 88.8011 46.2003 88.536 46.6122 88.304C47.0289 88.0672 47.5923 87.9489 48.3026 87.9489C49.2211 87.9489 50.0308 88.1785 50.7315 88.6378C51.4323 89.0971 51.9792 89.7481 52.3722 90.5909C52.7652 91.4337 52.9616 92.428 52.9616 93.5739C52.9616 94.7292 52.7652 95.7306 52.3722 96.5781C51.9792 97.4209 51.4347 98.0743 50.7386 98.5384C50.0426 98.9976 49.2401 99.2273 48.331 99.2273C47.6302 99.2273 47.0691 99.1113 46.6477 98.8793C46.2263 98.6425 45.902 98.375 45.6747 98.0767C45.4474 97.7737 45.2723 97.5227 45.1491 97.3239H45.0071V103.091H43.331ZM44.9787 93.5455C44.9787 94.3693 45.0994 95.0961 45.3409 95.7259C45.5824 96.3509 45.9351 96.8409 46.3991 97.196C46.8632 97.5464 47.4313 97.7216 48.1037 97.7216C48.8045 97.7216 49.3892 97.5369 49.858 97.1676C50.3314 96.7936 50.6866 96.2917 50.9233 95.6619C51.1648 95.0275 51.2855 94.322 51.2855 93.5455C51.2855 92.7784 51.1671 92.0871 50.9304 91.4716C50.6984 90.8513 50.3456 90.3613 49.8722 90.0014C49.4034 89.6368 48.8139 89.4545 48.1037 89.4545C47.4219 89.4545 46.849 89.6274 46.3849 89.973C45.9209 90.3139 45.5705 90.7921 45.3338 91.4077C45.0971 92.0185 44.9787 92.7311 44.9787 93.5455ZM58.7287 99.2557C58.0374 99.2557 57.41 99.1255 56.8466 98.8651C56.2831 98.5999 55.8357 98.2188 55.5043 97.7216C55.1728 97.2197 55.0071 96.6136 55.0071 95.9034C55.0071 95.2784 55.1302 94.7718 55.3764 94.3835C55.6226 93.9905 55.9517 93.6828 56.3636 93.4602C56.7756 93.2377 57.2301 93.072 57.7273 92.9631C58.2292 92.8494 58.7334 92.7595 59.2401 92.6932C59.9029 92.608 60.4403 92.544 60.8523 92.5014C61.2689 92.4541 61.572 92.3759 61.7614 92.267C61.9555 92.1581 62.0526 91.9687 62.0526 91.6989V91.642C62.0526 90.9413 61.8608 90.3968 61.4773 90.0085C61.0985 89.6203 60.5232 89.4261 59.7514 89.4261C58.9512 89.4261 58.3239 89.6013 57.8693 89.9517C57.4148 90.3021 57.0952 90.6761 56.9105 91.0739L55.3196 90.5057C55.6037 89.8428 55.9825 89.3267 56.456 88.9574C56.9342 88.5833 57.455 88.3229 58.0185 88.1761C58.5866 88.0246 59.1454 87.9489 59.6946 87.9489C60.045 87.9489 60.4474 87.9915 60.902 88.0767C61.3613 88.1572 61.804 88.3253 62.2301 88.581C62.661 88.8366 63.0185 89.2225 63.3026 89.7386C63.5866 90.2547 63.7287 90.946 63.7287 91.8125V99H62.0526V97.5227H61.9673C61.8537 97.7595 61.6643 98.0128 61.3991 98.2827C61.134 98.5526 60.7813 98.7822 60.3409 98.9716C59.9006 99.161 59.3632 99.2557 58.7287 99.2557ZM58.9844 97.75C59.6473 97.75 60.206 97.6198 60.6605 97.3594C61.1198 97.099 61.4654 96.7628 61.6974 96.3509C61.9342 95.9389 62.0526 95.5057 62.0526 95.0511V93.517C61.9815 93.6023 61.8253 93.6804 61.5838 93.7514C61.3471 93.8177 61.0724 93.8769 60.7599 93.929C60.4522 93.9763 60.1515 94.0189 59.858 94.0568C59.5691 94.09 59.3348 94.1184 59.1548 94.142C58.7192 94.1989 58.312 94.2912 57.9332 94.419C57.5592 94.5421 57.2562 94.7292 57.0241 94.9801C56.7969 95.2263 56.6832 95.5625 56.6832 95.9886C56.6832 96.571 56.8987 97.0114 57.3295 97.3097C57.7652 97.6032 58.3168 97.75 58.9844 97.75ZM66.1062 96.2159H67.896C67.9338 96.7083 68.1564 97.0824 68.5636 97.3381C68.9755 97.5938 69.5105 97.7216 70.1687 97.7216C70.841 97.7216 71.4163 97.5843 71.8945 97.3097C72.3728 97.0303 72.6119 96.5805 72.6119 95.9602C72.6119 95.5956 72.5219 95.2784 72.342 95.0085C72.1621 94.7339 71.9087 94.5208 71.582 94.3693C71.2553 94.2178 70.8694 94.142 70.4244 94.142H68.5494V92.6364H70.4244C71.092 92.6364 71.5844 92.4848 71.9016 92.1818C72.2236 91.8788 72.3846 91.5 72.3846 91.0455C72.3846 90.5578 72.2118 90.1671 71.8661 89.8736C71.5205 89.5753 71.0304 89.4261 70.396 89.4261C69.7567 89.4261 69.2241 89.5705 68.7979 89.8594C68.3718 90.1435 68.1469 90.5104 68.1232 90.9602H66.3619C66.3808 90.3731 66.5607 89.8546 66.9016 89.4048C67.2425 88.9503 67.7066 88.5952 68.2937 88.3395C68.8808 88.0791 69.5531 87.9489 70.3107 87.9489C71.0778 87.9489 71.743 88.0838 72.3065 88.3537C72.8746 88.6188 73.3126 88.9811 73.6204 89.4403C73.9329 89.8949 74.0891 90.411 74.0891 90.9886C74.0891 91.6042 73.9163 92.1013 73.5707 92.4801C73.225 92.8589 72.7918 93.1288 72.271 93.2898V93.4034C72.6829 93.4318 73.0404 93.5644 73.3434 93.8011C73.6512 94.0331 73.8903 94.3385 74.0607 94.7173C74.2312 95.0914 74.3164 95.5057 74.3164 95.9602C74.3164 96.6231 74.1388 97.2008 73.7837 97.6932C73.4286 98.1809 72.9409 98.5597 72.3207 98.8295C71.7004 99.0947 70.9925 99.2273 70.1971 99.2273C69.4253 99.2273 68.734 99.1018 68.1232 98.8509C67.5124 98.5952 67.0271 98.2424 66.6673 97.7926C66.3121 97.3381 66.1251 96.8125 66.1062 96.2159ZM84.7674 84L85.6197 85.0227C85.2882 85.3447 84.9047 85.5696 84.4691 85.6974C84.0335 85.8253 83.5411 85.9034 82.9918 85.9318C82.4426 85.9602 81.8318 85.9886 81.1594 86.017C80.4019 86.0455 79.7745 86.2301 79.2773 86.571C78.7802 86.9119 78.3967 87.4044 78.1268 88.0483C77.8569 88.6922 77.6841 89.483 77.6083 90.4205H77.7504C78.1197 89.7386 78.631 89.2367 79.2844 88.9148C79.9379 88.5928 80.6386 88.4318 81.3867 88.4318C82.239 88.4318 83.006 88.6307 83.6879 89.0284C84.3697 89.4261 84.9094 90.0156 85.3072 90.7969C85.7049 91.5781 85.9038 92.5417 85.9038 93.6875C85.9038 94.8286 85.7002 95.8134 85.293 96.642C84.8905 97.4706 84.3247 98.1098 83.5955 98.5597C82.8711 99.0047 82.0212 99.2273 81.0458 99.2273C80.0704 99.2273 79.2158 98.9976 78.4819 98.5384C77.748 98.0743 77.1774 97.3878 76.7702 96.4787C76.363 95.5649 76.1594 94.4356 76.1594 93.0909V91.9261C76.1594 89.4972 76.5714 87.6553 77.3952 86.4006C78.2238 85.1458 79.4691 84.4972 81.131 84.4545C81.7182 84.4356 82.2414 84.4309 82.7006 84.4403C83.1599 84.4498 83.56 84.4285 83.9009 84.3764C84.2418 84.3243 84.5307 84.1989 84.7674 84ZM81.0458 97.7216C81.704 97.7216 82.2698 97.5559 82.7433 97.2244C83.2215 96.893 83.5884 96.4266 83.8441 95.8253C84.0998 95.2192 84.2276 94.5066 84.2276 93.6875C84.2276 92.892 84.0974 92.215 83.837 91.6562C83.5813 91.0975 83.2144 90.6714 82.7362 90.3778C82.2579 90.0843 81.685 89.9375 81.0174 89.9375C80.5297 89.9375 80.0917 90.0204 79.7035 90.1861C79.3152 90.3518 78.9838 90.5956 78.7092 90.9176C78.4345 91.2396 78.2215 91.6326 78.07 92.0966C77.9232 92.5606 77.8451 93.0909 77.8356 93.6875C77.8356 94.9091 78.122 95.8868 78.695 96.6207C79.2679 97.3546 80.0515 97.7216 81.0458 97.7216ZM92.8995 99.2273C91.9147 99.2273 91.0505 98.9929 90.3072 98.5241C89.5685 98.0554 88.9909 97.3996 88.5742 96.5568C88.1623 95.714 87.9563 94.7292 87.9563 93.6023C87.9563 92.4659 88.1623 91.474 88.5742 90.6264C88.9909 89.7789 89.5685 89.1207 90.3072 88.652C91.0505 88.1832 91.9147 87.9489 92.8995 87.9489C93.8844 87.9489 94.7461 88.1832 95.4847 88.652C96.2281 89.1207 96.8058 89.7789 97.2177 90.6264C97.6344 91.474 97.8427 92.4659 97.8427 93.6023C97.8427 94.7292 97.6344 95.714 97.2177 96.5568C96.8058 97.3996 96.2281 98.0554 95.4847 98.5241C94.7461 98.9929 93.8844 99.2273 92.8995 99.2273ZM92.8995 97.7216C93.6476 97.7216 94.2631 97.5298 94.7461 97.1463C95.229 96.7628 95.5865 96.2585 95.8185 95.6335C96.0505 95.0085 96.1665 94.3314 96.1665 93.6023C96.1665 92.8731 96.0505 92.1937 95.8185 91.5639C95.5865 90.9342 95.229 90.4252 94.7461 90.0369C94.2631 89.6487 93.6476 89.4545 92.8995 89.4545C92.1514 89.4545 91.5359 89.6487 91.0529 90.0369C90.57 90.4252 90.2125 90.9342 89.9805 91.5639C89.7485 92.1937 89.6325 92.8731 89.6325 93.6023C89.6325 94.3314 89.7485 95.0085 89.9805 95.6335C90.2125 96.2585 90.57 96.7628 91.0529 97.1463C91.5359 97.5298 92.1514 97.7216 92.8995 97.7216ZM100.401 103.091V88.0909H102.021V89.8239H102.219C102.343 89.6345 102.513 89.393 102.731 89.0994C102.953 88.8011 103.271 88.536 103.683 88.304C104.099 88.0672 104.663 87.9489 105.373 87.9489C106.291 87.9489 107.101 88.1785 107.802 88.6378C108.503 89.0971 109.049 89.7481 109.442 90.5909C109.835 91.4337 110.032 92.428 110.032 93.5739C110.032 94.7292 109.835 95.7306 109.442 96.5781C109.049 97.4209 108.505 98.0743 107.809 98.5384C107.113 98.9976 106.31 99.2273 105.401 99.2273C104.701 99.2273 104.139 99.1113 103.718 98.8793C103.297 98.6425 102.972 98.375 102.745 98.0767C102.518 97.7737 102.343 97.5227 102.219 97.3239H102.077V103.091H100.401ZM102.049 93.5455C102.049 94.3693 102.17 95.0961 102.411 95.7259C102.653 96.3509 103.005 96.8409 103.469 97.196C103.933 97.5464 104.502 97.7216 105.174 97.7216C105.875 97.7216 106.46 97.5369 106.928 97.1676C107.402 96.7936 107.757 96.2917 107.994 95.6619C108.235 95.0275 108.356 94.322 108.356 93.5455C108.356 92.7784 108.237 92.0871 108.001 91.4716C107.769 90.8513 107.416 90.3613 106.942 90.0014C106.474 89.6368 105.884 89.4545 105.174 89.4545C104.492 89.4545 103.919 89.6274 103.455 89.973C102.991 90.3139 102.641 90.7921 102.404 91.4077C102.167 92.0185 102.049 92.7311 102.049 93.5455ZM115.799 99.2557C115.108 99.2557 114.48 99.1255 113.917 98.8651C113.353 98.5999 112.906 98.2188 112.575 97.7216C112.243 97.2197 112.077 96.6136 112.077 95.9034C112.077 95.2784 112.201 94.7718 112.447 94.3835C112.693 93.9905 113.022 93.6828 113.434 93.4602C113.846 93.2377 114.3 93.072 114.798 92.9631C115.299 92.8494 115.804 92.7595 116.31 92.6932C116.973 92.608 117.511 92.544 117.923 92.5014C118.339 92.4541 118.642 92.3759 118.832 92.267C119.026 92.1581 119.123 91.9687 119.123 91.6989V91.642C119.123 90.9413 118.931 90.3968 118.548 90.0085C118.169 89.6203 117.594 89.4261 116.822 89.4261C116.022 89.4261 115.394 89.6013 114.94 89.9517C114.485 90.3021 114.165 90.6761 113.981 91.0739L112.39 90.5057C112.674 89.8428 113.053 89.3267 113.526 88.9574C114.004 88.5833 114.525 88.3229 115.089 88.1761C115.657 88.0246 116.216 87.9489 116.765 87.9489C117.115 87.9489 117.518 87.9915 117.972 88.0767C118.432 88.1572 118.874 88.3253 119.3 88.581C119.731 88.8366 120.089 89.2225 120.373 89.7386C120.657 90.2547 120.799 90.946 120.799 91.8125V99H119.123V97.5227H119.038C118.924 97.7595 118.735 98.0128 118.469 98.2827C118.204 98.5526 117.852 98.7822 117.411 98.9716C116.971 99.161 116.433 99.2557 115.799 99.2557ZM116.055 97.75C116.718 97.75 117.276 97.6198 117.731 97.3594C118.19 97.099 118.536 96.7628 118.768 96.3509C119.004 95.9389 119.123 95.5057 119.123 95.0511V93.517C119.052 93.6023 118.896 93.6804 118.654 93.7514C118.417 93.8177 118.143 93.8769 117.83 93.929C117.522 93.9763 117.222 94.0189 116.928 94.0568C116.639 94.09 116.405 94.1184 116.225 94.142C115.79 94.1989 115.382 94.2912 115.004 94.419C114.629 94.5421 114.326 94.7292 114.094 94.9801C113.867 95.2263 113.754 95.5625 113.754 95.9886C113.754 96.571 113.969 97.0114 114.4 97.3097C114.835 97.6032 115.387 97.75 116.055 97.75ZM129.824 96.7273L133.631 88.0909H135.222L130.506 99H129.142L124.512 88.0909H126.074L129.824 96.7273ZM125.534 88.0909V99H123.858V88.0909H125.534ZM134.114 99V88.0909H135.79V99H134.114ZM140.534 96.5284L145.79 88.0909H147.722V99H146.046V90.5625L140.819 99H138.858V88.0909H140.534V96.5284ZM152.979 94.9091V94.8239C152.989 93.9195 153.084 93.1998 153.263 92.6648C153.443 92.1297 153.699 91.6965 154.031 91.3651C154.362 91.0336 154.76 90.7282 155.224 90.4489C155.503 90.2784 155.754 90.0772 155.977 89.8452C156.199 89.6084 156.374 89.3362 156.502 89.0284C156.635 88.7206 156.701 88.3797 156.701 88.0057C156.701 87.5417 156.592 87.1392 156.374 86.7983C156.156 86.4574 155.865 86.1946 155.501 86.0099C155.136 85.8253 154.731 85.733 154.286 85.733C153.898 85.733 153.524 85.8134 153.164 85.9744C152.804 86.1354 152.504 86.3887 152.262 86.7344C152.021 87.08 151.881 87.5322 151.843 88.0909H150.053C150.091 87.286 150.299 86.5971 150.678 86.0241C151.062 85.4512 151.566 85.0133 152.191 84.7102C152.821 84.4072 153.519 84.2557 154.286 84.2557C155.12 84.2557 155.844 84.4214 156.46 84.7528C157.08 85.0843 157.558 85.5388 157.894 86.1165C158.235 86.6941 158.406 87.3523 158.406 88.0909C158.406 88.6117 158.325 89.0829 158.164 89.5043C158.008 89.9257 157.781 90.3021 157.482 90.6335C157.189 90.965 156.834 91.2585 156.417 91.5142C156 91.7746 155.666 92.0492 155.415 92.3381C155.165 92.6222 154.982 92.9607 154.869 93.3537C154.755 93.7467 154.693 94.2367 154.684 94.8239V94.9091H152.979ZM153.888 99.1136C153.538 99.1136 153.237 98.9882 152.987 98.7372C152.736 98.4863 152.61 98.1856 152.61 97.8352C152.61 97.4848 152.736 97.1842 152.987 96.9332C153.237 96.6823 153.538 96.5568 153.888 96.5568C154.239 96.5568 154.54 96.6823 154.79 96.9332C155.041 97.1842 155.167 97.4848 155.167 97.8352C155.167 98.0672 155.108 98.2803 154.989 98.4744C154.876 98.6686 154.722 98.8248 154.528 98.9432C154.338 99.0568 154.125 99.1136 153.888 99.1136Z" fill="black"/>
<path d="M239.303 89.5455V99H238.158V90.7457H238.102L235.794 92.2784V91.1151L238.158 89.5455H239.303ZM244.79 99.1293C244.156 99.1293 243.596 99.0169 243.11 98.7923C242.626 98.5645 242.249 98.2521 241.979 97.8551C241.708 97.455 241.574 96.9995 241.577 96.4886C241.574 96.0885 241.652 95.7192 241.812 95.3807C241.972 95.0391 242.191 94.7544 242.468 94.5266C242.748 94.2958 243.06 94.1496 243.405 94.0881V94.0327C242.953 93.9157 242.593 93.6618 242.325 93.271C242.057 92.877 241.925 92.4292 241.928 91.9276C241.925 91.4474 242.046 91.0181 242.293 90.6396C242.539 90.261 242.877 89.9625 243.308 89.744C243.742 89.5254 244.236 89.4162 244.79 89.4162C245.338 89.4162 245.827 89.5254 246.258 89.744C246.689 89.9625 247.028 90.261 247.274 90.6396C247.523 91.0181 247.649 91.4474 247.652 91.9276C247.649 92.4292 247.512 92.877 247.241 93.271C246.974 93.6618 246.618 93.9157 246.175 94.0327V94.0881C246.517 94.1496 246.824 94.2958 247.098 94.5266C247.372 94.7544 247.591 95.0391 247.754 95.3807C247.917 95.7192 248 96.0885 248.003 96.4886C248 96.9995 247.862 97.455 247.588 97.8551C247.317 98.2521 246.94 98.5645 246.457 98.7923C245.977 99.0169 245.421 99.1293 244.79 99.1293ZM244.79 98.1136C245.218 98.1136 245.587 98.0444 245.898 97.9059C246.209 97.7674 246.449 97.572 246.618 97.3196C246.787 97.0672 246.874 96.7718 246.877 96.4332C246.874 96.0762 246.781 95.7608 246.6 95.4869C246.418 95.2129 246.17 94.9975 245.856 94.8406C245.546 94.6836 245.19 94.6051 244.79 94.6051C244.387 94.6051 244.027 94.6836 243.71 94.8406C243.396 94.9975 243.148 95.2129 242.967 95.4869C242.788 95.7608 242.7 96.0762 242.703 96.4332C242.7 96.7718 242.782 97.0672 242.948 97.3196C243.117 97.572 243.359 97.7674 243.673 97.9059C243.987 98.0444 244.359 98.1136 244.79 98.1136ZM244.79 93.6264C245.129 93.6264 245.429 93.5587 245.69 93.4233C245.955 93.2879 246.163 93.0986 246.314 92.8555C246.464 92.6123 246.541 92.3277 246.544 92.0014C246.541 91.6813 246.466 91.4028 246.318 91.1658C246.17 90.9258 245.966 90.7411 245.704 90.6119C245.443 90.4795 245.138 90.4134 244.79 90.4134C244.436 90.4134 244.127 90.4795 243.862 90.6119C243.597 90.7411 243.393 90.9258 243.248 91.1658C243.104 91.4028 243.033 91.6813 243.036 92.0014C243.033 92.3277 243.105 92.6123 243.253 92.8555C243.404 93.0986 243.611 93.2879 243.876 93.4233C244.141 93.5587 244.445 93.6264 244.79 93.6264ZM250.325 97.7905C250.097 97.7905 249.902 97.7089 249.739 97.5458C249.575 97.3827 249.494 97.1873 249.494 96.9595C249.494 96.7318 249.575 96.5363 249.739 96.3732C249.902 96.2101 250.097 96.1286 250.325 96.1286C250.553 96.1286 250.748 96.2101 250.911 96.3732C251.074 96.5363 251.156 96.7318 251.156 96.9595C251.156 97.1103 251.117 97.2488 251.04 97.375C250.967 97.5012 250.867 97.6027 250.74 97.6797C250.617 97.7536 250.479 97.7905 250.325 97.7905ZM250.325 93.0078C250.097 93.0078 249.902 92.9263 249.739 92.7631C249.575 92.6 249.494 92.4046 249.494 92.1768C249.494 91.9491 249.575 91.7537 249.739 91.5906C249.902 91.4274 250.097 91.3459 250.325 91.3459C250.553 91.3459 250.748 91.4274 250.911 91.5906C251.074 91.7537 251.156 91.9491 251.156 92.1768C251.156 92.3277 251.117 92.4661 251.04 92.5923C250.967 92.7185 250.867 92.8201 250.74 92.897C250.617 92.9709 250.479 93.0078 250.325 93.0078ZM255.787 99.1293C255.245 99.1293 254.758 99.0215 254.324 98.8061C253.89 98.5907 253.542 98.2952 253.28 97.9197C253.019 97.5443 252.876 97.1165 252.851 96.6364H253.959C254.002 97.0642 254.196 97.4181 254.541 97.6982C254.888 97.9751 255.304 98.1136 255.787 98.1136C256.175 98.1136 256.52 98.0228 256.821 97.8413C257.126 97.6597 257.364 97.4104 257.537 97.0934C257.712 96.7733 257.8 96.4117 257.8 96.0085C257.8 95.5961 257.709 95.2283 257.527 94.9052C257.349 94.579 257.103 94.322 256.789 94.1342C256.475 93.9465 256.116 93.8511 255.713 93.848C255.424 93.8449 255.127 93.8896 254.822 93.9819C254.517 94.0711 254.267 94.1866 254.07 94.3281L252.999 94.1989L253.571 89.5455H258.483V90.5611H254.531L254.199 93.3494H254.254C254.448 93.1955 254.691 93.0678 254.984 92.9663C255.276 92.8647 255.581 92.8139 255.898 92.8139C256.476 92.8139 256.992 92.9524 257.444 93.2294C257.9 93.5033 258.257 93.8788 258.515 94.3558C258.777 94.8329 258.908 95.3776 258.908 95.9901C258.908 96.5933 258.772 97.1319 258.502 97.6058C258.234 98.0767 257.864 98.4491 257.394 98.723C256.923 98.9938 256.387 99.1293 255.787 99.1293ZM263.621 99.1293C263.233 99.1231 262.845 99.0492 262.458 98.9077C262.07 98.7661 261.716 98.5276 261.396 98.1921C261.076 97.8536 260.819 97.3965 260.625 96.821C260.431 96.2424 260.334 95.5161 260.334 94.642C260.334 93.8049 260.412 93.0632 260.569 92.4169C260.726 91.7675 260.954 91.2212 261.253 90.7781C261.551 90.3318 261.911 89.9933 262.333 89.7624C262.758 89.5316 263.236 89.4162 263.769 89.4162C264.298 89.4162 264.769 89.5224 265.181 89.7347C265.597 89.944 265.935 90.2364 266.197 90.6119C266.458 90.9873 266.628 91.4197 266.705 91.9091H265.578C265.474 91.4844 265.27 91.132 264.969 90.8519C264.667 90.5719 264.267 90.4318 263.769 90.4318C263.036 90.4318 262.459 90.7504 262.037 91.3874C261.619 92.0245 261.408 92.9186 261.405 94.0696H261.479C261.651 93.808 261.856 93.5849 262.093 93.4002C262.333 93.2125 262.598 93.0678 262.887 92.9663C263.176 92.8647 263.482 92.8139 263.806 92.8139C264.347 92.8139 264.843 92.9493 265.292 93.2202C265.741 93.4879 266.101 93.8588 266.372 94.3327C266.643 94.8036 266.779 95.3438 266.779 95.9531C266.779 96.5379 266.648 97.0734 266.386 97.5597C266.125 98.0429 265.757 98.4276 265.283 98.7138C264.812 98.9969 264.258 99.1354 263.621 99.1293ZM263.621 98.1136C264.009 98.1136 264.356 98.0167 264.664 97.8228C264.975 97.6289 265.22 97.3688 265.398 97.0426C265.58 96.7164 265.671 96.3532 265.671 95.9531C265.671 95.5623 265.583 95.2068 265.407 94.8867C265.235 94.5636 264.997 94.3066 264.692 94.1158C264.39 93.925 264.046 93.8295 263.658 93.8295C263.365 93.8295 263.093 93.888 262.841 94.005C262.588 94.1188 262.367 94.2758 262.176 94.4759C261.988 94.6759 261.84 94.9052 261.733 95.1637C261.625 95.4192 261.571 95.6884 261.571 95.9716C261.571 96.3471 261.659 96.6979 261.834 97.0241C262.013 97.3504 262.256 97.6135 262.564 97.8136C262.875 98.0136 263.227 98.1136 263.621 98.1136Z" fill="#421DFF"/>
<path d="M24.626 248C22.293 248 21.1261 248 20.1455 248.117C12.5492 249.026 6.56075 255.014 5.65234 262.61C5.5351 263.591 5.53516 264.758 5.53516 267.091C5.53516 269.89 5.53513 271.29 5.67578 272.467C5.73845 272.991 5.8226 273.509 5.9248 274.02C5.80055 277.274 5.61522 280.384 5.33887 281.687C3.89201 288.503 -0.00195312 289.999 -0.00195312 289.999C-0.00195312 289.999 7.13245 290.09 9.90137 288.503C11.1771 287.772 12.3441 286.603 13.1172 285.731C15.9186 287.94 19.3312 289.413 23.0684 289.859C24.245 290 25.645 290 28.4443 290H133.535C134.561 290 135.074 290 135.508 289.981C145.814 289.531 154.067 281.278 154.517 270.973C154.536 270.539 154.535 270.026 154.535 269C154.535 267.974 154.536 267.461 154.517 267.027C154.067 256.722 145.814 248.469 135.508 248.019C135.074 248 134.561 248 133.535 248H24.626Z" fill="#D4C5FF"/>
<path d="M110.303 270.353V279.808H109.158V271.553H109.102L106.794 273.086V271.923L109.158 270.353H110.303ZM115.772 270.224C116.159 270.227 116.547 270.301 116.935 270.445C117.323 270.59 117.677 270.83 117.997 271.166C118.317 271.498 118.574 271.952 118.768 272.527C118.962 273.103 119.059 273.825 119.059 274.693C119.059 275.533 118.979 276.279 118.818 276.932C118.662 277.581 118.434 278.129 118.135 278.575C117.84 279.021 117.48 279.36 117.055 279.591C116.633 279.821 116.156 279.937 115.624 279.937C115.095 279.937 114.622 279.832 114.207 279.623C113.794 279.411 113.456 279.117 113.191 278.741C112.929 278.363 112.762 277.924 112.688 277.426H113.814C113.916 277.859 114.117 278.218 114.419 278.501C114.724 278.781 115.125 278.921 115.624 278.921C116.353 278.921 116.929 278.603 117.35 277.966C117.775 277.329 117.988 276.428 117.988 275.265H117.914C117.741 275.524 117.537 275.747 117.3 275.934C117.063 276.122 116.8 276.267 116.51 276.368C116.221 276.47 115.913 276.521 115.587 276.521C115.045 276.521 114.548 276.387 114.096 276.119C113.646 275.848 113.286 275.477 113.016 275.006C112.748 274.533 112.614 273.991 112.614 273.381C112.614 272.803 112.743 272.274 113.002 271.793C113.263 271.31 113.63 270.926 114.1 270.639C114.574 270.353 115.131 270.215 115.772 270.224ZM115.772 271.239C115.384 271.239 115.035 271.336 114.724 271.53C114.416 271.721 114.171 271.98 113.99 272.306C113.811 272.629 113.722 272.988 113.722 273.381C113.722 273.775 113.808 274.134 113.98 274.457C114.156 274.777 114.394 275.033 114.696 275.223C115.001 275.411 115.347 275.505 115.735 275.505C116.027 275.505 116.299 275.448 116.552 275.334C116.804 275.217 117.024 275.059 117.212 274.859C117.403 274.656 117.552 274.426 117.66 274.171C117.767 273.912 117.821 273.643 117.821 273.363C117.821 272.994 117.732 272.647 117.554 272.324C117.378 272.001 117.135 271.74 116.824 271.54C116.516 271.339 116.166 271.239 115.772 271.239ZM121.426 278.598C121.199 278.598 121.003 278.517 120.84 278.353C120.677 278.19 120.596 277.995 120.596 277.767C120.596 277.539 120.677 277.344 120.84 277.181C121.003 277.018 121.199 276.936 121.426 276.936C121.654 276.936 121.85 277.018 122.013 277.181C122.176 277.344 122.257 277.539 122.257 277.767C122.257 277.918 122.219 278.056 122.142 278.183C122.068 278.309 121.968 278.41 121.842 278.487C121.719 278.561 121.58 278.598 121.426 278.598ZM121.426 273.815C121.199 273.815 121.003 273.734 120.84 273.571C120.677 273.408 120.596 273.212 120.596 272.984C120.596 272.757 120.677 272.561 120.84 272.398C121.003 272.235 121.199 272.153 121.426 272.153C121.654 272.153 121.85 272.235 122.013 272.398C122.176 272.561 122.257 272.757 122.257 272.984C122.257 273.135 122.219 273.274 122.142 273.4C122.068 273.526 121.968 273.628 121.842 273.705C121.719 273.778 121.58 273.815 121.426 273.815ZM127.018 279.937C126.322 279.937 125.73 279.748 125.241 279.369C124.751 278.987 124.377 278.435 124.119 277.712C123.86 276.985 123.731 276.108 123.731 275.08C123.731 274.059 123.86 273.186 124.119 272.463C124.38 271.736 124.756 271.182 125.245 270.801C125.738 270.416 126.328 270.224 127.018 270.224C127.707 270.224 128.297 270.416 128.786 270.801C129.278 271.182 129.654 271.736 129.912 272.463C130.174 273.186 130.305 274.059 130.305 275.08C130.305 276.108 130.176 276.985 129.917 277.712C129.658 278.435 129.285 278.987 128.795 279.369C128.306 279.748 127.713 279.937 127.018 279.937ZM127.018 278.921C127.707 278.921 128.243 278.589 128.624 277.924C129.006 277.259 129.197 276.311 129.197 275.08C129.197 274.262 129.109 273.565 128.934 272.989C128.761 272.414 128.512 271.975 128.186 271.673C127.863 271.372 127.473 271.221 127.018 271.221C126.335 271.221 125.801 271.558 125.416 272.232C125.031 272.903 124.839 273.852 124.839 275.08C124.839 275.899 124.925 276.595 125.097 277.167C125.27 277.739 125.517 278.175 125.841 278.473C126.167 278.772 126.559 278.921 127.018 278.921ZM134.827 279.937C134.193 279.937 133.633 279.825 133.147 279.6C132.664 279.372 132.287 279.06 132.016 278.663C131.745 278.263 131.611 277.807 131.614 277.296C131.611 276.896 131.69 276.527 131.85 276.188C132.01 275.847 132.228 275.562 132.505 275.334C132.785 275.103 133.098 274.957 133.443 274.896V274.84C132.99 274.723 132.63 274.469 132.362 274.079C132.094 273.685 131.962 273.237 131.965 272.735C131.962 272.255 132.084 271.826 132.33 271.447C132.576 271.069 132.915 270.77 133.346 270.552C133.78 270.333 134.273 270.224 134.827 270.224C135.375 270.224 135.865 270.333 136.295 270.552C136.726 270.77 137.065 271.069 137.311 271.447C137.56 271.826 137.687 272.255 137.69 272.735C137.687 273.237 137.55 273.685 137.279 274.079C137.011 274.469 136.656 274.723 136.212 274.84V274.896C136.554 274.957 136.862 275.103 137.136 275.334C137.41 275.562 137.628 275.847 137.791 276.188C137.954 276.527 138.037 276.896 138.041 277.296C138.037 277.807 137.899 278.263 137.625 278.663C137.354 279.06 136.977 279.372 136.494 279.6C136.014 279.825 135.458 279.937 134.827 279.937ZM134.827 278.921C135.255 278.921 135.625 278.852 135.935 278.714C136.246 278.575 136.486 278.38 136.656 278.127C136.825 277.875 136.911 277.579 136.914 277.241C136.911 276.884 136.819 276.568 136.637 276.294C136.456 276.021 136.208 275.805 135.894 275.648C135.583 275.491 135.228 275.413 134.827 275.413C134.424 275.413 134.064 275.491 133.747 275.648C133.433 275.805 133.186 276.021 133.004 276.294C132.825 276.568 132.738 276.884 132.741 277.241C132.738 277.579 132.819 277.875 132.985 278.127C133.155 278.38 133.396 278.575 133.71 278.714C134.024 278.852 134.397 278.921 134.827 278.921ZM134.827 274.434C135.166 274.434 135.466 274.366 135.728 274.231C135.992 274.095 136.2 273.906 136.351 273.663C136.502 273.42 136.579 273.135 136.582 272.809C136.579 272.489 136.503 272.21 136.356 271.973C136.208 271.733 136.003 271.549 135.742 271.419C135.48 271.287 135.175 271.221 134.827 271.221C134.474 271.221 134.164 271.287 133.9 271.419C133.635 271.549 133.43 271.733 133.286 271.973C133.141 272.21 133.07 272.489 133.073 272.809C133.07 273.135 133.142 273.42 133.29 273.663C133.441 273.906 133.649 274.095 133.913 274.231C134.178 274.366 134.483 274.434 134.827 274.434Z" fill="#421DFF"/>
<path d="M35.2676 276L30.2676 269.324H28.4778V276H26.7164V261.455H28.4778V267.761H29.2449L35.0687 261.455H37.171L31.2903 267.847L37.3699 276H35.2676ZM42.6291 276.256C41.9378 276.256 41.3104 276.125 40.747 275.865C40.1835 275.6 39.7361 275.219 39.4047 274.722C39.0732 274.22 38.9075 273.614 38.9075 272.903C38.9075 272.278 39.0306 271.772 39.2768 271.384C39.523 270.991 39.8521 270.683 40.264 270.46C40.676 270.238 41.1305 270.072 41.6277 269.963C42.1296 269.849 42.6338 269.759 43.1404 269.693C43.8033 269.608 44.3407 269.544 44.7527 269.501C45.1693 269.454 45.4724 269.376 45.6618 269.267C45.8559 269.158 45.9529 268.969 45.9529 268.699V268.642C45.9529 267.941 45.7612 267.397 45.3777 267.009C44.9989 266.62 44.4236 266.426 43.6518 266.426C42.8516 266.426 42.2243 266.601 41.7697 266.952C41.3152 267.302 40.9956 267.676 40.8109 268.074L39.22 267.506C39.5041 266.843 39.8829 266.327 40.3564 265.957C40.8346 265.583 41.3554 265.323 41.9189 265.176C42.487 265.025 43.0458 264.949 43.595 264.949C43.9454 264.949 44.3478 264.991 44.8024 265.077C45.2617 265.157 45.7044 265.325 46.1305 265.581C46.5614 265.837 46.9189 266.223 47.2029 266.739C47.487 267.255 47.6291 267.946 47.6291 268.812V276H45.9529V274.523H45.8677C45.7541 274.759 45.5647 275.013 45.2995 275.283C45.0344 275.553 44.6816 275.782 44.2413 275.972C43.801 276.161 43.2636 276.256 42.6291 276.256ZM42.8848 274.75C43.5476 274.75 44.1064 274.62 44.5609 274.359C45.0202 274.099 45.3658 273.763 45.5978 273.351C45.8346 272.939 45.9529 272.506 45.9529 272.051V270.517C45.8819 270.602 45.7257 270.68 45.4842 270.751C45.2475 270.818 44.9728 270.877 44.6603 270.929C44.3526 270.976 44.0519 271.019 43.7583 271.057C43.4695 271.09 43.2351 271.118 43.0552 271.142C42.6196 271.199 42.2124 271.291 41.8336 271.419C41.4596 271.542 41.1565 271.729 40.9245 271.98C40.6973 272.226 40.5836 272.562 40.5836 272.989C40.5836 273.571 40.7991 274.011 41.2299 274.31C41.6655 274.603 42.2172 274.75 42.8848 274.75ZM53.8986 276.256C53.2073 276.256 52.58 276.125 52.0165 275.865C51.4531 275.6 51.0056 275.219 50.6742 274.722C50.3427 274.22 50.177 273.614 50.177 272.903C50.177 272.278 50.3001 271.772 50.5463 271.384C50.7926 270.991 51.1216 270.683 51.5336 270.46C51.9455 270.238 52.4 270.072 52.8972 269.963C53.3991 269.849 53.9033 269.759 54.41 269.693C55.0729 269.608 55.6103 269.544 56.0222 269.501C56.4389 269.454 56.7419 269.376 56.9313 269.267C57.1254 269.158 57.2225 268.969 57.2225 268.699V268.642C57.2225 267.941 57.0307 267.397 56.6472 267.009C56.2684 266.62 55.6931 266.426 54.9213 266.426C54.1212 266.426 53.4938 266.601 53.0392 266.952C52.5847 267.302 52.2651 267.676 52.0804 268.074L50.4895 267.506C50.7736 266.843 51.1524 266.327 51.6259 265.957C52.1041 265.583 52.6249 265.323 53.1884 265.176C53.7566 265.025 54.3153 264.949 54.8645 264.949C55.2149 264.949 55.6174 264.991 56.0719 265.077C56.5312 265.157 56.9739 265.325 57.4 265.581C57.8309 265.837 58.1884 266.223 58.4725 266.739C58.7566 267.255 58.8986 267.946 58.8986 268.812V276H57.2225V274.523H57.1373C57.0236 274.759 56.8342 275.013 56.5691 275.283C56.3039 275.553 55.9512 275.782 55.5108 275.972C55.0705 276.161 54.5331 276.256 53.8986 276.256ZM54.1543 274.75C54.8172 274.75 55.3759 274.62 55.8304 274.359C56.2897 274.099 56.6354 273.763 56.8674 273.351C57.1041 272.939 57.2225 272.506 57.2225 272.051V270.517C57.1515 270.602 56.9952 270.68 56.7537 270.751C56.517 270.818 56.2424 270.877 55.9299 270.929C55.6221 270.976 55.3214 271.019 55.0279 271.057C54.7391 271.09 54.5047 271.118 54.3248 271.142C53.8891 271.199 53.4819 271.291 53.1032 271.419C52.7291 271.542 52.4261 271.729 52.1941 271.98C51.9668 272.226 51.8532 272.562 51.8532 272.989C51.8532 273.571 52.0686 274.011 52.4995 274.31C52.9351 274.603 53.4867 274.75 54.1543 274.75ZM65.1681 276.256C64.4769 276.256 63.8495 276.125 63.286 275.865C62.7226 275.6 62.2752 275.219 61.9437 274.722C61.6123 274.22 61.4466 273.614 61.4466 272.903C61.4466 272.278 61.5697 271.772 61.8159 271.384C62.0621 270.991 62.3912 270.683 62.8031 270.46C63.215 270.238 63.6696 270.072 64.1667 269.963C64.6686 269.849 65.1729 269.759 65.6795 269.693C66.3424 269.608 66.8798 269.544 67.2917 269.501C67.7084 269.454 68.0114 269.376 68.2008 269.267C68.3949 269.158 68.492 268.969 68.492 268.699V268.642C68.492 267.941 68.3002 267.397 67.9167 267.009C67.5379 266.62 66.9627 266.426 66.1909 266.426C65.3907 266.426 64.7633 266.601 64.3088 266.952C63.8542 267.302 63.5346 267.676 63.35 268.074L61.7591 267.506C62.0431 266.843 62.4219 266.327 62.8954 265.957C63.3736 265.583 63.8945 265.323 64.4579 265.176C65.0261 265.025 65.5848 264.949 66.1341 264.949C66.4844 264.949 66.8869 264.991 67.3414 265.077C67.8007 265.157 68.2434 265.325 68.6696 265.581C69.1004 265.837 69.4579 266.223 69.742 266.739C70.0261 267.255 70.1681 267.946 70.1681 268.812V276H68.492V274.523H68.4068C68.2931 274.759 68.1038 275.013 67.8386 275.283C67.5734 275.553 67.2207 275.782 66.7804 275.972C66.34 276.161 65.8026 276.256 65.1681 276.256ZM65.4238 274.75C66.0867 274.75 66.6454 274.62 67.1 274.359C67.5592 274.099 67.9049 273.763 68.1369 273.351C68.3736 272.939 68.492 272.506 68.492 272.051V270.517C68.421 270.602 68.2647 270.68 68.0233 270.751C67.7865 270.818 67.5119 270.877 67.1994 270.929C66.8916 270.976 66.591 271.019 66.2974 271.057C66.0086 271.09 65.7742 271.118 65.5943 271.142C65.1587 271.199 64.7515 271.291 64.3727 271.419C63.9986 271.542 63.6956 271.729 63.4636 271.98C63.2363 272.226 63.1227 272.562 63.1227 272.989C63.1227 273.571 63.3381 274.011 63.769 274.31C64.2046 274.603 64.7562 274.75 65.4238 274.75ZM74.9036 273.528L80.1593 265.091H82.0911V276H80.415V267.562L75.1877 276H73.2275V265.091H74.9036V273.528ZM79.0513 261.455H80.6138C80.6138 262.222 80.3487 262.849 79.8184 263.337C79.2881 263.824 78.5684 264.068 77.6593 264.068C76.7644 264.068 76.0518 263.824 75.5215 263.337C74.9959 262.849 74.7331 262.222 74.7331 261.455H76.2956C76.2956 261.824 76.3974 262.148 76.601 262.428C76.8094 262.707 77.1621 262.847 77.6593 262.847C78.1564 262.847 78.5115 262.707 78.7246 262.428C78.9424 262.148 79.0513 261.824 79.0513 261.455ZM89.5929 279.722V261.455H91.269V279.722H89.5929ZM89.5929 276.227C88.8542 276.227 88.1819 276.095 87.5758 275.83C86.9698 275.56 86.4489 275.179 86.0133 274.686C85.5777 274.189 85.2415 273.595 85.0048 272.903C84.7681 272.212 84.6497 271.445 84.6497 270.602C84.6497 269.75 84.7681 268.978 85.0048 268.287C85.2415 267.591 85.5777 266.994 86.0133 266.497C86.4489 266 86.9698 265.619 87.5758 265.354C88.1819 265.084 88.8542 264.949 89.5929 264.949H90.1042V276.227H89.5929ZM89.5929 274.722H89.877V266.455H89.5929C89.0342 266.455 88.5488 266.568 88.1369 266.795C87.725 267.018 87.3841 267.323 87.1142 267.712C86.849 268.095 86.6502 268.536 86.5176 269.033C86.3897 269.53 86.3258 270.053 86.3258 270.602C86.3258 271.331 86.4418 272.009 86.6738 272.634C86.9058 273.259 87.2633 273.763 87.7463 274.146C88.2292 274.53 88.8448 274.722 89.5929 274.722ZM91.269 276.227H90.7576V264.949H91.269C92.0076 264.949 92.68 265.084 93.286 265.354C93.8921 265.619 94.4129 266 94.8485 266.497C95.2842 266.994 95.6203 267.591 95.8571 268.287C96.0938 268.978 96.2122 269.75 96.2122 270.602C96.2122 271.445 96.0938 272.212 95.8571 272.903C95.6203 273.595 95.2842 274.189 94.8485 274.686C94.4129 275.179 93.8921 275.56 93.286 275.83C92.68 276.095 92.0076 276.227 91.269 276.227ZM91.269 274.722C91.8324 274.722 92.3178 274.613 92.725 274.395C93.1369 274.172 93.4754 273.869 93.7406 273.486C94.0105 273.098 94.2093 272.657 94.3372 272.165C94.4698 271.668 94.536 271.147 94.536 270.602C94.536 269.873 94.42 269.194 94.188 268.564C93.956 267.934 93.5985 267.425 93.1156 267.037C92.6326 266.649 92.0171 266.455 91.269 266.455H90.9849V274.722H91.269Z" fill="black"/>
<path d="M370.955 150C370.955 137.85 380.805 128 392.955 128H475.622C483.747 128 487.81 128 491.08 129.13C497.06 131.196 501.759 135.895 503.825 141.875C504.955 145.145 504.955 149.208 504.955 157.333C504.955 161.396 504.955 163.427 504.39 165.062C503.357 168.052 501.007 170.402 498.017 171.435C496.382 172 494.351 172 490.288 172H392.955C380.805 172 370.955 162.15 370.955 150Z" fill="#F5F1FF"/>
<path d="M395.96 156H394.113L399.454 141.455H401.272L406.613 156H404.766L400.42 143.756H400.306L395.96 156ZM396.641 150.318H404.085V151.881H396.641V150.318ZM415.384 145.091V146.653H410.327V156H408.651V145.091H415.384ZM420.475 156.256C419.783 156.256 419.156 156.125 418.593 155.865C418.029 155.6 417.582 155.219 417.25 154.722C416.919 154.22 416.753 153.614 416.753 152.903C416.753 152.278 416.876 151.772 417.123 151.384C417.369 150.991 417.698 150.683 418.11 150.46C418.522 150.238 418.976 150.072 419.473 149.963C419.975 149.849 420.48 149.759 420.986 149.693C421.649 149.608 422.186 149.544 422.598 149.501C423.015 149.454 423.318 149.376 423.507 149.267C423.702 149.158 423.799 148.969 423.799 148.699V148.642C423.799 147.941 423.607 147.397 423.223 147.009C422.845 146.62 422.269 146.426 421.498 146.426C420.697 146.426 420.07 146.601 419.615 146.952C419.161 147.302 418.841 147.676 418.657 148.074L417.066 147.506C417.35 146.843 417.729 146.327 418.202 145.957C418.68 145.583 419.201 145.323 419.765 145.176C420.333 145.025 420.891 144.949 421.441 144.949C421.791 144.949 422.194 144.991 422.648 145.077C423.107 145.157 423.55 145.325 423.976 145.581C424.407 145.837 424.765 146.223 425.049 146.739C425.333 147.255 425.475 147.946 425.475 148.812V156H423.799V154.523H423.713C423.6 154.759 423.41 155.013 423.145 155.283C422.88 155.553 422.527 155.782 422.087 155.972C421.647 156.161 421.109 156.256 420.475 156.256ZM420.73 154.75C421.393 154.75 421.952 154.62 422.407 154.359C422.866 154.099 423.212 153.763 423.444 153.351C423.68 152.939 423.799 152.506 423.799 152.051V150.517C423.728 150.602 423.571 150.68 423.33 150.751C423.093 150.818 422.819 150.877 422.506 150.929C422.198 150.976 421.898 151.019 421.604 151.057C421.315 151.09 421.081 151.118 420.901 151.142C420.465 151.199 420.058 151.291 419.679 151.419C419.305 151.542 419.002 151.729 418.77 151.98C418.543 152.226 418.429 152.562 418.429 152.989C418.429 153.571 418.645 154.011 419.076 154.31C419.511 154.603 420.063 154.75 420.73 154.75Z" fill="black"/>
<path d="M442.237 150.545V160.504H441.031V151.809H440.973L438.541 153.424V152.198L441.031 150.545H442.237ZM447.998 150.409C448.407 150.412 448.815 150.49 449.224 150.642C449.632 150.794 450.005 151.047 450.342 151.401C450.679 151.751 450.95 152.229 451.154 152.835C451.359 153.441 451.461 154.202 451.461 155.116C451.461 156.001 451.376 156.787 451.208 157.474C451.042 158.158 450.803 158.735 450.488 159.206C450.177 159.676 449.798 160.032 449.35 160.275C448.906 160.518 448.404 160.64 447.843 160.64C447.285 160.64 446.787 160.53 446.35 160.309C445.915 160.086 445.559 159.776 445.28 159.381C445.004 158.982 444.828 158.52 444.75 157.995H445.936C446.043 158.452 446.256 158.829 446.573 159.128C446.894 159.423 447.317 159.57 447.843 159.57C448.611 159.57 449.217 159.235 449.661 158.564C450.109 157.893 450.332 156.944 450.332 155.719H450.255C450.073 155.991 449.858 156.226 449.608 156.424C449.358 156.622 449.081 156.774 448.776 156.881C448.472 156.988 448.147 157.042 447.804 157.042C447.233 157.042 446.71 156.9 446.233 156.618C445.76 156.333 445.38 155.943 445.095 155.446C444.813 154.947 444.672 154.377 444.672 153.735C444.672 153.125 444.808 152.568 445.081 152.062C445.356 151.553 445.742 151.148 446.238 150.846C446.737 150.545 447.324 150.399 447.998 150.409ZM447.998 151.478C447.59 151.478 447.222 151.58 446.894 151.785C446.57 151.986 446.312 152.258 446.121 152.602C445.933 152.942 445.839 153.32 445.839 153.735C445.839 154.15 445.93 154.527 446.111 154.868C446.296 155.205 446.548 155.474 446.865 155.675C447.186 155.873 447.551 155.972 447.959 155.972C448.267 155.972 448.554 155.912 448.82 155.792C449.086 155.669 449.318 155.502 449.516 155.291C449.717 155.077 449.874 154.835 449.987 154.566C450.101 154.294 450.157 154.01 450.157 153.715C450.157 153.326 450.063 152.962 449.875 152.621C449.691 152.281 449.434 152.005 449.107 151.794C448.783 151.584 448.413 151.478 447.998 151.478ZM453.955 159.23C453.715 159.23 453.509 159.144 453.337 158.972C453.166 158.8 453.08 158.594 453.08 158.355C453.08 158.115 453.166 157.909 453.337 157.737C453.509 157.565 453.715 157.479 453.955 157.479C454.195 157.479 454.401 157.565 454.573 157.737C454.744 157.909 454.83 158.115 454.83 158.355C454.83 158.513 454.79 158.659 454.709 158.792C454.631 158.925 454.526 159.032 454.393 159.113C454.263 159.191 454.117 159.23 453.955 159.23ZM453.955 154.192C453.715 154.192 453.509 154.106 453.337 153.934C453.166 153.762 453.08 153.556 453.08 153.317C453.08 153.077 453.166 152.871 453.337 152.699C453.509 152.527 453.715 152.441 453.955 152.441C454.195 152.441 454.401 152.527 454.573 152.699C454.744 152.871 454.83 153.077 454.83 153.317C454.83 153.475 454.79 153.621 454.709 153.754C454.631 153.887 454.526 153.994 454.393 154.075C454.263 154.153 454.117 154.192 453.955 154.192ZM459.845 160.64C459.112 160.64 458.488 160.441 457.973 160.042C457.457 159.64 457.063 159.058 456.791 158.296C456.519 157.531 456.382 156.607 456.382 155.524C456.382 154.448 456.519 153.529 456.791 152.767C457.067 152.002 457.462 151.418 457.977 151.016C458.496 150.611 459.119 150.409 459.845 150.409C460.571 150.409 461.192 150.611 461.707 151.016C462.226 151.418 462.622 152.002 462.894 152.767C463.169 153.529 463.307 154.448 463.307 155.524C463.307 156.607 463.171 157.531 462.899 158.296C462.626 159.058 462.233 159.64 461.717 160.042C461.202 160.441 460.578 160.64 459.845 160.64ZM459.845 159.57C460.571 159.57 461.135 159.22 461.537 158.52C461.939 157.82 462.14 156.821 462.14 155.524C462.14 154.662 462.048 153.928 461.863 153.321C461.681 152.715 461.419 152.253 461.075 151.935C460.735 151.618 460.325 151.459 459.845 151.459C459.125 151.459 458.563 151.814 458.157 152.524C457.752 153.231 457.55 154.231 457.55 155.524C457.55 156.387 457.64 157.119 457.822 157.722C458.003 158.325 458.264 158.784 458.605 159.099C458.948 159.413 459.362 159.57 459.845 159.57ZM464.925 160.504L469.379 151.692V151.615H464.244V150.545H470.624V151.673L466.189 160.504H464.925Z" fill="#421DFF"/>
<path fill-rule="evenodd" clip-rule="evenodd" d="M491.447 150.972C491.674 151.192 491.681 151.554 491.461 151.781L482.553 161.008C482.442 161.122 482.289 161.185 482.13 161.182C481.971 161.179 481.82 161.11 481.714 160.991L477.737 156.537C477.527 156.301 477.547 155.94 477.783 155.729C478.019 155.519 478.381 155.539 478.591 155.775L482.157 159.769L490.637 150.986C490.857 150.759 491.219 150.753 491.447 150.972Z" fill="#421DFF"/>
<path fill-rule="evenodd" clip-rule="evenodd" d="M494.81 151.161C495.037 151.38 495.044 151.743 494.824 151.97L485.916 161.196C485.806 161.311 485.652 161.374 485.493 161.371C485.334 161.368 485.183 161.299 485.077 161.18L481.1 156.726C480.89 156.49 480.91 156.128 481.146 155.918C481.382 155.707 481.744 155.728 481.954 155.963L485.521 159.958L494.001 151.175C494.22 150.947 494.583 150.941 494.81 151.161Z" fill="#421DFF"/>
<path fill-rule="evenodd" clip-rule="evenodd" d="M168.125 188.226C165.879 192.633 165.879 198.403 165.879 209.943V211.008C165.879 222.547 165.879 228.317 168.125 232.725C170.1 236.602 173.252 239.754 177.129 241.73C181.537 243.975 187.307 243.975 198.847 243.975H470.08C482.26 243.975 488.351 243.975 493.003 241.605C493.883 241.157 494.727 240.651 495.53 240.094C496.628 240.876 498.033 241.745 499.536 242.338C503.703 243.982 514.439 243.887 514.439 243.887C514.439 243.887 508.58 242.338 506.403 235.278C505.369 231.924 505.17 211.969 505.17 211.969L504.877 212.617C504.879 211.527 504.879 210.381 504.879 209.176V193.459C504.879 187.689 504.879 184.804 503.756 182.601C502.768 180.662 501.192 179.086 499.254 178.098C497.05 176.975 494.165 176.975 488.395 176.975H198.847C187.307 176.975 181.537 176.975 177.129 179.221C173.252 181.197 170.1 184.349 168.125 188.226Z" fill="#F5F1FF"/>
<path d="M199.532 189.455V191.017H192.515V204H190.754V189.455H199.532ZM201.064 204V202.438H201.462C201.789 202.438 202.061 202.374 202.279 202.246C202.497 202.113 202.672 201.884 202.804 201.557C202.942 201.225 203.046 200.766 203.117 200.179C203.193 199.587 203.247 198.834 203.28 197.92L203.479 193.091H210.752V204H209.076V194.653H205.07L204.9 198.545C204.862 199.44 204.781 200.229 204.658 200.911C204.54 201.588 204.357 202.156 204.111 202.615C203.87 203.074 203.548 203.42 203.145 203.652C202.743 203.884 202.239 204 201.632 204H201.064ZM220.39 204V194.625H217.492C216.838 194.625 216.325 194.777 215.951 195.08C215.577 195.383 215.39 195.799 215.39 196.33C215.39 196.85 215.558 197.26 215.894 197.558C216.235 197.857 216.701 198.006 217.293 198.006H220.816V199.568H217.293C216.554 199.568 215.917 199.438 215.382 199.178C214.847 198.917 214.435 198.545 214.147 198.062C213.858 197.575 213.713 196.997 213.713 196.33C213.713 195.657 213.865 195.08 214.168 194.597C214.471 194.114 214.904 193.742 215.468 193.482C216.036 193.221 216.711 193.091 217.492 193.091H221.98V204H220.39ZM213.117 204L216.213 198.574H218.032L214.935 204H213.117ZM232.359 197.778V199.341H226.336V197.778H232.359ZM226.734 193.091V204H225.058V193.091H226.734ZM233.637 193.091V204H231.961V193.091H233.637ZM238.147 197.04H241.272C242.55 197.04 243.528 197.364 244.205 198.013C244.882 198.661 245.221 199.483 245.221 200.477C245.221 201.131 245.069 201.725 244.766 202.26C244.463 202.79 244.018 203.214 243.431 203.531C242.844 203.844 242.124 204 241.272 204H236.698V193.091H238.374V202.438H241.272C241.935 202.438 242.479 202.262 242.906 201.912C243.332 201.562 243.545 201.112 243.545 200.562C243.545 199.985 243.332 199.514 242.906 199.149C242.479 198.785 241.935 198.602 241.272 198.602H238.147V197.04ZM255.074 201.528L260.329 193.091H262.261V204H260.585V195.562L255.358 204H253.397V193.091H255.074V201.528ZM272.632 197.778V199.341H266.609V197.778H272.632ZM267.007 193.091V204H265.331V193.091H267.007ZM273.911 193.091V204H272.234V193.091H273.911ZM275.487 194.653V193.091H284.351V194.653H280.771V204H279.095V194.653H275.487ZM290.803 204.227C289.752 204.227 288.845 203.995 288.083 203.531C287.326 203.062 286.741 202.409 286.329 201.571C285.922 200.728 285.718 199.748 285.718 198.631C285.718 197.513 285.922 196.528 286.329 195.676C286.741 194.819 287.314 194.152 288.048 193.673C288.786 193.19 289.648 192.949 290.633 192.949C291.201 192.949 291.762 193.044 292.316 193.233C292.87 193.422 293.374 193.73 293.829 194.156C294.283 194.578 294.646 195.136 294.915 195.832C295.185 196.528 295.32 197.385 295.32 198.403V199.114H286.911V197.665H293.616C293.616 197.049 293.493 196.5 293.246 196.017C293.005 195.534 292.659 195.153 292.21 194.874C291.764 194.594 291.239 194.455 290.633 194.455C289.965 194.455 289.388 194.62 288.9 194.952C288.417 195.278 288.045 195.705 287.785 196.23C287.524 196.756 287.394 197.319 287.394 197.92V198.886C287.394 199.71 287.536 200.409 287.82 200.982C288.109 201.55 288.509 201.983 289.021 202.281C289.532 202.575 290.126 202.722 290.803 202.722C291.244 202.722 291.641 202.66 291.996 202.537C292.356 202.409 292.666 202.22 292.927 201.969C293.187 201.713 293.388 201.396 293.531 201.017L295.15 201.472C294.979 202.021 294.693 202.504 294.29 202.92C293.888 203.332 293.391 203.654 292.799 203.886C292.207 204.114 291.542 204.227 290.803 204.227ZM297.87 208.091V193.091H299.489V194.824H299.688C299.811 194.634 299.982 194.393 300.2 194.099C300.422 193.801 300.739 193.536 301.151 193.304C301.568 193.067 302.131 192.949 302.842 192.949C303.76 192.949 304.57 193.179 305.271 193.638C305.971 194.097 306.518 194.748 306.911 195.591C307.304 196.434 307.501 197.428 307.501 198.574C307.501 199.729 307.304 200.731 306.911 201.578C306.518 202.421 305.974 203.074 305.278 203.538C304.582 203.998 303.779 204.227 302.87 204.227C302.169 204.227 301.608 204.111 301.187 203.879C300.765 203.643 300.441 203.375 300.214 203.077C299.987 202.774 299.811 202.523 299.688 202.324H299.546V208.091H297.87ZM299.518 198.545C299.518 199.369 299.638 200.096 299.88 200.726C300.121 201.351 300.474 201.841 300.938 202.196C301.402 202.546 301.97 202.722 302.643 202.722C303.344 202.722 303.928 202.537 304.397 202.168C304.871 201.794 305.226 201.292 305.462 200.662C305.704 200.027 305.825 199.322 305.825 198.545C305.825 197.778 305.706 197.087 305.469 196.472C305.237 195.851 304.885 195.361 304.411 195.001C303.942 194.637 303.353 194.455 302.643 194.455C301.961 194.455 301.388 194.627 300.924 194.973C300.46 195.314 300.11 195.792 299.873 196.408C299.636 197.018 299.518 197.731 299.518 198.545ZM313.268 204.256C312.576 204.256 311.949 204.125 311.386 203.865C310.822 203.6 310.375 203.219 310.043 202.722C309.712 202.22 309.546 201.614 309.546 200.903C309.546 200.278 309.669 199.772 309.915 199.384C310.162 198.991 310.491 198.683 310.903 198.46C311.315 198.238 311.769 198.072 312.266 197.963C312.768 197.849 313.272 197.759 313.779 197.693C314.442 197.608 314.979 197.544 315.391 197.501C315.808 197.454 316.111 197.376 316.3 197.267C316.495 197.158 316.592 196.969 316.592 196.699V196.642C316.592 195.941 316.4 195.397 316.016 195.009C315.638 194.62 315.062 194.426 314.29 194.426C313.49 194.426 312.863 194.601 312.408 194.952C311.954 195.302 311.634 195.676 311.45 196.074L309.859 195.506C310.143 194.843 310.522 194.327 310.995 193.957C311.473 193.583 311.994 193.323 312.558 193.176C313.126 193.025 313.684 192.949 314.234 192.949C314.584 192.949 314.987 192.991 315.441 193.077C315.9 193.157 316.343 193.325 316.769 193.581C317.2 193.837 317.558 194.223 317.842 194.739C318.126 195.255 318.268 195.946 318.268 196.812V204H316.592V202.523H316.506C316.393 202.759 316.203 203.013 315.938 203.283C315.673 203.553 315.32 203.782 314.88 203.972C314.44 204.161 313.902 204.256 313.268 204.256ZM313.523 202.75C314.186 202.75 314.745 202.62 315.2 202.359C315.659 202.099 316.004 201.763 316.237 201.351C316.473 200.939 316.592 200.506 316.592 200.051V198.517C316.521 198.602 316.364 198.68 316.123 198.751C315.886 198.818 315.612 198.877 315.299 198.929C314.991 198.976 314.691 199.019 314.397 199.057C314.108 199.09 313.874 199.118 313.694 199.142C313.258 199.199 312.851 199.291 312.472 199.419C312.098 199.542 311.795 199.729 311.563 199.98C311.336 200.226 311.222 200.562 311.222 200.989C311.222 201.571 311.438 202.011 311.869 202.31C312.304 202.603 312.856 202.75 313.523 202.75ZM321.327 204V193.091H323.003V197.835H324.111L328.032 193.091H330.191L325.787 198.347L330.248 204H328.088L324.509 199.398H323.003V204H321.327ZM331.444 194.653V193.091H340.308V194.653H336.728V204H335.052V194.653H331.444ZM344.429 201.528L349.685 193.091H351.616V204H349.94V195.562L344.713 204H342.753V193.091H344.429V201.528ZM354.686 204V193.091H359.147C360.321 193.091 361.254 193.356 361.945 193.886C362.636 194.417 362.982 195.117 362.982 195.989C362.982 196.652 362.785 197.165 362.392 197.53C361.999 197.89 361.495 198.134 360.88 198.261C361.282 198.318 361.673 198.46 362.051 198.688C362.435 198.915 362.752 199.227 363.003 199.625C363.254 200.018 363.38 200.501 363.38 201.074C363.38 201.633 363.238 202.132 362.953 202.572C362.669 203.013 362.262 203.361 361.732 203.616C361.202 203.872 360.567 204 359.828 204H354.686ZM356.277 202.466H359.828C360.406 202.466 360.858 202.329 361.185 202.054C361.512 201.779 361.675 201.405 361.675 200.932C361.675 200.368 361.512 199.926 361.185 199.604C360.858 199.277 360.406 199.114 359.828 199.114H356.277V202.466ZM356.277 197.665H359.147C359.596 197.665 359.982 197.603 360.304 197.48C360.626 197.352 360.873 197.172 361.043 196.94C361.218 196.704 361.306 196.424 361.306 196.102C361.306 195.643 361.114 195.283 360.73 195.023C360.347 194.758 359.819 194.625 359.147 194.625H356.277V197.665ZM367.366 197.04H370.491C371.769 197.04 372.747 197.364 373.424 198.013C374.101 198.661 374.44 199.483 374.44 200.477C374.44 201.131 374.288 201.725 373.985 202.26C373.682 202.79 373.237 203.214 372.65 203.531C372.063 203.844 371.343 204 370.491 204H365.917V193.091H367.593V202.438H370.491C371.154 202.438 371.698 202.262 372.124 201.912C372.55 201.562 372.763 201.112 372.763 200.562C372.763 199.985 372.55 199.514 372.124 199.149C371.698 198.785 371.154 198.602 370.491 198.602H367.366V197.04ZM376.173 204V193.091H377.849V204H376.173ZM383.417 202.011L383.303 202.778C383.223 203.318 383.1 203.896 382.934 204.511C382.773 205.127 382.605 205.707 382.43 206.251C382.254 206.796 382.11 207.229 381.996 207.551H380.718C380.78 207.248 380.86 206.848 380.96 206.351C381.059 205.854 381.158 205.297 381.258 204.682C381.362 204.071 381.447 203.446 381.513 202.807L381.599 202.011H383.417ZM391.522 194.653V193.091H400.386V194.653H396.806V204H395.13V194.653H391.522ZM405.475 204.256C404.783 204.256 404.156 204.125 403.593 203.865C403.029 203.6 402.582 203.219 402.25 202.722C401.919 202.22 401.753 201.614 401.753 200.903C401.753 200.278 401.876 199.772 402.123 199.384C402.369 198.991 402.698 198.683 403.11 198.46C403.522 198.238 403.976 198.072 404.473 197.963C404.975 197.849 405.48 197.759 405.986 197.693C406.649 197.608 407.186 197.544 407.598 197.501C408.015 197.454 408.318 197.376 408.507 197.267C408.702 197.158 408.799 196.969 408.799 196.699V196.642C408.799 195.941 408.607 195.397 408.223 195.009C407.845 194.62 407.269 194.426 406.498 194.426C405.697 194.426 405.07 194.601 404.615 194.952C404.161 195.302 403.841 195.676 403.657 196.074L402.066 195.506C402.35 194.843 402.729 194.327 403.202 193.957C403.68 193.583 404.201 193.323 404.765 193.176C405.333 193.025 405.891 192.949 406.441 192.949C406.791 192.949 407.194 192.991 407.648 193.077C408.107 193.157 408.55 193.325 408.976 193.581C409.407 193.837 409.765 194.223 410.049 194.739C410.333 195.255 410.475 195.946 410.475 196.812V204H408.799V202.523H408.713C408.6 202.759 408.41 203.013 408.145 203.283C407.88 203.553 407.527 203.782 407.087 203.972C406.647 204.161 406.109 204.256 405.475 204.256ZM405.73 202.75C406.393 202.75 406.952 202.62 407.407 202.359C407.866 202.099 408.212 201.763 408.444 201.351C408.68 200.939 408.799 200.506 408.799 200.051V198.517C408.728 198.602 408.571 198.68 408.33 198.751C408.093 198.818 407.819 198.877 407.506 198.929C407.198 198.976 406.898 199.019 406.604 199.057C406.315 199.09 406.081 199.118 405.901 199.142C405.465 199.199 405.058 199.291 404.679 199.419C404.305 199.542 404.002 199.729 403.77 199.98C403.543 200.226 403.429 200.562 403.429 200.989C403.429 201.571 403.645 202.011 404.076 202.31C404.511 202.603 405.063 202.75 405.73 202.75ZM419.5 201.727L423.307 193.091H424.898L420.182 204H418.818L414.188 193.091H415.75L419.5 201.727ZM415.21 193.091V204H413.534V193.091H415.21ZM423.79 204V193.091H425.466V204H423.79ZM231.412 231.125V226.438H232.321C232.544 226.205 232.736 225.955 232.897 225.685C233.058 225.415 233.197 225.095 233.316 224.726C233.439 224.352 233.543 223.897 233.628 223.362C233.713 222.822 233.789 222.171 233.855 221.409L234.225 217.091H241.157V226.438H242.833V231.125H241.157V228H233.088V231.125H231.412ZM234.225 226.438H239.48V218.653H235.787L235.503 221.409C235.385 222.55 235.238 223.547 235.063 224.399C234.888 225.251 234.608 225.931 234.225 226.438ZM248.268 228.256C247.576 228.256 246.949 228.125 246.386 227.865C245.822 227.6 245.375 227.219 245.043 226.722C244.712 226.22 244.546 225.614 244.546 224.903C244.546 224.278 244.669 223.772 244.915 223.384C245.162 222.991 245.491 222.683 245.903 222.46C246.315 222.238 246.769 222.072 247.266 221.963C247.768 221.849 248.272 221.759 248.779 221.693C249.442 221.608 249.979 221.544 250.391 221.501C250.808 221.454 251.111 221.376 251.3 221.267C251.495 221.158 251.592 220.969 251.592 220.699V220.642C251.592 219.941 251.4 219.397 251.016 219.009C250.638 218.62 250.062 218.426 249.29 218.426C248.49 218.426 247.863 218.601 247.408 218.952C246.954 219.302 246.634 219.676 246.45 220.074L244.859 219.506C245.143 218.843 245.522 218.327 245.995 217.957C246.473 217.583 246.994 217.323 247.558 217.176C248.126 217.025 248.684 216.949 249.234 216.949C249.584 216.949 249.987 216.991 250.441 217.077C250.9 217.157 251.343 217.325 251.769 217.581C252.2 217.837 252.558 218.223 252.842 218.739C253.126 219.255 253.268 219.946 253.268 220.812V228H251.592V226.523H251.506C251.393 226.759 251.203 227.013 250.938 227.283C250.673 227.553 250.32 227.782 249.88 227.972C249.44 228.161 248.902 228.256 248.268 228.256ZM248.523 226.75C249.186 226.75 249.745 226.62 250.2 226.359C250.659 226.099 251.004 225.763 251.237 225.351C251.473 224.939 251.592 224.506 251.592 224.051V222.517C251.521 222.602 251.364 222.68 251.123 222.751C250.886 222.818 250.612 222.877 250.299 222.929C249.991 222.976 249.691 223.019 249.397 223.057C249.108 223.09 248.874 223.118 248.694 223.142C248.258 223.199 247.851 223.291 247.472 223.419C247.098 223.542 246.795 223.729 246.563 223.98C246.336 224.226 246.222 224.562 246.222 224.989C246.222 225.571 246.438 226.011 246.869 226.31C247.304 226.603 247.856 226.75 248.523 226.75ZM255.645 228L260.077 222.46L255.702 217.091H257.691L261.327 221.75H262.236V217.091H263.912V221.75H264.793L268.429 217.091H270.418L266.071 222.46L270.475 228H268.458L264.765 223.312H263.912V228H262.236V223.312H261.384L257.662 228H255.645ZM276.995 228.227C275.944 228.227 275.037 227.995 274.275 227.531C273.517 227.062 272.932 226.409 272.52 225.571C272.113 224.728 271.909 223.748 271.909 222.631C271.909 221.513 272.113 220.528 272.52 219.676C272.932 218.819 273.505 218.152 274.239 217.673C274.978 217.19 275.839 216.949 276.824 216.949C277.392 216.949 277.953 217.044 278.507 217.233C279.061 217.422 279.566 217.73 280.02 218.156C280.475 218.578 280.837 219.136 281.107 219.832C281.377 220.528 281.512 221.385 281.512 222.403V223.114H273.103V221.665H279.807C279.807 221.049 279.684 220.5 279.438 220.017C279.196 219.534 278.851 219.153 278.401 218.874C277.956 218.594 277.43 218.455 276.824 218.455C276.157 218.455 275.579 218.62 275.091 218.952C274.608 219.278 274.237 219.705 273.976 220.23C273.716 220.756 273.586 221.319 273.586 221.92V222.886C273.586 223.71 273.728 224.409 274.012 224.982C274.301 225.55 274.701 225.983 275.212 226.281C275.723 226.575 276.318 226.722 276.995 226.722C277.435 226.722 277.833 226.66 278.188 226.537C278.548 226.409 278.858 226.22 279.118 225.969C279.379 225.713 279.58 225.396 279.722 225.017L281.341 225.472C281.171 226.021 280.884 226.504 280.482 226.92C280.079 227.332 279.582 227.654 278.99 227.886C278.399 228.114 277.733 228.227 276.995 228.227ZM291.675 213.455V228H289.914V213.455H291.675ZM294.411 215.017V213.455H305.32V215.017H300.746V228H298.985V215.017H294.411ZM312.577 219.946V221.509H306.213V219.946H312.577ZM321.492 225.727L325.299 217.091H326.89L322.174 228H320.81L316.18 217.091H317.742L321.492 225.727ZM317.202 217.091V228H315.526V217.091H317.202ZM325.782 228V217.091H327.458V228H325.782ZM333.737 228.256C333.045 228.256 332.418 228.125 331.854 227.865C331.291 227.6 330.844 227.219 330.512 226.722C330.181 226.22 330.015 225.614 330.015 224.903C330.015 224.278 330.138 223.772 330.384 223.384C330.63 222.991 330.96 222.683 331.371 222.46C331.783 222.238 332.238 222.072 332.735 221.963C333.237 221.849 333.741 221.759 334.248 221.693C334.911 221.608 335.448 221.544 335.86 221.501C336.277 221.454 336.58 221.376 336.769 221.267C336.963 221.158 337.06 220.969 337.06 220.699V220.642C337.06 219.941 336.869 219.397 336.485 219.009C336.106 218.62 335.531 218.426 334.759 218.426C333.959 218.426 333.332 218.601 332.877 218.952C332.423 219.302 332.103 219.676 331.918 220.074L330.327 219.506C330.612 218.843 330.99 218.327 331.464 217.957C331.942 217.583 332.463 217.323 333.026 217.176C333.594 217.025 334.153 216.949 334.702 216.949C335.053 216.949 335.455 216.991 335.91 217.077C336.369 217.157 336.812 217.325 337.238 217.581C337.669 217.837 338.026 218.223 338.31 218.739C338.594 219.255 338.737 219.946 338.737 220.812V228H337.06V226.523H336.975C336.862 226.759 336.672 227.013 336.407 227.283C336.142 227.553 335.789 227.782 335.349 227.972C334.908 228.161 334.371 228.256 333.737 228.256ZM333.992 226.75C334.655 226.75 335.214 226.62 335.668 226.359C336.128 226.099 336.473 225.763 336.705 225.351C336.942 224.939 337.06 224.506 337.06 224.051V222.517C336.989 222.602 336.833 222.68 336.592 222.751C336.355 222.818 336.08 222.877 335.768 222.929C335.46 222.976 335.159 223.019 334.866 223.057C334.577 223.09 334.343 223.118 334.163 223.142C333.727 223.199 333.32 223.291 332.941 223.419C332.567 223.542 332.264 223.729 332.032 223.98C331.805 224.226 331.691 224.562 331.691 224.989C331.691 225.571 331.906 226.011 332.337 226.31C332.773 226.603 333.325 226.75 333.992 226.75ZM346.228 231.722V213.455H347.904V231.722H346.228ZM346.228 228.227C345.489 228.227 344.817 228.095 344.211 227.83C343.605 227.56 343.084 227.179 342.648 226.686C342.212 226.189 341.876 225.595 341.64 224.903C341.403 224.212 341.284 223.445 341.284 222.602C341.284 221.75 341.403 220.978 341.64 220.287C341.876 219.591 342.212 218.994 342.648 218.497C343.084 218 343.605 217.619 344.211 217.354C344.817 217.084 345.489 216.949 346.228 216.949H346.739V228.227H346.228ZM346.228 226.722H346.512V218.455H346.228C345.669 218.455 345.184 218.568 344.772 218.795C344.36 219.018 344.019 219.323 343.749 219.712C343.484 220.095 343.285 220.536 343.152 221.033C343.025 221.53 342.961 222.053 342.961 222.602C342.961 223.331 343.077 224.009 343.309 224.634C343.541 225.259 343.898 225.763 344.381 226.146C344.864 226.53 345.48 226.722 346.228 226.722ZM347.904 228.227H347.392V216.949H347.904C348.642 216.949 349.315 217.084 349.921 217.354C350.527 217.619 351.048 218 351.483 218.497C351.919 218.994 352.255 219.591 352.492 220.287C352.729 220.978 352.847 221.75 352.847 222.602C352.847 223.445 352.729 224.212 352.492 224.903C352.255 225.595 351.919 226.189 351.483 226.686C351.048 227.179 350.527 227.56 349.921 227.83C349.315 228.095 348.642 228.227 347.904 228.227ZM347.904 226.722C348.467 226.722 348.953 226.613 349.36 226.395C349.772 226.172 350.11 225.869 350.375 225.486C350.645 225.098 350.844 224.657 350.972 224.165C351.105 223.668 351.171 223.147 351.171 222.602C351.171 221.873 351.055 221.194 350.823 220.564C350.591 219.934 350.233 219.425 349.75 219.037C349.267 218.649 348.652 218.455 347.904 218.455H347.62V226.722H347.904ZM357.085 225.528L362.341 217.091H364.273V228H362.597V219.562L357.369 228H355.409V217.091H357.085V225.528ZM373.905 228V218.625H371.007C370.354 218.625 369.84 218.777 369.466 219.08C369.092 219.383 368.905 219.799 368.905 220.33C368.905 220.85 369.073 221.26 369.409 221.558C369.75 221.857 370.217 222.006 370.809 222.006H374.331V223.568H370.809C370.07 223.568 369.433 223.438 368.898 223.178C368.363 222.917 367.951 222.545 367.662 222.062C367.373 221.575 367.229 220.997 367.229 220.33C367.229 219.657 367.381 219.08 367.684 218.597C367.987 218.114 368.42 217.742 368.983 217.482C369.551 217.221 370.226 217.091 371.007 217.091H375.496V228H373.905ZM366.632 228L369.729 222.574H371.547L368.451 228H366.632ZM388.772 228.227C387.721 228.227 386.814 227.995 386.052 227.531C385.294 227.062 384.71 226.409 384.298 225.571C383.89 224.728 383.687 223.748 383.687 222.631C383.687 221.513 383.89 220.528 384.298 219.676C384.71 218.819 385.282 218.152 386.016 217.673C386.755 217.19 387.617 216.949 388.602 216.949C389.17 216.949 389.731 217.044 390.285 217.233C390.839 217.422 391.343 217.73 391.798 218.156C392.252 218.578 392.614 219.136 392.884 219.832C393.154 220.528 393.289 221.385 393.289 222.403V223.114H384.88V221.665H391.585C391.585 221.049 391.461 220.5 391.215 220.017C390.974 219.534 390.628 219.153 390.178 218.874C389.733 218.594 389.208 218.455 388.602 218.455C387.934 218.455 387.356 218.62 386.869 218.952C386.386 219.278 386.014 219.705 385.754 220.23C385.493 220.756 385.363 221.319 385.363 221.92V222.886C385.363 223.71 385.505 224.409 385.789 224.982C386.078 225.55 386.478 225.983 386.989 226.281C387.501 226.575 388.095 226.722 388.772 226.722C389.212 226.722 389.61 226.66 389.965 226.537C390.325 226.409 390.635 226.22 390.896 225.969C391.156 225.713 391.357 225.396 391.499 225.017L393.119 225.472C392.948 226.021 392.662 226.504 392.259 226.92C391.857 227.332 391.36 227.654 390.768 227.886C390.176 228.114 389.511 228.227 388.772 228.227ZM400.271 228.227C399.248 228.227 398.367 227.986 397.629 227.503C396.89 227.02 396.322 226.355 395.924 225.507C395.526 224.66 395.327 223.691 395.327 222.602C395.327 221.494 395.531 220.517 395.938 219.669C396.35 218.817 396.923 218.152 397.657 217.673C398.396 217.19 399.257 216.949 400.242 216.949C401.009 216.949 401.701 217.091 402.316 217.375C402.932 217.659 403.436 218.057 403.829 218.568C404.222 219.08 404.466 219.676 404.56 220.358H402.884C402.756 219.861 402.472 219.42 402.032 219.037C401.596 218.649 401.009 218.455 400.271 218.455C399.617 218.455 399.044 218.625 398.552 218.966C398.064 219.302 397.683 219.778 397.408 220.393C397.138 221.004 397.004 221.722 397.004 222.545C397.004 223.388 397.136 224.122 397.401 224.747C397.671 225.372 398.05 225.857 398.538 226.203C399.03 226.549 399.608 226.722 400.271 226.722C400.706 226.722 401.102 226.646 401.457 226.494C401.812 226.343 402.112 226.125 402.359 225.841C402.605 225.557 402.78 225.216 402.884 224.818H404.56C404.466 225.462 404.231 226.042 403.857 226.558C403.488 227.07 402.998 227.477 402.387 227.78C401.781 228.078 401.076 228.227 400.271 228.227ZM406.151 218.653V217.091H415.015V218.653H411.435V228H409.759V218.653H406.151ZM418.909 221.04H422.034C423.312 221.04 424.29 221.364 424.967 222.013C425.644 222.661 425.983 223.483 425.983 224.477C425.983 225.131 425.831 225.725 425.528 226.26C425.225 226.79 424.78 227.214 424.193 227.531C423.606 227.844 422.886 228 422.034 228H417.46V217.091H419.136V226.438H422.034C422.697 226.438 423.241 226.262 423.667 225.912C424.093 225.562 424.306 225.112 424.306 224.562C424.306 223.985 424.093 223.514 423.667 223.149C423.241 222.785 422.697 222.602 422.034 222.602H418.909V221.04Z" fill="black"/>
<path d="M444.487 220.041V230H443.281V221.305H443.223L440.791 222.92V221.694L443.281 220.041H444.487ZM450.248 219.905C450.657 219.908 451.065 219.986 451.474 220.138C451.882 220.29 452.255 220.543 452.592 220.897C452.929 221.247 453.2 221.725 453.404 222.331C453.609 222.937 453.711 223.698 453.711 224.612C453.711 225.497 453.626 226.283 453.458 226.97C453.292 227.654 453.053 228.232 452.738 228.702C452.427 229.172 452.048 229.528 451.6 229.771C451.156 230.015 450.654 230.136 450.093 230.136C449.535 230.136 449.037 230.026 448.6 229.805C448.165 229.582 447.809 229.272 447.53 228.877C447.254 228.478 447.078 228.016 447 227.491H448.186C448.293 227.948 448.506 228.326 448.823 228.624C449.144 228.919 449.567 229.066 450.093 229.066C450.861 229.066 451.467 228.731 451.911 228.06C452.359 227.389 452.582 226.44 452.582 225.215H452.505C452.323 225.487 452.108 225.722 451.858 225.92C451.608 226.118 451.331 226.27 451.026 226.377C450.722 226.484 450.397 226.538 450.054 226.538C449.483 226.538 448.96 226.397 448.483 226.115C448.01 225.829 447.63 225.439 447.345 224.943C447.063 224.443 446.922 223.873 446.922 223.231C446.922 222.621 447.058 222.064 447.331 221.558C447.606 221.049 447.992 220.644 448.488 220.342C448.987 220.041 449.574 219.895 450.248 219.905ZM450.248 220.974C449.84 220.974 449.472 221.077 449.144 221.281C448.82 221.482 448.562 221.754 448.371 222.098C448.183 222.438 448.089 222.816 448.089 223.231C448.089 223.646 448.18 224.023 448.361 224.364C448.546 224.701 448.798 224.97 449.115 225.171C449.436 225.369 449.801 225.468 450.209 225.468C450.517 225.468 450.804 225.408 451.07 225.288C451.336 225.165 451.568 224.998 451.766 224.787C451.967 224.573 452.124 224.331 452.237 224.062C452.351 223.79 452.407 223.506 452.407 223.211C452.407 222.822 452.313 222.458 452.125 222.117C451.941 221.777 451.684 221.501 451.357 221.291C451.033 221.08 450.663 220.974 450.248 220.974ZM456.205 228.726C455.965 228.726 455.759 228.64 455.587 228.468C455.416 228.296 455.33 228.091 455.33 227.851C455.33 227.611 455.416 227.405 455.587 227.233C455.759 227.061 455.965 226.975 456.205 226.975C456.445 226.975 456.651 227.061 456.823 227.233C456.994 227.405 457.08 227.611 457.08 227.851C457.08 228.009 457.04 228.155 456.959 228.288C456.881 228.421 456.776 228.528 456.643 228.609C456.513 228.687 456.367 228.726 456.205 228.726ZM456.205 223.688C455.965 223.688 455.759 223.602 455.587 223.43C455.416 223.258 455.33 223.053 455.33 222.813C455.33 222.573 455.416 222.367 455.587 222.195C455.759 222.023 455.965 221.937 456.205 221.937C456.445 221.937 456.651 222.023 456.823 222.195C456.994 222.367 457.08 222.573 457.08 222.813C457.08 222.971 457.04 223.117 456.959 223.25C456.881 223.383 456.776 223.49 456.643 223.571C456.513 223.649 456.367 223.688 456.205 223.688ZM462.095 230.136C461.362 230.136 460.738 229.937 460.223 229.538C459.707 229.136 459.313 228.554 459.041 227.792C458.769 227.027 458.632 226.103 458.632 225.02C458.632 223.944 458.769 223.025 459.041 222.263C459.317 221.498 459.712 220.914 460.227 220.512C460.746 220.107 461.369 219.905 462.095 219.905C462.821 219.905 463.442 220.107 463.957 220.512C464.476 220.914 464.872 221.498 465.144 222.263C465.419 223.025 465.557 223.944 465.557 225.02C465.557 226.103 465.421 227.027 465.149 227.792C464.876 228.554 464.483 229.136 463.967 229.538C463.452 229.937 462.828 230.136 462.095 230.136ZM462.095 229.066C462.821 229.066 463.385 228.716 463.787 228.016C464.189 227.316 464.39 226.317 464.39 225.02C464.39 224.158 464.298 223.424 464.113 222.817C463.931 222.211 463.669 221.749 463.325 221.432C462.985 221.114 462.575 220.955 462.095 220.955C461.375 220.955 460.813 221.31 460.407 222.02C460.002 222.727 459.8 223.727 459.8 225.02C459.8 225.883 459.89 226.615 460.072 227.218C460.253 227.821 460.514 228.28 460.855 228.595C461.198 228.909 461.612 229.066 462.095 229.066ZM467.175 230L471.629 221.188V221.111H466.494V220.041H472.874V221.169L468.439 230H467.175Z" fill="#421DFF"/>
<path fill-rule="evenodd" clip-rule="evenodd" d="M492.933 221.104C493.161 221.324 493.167 221.686 492.947 221.913L484.039 231.14C483.929 231.254 483.775 231.317 483.616 231.314C483.457 231.311 483.306 231.242 483.2 231.123L479.224 226.669C479.013 226.433 479.033 226.071 479.269 225.861C479.505 225.65 479.867 225.671 480.077 225.907L483.644 229.901L492.124 221.118C492.343 220.891 492.706 220.884 492.933 221.104Z" fill="#421DFF"/>
<path fill-rule="evenodd" clip-rule="evenodd" d="M495.81 221.161C496.037 221.38 496.044 221.743 495.824 221.97L486.916 231.196C486.806 231.311 486.652 231.374 486.493 231.371C486.334 231.368 486.183 231.299 486.077 231.18L482.1 226.726C481.89 226.49 481.91 226.128 482.146 225.918C482.382 225.707 482.744 225.728 482.954 225.963L486.521 229.958L495.001 221.175C495.22 220.947 495.583 220.941 495.81 221.161Z" fill="#421DFF"/>
</svg>
