<svg width="64" height="64" viewBox="0 0 64 64" fill="none" xmlns="http://www.w3.org/2000/svg">
<path d="M53.4867 30.7139C53.4711 31.5251 53.3947 32.3026 53.2619 33.0469L49.3828 32.9719C49.5873 32.2443 49.699 31.4675 49.715 30.641C49.7483 28.919 49.3645 27.3784 48.5639 26.0193C47.797 24.6952 46.6979 23.64 45.266 22.8544C43.8342 22.0687 42.1194 21.6566 40.122 21.618C38.1588 21.58 36.4286 21.9255 34.933 22.6546C33.4719 23.3843 32.3154 24.396 31.4635 25.6887C30.6455 27.0165 30.2197 28.5415 30.1864 30.2635C30.1704 31.09 30.2482 31.8705 30.4166 32.6053L26.5491 32.5305C26.4453 31.7816 26.4 31.0017 26.4156 30.1906C26.4636 27.7109 27.0744 25.5173 28.2482 23.6105C29.4214 21.7384 31.0349 20.2709 33.0881 19.2081C35.1408 18.1798 37.5105 17.6918 40.1969 17.7437C42.8831 17.7957 45.2324 18.3749 47.2437 19.4818C49.2541 20.6231 50.809 22.152 51.9088 24.0679C53.0081 26.0186 53.5347 28.2342 53.4867 30.7139Z" fill="#0F0F0F"/>
<path d="M11.9887 33.4181C12.0326 32.608 12.1351 31.8336 12.2937 31.0943L16.1679 31.3046C15.9381 32.0246 15.7994 32.797 15.7546 33.6225C15.6613 35.3423 15.9911 36.8953 16.7438 38.2816C17.464 39.6315 18.5257 40.7245 19.9292 41.5596C21.3327 42.3947 23.0321 42.8664 25.027 42.9747C26.9877 43.0811 28.7289 42.7962 30.249 42.1197C31.7346 41.4414 32.9258 40.4707 33.8222 39.2085C34.686 37.91 35.1648 36.4007 35.2581 34.681C35.3029 33.8555 35.2524 33.0729 35.1098 32.3326L38.9723 32.5422C39.0499 33.2943 39.068 34.0753 39.0241 34.8854C38.8896 37.362 38.2027 39.5329 36.963 41.3975C35.7253 43.2277 34.0616 44.6379 31.9725 45.6284C29.8853 46.5845 27.4999 46.9896 24.817 46.844C22.1342 46.6983 19.8066 46.0375 17.8351 44.8611C15.8657 43.6504 14.3651 42.0682 13.3328 40.115C12.3022 38.1272 11.8542 35.8947 11.9887 33.4181Z" fill="#0F0F0F"/>
</svg>
