<svg width="1342" height="468" viewBox="0 0 1342 468" fill="none" xmlns="http://www.w3.org/2000/svg">
<g clip-path="url(#clip0_1393_7883)">
<rect x="1041.64" y="48.8245" width="477.415" height="138.684" rx="15.6667" transform="rotate(-2.50938 1041.64 48.8245)" stroke="#F2F2F2" stroke-width="1.22729"/>
<path d="M1073.67 84.5218C1072.41 84.5772 1071.32 84.3428 1070.4 83.8185C1069.48 83.2942 1068.77 82.5356 1068.26 81.5428C1067.76 80.544 1067.47 79.3762 1067.42 78.0395C1067.36 76.7028 1067.54 75.5178 1067.95 74.4846C1068.37 73.4453 1069.01 72.6244 1069.88 72.0218C1070.75 71.4192 1071.82 71.0902 1073.08 71.0347C1074.35 70.9793 1075.44 71.2138 1076.36 71.7381C1077.28 72.2621 1077.99 73.0236 1078.5 74.0224C1079.01 75.0152 1079.29 76.1799 1079.35 77.5166C1079.41 78.8533 1079.23 80.0413 1078.81 81.0806C1078.39 82.1138 1077.75 82.9319 1076.87 83.5348C1076 84.1374 1074.94 84.4664 1073.67 84.5218ZM1073.64 83.2532C1074.62 83.2099 1075.45 82.9456 1076.1 82.4603C1076.77 81.9688 1077.25 81.305 1077.56 80.4688C1077.86 79.6326 1077.99 78.6691 1077.94 77.5781C1077.9 76.4812 1077.68 75.5297 1077.3 74.7237C1076.91 73.9117 1076.37 73.2961 1075.66 72.8767C1074.95 72.4511 1074.11 72.26 1073.12 72.3033C1072.12 72.3469 1071.3 72.6175 1070.63 73.115C1069.98 73.6062 1069.5 74.2758 1069.2 75.1237C1068.9 75.9716 1068.77 76.95 1068.82 78.059C1068.87 79.1439 1069.08 80.0834 1069.47 80.8774C1069.85 81.6714 1070.39 82.2782 1071.1 82.6978C1071.81 83.1112 1072.65 83.2963 1073.64 83.2532ZM1085.41 73.7376C1086.27 73.6998 1087.03 73.8886 1087.7 74.3041C1088.36 74.7193 1088.88 75.309 1089.26 76.0733C1089.63 76.8316 1089.84 77.6962 1089.89 78.6673C1089.93 79.6444 1089.8 80.53 1089.49 81.3242C1089.18 82.1185 1088.71 82.7517 1088.08 83.2239C1087.45 83.6958 1086.69 83.9512 1085.8 83.9901C1085.16 84.0182 1084.58 83.9207 1084.05 83.6975C1083.53 83.4681 1083.08 83.1335 1082.7 82.6937L1082.94 88.1694L1081.61 88.2278L1081 74.2012L1082.18 74.1492L1082.24 75.4889C1082.59 74.9574 1083.02 74.5418 1083.56 74.2422C1084.09 73.9365 1084.71 73.7683 1085.41 73.7376ZM1085.62 82.7642C1086.27 82.7356 1086.82 82.5434 1087.26 82.1878C1087.7 81.8322 1088.02 81.3556 1088.22 80.7582C1088.43 80.1545 1088.52 79.4781 1088.48 78.7288C1088.45 77.9795 1088.31 77.3191 1088.05 76.7477C1087.81 76.17 1087.44 75.7234 1086.97 75.4079C1086.49 75.0925 1085.92 74.9495 1085.25 74.9789C1084.59 75.0078 1084.04 75.194 1083.6 75.5377C1083.16 75.8811 1082.84 76.3515 1082.64 76.9489C1082.44 77.5401 1082.36 78.2223 1082.4 78.9955C1082.43 79.7628 1082.57 80.4353 1082.82 81.013C1083.07 81.5845 1083.43 82.0281 1083.9 82.3438C1084.37 82.6535 1084.94 82.7936 1085.62 82.7642ZM1099.09 75.0841C1099.3 75.5432 1099.42 76.2074 1099.46 77.0766L1099.73 83.1098L1098.55 83.1614L1098.48 81.5519C1098.13 82.1859 1097.64 82.6755 1097.03 83.0208C1096.41 83.3661 1095.69 83.5568 1094.86 83.5931C1094.16 83.6241 1093.55 83.5217 1093.03 83.2861C1092.52 83.0501 1092.13 82.7189 1091.86 82.2923C1091.59 81.8658 1091.44 81.3887 1091.42 80.8613C1091.39 80.106 1091.58 79.488 1092 79.0072C1092.41 78.5265 1093 78.1673 1093.77 77.9296C1094.24 77.795 1094.76 77.6699 1095.34 77.5545C1095.92 77.4389 1096.59 77.3133 1097.36 77.1778L1098.16 77.0344C1098.11 76.1418 1097.87 75.4946 1097.45 75.0929C1097.03 74.6909 1096.36 74.5097 1095.46 74.5494C1094.78 74.5793 1094.21 74.7571 1093.77 75.0828C1093.33 75.4082 1093.04 75.8926 1092.89 76.5358L1091.59 76.2145C1091.78 75.3294 1092.2 74.6353 1092.85 74.1324C1093.5 73.6232 1094.36 73.3453 1095.42 73.2988C1096.31 73.2599 1097.07 73.3948 1097.7 73.7034C1098.34 74.0118 1098.8 74.472 1099.09 75.0841ZM1094.97 82.4445C1095.57 82.4182 1096.09 82.2869 1096.55 82.0507C1097.01 81.8084 1097.37 81.4893 1097.64 81.0933C1097.91 80.691 1098.07 80.2423 1098.14 79.7471C1098.2 79.3718 1098.22 78.8544 1098.19 78.1951C1097.96 78.2293 1097.8 78.2576 1097.69 78.2801C1096.88 78.4117 1096.22 78.5277 1095.72 78.6279C1095.21 78.7222 1094.75 78.8353 1094.35 78.9673C1093.24 79.3461 1092.7 79.9581 1092.74 80.8033C1092.75 81.103 1092.84 81.3816 1092.99 81.6391C1093.16 81.8962 1093.4 82.1017 1093.73 82.2553C1094.06 82.403 1094.48 82.466 1094.97 82.4445ZM1106.11 83.1004C1105.15 83.1424 1104.32 82.9626 1103.61 82.561C1102.92 82.1591 1102.37 81.5794 1101.98 80.8219C1101.59 80.0641 1101.37 79.182 1101.31 78.1755C1101.28 77.15 1101.43 76.2457 1101.75 75.4626C1102.08 74.6736 1102.57 74.0513 1103.24 73.5958C1103.9 73.1403 1104.71 72.8916 1105.67 72.8498C1106.31 72.8215 1106.92 72.9031 1107.48 73.0947C1108.04 73.2864 1108.52 73.5774 1108.93 73.968C1109.34 74.3525 1109.64 74.8166 1109.85 75.3602L1108.57 75.8305C1108.32 75.265 1107.94 74.8314 1107.42 74.5295C1106.92 74.2273 1106.35 74.0902 1105.71 74.118C1104.68 74.1635 1103.91 74.5456 1103.4 75.2643C1102.91 75.9827 1102.68 76.9326 1102.72 78.114C1102.78 79.3064 1103.1 80.2354 1103.67 80.9011C1104.24 81.5668 1105.03 81.8773 1106.05 81.8326C1106.71 81.8037 1107.26 81.6293 1107.71 81.3094C1108.17 80.9832 1108.5 80.5241 1108.71 79.9321L1110.06 80.2694C1109.74 81.1486 1109.23 81.8313 1108.56 82.3173C1107.88 82.7973 1107.07 83.0584 1106.11 83.1004ZM1113.26 82.5166L1111.94 82.5745L1111.51 72.8638L1112.84 72.8059L1113.26 82.5166ZM1112.1 71.1626C1111.84 71.1739 1111.62 71.0966 1111.43 70.9307C1111.25 70.7644 1111.15 70.5525 1111.14 70.2947C1111.13 70.031 1111.21 69.8084 1111.37 69.6269C1111.54 69.4452 1111.76 69.3487 1112.02 69.3374C1112.28 69.3258 1112.5 69.4062 1112.69 69.5784C1112.87 69.7443 1112.97 69.9562 1112.98 70.2139C1112.99 70.4717 1112.91 70.6914 1112.74 70.8731C1112.58 71.0546 1112.36 71.1511 1112.1 71.1626ZM1117.89 73.7194L1118.11 78.7276L1118.13 79.2581C1118.15 79.5578 1118.17 79.8 1118.2 79.9848C1118.23 80.1636 1118.3 80.3231 1118.39 80.4632C1118.54 80.7327 1118.76 80.9214 1119.03 81.0295C1119.31 81.1375 1119.65 81.1826 1120.06 81.1648C1120.4 81.1498 1120.78 81.0972 1121.19 81.0068L1121.24 82.1667C1120.77 82.2836 1120.32 82.3512 1119.91 82.3693C1119.29 82.3964 1118.75 82.3151 1118.28 82.1255C1117.81 81.936 1117.45 81.6212 1117.21 81.1814C1117.07 80.9292 1116.98 80.6691 1116.92 80.4012C1116.88 80.133 1116.84 79.7981 1116.83 79.3965L1116.8 78.8391L1116.58 73.7769L1114.5 73.8679L1114.45 72.735L1116.53 72.644L1116.41 69.9466L1117.72 69.8891L1117.84 72.5865L1120.82 72.456L1120.87 73.589L1117.89 73.7194ZM1126.45 80.2089L1129.04 72.0957L1130.39 72.0366L1125.79 86.2917L1124.47 86.3496L1125.88 81.9366L1121.51 72.4259L1122.91 72.3644L1126.45 80.2089Z" fill="black"/>
<path d="M1250.54 155.122L1249.21 155.18L1249.1 152.672L1243.04 152.937L1242.99 151.678L1246.92 142.308L1248.4 142.243L1244.47 151.613L1249.05 151.413L1248.88 147.636L1250.21 147.578L1250.38 151.355L1251.79 151.293L1251.85 152.551L1250.43 152.613L1250.54 155.122ZM1257.43 146.767C1258.2 146.727 1258.89 146.867 1259.51 147.189C1260.12 147.504 1260.61 147.966 1260.97 148.575C1261.32 149.184 1261.52 149.887 1261.55 150.685C1261.59 151.5 1261.44 152.236 1261.12 152.893C1260.79 153.544 1260.32 154.063 1259.71 154.45C1259.1 154.831 1258.4 155.039 1257.61 155.073C1256.98 155.101 1256.38 155.013 1255.82 154.809C1255.27 154.605 1254.8 154.299 1254.39 153.89C1253.98 153.482 1253.67 152.991 1253.47 152.417L1254.71 151.984C1254.95 152.593 1255.31 153.054 1255.8 153.369C1256.29 153.684 1256.85 153.828 1257.46 153.801C1258.05 153.775 1258.54 153.633 1258.96 153.375C1259.38 153.11 1259.69 152.751 1259.9 152.297C1260.12 151.844 1260.21 151.326 1260.19 150.745C1260.16 150.163 1260.02 149.656 1259.77 149.222C1259.52 148.789 1259.17 148.462 1258.73 148.241C1258.3 148.013 1257.81 147.912 1257.26 147.936C1257.03 147.946 1256.79 147.99 1256.53 148.067C1256.27 148.144 1256.04 148.242 1255.82 148.359L1255.11 147.337L1259.38 143.032L1253.58 143.287L1253.53 142.019L1261.01 141.691L1261.06 142.977L1257.43 146.767ZM1266.82 147.652C1266.23 147.678 1265.68 147.558 1265.17 147.292C1264.67 147.026 1264.26 146.65 1263.94 146.166C1263.64 145.681 1263.47 145.144 1263.44 144.557C1263.42 143.982 1263.54 143.439 1263.81 142.928C1264.09 142.418 1264.47 142.005 1264.96 141.689C1265.44 141.373 1265.97 141.203 1266.54 141.178C1267.12 141.153 1267.67 141.273 1268.17 141.539C1268.68 141.805 1269.09 142.18 1269.4 142.665C1269.72 143.15 1269.89 143.686 1269.92 144.273C1269.94 144.861 1269.82 145.41 1269.55 145.92C1269.28 146.43 1268.91 146.84 1268.42 147.15C1267.94 147.459 1267.41 147.626 1266.82 147.652ZM1276.87 141.888L1265.32 154.474L1264.38 153.615L1275.93 141.037L1276.87 141.888ZM1266.77 146.456C1267.13 146.44 1267.46 146.333 1267.76 146.133C1268.07 145.934 1268.31 145.674 1268.49 145.354C1268.66 145.028 1268.74 144.685 1268.72 144.326C1268.7 143.966 1268.6 143.634 1268.4 143.331C1268.2 143.021 1267.93 142.781 1267.61 142.609C1267.29 142.437 1266.95 142.358 1266.59 142.374C1266.23 142.39 1265.9 142.498 1265.59 142.697C1265.28 142.897 1265.04 143.16 1264.87 143.485C1264.7 143.805 1264.62 144.145 1264.64 144.505C1264.65 144.864 1264.76 145.199 1264.96 145.508C1265.16 145.812 1265.42 146.05 1265.74 146.222C1266.07 146.394 1266.41 146.472 1266.77 146.456ZM1274.71 154.333C1274.12 154.359 1273.57 154.239 1273.06 153.973C1272.56 153.707 1272.15 153.331 1271.83 152.847C1271.52 152.362 1271.35 151.826 1271.33 151.238C1271.3 150.663 1271.43 150.12 1271.7 149.609C1271.98 149.099 1272.36 148.686 1272.84 148.37C1273.33 148.055 1273.85 147.884 1274.42 147.859C1275.01 147.834 1275.56 147.954 1276.06 148.22C1276.57 148.486 1276.98 148.861 1277.29 149.346C1277.61 149.831 1277.78 150.367 1277.8 150.954C1277.83 151.542 1277.71 152.091 1277.43 152.601C1277.17 153.111 1276.79 153.521 1276.31 153.831C1275.83 154.14 1275.3 154.307 1274.71 154.333ZM1274.66 153.137C1275.02 153.122 1275.35 153.014 1275.65 152.814C1275.96 152.615 1276.2 152.355 1276.37 152.035C1276.54 151.709 1276.62 151.366 1276.61 151.007C1276.59 150.647 1276.48 150.316 1276.28 150.012C1276.08 149.702 1275.82 149.462 1275.5 149.29C1275.18 149.118 1274.84 149.039 1274.48 149.055C1274.11 149.071 1273.77 149.179 1273.46 149.379C1273.16 149.578 1272.92 149.841 1272.75 150.167C1272.58 150.487 1272.5 150.826 1272.52 151.186C1272.53 151.546 1272.64 151.88 1272.84 152.19C1273.04 152.493 1273.3 152.731 1273.62 152.903C1273.94 153.075 1274.29 153.153 1274.66 153.137Z" fill="black"/>
<rect x="1068.15" y="107.243" width="429.551" height="28.2276" rx="14.1138" transform="rotate(-2.50938 1068.15 107.243)" fill="#F2F2F2"/>
<rect x="1068.15" y="107.243" width="204.957" height="28.2276" rx="14.1138" transform="rotate(-2.50938 1068.15 107.243)" fill="#FFA3D6"/>
<rect x="1244.71" y="99.5049" width="28.2276" height="28.2276" rx="14.1138" transform="rotate(-2.50938 1244.71 99.5049)" fill="white"/>
<rect x="1251.12" y="105.367" width="15.9548" height="15.9548" rx="7.97738" transform="rotate(-2.50938 1251.12 105.367)" fill="#FFA3D6"/>
<rect x="62.5586" y="33.2822" width="285.041" height="44.6659" rx="5.2819" transform="rotate(2 62.5586 33.2822)" fill="#F2F2F2"/>
<path d="M76.7103 53.4005L86.6685 44.1144C87.4358 43.3988 88.6308 44.2557 88.1992 45.212L84.2436 53.9788C83.9626 54.6014 84.403 55.3101 85.0857 55.3339L87.545 55.4198C88.3689 55.4486 88.7762 56.4336 88.2132 57.0359L78.1521 67.7987C77.418 68.584 76.1451 67.7548 76.5667 66.7659L80.9454 56.4965C81.2099 55.876 80.7694 55.1832 80.0952 55.1596L77.3319 55.0632C76.4766 55.0333 76.0843 53.9842 76.7103 53.4005Z" fill="black"/>
<path d="M105.622 63.6364L106.074 50.6843L110.067 50.8238C110.751 50.8476 111.296 50.8937 111.702 50.9619C112.669 51.1217 113.484 51.5104 114.146 52.1279C114.809 52.7394 115.299 53.513 115.614 54.4485C115.93 55.3781 116.068 56.4006 116.029 57.5159C115.99 58.6372 115.781 59.6535 115.401 60.5648C115.021 61.4701 114.479 62.2046 113.775 62.7684C113.071 63.3322 112.231 63.6601 111.255 63.7521C110.851 63.792 110.305 63.7999 109.615 63.7759L105.622 63.6364ZM109.668 62.2468C110.328 62.2698 110.83 62.2543 111.174 62.2003C112.188 62.0496 112.956 61.5421 113.479 60.6778C114.001 59.8135 114.285 58.7398 114.33 57.4565C114.375 56.1613 114.164 55.0673 113.697 54.1745C113.236 53.2758 112.508 52.7191 111.513 52.5042C111.173 52.4263 110.674 52.3759 110.014 52.3528L107.666 52.2708L107.321 62.1648L109.668 62.2468ZM119.198 59.6978C119.229 60.7135 119.486 61.503 119.971 62.0662C120.462 62.6297 121.154 62.927 122.047 62.9582C122.683 62.9804 123.243 62.8529 123.727 62.5756C124.217 62.2985 124.606 61.8889 124.895 61.3466L126.415 61.931C126.007 62.7693 125.417 63.4121 124.645 63.8595C123.873 64.3068 123.013 64.5139 122.066 64.4808C121.119 64.4477 120.292 64.2088 119.588 63.7639C118.889 63.3192 118.355 62.7062 117.986 61.9249C117.623 61.1437 117.459 60.2525 117.494 59.2511C117.53 58.2017 117.754 57.294 118.165 56.5278C118.582 55.7559 119.149 55.1724 119.865 54.7771C120.588 54.3761 121.417 54.1919 122.352 54.2246C123.282 54.257 124.075 54.4948 124.732 54.938C125.395 55.3754 125.893 55.9902 126.225 56.7823C126.558 57.5684 126.706 58.4951 126.668 59.5624C126.662 59.7363 126.655 59.8682 126.646 59.9579L119.198 59.6978ZM122.356 55.6656C121.486 55.6352 120.791 55.8541 120.271 56.3222C119.75 56.7903 119.416 57.4871 119.27 58.4125L125.027 58.6136C124.895 56.7058 124.005 55.7232 122.356 55.6656ZM132.155 64.8241C131.387 64.7973 130.711 64.6596 130.125 64.411C129.539 64.1624 129.068 63.8158 128.712 63.3711C128.355 62.9264 128.133 62.3993 128.046 61.7899L129.692 61.5862C129.806 62.1245 130.094 62.5548 130.557 62.8772C131.02 63.1995 131.602 63.373 132.304 63.3975C132.963 63.4205 133.487 63.3037 133.874 63.047C134.267 62.7846 134.473 62.4135 134.489 61.9338C134.499 61.646 134.441 61.4188 134.315 61.2523C134.195 61.086 133.951 60.9244 133.584 60.7675C133.218 60.6047 132.625 60.3978 131.805 60.1471C130.944 59.8828 130.274 59.6223 129.797 59.3655C129.32 59.1027 128.982 58.8087 128.783 58.4836C128.584 58.1585 128.493 57.759 128.51 57.2853C128.53 56.7217 128.703 56.2324 129.029 55.8176C129.356 55.3967 129.806 55.0792 130.377 54.865C130.949 54.6449 131.604 54.5477 132.342 54.5734C133.073 54.599 133.726 54.7418 134.299 55.002C134.879 55.2564 135.338 55.6056 135.676 56.0497C136.021 56.488 136.217 56.9901 136.263 57.5561L134.616 57.7957C134.556 57.2653 134.307 56.8394 133.868 56.5178C133.435 56.1965 132.871 56.0237 132.175 55.9995C131.779 55.9856 131.426 56.0303 131.117 56.1336C130.813 56.2311 130.574 56.3788 130.399 56.5768C130.224 56.7688 130.132 56.9968 130.123 57.2606C130.114 57.5064 130.179 57.7128 130.317 57.8798C130.461 58.0469 130.726 58.2122 131.11 58.3757C131.495 58.5333 132.074 58.7246 132.846 58.9497C133.708 59.2019 134.377 59.4624 134.854 59.7312C135.331 60 135.669 60.309 135.867 60.6581C136.071 61.0075 136.164 61.437 136.146 61.9467C136.124 62.5703 135.949 63.1045 135.622 63.5493C135.294 63.9882 134.835 64.3174 134.245 64.5369C133.655 64.7564 132.958 64.8522 132.155 64.8241ZM139.814 64.8304L138.213 64.7745L138.553 55.0605L140.154 55.1164L139.814 64.8304ZM139.405 53.5863C139.112 53.5761 138.866 53.4684 138.669 53.2634C138.479 53.0526 138.388 52.8003 138.399 52.5065C138.409 52.2127 138.516 51.9703 138.721 51.7793C138.932 51.5826 139.185 51.4893 139.478 51.4996C139.778 51.5101 140.023 51.6207 140.214 51.8315C140.411 52.0365 140.505 52.2859 140.494 52.5797C140.484 52.8735 140.373 53.1188 140.162 53.3156C139.958 53.5065 139.705 53.5968 139.405 53.5863ZM149.706 55.4499L151.127 55.4996L150.786 65.2766C150.766 65.8583 150.709 66.3546 150.617 66.7656C150.396 67.7725 149.913 68.5151 149.17 68.9935C148.427 69.4718 147.465 69.6904 146.284 69.6491C145.486 69.6213 144.749 69.4124 144.072 69.0226C143.401 68.6389 142.883 68.0925 142.517 67.3833L144.01 66.661C144.222 67.1247 144.537 67.4749 144.955 67.7116C145.379 67.9546 145.843 68.0848 146.347 68.1024C148.181 68.1665 149.125 67.1998 149.176 65.2024L149.209 64.267C148.842 64.6264 148.416 64.8997 147.929 65.0868C147.442 65.2679 146.905 65.3482 146.317 65.3277C145.43 65.2967 144.664 65.0478 144.02 64.5811C143.382 64.1085 142.9 63.4793 142.573 62.6934C142.252 61.9017 142.109 61.0172 142.143 60.0398C142.177 59.0684 142.382 58.202 142.756 57.4406C143.137 56.6734 143.663 56.0794 144.332 55.6585C145.007 55.2378 145.785 55.0429 146.666 55.0736C147.314 55.0962 147.889 55.2334 148.39 55.485C148.892 55.7367 149.318 56.0878 149.668 56.5383L149.706 55.4499ZM146.566 63.8685C147.508 63.9014 148.227 63.5933 148.724 62.9442C149.227 62.2954 149.498 61.4133 149.537 60.298C149.576 59.1827 149.37 58.2869 148.919 57.6108C148.469 56.9347 147.785 56.5806 146.867 56.5485C146.231 56.5263 145.689 56.6665 145.24 56.969C144.798 57.2717 144.459 57.6952 144.223 58.2393C143.995 58.7776 143.868 59.3976 143.843 60.0992C143.819 60.8067 143.902 61.44 144.092 61.999C144.289 62.5582 144.594 63.0042 145.009 63.3368C145.43 63.6697 145.949 63.8469 146.566 63.8685ZM158.316 55.4984C159.287 55.5324 160.052 55.7992 160.611 56.299C161.17 56.7989 161.551 57.4005 161.755 58.1041C161.959 58.8016 162.048 59.5101 162.023 60.2297L161.835 65.5994L160.216 65.5429L160.386 60.6769C160.423 59.6335 160.249 58.7689 159.864 58.0831C159.486 57.3974 158.823 57.0381 157.876 57.005C157.048 56.9761 156.385 57.2351 155.885 57.782C155.392 58.3231 155.127 59.1424 155.088 60.2397L154.91 65.3576L153.291 65.301L153.63 55.587L155.069 55.6372L155.025 56.8875C155.408 56.4145 155.877 56.0587 156.431 55.8199C156.992 55.5813 157.62 55.4742 158.316 55.4984ZM175.564 66.0789L167.955 65.8131L168.407 52.861L170.008 52.9169L169.609 64.349L175.617 64.5588L175.564 66.0789ZM178.418 61.7658C178.449 62.7815 178.706 63.571 179.191 64.1342C179.681 64.6977 180.373 64.995 181.267 65.0262C181.903 65.0484 182.462 64.9209 182.946 64.6436C183.436 64.3665 183.826 63.9569 184.115 63.4146L185.634 63.999C185.227 64.8373 184.637 65.4801 183.865 65.9275C183.093 66.3748 182.233 66.5819 181.286 66.5488C180.338 66.5157 179.512 66.2768 178.807 65.8319C178.108 65.3872 177.574 64.7742 177.206 63.9929C176.843 63.2117 176.679 62.3205 176.714 61.3191C176.75 60.2697 176.974 59.362 177.385 58.5958C177.802 57.8239 178.369 57.2404 179.085 56.8451C179.808 56.4441 180.636 56.2599 181.572 56.2926C182.501 56.325 183.295 56.5628 183.951 57.006C184.615 57.4434 185.112 58.0582 185.445 58.8503C185.778 59.6364 185.926 60.5631 185.888 61.6304C185.882 61.8043 185.875 61.9362 185.865 62.0259L178.418 61.7658ZM181.576 57.7336C180.706 57.7032 180.011 57.9221 179.49 58.3902C178.97 58.8583 178.636 59.5551 178.49 60.4805L184.246 60.6816C184.115 58.7738 183.225 57.7911 181.576 57.7336ZM195.286 58.6716C195.403 58.9519 195.476 59.2606 195.506 59.5979C195.536 59.9291 195.544 60.3166 195.528 60.7604L195.319 66.7687L193.898 66.7191L193.95 65.208C193.135 66.3683 191.915 66.92 190.29 66.8633C189.589 66.8388 188.994 66.6889 188.505 66.4137C188.016 66.1325 187.654 65.7686 187.417 65.3221C187.181 64.8755 187.072 64.3854 187.09 63.8518C187.14 62.4186 187.968 61.496 189.574 61.0837C190.046 60.9741 190.586 60.8819 191.195 60.8072C191.804 60.7324 192.533 60.6528 193.383 60.5684L193.961 60.5075C193.965 59.7212 193.787 59.1386 193.428 58.7598C193.069 58.3751 192.476 58.1683 191.649 58.1394C191.037 58.118 190.507 58.2406 190.06 58.5071C189.618 58.7679 189.304 59.1832 189.116 59.7529L187.612 59.2411C187.876 58.3798 188.355 57.7242 189.049 57.2741C189.75 56.8183 190.639 56.6092 191.719 56.6469C192.612 56.6781 193.365 56.8665 193.977 57.2121C194.596 57.5519 195.032 58.0384 195.286 58.6716ZM190.58 65.5316C191.138 65.551 191.633 65.4693 192.065 65.2863C192.498 65.0972 192.852 64.8395 193.128 64.5129C193.404 64.1803 193.588 63.8085 193.68 63.3975C193.747 63.1957 193.794 62.9692 193.821 62.718C193.854 62.467 193.879 62.1856 193.896 61.874L193.453 61.9126C192.604 61.997 191.95 62.0673 191.491 62.1233C191.039 62.1795 190.625 62.2551 190.25 62.3501C189.783 62.4779 189.407 62.6629 189.123 62.9051C188.844 63.1475 188.697 63.4786 188.683 63.8984C188.673 64.1802 188.733 64.4434 188.862 64.6881C188.992 64.9268 189.201 65.1232 189.49 65.2774C189.779 65.4315 190.142 65.5163 190.58 65.5316ZM204.783 54.1313L206.393 54.1875L205.941 67.1396L204.511 67.0897L204.549 65.9924C204.168 66.4173 203.719 66.7408 203.201 66.9629C202.683 67.179 202.103 67.2758 201.461 67.2534C200.574 67.2224 199.808 66.9735 199.164 66.5067C198.526 66.0342 198.044 65.405 197.717 64.6191C197.397 63.8274 197.253 62.9429 197.287 61.9655C197.321 60.9941 197.526 60.1277 197.901 59.3663C198.282 58.5991 198.807 58.0051 199.476 57.5842C200.151 57.1635 200.929 56.9685 201.811 56.9993C202.404 57.02 202.937 57.1377 203.41 57.3523C203.889 57.5672 204.299 57.8667 204.64 58.2508L204.783 54.1313ZM201.711 65.7942C202.652 65.8271 203.371 65.519 203.868 64.8699C204.371 64.2211 204.642 63.339 204.681 62.2237C204.72 61.1083 204.514 60.2126 204.063 59.5365C203.613 58.8603 202.929 58.5062 202.011 58.4742C201.376 58.452 200.833 58.5922 200.385 58.8947C199.942 59.1974 199.603 59.6209 199.368 60.165C199.139 60.7033 199.012 61.3233 198.987 62.0248C198.963 62.7324 199.046 63.3657 199.236 63.9247C199.433 64.4839 199.739 64.9298 200.153 65.2625C200.574 65.5954 201.093 65.7726 201.711 65.7942ZM212.122 67.6166C211.354 67.5898 210.678 67.4521 210.092 67.2035C209.506 66.955 209.035 66.6083 208.678 66.1636C208.322 65.7189 208.1 65.1918 208.013 64.5824L209.659 64.3787C209.773 64.917 210.061 65.3473 210.524 65.6697C210.987 65.992 211.569 66.1655 212.271 66.19C212.93 66.213 213.454 66.0962 213.841 65.8395C214.234 65.5771 214.439 65.206 214.456 64.7263C214.466 64.4385 214.408 64.2113 214.282 64.0448C214.162 63.8785 213.918 63.7169 213.551 63.56C213.185 63.3972 212.592 63.1903 211.772 62.9396C210.911 62.6754 210.241 62.4148 209.764 62.158C209.287 61.8952 208.949 61.6012 208.75 61.2761C208.551 60.951 208.46 60.5515 208.477 60.0778C208.496 59.5142 208.67 59.0249 208.996 58.6101C209.323 58.1892 209.773 57.8717 210.344 57.6575C210.916 57.4374 211.571 57.3402 212.309 57.3659C213.04 57.3915 213.693 57.5343 214.266 57.7945C214.845 58.0489 215.305 58.3981 215.643 58.8422C215.988 59.2805 216.184 59.7826 216.23 60.3486L214.583 60.5882C214.523 60.0578 214.274 59.6319 213.835 59.3104C213.402 58.989 212.837 58.8162 212.142 58.792C211.746 58.7781 211.393 58.8229 211.084 58.9261C210.78 59.0236 210.541 59.1713 210.366 59.3693C210.191 59.5613 210.099 59.7893 210.09 60.0531C210.081 60.299 210.146 60.5053 210.284 60.6723C210.428 60.8394 210.693 61.0047 211.077 61.1683C211.462 61.3258 212.041 61.5171 212.813 61.7422C213.675 61.9944 214.344 62.2549 214.821 62.5237C215.298 62.7925 215.636 63.1015 215.833 63.4506C216.037 63.8 216.13 64.2295 216.113 64.7392C216.091 65.3628 215.916 65.897 215.588 66.3418C215.261 66.7807 214.802 67.1099 214.212 67.3294C213.622 67.549 212.925 67.6447 212.122 67.6166ZM223.016 57.7578C223.988 57.7918 224.753 58.0586 225.312 58.5584C225.871 59.0583 226.252 59.6599 226.456 60.3635C226.659 61.061 226.749 61.7695 226.724 62.4891L226.536 67.8588L224.917 67.8023L225.087 62.9363C225.123 61.8929 224.95 61.0283 224.565 60.3425C224.187 59.6568 223.524 59.2975 222.577 59.2644C221.749 59.2355 221.086 59.4945 220.586 60.0414C220.093 60.5825 219.827 61.4018 219.789 62.4991L219.61 67.617L217.991 67.5604L218.444 54.6083L219.883 54.6586L219.726 59.1469C220.109 58.6739 220.577 58.3181 221.132 58.0793C221.693 57.8407 222.321 57.7336 223.016 57.7578ZM230.655 68.0027L229.054 67.9468L229.394 58.2327L230.995 58.2886L230.655 68.0027ZM230.247 56.7586C229.953 56.7483 229.707 56.6407 229.51 56.4357C229.32 56.2249 229.229 55.9726 229.24 55.6788C229.25 55.3849 229.357 55.1425 229.562 54.9516C229.773 54.7548 230.026 54.6616 230.319 54.6718C230.619 54.6823 230.865 54.7929 231.055 55.0037C231.252 55.2087 231.346 55.4581 231.335 55.752C231.325 56.0458 231.215 56.2911 231.004 56.4878C230.799 56.6788 230.546 56.769 230.247 56.7586ZM238.173 58.2691C239.055 58.2999 239.814 58.5486 240.452 59.0151C241.097 59.4819 241.579 60.1111 241.899 60.9028C242.226 61.6887 242.373 62.5673 242.339 63.5387C242.305 64.5161 242.097 65.3884 241.716 66.1556C241.341 66.917 240.816 67.511 240.141 67.9377C239.472 68.3586 238.694 68.5535 237.806 68.5226C237.212 68.5018 236.679 68.3841 236.206 68.1695C235.734 67.9489 235.327 67.6435 234.987 67.2534L234.804 72.4702L233.194 72.414L233.684 58.3825L235.115 58.4325L235.077 59.5208C235.458 59.0959 235.907 58.7753 236.425 58.5593C236.943 58.3432 237.526 58.2465 238.173 58.2691ZM237.659 67.0495C238.277 67.0711 238.804 66.9304 239.241 66.6275C239.684 66.3247 240.02 65.9012 240.249 65.3569C240.484 64.8128 240.614 64.1869 240.639 63.4793C240.663 62.7778 240.577 62.1504 240.38 61.5972C240.19 61.0382 239.881 60.5921 239.454 60.259C239.034 59.9262 238.506 59.7486 237.87 59.7264C236.953 59.6944 236.246 59.9999 235.749 60.643C235.252 61.286 234.984 62.1652 234.945 63.2805C234.906 64.3958 235.112 65.2946 235.563 65.9767C236.019 66.6591 236.718 67.0167 237.659 67.0495ZM249.343 68.6553L247.742 68.5994L248.194 55.6473L249.795 55.7032L249.596 61.4147L256.414 61.6528L256.613 55.9412L258.214 55.9972L257.762 68.9493L256.161 68.8933L256.361 63.1728L249.543 62.9348L249.343 68.6553ZM268.033 61.212C268.149 61.4922 268.222 61.801 268.253 62.1382C268.283 62.4695 268.291 62.857 268.275 63.3007L268.065 69.3091L266.644 69.2594L266.697 67.7484C265.882 68.9086 264.662 69.4604 263.037 69.4036C262.335 69.3791 261.74 69.2293 261.252 68.9541C260.763 68.6728 260.401 68.309 260.164 67.8624C259.927 67.4159 259.818 66.9258 259.837 66.3921C259.887 64.959 260.715 64.0363 262.32 63.6241C262.792 63.5145 263.333 63.4223 263.942 63.3475C264.551 63.2727 265.28 63.1931 266.13 63.1087L266.708 63.0479C266.711 62.2615 266.534 61.679 266.175 61.3002C265.816 60.9154 265.223 60.7086 264.395 60.6797C263.784 60.6584 263.254 60.781 262.806 61.0475C262.365 61.3083 262.05 61.7235 261.862 62.2933L260.358 61.7815C260.623 60.9202 261.102 60.2645 261.796 59.8145C262.496 59.3586 263.386 59.1496 264.465 59.1873C265.359 59.2185 266.112 59.4069 266.724 59.7524C267.343 60.0922 267.779 60.5787 268.033 61.212ZM263.327 68.0719C263.884 68.0914 264.379 68.0096 264.812 67.8266C265.245 67.6376 265.599 67.3798 265.875 67.0532C266.15 66.7207 266.335 66.3489 266.427 65.9378C266.494 65.7361 266.541 65.5096 266.568 65.2583C266.601 65.0073 266.625 64.726 266.642 64.4144L266.2 64.453C265.35 64.5374 264.696 64.6076 264.238 64.6637C263.786 64.7199 263.372 64.7955 262.996 64.8905C262.53 65.0183 262.154 65.2033 261.869 65.4455C261.591 65.6879 261.444 66.019 261.429 66.4387C261.42 66.7206 261.479 66.9838 261.609 67.2285C261.739 67.4671 261.948 67.6636 262.237 67.8177C262.526 67.9719 262.889 68.0566 263.327 68.0719ZM275.42 59.5878C276.391 59.6217 277.157 59.8886 277.716 60.3884C278.274 60.8882 278.656 61.4899 278.859 62.1934C279.063 62.891 279.152 63.5995 279.127 64.3191L278.94 69.6888L277.321 69.6323L277.491 64.7662C277.527 63.7229 277.353 62.8583 276.969 62.1724C276.591 61.4868 275.928 61.1275 274.98 61.0944C274.153 61.0655 273.489 61.3245 272.99 61.8714C272.497 62.4125 272.231 63.2317 272.193 64.3291L272.014 69.447L270.395 69.3904L270.734 59.6763L272.173 59.7266L272.13 60.9768C272.512 60.5039 272.981 60.148 273.536 59.9093C274.096 59.6707 274.724 59.5635 275.42 59.5878ZM288.317 57.0484L289.927 57.1046L289.474 70.0567L288.044 70.0067L288.082 68.9094C287.701 69.3344 287.252 69.6579 286.734 69.8799C286.216 70.096 285.636 70.1928 284.995 70.1704C284.107 70.1394 283.341 69.8905 282.697 69.4238C282.059 68.9512 281.577 68.322 281.25 67.5361C280.93 66.7445 280.786 65.8599 280.821 64.8825C280.854 63.9111 281.059 63.0447 281.434 62.2833C281.815 61.5162 282.34 60.9221 283.009 60.5012C283.684 60.0805 284.462 59.8856 285.344 59.9163C285.937 59.9371 286.47 60.0548 286.943 60.2694C287.422 60.4842 287.832 60.7837 288.173 61.1678L288.317 57.0484ZM285.244 68.7112C286.185 68.7441 286.904 68.436 287.401 67.7869C287.904 67.1381 288.175 66.256 288.214 65.1407C288.253 64.0254 288.047 63.1297 287.596 62.4535C287.146 61.7774 286.462 61.4233 285.544 61.3912C284.909 61.3691 284.366 61.5092 283.918 61.8117C283.475 62.1145 283.136 62.5379 282.901 63.082C282.672 63.6204 282.545 64.2403 282.521 64.9419C282.496 65.6495 282.579 66.2827 282.769 66.8417C282.966 67.4009 283.272 67.8469 283.686 68.1795C284.107 68.5124 284.626 68.6896 285.244 68.7112ZM299.51 63.545C300.154 63.8436 300.646 64.2751 300.987 64.8393C301.333 65.4037 301.494 66.0457 301.469 66.7653C301.443 67.5148 301.264 68.163 300.933 68.7098C300.601 69.2565 300.14 69.6727 299.547 69.9582C298.961 70.2379 298.275 70.364 297.49 70.3366L291.994 70.1447L292.447 57.1926L297.492 57.3688C298.242 57.395 298.887 57.5736 299.428 57.9047C299.975 58.2359 300.386 58.6676 300.662 59.1995C300.943 59.7316 301.073 60.3005 301.052 60.9062C301.032 61.4938 300.884 62.02 300.61 62.4847C300.342 62.9436 299.975 63.297 299.51 63.545ZM294.013 58.7602L293.877 62.6548L297.286 62.7739C297.669 62.7873 298.02 62.7185 298.338 62.5674C298.655 62.4104 298.909 62.1852 299.1 61.8916C299.29 61.5921 299.392 61.2444 299.406 60.8487C299.419 60.4829 299.343 60.1531 299.18 59.8592C299.016 59.5653 298.781 59.3319 298.475 59.1591C298.174 58.9866 297.823 58.8933 297.422 58.8792L294.013 58.7602ZM297.237 68.7968C297.717 68.8136 298.149 68.7416 298.533 68.5809C298.923 68.4144 299.232 68.1701 299.459 67.8478C299.686 67.5255 299.808 67.1425 299.823 66.6988C299.838 66.2671 299.753 65.8709 299.568 65.5102C299.382 65.1495 299.116 64.861 298.769 64.6448C298.423 64.4285 298.024 64.3126 297.575 64.2969L293.824 64.1659L293.667 68.6722L297.237 68.7968ZM307.26 70.9479C306.307 70.9146 305.484 70.6698 304.791 70.2133C304.105 69.7511 303.586 69.1266 303.236 68.3399C302.885 67.5472 302.727 66.6501 302.762 65.6487C302.797 64.6414 303.02 63.7576 303.431 62.9975C303.842 62.2373 304.409 61.6568 305.131 61.2557C305.854 60.8487 306.683 60.6615 307.618 60.6942C308.572 60.7275 309.394 60.9724 310.087 61.4288C310.779 61.8852 311.301 62.5068 311.652 63.2935C312.003 64.0803 312.161 64.9743 312.126 65.9757C312.09 66.9891 311.867 67.8788 311.456 68.645C311.051 69.4053 310.487 69.989 309.765 70.396C309.042 70.7971 308.207 70.981 307.26 70.9479ZM307.313 69.4279C308.291 69.462 309.042 69.1641 309.569 68.534C310.101 67.8982 310.387 67.0257 310.426 65.9163C310.465 64.795 310.241 63.9077 309.753 63.2543C309.266 62.5948 308.536 62.2482 307.565 62.2143C306.582 62.1799 305.827 62.4778 305.3 63.1078C304.78 63.738 304.501 64.6048 304.462 65.7081C304.423 66.8294 304.647 67.7228 305.134 68.3882C305.627 69.0478 306.354 69.3944 307.313 69.4279ZM318.064 71.3252C317.111 71.2919 316.288 71.0471 315.595 70.5906C314.909 70.1284 314.39 69.5039 314.04 68.7172C313.689 67.9245 313.531 67.0274 313.566 66.026C313.601 65.0186 313.824 64.1349 314.235 63.3748C314.646 62.6146 315.213 62.034 315.935 61.633C316.658 61.226 317.487 61.0388 318.422 61.0715C319.375 61.1048 320.198 61.3496 320.891 61.8061C321.583 62.2625 322.105 62.8841 322.456 63.6708C322.807 64.4576 322.964 65.3516 322.929 66.353C322.894 67.3664 322.671 68.2561 322.26 69.0223C321.855 69.7826 321.291 70.3663 320.569 70.7733C319.846 71.1743 319.011 71.3583 318.064 71.3252ZM318.117 69.8051C319.094 69.8393 319.846 69.5413 320.373 68.9113C320.905 68.2755 321.191 67.403 321.23 66.2936C321.269 65.1723 321.045 64.285 320.557 63.6315C320.07 62.9721 319.34 62.6255 318.369 62.5915C317.386 62.5572 316.631 62.855 316.104 63.4851C315.584 64.1153 315.305 64.9821 315.266 66.0854C315.227 67.2067 315.451 68.1001 315.938 68.7655C316.431 69.4251 317.158 69.7716 318.117 69.8051ZM332.7 71.5662L330.865 71.5021L327.374 66.7784L326.397 67.6718L326.269 71.3416L324.731 71.2879L325.192 58.3361L326.721 58.3895L326.467 65.684L330.845 61.7754L332.787 61.8433L328.444 65.7981L332.7 71.5662Z" fill="black"/>
<path d="M1052.9 230.018C1008.74 274.298 996.758 335.205 992.657 375.538C991.61 385.828 999.396 394.853 1009.74 395.086C1080.45 396.682 1133.18 371.556 1162.31 346.456C1166.86 342.535 1168.86 336.447 1167.71 330.552C1153.5 258.2 1102.95 233.659 1068.63 225.509C1062.96 224.162 1057.01 225.888 1052.9 230.018Z" fill="#421DFF"/>
<path d="M1052.56 229.89C1027.55 254.975 1012.85 285.397 1004.07 314.391C1020.11 270.061 1070.12 199.388 1141.85 271.34C1120.23 243.105 1090.79 230.731 1068.31 225.391C1062.63 224.043 1056.68 225.761 1052.56 229.89Z" fill="#F2F2F2"/>
<path d="M994.185 366.706C993.797 369.822 993.459 372.844 993.163 375.758C992.116 386.047 999.9 395.095 1010.24 395.328C1081.42 396.934 1134.38 371.467 1163.38 346.204C1115.58 384.438 1004.65 407.165 994.185 366.706Z" fill="#2253FF"/>
<path d="M1064.2 285.88C1064.9 285.177 1065.62 284.546 1066.36 283.987L1070 287.585C1069.21 288.076 1068.47 288.678 1067.76 289.394C1066.16 291.017 1065.12 292.848 1064.65 294.885C1064.17 296.857 1064.27 298.875 1064.92 300.937C1065.58 302.999 1066.85 304.961 1068.74 306.822C1070.59 308.651 1072.57 309.899 1074.67 310.564C1076.74 311.197 1078.77 311.281 1080.77 310.817C1082.77 310.288 1084.57 309.212 1086.18 307.588C1086.88 306.872 1087.48 306.122 1087.97 305.339L1091.6 308.926C1091.05 309.672 1090.43 310.397 1089.73 311.101C1087.42 313.44 1084.83 314.989 1081.96 315.749C1079.13 316.477 1076.24 316.413 1073.29 315.559C1070.38 314.673 1067.66 312.979 1065.13 310.476C1062.59 307.973 1060.87 305.271 1059.95 302.371C1059.06 299.439 1058.96 296.55 1059.65 293.705C1060.38 290.827 1061.89 288.219 1064.2 285.88Z" fill="white"/>
<path d="M1105.63 320.928C1104.91 321.607 1104.17 322.212 1103.42 322.745L1099.9 319.023C1100.7 318.56 1101.47 317.983 1102.2 317.293C1103.86 315.726 1104.96 313.932 1105.51 311.913C1106.05 309.959 1106.02 307.939 1105.44 305.855C1104.85 303.771 1103.65 301.766 1101.83 299.841C1100.05 297.949 1098.11 296.632 1096.04 295.894C1093.99 295.189 1091.96 295.034 1089.95 295.428C1087.93 295.887 1086.09 296.9 1084.43 298.467C1083.7 299.158 1083.08 299.887 1082.56 300.654L1079.06 296.941C1079.63 296.215 1080.28 295.511 1081 294.832C1083.39 292.575 1086.03 291.117 1088.93 290.458C1091.79 289.83 1094.67 289.994 1097.58 290.95C1100.46 291.937 1103.12 293.725 1105.57 296.315C1108.01 298.905 1109.64 301.665 1110.46 304.595C1111.25 307.557 1111.25 310.448 1110.46 313.267C1109.63 316.118 1108.02 318.671 1105.63 320.928Z" fill="white"/>
<path d="M1030.45 293.162C1030.91 293.611 1031.23 294.098 1031.42 294.62C1031.63 295.143 1031.72 295.682 1031.67 296.238C1031.64 296.794 1031.48 297.351 1031.18 297.908L1030.05 297.284L1029.92 297.154C1030.18 296.612 1030.27 296.072 1030.19 295.533C1030.12 294.993 1029.89 294.527 1029.49 294.132C1029.08 293.73 1028.64 293.47 1028.15 293.354C1027.68 293.246 1027.19 293.273 1026.7 293.434C1026.21 293.596 1025.75 293.893 1025.33 294.324C1024.9 294.755 1024.6 295.221 1024.44 295.722C1024.28 296.215 1024.26 296.7 1024.38 297.175C1024.5 297.659 1024.76 298.102 1025.17 298.505C1025.45 298.781 1025.76 298.981 1026.09 299.106C1026.43 299.231 1026.78 299.277 1027.14 299.243C1027.51 299.217 1027.88 299.115 1028.25 298.938L1028.38 299.069L1029.03 300.208C1028.46 300.497 1027.88 300.663 1027.3 300.706C1026.73 300.742 1026.18 300.658 1025.66 300.455C1025.15 300.251 1024.67 299.924 1024.21 299.474C1023.61 298.883 1023.22 298.23 1023.02 297.517C1022.84 296.796 1022.85 296.074 1023.06 295.35C1023.27 294.626 1023.68 293.949 1024.31 293.318C1024.92 292.695 1025.59 292.274 1026.31 292.056C1027.04 291.829 1027.76 291.809 1028.48 291.995C1029.19 292.181 1029.85 292.57 1030.45 293.162ZM1061.65 323.984C1062.22 324.545 1062.58 325.169 1062.73 325.859C1062.9 326.549 1062.87 327.256 1062.63 327.98C1062.38 328.703 1061.94 329.389 1061.3 330.036L1061.16 330.18L1060.82 330.169L1056.24 325.651C1055.99 325.968 1055.81 326.31 1055.7 326.676C1055.56 327.153 1055.55 327.629 1055.66 328.105C1055.77 328.58 1056.02 329.004 1056.39 329.375C1056.76 329.738 1057.17 329.966 1057.61 330.058C1058.07 330.143 1058.52 330.104 1058.98 329.942L1059.13 330.084L1059.6 331.284C1058.88 331.558 1058.16 331.614 1057.42 331.452C1056.7 331.29 1056.04 330.917 1055.45 330.333C1054.87 329.757 1054.48 329.116 1054.29 328.411C1054.11 327.697 1054.13 326.979 1054.34 326.256C1054.56 325.54 1054.98 324.866 1055.6 324.235C1056.22 323.612 1056.88 323.188 1057.59 322.961C1058.31 322.727 1059.03 322.695 1059.72 322.865C1060.43 323.043 1061.07 323.416 1061.65 323.984ZM1068.46 330.713C1068.91 331.163 1069.24 331.649 1069.43 332.172C1069.64 332.695 1069.73 333.234 1069.68 333.79C1069.65 334.346 1069.49 334.902 1069.19 335.46L1068.06 334.836L1067.92 334.705C1068.19 334.164 1068.28 333.623 1068.2 333.084C1068.13 332.545 1067.9 332.078 1067.5 331.684C1067.09 331.281 1066.65 331.022 1066.16 330.905C1065.69 330.797 1065.2 330.824 1064.71 330.986C1064.22 331.148 1063.76 331.444 1063.33 331.876C1062.91 332.307 1062.61 332.773 1062.45 333.274C1062.29 333.767 1062.27 334.251 1062.39 334.727C1062.51 335.211 1062.77 335.654 1063.18 336.056C1063.46 336.332 1063.77 336.533 1064.1 336.658C1064.44 336.783 1064.79 336.828 1065.15 336.794C1065.52 336.768 1065.89 336.667 1066.26 336.49L1066.39 336.62L1067.04 337.759C1066.47 338.049 1065.89 338.215 1065.31 338.258C1064.74 338.293 1064.19 338.209 1063.67 338.006C1063.16 337.803 1062.68 337.476 1062.22 337.026C1061.62 336.434 1061.23 335.782 1061.03 335.069C1060.85 334.348 1060.86 333.625 1061.07 332.902C1061.28 332.178 1061.69 331.5 1062.32 330.869C1062.93 330.247 1063.6 329.826 1064.32 329.607C1065.05 329.381 1065.77 329.36 1066.49 329.547C1067.2 329.733 1067.86 330.122 1068.46 330.713ZM1079.2 341.321C1079.76 341.882 1080.12 342.506 1080.28 343.196C1080.45 343.886 1080.42 344.593 1080.17 345.317C1079.93 346.04 1079.49 346.726 1078.85 347.373L1078.71 347.516L1078.36 347.506L1073.79 342.988C1073.54 343.305 1073.36 343.647 1073.25 344.013C1073.11 344.49 1073.09 344.966 1073.21 345.442C1073.32 345.917 1073.57 346.341 1073.94 346.712C1074.31 347.075 1074.72 347.302 1075.16 347.395C1075.61 347.48 1076.07 347.441 1076.53 347.279L1076.67 347.421L1077.15 348.621C1076.43 348.895 1075.71 348.951 1074.97 348.789C1074.24 348.627 1073.59 348.254 1073 347.67C1072.41 347.094 1072.03 346.453 1071.84 345.747C1071.66 345.034 1071.68 344.316 1071.89 343.593C1072.11 342.877 1072.53 342.203 1073.15 341.572C1073.76 340.949 1074.43 340.525 1075.14 340.298C1075.86 340.064 1076.57 340.032 1077.27 340.202C1077.98 340.38 1078.62 340.753 1079.2 341.321ZM1085.73 347.754C1086.55 348.559 1086.93 349.422 1086.89 350.343C1086.86 351.272 1086.4 352.179 1085.53 353.066L1082.19 356.444L1081.23 355.498L1082.08 354.642C1081.97 354.657 1081.85 354.669 1081.74 354.673C1081.24 354.692 1080.76 354.611 1080.27 354.432C1079.8 354.252 1079.37 353.969 1078.98 353.582C1078.57 353.172 1078.27 352.725 1078.1 352.242C1077.94 351.767 1077.91 351.298 1078 350.837C1078.1 350.369 1078.33 349.95 1078.69 349.583C1079.21 349.056 1079.82 348.814 1080.52 348.858C1081.23 348.909 1081.95 349.238 1082.67 349.844L1084.86 351.716C1085.26 351.283 1085.46 350.798 1085.46 350.256C1085.47 349.685 1085.24 349.166 1084.77 348.701C1084.41 348.338 1084 348.118 1083.55 348.042C1083.12 347.957 1082.69 348.027 1082.28 348.252L1082.15 348.121L1081.55 346.958C1082.25 346.596 1082.97 346.485 1083.7 346.624C1084.43 346.762 1085.11 347.139 1085.73 347.754ZM1048.34 310.831C1048.77 311.258 1049.06 311.728 1049.21 312.243C1049.38 312.766 1049.37 313.302 1049.21 313.851C1049.05 314.4 1048.7 314.946 1048.16 315.489L1044.49 319.202L1043.47 318.196L1046.89 314.734C1047.32 314.303 1047.59 313.9 1047.71 313.526C1047.83 313.145 1047.84 312.792 1047.71 312.467C1047.6 312.15 1047.41 311.854 1047.13 311.578C1046.82 311.278 1046.45 311.061 1046.02 310.929C1045.59 310.797 1045.14 310.787 1044.67 310.901C1044.2 311.023 1043.75 311.304 1043.32 311.743L1040.17 314.93L1039.15 313.923L1045.08 307.922L1046.06 308.892L1045.15 309.81C1045.33 309.776 1045.51 309.756 1045.69 309.752C1046.17 309.741 1046.64 309.826 1047.09 310.006C1047.55 310.193 1047.97 310.469 1048.34 310.831ZM1055.25 317.663C1055.68 318.089 1055.97 318.559 1056.13 319.074C1056.29 319.597 1056.29 320.133 1056.13 320.682C1055.96 321.231 1055.61 321.777 1055.08 322.32L1051.41 326.033L1050.39 325.027L1053.81 321.565C1054.23 321.134 1054.51 320.731 1054.62 320.357C1054.75 319.976 1054.75 319.622 1054.63 319.297C1054.52 318.981 1054.32 318.684 1054.04 318.408C1053.74 318.108 1053.37 317.892 1052.93 317.76C1052.51 317.627 1052.06 317.618 1051.58 317.732C1051.12 317.854 1050.66 318.134 1050.23 318.573L1047.08 321.76L1046.06 320.755L1051.99 314.753L1052.98 315.724L1052.07 316.641C1052.24 316.606 1052.42 316.587 1052.6 316.583C1053.08 316.573 1053.55 316.657 1054.01 316.837C1054.47 317.024 1054.88 317.3 1055.25 317.663ZM1073.61 336.113L1075.35 337.828L1074.4 338.786L1072.67 337.071L1069.59 340.186C1069.25 340.529 1069.08 340.851 1069.08 341.153C1069.09 341.446 1069.26 341.759 1069.6 342.091L1070.32 342.801L1070.25 342.991L1069.42 343.83L1068.43 342.848C1067.91 342.335 1067.65 341.753 1067.64 341.102C1067.65 340.443 1067.93 339.83 1068.49 339.264L1071.65 336.064L1070.62 335.047L1071.56 334.089L1072.59 335.106L1074.19 333.489L1075.21 334.495L1073.61 336.113ZM1097.1 359.009C1097.51 359.411 1097.78 359.866 1097.93 360.373C1098.08 360.88 1098.07 361.408 1097.9 361.957C1097.74 362.506 1097.39 363.052 1096.85 363.595L1093.19 367.308L1092.17 366.302L1095.6 362.828C1096.03 362.397 1096.3 361.994 1096.41 361.621C1096.53 361.247 1096.54 360.905 1096.43 360.596C1096.33 360.288 1096.14 360.003 1095.88 359.743C1095.61 359.475 1095.26 359.278 1094.85 359.153C1094.44 359.029 1093.99 359.024 1093.52 359.138C1093.05 359.244 1092.59 359.525 1092.14 359.98L1088.99 363.166L1087.97 362.16L1091.41 358.686C1091.83 358.255 1092.1 357.852 1092.22 357.479C1092.34 357.105 1092.34 356.759 1092.23 356.442C1092.12 356.133 1091.94 355.853 1091.68 355.6C1091.41 355.332 1091.06 355.135 1090.63 355.011C1090.22 354.886 1089.78 354.881 1089.3 354.995C1088.83 355.101 1088.38 355.378 1087.94 355.825L1084.79 359.012L1083.77 358.006L1089.7 352.004L1090.68 352.975L1089.77 353.897C1089.96 353.857 1090.16 353.835 1090.35 353.834C1090.82 353.823 1091.27 353.908 1091.71 354.088C1092.16 354.26 1092.55 354.515 1092.9 354.855C1093.41 355.367 1093.72 355.961 1093.81 356.636C1093.87 357.069 1093.82 357.502 1093.66 357.937C1093.87 357.886 1094.08 357.855 1094.3 357.847C1094.79 357.836 1095.29 357.928 1095.77 358.123C1096.26 358.319 1096.7 358.615 1097.1 359.009ZM1033.03 301.049C1032.88 301.142 1032.74 301.251 1032.6 301.377C1032.19 301.754 1031.91 302.19 1031.76 302.684C1031.62 303.162 1031.62 303.659 1031.75 304.174C1031.89 304.688 1032.17 305.187 1032.61 305.669C1033.04 306.143 1033.51 306.475 1034.02 306.667C1034.51 306.85 1035.01 306.898 1035.51 306.811C1036.01 306.708 1036.46 306.467 1036.88 306.09C1037.02 305.964 1037.14 305.83 1037.25 305.693L1038.09 306.615C1037.97 306.746 1037.84 306.876 1037.71 307C1037.11 307.543 1036.45 307.889 1035.74 308.037C1035.03 308.178 1034.32 308.124 1033.61 307.875C1032.91 307.618 1032.26 307.166 1031.67 306.518C1031.08 305.87 1030.7 305.183 1030.51 304.459C1030.33 303.728 1030.34 303.016 1030.55 302.327C1030.77 301.63 1031.18 301.01 1031.77 300.467C1031.91 300.342 1032.05 300.23 1032.19 300.126L1033.03 301.049ZM1081.98 350.956C1081.51 350.554 1081.08 350.327 1080.71 350.273C1080.35 350.22 1080.04 350.333 1079.76 350.613C1079.5 350.876 1079.39 351.206 1079.44 351.603C1079.5 351.999 1079.69 352.371 1080.05 352.719C1080.41 353.074 1080.82 353.313 1081.28 353.438C1081.74 353.562 1082.19 353.567 1082.63 353.453C1083.09 353.347 1083.48 353.123 1083.82 352.779L1083.97 352.632L1081.98 350.956ZM1041.06 303.046C1041.67 303.673 1042.08 304.346 1042.3 305.063C1042.5 305.788 1042.51 306.499 1042.33 307.196C1042.14 307.9 1041.75 308.534 1041.17 309.097C1041.04 309.226 1040.9 309.345 1040.76 309.453L1039.89 308.56C1040.04 308.462 1040.18 308.347 1040.31 308.217C1040.71 307.825 1040.98 307.38 1041.1 306.881C1041.23 306.399 1041.22 305.902 1041.06 305.392C1040.91 304.882 1040.61 304.394 1040.16 303.927C1039.71 303.469 1039.23 303.154 1038.72 302.98C1038.21 302.815 1037.71 302.783 1037.22 302.888C1036.72 303.008 1036.27 303.265 1035.87 303.657C1035.74 303.787 1035.62 303.924 1035.52 304.064L1034.65 303.173C1034.76 303.038 1034.88 302.904 1035.01 302.775C1035.59 302.212 1036.24 301.843 1036.95 301.67C1037.65 301.505 1038.36 301.535 1039.08 301.759C1039.79 301.99 1040.45 302.419 1041.06 303.046ZM1078.25 342.279C1077.9 341.932 1077.49 341.701 1077.02 341.585C1076.56 341.46 1076.09 341.471 1075.61 341.617C1075.31 341.71 1075.02 341.858 1074.74 342.06L1078.43 345.701C1078.69 345.359 1078.86 345.008 1078.94 344.645C1079.04 344.208 1079.03 343.787 1078.91 343.383C1078.8 342.971 1078.58 342.603 1078.25 342.279ZM1060.7 324.942C1060.35 324.595 1059.94 324.364 1059.47 324.248C1059.01 324.124 1058.54 324.134 1058.07 324.28C1057.76 324.373 1057.47 324.521 1057.2 324.723L1060.88 328.364C1061.14 328.022 1061.31 327.671 1061.39 327.308C1061.5 326.871 1061.49 326.45 1061.36 326.046C1061.25 325.634 1061.03 325.266 1060.7 324.942Z" fill="white"/>
<path d="M276.16 299.209L364.854 277.597C395.96 270.017 427.322 289.089 434.902 320.196V320.196C442.482 351.302 423.409 382.664 392.303 390.244L303.609 411.856L276.16 299.209Z" fill="#F64704"/>
<path d="M303.609 411.856L214.916 433.469C183.809 441.049 152.448 421.976 144.868 390.87V390.87C137.288 359.763 156.36 328.402 187.467 320.822L276.16 299.209L303.609 411.856Z" fill="#FFA558"/>
<path d="M385.66 365.8L297.614 387.255L303.609 411.856L391.655 390.401C423.119 382.734 442.41 351.012 434.743 319.548C441.432 346.997 405.082 361.067 385.66 365.8Z" fill="#FF7733"/>
<path d="M193.967 344.675L282.013 323.22L276.018 298.619L187.972 320.073C156.508 327.741 137.217 359.463 144.884 390.927C138.195 363.477 174.545 349.407 193.967 344.675Z" fill="#FFA558"/>
<path d="M193.444 373.04L196.572 385.876L194.659 386.342L192.006 375.453L191.92 375.474L189.36 378.224L188.906 376.364L191.583 373.494L193.444 373.04ZM202.747 384.553C201.96 384.745 201.218 384.768 200.519 384.622C199.824 384.469 199.226 384.173 198.724 383.736C198.221 383.293 197.875 382.735 197.687 382.063L199.565 381.606C199.744 382.14 200.098 382.531 200.627 382.78C201.156 383.028 201.73 383.076 202.35 382.925C202.844 382.805 203.253 382.584 203.576 382.262C203.899 381.94 204.121 381.554 204.243 381.104C204.363 380.649 204.36 380.163 204.234 379.646C204.108 379.13 203.884 378.695 203.56 378.341C203.236 377.982 202.847 377.734 202.393 377.595C201.945 377.454 201.466 377.446 200.954 377.571C200.564 377.666 200.19 377.83 199.833 378.063C199.475 378.29 199.201 378.54 199.012 378.811L197.166 378.987L196.313 372.341L203.368 370.622L203.773 372.285L198.337 373.609L198.808 377.3L198.877 377.283C199.063 376.976 199.345 376.695 199.72 376.439C200.1 376.176 200.532 375.986 201.014 375.868C201.795 375.678 202.535 375.695 203.235 375.92C203.939 376.138 204.545 376.526 205.052 377.084C205.557 377.636 205.911 378.325 206.112 379.152C206.315 379.985 206.307 380.775 206.088 381.522C205.867 382.263 205.469 382.902 204.893 383.437C204.324 383.971 203.609 384.343 202.747 384.553ZM213.119 382.026C212.131 382.267 211.221 382.215 210.389 381.87C209.562 381.524 208.843 380.908 208.232 380.023C207.625 379.13 207.152 377.986 206.812 376.591C206.473 375.201 206.371 373.97 206.505 372.897C206.637 371.818 206.991 370.935 207.565 370.247C208.145 369.553 208.925 369.086 209.907 368.846C210.895 368.606 211.803 368.661 212.631 369.013C213.463 369.358 214.183 369.979 214.791 370.877C215.404 371.769 215.88 372.909 216.218 374.299C216.558 375.694 216.664 376.928 216.536 377.999C216.406 379.065 216.054 379.942 215.48 380.629C214.905 381.317 214.118 381.783 213.119 382.026ZM212.716 380.372C213.319 380.225 213.78 379.909 214.1 379.423C214.419 378.938 214.599 378.301 214.638 377.513C214.676 376.719 214.568 375.802 214.315 374.763C214.06 373.717 213.734 372.854 213.337 372.172C212.938 371.484 212.485 370.999 211.978 370.714C211.469 370.425 210.913 370.353 210.31 370.5C209.42 370.717 208.836 371.319 208.56 372.305C208.287 373.284 208.342 374.557 208.724 376.125C208.977 377.164 209.303 378.028 209.702 378.716C210.099 379.397 210.552 379.88 211.059 380.164C211.572 380.447 212.124 380.516 212.716 380.372ZM223.241 379.377L220.895 369.746L222.678 369.312L223.064 370.897L223.193 370.865C223.264 370.282 223.49 369.786 223.871 369.377C224.256 368.961 224.765 368.675 225.396 368.521C226.04 368.365 226.614 368.386 227.119 368.586C227.628 368.778 228.054 369.115 228.396 369.597L228.5 369.572C228.602 368.994 228.866 368.491 229.291 368.065C229.715 367.633 230.272 367.333 230.961 367.165C231.834 366.953 232.616 367.054 233.308 367.47C233.998 367.88 234.477 368.636 234.746 369.738L236.318 376.191L234.44 376.648L232.91 370.368C232.75 369.714 232.457 369.286 232.031 369.086C231.604 368.88 231.143 368.837 230.649 368.957C230.041 369.105 229.613 369.41 229.367 369.872C229.125 370.326 229.073 370.841 229.213 371.415L230.71 377.557L228.832 378.015L227.272 371.614C227.145 371.092 226.882 370.712 226.484 370.474C226.085 370.237 225.624 370.182 225.102 370.309C224.746 370.396 224.439 370.571 224.181 370.835C223.927 371.091 223.748 371.408 223.646 371.786C223.548 372.157 223.551 372.558 223.656 372.988L225.102 378.924L223.241 379.377ZM243.052 378.583C241.903 378.863 240.946 378.868 240.181 378.598C239.415 378.329 238.834 377.929 238.437 377.399L239.878 376.345C240.038 376.501 240.237 376.659 240.477 376.82C240.723 376.979 241.027 377.09 241.389 377.154C241.752 377.218 242.191 377.187 242.708 377.061C243.414 376.889 243.958 376.574 244.339 376.116C244.722 375.664 244.822 375.061 244.638 374.309L244.179 372.423L244.049 372.454C243.995 372.68 243.892 372.946 243.741 373.25C243.589 373.549 243.352 373.835 243.029 374.108C242.706 374.381 242.249 374.59 241.657 374.734C240.899 374.919 240.173 374.907 239.477 374.7C238.786 374.485 238.175 374.074 237.644 373.467C237.117 372.854 236.729 372.035 236.48 371.013C236.231 369.991 236.193 369.073 236.365 368.258C236.542 367.436 236.887 366.756 237.401 366.217C237.915 365.678 238.559 365.314 239.334 365.125C239.931 364.98 240.438 364.963 240.855 365.074C241.276 365.178 241.622 365.337 241.893 365.551C242.164 365.765 242.381 365.958 242.545 366.131L242.683 366.098L242.301 364.53L244.119 364.087L246.518 373.933C246.719 374.76 246.692 375.485 246.436 376.107C246.186 376.727 245.764 377.244 245.171 377.656C244.579 378.074 243.873 378.383 243.052 378.583ZM241.691 373.074C242.501 372.877 243.053 372.447 243.348 371.785C243.647 371.116 243.676 370.285 243.434 369.291C243.276 368.642 243.042 368.097 242.734 367.655C242.424 367.207 242.049 366.891 241.609 366.706C241.167 366.516 240.67 366.488 240.119 366.622C239.556 366.759 239.121 367.021 238.813 367.406C238.51 367.784 238.324 368.246 238.257 368.792C238.187 369.332 238.228 369.909 238.377 370.524C238.53 371.149 238.76 371.681 239.067 372.117C239.372 372.547 239.747 372.848 240.19 373.02C240.639 373.191 241.14 373.209 241.691 373.074Z" fill="black"/>
<path d="M312.399 332.092L315.527 344.927L313.614 345.393L310.487 332.558L312.399 332.092ZM306.292 347.178L308.766 339.466L303.449 334.273L305.818 333.696L310.357 338.467L315.284 337.266L317.085 330.95L319.445 330.375L317.139 337.426L322.857 343.141L320.592 343.693L316.037 339.008L310.455 340.368L308.515 346.636L306.292 347.178ZM327.557 342.206C326.616 342.435 325.75 342.43 324.962 342.19C324.173 341.95 323.502 341.506 322.948 340.856C322.399 340.199 322.003 339.374 321.761 338.38C321.52 337.392 321.489 336.478 321.668 335.638C321.852 334.796 322.223 334.085 322.782 333.505C323.344 332.917 324.073 332.515 324.969 332.296C325.515 332.163 326.065 332.124 326.619 332.177C327.174 332.23 327.702 332.4 328.203 332.685C328.705 332.971 329.148 333.392 329.533 333.949C329.924 334.505 330.225 335.216 330.437 336.083L330.6 336.755L322.942 338.621L322.6 337.217L329.294 335.586L328.537 336.264C328.393 335.672 328.173 335.172 327.879 334.763C327.585 334.354 327.223 334.068 326.794 333.905C326.369 333.735 325.887 333.715 325.347 333.847C324.807 333.978 324.376 334.22 324.055 334.572C323.739 334.923 323.532 335.336 323.434 335.809C323.337 336.283 323.35 336.773 323.473 337.278L323.706 338.235C323.867 338.895 324.118 339.427 324.46 339.83C324.802 340.234 325.206 340.507 325.672 340.648C326.144 340.789 326.653 340.793 327.199 340.66C327.555 340.573 327.864 340.443 328.126 340.269C328.394 340.095 328.608 339.878 328.771 339.62C328.933 339.361 329.031 339.066 329.066 338.735L330.923 338.639C330.905 339.191 330.763 339.706 330.496 340.185C330.229 340.663 329.847 341.079 329.349 341.432C328.855 341.777 328.258 342.035 327.557 342.206ZM332.178 340.87L331.775 339.253L332.111 339.171C332.471 339.077 332.729 338.901 332.886 338.644C333.047 338.38 333.113 337.965 333.085 337.4C333.062 336.834 332.948 336.053 332.742 335.056L331.873 330.742L338.583 329.107L340.93 338.737L339.095 339.184L337.143 331.173L333.99 331.941L334.635 335.261C334.794 336.062 334.885 336.773 334.908 337.394C334.932 338.015 334.874 338.552 334.735 339.006C334.595 339.454 334.365 339.82 334.045 340.105C333.725 340.39 333.301 340.596 332.772 340.725L332.178 340.87ZM346.905 337.491C345.963 337.721 345.098 337.716 344.309 337.476C343.521 337.236 342.85 336.791 342.296 336.141C341.747 335.484 341.351 334.659 341.109 333.665C340.868 332.678 340.837 331.764 341.015 330.923C341.2 330.081 341.571 329.37 342.129 328.79C342.692 328.203 343.421 327.8 344.317 327.582C344.862 327.449 345.412 327.409 345.967 327.462C346.521 327.516 347.049 327.685 347.551 327.971C348.052 328.256 348.496 328.678 348.881 329.235C349.272 329.79 349.573 330.502 349.784 331.369L349.948 332.041L342.29 333.907L341.948 332.503L348.641 330.872L347.884 331.549C347.74 330.957 347.521 330.457 347.227 330.048C346.932 329.639 346.571 329.353 346.142 329.19C345.717 329.02 345.234 329.001 344.695 329.132C344.155 329.264 343.724 329.506 343.402 329.858C343.086 330.209 342.879 330.621 342.782 331.095C342.685 331.569 342.697 332.059 342.821 332.564L343.054 333.52C343.214 334.181 343.466 334.712 343.807 335.116C344.149 335.519 344.553 335.792 345.02 335.934C345.492 336.074 346.001 336.078 346.546 335.945C346.902 335.858 347.211 335.728 347.473 335.555C347.741 335.38 347.956 335.164 348.118 334.905C348.28 334.647 348.379 334.352 348.414 334.021L350.27 333.924C350.252 334.476 350.11 334.991 349.844 335.47C349.577 335.949 349.195 336.364 348.697 336.717C348.203 337.062 347.606 337.321 346.905 337.491ZM351.473 333.467L353.377 333.003C353.508 333.391 353.763 333.651 354.142 333.784C354.527 333.915 354.987 333.919 355.522 333.794C356.055 333.659 356.483 333.43 356.806 333.107C357.129 332.785 357.232 332.374 357.116 331.873C357.046 331.586 356.91 331.351 356.708 331.169C356.511 330.986 356.266 330.866 355.972 330.81C355.683 330.747 355.364 330.761 355.015 330.852L353.447 331.234L353.088 329.761L354.656 329.379C355.179 329.251 355.543 329.038 355.75 328.738C355.956 328.432 356.014 328.096 355.924 327.728C355.827 327.332 355.609 327.048 355.269 326.875C354.929 326.702 354.507 326.68 354.003 326.809C353.502 326.925 353.11 327.14 352.827 327.452C352.543 327.758 352.435 328.092 352.505 328.452L350.61 328.914C350.491 328.377 350.537 327.867 350.748 327.383C350.964 326.899 351.315 326.479 351.8 326.123C352.284 325.762 352.868 325.498 353.551 325.331C354.263 325.158 354.909 325.122 355.487 325.225C356.066 325.327 356.548 325.547 356.935 325.885C357.32 326.217 357.574 326.648 357.697 327.178C357.832 327.705 357.779 328.177 357.54 328.594C357.307 329.01 356.955 329.351 356.485 329.618L356.508 329.712C356.888 329.65 357.246 329.684 357.582 329.816C357.923 329.939 358.214 330.148 358.456 330.442C358.702 330.729 358.877 331.082 358.979 331.501C359.121 332.087 359.082 332.635 358.859 333.146C358.643 333.655 358.279 334.096 357.768 334.47C357.255 334.838 356.632 335.115 355.898 335.3C355.185 335.468 354.519 335.508 353.902 335.421C353.29 335.333 352.771 335.125 352.344 334.797C351.916 334.463 351.626 334.02 351.473 333.467ZM365.6 326.767L365.995 328.386L360.783 329.656L360.389 328.037L365.6 326.767ZM359.929 323.905L362.276 333.536L360.459 333.979L358.112 324.348L359.929 323.905ZM365.933 322.442L368.28 332.073L366.454 332.518L364.107 322.887L365.933 322.442ZM369.94 324.988L372.739 324.306C373.909 324.015 374.882 324.085 375.656 324.517C376.436 324.948 376.942 325.624 377.173 326.548C377.32 327.151 377.308 327.725 377.137 328.272C376.966 328.819 376.642 329.299 376.165 329.713C375.686 330.122 375.057 330.421 374.276 330.612L370.072 331.636L367.725 322.005L369.543 321.563L371.495 329.574L373.881 328.992C374.415 328.862 374.821 328.617 375.098 328.258C375.374 327.892 375.461 327.488 375.359 327.044C375.24 326.58 374.973 326.244 374.557 326.035C374.141 325.826 373.667 325.79 373.134 325.926L370.334 326.608L369.94 324.988ZM379.315 329.384L376.968 319.753L378.829 319.3L381.176 328.93L379.315 329.384ZM387.151 327.684C386.209 327.914 385.344 327.909 384.555 327.669C383.767 327.429 383.096 326.984 382.542 326.334C381.992 325.677 381.596 324.852 381.354 323.859C381.114 322.871 381.083 321.957 381.261 321.116C381.445 320.274 381.817 319.563 382.375 318.983C382.937 318.396 383.667 317.993 384.563 317.775C385.108 317.642 385.658 317.602 386.213 317.656C386.767 317.709 387.295 317.879 387.797 318.164C388.298 318.449 388.741 318.871 389.127 319.428C389.518 319.983 389.819 320.695 390.03 321.562L390.194 322.234L382.536 324.1L382.194 322.696L388.887 321.065L388.13 321.742C387.986 321.151 387.767 320.65 387.472 320.242C387.178 319.833 386.816 319.547 386.387 319.383C385.962 319.213 385.48 319.194 384.94 319.325C384.401 319.457 383.97 319.699 383.648 320.051C383.332 320.402 383.125 320.814 383.028 321.288C382.93 321.762 382.943 322.252 383.066 322.757L383.299 323.713C383.46 324.374 383.711 324.906 384.053 325.309C384.395 325.712 384.799 325.985 385.265 326.127C385.738 326.267 386.247 326.271 386.792 326.138C387.148 326.051 387.457 325.921 387.719 325.748C387.987 325.573 388.202 325.357 388.364 325.098C388.526 324.84 388.624 324.545 388.659 324.214L390.516 324.118C390.498 324.669 390.356 325.185 390.089 325.663C389.823 326.142 389.44 326.558 388.942 326.91C388.448 327.256 387.851 327.514 387.151 327.684ZM317.418 361.151L317.812 362.771L312.601 364.041L312.206 362.421L317.418 361.151ZM311.747 358.29L314.094 367.92L312.276 368.363L309.929 358.733L311.747 358.29ZM317.751 356.827L320.098 366.457L318.271 366.902L315.925 357.272L317.751 356.827ZM326.081 365.209C325.139 365.439 324.274 365.434 323.486 365.194C322.697 364.954 322.026 364.509 321.472 363.859C320.923 363.202 320.527 362.377 320.285 361.383C320.044 360.396 320.013 359.482 320.192 358.641C320.376 357.799 320.747 357.088 321.305 356.508C321.868 355.921 322.597 355.518 323.493 355.3C324.039 355.167 324.589 355.127 325.143 355.18C325.698 355.234 326.226 355.403 326.727 355.689C327.229 355.974 327.672 356.395 328.057 356.953C328.448 357.508 328.749 358.22 328.961 359.087L329.124 359.759L321.466 361.625L321.124 360.221L327.817 358.59L327.061 359.267C326.916 358.675 326.697 358.175 326.403 357.766C326.109 357.357 325.747 357.071 325.318 356.908C324.893 356.738 324.411 356.719 323.871 356.85C323.331 356.982 322.9 357.224 322.578 357.576C322.262 357.927 322.056 358.339 321.958 358.813C321.861 359.287 321.874 359.777 321.997 360.282L322.23 361.238C322.391 361.898 322.642 362.43 322.984 362.834C323.325 363.237 323.729 363.51 324.196 363.652C324.668 363.792 325.177 363.796 325.723 363.663C326.079 363.576 326.388 363.446 326.65 363.273C326.917 363.098 327.132 362.882 327.294 362.623C327.456 362.365 327.555 362.07 327.59 361.739L329.446 361.642C329.429 362.194 329.287 362.709 329.02 363.188C328.753 363.667 328.371 364.082 327.873 364.435C327.379 364.78 326.782 365.038 326.081 365.209ZM332.346 367.287L329.122 354.056L330.931 353.615L331.313 355.183L331.468 355.145C331.534 354.916 331.635 354.645 331.772 354.332C331.914 354.017 332.145 353.718 332.465 353.433C332.784 353.142 333.239 352.925 333.83 352.781C334.605 352.592 335.342 352.619 336.04 352.863C336.744 353.105 337.362 353.554 337.892 354.209C338.423 354.865 338.816 355.715 339.071 356.76C339.323 357.794 339.367 358.726 339.205 359.557C339.04 360.381 338.703 361.069 338.192 361.619C337.686 362.162 337.042 362.529 336.261 362.719C335.681 362.861 335.181 362.879 334.76 362.775C334.343 362.664 333.997 362.502 333.72 362.289C333.449 362.076 333.231 361.882 333.067 361.709L332.964 361.734L334.207 366.834L332.346 367.287ZM335.468 361.225C336.025 361.089 336.454 360.826 336.754 360.437C337.055 360.047 337.237 359.573 337.302 359.016C337.372 358.452 337.328 357.848 337.171 357.205C337.016 356.567 336.782 356.019 336.469 355.56C336.157 355.101 335.778 354.77 335.333 354.568C334.889 354.366 334.385 354.334 333.822 354.471C333.277 354.604 332.851 354.857 332.547 355.229C332.241 355.596 332.052 356.055 331.979 356.608C331.912 357.154 331.96 357.763 332.123 358.435C332.287 359.107 332.529 359.674 332.849 360.138C333.168 360.602 333.55 360.931 333.993 361.128C334.442 361.322 334.934 361.355 335.468 361.225ZM341.599 361.218L339.252 351.587L343.232 350.618C344.319 350.359 345.237 350.384 345.988 350.694C346.738 350.998 347.206 351.547 347.393 352.341C347.536 352.903 347.467 353.391 347.185 353.807C346.901 354.216 346.481 354.553 345.925 354.816C346.361 354.759 346.782 354.79 347.189 354.91C347.601 355.028 347.959 355.236 348.262 355.533C348.57 355.823 348.782 356.207 348.899 356.683C349.023 357.194 348.999 357.681 348.825 358.143C348.656 358.598 348.351 358.995 347.911 359.333C347.47 359.672 346.897 359.927 346.19 360.099L341.599 361.218ZM342.972 359.213L345.806 358.523C346.267 358.417 346.603 358.222 346.814 357.94C347.023 357.651 347.079 357.318 346.981 356.941C346.878 356.491 346.663 356.173 346.337 355.984C346.01 355.79 345.617 355.749 345.157 355.861L342.323 356.552L342.972 359.213ZM341.99 355.182L344.229 354.636C344.756 354.502 345.142 354.289 345.388 353.998C345.638 353.7 345.714 353.362 345.615 352.984C345.53 352.61 345.31 352.356 344.955 352.223C344.599 352.085 344.154 352.081 343.62 352.211L341.398 352.753L341.99 355.182ZM350.718 352.316L353.518 351.634C354.688 351.342 355.66 351.413 356.435 351.845C357.215 352.275 357.72 352.952 357.951 353.875C358.098 354.478 358.086 355.053 357.915 355.599C357.744 356.146 357.42 356.627 356.943 357.041C356.465 357.45 355.835 357.749 355.054 357.939L350.85 358.964L348.504 349.333L350.321 348.89L352.273 356.901L354.66 356.32C355.194 356.19 355.599 355.945 355.877 355.585C356.153 355.22 356.24 354.815 356.138 354.372C356.019 353.908 355.751 353.572 355.335 353.363C354.919 353.154 354.445 353.117 353.912 353.253L351.113 353.935L350.718 352.316ZM360.094 356.711L357.747 347.081L359.607 346.627L361.954 356.258L360.094 356.711Z" fill="white"/>
<path opacity="0.8" d="M73.3973 188.908C67.0293 189.465 63.8452 189.743 61.2806 190.63C53.6082 193.281 48.019 199.942 46.7404 207.958C46.313 210.637 46.5917 213.822 47.1488 220.189C47.402 223.084 47.5288 224.531 47.9316 225.697C49.1367 229.184 52.1643 231.725 55.8081 232.306C57.0261 232.5 58.4733 232.374 61.3678 232.121L303.319 210.953C304.341 210.863 304.852 210.819 305.282 210.762C315.509 209.416 323.012 200.475 322.562 190.169C322.543 189.735 322.498 189.224 322.408 188.202C322.319 187.18 322.275 186.669 322.218 186.239C320.872 176.012 311.931 168.509 301.625 168.959C301.191 168.978 300.68 169.023 299.658 169.112L73.3973 188.908Z" fill="#D4C5FF"/>
<path d="M279.992 193.272L280.816 202.69L279.675 202.79L278.956 194.567L278.901 194.572L276.735 196.3L276.633 195.141L278.851 193.371L279.992 193.272ZM286.294 202.341C285.662 202.396 285.094 202.333 284.59 202.152C284.089 201.967 283.686 201.688 283.382 201.317C283.077 200.942 282.904 200.499 282.863 199.99C282.825 199.592 282.871 199.217 283.001 198.866C283.13 198.512 283.323 198.209 283.579 197.958C283.838 197.704 284.137 197.531 284.475 197.439L284.47 197.384C284.009 197.307 283.628 197.086 283.327 196.72C283.026 196.351 282.855 195.916 282.815 195.416C282.77 194.938 282.853 194.5 283.066 194.101C283.278 193.702 283.589 193.376 283.999 193.12C284.413 192.865 284.895 192.713 285.447 192.665C285.993 192.617 286.49 192.683 286.938 192.863C287.386 193.043 287.75 193.311 288.028 193.667C288.309 194.022 288.472 194.439 288.517 194.917C288.558 195.417 288.46 195.875 288.225 196.291C287.992 196.704 287.66 196.988 287.229 197.143L287.234 197.198C287.58 197.23 287.899 197.348 288.192 197.554C288.485 197.758 288.727 198.022 288.919 198.348C289.111 198.671 289.226 199.032 289.264 199.43C289.306 199.939 289.207 200.405 288.969 200.828C288.734 201.247 288.386 201.591 287.924 201.86C287.466 202.125 286.922 202.286 286.294 202.341ZM286.205 201.329C286.631 201.292 286.993 201.191 287.291 201.026C287.588 200.86 287.81 200.645 287.957 200.379C288.104 200.113 288.164 199.811 288.137 199.473C288.103 199.118 287.984 198.812 287.779 198.555C287.574 198.297 287.309 198.104 286.982 197.975C286.659 197.846 286.298 197.799 285.899 197.834C285.498 197.869 285.146 197.979 284.844 198.163C284.545 198.346 284.317 198.582 284.16 198.871C284.006 199.16 283.946 199.482 283.98 199.837C284.006 200.174 284.113 200.462 284.301 200.699C284.492 200.935 284.749 201.109 285.074 201.219C285.399 201.33 285.776 201.367 286.205 201.329ZM285.814 196.859C286.151 196.829 286.444 196.736 286.693 196.578C286.945 196.42 287.135 196.213 287.264 195.958C287.393 195.703 287.445 195.412 287.42 195.087C287.389 194.769 287.29 194.498 287.122 194.274C286.954 194.048 286.734 193.882 286.462 193.776C286.19 193.667 285.88 193.628 285.534 193.658C285.181 193.689 284.879 193.782 284.627 193.937C284.374 194.089 284.187 194.29 284.063 194.542C283.94 194.791 283.894 195.074 283.925 195.393C283.95 195.718 284.047 195.996 284.215 196.225C284.387 196.454 284.61 196.624 284.886 196.736C285.161 196.848 285.471 196.889 285.814 196.859ZM291.691 200.525C291.464 200.545 291.262 200.48 291.085 200.332C290.909 200.184 290.81 199.996 290.79 199.769C290.771 199.542 290.835 199.341 290.983 199.164C291.131 198.987 291.319 198.889 291.546 198.869C291.773 198.849 291.975 198.913 292.151 199.062C292.328 199.21 292.426 199.398 292.446 199.624C292.459 199.775 292.433 199.916 292.367 200.048C292.305 200.181 292.214 200.29 292.095 200.378C291.979 200.462 291.844 200.511 291.691 200.525ZM291.274 195.76C291.047 195.78 290.845 195.716 290.668 195.568C290.492 195.419 290.393 195.232 290.374 195.005C290.354 194.778 290.418 194.576 290.566 194.399C290.715 194.223 290.902 194.124 291.129 194.105C291.356 194.085 291.558 194.149 291.734 194.297C291.911 194.446 292.009 194.633 292.029 194.86C292.042 195.01 292.016 195.152 291.95 195.284C291.888 195.416 291.797 195.526 291.678 195.614C291.562 195.698 291.427 195.747 291.274 195.76ZM297.249 201.382C296.709 201.43 296.214 201.365 295.763 201.188C295.312 201.011 294.939 200.747 294.646 200.396C294.353 200.045 294.173 199.631 294.107 199.155L295.21 199.058C295.29 199.481 295.514 199.816 295.882 200.065C296.253 200.311 296.679 200.413 297.16 200.371C297.546 200.337 297.882 200.216 298.167 200.009C298.454 199.802 298.67 199.533 298.814 199.202C298.961 198.868 299.017 198.5 298.982 198.098C298.946 197.687 298.823 197.329 298.614 197.023C298.408 196.713 298.14 196.479 297.811 196.319C297.482 196.159 297.117 196.096 296.715 196.128C296.426 196.15 296.134 196.22 295.839 196.339C295.543 196.454 295.303 196.591 295.119 196.749L294.041 196.714L294.206 192.028L299.099 191.6L299.188 192.612L295.251 192.956L295.163 195.763L295.218 195.758C295.398 195.588 295.629 195.439 295.911 195.313C296.194 195.186 296.493 195.109 296.809 195.081C297.385 195.031 297.911 195.124 298.386 195.36C298.863 195.594 299.252 195.937 299.551 196.389C299.853 196.842 300.031 197.373 300.084 197.983C300.137 198.584 300.049 199.132 299.82 199.628C299.594 200.121 299.259 200.524 298.814 200.838C298.368 201.148 297.847 201.33 297.249 201.382ZM305.053 200.7C304.666 200.727 304.273 200.687 303.874 200.58C303.476 200.473 303.102 200.266 302.754 199.96C302.406 199.651 302.11 199.218 301.867 198.661C301.623 198.102 301.463 197.387 301.387 196.516C301.314 195.682 301.328 194.936 301.428 194.279C301.528 193.618 301.707 193.054 301.966 192.587C302.224 192.116 302.553 191.747 302.953 191.481C303.356 191.214 303.823 191.057 304.353 191.011C304.881 190.964 305.359 191.029 305.788 191.205C306.221 191.377 306.583 191.639 306.877 191.99C307.17 192.341 307.376 192.757 307.496 193.238L306.373 193.336C306.232 192.922 305.999 192.589 305.674 192.336C305.349 192.084 304.939 191.979 304.442 192.022C303.712 192.086 303.165 192.454 302.801 193.125C302.439 193.796 302.307 194.705 302.404 195.852L302.478 195.846C302.627 195.57 302.811 195.33 303.031 195.126C303.254 194.918 303.505 194.75 303.784 194.624C304.064 194.498 304.364 194.42 304.686 194.392C305.226 194.345 305.731 194.437 306.203 194.667C306.673 194.895 307.065 195.233 307.376 195.682C307.686 196.127 307.868 196.653 307.922 197.26C307.973 197.843 307.889 198.388 307.671 198.895C307.452 199.399 307.119 199.814 306.672 200.141C306.228 200.464 305.688 200.65 305.053 200.7ZM304.964 199.688C305.351 199.654 305.689 199.527 305.978 199.307C306.271 199.087 306.492 198.807 306.641 198.466C306.794 198.125 306.853 197.755 306.818 197.357C306.784 196.968 306.665 196.621 306.463 196.317C306.263 196.011 306.003 195.775 305.683 195.612C305.366 195.448 305.014 195.383 304.628 195.417C304.336 195.442 304.07 195.524 303.829 195.663C303.587 195.798 303.38 195.974 303.208 196.19C303.038 196.405 302.911 196.647 302.826 196.914C302.741 197.178 302.711 197.45 302.736 197.733C302.768 198.107 302.886 198.448 303.089 198.758C303.296 199.068 303.561 199.309 303.885 199.481C304.212 199.653 304.572 199.722 304.964 199.688Z" fill="#421DFF"/>
<path d="M67.3546 217.543L65.515 217.704L69.5679 202.749L71.3791 202.59L77.9674 216.615L76.1279 216.776L70.7306 204.957L70.6174 204.967L67.3546 217.543ZM67.5386 211.824L74.9534 211.175L75.0896 212.732L67.6748 213.38L67.5386 211.824ZM80.8187 216.366L78.9792 216.526L83.032 201.571L84.8433 201.412L91.4316 215.437L89.5921 215.598L84.1948 203.779L84.0816 203.789L80.8187 216.366ZM81.0028 210.646L88.4176 209.997L88.5538 211.554L81.1389 212.202L81.0028 210.646ZM94.2829 215.188L92.4434 215.348L96.4962 200.393L98.3075 200.234L104.896 214.259L103.056 214.42L97.659 202.601L97.5458 202.611L94.2829 215.188ZM94.467 209.468L101.882 208.819L102.018 210.376L94.6031 211.024L94.467 209.468ZM107.747 214.01L105.908 214.171L109.96 199.215L111.772 199.056L118.36 213.081L116.52 213.242L111.123 201.423L111.01 201.433L107.747 214.01ZM107.931 208.29L115.346 207.641L115.482 209.198L108.067 209.847L107.931 208.29ZM121.211 212.832L119.372 212.993L123.425 198.037L125.236 197.879L131.824 211.903L129.985 212.064L124.587 200.245L124.474 200.255L121.211 212.832ZM121.395 207.112L128.81 206.463L128.946 208.02L121.532 208.669L121.395 207.112ZM134.676 211.654L132.836 211.815L136.889 196.859L138.7 196.701L145.288 210.725L143.449 210.886L138.052 199.067L137.938 199.077L134.676 211.654ZM134.86 205.934L142.274 205.285L142.411 206.842L134.996 207.491L134.86 205.934ZM148.14 210.476L146.3 210.637L150.353 195.681L152.164 195.523L158.753 209.547L156.913 209.708L151.516 197.889L151.403 197.899L148.14 210.476ZM148.324 204.756L155.739 204.107L155.875 205.664L148.46 206.313L148.324 204.756ZM161.604 209.298L159.764 209.459L163.817 194.503L165.628 194.345L172.217 208.369L170.377 208.53L164.98 196.711L164.867 196.721L161.604 209.298ZM161.788 203.578L169.203 202.929L169.339 204.486L161.924 205.135L161.788 203.578ZM175.068 208.12L173.229 208.281L177.281 193.325L179.093 193.167L185.681 207.191L183.841 207.352L178.444 195.533L178.331 195.543L175.068 208.12ZM175.252 202.4L182.667 201.751L182.803 203.308L175.388 203.957L175.252 202.4ZM188.532 206.942L186.693 207.103L190.746 192.147L192.557 191.989L199.145 206.013L197.306 206.174L191.908 194.355L191.795 194.365L188.532 206.942ZM188.716 201.222L196.131 200.573L196.267 202.13L188.853 202.779L188.716 201.222ZM201.996 205.764L200.157 205.925L204.21 190.969L206.021 190.811L212.609 204.835L210.77 204.996L205.373 193.177L205.259 193.187L201.996 205.764ZM202.181 200.044L209.595 199.395L209.732 200.952L202.317 201.601L202.181 200.044ZM215.461 204.586L213.621 204.747L217.674 189.791L219.485 189.633L226.074 203.657L224.234 203.818L218.837 191.999L218.724 192.009L215.461 204.586ZM215.645 198.866L223.06 198.218L223.196 199.774L215.781 200.423L215.645 198.866ZM228.925 203.408L227.085 203.569L231.138 188.613L232.949 188.455L239.538 202.479L237.698 202.64L232.301 190.821L232.188 190.831L228.925 203.408ZM229.109 197.688L236.524 197.04L236.66 198.596L229.245 199.245L229.109 197.688ZM242.389 202.23L240.55 202.391L244.602 187.435L246.414 187.277L253.002 201.301L251.162 201.462L245.765 189.643L245.652 189.653L242.389 202.23ZM242.573 196.51L249.988 195.862L250.124 197.418L242.709 198.067L242.573 196.51ZM255.853 201.052L254.014 201.213L258.067 186.257L259.878 186.099L266.466 200.123L264.627 200.284L259.229 188.466L259.116 188.475L255.853 201.052ZM256.037 195.332L263.452 194.684L263.588 196.24L256.173 196.889L256.037 195.332Z" fill="black"/>
<path opacity="0.8" d="M64.6675 236.851C59.0883 237.339 56.2985 237.583 54.2625 238.855C52.4717 239.974 51.081 241.631 50.2899 243.589C49.3906 245.815 49.6347 248.605 50.1229 254.184L50.9944 264.146C51.4825 269.726 51.7265 272.515 52.9987 274.551C54.1178 276.342 55.7751 277.733 57.7331 278.524C59.9591 279.423 62.7488 279.179 68.328 278.691L283.506 259.865C284.528 259.776 285.039 259.731 285.47 259.675C295.697 258.328 303.199 249.387 302.749 239.082C302.73 238.648 302.685 238.137 302.596 237.115C302.506 236.093 302.462 235.582 302.405 235.151C301.059 224.924 292.118 217.422 281.812 217.872C281.379 217.891 280.868 217.936 279.846 218.025L64.6675 236.851Z" fill="#D4C5FF"/>
<path d="M260.283 243.372L261.107 252.791L259.966 252.891L259.247 244.668L259.192 244.673L257.026 246.401L256.924 245.242L259.142 243.472L260.283 243.372ZM266.585 252.441C265.953 252.497 265.385 252.434 264.881 252.252C264.38 252.067 263.977 251.789 263.673 251.417C263.368 251.042 263.195 250.6 263.154 250.091C263.116 249.693 263.162 249.318 263.292 248.967C263.421 248.612 263.614 248.31 263.87 248.059C264.129 247.804 264.428 247.631 264.766 247.54L264.761 247.485C264.3 247.408 263.919 247.186 263.618 246.82C263.317 246.451 263.146 246.017 263.106 245.517C263.061 245.039 263.144 244.6 263.357 244.202C263.569 243.803 263.88 243.476 264.29 243.221C264.704 242.965 265.186 242.814 265.738 242.765C266.284 242.718 266.781 242.784 267.229 242.964C267.677 243.144 268.041 243.412 268.319 243.768C268.6 244.123 268.763 244.54 268.808 245.018C268.849 245.518 268.752 245.976 268.516 246.392C268.283 246.804 267.951 247.088 267.52 247.243L267.525 247.299C267.871 247.33 268.19 247.449 268.483 247.655C268.776 247.858 269.018 248.123 269.21 248.449C269.402 248.772 269.517 249.132 269.555 249.531C269.597 250.04 269.498 250.506 269.26 250.928C269.025 251.347 268.677 251.691 268.215 251.96C267.757 252.226 267.213 252.386 266.585 252.441ZM266.496 251.43C266.922 251.392 267.284 251.291 267.582 251.126C267.879 250.961 268.101 250.745 268.248 250.479C268.395 250.213 268.455 249.911 268.428 249.574C268.394 249.218 268.275 248.912 268.07 248.655C267.865 248.398 267.6 248.205 267.273 248.076C266.95 247.947 266.589 247.9 266.19 247.934C265.789 247.97 265.437 248.079 265.135 248.263C264.836 248.447 264.608 248.683 264.451 248.972C264.297 249.26 264.237 249.582 264.271 249.937C264.297 250.275 264.404 250.562 264.592 250.799C264.783 251.036 265.04 251.209 265.365 251.32C265.69 251.431 266.067 251.467 266.496 251.43ZM266.105 246.959C266.442 246.93 266.735 246.836 266.984 246.679C267.236 246.521 267.426 246.314 267.555 246.059C267.684 245.803 267.736 245.513 267.711 245.188C267.68 244.869 267.581 244.598 267.413 244.375C267.245 244.149 267.025 243.983 266.753 243.877C266.481 243.768 266.171 243.728 265.825 243.759C265.472 243.789 265.17 243.882 264.918 244.037C264.665 244.189 264.478 244.391 264.355 244.643C264.231 244.891 264.185 245.175 264.216 245.494C264.241 245.819 264.338 246.096 264.506 246.325C264.678 246.555 264.901 246.725 265.177 246.837C265.452 246.949 265.762 246.99 266.105 246.959ZM271.982 250.625C271.755 250.645 271.553 250.581 271.376 250.433C271.2 250.284 271.101 250.097 271.081 249.87C271.062 249.643 271.126 249.441 271.274 249.265C271.422 249.088 271.61 248.99 271.837 248.97C272.064 248.95 272.266 249.014 272.442 249.162C272.619 249.311 272.717 249.498 272.737 249.725C272.75 249.875 272.724 250.017 272.658 250.149C272.596 250.281 272.505 250.391 272.386 250.479C272.27 250.563 272.135 250.612 271.982 250.625ZM271.565 245.861C271.338 245.881 271.136 245.816 270.959 245.668C270.783 245.52 270.684 245.332 270.665 245.105C270.645 244.879 270.709 244.677 270.857 244.5C271.006 244.323 271.193 244.225 271.42 244.205C271.647 244.185 271.849 244.25 272.025 244.398C272.202 244.546 272.3 244.734 272.32 244.961C272.333 245.111 272.307 245.252 272.241 245.385C272.179 245.517 272.088 245.627 271.969 245.714C271.853 245.799 271.718 245.847 271.565 245.861ZM277.54 251.483C277 251.53 276.505 251.465 276.054 251.289C275.603 251.112 275.23 250.848 274.937 250.496C274.644 250.145 274.464 249.732 274.398 249.255L275.501 249.159C275.581 249.581 275.805 249.917 276.173 250.166C276.544 250.412 276.97 250.513 277.451 250.471C277.838 250.437 278.173 250.317 278.458 250.11C278.745 249.902 278.961 249.633 279.105 249.302C279.252 248.968 279.308 248.6 279.273 248.199C279.237 247.788 279.114 247.429 278.905 247.123C278.699 246.814 278.431 246.579 278.102 246.42C277.773 246.26 277.408 246.196 277.006 246.228C276.717 246.25 276.425 246.321 276.13 246.439C275.834 246.555 275.594 246.692 275.41 246.85L274.332 246.814L274.497 242.129L279.39 241.701L279.479 242.712L275.542 243.057L275.454 245.863L275.509 245.859C275.689 245.688 275.92 245.54 276.202 245.413C276.485 245.287 276.784 245.21 277.1 245.182C277.676 245.132 278.202 245.225 278.677 245.461C279.154 245.694 279.543 246.037 279.842 246.49C280.144 246.942 280.322 247.474 280.375 248.084C280.428 248.685 280.34 249.233 280.111 249.729C279.885 250.221 279.55 250.624 279.105 250.938C278.659 251.249 278.138 251.431 277.54 251.483ZM285.344 250.8C284.957 250.828 284.564 250.788 284.166 250.681C283.767 250.574 283.393 250.367 283.045 250.061C282.697 249.751 282.401 249.318 282.158 248.762C281.914 248.202 281.754 247.487 281.678 246.616C281.605 245.783 281.619 245.037 281.719 244.379C281.819 243.719 281.998 243.155 282.257 242.687C282.515 242.217 282.844 241.848 283.244 241.581C283.647 241.314 284.114 241.158 284.644 241.111C285.172 241.065 285.65 241.13 286.079 241.305C286.512 241.478 286.874 241.739 287.168 242.091C287.461 242.442 287.667 242.858 287.787 243.339L286.664 243.437C286.523 243.023 286.29 242.69 285.965 242.437C285.64 242.184 285.23 242.079 284.733 242.123C284.003 242.187 283.456 242.554 283.092 243.226C282.73 243.897 282.598 244.806 282.695 245.953L282.769 245.946C282.918 245.671 283.102 245.431 283.322 245.226C283.545 245.018 283.796 244.851 284.075 244.725C284.355 244.598 284.655 244.521 284.977 244.493C285.517 244.446 286.022 244.537 286.494 244.768C286.965 244.995 287.356 245.334 287.667 245.782C287.977 246.228 288.159 246.754 288.213 247.361C288.264 247.943 288.18 248.488 287.962 248.996C287.743 249.5 287.41 249.915 286.963 250.241C286.519 250.565 285.979 250.751 285.344 250.8ZM285.255 249.788C285.642 249.755 285.98 249.628 286.269 249.408C286.562 249.187 286.783 248.907 286.932 248.567C287.085 248.226 287.144 247.856 287.109 247.457C287.075 247.068 286.956 246.722 286.754 246.418C286.554 246.111 286.294 245.876 285.974 245.712C285.657 245.549 285.305 245.484 284.919 245.517C284.627 245.543 284.361 245.625 284.12 245.763C283.878 245.899 283.671 246.074 283.499 246.29C283.329 246.506 283.202 246.747 283.117 247.014C283.032 247.278 283.002 247.551 283.027 247.833C283.059 248.207 283.177 248.549 283.38 248.859C283.587 249.168 283.852 249.409 284.176 249.582C284.503 249.754 284.863 249.823 285.255 249.788Z" fill="#421DFF"/>
<path d="M68.932 251.553L68.7958 249.996L79.6634 249.045L79.7995 250.602L75.2431 251L76.3746 263.934L74.62 264.087L73.4884 251.154L68.932 251.553ZM84.2495 256.258L87.3626 255.986C88.6361 255.874 89.6384 256.112 90.3694 256.699C91.1005 257.287 91.5093 258.076 91.596 259.066C91.6529 259.717 91.5538 260.322 91.2986 260.882C91.0429 261.436 90.6364 261.897 90.0792 262.264C89.5216 262.627 88.8182 262.845 87.9692 262.92L83.4127 263.318L82.4619 252.451L84.1317 252.305L84.9463 261.616L87.833 261.363C88.4934 261.305 89.0205 261.083 89.4145 260.697C89.8085 260.311 89.9815 259.844 89.9337 259.297C89.8833 258.722 89.63 258.271 89.1737 257.945C88.7174 257.619 88.1591 257.485 87.4987 257.542L84.3856 257.815L84.2495 256.258ZM93.6294 262.424L92.6786 251.557L94.3484 251.411L95.2991 262.278L93.6294 262.424ZM103.959 261.521L103.008 250.653L111.555 249.905L112.506 260.773L110.836 260.919L110.022 251.608L104.814 252.063L105.629 261.375L103.959 261.521ZM115.912 264.581L114.605 249.638L116.218 249.497L116.369 251.224L116.567 251.206C116.673 251.007 116.822 250.752 117.013 250.44C117.209 250.124 117.502 249.832 117.892 249.565C118.287 249.293 118.838 249.126 119.545 249.064C120.46 248.984 121.287 249.142 122.025 249.538C122.763 249.935 123.365 250.536 123.829 251.341C124.294 252.146 124.577 253.12 124.677 254.261C124.777 255.412 124.669 256.427 124.351 257.305C124.033 258.179 123.548 258.878 122.895 259.401C122.241 259.919 121.462 260.217 120.556 260.297C119.858 260.358 119.289 260.291 118.849 260.097C118.409 259.898 118.062 259.659 117.81 259.382C117.557 259.1 117.361 258.865 117.221 258.678L117.079 258.69L117.582 264.435L115.912 264.581ZM116.722 254.929C116.793 255.749 116.977 256.463 117.273 257.069C117.568 257.671 117.962 258.128 118.455 258.442C118.948 258.75 119.529 258.875 120.199 258.817C120.897 258.755 121.463 258.521 121.898 258.112C122.337 257.698 122.647 257.167 122.828 256.519C123.013 255.866 123.072 255.153 123.004 254.379C122.938 253.615 122.759 252.937 122.47 252.344C122.185 251.746 121.791 251.289 121.288 250.972C120.789 250.649 120.186 250.519 119.478 250.581C118.799 250.64 118.243 250.862 117.811 251.247C117.379 251.627 117.071 252.134 116.889 252.768C116.706 253.397 116.651 254.117 116.722 254.929ZM132.131 259.284C131.15 259.37 130.269 259.212 129.488 258.809C128.711 258.407 128.078 257.804 127.59 257.001C127.106 256.197 126.815 255.234 126.717 254.111C126.618 252.979 126.737 251.973 127.073 251.093C127.414 250.212 127.932 249.506 128.627 248.975C129.327 248.443 130.167 248.134 131.148 248.049C132.13 247.963 133.008 248.121 133.785 248.524C134.567 248.926 135.199 249.531 135.684 250.34C136.173 251.148 136.467 252.118 136.566 253.25C136.664 254.372 136.542 255.371 136.2 256.247C135.864 257.123 135.345 257.826 134.646 258.358C133.951 258.89 133.113 259.198 132.131 259.284ZM132 257.784C132.745 257.719 133.342 257.474 133.79 257.05C134.237 256.626 134.55 256.092 134.726 255.45C134.903 254.807 134.959 254.122 134.896 253.396C134.832 252.669 134.657 252.003 134.371 251.395C134.085 250.788 133.685 250.312 133.17 249.968C132.655 249.623 132.025 249.483 131.28 249.548C130.534 249.614 129.938 249.861 129.491 250.29C129.044 250.718 128.732 251.257 128.556 251.904C128.379 252.552 128.323 253.239 128.387 253.965C128.45 254.692 128.625 255.356 128.91 255.958C129.196 256.561 129.596 257.032 130.111 257.372C130.625 257.712 131.255 257.849 132 257.784ZM144.02 258.244C143.001 258.333 142.102 258.169 141.325 257.753C140.547 257.336 139.923 256.723 139.453 255.913C138.982 255.103 138.7 254.156 138.605 253.071C138.508 251.967 138.626 250.976 138.958 250.096C139.294 249.211 139.807 248.498 140.496 247.958C141.19 247.412 142.027 247.097 143.008 247.011C143.772 246.944 144.474 247.025 145.111 247.255C145.749 247.484 146.286 247.836 146.722 248.311C147.159 248.787 147.453 249.36 147.607 250.031L145.937 250.177C145.767 249.693 145.445 249.279 144.973 248.935C144.506 248.586 143.904 248.444 143.168 248.508C142.517 248.565 141.961 248.785 141.5 249.168C141.044 249.545 140.705 250.052 140.486 250.689C140.27 251.321 140.198 252.048 140.27 252.868C140.343 253.708 140.539 254.428 140.858 255.027C141.181 255.626 141.601 256.077 142.117 256.379C142.638 256.68 143.228 256.802 143.888 256.744C144.322 256.706 144.71 256.596 145.05 256.414C145.391 256.232 145.671 255.989 145.892 255.685C146.112 255.38 146.257 255.025 146.326 254.62L147.996 254.474C147.958 255.124 147.775 255.722 147.447 256.269C147.124 256.81 146.671 257.259 146.089 257.614C145.511 257.964 144.822 258.174 144.02 258.244ZM149.044 248.194L148.907 246.637L157.737 245.865L157.873 247.421L154.308 247.733L155.122 257.044L153.452 257.191L152.638 247.879L149.044 248.194ZM164.994 256.409C164.013 256.495 163.132 256.337 162.35 255.934C161.574 255.532 160.941 254.929 160.453 254.126C159.969 253.322 159.678 252.359 159.58 251.236C159.481 250.104 159.599 249.098 159.936 248.218C160.277 247.337 160.795 246.631 161.49 246.1C162.19 245.568 163.03 245.259 164.011 245.173C164.992 245.088 165.871 245.246 166.648 245.649C167.429 246.051 168.062 246.656 168.546 247.464C169.035 248.272 169.329 249.242 169.428 250.374C169.527 251.497 169.405 252.496 169.063 253.372C168.726 254.248 168.208 254.951 167.508 255.483C166.813 256.014 165.975 256.323 164.994 256.409ZM164.863 254.909C165.608 254.844 166.205 254.599 166.652 254.175C167.1 253.751 167.412 253.217 167.589 252.574C167.766 251.932 167.822 251.247 167.759 250.521C167.695 249.794 167.52 249.127 167.234 248.52C166.948 247.913 166.548 247.437 166.033 247.093C165.518 246.748 164.888 246.608 164.142 246.673C163.397 246.739 162.801 246.986 162.354 247.414C161.906 247.843 161.595 248.382 161.418 249.029C161.242 249.677 161.186 250.364 161.249 251.09C161.313 251.816 161.487 252.481 161.773 253.083C162.059 253.686 162.459 254.157 162.973 254.497C163.488 254.837 164.118 254.974 164.863 254.909ZM177.089 255.123L176.953 253.566L177.349 253.531C177.674 253.503 177.94 253.415 178.146 253.269C178.351 253.118 178.506 252.874 178.609 252.537C178.717 252.195 178.781 251.728 178.801 251.137C178.825 250.541 178.813 249.786 178.767 248.873L178.544 244.045L185.789 243.411L186.74 254.278L185.07 254.424L184.255 245.113L180.265 245.462L180.434 249.355C180.474 250.249 180.463 251.042 180.4 251.732C180.341 252.416 180.209 252.998 180.004 253.477C179.803 253.956 179.512 254.328 179.132 254.595C178.751 254.861 178.259 255.02 177.655 255.073L177.089 255.123ZM190.846 258.026C190.563 258.05 190.309 258.049 190.083 258.021C189.857 257.998 189.7 257.969 189.612 257.934L189.908 256.425C190.322 256.493 190.684 256.5 190.993 256.444C191.302 256.389 191.565 256.225 191.784 255.954C192.008 255.688 192.197 255.269 192.352 254.7L192.589 253.824L187.614 243.251L189.426 243.093L193.183 251.49L193.296 251.48L195.539 242.558L197.35 242.399L193.826 255.255C193.668 255.835 193.451 256.322 193.177 256.717C192.903 257.116 192.571 257.423 192.181 257.638C191.796 257.852 191.351 257.981 190.846 258.026ZM207.6 241.502L208.551 252.37L206.881 252.516L205.93 241.649L207.6 241.502ZM207.402 246.738L207.538 248.295C207.173 248.47 206.809 248.627 206.446 248.768C206.083 248.905 205.698 249.022 205.293 249.119C204.888 249.211 204.44 249.279 203.949 249.322C202.718 249.43 201.701 249.184 200.898 248.584C200.099 247.983 199.641 247.018 199.525 245.688L199.22 242.207L200.89 242.061L201.195 245.542C201.243 246.099 201.39 246.547 201.633 246.887C201.877 247.227 202.188 247.468 202.566 247.611C202.945 247.753 203.36 247.805 203.813 247.765C204.521 247.704 205.154 247.584 205.714 247.407C206.278 247.224 206.841 247.001 207.402 246.738ZM210.664 241.234L212.333 241.088L213.148 250.399L217.252 250.04L216.437 240.729L218.107 240.583L218.921 249.894L223.025 249.535L222.21 240.224L223.88 240.078L224.831 250.946L211.614 252.102L210.664 241.234ZM229.335 248.071L233.835 239.207L235.76 239.039L236.71 249.906L235.041 250.052L234.305 241.647L229.833 250.508L227.88 250.679L226.93 239.811L228.599 239.665L229.335 248.071ZM241.223 247.031L245.723 238.167L247.648 237.999L248.599 248.866L246.929 249.012L246.193 240.607L241.721 249.468L239.769 249.639L238.818 238.771L240.488 238.625L241.223 247.031ZM244.303 234.641L245.859 234.505C245.926 235.269 245.717 235.917 245.231 236.449C244.745 236.981 244.049 237.287 243.144 237.366C242.252 237.444 241.521 237.263 240.95 236.824C240.384 236.384 240.068 235.782 240.001 235.017L241.557 234.881C241.59 235.249 241.719 235.563 241.946 235.824C242.178 236.084 242.542 236.193 243.037 236.149C243.532 236.106 243.874 235.936 244.062 235.639C244.255 235.342 244.335 235.009 244.303 234.641Z" fill="black"/>
</g>
<defs>
<clipPath id="clip0_1393_7883">
<rect width="1342" height="468" rx="15" fill="white"/>
</clipPath>
</defs>
</svg>
