<svg width="130" height="130" viewBox="0 0 130 130" fill="none" xmlns="http://www.w3.org/2000/svg">
<circle cx="65.0032" cy="64.9757" r="38.775" transform="rotate(-15 65.0032 64.9757)" fill="#952AFF"/>
<path d="M102.457 54.94C100.577 47.925 96.7653 41.5789 91.4552 36.6245L85.8357 42.6474C90.0177 46.5493 93.0199 51.5472 94.5002 57.072L102.457 54.94Z" fill="white"/>
<path d="M75.0389 27.5227C68.0239 25.643 60.622 25.7712 53.6763 27.8927L56.0273 35.5897C61.5313 33.9085 67.3969 33.8069 72.9559 35.2964L75.0389 27.5227Z" fill="white"/>
<path d="M37.453 37.4821C32.3177 42.6175 28.7278 49.0918 27.0922 56.1677L34.9738 57.9895C36.2681 52.3898 39.1091 47.2662 43.1731 43.2022L37.453 37.4821Z" fill="white"/>
<path d="M27.4181 74.936C29.2977 81.951 33.1097 88.2971 38.4198 93.2515L43.9706 87.3021C39.7748 83.3874 36.7628 78.373 35.2776 72.8301L27.4181 74.936Z" fill="white"/>
<path d="M54.967 102.429C61.982 104.309 69.3838 104.181 76.3295 102.059L73.8339 93.8887C68.4185 95.5427 62.6475 95.6427 57.1782 94.1772L54.967 102.429Z" fill="white"/>
<path d="M92.3532 92.6665C97.4885 87.5312 101.27 80.6869 102.906 73.611L94.4615 71.7397C93.1805 77.2815 90.3689 82.3522 86.3469 86.3741L92.3532 92.6665Z" fill="white"/>
<circle cx="64.6675" cy="64.7818" r="30.2824" transform="rotate(-15 64.6675 64.7818)" fill="#952AFF" stroke="white" stroke-width="1.03529"/>
<path d="M58.3157 73.9804C57.9992 74.0652 57.704 74.087 57.4301 74.0458C57.1556 74.0025 56.9213 73.9035 56.7271 73.7489C56.5329 73.5942 56.3976 73.3912 56.3212 73.1398L57.0319 72.9494C57.0794 73.0849 57.1586 73.1918 57.2694 73.2699C57.3802 73.3481 57.5113 73.3972 57.6627 73.4173C57.8157 73.4347 57.9771 73.4207 58.1468 73.3752C58.3313 73.3258 58.4861 73.2495 58.6112 73.1463C58.7364 73.0431 58.8236 72.9243 58.8729 72.7897C58.9238 72.6525 58.929 72.5085 58.8885 72.3575C58.8464 72.2003 58.7695 72.0727 58.6578 71.9745C58.5456 71.8743 58.404 71.8111 58.233 71.785C58.062 71.759 57.8686 71.7749 57.6527 71.8327L57.2533 71.9397L57.0983 71.3612L57.4976 71.2542C57.6695 71.2081 57.8131 71.1359 57.9283 71.0377C58.0435 70.9394 58.1229 70.8249 58.1665 70.6941C58.2122 70.5628 58.2148 70.4217 58.1744 70.2708C58.1356 70.1261 58.0694 70.0091 57.9758 69.9196C57.8816 69.828 57.768 69.7686 57.6348 69.7413C57.5012 69.712 57.3547 69.7187 57.1954 69.7614C57.0423 69.8024 56.9071 69.8678 56.7897 69.9577C56.6722 70.0476 56.5853 70.1551 56.529 70.2803C56.4742 70.4028 56.4641 70.5369 56.4986 70.6827L55.8163 70.8655C55.7547 70.6102 55.7685 70.3684 55.8578 70.14C55.9487 69.9089 56.0972 69.7085 56.3033 69.5387C56.511 69.3662 56.7584 69.2415 57.0456 69.1646C57.3453 69.0842 57.6199 69.0736 57.8694 69.1325C58.1204 69.1889 58.3317 69.2985 58.5034 69.4614C58.6746 69.6222 58.7908 69.8169 58.852 70.0454C58.9233 70.3116 58.9101 70.5555 58.8122 70.7772C58.7138 70.9968 58.5506 71.172 58.3228 71.3027L58.3321 71.3372C58.6552 71.3023 58.9284 71.3617 59.1515 71.5153C59.3768 71.6684 59.529 71.8927 59.6082 72.1883C59.6773 72.4461 59.6667 72.6961 59.5766 72.9382C59.4885 73.1797 59.3355 73.3926 59.1175 73.5768C58.9016 73.7605 58.6344 73.895 58.3157 73.9804ZM62.3865 70.6216L62.5449 71.2127L60.6426 71.7224L60.4843 71.1313L62.3865 70.6216ZM60.2811 69.6186L61.2231 73.1339L60.5596 73.3117L59.6177 69.7964L60.2811 69.6186ZM62.4727 69.0314L63.4146 72.5467L62.748 72.7253L61.8061 69.21L62.4727 69.0314ZM65.1076 72.174C64.8854 72.2335 64.6732 72.2465 64.471 72.2131C64.2683 72.1776 64.0932 72.0942 63.9457 71.9629C63.7982 71.8317 63.6938 71.6519 63.6326 71.4234C63.5793 71.2242 63.5735 71.0517 63.6152 70.9057C63.6585 70.757 63.735 70.6276 63.8448 70.5173C63.9545 70.407 64.084 70.3116 64.2332 70.2312C64.3824 70.1508 64.538 70.0776 64.7001 70.0118C64.9056 69.932 65.0711 69.8663 65.1966 69.8147C65.3221 69.7631 65.4094 69.7116 65.4585 69.6602C65.5092 69.6062 65.5236 69.5383 65.5017 69.4566L65.4975 69.4409C65.4441 69.2417 65.3463 69.1028 65.2039 69.0242C65.0635 68.9449 64.8833 68.9348 64.6632 68.9938C64.4348 69.055 64.2669 69.1539 64.1597 69.2905C64.0541 69.4244 63.9929 69.5609 63.9763 69.7002L63.2921 69.7251C63.3124 69.4905 63.3785 69.2886 63.4904 69.1193C63.6039 68.9474 63.7478 68.8055 63.9223 68.6936C64.0988 68.5811 64.2919 68.4968 64.5015 68.4406C64.642 68.403 64.7953 68.3799 64.9615 68.3713C65.1271 68.3606 65.2909 68.3807 65.4529 68.4317C65.6163 68.48 65.7637 68.5731 65.895 68.7109C66.0263 68.8487 66.1262 69.0455 66.1947 69.3012L66.8199 71.6343L66.1501 71.8137L66.0212 71.3327L65.9961 71.3394C65.9772 71.4366 65.9342 71.5402 65.8671 71.6503C65.8021 71.7598 65.708 71.8614 65.5848 71.9551C65.4616 72.0488 65.3025 72.1217 65.1076 72.174ZM65.1088 71.5873C65.2995 71.5361 65.4522 71.4559 65.5667 71.3466C65.6806 71.2352 65.7569 71.1092 65.7956 70.9685C65.8343 70.8278 65.8354 70.6894 65.7989 70.5531L65.6767 70.0972C65.6577 70.127 65.6165 70.1616 65.5529 70.2011C65.4894 70.2406 65.4155 70.2795 65.3314 70.3178C65.2473 70.356 65.165 70.3927 65.0845 70.4277C65.0035 70.4607 64.9355 70.4879 64.8806 70.5093C64.7536 70.5636 64.6409 70.6252 64.5426 70.6943C64.4437 70.7612 64.3708 70.8414 64.324 70.9348C64.2787 71.0256 64.2723 71.1318 64.3049 71.2534C64.3504 71.4231 64.4475 71.5342 64.5963 71.5864C64.7451 71.6386 64.9159 71.6389 65.1088 71.5873ZM69.3524 67.188L70.2943 70.7033L69.6246 70.8828L68.6826 67.3675L69.3524 67.188ZM69.5012 68.9005L69.6596 69.4917C69.5655 69.5596 69.4631 69.6263 69.3527 69.6919C69.2443 69.7569 69.1276 69.8162 69.0027 69.8699C68.8793 69.9209 68.7464 69.9655 68.6038 70.0037C68.1699 70.12 67.7967 70.1065 67.4843 69.9633C67.1712 69.818 66.9571 69.5261 66.8418 69.0874L66.5334 67.9366L67.1937 67.7597L67.5021 68.9105C67.548 69.0734 67.6154 69.1992 67.7042 69.2877C67.7931 69.3762 67.8996 69.4297 68.0236 69.4481C68.1497 69.466 68.2903 69.4542 68.4454 69.4126C68.6514 69.3597 68.8371 69.2897 69.0025 69.2027C69.1679 69.1157 69.3342 69.015 69.5012 68.9005ZM72.4424 70.2053C72.1133 70.2934 71.8048 70.2952 71.517 70.2106C71.2313 70.1253 70.9838 69.9647 70.7746 69.7287C70.5674 69.4922 70.4155 69.1936 70.3189 68.8331C70.2212 68.4684 70.2029 68.1318 70.264 67.8233C70.3267 67.5122 70.4604 67.2483 70.6652 67.0317C70.8722 66.8145 71.1402 66.6618 71.4693 66.5736C71.8005 66.4849 72.1089 66.4831 72.3946 66.5683C72.6803 66.6535 72.9281 66.8152 73.1379 67.0533C73.3472 67.2893 73.5007 67.5896 73.5984 67.9544C73.695 68.3149 73.7117 68.6497 73.6484 68.9587C73.5852 69.2677 73.4512 69.5305 73.2464 69.7472C73.0416 69.9638 72.7736 70.1165 72.4424 70.2053ZM72.2882 69.6298C72.5041 69.572 72.6671 69.4677 72.7772 69.3168C72.8873 69.166 72.9509 68.9883 72.968 68.7838C72.9866 68.5766 72.9662 68.3619 72.9066 68.1397C72.846 67.9133 72.7558 67.7151 72.6361 67.5449C72.5184 67.3743 72.3742 67.2511 72.2035 67.1756C72.0327 67.1 71.8393 67.0912 71.6234 67.149C71.4096 67.2063 71.2477 67.3104 71.1376 67.4612C71.0295 67.6115 70.9662 67.7902 70.9476 67.9974C70.929 68.2046 70.95 68.4214 71.0106 68.6477C71.0702 68.8699 71.1598 69.0661 71.2795 69.2362C71.3987 69.4042 71.5426 69.5263 71.7113 69.6024C71.8821 69.678 72.0744 69.6871 72.2882 69.6298ZM74.5579 69.5609L73.616 66.0456L74.2952 65.8636L74.6903 67.3383L75.0205 67.2498L75.7856 65.4642L76.6282 65.2384L75.7322 67.3152L77.589 68.7487L76.7401 68.9762L75.3038 67.8546L74.8605 67.9734L75.2371 69.3789L74.5579 69.5609ZM51.8767 83.9205L50.9348 80.4052L53.7961 79.6385L54.738 83.1538L54.0683 83.3333L53.2848 80.4091L51.7535 80.8194L52.537 83.7436L51.8767 83.9205ZM56.8861 82.6557C56.557 82.7439 56.2485 82.7457 55.9608 82.661C55.6751 82.5758 55.4276 82.4152 55.2183 82.1792C55.0111 81.9427 54.8592 81.6441 54.7626 81.2836C54.6649 80.9189 54.6466 80.5823 54.7078 80.2738C54.7704 79.9627 54.9042 79.6988 55.109 79.4822C55.3159 79.265 55.5839 79.1123 55.913 79.0241C56.2442 78.9354 56.5526 78.9336 56.8383 79.0188C57.124 79.104 57.3718 79.2657 57.5816 79.5038C57.7909 79.7398 57.9444 80.0401 58.0421 80.4049C58.1387 80.7654 58.1554 81.1002 58.0922 81.4092C58.0289 81.7182 57.8949 81.981 57.6901 82.1977C57.4853 82.4143 57.2173 82.567 56.8861 82.6557ZM56.7319 82.0803C56.9478 82.0225 57.1108 81.9182 57.2209 81.7673C57.3311 81.6165 57.3947 81.4388 57.4117 81.2343C57.4304 81.0271 57.4099 80.8124 57.3504 80.5902C57.2897 80.3638 57.1995 80.1656 57.0798 79.9954C56.9622 79.8248 56.818 79.7016 56.6472 79.6261C56.4764 79.5505 56.2831 79.5417 56.0672 79.5995C55.8534 79.6568 55.6914 79.7609 55.5813 79.9117C55.4733 80.062 55.4099 80.2407 55.3913 80.4479C55.3727 80.6551 55.3937 80.8719 55.4544 81.0982C55.5139 81.3204 55.6035 81.5166 55.7233 81.6867C55.8424 81.8547 55.9864 81.9768 56.155 82.0529C56.3258 82.1285 56.5181 82.1376 56.7319 82.0803ZM60.4142 76.4666L60.8126 76.8216C60.7357 76.9455 60.6355 77.0454 60.5121 77.1212C60.3886 77.1969 60.2412 77.2634 60.0701 77.3205C59.8989 77.3776 59.7023 77.4404 59.4802 77.5088C59.2283 77.5831 59.0343 77.6935 58.8983 77.84C58.7639 77.9839 58.6791 78.1661 58.6438 78.3868C58.6086 78.6074 58.6185 78.8709 58.6737 79.1774L58.7177 79.1656C58.7704 78.9179 58.8841 78.7133 59.0588 78.5519C59.235 78.3879 59.451 78.2716 59.7067 78.2031C59.9897 78.1272 60.2586 78.1248 60.5136 78.1958C60.7679 78.2647 60.9925 78.4067 61.1872 78.6219C61.3819 78.8371 61.5262 79.1242 61.6201 79.4832C61.72 79.8474 61.7395 80.1803 61.6788 80.4819C61.6181 80.7835 61.4852 81.0381 61.2803 81.2458C61.0774 81.4529 60.8127 81.6014 60.4863 81.6911C59.9931 81.821 59.5541 81.7589 59.1692 81.5048C58.7838 81.2486 58.5035 80.798 58.3285 80.1529L58.2366 79.8102C58.023 79.0047 58.0056 78.3612 58.1844 77.8797C58.3632 77.3981 58.736 77.0747 59.3028 76.9094C59.4861 76.8557 59.6504 76.8106 59.7956 76.7739C59.9408 76.7373 60.0659 76.697 60.171 76.6531C60.2755 76.6072 60.3566 76.545 60.4142 76.4666ZM60.333 81.1188C60.5252 81.0651 60.6766 80.9717 60.787 80.8388C60.8974 80.7058 60.9665 80.5402 60.9942 80.3418C61.0219 80.1434 61.0022 79.9229 60.9349 79.6803C60.8735 79.4429 60.7829 79.2515 60.6631 79.1061C60.5427 78.9586 60.4015 78.8594 60.2396 78.8084C60.0777 78.7574 59.8992 78.7581 59.7043 78.8103C59.5617 78.8485 59.4406 78.9079 59.3409 78.9886C59.2412 79.0692 59.1644 79.1684 59.1106 79.2862C59.0562 79.4018 59.0256 79.5347 59.0186 79.6849C59.0138 79.8345 59.0331 79.9989 59.0766 80.1782C59.1733 80.5388 59.3333 80.8048 59.5567 80.9763C59.7823 81.1473 60.041 81.1948 60.333 81.1188ZM64.1054 80.7214C63.7616 80.8135 63.444 80.8188 63.1526 80.7374C62.8611 80.656 62.6111 80.4983 62.4024 80.2644C62.1952 80.0278 62.043 79.7282 61.9459 79.3656C61.8492 79.0051 61.8302 78.6698 61.8887 78.3598C61.9492 78.0493 62.0796 77.7852 62.2796 77.5676C62.4812 77.3473 62.7455 77.1933 63.0725 77.1057C63.2717 77.0524 63.4732 77.0332 63.6772 77.0482C63.8812 77.0632 64.0764 77.1209 64.2628 77.2215C64.4493 77.3221 64.6155 77.473 64.7616 77.6743C64.9097 77.875 65.0262 78.1336 65.111 78.4501L65.1767 78.6953L62.3815 79.4443L62.2441 78.9318L64.6872 78.2772L64.4152 78.5321C64.3573 78.3162 64.2727 78.1344 64.1612 77.9868C64.0498 77.8392 63.9146 77.7372 63.7557 77.6809C63.5984 77.622 63.4212 77.6189 63.2242 77.6717C63.0271 77.7245 62.871 77.8169 62.7559 77.9488C62.6428 78.0802 62.5703 78.2333 62.5385 78.4081C62.5067 78.5829 62.5155 78.7625 62.565 78.947L62.6585 79.296C62.7231 79.537 62.8198 79.7302 62.9486 79.8754C63.0773 80.0206 63.2279 80.1173 63.4004 80.1655C63.5749 80.2131 63.7617 80.2102 63.9608 80.1568C64.0908 80.122 64.2031 80.0717 64.2978 80.0059C64.3946 79.9395 64.4717 79.8582 64.529 79.762C64.5864 79.6657 64.6201 79.5567 64.6301 79.4349L65.3107 79.384C65.3088 79.5867 65.261 79.777 65.1671 79.9549C65.0733 80.1329 64.9364 80.2886 64.7565 80.4222C64.5781 80.5531 64.3611 80.6528 64.1054 80.7214ZM65.9954 81.2225L65.5658 79.619L65.8487 79.5431C65.9041 79.4564 65.9457 79.3599 65.9734 79.2536C66.0005 79.1453 66.0137 79.0226 66.013 78.8858C66.0138 78.7463 66.004 78.5883 65.9837 78.4117C65.9633 78.2352 65.9328 78.0333 65.8922 77.8061L65.65 76.4623L68.0365 75.8228L68.8201 78.747L69.3609 78.6021L69.7906 80.2056L69.1208 80.3851L68.8496 79.3726L66.4033 80.0281L66.6746 81.0406L65.9954 81.2225ZM66.5845 79.346L68.1535 78.9256L67.5267 76.5862L66.4167 76.8836L66.5367 77.6333C66.6047 78.0128 66.6477 78.345 66.6656 78.63C66.6851 78.9124 66.6581 79.151 66.5845 79.346ZM70.3242 77.9463L71.1903 74.9778L71.926 74.7806L72.8679 78.2959L72.2014 78.4745L71.5164 75.9182L70.6575 78.8882L69.9186 79.0862L68.9767 75.5709L69.6401 75.3931L70.3242 77.9463ZM72.3014 75.3136L72.143 74.7225L75.1017 73.9297L75.2601 74.5208L74.1188 74.8266L74.9023 77.7508L74.2326 77.9303L73.449 75.0061L72.3014 75.3136ZM77.871 77.0329C77.5272 77.125 77.2096 77.1303 76.9182 77.0489C76.6268 76.9675 76.3767 76.8098 76.168 76.5759C75.9608 76.3393 75.8087 76.0397 75.7115 75.6771C75.6149 75.3166 75.5958 74.9813 75.6543 74.6713C75.7149 74.3608 75.8452 74.0967 76.0453 73.8791C76.2469 73.6588 76.5112 73.5048 76.8382 73.4172C77.0373 73.3639 77.2389 73.3447 77.4428 73.3597C77.6468 73.3747 77.842 73.4325 78.0285 73.533C78.2149 73.6336 78.3812 73.7845 78.5272 73.9858C78.6754 74.1865 78.7918 74.4451 78.8767 74.7616L78.9424 75.0069L76.1471 75.7558L76.0098 75.2433L78.4529 74.5887L78.1808 74.8436C78.123 74.6277 78.0383 74.4459 77.9269 74.2983C77.8154 74.1507 77.6802 74.0487 77.5214 73.9924C77.364 73.9335 77.1869 73.9304 76.9898 73.9832C76.7928 74.036 76.6367 74.1284 76.5215 74.2603C76.4084 74.3917 76.336 74.5448 76.3042 74.7196C76.2724 74.8944 76.2812 75.074 76.3306 75.2585L76.4241 75.6075C76.4887 75.8485 76.5854 76.0417 76.7142 76.1869C76.843 76.3321 76.9936 76.4288 77.166 76.477C77.3405 76.5246 77.5273 76.5217 77.7265 76.4684C77.8564 76.4335 77.9688 76.3832 78.0635 76.3174C78.1603 76.251 78.2373 76.1697 78.2947 76.0735C78.352 75.9772 78.3857 75.8682 78.3958 75.7464L79.0763 75.6955C79.0745 75.8982 79.0266 76.0885 78.9328 76.2664C78.8389 76.4444 78.702 76.6001 78.5221 76.7337C78.3438 76.8646 78.1267 76.9643 77.871 77.0329ZM79.5558 76.5039L79.3943 75.9136L79.5169 75.8808C79.6484 75.8433 79.7418 75.7767 79.797 75.681C79.8538 75.5827 79.8747 75.4299 79.8596 75.2228C79.8466 75.0151 79.7981 74.7293 79.7141 74.3653L79.3591 72.7889L81.8085 72.1326L82.7504 75.6479L82.0807 75.8274L81.2971 72.9032L80.1463 73.2116L80.4107 74.4247C80.4757 74.7173 80.515 74.9775 80.5289 75.2052C80.5427 75.4329 80.526 75.6306 80.4788 75.7983C80.4311 75.9638 80.3497 76.1002 80.2346 76.2074C80.1196 76.3147 79.9656 76.3941 79.7728 76.4458L79.5558 76.5039ZM85.4954 74.9124L84.7101 71.9819L83.8643 72.2086C83.6658 72.264 83.5233 72.3528 83.4369 72.4748C83.3505 72.5968 83.3286 72.7329 83.3711 72.8833C83.4089 73.0327 83.4915 73.1397 83.6189 73.2045C83.7458 73.2671 83.9025 73.2734 84.0891 73.2234L85.1738 72.9327L85.3221 73.4861L84.2373 73.7768C83.9774 73.8464 83.7416 73.8636 83.5299 73.8282C83.3203 73.7922 83.1428 73.7083 82.9974 73.5766C82.8541 73.4442 82.7546 73.2698 82.6989 73.0533C82.6378 72.8338 82.638 72.6293 82.6996 72.4398C82.7612 72.2503 82.8776 72.0854 83.049 71.9451C83.2198 71.8028 83.4393 71.6956 83.7076 71.6237L85.1949 71.2252L86.1368 74.7405L85.4954 74.9124ZM83.1875 75.5308L83.7019 73.4889L84.4031 73.301L83.8855 75.3438L83.1875 75.5308Z" fill="white"/>
<path d="M52.7886 66.3508L50.0983 56.3104L52.09 55.7767L54.7804 65.8171L52.7886 66.3508ZM47.6785 63.4177L47.1393 61.4055L57.19 58.7125L57.7291 60.7246L47.6785 63.4177ZM63.015 48.339L67.0929 63.5579L64.8254 64.1655L61.366 51.255L61.2639 51.2824L58.2858 54.6311L57.6947 52.4248L60.8088 48.9302L63.015 48.339ZM74.6856 61.7424C73.5144 62.0563 72.4279 62.019 71.4261 61.6305C70.4312 61.2403 69.5573 60.5257 68.8045 59.4867C68.0567 58.439 67.4612 57.0879 67.0178 55.4332C66.5763 53.7854 66.4208 52.3199 66.5514 51.0369C66.6802 49.7471 67.0778 48.6845 67.7444 47.8491C68.4159 47.005 69.3338 46.427 70.4982 46.115C71.6694 45.8011 72.7534 45.8428 73.7502 46.2398C74.752 46.6282 75.6277 47.3497 76.3773 48.4041C77.1319 49.4499 77.73 50.7967 78.1715 52.4446C78.6149 54.0993 78.7747 55.5672 78.6509 56.8484C78.5252 58.1227 78.1292 59.1776 77.4626 60.0131C76.7961 60.8485 75.8704 61.425 74.6856 61.7424ZM74.1601 59.7813C74.8751 59.5898 75.4166 59.2002 75.7846 58.6126C76.1527 58.025 76.3493 57.2607 76.3745 56.3198C76.3979 55.372 76.2445 54.2819 75.9142 53.0494C75.5821 51.8101 75.17 50.7894 74.6777 49.9871C74.1835 49.178 73.6302 48.611 73.0177 48.2862C72.4034 47.9545 71.7387 47.8845 71.0237 48.0761C69.9683 48.3589 69.2889 49.0919 68.9856 50.2752C68.6873 51.4499 68.7872 52.9667 69.2853 54.8256C69.6156 56.0581 70.0277 57.0789 70.5219 57.888C71.0142 58.6903 71.5666 59.2538 72.1791 59.5787C72.7984 59.9017 73.4588 59.9693 74.1601 59.7813Z" fill="white"/>
</svg>
