<svg width="134" height="134" viewBox="0 0 134 134" fill="none" xmlns="http://www.w3.org/2000/svg">
<circle cx="66.589" cy="66.6205" r="38.775" transform="rotate(17.5702 66.589 66.6205)" fill="#FF3DA8"/>
<path d="M103.555 78.3257C105.747 71.402 105.951 64.0018 104.143 56.968L96.1653 59.0186C97.5891 64.5581 97.4286 70.3862 95.702 75.839L103.555 78.3257Z" fill="white"/>
<path d="M95.2096 40.4602C90.3097 35.0998 84.0029 31.2232 77.0075 29.2719L74.8452 37.024C80.3886 38.5702 85.3864 41.6422 89.2693 45.8901L95.2096 40.4602Z" fill="white"/>
<path d="M58.1721 28.6199C51.0799 30.1831 44.5692 33.7067 39.3817 38.7893L45.043 44.5675C49.1483 40.5452 54.3007 37.7568 59.9133 36.5197L58.1721 28.6199Z" fill="white"/>
<path d="M29.5524 54.7808C27.36 61.7044 27.1562 69.1046 28.9641 76.1384L36.8447 74.1129C35.4162 68.5551 35.5772 62.7078 37.3095 57.2371L29.5524 54.7808Z" fill="white"/>
<path d="M37.9681 92.7819C42.868 98.1424 49.1748 102.019 56.1703 103.97L58.4657 95.741C53.0115 94.2197 48.0943 91.1972 44.274 87.0178L37.9681 92.7819Z" fill="white"/>
<path d="M74.7293 104.679C81.8215 103.116 88.6931 99.3836 93.8806 94.3011L87.7716 88.1782C83.7087 92.1588 78.6096 94.9185 73.055 96.1427L74.7293 104.679Z" fill="white"/>
<circle cx="66.4091" cy="66.2761" r="30.2824" transform="rotate(17.5702 66.4091 66.2761)" fill="#FF3DA8" stroke="white" stroke-width="1.03529"/>
<path d="M55.601 70.381L57.0652 65.757L57.7634 65.9781L57.1267 67.989L59.4293 68.7182L60.0661 66.7072L60.7644 66.9283L59.3002 71.5523L58.6019 71.3312L59.2397 69.3171L56.937 68.588L56.2993 70.602L55.601 70.381ZM61.4282 72.3046C61.1034 72.2018 60.8425 72.0372 60.6455 71.811C60.4506 71.5854 60.3285 71.3168 60.2792 71.0053C60.232 70.6944 60.2647 70.361 60.3774 70.0052C60.4914 69.6452 60.6571 69.3517 60.8747 69.1246C61.095 68.8962 61.3498 68.7458 61.639 68.6735C61.9303 68.6018 62.2384 68.6174 62.5632 68.7203C62.8901 68.8238 63.1509 68.9884 63.3458 69.214C63.5407 69.4396 63.6625 69.7092 63.7112 70.0228C63.7605 70.3343 63.7281 70.6701 63.6141 71.0301C63.5015 71.3859 63.3353 71.677 63.1157 71.9034C62.896 72.1298 62.6416 72.2791 62.3524 72.3514C62.0631 72.4237 61.7551 72.4082 61.4282 72.3046ZM61.608 71.7367C61.8211 71.8042 62.0147 71.804 62.1887 71.7362C62.3626 71.6684 62.5119 71.5529 62.6364 71.3897C62.7636 71.2251 62.862 71.0332 62.9314 70.8139C63.0022 70.5904 63.0329 70.3748 63.0236 70.167C63.0163 69.9598 62.9611 69.7784 62.8578 69.6228C62.7546 69.4672 62.5964 69.3557 62.3833 69.2882C62.1723 69.2214 61.9798 69.2219 61.8058 69.2897C61.6339 69.3582 61.4843 69.4747 61.3571 69.6393C61.2299 69.8039 61.1309 69.9979 61.0601 70.2213C60.9907 70.4406 60.9606 70.6542 60.9699 70.862C60.9799 71.0678 61.0355 71.2481 61.1366 71.4031C61.2399 71.5587 61.397 71.6699 61.608 71.7367ZM63.558 72.9005L64.6566 69.431L66.0903 69.885C66.4807 70.0108 66.7642 70.1939 66.9407 70.4342C67.118 70.6725 67.1604 70.934 67.0679 71.2188C67.0058 71.4223 66.8908 71.5623 66.7232 71.6389C66.5561 71.7135 66.3602 71.7391 66.1354 71.7158C66.2833 71.7808 66.4096 71.8708 66.5143 71.9859C66.621 72.1017 66.6937 72.2351 66.7324 72.3862C66.7738 72.5359 66.7673 72.6966 66.7129 72.8683C66.6546 73.0524 66.5542 73.2005 66.4118 73.3125C66.2721 73.423 66.1008 73.4894 65.898 73.5117C65.6952 73.534 65.4665 73.5048 65.212 73.4243L63.558 72.9005ZM64.3709 72.533L65.3919 72.8563C65.5567 72.9108 65.6992 72.9138 65.8192 72.8653C65.94 72.8148 66.0209 72.7209 66.0621 72.5837C66.1152 72.423 66.1087 72.282 66.0423 72.1609C65.9766 72.0376 65.861 71.9498 65.6955 71.8974L64.6745 71.5741L64.3709 72.533ZM64.8308 71.0807L65.6376 71.3362C65.8286 71.3944 65.9903 71.4012 66.1228 71.3567C66.258 71.3107 66.3462 71.2191 66.3874 71.0819C66.432 70.9481 66.4113 70.8266 66.3253 70.7174C66.2398 70.6061 66.1009 70.52 65.9085 70.4591L65.1079 70.2055L64.8308 71.0807ZM68.1161 71.8444L69.1247 72.1638C69.5474 72.2953 69.8391 72.5027 69.9999 72.7858C70.1627 73.0695 70.1924 73.3783 70.089 73.712C70.0202 73.9292 69.9069 74.1073 69.7491 74.2463C69.5913 74.3853 69.398 74.4743 69.1694 74.5134C68.9414 74.5505 68.6867 74.5245 68.4054 74.4354L66.8909 73.9559L67.9896 70.4863L68.6444 70.6937L67.7305 73.5798L68.5901 73.852C68.7825 73.9129 68.9565 73.9134 69.1121 73.8534C69.2683 73.7913 69.3727 73.6809 69.4252 73.5223C69.4762 73.3541 69.4563 73.1975 69.3656 73.0527C69.2749 72.9079 69.133 72.8061 68.9399 72.7472L67.9314 72.4278L68.1161 71.8444ZM70.2208 75.0103L71.3194 71.5407L71.9897 71.753L70.8911 75.2225L70.2208 75.0103ZM73.1628 72.1244L73.4947 73.7182L74.6959 72.6099L75.4376 72.8447L73.8073 74.2406L74.3451 76.3162L73.6097 76.0833L73.2353 74.5375L72.0518 75.59L71.3101 75.3552L72.9353 73.9645L72.4211 71.8896L73.1628 72.1244ZM52.7942 76.873L53.48 77.0901C53.4472 77.2368 53.4777 77.3671 53.5713 77.481C53.6671 77.5955 53.8108 77.6843 54.0026 77.7473C54.1957 77.8062 54.3736 77.8158 54.5363 77.7763C54.6991 77.7368 54.81 77.6274 54.869 77.448C54.9018 77.3446 54.9037 77.245 54.8748 77.1494C54.848 77.0544 54.7939 76.9701 54.7125 76.8965C54.6338 76.8215 54.531 76.7651 54.4042 76.7272L53.8393 76.5483L54.0074 76.0177L54.5722 76.1965C54.7605 76.2561 54.9156 76.2586 55.0376 76.2039C55.1603 76.1471 55.2426 76.0526 55.2845 75.9201C55.3297 75.7774 55.3154 75.6465 55.2416 75.5275C55.1677 75.4085 55.0394 75.3212 54.8567 75.2657C54.6774 75.2066 54.5136 75.1991 54.3653 75.2432C54.2177 75.2853 54.1204 75.3694 54.0736 75.4957L53.3909 75.2796C53.456 75.0885 53.5676 74.9371 53.7258 74.8256C53.8861 74.7148 54.0763 74.6498 54.2963 74.6307C54.517 74.6095 54.7504 74.6379 54.9966 74.7159C55.2532 74.7971 55.4625 74.9089 55.6246 75.0513C55.7866 75.1936 55.8961 75.3546 55.953 75.5343C56.0106 75.7119 56.0083 75.8955 55.9459 76.0852C55.8877 76.2762 55.7814 76.4144 55.6269 76.4997C55.4744 76.5858 55.299 76.6258 55.1005 76.6199L55.0897 76.654C55.2209 76.707 55.3268 76.786 55.4073 76.8912C55.4905 76.9949 55.5421 77.116 55.5621 77.2543C55.5847 77.3912 55.5721 77.5352 55.5243 77.6862C55.4575 77.8973 55.3405 78.0617 55.1735 78.1795C55.0085 78.298 54.8102 78.3672 54.5785 78.3872C54.3475 78.4051 54.0992 78.3731 53.8337 78.2914C53.5779 78.2081 53.3613 78.094 53.1841 77.9491C53.009 77.8048 52.8857 77.6406 52.8143 77.4564C52.7435 77.2701 52.7368 77.0756 52.7942 76.873ZM58.5044 77.4621L58.3197 78.0456L56.4422 77.451L56.6269 76.8676L58.5044 77.4621ZM57.27 75.4835L56.1714 78.9531L55.5166 78.7457L56.6152 75.2762L57.27 75.4835ZM59.4331 76.1684L58.3344 79.638L57.6765 79.4296L58.7752 75.9601L59.4331 76.1684ZM59.9618 80.2352C59.7425 80.1658 59.5567 80.0625 59.4043 79.9255C59.2526 79.7864 59.1499 79.6219 59.0963 79.4319C59.0426 79.2419 59.0515 79.0342 59.1229 78.8086C59.1851 78.6121 59.2731 78.4636 59.3869 78.363C59.5034 78.261 59.6376 78.1931 59.7895 78.1593C59.9413 78.1254 60.1018 78.1147 60.2708 78.1273C60.4398 78.1398 60.6104 78.162 60.7824 78.1937C60.9986 78.2371 61.1734 78.2708 61.3069 78.2949C61.4404 78.319 61.5417 78.3226 61.6108 78.3058C61.6826 78.2875 61.7313 78.2381 61.7568 78.1574L61.7617 78.1418C61.824 77.9453 61.8162 77.7756 61.7386 77.6326C61.663 77.4903 61.5166 77.3847 61.2994 77.316C61.0739 77.2446 60.8792 77.2375 60.7153 77.2949C60.5542 77.3509 60.4291 77.4331 60.3402 77.5415L59.7502 77.1942C59.8936 77.0074 60.058 76.8728 60.2434 76.7904C60.4316 76.7066 60.6293 76.6644 60.8365 76.6641C61.0459 76.6643 61.254 76.6972 61.4609 76.7627C61.5995 76.8066 61.7411 76.8697 61.8858 76.9519C62.0312 77.0321 62.1584 77.1372 62.2674 77.2674C62.3791 77.3961 62.4532 77.5539 62.4897 77.7407C62.5261 77.9275 62.5044 78.1471 62.4245 78.3995L61.6954 80.7022L61.0343 80.4929L61.1847 80.0181L61.1599 80.0102C61.0916 80.0819 60.9996 80.1461 60.8838 80.2028C60.77 80.2601 60.636 80.2951 60.4818 80.3077C60.3276 80.3203 60.1542 80.2961 59.9618 80.2352ZM60.2787 79.7414C60.4669 79.801 60.6387 79.8156 60.7941 79.7851C60.9501 79.7526 61.0822 79.6874 61.1906 79.5897C61.2989 79.492 61.3744 79.3759 61.417 79.2414L61.5594 78.7914C61.5274 78.8063 61.474 78.8133 61.3992 78.8124C61.3243 78.8114 61.2412 78.8045 61.1497 78.7914C61.0582 78.7784 60.9691 78.765 60.8825 78.7512C60.7964 78.7353 60.7245 78.7217 60.6667 78.7102C60.5304 78.6875 60.4023 78.6788 60.2823 78.6841C60.1629 78.6873 60.0583 78.7156 59.9685 78.7691C59.8815 78.8212 59.8189 78.9073 59.7809 79.0273C59.7279 79.1948 59.75 79.3407 59.8473 79.4648C59.9445 79.589 60.0883 79.6812 60.2787 79.7414ZM65.3317 79.624L65.147 80.2074L63.2695 79.6129L63.4542 79.0295L65.3317 79.624ZM64.0974 77.6454L62.9988 81.1149L62.344 80.9076L63.4426 77.438L64.0974 77.6454ZM66.2604 78.3303L65.1618 81.7998L64.5039 81.5915L65.6025 78.122L66.2604 78.3303ZM66.7628 81.2619L69.0906 79.2265L69.8168 79.4564L68.7182 82.926L68.0603 82.7176L68.8592 80.1946L66.5366 82.2351L65.8073 82.0042L66.9059 78.5347L67.5607 78.742L66.7628 81.2619ZM70.3192 82.3881L72.647 80.3526L73.3732 80.5826L72.2746 84.0521L71.6167 83.8438L72.4156 81.3207L70.093 83.3613L69.3637 83.1303L70.4623 79.6608L71.1171 79.8682L70.3192 82.3881ZM72.0393 79.7163C71.7435 79.6226 71.529 79.4659 71.396 79.2463C71.2636 79.0245 71.2387 78.7833 71.3212 78.5226L71.8767 78.6985C71.8348 78.8309 71.8411 78.9513 71.8956 79.0596C71.9507 79.1658 72.0445 79.2399 72.1769 79.2818C72.3093 79.3237 72.4286 79.3171 72.5348 79.262C72.6417 79.2048 72.7161 79.11 72.7581 78.9776L73.3136 79.1535C73.231 79.4142 73.0718 79.5971 72.8359 79.7022C72.6007 79.8053 72.3352 79.81 72.0393 79.7163Z" fill="white"/>
<path d="M60.1134 61.6827L63.2512 51.773L65.217 52.3955L62.0792 62.3051L60.1134 61.6827ZM57.3859 56.4599L58.0147 54.474L67.9345 57.615L67.3056 59.601L57.3859 56.4599ZM73.144 67.0843C72.2232 66.7928 71.4519 66.3563 70.83 65.7748C70.217 65.1888 69.7899 64.5175 69.5489 63.7608C69.3099 62.9975 69.3026 62.215 69.5268 61.4135L71.7245 62.1094C71.5761 62.7649 71.6946 63.3829 72.0802 63.9634C72.4657 64.544 73.0214 64.9492 73.7473 65.179C74.3253 65.362 74.8786 65.3893 75.4073 65.261C75.936 65.1326 76.4014 64.877 76.8036 64.4941C77.208 64.1045 77.5059 63.6073 77.6975 63.0024C77.889 62.3976 77.9292 61.8151 77.8182 61.2549C77.7093 60.688 77.4667 60.1934 77.0902 59.771C76.7204 59.3507 76.2365 59.0459 75.6384 58.8565C75.1813 58.7118 74.6988 58.6477 74.1907 58.6643C73.6848 58.6742 73.2513 58.7588 72.8903 58.9181L70.8993 57.9549L74.1434 50.6521L82.3997 53.2665L81.7836 55.2121L75.4225 53.1979L73.6176 57.2517L73.6982 57.2772C74.0787 57.0797 74.5397 56.9669 75.081 56.9386C75.6312 56.9058 76.1886 56.9788 76.7531 57.1575C77.6671 57.4469 78.4112 57.9229 78.9852 58.5853C79.5681 59.2431 79.9454 60.0133 80.117 60.8958C80.2908 61.7716 80.2244 62.6934 79.918 63.6612C79.6094 64.6357 79.112 65.4358 78.4259 66.0615C77.7418 66.6805 76.9408 67.085 76.0229 67.275C75.1117 67.4671 74.1521 67.4035 73.144 67.0843Z" fill="white"/>
</svg>
