<svg viewBox="0 0 563 360" fill="none" xmlns="http://www.w3.org/2000/svg">
<rect y="214.787" width="213" height="73" rx="36.5" transform="rotate(-5.91574 0 214.787)" fill="#D4C5FF"/>
<path d="M52.1591 255.061L62.3496 254.005L62.6124 256.541L48.3338 258.021L48.1014 255.632L56.7464 246.065C57.4223 245.312 57.8765 244.601 58.1089 243.933C58.3414 243.266 58.42 242.569 58.3448 241.843C58.2602 241.027 57.9945 240.306 57.5474 239.679C57.0994 239.041 56.527 238.563 55.8303 238.243C55.1336 237.923 54.3775 237.805 53.5619 237.89C52.7263 237.977 51.9915 238.259 51.3574 238.737C50.7222 239.205 50.2457 239.797 49.9279 240.513C49.619 241.219 49.5097 241.959 49.6 242.734L46.8846 243.015C46.7464 241.683 46.9316 240.462 47.4401 239.354C47.9575 238.234 48.7279 237.325 49.7513 236.626C50.7836 235.916 51.9811 235.49 53.3438 235.349C54.6568 235.213 55.8774 235.398 57.0056 235.904C58.1327 236.401 59.0548 237.15 59.7719 238.151C60.4978 239.142 60.9283 240.288 61.0633 241.592C61.1581 242.507 61.1217 243.32 60.9541 244.031C60.7954 244.731 60.5172 245.393 60.1194 246.017C59.7206 246.632 59.1599 247.333 58.4374 248.122L52.1591 255.061ZM75.1116 255.261L72.4558 255.537L70.2296 234.052L72.8854 233.776L75.1116 255.261ZM87.7795 253.949L85.1237 254.224L83.1588 235.261L75.833 236.02L75.5717 233.498L92.8791 231.705L93.1403 234.226L85.8146 234.985L87.7795 253.949ZM102.301 244.044L93.349 244.972L93.1217 242.779L102.074 241.851L102.301 244.044ZM116.38 234.698L118.559 234.473L120.228 250.587L117.662 250.852L116.432 238.976L109.217 251.727L107.024 251.955L105.354 235.841L107.921 235.575L109.134 247.287L116.38 234.698ZM127.063 249.878L124.407 250.154L122.737 234.04L133.927 232.88L134.189 235.402L125.654 236.286L127.063 249.878ZM144.123 231.371C145.585 231.22 146.896 231.456 148.057 232.08C149.227 232.702 150.168 233.63 150.879 234.864C151.599 236.086 152.042 237.503 152.209 239.114C152.377 240.736 152.235 242.223 151.782 243.577C151.338 244.92 150.607 246.021 149.591 246.881C148.583 247.729 147.343 248.229 145.871 248.382C144.886 248.484 143.979 248.412 143.149 248.166C142.318 247.911 141.577 247.5 140.925 246.934L141.822 255.588L139.151 255.864L136.739 232.589L139.111 232.343L139.299 234.148C139.83 233.36 140.498 232.727 141.304 232.252C142.109 231.776 143.049 231.483 144.123 231.371ZM145.29 245.984C146.315 245.878 147.153 245.525 147.804 244.924C148.466 244.323 148.923 243.547 149.177 242.595C149.44 241.643 149.511 240.58 149.389 239.406C149.269 238.243 148.982 237.227 148.53 236.359C148.088 235.48 147.476 234.814 146.695 234.362C145.924 233.909 145.012 233.737 143.957 233.847C142.435 234.004 141.338 234.671 140.666 235.847C139.993 237.022 139.753 238.535 139.945 240.385C140.136 242.235 140.682 243.672 141.583 244.694C142.493 245.716 143.729 246.146 145.29 245.984ZM156.316 246.847L154.632 230.735L157.302 230.458L157.907 236.292L160.369 236.037C161.572 235.912 162.478 235.874 163.086 235.921C165.93 236.2 167.495 237.716 167.78 240.472C167.92 241.824 167.686 242.955 167.076 243.862C166.465 244.76 165.567 245.406 164.381 245.8C163.769 246.005 162.836 246.172 161.583 246.301L156.316 246.847ZM172.818 245.137L170.162 245.412L168.492 229.299L171.148 229.024L172.818 245.137ZM161.401 244.104C162.286 244.012 162.941 243.884 163.366 243.719C163.917 243.501 164.352 243.144 164.673 242.649C165.004 242.152 165.129 241.52 165.05 240.755C164.968 239.969 164.71 239.367 164.275 238.95C163.848 238.522 163.299 238.267 162.627 238.186C162.138 238.126 161.526 238.134 160.79 238.21L158.134 238.485L158.745 244.379L161.401 244.104Z" fill="white"/>
<rect x="111.461" y="277.772" width="398" height="73" rx="36.5" transform="rotate(1.20781 111.461 277.772)" fill="#D4C5FF"/>
<path d="M162.139 304.811C163.499 304.84 164.732 305.196 165.838 305.879C166.954 306.563 167.824 307.492 168.45 308.665C169.075 309.829 169.373 311.12 169.343 312.54L169.192 319.723C169.16 321.213 168.807 322.541 168.132 323.707C167.458 324.863 166.534 325.759 165.36 326.394C164.197 327.02 162.885 327.317 161.426 327.286C160.236 327.261 159.131 326.998 158.111 326.496C157.102 325.985 156.257 325.267 155.576 324.342L157.608 322.615C158.035 323.254 158.589 323.766 159.271 324.15C159.963 324.535 160.699 324.735 161.479 324.752C162.409 324.771 163.248 324.564 163.998 324.13C164.757 323.696 165.354 323.108 165.79 322.367C166.226 321.626 166.453 320.826 166.471 319.966L166.533 317.027C165.888 317.713 165.127 318.247 164.249 318.629C163.381 319.001 162.472 319.176 161.522 319.156C160.202 319.129 159.009 318.793 157.942 318.151C156.886 317.498 156.059 316.621 155.462 315.518C154.875 314.415 154.596 313.204 154.624 311.884C154.651 310.575 155.007 309.372 155.69 308.276C156.383 307.18 157.301 306.325 158.445 305.709C159.588 305.083 160.82 304.783 162.139 304.811ZM161.874 316.703C162.724 316.721 163.508 316.528 164.226 316.123C164.945 315.718 165.522 315.165 165.957 314.464C166.392 313.763 166.618 312.988 166.636 312.138C166.654 311.298 166.46 310.519 166.055 309.8C165.66 309.081 165.107 308.505 164.396 308.07C163.695 307.635 162.925 307.408 162.085 307.391C161.235 307.373 160.451 307.566 159.732 307.971C159.014 308.366 158.437 308.914 158.002 309.615C157.567 310.316 157.341 311.092 157.323 311.941C157.305 312.791 157.494 313.575 157.889 314.294C158.294 315.012 158.847 315.589 159.547 316.024C160.248 316.459 161.024 316.685 161.874 316.703ZM176.966 327.164L174.087 327.103L182.257 308.236L172.449 308.029L172.503 305.465L185.175 305.732L185.121 308.296L176.966 327.164ZM201.143 328.124C199.534 328.09 198.157 327.701 197.012 326.956C195.878 326.202 195.019 325.174 194.436 323.871C193.864 322.569 193.585 321.083 193.6 319.413C193.656 317.723 194.002 316.24 194.639 314.964C195.286 313.687 196.197 312.706 197.372 312.021C198.547 311.325 199.934 310.994 201.534 311.028C202.663 311.052 203.694 311.264 204.626 311.663C205.558 312.063 206.341 312.625 206.976 313.348C207.621 314.072 208.073 314.917 208.333 315.882L205.677 316.622C205.356 315.685 204.817 314.948 204.058 314.412C203.309 313.866 202.44 313.583 201.45 313.562C199.841 313.528 198.614 314.047 197.772 315.12C196.939 316.192 196.493 317.643 196.435 319.472C196.415 321.332 196.809 322.811 197.616 323.908C198.434 324.996 199.627 325.556 201.197 325.589C203.266 325.633 204.696 324.718 205.486 322.844L208.17 323.606C207.568 325.103 206.664 326.24 205.458 327.014C204.251 327.789 202.813 328.159 201.143 328.124ZM217.807 328.025L215.138 327.969L215.428 314.202L209.79 314.083L209.841 311.653L223.788 311.947L223.736 314.377L218.098 314.258L217.807 328.025ZM238.489 314.973C238.69 315.437 238.819 315.95 238.877 316.511C238.935 317.063 238.957 317.708 238.941 318.448L238.73 328.466L236.36 328.416L236.414 325.897C235.082 327.849 233.062 328.797 230.352 328.739C229.183 328.715 228.187 328.479 227.367 328.031C226.546 327.574 225.934 326.976 225.529 326.237C225.124 325.499 224.932 324.684 224.95 323.794C225.001 321.405 226.359 319.848 229.025 319.124C229.809 318.931 230.708 318.765 231.721 318.626C232.734 318.487 233.947 318.338 235.361 318.178L236.324 318.063C236.311 316.752 236.002 315.786 235.395 315.163C234.788 314.53 233.795 314.199 232.415 314.17C231.395 314.148 230.515 314.365 229.776 314.819C229.046 315.264 228.531 315.963 228.231 316.917L225.713 316.099C226.133 314.657 226.917 313.554 228.063 312.788C229.22 312.012 230.698 311.643 232.497 311.681C233.987 311.712 235.246 312.009 236.274 312.571C237.313 313.123 238.051 313.923 238.489 314.973ZM230.804 326.513C231.734 326.533 232.557 326.385 233.274 326.07C233.991 325.745 234.576 325.308 235.027 324.757C235.479 324.196 235.777 323.573 235.922 322.886C236.029 322.548 236.102 322.169 236.141 321.75C236.19 321.331 236.225 320.861 236.246 320.342L235.509 320.416C234.095 320.577 233.007 320.709 232.245 320.813C231.492 320.917 230.804 321.052 230.181 321.219C229.406 321.443 228.784 321.76 228.315 322.17C227.857 322.58 227.62 323.136 227.605 323.835C227.595 324.305 227.701 324.743 227.922 325.147C228.144 325.542 228.497 325.865 228.982 326.115C229.467 326.365 230.074 326.498 230.804 326.513ZM249.588 328.695L246.918 328.639L247.208 314.872L241.57 314.753L241.621 312.323L255.568 312.617L255.517 315.047L249.878 314.928L249.588 328.695ZM260.185 321.567C260.259 323.259 260.706 324.568 261.527 325.496C262.358 326.424 263.518 326.903 265.008 326.935C266.067 326.957 266.997 326.731 267.797 326.258C268.608 325.785 269.247 325.093 269.717 324.183L272.262 325.122C271.603 326.528 270.634 327.613 269.358 328.377C268.082 329.14 266.654 329.505 265.074 329.471C263.494 329.438 262.112 329.059 260.927 328.334C259.752 327.609 258.848 326.6 258.215 325.306C257.592 324.013 257.299 322.531 257.334 320.861C257.371 319.112 257.723 317.594 258.39 316.308C259.068 315.012 259.998 314.026 261.183 313.351C262.378 312.666 263.755 312.34 265.315 312.373C266.864 312.405 268.192 312.783 269.296 313.507C270.412 314.221 271.256 315.234 271.828 316.546C272.401 317.848 272.668 319.389 272.631 321.169C272.625 321.459 272.615 321.679 272.602 321.828L260.185 321.567ZM265.354 314.774C263.904 314.744 262.751 315.124 261.894 315.916C261.037 316.709 260.497 317.877 260.275 319.423L269.873 319.625C269.61 316.449 268.103 314.832 265.354 314.774ZM283.141 311.308C282.401 311.293 281.72 311.098 281.097 310.725C280.475 310.342 279.986 309.831 279.629 309.194C279.283 308.556 279.117 307.868 279.133 307.128L281.292 307.173C281.285 307.523 281.363 307.85 281.527 308.154C281.701 308.447 281.931 308.687 282.217 308.873C282.513 309.05 282.836 309.141 283.186 309.149C283.536 309.156 283.863 309.078 284.166 308.914C284.47 308.741 284.71 308.511 284.886 308.224C285.062 307.928 285.154 307.605 285.161 307.255L287.321 307.3C287.305 308.04 287.106 308.721 286.723 309.343C286.35 309.966 285.844 310.455 285.206 310.812C284.569 311.158 283.88 311.324 283.141 311.308ZM287.195 313.284L289.384 313.33L289.043 329.527L286.463 329.472L286.715 317.535L277.975 329.293L275.771 329.247L276.112 313.051L278.692 313.105L278.443 324.877L287.195 313.284ZM309.429 321.48C310.081 321.853 310.57 322.394 310.895 323.101C311.23 323.798 311.389 324.557 311.372 325.376C311.35 326.406 311.056 327.3 310.49 328.058C309.924 328.807 309.162 329.376 308.204 329.766C307.255 330.156 306.201 330.339 305.042 330.314C303.452 330.281 302.044 329.911 300.819 329.205C299.604 328.489 298.654 327.504 297.971 326.249L300.129 324.914C300.7 325.827 301.391 326.526 302.201 327.014C303.02 327.501 303.95 327.756 304.99 327.777C306.09 327.801 306.97 327.569 307.63 327.083C308.291 326.597 308.63 325.919 308.648 325.049C308.667 324.149 308.35 323.522 307.698 323.169C307.045 322.815 306.044 322.624 304.694 322.595L303.015 322.56L303.061 320.355L304.726 320.39C307.095 320.44 308.296 319.715 308.327 318.216C308.344 317.426 308.062 316.82 307.48 316.397C306.909 315.975 306.169 315.755 305.259 315.735C304.389 315.717 303.535 315.884 302.698 316.237C301.87 316.579 301.146 317.039 300.523 317.616L298.942 315.767C299.8 314.915 300.784 314.271 301.893 313.834C303.003 313.397 304.197 313.193 305.477 313.22C306.527 313.242 307.483 313.447 308.345 313.835C309.207 314.223 309.88 314.783 310.365 315.513C310.86 316.234 311.097 317.084 311.076 318.064C311.047 319.453 310.498 320.592 309.429 321.48ZM327.298 316.845C327.498 317.31 327.627 317.822 327.685 318.384C327.744 318.935 327.765 319.581 327.75 320.321L327.538 330.338L325.169 330.288L325.222 327.769C323.891 329.721 321.87 330.669 319.161 330.612C317.991 330.587 316.996 330.351 316.175 329.904C315.354 329.446 314.742 328.848 314.337 328.11C313.933 327.371 313.74 326.557 313.759 325.667C313.809 323.277 315.167 321.721 317.833 320.997C318.617 320.803 319.516 320.637 320.529 320.498C321.542 320.36 322.756 320.21 324.169 320.05L325.132 319.935C325.12 318.625 324.81 317.658 324.203 317.035C323.596 316.402 322.603 316.071 321.223 316.042C320.203 316.021 319.324 316.237 318.584 316.692C317.854 317.136 317.34 317.836 317.039 318.789L314.521 317.971C314.942 316.53 315.725 315.426 316.871 314.66C318.028 313.884 319.506 313.515 321.306 313.553C322.795 313.585 324.054 313.881 325.083 314.443C326.121 314.995 326.86 315.796 327.298 316.845ZM319.613 328.386C320.543 328.405 321.366 328.258 322.083 327.943C322.8 327.618 323.384 327.18 323.836 326.629C324.288 326.069 324.586 325.445 324.73 324.758C324.837 324.42 324.91 324.042 324.949 323.622C324.998 323.203 325.033 322.734 325.054 322.214L324.317 322.289C322.904 322.449 321.816 322.581 321.053 322.685C320.301 322.789 319.613 322.925 318.989 323.092C318.214 323.315 317.592 323.632 317.124 324.042C316.665 324.453 316.428 325.008 316.413 325.708C316.404 326.178 316.509 326.615 316.731 327.02C316.953 327.415 317.306 327.737 317.791 327.987C318.276 328.238 318.883 328.37 319.613 328.386ZM344.579 317.255C345.797 317.35 346.86 317.708 347.767 318.327C348.684 318.947 349.382 319.766 349.86 320.787C350.349 321.797 350.581 322.927 350.554 324.177C350.526 325.537 350.19 326.745 349.548 327.802C348.915 328.859 348.053 329.681 346.96 330.268C345.878 330.845 344.677 331.12 343.357 331.092C342.297 331.07 341.306 330.854 340.385 330.444C339.463 330.025 338.676 329.443 338.021 328.699C337.377 327.955 336.915 327.085 336.636 326.089L339.216 325.408C339.505 326.385 340.019 327.146 340.758 327.691C341.497 328.237 342.351 328.52 343.321 328.541C344.2 328.559 344.974 328.385 345.642 328.019C346.32 327.654 346.846 327.135 347.22 326.462C347.595 325.78 347.791 324.999 347.81 324.119C347.828 323.239 347.66 322.456 347.304 321.768C346.959 321.071 346.46 320.525 345.808 320.131C345.157 319.737 344.406 319.531 343.556 319.514C343.196 319.506 342.815 319.548 342.413 319.639C342.021 319.731 341.653 319.864 341.309 320.036L340.064 317.895L347.216 311.699L337.799 311.5L337.852 308.951L350.584 309.219L350.53 311.784L344.579 317.255ZM362.882 331.084L360.303 331.029L360.644 314.833L362.939 314.881L368.822 327.578L375.236 315.14L377.53 315.189L377.189 331.385L374.61 331.331L374.834 320.698L369.451 331.222L368.041 331.192L363.106 320.451L362.882 331.084ZM383.497 324.167C383.571 325.858 384.019 327.168 384.839 328.096C385.67 329.023 386.83 329.503 388.32 329.534C389.38 329.557 390.31 329.331 391.11 328.858C391.92 328.385 392.56 327.693 393.029 326.783L395.575 327.722C394.915 329.128 393.947 330.213 392.671 330.976C391.394 331.74 389.966 332.105 388.386 332.071C386.807 332.038 385.425 331.659 384.24 330.934C383.065 330.209 382.161 329.199 381.528 327.906C380.905 326.612 380.611 325.131 380.646 323.461C380.683 321.712 381.035 320.194 381.702 318.908C382.38 317.611 383.311 316.626 384.495 315.951C385.69 315.266 387.067 314.94 388.627 314.973C390.177 315.005 391.504 315.383 392.609 316.107C393.724 316.82 394.568 317.833 395.14 319.146C395.713 320.448 395.981 321.989 395.943 323.769C395.937 324.059 395.927 324.279 395.914 324.428L383.497 324.167ZM388.666 317.374C387.217 317.343 386.063 317.724 385.207 318.516C384.35 319.308 383.81 320.477 383.587 322.023L393.185 322.225C392.922 319.049 391.416 317.432 388.666 317.374ZM405.912 332.441C404.303 332.407 402.925 332.018 401.781 331.273C400.647 330.519 399.788 329.491 399.205 328.189C398.633 326.886 398.354 325.4 398.369 323.73C398.425 322.041 398.771 320.558 399.408 319.281C400.055 318.004 400.966 317.023 402.141 316.338C403.316 315.642 404.703 315.312 406.303 315.345C407.432 315.369 408.463 315.581 409.395 315.981C410.327 316.38 411.11 316.942 411.745 317.665C412.39 318.389 412.842 319.234 413.102 320.2L410.446 320.939C410.125 320.002 409.586 319.265 408.827 318.729C408.078 318.183 407.209 317.9 406.219 317.879C404.61 317.845 403.383 318.364 402.541 319.437C401.708 320.51 401.262 321.96 401.204 323.79C401.184 325.65 401.578 327.128 402.385 328.226C403.203 329.313 404.396 329.873 405.966 329.906C408.035 329.95 409.465 329.035 410.254 327.161L412.939 327.923C412.337 329.421 411.433 330.557 410.227 331.332C409.02 332.106 407.582 332.476 405.912 332.441ZM428.452 332.466L425.767 332.409L425.891 326.546L422.397 326.472C422.097 326.466 421.867 326.456 421.707 326.442L417.744 332.24L414.865 332.179L419.045 326.056C417.972 325.714 417.119 325.135 416.486 324.322C415.863 323.499 415.565 322.462 415.591 321.212C415.619 319.873 416.002 318.78 416.74 317.936C417.488 317.091 418.45 316.547 419.625 316.301C420.057 316.21 420.499 316.16 420.949 316.149C421.409 316.129 421.915 316.125 422.464 316.136L428.778 316.269L428.452 332.466ZM425.937 324.341L426.062 318.417L422.373 318.34C421.533 318.322 420.872 318.378 420.389 318.508C419.846 318.656 419.369 318.971 418.959 319.453C418.559 319.925 418.351 320.52 418.336 321.24C418.321 321.96 418.508 322.564 418.898 323.052C419.288 323.531 419.801 323.862 420.437 324.045C420.905 324.175 421.508 324.248 422.248 324.263L425.937 324.341ZM449.068 335.901L446.399 335.845L446.462 332.846L432.65 332.554L432.991 316.358L435.661 316.414L435.373 330.076L443.306 330.244L443.594 316.582L446.263 316.638L445.973 330.405L449.183 330.472L449.068 335.901ZM464.259 319.733C464.46 320.197 464.589 320.71 464.647 321.271C464.705 321.823 464.727 322.468 464.711 323.208L464.5 333.226L462.131 333.176L462.184 330.657C460.852 332.609 458.832 333.557 456.122 333.499C454.953 333.475 453.957 333.239 453.137 332.791C452.316 332.334 451.704 331.736 451.299 330.997C450.895 330.259 450.702 329.444 450.72 328.554C450.771 326.165 452.129 324.608 454.795 323.884C455.579 323.691 456.478 323.525 457.491 323.386C458.504 323.247 459.717 323.098 461.131 322.938L462.094 322.823C462.081 321.512 461.772 320.546 461.165 319.923C460.558 319.29 459.565 318.959 458.185 318.93C457.165 318.908 456.285 319.125 455.546 319.579C454.816 320.024 454.301 320.723 454.001 321.677L451.483 320.859C451.903 319.417 452.687 318.314 453.833 317.548C454.99 316.772 456.468 316.403 458.267 316.441C459.757 316.472 461.016 316.769 462.045 317.331C463.083 317.883 463.821 318.683 464.259 319.733ZM456.574 331.273C457.504 331.293 458.328 331.145 459.044 330.83C459.761 330.505 460.346 330.068 460.797 329.517C461.249 328.956 461.548 328.333 461.692 327.646C461.799 327.308 461.872 326.929 461.911 326.51C461.96 326.091 461.995 325.621 462.016 325.102L461.279 325.176C459.865 325.337 458.777 325.469 458.015 325.573C457.263 325.677 456.575 325.812 455.951 325.979C455.176 326.203 454.554 326.52 454.085 326.93C453.627 327.34 453.39 327.896 453.375 328.595C453.365 329.065 453.471 329.503 453.693 329.907C453.914 330.302 454.268 330.625 454.752 330.875C455.237 331.125 455.845 331.258 456.574 331.273Z" fill="white"/>
<rect x="70.8438" y="99.373" width="485" height="73" rx="36.5" transform="rotate(9.10883 70.8438 99.373)" fill="#D4C5FF"/>
<path d="M115.72 141.099C117.013 141.306 118.144 141.806 119.11 142.599C120.078 143.382 120.777 144.36 121.207 145.533C121.648 146.698 121.764 147.932 121.555 149.235C121.35 150.519 120.822 151.66 119.974 152.658C119.136 153.648 118.104 154.373 116.875 154.835C115.646 155.296 114.381 155.422 113.077 155.213C111.991 155.039 111.01 154.654 110.133 154.058C109.268 153.453 108.564 152.697 108.02 151.789C107.479 150.872 107.147 149.877 107.025 148.804L109.667 148.529C109.736 149.239 109.95 149.891 110.311 150.486C110.673 151.07 111.137 151.555 111.703 151.939C112.281 152.316 112.9 152.557 113.562 152.663C114.411 152.799 115.22 152.716 115.987 152.414C116.755 152.111 117.397 151.642 117.914 151.006C118.443 150.361 118.773 149.629 118.904 148.81C119.039 147.971 118.95 147.166 118.638 146.397C118.336 145.63 117.861 144.987 117.215 144.468C116.581 143.941 115.854 143.611 115.034 143.48C114.146 143.338 113.331 143.399 112.589 143.665C111.859 143.923 111.239 144.32 110.727 144.856L108.53 143.592L110.969 132.544L122.418 134.379L122.017 136.882L112.938 135.427L111.515 141.837C112.139 141.482 112.816 141.241 113.545 141.114C114.274 140.988 114.999 140.983 115.72 141.099ZM131.149 158.111C129.786 157.892 128.607 157.384 127.61 156.586C126.614 155.788 125.893 154.792 125.447 153.596C125 152.4 124.886 151.121 125.105 149.758L126.359 141.938C126.577 140.576 127.085 139.396 127.883 138.4C128.681 137.404 129.677 136.683 130.873 136.236C132.069 135.79 133.348 135.676 134.711 135.894C136.073 136.113 137.253 136.621 138.249 137.419C139.245 138.217 139.967 139.213 140.413 140.409C140.859 141.605 140.973 142.884 140.755 144.247L139.501 152.067C139.282 153.429 138.774 154.609 137.976 155.605C137.179 156.601 136.182 157.323 134.986 157.769C133.79 158.215 132.511 158.329 131.149 158.111ZM131.555 155.578C132.374 155.709 133.162 155.628 133.918 155.334C134.674 155.04 135.31 154.58 135.826 153.954C136.341 153.327 136.665 152.604 136.796 151.785L138.1 143.654C138.231 142.834 138.15 142.046 137.856 141.29C137.562 140.534 137.102 139.898 136.476 139.383C135.849 138.867 135.127 138.544 134.307 138.412C133.487 138.281 132.7 138.362 131.944 138.656C131.187 138.95 130.552 139.41 130.036 140.037C129.52 140.663 129.197 141.386 129.065 142.205L127.762 150.336C127.63 151.156 127.712 151.944 128.006 152.7C128.3 153.456 128.76 154.092 129.386 154.607C130.012 155.123 130.735 155.447 131.555 155.578ZM150.732 156.769L148.555 156.42L149.462 150.762L143.805 149.855L144.154 147.678L149.811 148.585L150.716 142.942L152.893 143.291L151.989 148.934L157.631 149.839L157.282 152.016L151.639 151.111L150.732 156.769ZM168.154 163.588L165.518 163.165L168.083 147.17L181.19 149.271L178.626 165.267L175.989 164.844L178.152 151.352L170.318 150.095L168.154 163.588ZM189.515 167.469C187.945 167.217 186.635 166.642 185.584 165.745C184.544 164.838 183.815 163.699 183.397 162.325C182.981 160.942 182.905 159.426 183.17 157.777C183.435 156.118 183.987 154.702 184.823 153.53C185.659 152.358 186.716 151.514 187.993 151C189.272 150.476 190.682 150.337 192.222 150.584C193.792 150.836 195.103 151.411 196.154 152.308C197.205 153.206 197.94 154.342 198.357 155.715C198.775 157.089 198.852 158.6 198.588 160.249C198.32 161.918 197.767 163.343 196.93 164.525C196.103 165.699 195.051 166.548 193.772 167.073C192.494 167.587 191.075 167.719 189.515 167.469ZM189.917 164.966C191.526 165.224 192.831 164.886 193.831 163.953C194.843 163.011 195.495 161.627 195.788 159.8C196.084 157.954 195.897 156.44 195.225 155.259C194.555 154.068 193.421 153.344 191.821 153.087C190.202 152.828 188.892 153.165 187.891 154.098C186.901 155.033 186.26 156.409 185.969 158.226C185.673 160.072 185.859 161.596 186.527 162.797C187.207 163.989 188.337 164.712 189.917 164.966ZM199.446 166.281C199.647 166.354 199.861 166.408 200.088 166.445C200.483 166.508 200.808 166.469 201.064 166.328C201.321 166.176 201.536 165.942 201.708 165.626C201.881 165.309 202.062 164.872 202.253 164.315C202.69 163.039 203.134 161.504 203.583 159.713C204.044 157.913 204.564 155.713 205.143 153.112L216.325 154.904L213.76 170.9L211.124 170.478L213.287 156.985L207.141 155.999C206.01 160.781 205.104 164.094 204.423 165.939C204.132 166.744 203.822 167.382 203.493 167.856C203.164 168.33 202.765 168.666 202.298 168.865C201.842 169.055 201.288 169.098 200.637 168.994C200.242 168.93 199.724 168.781 199.083 168.547L199.446 166.281ZM217.92 171.567L220.47 155.569L223.121 155.994L222.193 161.785L225.644 162.338C226.838 162.53 227.723 162.728 228.298 162.931C229.561 163.397 230.492 164.093 231.093 165.02C231.695 165.937 231.882 167.111 231.652 168.543C231.437 169.886 230.917 170.917 230.093 171.635C229.27 172.344 228.236 172.735 226.988 172.808C226.344 172.847 225.4 172.766 224.156 172.567L217.92 171.567ZM224.549 170.397C225.428 170.538 226.094 170.584 226.547 170.535C227.136 170.467 227.649 170.235 228.087 169.84C228.535 169.446 228.82 168.869 228.942 168.108C229.067 167.328 228.973 166.68 228.661 166.164C228.36 165.64 227.896 165.252 227.268 164.999C226.811 164.815 226.218 164.664 225.487 164.547L221.844 163.962L220.906 169.813L224.549 170.397ZM245.311 167.376C245.906 167.836 246.316 168.438 246.541 169.183C246.777 169.92 246.83 170.693 246.7 171.503C246.537 172.52 246.123 173.365 245.458 174.038C244.795 174.701 243.962 175.16 242.959 175.415C241.966 175.671 240.897 175.707 239.751 175.523C238.181 175.271 236.838 174.712 235.721 173.844C234.616 172.968 233.811 171.862 233.306 170.525L235.628 169.499C236.068 170.481 236.656 171.269 237.391 171.863C238.136 172.459 239.022 172.839 240.049 173.003C241.135 173.178 242.039 173.069 242.76 172.678C243.481 172.288 243.91 171.663 244.048 170.804C244.19 169.915 243.962 169.251 243.365 168.81C242.767 168.37 241.801 168.043 240.468 167.83L238.809 167.564L239.159 165.386L240.803 165.65C243.143 166.025 244.431 165.472 244.669 163.991C244.794 163.211 244.598 162.572 244.08 162.074C243.572 161.577 242.869 161.257 241.971 161.113C241.112 160.975 240.243 161.023 239.365 161.257C238.498 161.483 237.717 161.839 237.021 162.325L235.709 160.276C236.676 159.55 237.739 159.047 238.898 158.767C240.057 158.487 241.269 158.448 242.532 158.651C243.569 158.817 244.488 159.152 245.288 159.655C246.089 160.158 246.679 160.804 247.058 161.594C247.45 162.376 247.568 163.251 247.413 164.218C247.192 165.591 246.492 166.643 245.311 167.376ZM255.962 178.122C254.392 177.87 253.081 177.296 252.03 176.398C250.99 175.492 250.261 174.352 249.844 172.979C249.427 171.595 249.351 170.079 249.616 168.43C249.882 166.772 250.433 165.356 251.269 164.183C252.105 163.011 253.162 162.168 254.439 161.654C255.719 161.129 257.128 160.991 258.669 161.238C260.239 161.49 261.549 162.064 262.6 162.962C263.651 163.86 264.386 164.995 264.804 166.369C265.222 167.742 265.298 169.253 265.034 170.902C264.766 172.571 264.214 173.997 263.376 175.179C262.55 176.353 261.497 177.202 260.218 177.726C258.94 178.24 257.522 178.372 255.962 178.122ZM256.363 175.619C257.972 175.877 259.277 175.539 260.278 174.606C261.289 173.664 261.942 172.28 262.235 170.454C262.531 168.607 262.343 167.093 261.671 165.912C261.002 164.721 259.867 163.997 258.267 163.741C256.648 163.481 255.338 163.818 254.338 164.751C253.347 165.686 252.706 167.062 252.415 168.879C252.119 170.726 252.305 172.249 252.973 173.45C253.653 174.643 254.783 175.366 256.363 175.619ZM266.995 179.435L269.56 163.44L276.373 164.532C276.807 164.602 277.253 164.698 277.709 164.822C278.165 164.946 278.568 165.087 278.917 165.244C279.757 165.632 280.39 166.229 280.817 167.037C281.256 167.837 281.393 168.755 281.226 169.792C281.044 170.927 280.548 171.779 279.738 172.348C279.383 172.605 279.006 172.778 278.607 172.866C278.933 172.979 279.262 173.168 279.594 173.434C280.691 174.299 281.111 175.531 280.855 177.131C280.682 178.207 280.277 179.058 279.64 179.685C279.013 180.314 278.214 180.687 277.243 180.805C276.602 180.885 275.714 180.833 274.578 180.651L266.995 179.435ZM275.086 171.42C275.797 171.534 276.368 171.545 276.798 171.452C277.248 171.362 277.617 171.142 277.906 170.794C278.195 170.445 278.378 170.029 278.456 169.545C278.538 169.032 278.487 168.563 278.301 168.138C278.128 167.705 277.826 167.378 277.395 167.157C276.985 166.939 276.394 166.769 275.624 166.645L271.877 166.044L271.117 170.784L275.086 171.42ZM274.775 178.48C274.992 178.515 275.247 178.535 275.54 178.542C275.842 178.55 276.107 178.542 276.333 178.517C276.839 178.457 277.248 178.249 277.558 177.893C277.868 177.538 278.063 177.108 278.144 176.605C278.242 175.993 278.15 175.461 277.868 175.011C277.587 174.551 277.164 174.22 276.599 174.018C276.325 173.893 275.892 173.783 275.3 173.688L270.768 172.961L270.006 177.715L274.775 178.48ZM297.551 170.677C297.685 171.165 297.743 171.69 297.723 172.254C297.705 172.809 297.637 173.451 297.52 174.182L295.934 184.075L293.594 183.7L293.993 181.212C292.406 182.963 290.274 183.624 287.598 183.195C286.443 183.009 285.49 182.639 284.738 182.083C283.988 181.517 283.464 180.84 283.165 180.053C282.866 179.266 282.787 178.433 282.927 177.554C283.306 175.194 284.865 173.839 287.605 173.488C288.408 173.404 289.321 173.363 290.344 173.365C291.367 173.367 292.589 173.386 294.011 173.422L294.981 173.44C295.149 172.14 294.975 171.14 294.459 170.44C293.945 169.73 293.007 169.265 291.644 169.047C290.637 168.885 289.736 168.979 288.941 169.327C288.157 169.667 287.551 170.289 287.122 171.193L284.74 170.036C285.355 168.666 286.283 167.681 287.524 167.08C288.776 166.47 290.291 166.308 292.068 166.593C293.539 166.829 294.745 167.296 295.687 167.993C296.64 168.683 297.261 169.578 297.551 170.677ZM288.352 181.052C289.27 181.199 290.106 181.166 290.859 180.953C291.614 180.729 292.253 180.376 292.776 179.893C293.301 179.399 293.682 178.823 293.92 178.162C294.072 177.842 294.197 177.477 294.293 177.067C294.399 176.659 294.498 176.199 294.59 175.687L293.85 175.659C292.428 175.624 291.332 175.605 290.563 175.603C289.803 175.603 289.103 175.643 288.462 175.722C287.664 175.837 287.004 176.066 286.484 176.408C285.973 176.751 285.662 177.268 285.551 177.959C285.477 178.424 285.522 178.871 285.685 179.303C285.851 179.724 286.156 180.092 286.602 180.407C287.048 180.721 287.631 180.936 288.352 181.052ZM306.657 185.795L304.021 185.372L306.201 171.775L300.632 170.883L301.017 168.483L314.791 170.692L314.406 173.091L308.837 172.198L306.657 185.795ZM318.133 180.191C317.975 181.877 318.238 183.236 318.923 184.267C319.618 185.3 320.701 185.935 322.173 186.171C323.219 186.338 324.171 186.243 325.029 185.884C325.897 185.527 326.625 184.93 327.215 184.093L329.608 185.373C328.761 186.675 327.653 187.616 326.284 188.197C324.915 188.777 323.45 188.943 321.89 188.693C320.33 188.442 319.013 187.877 317.939 186.996C316.875 186.116 316.118 184.992 315.669 183.624C315.23 182.257 315.142 180.749 315.407 179.1C315.684 177.372 316.241 175.917 317.079 174.735C317.928 173.544 318.986 172.696 320.252 172.19C321.529 171.676 322.938 171.542 324.478 171.789C326.009 172.035 327.272 172.592 328.267 173.46C329.273 174.32 329.97 175.44 330.356 176.818C330.745 178.187 330.798 179.75 330.516 181.508C330.47 181.794 330.43 182.01 330.397 182.157L318.133 180.191ZM324.187 174.173C322.756 173.944 321.561 174.162 320.603 174.829C319.646 175.496 318.95 176.579 318.517 178.08L327.996 179.6C328.172 176.417 326.903 174.609 324.187 174.173ZM331.413 187.439C331.614 187.512 331.828 187.567 332.055 187.603C332.45 187.666 332.775 187.627 333.031 187.486C333.288 187.335 333.503 187.101 333.675 186.784C333.848 186.468 334.029 186.031 334.22 185.474C334.657 184.197 335.101 182.663 335.55 180.871C336.011 179.072 336.531 176.871 337.11 174.27L348.292 176.063L345.727 192.059L343.091 191.636L345.254 178.143L339.108 177.158C337.976 181.939 337.071 185.252 336.39 187.098C336.099 187.902 335.789 188.541 335.46 189.015C335.13 189.489 334.732 189.825 334.265 190.023C333.809 190.214 333.255 190.257 332.604 190.152C332.209 190.089 331.691 189.94 331.05 189.705L331.413 187.439ZM352.991 185.779C352.832 187.466 353.095 188.824 353.781 189.856C354.476 190.889 355.559 191.523 357.03 191.759C358.077 191.927 359.029 191.832 359.887 191.473C360.754 191.116 361.483 190.519 362.073 189.681L364.465 190.961C363.618 192.264 362.51 193.205 361.141 193.786C359.772 194.366 358.308 194.532 356.747 194.281C355.187 194.031 353.87 193.466 352.796 192.584C351.732 191.705 350.975 190.581 350.526 189.213C350.087 187.846 350 186.338 350.264 184.689C350.541 182.961 351.099 181.506 351.936 180.324C352.786 179.133 353.843 178.285 355.109 177.779C356.387 177.265 357.796 177.131 359.336 177.378C360.866 177.623 362.129 178.18 363.124 179.049C364.131 179.909 364.827 181.028 365.214 182.407C365.602 183.776 365.655 185.339 365.374 187.096C365.328 187.383 365.288 187.599 365.254 187.746L352.991 185.779ZM359.045 179.762C357.613 179.532 356.419 179.751 355.461 180.418C354.503 181.085 353.808 182.168 353.375 183.669L362.854 185.188C363.03 182.006 361.76 180.197 359.045 179.762ZM377.139 178.774C376.408 178.657 375.761 178.371 375.196 177.916C374.632 177.45 374.218 176.878 373.952 176.197C373.696 175.518 373.627 174.813 373.744 174.082L375.877 174.424C375.821 174.77 375.854 175.104 375.974 175.427C376.106 175.742 376.301 176.011 376.559 176.235C376.828 176.45 377.136 176.586 377.481 176.641C377.827 176.697 378.161 176.664 378.484 176.544C378.809 176.414 379.078 176.219 379.292 175.959C379.507 175.69 379.643 175.383 379.698 175.037L381.831 175.379C381.714 176.11 381.423 176.757 380.957 177.32C380.502 177.885 379.934 178.301 379.254 178.566C378.575 178.822 377.87 178.891 377.139 178.774ZM380.883 181.288L383.046 181.635L380.481 197.631L377.934 197.222L379.824 185.433L369.551 195.878L367.373 195.529L369.938 179.534L372.486 179.942L370.621 191.569L380.883 181.288ZM390.544 199.244L393.109 183.249L399.922 184.341C400.356 184.411 400.802 184.507 401.258 184.631C401.714 184.755 402.117 184.895 402.466 185.053C403.306 185.441 403.939 186.038 404.366 186.846C404.805 187.646 404.942 188.564 404.775 189.601C404.593 190.736 404.097 191.588 403.287 192.157C402.932 192.414 402.555 192.587 402.156 192.675C402.482 192.788 402.811 192.977 403.143 193.243C404.24 194.108 404.66 195.34 404.404 196.939C404.231 198.016 403.827 198.867 403.189 199.494C402.562 200.123 401.763 200.496 400.792 200.614C400.151 200.693 399.263 200.642 398.127 200.46L390.544 199.244ZM398.635 191.229C399.346 191.343 399.917 191.354 400.347 191.261C400.797 191.171 401.166 190.951 401.455 190.603C401.744 190.254 401.927 189.838 402.005 189.354C402.087 188.84 402.036 188.371 401.85 187.947C401.677 187.514 401.375 187.187 400.944 186.966C400.534 186.748 399.943 186.578 399.173 186.454L395.426 185.853L394.666 190.593L398.635 191.229ZM398.324 198.289C398.541 198.324 398.796 198.344 399.089 198.351C399.391 198.359 399.656 198.351 399.882 198.326C400.388 198.265 400.797 198.057 401.107 197.702C401.417 197.347 401.612 196.917 401.693 196.414C401.791 195.801 401.699 195.27 401.417 194.82C401.136 194.36 400.713 194.028 400.148 193.826C399.874 193.702 399.441 193.592 398.849 193.497L394.317 192.77L393.555 197.524L398.324 198.289ZM415.134 203.187L412.587 202.779L415.152 186.783L417.418 187.146L421.5 200.531L429.563 189.093L431.829 189.457L429.264 205.452L426.717 205.044L428.4 194.543L421.622 204.227L420.229 204.004L416.818 192.686L415.134 203.187ZM436.504 199.169C436.346 200.855 436.609 202.214 437.294 203.246C437.989 204.279 439.073 204.913 440.544 205.149C441.59 205.317 442.542 205.222 443.4 204.863C444.268 204.506 444.996 203.908 445.586 203.071L447.979 204.351C447.132 205.654 446.024 206.595 444.655 207.176C443.286 207.756 441.821 207.921 440.261 207.671C438.701 207.421 437.384 206.856 436.31 205.974C435.246 205.095 434.489 203.971 434.04 202.602C433.601 201.236 433.513 199.728 433.778 198.079C434.055 196.351 434.612 194.896 435.45 193.714C436.299 192.523 437.357 191.675 438.623 191.169C439.9 190.655 441.309 190.521 442.85 190.768C444.38 191.013 445.643 191.57 446.638 192.439C447.644 193.299 448.341 194.418 448.728 195.797C449.116 197.166 449.169 198.729 448.887 200.486C448.841 200.773 448.801 200.989 448.768 201.136L436.504 199.169ZM442.558 193.152C441.127 192.922 439.932 193.141 438.974 193.808C438.017 194.475 437.321 195.558 436.888 197.059L446.367 198.578C446.543 195.396 445.274 193.587 442.558 193.152ZM457.569 210.446C455.98 210.192 454.669 209.617 453.638 208.722C452.618 207.819 451.909 206.683 451.511 205.312C451.123 203.944 451.051 202.433 451.295 200.781C451.583 199.116 452.13 197.694 452.936 196.517C453.753 195.342 454.79 194.495 456.047 193.978C457.307 193.45 458.726 193.313 460.306 193.567C461.422 193.746 462.414 194.097 463.282 194.621C464.15 195.145 464.848 195.809 465.378 196.613C465.917 197.419 466.249 198.318 466.374 199.31L463.641 199.677C463.452 198.705 463.019 197.901 462.341 197.266C461.675 196.622 460.853 196.222 459.875 196.065C458.286 195.81 457 196.156 456.017 197.102C455.045 198.05 454.404 199.426 454.095 201.23C453.82 203.07 454.007 204.589 454.655 205.786C455.315 206.976 456.421 207.695 457.971 207.943C460.015 208.271 461.556 207.561 462.596 205.814L465.151 206.937C464.349 208.338 463.297 209.339 461.995 209.941C460.694 210.542 459.218 210.711 457.569 210.446ZM479.891 213.57L477.24 213.145L478.169 207.353L474.718 206.8C474.422 206.753 474.195 206.711 474.039 206.676L469.316 211.874L466.473 211.418L471.455 205.928C470.439 205.441 469.674 204.751 469.159 203.858C468.655 202.957 468.502 201.889 468.7 200.655C468.912 199.332 469.442 198.303 470.289 197.568C471.146 196.834 472.173 196.426 473.371 196.345C473.811 196.314 474.255 196.325 474.703 196.376C475.162 196.42 475.663 196.485 476.206 196.572L482.441 197.571L479.891 213.57ZM478.518 205.176L479.456 199.326L475.812 198.742C474.983 198.609 474.32 198.573 473.824 198.636C473.266 198.708 472.75 198.955 472.278 199.375C471.816 199.787 471.529 200.349 471.415 201.06C471.301 201.771 471.403 202.395 471.722 202.932C472.043 203.46 472.506 203.858 473.111 204.127C473.556 204.32 474.144 204.475 474.874 204.592L478.518 205.176ZM499.84 219.806L497.204 219.384L497.679 216.421L484.038 214.234L486.602 198.239L489.239 198.661L487.075 212.154L494.91 213.41L497.074 199.918L499.71 200.34L497.53 213.937L500.7 214.445L499.84 219.806Z" fill="white"/>
<rect x="162.26" y="46.9102" width="394" height="73" rx="36.5" transform="rotate(-6.83795 162.26 46.9102)" fill="#D4C5FF"/>
<path d="M214.945 86.3528L225.117 85.133L225.42 87.6648L211.168 89.374L210.897 86.9893L219.387 77.2844C220.05 76.5199 220.493 75.8021 220.715 75.131C220.936 74.4598 221.004 73.7618 220.917 73.037C220.819 72.2228 220.542 71.5058 220.085 70.8858C219.627 70.2558 219.047 69.7866 218.345 69.4779C217.643 69.1693 216.885 69.0638 216.071 69.1614C215.237 69.2614 214.507 69.5554 213.88 70.0435C213.253 70.5216 212.786 71.1215 212.48 71.843C212.182 72.5535 212.085 73.2954 212.188 74.0687L209.477 74.3937C209.317 73.0632 209.483 71.8398 209.974 70.7235C210.473 69.596 211.229 68.6745 212.241 67.9589C213.261 67.2322 214.452 66.7873 215.812 66.6242C217.123 66.467 218.346 66.6325 219.482 67.1207C220.617 67.599 221.551 68.333 222.284 69.3228C223.026 70.3014 223.475 71.4411 223.631 72.7417C223.741 73.6552 223.717 74.4688 223.561 75.1824C223.414 75.885 223.146 76.5516 222.758 77.1822C222.37 77.8029 221.82 78.5134 221.111 79.3136L214.945 86.3528ZM234.047 72.6409C235.348 72.4849 236.572 72.6554 237.719 73.1523C238.865 73.6393 239.806 74.3877 240.541 75.3973C241.285 76.3958 241.736 77.5503 241.893 78.8609C242.048 80.1517 241.854 81.3936 241.313 82.5866C240.78 83.7684 239.986 84.7499 238.931 85.531C237.877 86.3121 236.694 86.7813 235.384 86.9384C234.291 87.0694 233.242 86.9686 232.235 86.6361C231.237 86.2925 230.352 85.7591 229.581 85.0358C228.808 84.3026 228.216 83.437 227.804 82.4389L230.269 81.4484C230.529 82.1121 230.915 82.6802 231.425 83.1529C231.933 83.6156 232.513 83.954 233.163 84.1681C233.822 84.3711 234.484 84.4327 235.149 84.353C236.003 84.2506 236.757 83.9486 237.412 83.4471C238.067 82.9455 238.556 82.3179 238.879 81.5641C239.21 80.7992 239.326 80.0047 239.227 79.1806C239.126 78.3367 238.82 77.5878 238.308 76.9341C237.807 76.2791 237.174 75.791 236.41 75.4696C235.655 75.1371 234.866 75.0203 234.042 75.1191C233.148 75.2263 232.382 75.5096 231.742 75.969C231.111 76.4174 230.623 76.9694 230.278 77.625L227.818 77.0136L227.129 65.7204L238.641 64.3398L238.943 66.8568L229.813 67.9516L230.207 74.5064C230.709 73.9929 231.293 73.5754 231.96 73.2537C232.626 72.9321 233.322 72.7278 234.047 72.6409ZM254.908 84.144L252.212 84.4672L250.298 68.3807L252.979 68.0592L253.908 75.8037L259.726 67.2502L263.166 66.8376L257.027 75.7319L265.929 82.8224L262.221 83.2671L253.979 76.3994L254.908 84.144ZM274.025 82.3048C272.446 82.4941 271.028 82.3015 269.771 81.7272C268.522 81.1417 267.509 80.246 266.729 79.0402C265.949 77.8244 265.46 76.3875 265.261 74.7294C265.061 73.0613 265.202 71.5488 265.683 70.1918C266.165 68.8347 266.95 67.7335 268.037 66.8881C269.123 66.0327 270.44 65.5121 271.989 65.3264C273.568 65.1371 274.986 65.3296 276.243 65.904C277.5 66.4784 278.519 67.3685 279.298 68.5743C280.077 69.7801 280.566 71.2121 280.765 72.8702C280.966 74.5482 280.826 76.0707 280.345 77.4376C279.874 78.7935 279.095 79.8991 278.009 80.7544C276.922 81.5999 275.594 82.1167 274.025 82.3048ZM273.723 79.7878C275.342 79.5937 276.504 78.9105 277.209 77.7382C277.923 76.5548 278.17 75.0446 277.95 73.2078C277.727 71.3511 277.131 69.9471 276.161 68.9958C275.189 68.0347 273.899 67.6505 272.291 67.8434C270.663 68.0386 269.496 68.7224 268.79 69.8948C268.095 71.0659 267.856 72.5649 268.076 74.3918C268.298 76.2485 268.896 77.6624 269.868 78.6336C270.85 79.5936 272.135 79.9783 273.723 79.7878ZM287.557 80.2289L284.995 80.5361L283.066 64.4513L285.345 64.1781L292.948 75.9264L297.557 62.7136L299.836 62.4404L301.765 78.5251L299.203 78.8323L297.937 68.273L294.08 79.4467L292.68 79.6145L286.29 69.6696L287.557 80.2289ZM308.561 77.7102L305.91 78.0281L303.981 61.9434L317.161 60.3628L319.09 76.4476L316.439 76.7655L314.812 63.1977L306.934 64.1424L308.561 77.7102ZM334.017 61.076C334.28 61.5077 334.48 61.9974 334.616 62.5451C334.751 63.0829 334.863 63.7191 334.951 64.4539L336.144 74.4026L333.791 74.6848L333.491 72.1827C332.446 74.3022 330.578 75.5233 327.887 75.8459C326.725 75.9852 325.707 75.8908 324.832 75.5627C323.955 75.2246 323.265 74.7182 322.761 74.0434C322.257 73.3686 321.952 72.5894 321.846 71.7057C321.562 69.3327 322.688 67.6012 325.227 66.5113C325.976 66.2099 326.843 65.9196 327.827 65.6405C328.81 65.3614 329.991 65.0436 331.368 64.6871L332.305 64.4387C332.11 63.1428 331.668 62.2289 330.98 61.6971C330.29 61.1553 329.26 60.9666 327.89 61.1309C326.877 61.2523 326.037 61.5898 325.368 62.1434C324.708 62.6859 324.296 63.4503 324.132 64.4369L321.524 63.9791C321.739 62.493 322.36 61.2905 323.388 60.3716C324.424 59.4415 325.836 58.8693 327.623 58.655C329.103 58.4776 330.391 58.5951 331.488 59.0074C332.594 59.4086 333.437 60.0982 334.017 61.076ZM328.023 73.5786C328.946 73.4679 329.741 73.2064 330.407 72.7942C331.071 72.3721 331.588 71.8569 331.959 71.2485C332.328 70.6301 332.536 69.9707 332.583 69.2701C332.641 68.9206 332.661 68.5356 332.64 68.115C332.63 67.6932 332.599 67.2236 332.547 66.7061L331.828 66.883C330.451 67.2395 329.392 67.5226 328.651 67.7322C327.921 67.9406 327.259 68.1711 326.665 68.4237C325.929 68.7536 325.357 69.1545 324.951 69.6263C324.554 70.0969 324.397 70.6797 324.481 71.3747C324.536 71.8414 324.702 72.2596 324.978 72.6294C325.253 72.9892 325.648 73.2591 326.163 73.439C326.678 73.619 327.298 73.6655 328.023 73.5786ZM342.652 73.6221L340.001 73.94L338.073 57.8553L340.724 57.5374L341.536 64.3138L349.996 63.2994L349.183 56.523L351.834 56.2051L353.763 72.2898L351.112 72.6077L350.297 65.8164L341.838 66.8308L342.652 73.6221ZM366.997 54.3868L369.172 54.126L371.1 70.2108L368.539 70.518L367.117 58.6629L360.109 71.5288L357.92 71.7913L355.991 55.7066L358.553 55.3994L359.955 67.0906L366.997 54.3868ZM380.043 50.9188C379.308 51.0069 378.607 50.9098 377.938 50.6274C377.269 50.335 376.713 49.8981 376.27 49.3166C375.838 48.734 375.578 48.0753 375.49 47.3405L377.634 47.0834C377.676 47.4309 377.799 47.7434 378.004 48.0211C378.217 48.2876 378.478 48.4929 378.787 48.6371C379.106 48.7702 379.438 48.8159 379.786 48.7742C380.133 48.7325 380.446 48.6094 380.724 48.4049C381 48.1905 381.205 47.9292 381.34 47.621C381.473 47.3029 381.518 46.9701 381.477 46.6226L383.621 46.3654C383.709 47.1001 383.607 47.8023 383.315 48.4719C383.033 49.1403 382.601 49.6956 382.019 50.138C381.436 50.5705 380.778 50.8307 380.043 50.9188ZM384.334 52.3078L386.508 52.0471L388.437 68.1319L385.876 68.439L384.454 56.584L377.446 69.4499L375.257 69.7124L373.328 53.6276L375.889 53.3205L377.291 65.0117L384.334 52.3078ZM398.556 66.9184L396.628 50.8336L403.479 50.0121C403.915 49.9597 404.37 49.9304 404.843 49.9241C405.315 49.9178 405.741 49.9422 406.121 49.9974C407.034 50.1397 407.807 50.5405 408.44 51.1998C409.082 51.848 409.465 52.6934 409.59 53.7359C409.727 54.8777 409.484 55.8335 408.862 56.6031C408.591 56.9478 408.276 57.2172 407.916 57.4114C408.261 57.4305 408.629 57.5223 409.022 57.6867C410.314 58.2166 411.057 59.2858 411.25 60.8943C411.379 61.9766 411.224 62.9067 410.783 63.6846C410.353 64.4614 409.687 65.0398 408.786 65.4198C408.192 65.6724 407.324 65.8671 406.182 66.004L398.556 66.9184ZM404.134 56.9887C404.849 56.903 405.4 56.7563 405.788 56.5486C406.196 56.3386 406.491 56.0262 406.673 55.6116C406.855 55.197 406.917 54.7464 406.858 54.2599C406.796 53.7436 406.618 53.3067 406.324 52.9493C406.038 52.5807 405.657 52.3493 405.183 52.2552C404.728 52.1586 404.113 52.1568 403.339 52.2497L399.571 52.7015L400.142 57.4674L404.134 56.9887ZM405.774 63.8623C405.992 63.8362 406.243 63.7859 406.526 63.7117C406.819 63.6363 407.072 63.5557 407.283 63.4699C407.753 63.2725 408.088 62.9604 408.289 62.5335C408.489 62.1066 408.559 61.6399 408.498 61.1336C408.425 60.518 408.19 60.0324 407.795 59.6769C407.399 59.3115 406.901 59.1093 406.302 59.0704C406.005 59.0255 405.558 59.0387 404.962 59.1102L400.405 59.6567L400.978 64.4374L405.774 63.8623ZM423.418 63.9372L420.722 64.2605L418.808 48.1739L421.489 47.8524L422.417 55.597L428.235 47.0434L431.676 46.6309L425.536 55.5251L434.439 62.6156L430.73 63.0603L422.489 56.1927L423.418 63.9372ZM436.415 54.9759C436.726 56.6408 437.352 57.875 438.294 58.6785C439.247 59.4809 440.462 59.7933 441.942 59.6159C442.994 59.4897 443.884 59.1363 444.61 58.5558C445.346 57.974 445.882 57.1996 446.219 56.2326L448.872 56.8059C448.415 58.2908 447.608 59.5004 446.451 60.4348C445.294 61.3692 443.932 61.9305 442.363 62.1186C440.794 62.3067 439.372 62.1247 438.097 61.5726C436.833 61.0192 435.796 60.1464 434.989 58.9541C434.191 57.7606 433.693 56.3348 433.494 54.6766C433.285 52.9391 433.421 51.3868 433.902 50.0199C434.392 48.6418 435.175 47.5356 436.254 46.7013C437.341 45.8559 438.659 45.3403 440.208 45.1545C441.747 44.97 443.114 45.1585 444.309 45.7202C445.513 46.2708 446.491 47.1557 447.241 48.375C447.991 49.5844 448.471 51.0728 448.683 52.8401C448.718 53.1281 448.739 53.3471 448.747 53.4972L436.415 54.9759ZM440.583 47.5267C439.143 47.6994 438.055 48.2378 437.317 49.1421C436.579 50.0463 436.209 51.2793 436.204 52.8408L445.736 51.6979C445.031 48.5897 443.313 47.1993 440.583 47.5267ZM457.709 41.6055C456.975 41.6936 456.273 41.5965 455.605 41.314C454.935 41.0217 454.379 40.5848 453.937 40.0033C453.504 39.4206 453.244 38.7619 453.156 38.0272L455.3 37.77C455.342 38.1175 455.465 38.4301 455.67 38.7077C455.883 38.9742 456.144 39.1796 456.454 39.3238C456.772 39.4569 457.105 39.5026 457.452 39.4609C457.8 39.4192 458.112 39.2961 458.39 39.0916C458.666 38.8772 458.872 38.6159 459.006 38.3077C459.139 37.9896 459.185 37.6568 459.143 37.3093L461.288 37.0521C461.376 37.7868 461.274 38.489 460.981 39.1586C460.699 39.8269 460.267 40.3823 459.685 40.8247C459.103 41.2571 458.444 41.5174 457.709 41.6055ZM462 42.9945L464.175 42.7338L466.103 58.8185L463.542 59.1257L462.12 47.2707L455.112 60.1366L452.923 60.3991L450.994 44.3143L453.556 44.0071L454.958 55.6984L462 42.9945ZM477.104 57.9526C475.506 58.1443 474.088 57.9517 472.85 57.375C471.622 56.7871 470.628 55.889 469.868 54.6808C469.119 53.4715 468.635 52.0389 468.416 50.3831C468.235 48.7028 468.37 47.1859 468.823 45.8324C469.285 44.4778 470.049 43.3789 471.116 42.5359C472.182 41.6829 473.51 41.1611 475.098 40.9706C476.22 40.8361 477.271 40.9015 478.249 41.1669C479.228 41.4323 480.082 41.8787 480.812 42.5063C481.552 43.1327 482.118 43.9058 482.51 44.8256L479.983 45.9293C479.535 45.0464 478.898 44.3926 478.071 43.968C477.254 43.5322 476.353 43.3733 475.37 43.4912C473.772 43.6829 472.63 44.3687 471.946 45.5485C471.271 46.7272 471.033 48.2262 471.231 50.0456C471.473 51.89 472.07 53.2989 473.022 54.2724C473.984 55.2348 475.244 55.6225 476.803 55.4356C478.858 55.1892 480.145 54.083 480.665 52.1171L483.43 52.4957C483.044 54.0628 482.307 55.3143 481.221 56.2503C480.135 57.1863 478.763 57.7537 477.104 57.9526ZM497.582 41.4622C497.845 41.894 498.045 42.3837 498.181 42.9313C498.316 43.4691 498.427 44.1053 498.516 44.8401L499.709 54.7888L497.355 55.071L497.055 52.5689C496.01 54.6884 494.142 55.9095 491.452 56.2321C490.29 56.3714 489.271 56.277 488.396 55.9489C487.52 55.6109 486.829 55.1044 486.326 54.4296C485.822 53.7548 485.517 52.9756 485.411 52.0919C485.126 49.7189 486.253 47.9875 488.791 46.8975C489.541 46.5961 490.407 46.3059 491.391 46.0268C492.375 45.7476 493.555 45.4298 494.933 45.0733L495.87 44.825C495.674 43.529 495.232 42.6152 494.544 42.0833C493.855 41.5415 492.825 41.3528 491.455 41.5171C490.442 41.6386 489.601 41.9761 488.932 42.5296C488.272 43.0721 487.86 43.8366 487.697 44.8231L485.088 44.3653C485.303 42.8792 485.924 41.6767 486.952 40.7578C487.989 39.8277 489.401 39.2556 491.188 39.0413C492.667 38.8639 493.956 38.9813 495.052 39.3937C496.158 39.7949 497.001 40.4844 497.582 41.4622ZM491.588 53.9648C492.511 53.8541 493.306 53.5926 493.971 53.1805C494.636 52.7583 495.153 52.2431 495.523 51.6347C495.892 51.0163 496.1 50.3569 496.147 49.6563C496.206 49.3068 496.225 48.9218 496.205 48.5012C496.195 48.0794 496.164 47.6098 496.112 47.0923L495.393 47.2692C494.015 47.6257 492.956 47.9088 492.216 48.1184C491.486 48.3269 490.823 48.5574 490.229 48.8099C489.493 49.1399 488.922 49.5407 488.515 50.0125C488.118 50.4831 487.962 51.0659 488.045 51.7609C488.101 52.2276 488.267 52.6458 488.543 53.0156C488.818 53.3754 489.213 53.6453 489.728 53.8253C490.243 54.0052 490.863 54.0517 491.588 53.9648ZM504.966 54.1584L501.794 54.5388L506.969 45.6694L499.999 38.4379L503.156 38.0593L508.272 43.4284L511.928 37.0074L515.086 36.6288L510.023 45.3033L517.163 52.6957L513.991 53.0761L508.765 47.539L504.966 54.1584Z" fill="white"/>
</svg>
