<svg width="582" height="186" viewBox="0 0 582 186" fill="none" xmlns="http://www.w3.org/2000/svg">
<path opacity="0.9" d="M411 21.5C411 9.62588 420.626 0 432.5 0H541.333C548.835 0 552.586 0 555.628 0.965207C562.01 2.99048 567.01 7.99042 569.035 14.3724C570 17.4139 570 21.1648 570 28.6667C570 32.4176 570 34.2931 569.517 35.8138C568.505 39.0048 566.005 41.5048 562.814 42.5174C561.293 43 559.418 43 555.667 43H432.5C420.626 43 411 33.3741 411 21.5Z" fill="#D4C5FF"/>
<path d="M443.131 18.6855H441.301C441.193 18.1592 441.003 17.6969 440.733 17.2984C440.467 16.9 440.143 16.5656 439.759 16.295C439.38 16.0196 438.96 15.813 438.497 15.6753C438.035 15.5376 437.553 15.4687 437.051 15.4687C436.136 15.4687 435.308 15.6999 434.565 16.1622C433.827 16.6246 433.239 17.3058 432.802 18.2059C432.369 19.1061 432.152 20.2103 432.152 21.5187C432.152 22.827 432.369 23.9313 432.802 24.8314C433.239 25.7315 433.827 26.4127 434.565 26.8751C435.308 27.3374 436.136 27.5686 437.051 27.5686C437.553 27.5686 438.035 27.4998 438.497 27.362C438.96 27.2243 439.38 27.0202 439.759 26.7497C440.143 26.4742 440.467 26.1373 440.733 25.7389C441.003 25.3355 441.193 24.8732 441.301 24.3518H443.131C442.993 25.124 442.742 25.8151 442.378 26.425C442.014 27.0349 441.562 27.5539 441.021 27.9818C440.48 28.4048 439.872 28.727 439.198 28.9483C438.529 29.1696 437.814 29.2803 437.051 29.2803C435.763 29.2803 434.616 28.9655 433.613 28.3359C432.61 27.7063 431.82 26.8111 431.245 25.6503C430.669 24.4895 430.382 23.1123 430.382 21.5187C430.382 19.925 430.669 18.5478 431.245 17.387C431.82 16.2262 432.61 15.331 433.613 14.7014C434.616 14.0718 435.763 13.757 437.051 13.757C437.814 13.757 438.529 13.8677 439.198 14.089C439.872 14.3104 440.48 14.635 441.021 15.0629C441.562 15.4859 442.014 16.0024 442.378 16.6123C442.742 17.2173 442.993 17.9084 443.131 18.6855ZM450.455 29.3098C449.432 29.3098 448.534 29.0664 447.762 28.5794C446.995 28.0925 446.395 27.4112 445.962 26.5357C445.534 25.6602 445.32 24.6371 445.32 23.4665C445.32 22.286 445.534 21.2555 445.962 20.3751C446.395 19.4946 446.995 18.8109 447.762 18.324C448.534 17.837 449.432 17.5936 450.455 17.5936C451.478 17.5936 452.373 17.837 453.141 18.324C453.913 18.8109 454.513 19.4946 454.941 20.3751C455.374 21.2555 455.59 22.286 455.59 23.4665C455.59 24.6371 455.374 25.6602 454.941 26.5357C454.513 27.4112 453.913 28.0925 453.141 28.5794C452.373 29.0664 451.478 29.3098 450.455 29.3098ZM450.455 27.7457C451.232 27.7457 451.872 27.5465 452.373 27.1481C452.875 26.7497 453.247 26.2258 453.488 25.5766C453.729 24.9273 453.849 24.2239 453.849 23.4665C453.849 22.709 453.729 22.0031 453.488 21.349C453.247 20.6948 452.875 20.166 452.373 19.7627C451.872 19.3594 451.232 19.1577 450.455 19.1577C449.678 19.1577 449.039 19.3594 448.537 19.7627C448.035 20.166 447.664 20.6948 447.423 21.349C447.182 22.0031 447.061 22.709 447.061 23.4665C447.061 24.2239 447.182 24.9273 447.423 25.5766C447.664 26.2258 448.035 26.7497 448.537 27.1481C449.039 27.5465 449.678 27.7457 450.455 27.7457ZM458.248 33.3235V17.7411H459.93V19.5414H460.137C460.265 19.3446 460.442 19.0938 460.668 18.7888C460.899 18.4789 461.229 18.2035 461.657 17.9625C462.09 17.7165 462.675 17.5936 463.413 17.5936C464.367 17.5936 465.208 17.8321 465.936 18.3092C466.664 18.7863 467.232 19.4627 467.64 20.3382C468.049 21.2137 468.253 22.2466 468.253 23.4369C468.253 24.6371 468.049 25.6774 467.64 26.5578C467.232 27.4334 466.667 28.1121 465.943 28.5942C465.22 29.0713 464.387 29.3098 463.442 29.3098C462.714 29.3098 462.132 29.1893 461.694 28.9483C461.256 28.7024 460.919 28.4245 460.683 28.1146C460.447 27.7998 460.265 27.5391 460.137 27.3325H459.989V33.3235H458.248ZM459.96 23.4074C459.96 24.2633 460.085 25.0183 460.336 25.6725C460.587 26.3217 460.953 26.8308 461.436 27.1997C461.918 27.5637 462.508 27.7457 463.206 27.7457C463.934 27.7457 464.542 27.5539 465.029 27.1702C465.52 26.7816 465.889 26.2603 466.135 25.6061C466.386 24.947 466.512 24.2141 466.512 23.4074C466.512 22.6106 466.389 21.8925 466.143 21.2531C465.902 20.6087 465.535 20.0996 465.043 19.7258C464.556 19.3471 463.944 19.1577 463.206 19.1577C462.498 19.1577 461.903 19.3372 461.421 19.6963C460.939 20.0504 460.575 20.5472 460.329 21.1867C460.083 21.8212 459.96 22.5614 459.96 23.4074ZM477.726 29.0737V19.3348H474.716C474.037 19.3348 473.503 19.4922 473.115 19.807C472.726 20.1218 472.532 20.5546 472.532 21.1055C472.532 21.6465 472.707 22.072 473.056 22.3819C473.41 22.6918 473.894 22.8467 474.509 22.8467H478.169V24.4699H474.509C473.742 24.4699 473.08 24.3346 472.525 24.0641C471.969 23.7935 471.541 23.4074 471.241 22.9057C470.941 22.3991 470.791 21.799 470.791 21.1055C470.791 20.407 470.948 19.807 471.263 19.3053C471.578 18.8036 472.028 18.4174 472.613 18.1469C473.203 17.8764 473.904 17.7411 474.716 17.7411H479.379V29.0737H477.726ZM470.171 29.0737L473.388 23.4369H475.277L472.06 29.0737H470.171ZM490.16 22.6106V24.2338H483.903V22.6106H490.16ZM484.317 17.7411V29.0737H482.575V17.7411H484.317ZM491.488 17.7411V29.0737H489.747V17.7411H491.488Z" fill="black"/>
<path d="M507.029 32.3808C506.297 32.3808 505.673 32.1814 505.157 31.7827C504.642 31.3807 504.248 30.7987 503.975 30.0369C503.703 29.2718 503.567 28.3478 503.567 27.265C503.567 26.1887 503.703 25.2696 503.975 24.5078C504.251 23.7427 504.647 23.1591 505.162 22.7571C505.681 22.3519 506.303 22.1492 507.029 22.1492C507.756 22.1492 508.376 22.3519 508.892 22.7571C509.411 23.1591 509.806 23.7427 510.078 24.5078C510.354 25.2696 510.492 26.1887 510.492 27.265C510.492 28.3478 510.356 29.2718 510.083 30.0369C509.811 30.7987 509.417 31.3807 508.902 31.7827C508.386 32.1814 507.762 32.3808 507.029 32.3808ZM507.029 31.311C507.756 31.311 508.32 30.9608 508.722 30.2606C509.124 29.5603 509.325 28.5618 509.325 27.265C509.325 26.4027 509.232 25.6684 509.047 25.0621C508.866 24.4559 508.603 23.9939 508.26 23.6762C507.919 23.3585 507.509 23.1996 507.029 23.1996C506.31 23.1996 505.747 23.5546 505.342 24.2646C504.937 24.9714 504.734 25.9715 504.734 27.265C504.734 28.1274 504.825 28.8601 505.006 29.4631C505.188 30.066 505.449 30.5248 505.789 30.8393C506.133 31.1537 506.546 31.311 507.029 31.311ZM515.256 32.3808C514.588 32.3808 513.998 32.2625 513.486 32.0258C512.977 31.7859 512.58 31.4568 512.294 31.0386C512.009 30.6172 511.868 30.1374 511.871 29.5992C511.868 29.1778 511.951 28.7887 512.119 28.4321C512.288 28.0723 512.518 27.7724 512.81 27.5325C513.105 27.2893 513.434 27.1353 513.797 27.0705V27.0121C513.32 26.889 512.941 26.6215 512.659 26.2098C512.377 25.7948 512.238 25.3231 512.241 24.7947C512.238 24.2889 512.366 23.8367 512.625 23.4379C512.884 23.0392 513.241 22.7247 513.695 22.4945C514.152 22.2643 514.672 22.1492 515.256 22.1492C515.833 22.1492 516.348 22.2643 516.802 22.4945C517.256 22.7247 517.613 23.0392 517.872 23.4379C518.135 23.8367 518.268 24.2889 518.271 24.7947C518.268 25.3231 518.123 25.7948 517.838 26.2098C517.556 26.6215 517.182 26.889 516.715 27.0121V27.0705C517.075 27.1353 517.399 27.2893 517.687 27.5325C517.976 27.7724 518.206 28.0723 518.378 28.4321C518.55 28.7887 518.637 29.1778 518.64 29.5992C518.637 30.1374 518.491 30.6172 518.203 31.0386C517.917 31.4568 517.52 31.7859 517.011 32.0258C516.506 32.2625 515.92 32.3808 515.256 32.3808ZM515.256 31.311C515.706 31.311 516.095 31.238 516.423 31.0921C516.75 30.9462 517.003 30.7404 517.182 30.4745C517.36 30.2087 517.451 29.8975 517.454 29.5409C517.451 29.1648 517.353 28.8325 517.162 28.544C516.971 28.2554 516.71 28.0285 516.379 27.8632C516.052 27.6978 515.677 27.6151 515.256 27.6151C514.831 27.6151 514.452 27.6978 514.118 27.8632C513.787 28.0285 513.526 28.2554 513.335 28.544C513.147 28.8325 513.055 29.1648 513.058 29.5409C513.055 29.8975 513.14 30.2087 513.316 30.4745C513.494 30.7404 513.748 30.9462 514.079 31.0921C514.41 31.238 514.802 31.311 515.256 31.311ZM515.256 26.5842C515.612 26.5842 515.929 26.5129 516.204 26.3702C516.483 26.2276 516.702 26.0282 516.861 25.7721C517.019 25.516 517.1 25.2161 517.104 24.8725C517.1 24.5353 517.021 24.2419 516.865 23.9923C516.71 23.7394 516.494 23.5449 516.219 23.4087C515.943 23.2693 515.622 23.1996 515.256 23.1996C514.883 23.1996 514.557 23.2693 514.278 23.4087C514 23.5449 513.784 23.7394 513.632 23.9923C513.479 24.2419 513.405 24.5353 513.408 24.8725C513.405 25.2161 513.481 25.516 513.636 25.7721C513.795 26.0282 514.014 26.2276 514.293 26.3702C514.572 26.5129 514.893 26.5842 515.256 26.5842ZM521.086 30.9705C520.846 30.9705 520.64 30.8846 520.469 30.7128C520.297 30.541 520.211 30.3351 520.211 30.0952C520.211 29.8553 520.297 29.6495 520.469 29.4776C520.64 29.3058 520.846 29.2199 521.086 29.2199C521.326 29.2199 521.532 29.3058 521.704 29.4776C521.876 29.6495 521.961 29.8553 521.961 30.0952C521.961 30.2541 521.921 30.4 521.84 30.5329C521.762 30.6658 521.657 30.7728 521.524 30.8538C521.394 30.9316 521.248 30.9705 521.086 30.9705ZM521.086 25.9326C520.846 25.9326 520.64 25.8467 520.469 25.6749C520.297 25.503 520.211 25.2972 520.211 25.0573C520.211 24.8174 520.297 24.6115 520.469 24.4397C520.64 24.2679 520.846 24.1819 521.086 24.1819C521.326 24.1819 521.532 24.2679 521.704 24.4397C521.876 24.6115 521.961 24.8174 521.961 25.0573C521.961 25.2161 521.921 25.362 521.84 25.4949C521.762 25.6278 521.657 25.7348 521.524 25.8159C521.394 25.8937 521.248 25.9326 521.086 25.9326ZM523.494 30.2022V29.2102L527.871 22.2854H528.59V23.8221H528.104L524.797 29.0546V29.1324H530.691V30.2022H523.494ZM528.182 32.2446V29.9007V29.4387V22.2854H529.33V32.2446H528.182ZM535.488 32.3808C534.755 32.3808 534.131 32.1814 533.616 31.7827C533.1 31.3807 532.707 30.7987 532.434 30.0369C532.162 29.2718 532.026 28.3478 532.026 27.265C532.026 26.1887 532.162 25.2696 532.434 24.5078C532.71 23.7427 533.105 23.1591 533.621 22.7571C534.139 22.3519 534.762 22.1492 535.488 22.1492C536.214 22.1492 536.835 22.3519 537.351 22.7571C537.869 23.1591 538.265 23.7427 538.537 24.5078C538.813 25.2696 538.95 26.1887 538.95 27.265C538.95 28.3478 538.814 29.2718 538.542 30.0369C538.27 30.7987 537.876 31.3807 537.36 31.7827C536.845 32.1814 536.221 32.3808 535.488 32.3808ZM535.488 31.311C536.214 31.311 536.778 30.9608 537.18 30.2606C537.582 29.5603 537.783 28.5618 537.783 27.265C537.783 26.4027 537.691 25.6684 537.506 25.0621C537.325 24.4559 537.062 23.9939 536.718 23.6762C536.378 23.3585 535.968 23.1996 535.488 23.1996C534.768 23.1996 534.206 23.5546 533.801 24.2646C533.395 24.9714 533.193 25.9715 533.193 27.265C533.193 28.1274 533.284 28.8601 533.465 29.4631C533.647 30.066 533.908 30.5248 534.248 30.8393C534.592 31.1537 535.005 31.311 535.488 31.311Z" fill="#421DFF"/>
<path fill-rule="evenodd" clip-rule="evenodd" d="M556.492 23.1606C556.719 23.3802 556.725 23.7425 556.506 23.9699L547.598 33.1961C547.487 33.3106 547.334 33.3739 547.175 33.3708C547.016 33.3677 546.865 33.2985 546.759 33.1798L542.782 28.7257C542.572 28.4899 542.592 28.1281 542.828 27.9176C543.064 27.707 543.425 27.7275 543.636 27.9633L547.202 31.9576L555.682 23.1748C555.902 22.9474 556.264 22.941 556.492 23.1606Z" fill="#421DFF"/>
<path fill-rule="evenodd" clip-rule="evenodd" d="M559.855 23.1606C560.082 23.3802 560.089 23.7425 559.869 23.9699L550.961 33.1961C550.85 33.3106 550.697 33.3739 550.538 33.3708C550.379 33.3677 550.228 33.2985 550.122 33.1798L546.145 28.7257C545.935 28.4899 545.955 28.1281 546.191 27.9176C546.427 27.707 546.789 27.7275 546.999 27.9633L550.566 31.9576L559.046 23.1748C559.265 22.9474 559.628 22.941 559.855 23.1606Z" fill="#421DFF"/>
<path opacity="0.8" d="M555.688 48C558.961 48 560.598 47.9997 561.938 48.3682C565.441 49.3312 568.179 52.0683 569.142 55.5713C569.428 56.6131 569.49 57.8339 569.504 59.8623L569.594 59.6992C569.597 59.8123 570.118 79.8737 571.392 83.2178C574.074 90.2601 581.282 91.8195 581.317 91.8271C581.26 91.8275 568.045 91.9176 562.909 90.2773C561.222 89.7385 559.636 88.9707 558.343 88.248C556.839 89.0857 555.226 89.7542 553.525 90.2217C550.695 90.9996 547.24 91 540.331 91H210.01C209.179 91 208.763 91.0003 208.412 90.9883C197.584 90.6187 188.891 81.9258 188.521 71.0977C188.51 70.7464 188.51 70.3308 188.51 69.5C188.51 68.6692 188.51 68.2536 188.521 67.9023C188.891 57.0742 197.584 48.3813 208.412 48.0117C208.763 47.9997 209.179 48 210.01 48H555.688Z" fill="#D4C5FF"/>
<path d="M217.247 66.5918H215.418C215.309 66.0655 215.12 65.6031 214.849 65.2047C214.584 64.8063 214.259 64.4718 213.876 64.2013C213.497 63.9258 213.076 63.7193 212.614 63.5815C212.152 63.4438 211.669 63.375 211.168 63.375C210.253 63.375 209.424 63.6061 208.681 64.0685C207.944 64.5308 207.356 65.2121 206.918 66.1122C206.485 67.0123 206.269 68.1165 206.269 69.4249C206.269 70.7333 206.485 71.8375 206.918 72.7376C207.356 73.6377 207.944 74.319 208.681 74.7813C209.424 75.2437 210.253 75.4749 211.168 75.4749C211.669 75.4749 212.152 75.406 212.614 75.2683C213.076 75.1306 213.497 74.9264 213.876 74.6559C214.259 74.3805 214.584 74.0435 214.849 73.6451C215.12 73.2418 215.309 72.7794 215.418 72.2581H217.247C217.11 73.0303 216.859 73.7214 216.495 74.3313C216.131 74.9412 215.678 75.4601 215.137 75.888C214.596 76.311 213.989 76.6332 213.315 76.8546C212.646 77.0759 211.93 77.1866 211.168 77.1866C209.879 77.1866 208.733 76.8718 207.73 76.2422C206.726 75.6126 205.937 74.7174 205.361 73.5566C204.786 72.3958 204.498 71.0186 204.498 69.4249C204.498 67.8313 204.786 66.454 205.361 65.2932C205.937 64.1324 206.726 63.2372 207.73 62.6076C208.733 61.9781 209.879 61.6633 211.168 61.6633C211.93 61.6633 212.646 61.7739 213.315 61.9953C213.989 62.2166 214.596 62.5412 215.137 62.9692C215.678 63.3922 216.131 63.9086 216.495 64.5185C216.859 65.1235 217.11 65.8146 217.247 66.5918ZM225.398 70.6054V72.2285H219.407V70.6054H225.398ZM220.883 65.6474V76.98H219.142V65.6474H220.883ZM228.881 77.2161C227.857 77.2161 226.96 76.9726 226.188 76.4857C225.42 75.9987 224.82 75.3175 224.387 74.4419C223.959 73.5664 223.745 72.5433 223.745 71.3727C223.745 70.1922 223.959 69.1618 224.387 68.2813C224.82 67.4009 225.42 66.7172 226.188 66.2302C226.96 65.7433 227.857 65.4998 228.881 65.4998C229.904 65.4998 230.799 65.7433 231.566 66.2302C232.338 66.7172 232.938 67.4009 233.366 68.2813C233.799 69.1618 234.016 70.1922 234.016 71.3727C234.016 72.5433 233.799 73.5664 233.366 74.4419C232.938 75.3175 232.338 75.9987 231.566 76.4857C230.799 76.9726 229.904 77.2161 228.881 77.2161ZM228.881 75.6519C229.658 75.6519 230.297 75.4527 230.799 75.0543C231.301 74.6559 231.672 74.1321 231.913 73.4828C232.154 72.8335 232.274 72.1302 232.274 71.3727C232.274 70.6152 232.154 69.9094 231.913 69.2552C231.672 68.601 231.301 68.0723 230.799 67.6689C230.297 67.2656 229.658 67.064 228.881 67.064C228.103 67.064 227.464 67.2656 226.962 67.6689C226.461 68.0723 226.089 68.601 225.848 69.2552C225.607 69.9094 225.487 70.6152 225.487 71.3727C225.487 72.1302 225.607 72.8335 225.848 73.4828C226.089 74.1321 226.461 74.6559 226.962 75.0543C227.464 75.4527 228.103 75.6519 228.881 75.6519ZM235.639 80.2263V75.3568H236.583C236.814 75.1158 237.014 74.8551 237.181 74.5748C237.348 74.2944 237.493 73.9624 237.616 73.5787C237.744 73.1901 237.852 72.718 237.941 72.1621C238.029 71.6014 238.108 70.9251 238.177 70.1332L238.56 65.6474H245.761V75.3568H247.503V80.2263H245.761V76.98H237.38V80.2263H235.639ZM238.56 75.3568H244.02V67.2705H240.184L239.888 70.1332C239.766 71.3186 239.613 72.354 239.431 73.2393C239.249 74.1247 238.959 74.8305 238.56 75.3568ZM253.149 77.2456C252.43 77.2456 251.779 77.1103 251.193 76.8398C250.608 76.5644 250.143 76.1684 249.799 75.6519C249.455 75.1306 249.283 74.501 249.283 73.7632C249.283 73.1139 249.41 72.5876 249.666 72.1843C249.922 71.776 250.264 71.4563 250.692 71.2251C251.12 70.994 251.592 70.8218 252.108 70.7087C252.63 70.5906 253.154 70.4972 253.68 70.4283C254.368 70.3398 254.927 70.2734 255.355 70.2291C255.787 70.1799 256.102 70.0988 256.299 69.9856C256.501 69.8725 256.601 69.6758 256.601 69.3954V69.3364C256.601 68.6084 256.402 68.0428 256.004 67.6394C255.61 67.2361 255.013 67.0344 254.211 67.0344C253.38 67.0344 252.728 67.2164 252.256 67.5804C251.784 67.9444 251.452 68.333 251.26 68.7461L249.607 68.1559C249.902 67.4673 250.296 66.9311 250.788 66.5475C251.284 66.1589 251.825 65.8884 252.411 65.7359C253.001 65.5785 253.581 65.4998 254.152 65.4998C254.516 65.4998 254.934 65.5441 255.406 65.6326C255.883 65.7162 256.343 65.8908 256.786 66.1565C257.234 66.4221 257.605 66.8229 257.9 67.3591C258.195 67.8952 258.343 68.6133 258.343 69.5134V76.98H256.601V75.4454H256.513C256.395 75.6913 256.198 75.9544 255.923 76.2348C255.647 76.5152 255.281 76.7537 254.823 76.9505C254.366 77.1472 253.808 77.2456 253.149 77.2456ZM253.414 75.6815C254.103 75.6815 254.683 75.5462 255.155 75.2757C255.633 75.0051 255.992 74.6559 256.233 74.228C256.479 73.8001 256.601 73.35 256.601 72.8778V71.2842C256.528 71.3727 256.365 71.4539 256.115 71.5276C255.869 71.5965 255.583 71.658 255.259 71.7121C254.939 71.7613 254.627 71.8055 254.322 71.8449C254.022 71.8793 253.778 71.9088 253.591 71.9334C253.139 71.9925 252.716 72.0884 252.322 72.2212C251.934 72.3491 251.619 72.5433 251.378 72.804C251.142 73.0598 251.024 73.409 251.024 73.8517C251.024 74.4567 251.248 74.9141 251.695 75.224C252.148 75.529 252.721 75.6815 253.414 75.6815ZM274.949 70.5169V72.14H268.692V70.5169H274.949ZM269.105 65.6474V76.98H267.364V65.6474H269.105ZM276.277 65.6474V76.98H274.536V65.6474H276.277ZM284.208 77.2161C283.116 77.2161 282.174 76.9751 281.382 76.493C280.595 76.0061 279.988 75.3273 279.56 74.4567C279.137 73.5812 278.925 72.563 278.925 71.4022C278.925 70.2414 279.137 69.2183 279.56 68.333C279.988 67.4427 280.583 66.7492 281.345 66.2524C282.113 65.7507 283.008 65.4998 284.031 65.4998C284.621 65.4998 285.204 65.5982 285.78 65.7949C286.355 65.9917 286.879 66.3114 287.351 66.7541C287.823 67.1918 288.2 67.7722 288.48 68.4953C288.76 69.2183 288.901 70.1086 288.901 71.1661V71.9039H280.165V70.3988H287.13C287.13 69.7594 287.002 69.1888 286.746 68.6871C286.495 68.1854 286.136 67.7895 285.669 67.4993C285.207 67.2091 284.661 67.064 284.031 67.064C283.338 67.064 282.737 67.2361 282.231 67.5804C281.729 67.9198 281.343 68.3625 281.072 68.9085C280.802 69.4544 280.667 70.0397 280.667 70.6644V71.6678C280.667 72.5237 280.814 73.2492 281.109 73.8443C281.409 74.4346 281.825 74.8846 282.356 75.1945C282.887 75.4995 283.505 75.6519 284.208 75.6519C284.666 75.6519 285.079 75.588 285.448 75.4601C285.821 75.3273 286.144 75.1306 286.414 74.8699C286.685 74.6043 286.894 74.2747 287.041 73.8812L288.723 74.3534C288.546 74.924 288.249 75.4257 287.831 75.8585C287.413 76.2864 286.896 76.6209 286.281 76.8619C285.667 77.098 284.975 77.2161 284.208 77.2161ZM290.546 76.98V75.3568H290.959C291.298 75.3568 291.581 75.2904 291.807 75.1576C292.034 75.0199 292.216 74.7813 292.353 74.4419C292.496 74.0976 292.604 73.6205 292.678 73.0106C292.757 72.3958 292.813 71.6137 292.848 70.6644L293.054 65.6474H300.609V76.98H298.868V67.2705H294.707L294.53 71.3137C294.491 72.2433 294.407 73.0623 294.279 73.7706C294.156 74.4739 293.967 75.0642 293.711 75.5413C293.46 76.0184 293.126 76.3774 292.708 76.6185C292.289 76.8595 291.766 76.98 291.136 76.98H290.546ZM305.309 69.7495H308.556C309.884 69.7495 310.899 70.0865 311.603 70.7603C312.306 71.4342 312.658 72.2876 312.658 73.3205C312.658 73.9993 312.5 74.6166 312.185 75.1724C311.871 75.7233 311.408 76.1635 310.798 76.493C310.189 76.8177 309.441 76.98 308.556 76.98H303.804V65.6474H305.545V75.3568H308.556C309.244 75.3568 309.81 75.1748 310.252 74.8108C310.695 74.4469 310.916 73.9796 310.916 73.409C310.916 72.809 310.695 72.3195 310.252 71.9408C309.81 71.5621 309.244 71.3727 308.556 71.3727H305.309V69.7495ZM314.6 74.0878H316.459C316.499 74.5993 316.73 74.9879 317.153 75.2535C317.581 75.5191 318.136 75.6519 318.82 75.6519C319.519 75.6519 320.116 75.5093 320.613 75.224C321.11 74.9338 321.358 74.4665 321.358 73.8222C321.358 73.4435 321.265 73.1139 321.078 72.8335C320.891 72.5483 320.628 72.3269 320.288 72.1695C319.949 72.0121 319.548 71.9334 319.086 71.9334H317.138V70.3693H319.086C319.779 70.3693 320.291 70.2119 320.62 69.8971C320.955 69.5823 321.122 69.1888 321.122 68.7166C321.122 68.21 320.943 67.8042 320.583 67.4993C320.224 67.1894 319.715 67.0344 319.056 67.0344C318.392 67.0344 317.839 67.1845 317.396 67.4845C316.954 67.7796 316.72 68.1608 316.695 68.6281H314.866C314.885 68.0182 315.072 67.4796 315.426 67.0123C315.78 66.5401 316.262 66.1712 316.872 65.9056C317.482 65.6351 318.181 65.4998 318.968 65.4998C319.765 65.4998 320.456 65.64 321.041 65.9204C321.631 66.1958 322.086 66.5721 322.406 67.0492C322.73 67.5214 322.893 68.0575 322.893 68.6576C322.893 69.297 322.713 69.8135 322.354 70.207C321.995 70.6005 321.545 70.8808 321.004 71.0481V71.1661C321.432 71.1956 321.803 71.3334 322.118 71.5793C322.438 71.8203 322.686 72.1376 322.863 72.531C323.04 72.9196 323.129 73.35 323.129 73.8222C323.129 74.5108 322.944 75.1109 322.576 75.6224C322.207 76.1291 321.7 76.5225 321.056 76.8029C320.411 77.0784 319.676 77.2161 318.85 77.2161C318.048 77.2161 317.33 77.0857 316.695 76.825C316.061 76.5594 315.557 76.193 315.183 75.7257C314.814 75.2535 314.62 74.7076 314.6 74.0878ZM332.392 76.98V67.241H329.382C328.703 67.241 328.169 67.3984 327.781 67.7132C327.392 68.028 327.198 68.4609 327.198 69.0117C327.198 69.5528 327.372 69.9783 327.722 70.2881C328.076 70.598 328.56 70.753 329.175 70.753H332.835V72.3761H329.175C328.408 72.3761 327.746 72.2408 327.19 71.9703C326.635 71.6998 326.207 71.3137 325.907 70.812C325.607 70.3054 325.457 69.7053 325.457 69.0117C325.457 68.3133 325.614 67.7132 325.929 67.2115C326.244 66.7098 326.694 66.3237 327.279 66.0532C327.869 65.7826 328.57 65.6474 329.382 65.6474H334.045V76.98H332.392ZM324.837 76.98L328.054 71.3432H329.942L326.726 76.98H324.837ZM339.838 74.9141L339.72 75.711C339.637 76.2717 339.509 76.8718 339.337 77.5112C339.169 78.1506 338.995 78.7532 338.813 79.3188C338.631 79.8845 338.481 80.3345 338.363 80.669H337.035C337.099 80.3542 337.182 79.9386 337.285 79.4221C337.389 78.9056 337.492 78.3277 337.595 77.6883C337.704 77.0538 337.792 76.4045 337.861 75.7405L337.949 74.9141H339.838ZM347.698 80.2263V75.3568H348.642C348.873 75.1158 349.072 74.8551 349.24 74.5748C349.407 74.2944 349.552 73.9624 349.675 73.5787C349.803 73.1901 349.911 72.718 350 72.1621C350.088 71.6014 350.167 70.9251 350.236 70.1332L350.619 65.6474H357.82V75.3568H359.561V80.2263H357.82V76.98H349.439V80.2263H347.698ZM350.619 75.3568H356.079V67.2705H352.242L351.947 70.1332C351.824 71.3186 351.672 72.354 351.49 73.2393C351.308 74.1247 351.018 74.8305 350.619 75.3568ZM366.476 77.2161C365.453 77.2161 364.556 76.9726 363.784 76.4857C363.016 75.9987 362.416 75.3175 361.983 74.4419C361.555 73.5664 361.341 72.5433 361.341 71.3727C361.341 70.1922 361.555 69.1618 361.983 68.2813C362.416 67.4009 363.016 66.7172 363.784 66.2302C364.556 65.7433 365.453 65.4998 366.476 65.4998C367.5 65.4998 368.395 65.7433 369.162 66.2302C369.934 66.7172 370.534 67.4009 370.962 68.2813C371.395 69.1618 371.612 70.1922 371.612 71.3727C371.612 72.5433 371.395 73.5664 370.962 74.4419C370.534 75.3175 369.934 75.9987 369.162 76.4857C368.395 76.9726 367.5 77.2161 366.476 77.2161ZM366.476 75.6519C367.254 75.6519 367.893 75.4527 368.395 75.0543C368.896 74.6559 369.268 74.1321 369.509 73.4828C369.75 72.8335 369.87 72.1302 369.87 71.3727C369.87 70.6152 369.75 69.9094 369.509 69.2552C369.268 68.601 368.896 68.0723 368.395 67.6689C367.893 67.2656 367.254 67.064 366.476 67.064C365.699 67.064 365.06 67.2656 364.558 67.6689C364.056 68.0723 363.685 68.601 363.444 69.2552C363.203 69.9094 363.083 70.6152 363.083 71.3727C363.083 72.1302 363.203 72.8335 363.444 73.4828C363.685 74.1321 364.056 74.6559 364.558 75.0543C365.06 75.4527 365.699 75.6519 366.476 75.6519ZM378.873 77.2161C377.811 77.2161 376.896 76.9652 376.129 76.4635C375.361 75.9618 374.771 75.2707 374.358 74.3903C373.945 73.5099 373.738 72.504 373.738 71.3727C373.738 70.2217 373.95 69.206 374.373 68.3256C374.801 67.4402 375.396 66.7492 376.158 66.2524C376.926 65.7507 377.821 65.4998 378.844 65.4998C379.641 65.4998 380.359 65.6474 380.998 65.9425C381.638 66.2376 382.161 66.6508 382.57 67.182C382.978 67.7132 383.231 68.333 383.33 69.0413H381.588C381.456 68.5248 381.161 68.0674 380.703 67.6689C380.251 67.2656 379.641 67.064 378.873 67.064C378.195 67.064 377.599 67.241 377.088 67.5952C376.581 67.9444 376.185 68.4387 375.9 69.0781C375.62 69.7127 375.479 70.4578 375.479 71.3137C375.479 72.1892 375.617 72.9516 375.893 73.6009C376.173 74.2501 376.567 74.7543 377.073 75.1133C377.585 75.4724 378.185 75.6519 378.873 75.6519C379.326 75.6519 379.737 75.5732 380.105 75.4158C380.474 75.2584 380.787 75.0322 381.042 74.7371C381.298 74.4419 381.48 74.0878 381.588 73.6746H383.33C383.231 74.3436 382.988 74.9461 382.599 75.4822C382.216 76.0135 381.707 76.4365 381.072 76.7513C380.442 77.0611 379.71 77.2161 378.873 77.2161ZM384.982 67.2705V65.6474H394.19V67.2705H390.472V76.98H388.73V67.2705H384.982ZM397.851 81.2297C397.556 81.2297 397.293 81.2051 397.062 81.1559C396.831 81.1117 396.671 81.0674 396.582 81.0231L397.025 79.4885C397.448 79.5967 397.822 79.6361 398.147 79.6065C398.471 79.577 398.759 79.4319 399.01 79.1712C399.266 78.9155 399.499 78.4998 399.711 77.9244L400.035 77.039L395.845 65.6474H397.733L400.862 74.678H400.98L404.108 65.6474H405.997L401.186 78.6327C400.97 79.218 400.702 79.7025 400.382 80.0861C400.062 80.4747 399.691 80.7624 399.268 80.9493C398.85 81.1363 398.378 81.2297 397.851 81.2297ZM408.295 76.98V65.6474H417.208V76.98H415.466V67.2705H410.036V76.98H408.295ZM425.523 74.0878H427.382C427.421 74.5993 427.652 74.9879 428.075 75.2535C428.503 75.5191 429.059 75.6519 429.743 75.6519C430.441 75.6519 431.039 75.5093 431.536 75.224C432.032 74.9338 432.281 74.4665 432.281 73.8222C432.281 73.4435 432.187 73.1139 432 72.8335C431.814 72.5483 431.55 72.3269 431.211 72.1695C430.872 72.0121 430.471 71.9334 430.008 71.9334H428.061V70.3693H430.008C430.702 70.3693 431.213 70.2119 431.543 69.8971C431.878 69.5823 432.045 69.1888 432.045 68.7166C432.045 68.21 431.865 67.8042 431.506 67.4993C431.147 67.1894 430.638 67.0344 429.979 67.0344C429.315 67.0344 428.762 67.1845 428.319 67.4845C427.876 67.7796 427.643 68.1608 427.618 68.6281H425.788C425.808 68.0182 425.995 67.4796 426.349 67.0123C426.703 66.5401 427.185 66.1712 427.795 65.9056C428.405 65.6351 429.103 65.4998 429.89 65.4998C430.687 65.4998 431.378 65.64 431.964 65.9204C432.554 66.1958 433.009 66.5721 433.329 67.0492C433.653 67.5214 433.815 68.0575 433.815 68.6576C433.815 69.297 433.636 69.8135 433.277 70.207C432.918 70.6005 432.468 70.8808 431.927 71.0481V71.1661C432.355 71.1956 432.726 71.3334 433.041 71.5793C433.36 71.8203 433.609 72.1376 433.786 72.531C433.963 72.9196 434.052 73.35 434.052 73.8222C434.052 74.5108 433.867 75.1109 433.498 75.6224C433.129 76.1291 432.623 76.5225 431.978 76.8029C431.334 77.0784 430.599 77.2161 429.772 77.2161C428.971 77.2161 428.252 77.0857 427.618 76.825C426.983 76.5594 426.479 76.193 426.105 75.7257C425.737 75.2535 425.542 74.7076 425.523 74.0878ZM439.832 77.2456C439.114 77.2456 438.462 77.1103 437.877 76.8398C437.292 76.5644 436.827 76.1684 436.483 75.6519C436.138 75.1306 435.966 74.501 435.966 73.7632C435.966 73.1139 436.094 72.5876 436.35 72.1843C436.606 71.776 436.947 71.4563 437.375 71.2251C437.803 70.994 438.275 70.8218 438.792 70.7087C439.313 70.5906 439.837 70.4972 440.363 70.4283C441.052 70.3398 441.61 70.2734 442.038 70.2291C442.471 70.1799 442.786 70.0988 442.983 69.9856C443.184 69.8725 443.285 69.6758 443.285 69.3954V69.3364C443.285 68.6084 443.086 68.0428 442.688 67.6394C442.294 67.2361 441.696 67.0344 440.895 67.0344C440.063 67.0344 439.412 67.2164 438.939 67.5804C438.467 67.9444 438.135 68.333 437.943 68.7461L436.291 68.1559C436.586 67.4673 436.979 66.9311 437.471 66.5475C437.968 66.1589 438.509 65.8884 439.094 65.7359C439.685 65.5785 440.265 65.4998 440.836 65.4998C441.2 65.4998 441.618 65.5441 442.09 65.6326C442.567 65.7162 443.027 65.8908 443.47 66.1565C443.917 66.4221 444.289 66.8229 444.584 67.3591C444.879 67.8952 445.026 68.6133 445.026 69.5134V76.98H443.285V75.4454H443.197C443.079 75.6913 442.882 75.9544 442.606 76.2348C442.331 76.5152 441.964 76.7537 441.507 76.9505C441.05 77.1472 440.491 77.2456 439.832 77.2456ZM440.098 75.6815C440.786 75.6815 441.367 75.5462 441.839 75.2757C442.316 75.0051 442.675 74.6559 442.916 74.228C443.162 73.8001 443.285 73.35 443.285 72.8778V71.2842C443.211 71.3727 443.049 71.4539 442.798 71.5276C442.552 71.5965 442.267 71.658 441.942 71.7121C441.623 71.7613 441.31 71.8055 441.005 71.8449C440.705 71.8793 440.462 71.9088 440.275 71.9334C439.822 71.9925 439.399 72.0884 439.006 72.2212C438.617 72.3491 438.303 72.5433 438.062 72.804C437.825 73.0598 437.707 73.409 437.707 73.8517C437.707 74.4567 437.931 74.9141 438.379 75.224C438.831 75.529 439.404 75.6815 440.098 75.6815ZM448.204 76.98V65.6474H449.946V70.5759H451.097L455.169 65.6474H457.412L452.838 71.1071L457.471 76.98H455.228L451.51 72.199H449.946V76.98H448.204ZM459.364 81.2297V65.6474H461.046V67.4476H461.252C461.38 67.2509 461.557 67 461.784 66.6951C462.015 66.3852 462.344 66.1097 462.772 65.8687C463.205 65.6228 463.79 65.4998 464.528 65.4998C465.482 65.4998 466.324 65.7384 467.052 66.2155C467.779 66.6926 468.348 67.3689 468.756 68.2444C469.164 69.12 469.368 70.1529 469.368 71.3432C469.368 72.5433 469.164 73.5836 468.756 74.4641C468.348 75.3396 467.782 76.0184 467.059 76.5004C466.336 76.9775 465.502 77.2161 464.558 77.2161C463.83 77.2161 463.247 77.0956 462.809 76.8546C462.371 76.6086 462.034 76.3307 461.798 76.0208C461.562 75.706 461.38 75.4454 461.252 75.2388H461.105V81.2297H459.364ZM461.075 71.3137C461.075 72.1695 461.201 72.9245 461.452 73.5787C461.702 74.228 462.069 74.7371 462.551 75.106C463.033 75.47 463.623 75.6519 464.322 75.6519C465.05 75.6519 465.657 75.4601 466.144 75.0765C466.636 74.6879 467.005 74.1665 467.251 73.5123C467.502 72.8532 467.627 72.1203 467.627 71.3137C467.627 70.5169 467.504 69.7987 467.258 69.1593C467.017 68.515 466.651 68.0059 466.159 67.6321C465.672 67.2533 465.059 67.064 464.322 67.064C463.613 67.064 463.018 67.2435 462.536 67.6025C462.054 67.9567 461.69 68.4535 461.444 69.0929C461.198 69.7274 461.075 70.4677 461.075 71.3137ZM473.529 69.7495H476.776C478.104 69.7495 479.119 70.0865 479.823 70.7603C480.526 71.4342 480.878 72.2876 480.878 73.3205C480.878 73.9993 480.72 74.6166 480.406 75.1724C480.091 75.7233 479.629 76.1635 479.019 76.493C478.409 76.8177 477.661 76.98 476.776 76.98H472.024V65.6474H473.765V75.3568H476.776C477.464 75.3568 478.03 75.1748 478.473 74.8108C478.915 74.4469 479.137 73.9796 479.137 73.409C479.137 72.809 478.915 72.3195 478.473 71.9408C478.03 71.5621 477.464 71.3727 476.776 71.3727H473.529V69.7495ZM482.678 76.98V65.6474H484.419V76.98H482.678ZM486.957 67.2705V65.6474H496.165V67.2705H492.447V76.98H490.705V67.2705H486.957Z" fill="black"/>
<path d="M511.104 80.4706C510.371 80.4706 509.747 80.2713 509.231 79.8725C508.716 79.4705 508.322 78.8886 508.05 78.1267C507.777 77.3616 507.641 76.4377 507.641 75.3549C507.641 74.2785 507.777 73.3595 508.05 72.5976C508.325 71.8325 508.721 71.249 509.236 70.847C509.755 70.4417 510.377 70.2391 511.104 70.2391C511.83 70.2391 512.451 70.4417 512.966 70.847C513.485 71.249 513.88 71.8325 514.153 72.5976C514.428 73.3595 514.566 74.2785 514.566 75.3549C514.566 76.4377 514.43 77.3616 514.157 78.1267C513.885 78.8886 513.491 79.4705 512.976 79.8725C512.46 80.2713 511.836 80.4706 511.104 80.4706ZM511.104 79.4008C511.83 79.4008 512.394 79.0507 512.796 78.3504C513.198 77.6502 513.399 76.6516 513.399 75.3549C513.399 74.4925 513.306 73.7582 513.122 73.152C512.94 72.5457 512.678 72.0838 512.334 71.766C511.993 71.4483 511.583 71.2895 511.104 71.2895C510.384 71.2895 509.821 71.6445 509.416 72.3545C509.011 73.0612 508.808 74.0613 508.808 75.3549C508.808 76.2172 508.899 76.9499 509.081 77.5529C509.262 78.1559 509.523 78.6146 509.864 78.9291C510.207 79.2436 510.621 79.4008 511.104 79.4008ZM519.33 80.4706C518.662 80.4706 518.072 80.3523 517.56 80.1156C517.051 79.8757 516.654 79.5467 516.369 79.1285C516.083 78.707 515.942 78.2272 515.945 77.6891C515.942 77.2676 516.025 76.8786 516.193 76.522C516.362 76.1621 516.592 75.8622 516.884 75.6223C517.179 75.3792 517.508 75.2252 517.871 75.1603V75.102C517.395 74.9788 517.015 74.7113 516.733 74.2996C516.451 73.8846 516.312 73.4129 516.315 72.8845C516.312 72.3788 516.44 71.9265 516.699 71.5278C516.959 71.129 517.315 70.8145 517.769 70.5844C518.226 70.3542 518.746 70.2391 519.33 70.2391C519.907 70.2391 520.423 70.3542 520.876 70.5844C521.33 70.8145 521.687 71.129 521.946 71.5278C522.209 71.9265 522.342 72.3788 522.345 72.8845C522.342 73.4129 522.198 73.8846 521.912 74.2996C521.63 74.7113 521.256 74.9788 520.789 75.102V75.1603C521.149 75.2252 521.473 75.3792 521.761 75.6223C522.05 75.8622 522.28 76.1621 522.452 76.522C522.624 76.8786 522.711 77.2676 522.715 77.6891C522.711 78.2272 522.565 78.707 522.277 79.1285C521.992 79.5467 521.595 79.8757 521.086 80.1156C520.58 80.3523 519.995 80.4706 519.33 80.4706ZM519.33 79.4008C519.781 79.4008 520.17 79.3279 520.497 79.182C520.825 79.0361 521.077 78.8302 521.256 78.5644C521.434 78.2985 521.525 77.9873 521.528 77.6307C521.525 77.2546 521.428 76.9223 521.236 76.6338C521.045 76.3453 520.784 76.1183 520.453 75.953C520.126 75.7877 519.751 75.705 519.33 75.705C518.905 75.705 518.526 75.7877 518.192 75.953C517.861 76.1183 517.6 76.3453 517.409 76.6338C517.221 76.9223 517.129 77.2546 517.132 77.6307C517.129 77.9873 517.215 78.2985 517.39 78.5644C517.568 78.8302 517.823 79.0361 518.153 79.182C518.484 79.3279 518.876 79.4008 519.33 79.4008ZM519.33 74.6741C519.687 74.6741 520.003 74.6027 520.278 74.4601C520.557 74.3174 520.776 74.1181 520.935 73.862C521.094 73.6058 521.175 73.306 521.178 72.9623C521.175 72.6252 521.095 72.3318 520.94 72.0821C520.784 71.8293 520.568 71.6347 520.293 71.4986C520.017 71.3592 519.696 71.2895 519.33 71.2895C518.957 71.2895 518.631 71.3592 518.353 71.4986C518.074 71.6347 517.858 71.8293 517.706 72.0821C517.553 72.3318 517.479 72.6252 517.482 72.9623C517.479 73.306 517.555 73.6058 517.711 73.862C517.87 74.1181 518.088 74.3174 518.367 74.4601C518.646 74.6027 518.967 74.6741 519.33 74.6741ZM525.16 79.0604C524.92 79.0604 524.715 78.9745 524.543 78.8027C524.371 78.6308 524.285 78.425 524.285 78.1851C524.285 77.9452 524.371 77.7393 524.543 77.5675C524.715 77.3957 524.92 77.3097 525.16 77.3097C525.4 77.3097 525.606 77.3957 525.778 77.5675C525.95 77.7393 526.036 77.9452 526.036 78.1851C526.036 78.3439 525.995 78.4898 525.914 78.6227C525.836 78.7557 525.731 78.8626 525.598 78.9437C525.468 79.0215 525.322 79.0604 525.16 79.0604ZM525.16 74.0224C524.92 74.0224 524.715 73.9365 524.543 73.7647C524.371 73.5929 524.285 73.387 524.285 73.1471C524.285 72.9072 524.371 72.7013 524.543 72.5295C524.715 72.3577 524.92 72.2718 525.16 72.2718C525.4 72.2718 525.606 72.3577 525.778 72.5295C525.95 72.7013 526.036 72.9072 526.036 73.1471C526.036 73.306 525.995 73.4518 525.914 73.5848C525.836 73.7177 525.731 73.8247 525.598 73.9057C525.468 73.9835 525.322 74.0224 525.16 74.0224ZM527.568 78.2921V77.3L531.945 70.3753H532.665V71.9119H532.178L528.872 77.1444V77.2222H534.765V78.2921H527.568ZM532.256 80.3345V77.9906V77.5286V70.3753H533.404V80.3345H532.256ZM539.681 70.3753V80.3345H538.475V71.6396H538.417L535.986 73.2541V72.0286L538.475 70.3753H539.681Z" fill="#421DFF"/>
<path fill-rule="evenodd" clip-rule="evenodd" d="M559.8 71.4384C560.028 71.658 560.034 72.0203 559.815 72.2477L550.906 81.474C550.796 81.5885 550.643 81.6518 550.483 81.6487C550.324 81.6456 550.174 81.5763 550.068 81.4576L546.091 77.0035C545.88 76.7677 545.901 76.4059 546.136 76.1954C546.372 75.9849 546.734 76.0053 546.945 76.2411L550.511 80.2354L558.991 71.4526C559.211 71.2252 559.573 71.2189 559.8 71.4384Z" fill="#421DFF"/>
<path fill-rule="evenodd" clip-rule="evenodd" d="M562.855 71.3593C563.082 71.5789 563.089 71.9412 562.869 72.1686L553.961 81.3949C553.85 81.5094 553.697 81.5727 553.538 81.5696C553.379 81.5665 553.228 81.4972 553.122 81.3785L549.145 76.9244C548.935 76.6886 548.955 76.3268 549.191 76.1163C549.427 75.9058 549.789 75.9262 549.999 76.162L553.566 80.1563L562.046 71.3735C562.265 71.1461 562.628 71.1398 562.855 71.3593Z" fill="#421DFF"/>
<path opacity="0.8" d="M162 118C162 116.974 162 116.461 161.981 116.027C161.531 105.721 153.279 97.4689 142.973 97.0189C142.539 97 142.026 97 141 97H41.832C35.4397 97 32.2436 97 29.6115 97.6593C21.7371 99.6317 15.5888 105.78 13.6163 113.654C12.957 116.287 12.957 119.483 12.957 125.875C12.957 128.781 12.957 130.233 13.2567 131.43C14.1533 135.009 16.948 137.804 20.5272 138.7C21.7236 139 23.1764 139 26.082 139H141C142.026 139 142.539 139 142.973 138.981C153.279 138.531 161.531 130.279 161.981 119.973C162 119.539 162 119.026 162 118Z" fill="#BCA4FF"/>
<path d="M115.02 130.129C114.324 130.129 113.732 129.94 113.242 129.561C112.753 129.18 112.379 128.627 112.12 127.904C111.862 127.178 111.733 126.301 111.733 125.273C111.733 124.251 111.862 123.378 112.12 122.655C112.382 121.929 112.757 121.375 113.247 120.993C113.739 120.609 114.33 120.416 115.02 120.416C115.709 120.416 116.298 120.609 116.788 120.993C117.28 121.375 117.656 121.929 117.914 122.655C118.176 123.378 118.306 124.251 118.306 125.273C118.306 126.301 118.177 127.178 117.919 127.904C117.66 128.627 117.286 129.18 116.797 129.561C116.308 129.94 115.715 130.129 115.02 130.129ZM115.02 129.114C115.709 129.114 116.244 128.781 116.626 128.116C117.008 127.452 117.199 126.504 117.199 125.273C117.199 124.454 117.111 123.757 116.935 123.181C116.763 122.606 116.514 122.167 116.188 121.866C115.864 121.564 115.475 121.413 115.02 121.413C114.336 121.413 113.802 121.75 113.418 122.424C113.033 123.095 112.841 124.045 112.841 125.273C112.841 126.091 112.927 126.787 113.099 127.359C113.271 127.932 113.519 128.367 113.842 128.666C114.169 128.964 114.561 129.114 115.02 129.114ZM122.829 130.129C122.195 130.129 121.635 130.017 121.149 129.792C120.666 129.565 120.289 129.252 120.018 128.855C119.747 128.455 119.613 128 119.616 127.489C119.613 127.089 119.691 126.719 119.852 126.381C120.012 126.039 120.23 125.754 120.507 125.527C120.787 125.296 121.099 125.15 121.444 125.088V125.033C120.992 124.916 120.632 124.662 120.364 124.271C120.096 123.877 119.964 123.429 119.967 122.928C119.964 122.447 120.085 122.018 120.332 121.64C120.578 121.261 120.916 120.962 121.347 120.744C121.781 120.525 122.275 120.416 122.829 120.416C123.377 120.416 123.866 120.525 124.297 120.744C124.728 120.962 125.067 121.261 125.313 121.64C125.562 122.018 125.688 122.447 125.691 122.928C125.688 123.429 125.551 123.877 125.28 124.271C125.013 124.662 124.657 124.916 124.214 125.033V125.088C124.556 125.15 124.863 125.296 125.137 125.527C125.411 125.754 125.63 126.039 125.793 126.381C125.956 126.719 126.039 127.089 126.042 127.489C126.039 128 125.901 128.455 125.627 128.855C125.356 129.252 124.979 129.565 124.496 129.792C124.016 130.017 123.46 130.129 122.829 130.129ZM122.829 129.114C123.257 129.114 123.626 129.044 123.937 128.906C124.248 128.767 124.488 128.572 124.657 128.32C124.827 128.067 124.913 127.772 124.916 127.433C124.913 127.076 124.82 126.761 124.639 126.487C124.457 126.213 124.209 125.998 123.896 125.841C123.585 125.684 123.229 125.605 122.829 125.605C122.426 125.605 122.066 125.684 121.749 125.841C121.435 125.998 121.187 126.213 121.006 126.487C120.827 126.761 120.739 127.076 120.742 127.433C120.739 127.772 120.821 128.067 120.987 128.32C121.156 128.572 121.398 128.767 121.712 128.906C122.026 129.044 122.398 129.114 122.829 129.114ZM122.829 124.626C123.168 124.626 123.468 124.559 123.729 124.423C123.994 124.288 124.202 124.099 124.353 123.855C124.503 123.612 124.58 123.328 124.583 123.001C124.58 122.681 124.505 122.403 124.357 122.166C124.209 121.926 124.005 121.741 123.743 121.612C123.482 121.48 123.177 121.413 122.829 121.413C122.475 121.413 122.166 121.48 121.901 121.612C121.637 121.741 121.432 121.926 121.287 122.166C121.143 122.403 121.072 122.681 121.075 123.001C121.072 123.328 121.144 123.612 121.292 123.855C121.443 124.099 121.65 124.288 121.915 124.423C122.18 124.559 122.484 124.626 122.829 124.626ZM128.364 128.79C128.136 128.79 127.941 128.709 127.778 128.546C127.615 128.383 127.533 128.187 127.533 127.96C127.533 127.732 127.615 127.536 127.778 127.373C127.941 127.21 128.136 127.129 128.364 127.129C128.592 127.129 128.787 127.21 128.95 127.373C129.113 127.536 129.195 127.732 129.195 127.96C129.195 128.11 129.156 128.249 129.08 128.375C129.006 128.501 128.906 128.603 128.779 128.68C128.656 128.754 128.518 128.79 128.364 128.79ZM128.364 124.008C128.136 124.008 127.941 123.926 127.778 123.763C127.615 123.6 127.533 123.405 127.533 123.177C127.533 122.949 127.615 122.754 127.778 122.591C127.941 122.427 128.136 122.346 128.364 122.346C128.592 122.346 128.787 122.427 128.95 122.591C129.113 122.754 129.195 122.949 129.195 123.177C129.195 123.328 129.156 123.466 129.08 123.592C129.006 123.719 128.906 123.82 128.779 123.897C128.656 123.971 128.518 124.008 128.364 124.008ZM130.65 128.061V127.119L134.805 120.545H135.488V122.004H135.026L131.887 126.972V127.045H137.482V128.061H130.65ZM135.1 130V127.775V127.336V120.545H136.19V130H135.1ZM142.092 130.129C141.704 130.123 141.316 130.049 140.928 129.908C140.54 129.766 140.187 129.528 139.866 129.192C139.546 128.854 139.289 128.397 139.095 127.821C138.902 127.242 138.805 126.516 138.805 125.642C138.805 124.805 138.883 124.063 139.04 123.417C139.197 122.768 139.425 122.221 139.723 121.778C140.022 121.332 140.382 120.993 140.804 120.762C141.228 120.532 141.707 120.416 142.239 120.416C142.769 120.416 143.24 120.522 143.652 120.735C144.067 120.944 144.406 121.236 144.668 121.612C144.929 121.987 145.098 122.42 145.175 122.909H144.049C143.944 122.484 143.741 122.132 143.44 121.852C143.138 121.572 142.738 121.432 142.239 121.432C141.507 121.432 140.93 121.75 140.508 122.387C140.09 123.025 139.879 123.919 139.876 125.07H139.95C140.122 124.808 140.327 124.585 140.564 124.4C140.804 124.212 141.068 124.068 141.358 123.966C141.647 123.865 141.953 123.814 142.276 123.814C142.818 123.814 143.313 123.949 143.763 124.22C144.212 124.488 144.572 124.859 144.843 125.333C145.114 125.804 145.249 126.344 145.249 126.953C145.249 127.538 145.118 128.073 144.857 128.56C144.595 129.043 144.227 129.428 143.754 129.714C143.283 129.997 142.729 130.135 142.092 130.129ZM142.092 129.114C142.479 129.114 142.827 129.017 143.135 128.823C143.446 128.629 143.69 128.369 143.869 128.043C144.05 127.716 144.141 127.353 144.141 126.953C144.141 126.562 144.054 126.207 143.878 125.887C143.706 125.564 143.467 125.307 143.163 125.116C142.861 124.925 142.516 124.83 142.129 124.83C141.836 124.83 141.564 124.888 141.311 125.005C141.059 125.119 140.837 125.276 140.647 125.476C140.459 125.676 140.311 125.905 140.203 126.164C140.096 126.419 140.042 126.688 140.042 126.972C140.042 127.347 140.13 127.698 140.305 128.024C140.483 128.35 140.727 128.614 141.034 128.814C141.345 129.014 141.698 129.114 142.092 129.114Z" fill="#421DFF"/>
<path d="M33.315 125H31.4684L36.8093 110.455H38.6275L43.9684 125H42.1218L37.7752 112.756H37.6616L33.315 125ZM33.9968 119.318H41.44V120.881H33.9968V119.318ZM58.9329 118.778V120.341H52.9102V118.778H58.9329ZM53.3079 114.091V125H51.6317V114.091H53.3079ZM60.2113 114.091V125H58.5352V114.091H60.2113ZM63.9613 129.091C63.6772 129.091 63.4239 129.067 63.2013 129.02C62.9788 128.977 62.8249 128.935 62.7397 128.892L63.1658 127.415C63.573 127.519 63.9329 127.557 64.2454 127.528C64.5579 127.5 64.8349 127.36 65.0763 127.109C65.3226 126.863 65.5475 126.463 65.7511 125.909L66.0636 125.057L62.0295 114.091H63.8477L66.859 122.784H66.9727L69.984 114.091H71.8022L67.1715 126.591C66.9632 127.154 66.7051 127.621 66.3974 127.99C66.0896 128.364 65.7321 128.641 65.3249 128.821C64.9225 129.001 64.4679 129.091 63.9613 129.091ZM84.0714 125.227C83.0865 125.227 82.2224 124.993 81.479 124.524C80.7404 124.055 80.1628 123.4 79.7461 122.557C79.3342 121.714 79.1282 120.729 79.1282 119.602C79.1282 118.466 79.3342 117.474 79.7461 116.626C80.1628 115.779 80.7404 115.121 81.479 114.652C82.2224 114.183 83.0865 113.949 84.0714 113.949C85.0562 113.949 85.918 114.183 86.6566 114.652C87.4 115.121 87.9776 115.779 88.3896 116.626C88.8062 117.474 89.0146 118.466 89.0146 119.602C89.0146 120.729 88.8062 121.714 88.3896 122.557C87.9776 123.4 87.4 124.055 86.6566 124.524C85.918 124.993 85.0562 125.227 84.0714 125.227ZM84.0714 123.722C84.8195 123.722 85.435 123.53 85.918 123.146C86.4009 122.763 86.7584 122.259 86.9904 121.634C87.2224 121.009 87.3384 120.331 87.3384 119.602C87.3384 118.873 87.2224 118.194 86.9904 117.564C86.7584 116.934 86.4009 116.425 85.918 116.037C85.435 115.649 84.8195 115.455 84.0714 115.455C83.3233 115.455 82.7077 115.649 82.2248 116.037C81.7418 116.425 81.3844 116.934 81.1523 117.564C80.9203 118.194 80.8043 118.873 80.8043 119.602C80.8043 120.331 80.9203 121.009 81.1523 121.634C81.3844 122.259 81.7418 122.763 82.2248 123.146C82.7077 123.53 83.3233 123.722 84.0714 123.722ZM91.5732 125V114.091H93.2493V118.835H94.3572L98.2777 114.091H100.437L96.0334 119.347L100.494 125H98.3345L94.755 120.398H93.2493V125H91.5732Z" fill="black"/>
<path opacity="0.8" fill-rule="evenodd" clip-rule="evenodd" d="M341.938 163.027C341.957 163.461 341.957 163.974 341.957 165C341.957 166.026 341.957 166.539 341.938 166.973C341.488 177.279 333.236 185.531 322.93 185.981C322.496 186 321.983 186 320.957 186H35.4499C32.6503 186 31.2504 186 30.0737 185.859C27.8918 185.598 25.8204 184.988 23.9168 184.086C23.4322 184.236 22.937 184.376 22.4344 184.503C16.1623 186.09 0.000976562 185.999 0.000976562 185.999C0.000976562 185.999 8.82047 184.503 12.0979 177.686C12.6273 176.585 13.0112 174.19 13.2874 171.509C13.01 170.524 12.806 169.508 12.6815 168.467C12.5408 167.29 12.5408 165.891 12.5408 163.091C12.5408 160.758 12.5408 159.591 12.6581 158.611C13.5664 151.014 19.5549 145.026 27.1516 144.117C28.1322 144 29.2987 144 31.6318 144H320.957C321.983 144 322.496 144 322.93 144.019C333.236 144.469 341.488 152.721 341.938 163.027Z" fill="#BCA4FF"/>
<path d="M296.02 175.937C295.324 175.937 294.732 175.748 294.242 175.369C293.753 174.987 293.379 174.435 293.12 173.712C292.862 172.985 292.733 172.108 292.733 171.08C292.733 170.059 292.862 169.186 293.12 168.463C293.382 167.736 293.757 167.182 294.247 166.801C294.739 166.416 295.33 166.224 296.02 166.224C296.709 166.224 297.298 166.416 297.788 166.801C298.28 167.182 298.656 167.736 298.914 168.463C299.176 169.186 299.306 170.059 299.306 171.08C299.306 172.108 299.177 172.985 298.919 173.712C298.66 174.435 298.286 174.987 297.797 175.369C297.308 175.748 296.715 175.937 296.02 175.937ZM296.02 174.921C296.709 174.921 297.244 174.589 297.626 173.924C298.008 173.259 298.199 172.311 298.199 171.08C298.199 170.262 298.111 169.565 297.935 168.989C297.763 168.414 297.514 167.975 297.188 167.673C296.864 167.372 296.475 167.221 296.02 167.221C295.336 167.221 294.802 167.558 294.418 168.232C294.033 168.903 293.841 169.852 293.841 171.08C293.841 171.899 293.927 172.595 294.099 173.167C294.271 173.739 294.519 174.175 294.842 174.473C295.169 174.772 295.561 174.921 296.02 174.921ZM303.829 175.937C303.195 175.937 302.635 175.825 302.149 175.6C301.666 175.372 301.289 175.06 301.018 174.663C300.747 174.263 300.613 173.807 300.616 173.296C300.613 172.896 300.691 172.527 300.852 172.188C301.012 171.847 301.23 171.562 301.507 171.334C301.787 171.103 302.099 170.957 302.444 170.896V170.84C301.992 170.723 301.632 170.469 301.364 170.079C301.096 169.685 300.964 169.237 300.967 168.735C300.964 168.255 301.085 167.826 301.332 167.447C301.578 167.069 301.916 166.77 302.347 166.552C302.781 166.333 303.275 166.224 303.829 166.224C304.377 166.224 304.866 166.333 305.297 166.552C305.728 166.77 306.067 167.069 306.313 167.447C306.562 167.826 306.688 168.255 306.691 168.735C306.688 169.237 306.551 169.685 306.28 170.079C306.013 170.469 305.657 170.723 305.214 170.84V170.896C305.556 170.957 305.863 171.103 306.137 171.334C306.411 171.562 306.63 171.847 306.793 172.188C306.956 172.527 307.039 172.896 307.042 173.296C307.039 173.807 306.901 174.263 306.627 174.663C306.356 175.06 305.979 175.372 305.496 175.6C305.016 175.825 304.46 175.937 303.829 175.937ZM303.829 174.921C304.257 174.921 304.626 174.852 304.937 174.714C305.248 174.575 305.488 174.38 305.657 174.127C305.827 173.875 305.913 173.579 305.916 173.241C305.913 172.884 305.82 172.568 305.639 172.294C305.457 172.021 305.209 171.805 304.896 171.648C304.585 171.491 304.229 171.413 303.829 171.413C303.426 171.413 303.066 171.491 302.749 171.648C302.435 171.805 302.187 172.021 302.006 172.294C301.827 172.568 301.739 172.884 301.742 173.241C301.739 173.579 301.821 173.875 301.987 174.127C302.156 174.38 302.398 174.575 302.712 174.714C303.026 174.852 303.398 174.921 303.829 174.921ZM303.829 170.434C304.168 170.434 304.468 170.366 304.729 170.231C304.994 170.095 305.202 169.906 305.353 169.663C305.503 169.42 305.58 169.135 305.583 168.809C305.58 168.489 305.505 168.21 305.357 167.973C305.209 167.733 305.005 167.549 304.743 167.419C304.482 167.287 304.177 167.221 303.829 167.221C303.475 167.221 303.166 167.287 302.901 167.419C302.637 167.549 302.432 167.733 302.287 167.973C302.143 168.21 302.072 168.489 302.075 168.809C302.072 169.135 302.144 169.42 302.292 169.663C302.443 169.906 302.65 170.095 302.915 170.231C303.18 170.366 303.484 170.434 303.829 170.434ZM309.364 174.598C309.136 174.598 308.941 174.517 308.778 174.353C308.615 174.19 308.533 173.995 308.533 173.767C308.533 173.539 308.615 173.344 308.778 173.181C308.941 173.018 309.136 172.936 309.364 172.936C309.592 172.936 309.787 173.018 309.95 173.181C310.113 173.344 310.195 173.539 310.195 173.767C310.195 173.918 310.156 174.056 310.08 174.183C310.006 174.309 309.906 174.41 309.779 174.487C309.656 174.561 309.518 174.598 309.364 174.598ZM309.364 169.815C309.136 169.815 308.941 169.734 308.778 169.571C308.615 169.408 308.533 169.212 308.533 168.984C308.533 168.757 308.615 168.561 308.778 168.398C308.941 168.235 309.136 168.153 309.364 168.153C309.592 168.153 309.787 168.235 309.95 168.398C310.113 168.561 310.195 168.757 310.195 168.984C310.195 169.135 310.156 169.274 310.08 169.4C310.006 169.526 309.906 169.628 309.779 169.705C309.656 169.778 309.518 169.815 309.364 169.815ZM311.65 173.869V172.927L315.805 166.353H316.488V167.812H316.026L312.887 172.779V172.853H318.482V173.869H311.65ZM316.1 175.808V173.582V173.144V166.353H317.19V175.808H316.1ZM323.092 175.937C322.704 175.931 322.316 175.857 321.928 175.715C321.54 175.574 321.187 175.335 320.866 175C320.546 174.661 320.289 174.204 320.095 173.629C319.902 173.05 319.805 172.324 319.805 171.45C319.805 170.613 319.883 169.871 320.04 169.225C320.197 168.575 320.425 168.029 320.723 167.586C321.022 167.139 321.382 166.801 321.804 166.57C322.228 166.339 322.707 166.224 323.239 166.224C323.769 166.224 324.24 166.33 324.652 166.542C325.067 166.752 325.406 167.044 325.668 167.419C325.929 167.795 326.098 168.227 326.175 168.717H325.049C324.944 168.292 324.741 167.94 324.44 167.66C324.138 167.379 323.738 167.239 323.239 167.239C322.507 167.239 321.93 167.558 321.508 168.195C321.09 168.832 320.879 169.726 320.876 170.877H320.95C321.122 170.616 321.327 170.392 321.564 170.208C321.804 170.02 322.068 169.875 322.358 169.774C322.647 169.672 322.953 169.622 323.276 169.622C323.818 169.622 324.313 169.757 324.763 170.028C325.212 170.296 325.572 170.666 325.843 171.14C326.114 171.611 326.249 172.151 326.249 172.761C326.249 173.345 326.118 173.881 325.857 174.367C325.595 174.85 325.227 175.235 324.754 175.521C324.283 175.805 323.729 175.943 323.092 175.937ZM323.092 174.921C323.479 174.921 323.827 174.824 324.135 174.63C324.446 174.437 324.69 174.176 324.869 173.85C325.05 173.524 325.141 173.161 325.141 172.761C325.141 172.37 325.054 172.014 324.878 171.694C324.706 171.371 324.467 171.114 324.163 170.923C323.861 170.733 323.516 170.637 323.129 170.637C322.836 170.637 322.564 170.696 322.311 170.813C322.059 170.926 321.837 171.083 321.647 171.283C321.459 171.484 321.311 171.713 321.203 171.971C321.096 172.227 321.042 172.496 321.042 172.779C321.042 173.155 321.13 173.506 321.305 173.832C321.483 174.158 321.727 174.421 322.034 174.621C322.345 174.821 322.698 174.921 323.092 174.921Z" fill="#421DFF"/>
<path d="M26.7184 172V157.455H31.8036C32.8169 157.455 33.6526 157.63 34.3107 157.98C34.9689 158.326 35.4589 158.792 35.7809 159.379C36.1029 159.962 36.2638 160.608 36.2638 161.318C36.2638 161.943 36.1526 162.459 35.93 162.866C35.7122 163.274 35.4234 163.596 35.0636 163.832C34.7085 164.069 34.3226 164.244 33.9059 164.358V164.5C34.351 164.528 34.7984 164.685 35.2482 164.969C35.698 165.253 36.0745 165.66 36.3775 166.19C36.6805 166.721 36.832 167.369 36.832 168.136C36.832 168.866 36.6663 169.521 36.3349 170.104C36.0034 170.686 35.4802 171.148 34.7653 171.489C34.0503 171.83 33.1199 172 31.9741 172H26.7184ZM28.4798 170.438H31.9741C33.1246 170.438 33.9414 170.215 34.4244 169.77C34.9121 169.32 35.1559 168.776 35.1559 168.136C35.1559 167.644 35.0304 167.189 34.7795 166.773C34.5285 166.351 34.171 166.015 33.707 165.764C33.243 165.509 32.6938 165.381 32.0593 165.381H28.4798V170.438ZM28.4798 163.847H31.7468C32.2771 163.847 32.7553 163.742 33.1815 163.534C33.6123 163.326 33.9532 163.032 34.2042 162.653C34.4599 162.275 34.5877 161.83 34.5877 161.318C34.5877 160.679 34.3652 160.137 33.9201 159.692C33.475 159.242 32.7695 159.017 31.8036 159.017H28.4798V163.847ZM44.0728 172.227C43.0217 172.227 42.1149 171.995 41.3526 171.531C40.5951 171.062 40.0103 170.409 39.5984 169.571C39.1912 168.728 38.9876 167.748 38.9876 166.631C38.9876 165.513 39.1912 164.528 39.5984 163.676C40.0103 162.819 40.5832 162.152 41.3171 161.673C42.0558 161.19 42.9175 160.949 43.9023 160.949C44.4705 160.949 45.0316 161.044 45.5856 161.233C46.1396 161.422 46.6438 161.73 47.0984 162.156C47.5529 162.578 47.9151 163.136 48.185 163.832C48.4549 164.528 48.5898 165.385 48.5898 166.403V167.114H40.1808V165.665H46.8853C46.8853 165.049 46.7622 164.5 46.516 164.017C46.2745 163.534 45.9289 163.153 45.479 162.874C45.034 162.594 44.5084 162.455 43.9023 162.455C43.2347 162.455 42.6571 162.62 42.1694 162.952C41.6864 163.278 41.3147 163.705 41.0543 164.23C40.7939 164.756 40.6637 165.319 40.6637 165.92V166.886C40.6637 167.71 40.8058 168.409 41.0898 168.982C41.3787 169.55 41.7788 169.983 42.2901 170.281C42.8015 170.575 43.3957 170.722 44.0728 170.722C44.5131 170.722 44.9109 170.66 45.266 170.537C45.6258 170.409 45.936 170.22 46.1964 169.969C46.4568 169.713 46.658 169.396 46.8001 169.017L48.4194 169.472C48.2489 170.021 47.9625 170.504 47.56 170.92C47.1576 171.332 46.6604 171.654 46.0685 171.886C45.4767 172.114 44.8114 172.227 44.0728 172.227ZM51.1396 176.091V161.091H52.7589V162.824H52.9577C53.0808 162.634 53.2513 162.393 53.4691 162.099C53.6916 161.801 54.0089 161.536 54.4208 161.304C54.8375 161.067 55.4009 160.949 56.1112 160.949C57.0297 160.949 57.8394 161.179 58.5401 161.638C59.2409 162.097 59.7878 162.748 60.1808 163.591C60.5737 164.434 60.7702 165.428 60.7702 166.574C60.7702 167.729 60.5737 168.731 60.1808 169.578C59.7878 170.421 59.2433 171.074 58.5472 171.538C57.8512 171.998 57.0487 172.227 56.1396 172.227C55.4388 172.227 54.8777 172.111 54.4563 171.879C54.0349 171.643 53.7106 171.375 53.4833 171.077C53.256 170.774 53.0808 170.523 52.9577 170.324H52.8157V176.091H51.1396ZM52.7873 166.545C52.7873 167.369 52.908 168.096 53.1495 168.726C53.391 169.351 53.7437 169.841 54.2077 170.196C54.6718 170.546 55.2399 170.722 55.9123 170.722C56.613 170.722 57.1978 170.537 57.6665 170.168C58.14 169.794 58.4951 169.292 58.7319 168.662C58.9734 168.027 59.0941 167.322 59.0941 166.545C59.0941 165.778 58.9757 165.087 58.739 164.472C58.507 163.851 58.1542 163.361 57.6808 163.001C57.212 162.637 56.6225 162.455 55.9123 162.455C55.2305 162.455 54.6576 162.627 54.1935 162.973C53.7295 163.314 53.3791 163.792 53.1424 164.408C52.9057 165.018 52.7873 165.731 52.7873 166.545ZM70.6282 165.778V167.341H64.6055V165.778H70.6282ZM65.0032 161.091V172H63.3271V161.091H65.0032ZM71.9066 161.091V172H70.2305V161.091H71.9066ZM75.6566 176.091C75.3725 176.091 75.1192 176.067 74.8967 176.02C74.6741 175.977 74.5202 175.935 74.435 175.892L74.8612 174.415C75.2683 174.519 75.6282 174.557 75.9407 174.528C76.2532 174.5 76.5302 174.36 76.7717 174.109C77.0179 173.863 77.2428 173.463 77.4464 172.909L77.7589 172.057L73.7248 161.091H75.543L78.5543 169.784H78.668L81.6793 161.091H83.4975L78.8668 173.591C78.6585 174.154 78.4004 174.621 78.0927 174.99C77.7849 175.364 77.4274 175.641 77.0202 175.821C76.6178 176.001 76.1632 176.091 75.6566 176.091ZM89.7511 172.227C88.7283 172.227 87.8477 171.986 87.109 171.503C86.3704 171.02 85.8022 170.355 85.4045 169.507C85.0067 168.66 84.8079 167.691 84.8079 166.602C84.8079 165.494 85.0115 164.517 85.4187 163.669C85.8306 162.817 86.4035 162.152 87.1374 161.673C87.8761 161.19 88.7378 160.949 89.7227 160.949C90.4897 160.949 91.181 161.091 91.7965 161.375C92.4121 161.659 92.9163 162.057 93.3093 162.568C93.7023 163.08 93.9461 163.676 94.0408 164.358H92.3647C92.2369 163.861 91.9528 163.42 91.5124 163.037C91.0768 162.649 90.4897 162.455 89.7511 162.455C89.0977 162.455 88.5247 162.625 88.0323 162.966C87.5446 163.302 87.1635 163.778 86.8888 164.393C86.619 165.004 86.484 165.722 86.484 166.545C86.484 167.388 86.6166 168.122 86.8817 168.747C87.1516 169.372 87.5304 169.857 88.0181 170.203C88.5105 170.549 89.0882 170.722 89.7511 170.722C90.1867 170.722 90.582 170.646 90.9371 170.494C91.2923 170.343 91.5929 170.125 91.8391 169.841C92.0853 169.557 92.2605 169.216 92.3647 168.818H94.0408C93.9461 169.462 93.7118 170.042 93.3377 170.558C92.9684 171.07 92.4783 171.477 91.8675 171.78C91.2615 172.078 90.556 172.227 89.7511 172.227ZM97.94 165.04H101.065C102.343 165.04 103.321 165.364 103.998 166.013C104.675 166.661 105.014 167.483 105.014 168.477C105.014 169.131 104.862 169.725 104.559 170.26C104.256 170.79 103.811 171.214 103.224 171.531C102.637 171.844 101.917 172 101.065 172H96.4911V161.091H98.1673V170.438H101.065C101.728 170.438 102.272 170.262 102.699 169.912C103.125 169.562 103.338 169.112 103.338 168.562C103.338 167.985 103.125 167.514 102.699 167.149C102.272 166.785 101.728 166.602 101.065 166.602H97.94V165.04ZM120.491 165.778V167.341H114.469V165.778H120.491ZM114.866 161.091V172H113.19V161.091H114.866ZM121.77 161.091V172H120.094V161.091H121.77ZM128.041 172.256C127.35 172.256 126.723 172.125 126.159 171.865C125.596 171.6 125.148 171.219 124.817 170.722C124.485 170.22 124.32 169.614 124.32 168.903C124.32 168.278 124.443 167.772 124.689 167.384C124.935 166.991 125.264 166.683 125.676 166.46C126.088 166.238 126.543 166.072 127.04 165.963C127.542 165.849 128.046 165.759 128.553 165.693C129.215 165.608 129.753 165.544 130.165 165.501C130.581 165.454 130.884 165.376 131.074 165.267C131.268 165.158 131.365 164.969 131.365 164.699V164.642C131.365 163.941 131.173 163.397 130.79 163.009C130.411 162.62 129.836 162.426 129.064 162.426C128.264 162.426 127.636 162.601 127.182 162.952C126.727 163.302 126.408 163.676 126.223 164.074L124.632 163.506C124.916 162.843 125.295 162.327 125.768 161.957C126.247 161.583 126.768 161.323 127.331 161.176C127.899 161.025 128.458 160.949 129.007 160.949C129.357 160.949 129.76 160.991 130.214 161.077C130.674 161.157 131.116 161.325 131.543 161.581C131.973 161.837 132.331 162.223 132.615 162.739C132.899 163.255 133.041 163.946 133.041 164.812V172H131.365V170.523H131.28C131.166 170.759 130.977 171.013 130.712 171.283C130.446 171.553 130.094 171.782 129.653 171.972C129.213 172.161 128.676 172.256 128.041 172.256ZM128.297 170.75C128.96 170.75 129.518 170.62 129.973 170.359C130.432 170.099 130.778 169.763 131.01 169.351C131.247 168.939 131.365 168.506 131.365 168.051V166.517C131.294 166.602 131.138 166.68 130.896 166.751C130.66 166.818 130.385 166.877 130.072 166.929C129.765 166.976 129.464 167.019 129.17 167.057C128.882 167.09 128.647 167.118 128.467 167.142C128.032 167.199 127.625 167.291 127.246 167.419C126.872 167.542 126.569 167.729 126.337 167.98C126.109 168.226 125.996 168.562 125.996 168.989C125.996 169.571 126.211 170.011 126.642 170.31C127.078 170.603 127.629 170.75 128.297 170.75ZM148.458 161.091V162.653H143.402V172H141.725V161.091H148.458ZM149.021 172V170.438H149.419C149.746 170.438 150.018 170.374 150.236 170.246C150.454 170.113 150.629 169.884 150.761 169.557C150.899 169.225 151.003 168.766 151.074 168.179C151.15 167.587 151.204 166.834 151.237 165.92L151.436 161.091H158.709V172H157.033V162.653H153.027L152.857 166.545C152.819 167.44 152.738 168.229 152.615 168.911C152.497 169.588 152.314 170.156 152.068 170.615C151.827 171.074 151.505 171.42 151.102 171.652C150.7 171.884 150.196 172 149.589 172H149.021ZM164.994 172.256C164.303 172.256 163.676 172.125 163.112 171.865C162.549 171.6 162.101 171.219 161.77 170.722C161.438 170.22 161.273 169.614 161.273 168.903C161.273 168.278 161.396 167.772 161.642 167.384C161.888 166.991 162.217 166.683 162.629 166.46C163.041 166.238 163.496 166.072 163.993 165.963C164.495 165.849 164.999 165.759 165.506 165.693C166.169 165.608 166.706 165.544 167.118 165.501C167.535 165.454 167.838 165.376 168.027 165.267C168.221 165.158 168.318 164.969 168.318 164.699V164.642C168.318 163.941 168.126 163.397 167.743 163.009C167.364 162.62 166.789 162.426 166.017 162.426C165.217 162.426 164.589 162.601 164.135 162.952C163.68 163.302 163.361 163.676 163.176 164.074L161.585 163.506C161.869 162.843 162.248 162.327 162.722 161.957C163.2 161.583 163.721 161.323 164.284 161.176C164.852 161.025 165.411 160.949 165.96 160.949C166.311 160.949 166.713 160.991 167.168 161.077C167.627 161.157 168.07 161.325 168.496 161.581C168.927 161.837 169.284 162.223 169.568 162.739C169.852 163.255 169.994 163.946 169.994 164.812V172H168.318V170.523H168.233C168.119 170.759 167.93 171.013 167.665 171.283C167.4 171.553 167.047 171.782 166.607 171.972C166.166 172.161 165.629 172.256 164.994 172.256ZM165.25 170.75C165.913 170.75 166.472 170.62 166.926 170.359C167.385 170.099 167.731 169.763 167.963 169.351C168.2 168.939 168.318 168.506 168.318 168.051V166.517C168.247 166.602 168.091 166.68 167.849 166.751C167.613 166.818 167.338 166.877 167.026 166.929C166.718 166.976 166.417 167.019 166.124 167.057C165.835 167.09 165.6 167.118 165.42 167.142C164.985 167.199 164.578 167.291 164.199 167.419C163.825 167.542 163.522 167.729 163.29 167.98C163.063 168.226 162.949 168.562 162.949 168.989C162.949 169.571 163.164 170.011 163.595 170.31C164.031 170.603 164.582 170.75 165.25 170.75ZM173.054 172V161.091H177.514C178.688 161.091 179.621 161.356 180.312 161.886C181.003 162.417 181.349 163.117 181.349 163.989C181.349 164.652 181.153 165.165 180.76 165.53C180.367 165.89 179.862 166.134 179.247 166.261C179.649 166.318 180.04 166.46 180.419 166.688C180.802 166.915 181.119 167.227 181.37 167.625C181.621 168.018 181.747 168.501 181.747 169.074C181.747 169.633 181.605 170.132 181.321 170.572C181.037 171.013 180.629 171.361 180.099 171.616C179.569 171.872 178.934 172 178.196 172H173.054ZM174.645 170.466H178.196C178.773 170.466 179.225 170.329 179.552 170.054C179.879 169.779 180.042 169.405 180.042 168.932C180.042 168.368 179.879 167.926 179.552 167.604C179.225 167.277 178.773 167.114 178.196 167.114H174.645V170.466ZM174.645 165.665H177.514C177.964 165.665 178.35 165.603 178.672 165.48C178.993 165.352 179.24 165.172 179.41 164.94C179.585 164.704 179.673 164.424 179.673 164.102C179.673 163.643 179.481 163.283 179.098 163.023C178.714 162.758 178.186 162.625 177.514 162.625H174.645V165.665ZM191.585 165.778V167.341H185.562V165.778H191.585ZM185.96 161.091V172H184.284V161.091H185.96ZM192.864 161.091V172H191.188V161.091H192.864ZM196.614 176.091C196.33 176.091 196.076 176.067 195.854 176.02C195.631 175.977 195.477 175.935 195.392 175.892L195.818 174.415C196.225 174.519 196.585 174.557 196.898 174.528C197.21 174.5 197.487 174.36 197.729 174.109C197.975 173.863 198.2 173.463 198.403 172.909L198.716 172.057L194.682 161.091H196.5L199.511 169.784H199.625L202.636 161.091H204.455L199.824 173.591C199.616 174.154 199.357 174.621 199.05 174.99C198.742 175.364 198.384 175.641 197.977 175.821C197.575 176.001 197.12 176.091 196.614 176.091ZM211.894 165.864V167.426H206.127V165.864H211.894ZM207.548 161.091V172H205.871V161.091H207.548ZM215.246 172.227C214.262 172.227 213.397 171.993 212.654 171.524C211.915 171.055 211.338 170.4 210.921 169.557C210.509 168.714 210.303 167.729 210.303 166.602C210.303 165.466 210.509 164.474 210.921 163.626C211.338 162.779 211.915 162.121 212.654 161.652C213.397 161.183 214.262 160.949 215.246 160.949C216.231 160.949 217.093 161.183 217.832 161.652C218.575 162.121 219.153 162.779 219.565 163.626C219.981 164.474 220.19 165.466 220.19 166.602C220.19 167.729 219.981 168.714 219.565 169.557C219.153 170.4 218.575 171.055 217.832 171.524C217.093 171.993 216.231 172.227 215.246 172.227ZM215.246 170.722C215.995 170.722 216.61 170.53 217.093 170.146C217.576 169.763 217.933 169.259 218.165 168.634C218.397 168.009 218.513 167.331 218.513 166.602C218.513 165.873 218.397 165.194 218.165 164.564C217.933 163.934 217.576 163.425 217.093 163.037C216.61 162.649 215.995 162.455 215.246 162.455C214.498 162.455 213.883 162.649 213.4 163.037C212.917 163.425 212.559 163.934 212.327 164.564C212.095 165.194 211.979 165.873 211.979 166.602C211.979 167.331 212.095 168.009 212.327 168.634C212.559 169.259 212.917 169.763 213.4 170.146C213.883 170.53 214.498 170.722 215.246 170.722ZM227.917 162.653V161.091H236.781V162.653H233.201V172H231.525V162.653H227.917ZM243.091 172.227C242.106 172.227 241.242 171.993 240.499 171.524C239.76 171.055 239.182 170.4 238.766 169.557C238.354 168.714 238.148 167.729 238.148 166.602C238.148 165.466 238.354 164.474 238.766 163.626C239.182 162.779 239.76 162.121 240.499 161.652C241.242 161.183 242.106 160.949 243.091 160.949C244.076 160.949 244.938 161.183 245.676 161.652C246.42 162.121 246.997 162.779 247.409 163.626C247.826 164.474 248.034 165.466 248.034 166.602C248.034 167.729 247.826 168.714 247.409 169.557C246.997 170.4 246.42 171.055 245.676 171.524C244.938 171.993 244.076 172.227 243.091 172.227ZM243.091 170.722C243.839 170.722 244.455 170.53 244.938 170.146C245.42 169.763 245.778 169.259 246.01 168.634C246.242 168.009 246.358 167.331 246.358 166.602C246.358 165.873 246.242 165.194 246.01 164.564C245.778 163.934 245.42 163.425 244.938 163.037C244.455 162.649 243.839 162.455 243.091 162.455C242.343 162.455 241.727 162.649 241.244 163.037C240.761 163.425 240.404 163.934 240.172 164.564C239.94 165.194 239.824 165.873 239.824 166.602C239.824 167.331 239.94 168.009 240.172 168.634C240.404 169.259 240.761 169.763 241.244 170.146C241.727 170.53 242.343 170.722 243.091 170.722ZM257.326 161.091V162.653H252.269V172H250.593V161.091H257.326ZM257.69 175.125V170.438H258.599C258.821 170.205 259.013 169.955 259.174 169.685C259.335 169.415 259.475 169.095 259.593 168.726C259.716 168.352 259.82 167.897 259.906 167.362C259.991 166.822 260.067 166.171 260.133 165.409L260.502 161.091H267.434V170.438H269.11V175.125H267.434V172H259.366V175.125H257.69ZM260.502 170.438H265.758V162.653H262.065L261.781 165.409C261.662 166.55 261.515 167.547 261.34 168.399C261.165 169.251 260.886 169.931 260.502 170.438ZM274.545 172.256C273.854 172.256 273.226 172.125 272.663 171.865C272.1 171.6 271.652 171.219 271.321 170.722C270.989 170.22 270.824 169.614 270.824 168.903C270.824 168.278 270.947 167.772 271.193 167.384C271.439 166.991 271.768 166.683 272.18 166.46C272.592 166.238 273.047 166.072 273.544 165.963C274.046 165.849 274.55 165.759 275.056 165.693C275.719 165.608 276.257 165.544 276.669 165.501C277.085 165.454 277.388 165.376 277.578 165.267C277.772 165.158 277.869 164.969 277.869 164.699V164.642C277.869 163.941 277.677 163.397 277.294 163.009C276.915 162.62 276.34 162.426 275.568 162.426C274.768 162.426 274.14 162.601 273.686 162.952C273.231 163.302 272.912 163.676 272.727 164.074L271.136 163.506C271.42 162.843 271.799 162.327 272.272 161.957C272.751 161.583 273.271 161.323 273.835 161.176C274.403 161.025 274.962 160.949 275.511 160.949C275.861 160.949 276.264 160.991 276.718 161.077C277.178 161.157 277.62 161.325 278.047 161.581C278.477 161.837 278.835 162.223 279.119 162.739C279.403 163.255 279.545 163.946 279.545 164.812V172H277.869V170.523H277.784C277.67 170.759 277.481 171.013 277.216 171.283C276.95 171.553 276.598 171.782 276.157 171.972C275.717 172.161 275.18 172.256 274.545 172.256ZM274.801 170.75C275.464 170.75 276.022 170.62 276.477 170.359C276.936 170.099 277.282 169.763 277.514 169.351C277.751 168.939 277.869 168.506 277.869 168.051V166.517C277.798 166.602 277.642 166.68 277.4 166.751C277.163 166.818 276.889 166.877 276.576 166.929C276.269 166.976 275.968 167.019 275.674 167.057C275.386 167.09 275.151 167.118 274.971 167.142C274.536 167.199 274.128 167.291 273.75 167.419C273.376 167.542 273.073 167.729 272.841 167.98C272.613 168.226 272.5 168.562 272.5 168.989C272.5 169.571 272.715 170.011 273.146 170.31C273.582 170.603 274.133 170.75 274.801 170.75Z" fill="black"/>
</svg>
