<svg width="582" height="186" viewBox="0 0 582 186" fill="none" xmlns="http://www.w3.org/2000/svg">
<path opacity="0.9" d="M402 21.5C402 9.62588 411.626 0 423.5 0H541.333C548.835 0 552.586 0 555.628 0.965207C562.01 2.99048 567.01 7.99042 569.035 14.3724C570 17.4139 570 21.1648 570 28.6667V28.6667C570 32.4176 570 34.2931 569.517 35.8138C568.505 39.0048 566.005 41.5048 562.814 42.5174C561.293 43 559.418 43 555.667 43H423.5C411.626 43 402 33.3741 402 21.5V21.5Z" fill="#D4C5FF"/>
<path d="M433.145 13.9636V29.0737H431.315V15.5868H423.701V29.0737H421.871V13.9636H433.145ZM437.721 33.3235C437.426 33.3235 437.163 33.2989 436.931 33.2497C436.7 33.2054 436.54 33.1611 436.452 33.1169L436.894 31.5822C437.317 31.6905 437.691 31.7298 438.016 31.7003C438.341 31.6708 438.628 31.5257 438.879 31.265C439.135 31.0092 439.369 30.5936 439.58 30.0181L439.905 29.1328L435.714 17.7411H437.603L440.731 26.7718H440.849L443.977 17.7411H445.866L441.056 30.7264C440.839 31.3117 440.571 31.7962 440.251 32.1799C439.932 32.5684 439.56 32.8562 439.137 33.0431C438.719 33.23 438.247 33.3235 437.721 33.3235ZM448.164 29.0737V17.7411H457.077V29.0737H455.336V19.3643H449.906V29.0737H448.164ZM460.973 33.3235C460.677 33.3235 460.414 33.2989 460.183 33.2497C459.952 33.2054 459.792 33.1611 459.704 33.1169L460.146 31.5822C460.569 31.6905 460.943 31.7298 461.268 31.7003C461.592 31.6708 461.88 31.5257 462.131 31.265C462.387 31.0092 462.62 30.5936 462.832 30.0181L463.156 29.1328L458.966 17.7411H460.855L463.983 26.7718H464.101L467.229 17.7411H469.118L464.307 30.7264C464.091 31.3117 463.823 31.7962 463.503 32.1799C463.183 32.5684 462.812 32.8562 462.389 33.0431C461.971 33.23 461.499 33.3235 460.973 33.3235ZM471.416 29.0737V17.7411H480.329V29.0737H478.588V19.3643H473.157V29.0737H471.416ZM484.224 33.3235C483.929 33.3235 483.666 33.2989 483.435 33.2497C483.204 33.2054 483.044 33.1611 482.955 33.1169L483.398 31.5822C483.821 31.6905 484.195 31.7298 484.519 31.7003C484.844 31.6708 485.132 31.5257 485.383 31.265C485.638 31.0092 485.872 30.5936 486.084 30.0181L486.408 29.1328L482.217 17.7411H484.106L487.235 26.7718H487.353L490.481 17.7411H492.37L487.559 30.7264C487.343 31.3117 487.075 31.7962 486.755 32.1799C486.435 32.5684 486.064 32.8562 485.641 33.0431C485.223 33.23 484.751 33.3235 484.224 33.3235Z" fill="black"/>
<path d="M507.029 32.3808C506.297 32.3808 505.673 32.1814 505.157 31.7827C504.642 31.3807 504.248 30.7987 503.975 30.0369C503.703 29.2718 503.567 28.3478 503.567 27.265C503.567 26.1887 503.703 25.2696 503.975 24.5078C504.251 23.7427 504.647 23.1591 505.162 22.7571C505.681 22.3519 506.303 22.1492 507.029 22.1492C507.756 22.1492 508.376 22.3519 508.892 22.7571C509.411 23.1591 509.806 23.7427 510.078 24.5078C510.354 25.2696 510.492 26.1887 510.492 27.265C510.492 28.3478 510.356 29.2718 510.083 30.0369C509.811 30.7987 509.417 31.3807 508.902 31.7827C508.386 32.1814 507.762 32.3808 507.029 32.3808ZM507.029 31.311C507.756 31.311 508.32 30.9608 508.722 30.2606C509.124 29.5603 509.325 28.5618 509.325 27.265C509.325 26.4027 509.232 25.6684 509.047 25.0621C508.866 24.4559 508.603 23.9939 508.26 23.6762C507.919 23.3585 507.509 23.1996 507.029 23.1996C506.31 23.1996 505.747 23.5546 505.342 24.2646C504.937 24.9714 504.734 25.9715 504.734 27.265C504.734 28.1274 504.825 28.8601 505.006 29.4631C505.188 30.066 505.449 30.5248 505.789 30.8393C506.133 31.1537 506.546 31.311 507.029 31.311ZM515.256 32.3808C514.588 32.3808 513.998 32.2625 513.486 32.0258C512.977 31.7859 512.58 31.4568 512.294 31.0386C512.009 30.6172 511.868 30.1374 511.871 29.5992C511.868 29.1778 511.951 28.7887 512.119 28.4321C512.288 28.0723 512.518 27.7724 512.81 27.5325C513.105 27.2893 513.434 27.1353 513.797 27.0705V27.0121C513.32 26.889 512.941 26.6215 512.659 26.2098C512.377 25.7948 512.238 25.3231 512.241 24.7947C512.238 24.2889 512.366 23.8367 512.625 23.4379C512.884 23.0392 513.241 22.7247 513.695 22.4945C514.152 22.2643 514.672 22.1492 515.256 22.1492C515.833 22.1492 516.348 22.2643 516.802 22.4945C517.256 22.7247 517.613 23.0392 517.872 23.4379C518.135 23.8367 518.268 24.2889 518.271 24.7947C518.268 25.3231 518.123 25.7948 517.838 26.2098C517.556 26.6215 517.182 26.889 516.715 27.0121V27.0705C517.075 27.1353 517.399 27.2893 517.687 27.5325C517.976 27.7724 518.206 28.0723 518.378 28.4321C518.55 28.7887 518.637 29.1778 518.64 29.5992C518.637 30.1374 518.491 30.6172 518.203 31.0386C517.917 31.4568 517.52 31.7859 517.011 32.0258C516.506 32.2625 515.92 32.3808 515.256 32.3808ZM515.256 31.311C515.706 31.311 516.095 31.238 516.423 31.0921C516.75 30.9462 517.003 30.7404 517.182 30.4745C517.36 30.2087 517.451 29.8975 517.454 29.5409C517.451 29.1648 517.353 28.8325 517.162 28.544C516.971 28.2554 516.71 28.0285 516.379 27.8632C516.052 27.6978 515.677 27.6151 515.256 27.6151C514.831 27.6151 514.452 27.6978 514.118 27.8632C513.787 28.0285 513.526 28.2554 513.335 28.544C513.147 28.8325 513.055 29.1648 513.058 29.5409C513.055 29.8975 513.14 30.2087 513.316 30.4745C513.494 30.7404 513.748 30.9462 514.079 31.0921C514.41 31.238 514.802 31.311 515.256 31.311ZM515.256 26.5842C515.612 26.5842 515.929 26.5129 516.204 26.3702C516.483 26.2276 516.702 26.0282 516.861 25.7721C517.019 25.516 517.1 25.2161 517.104 24.8725C517.1 24.5353 517.021 24.2419 516.865 23.9923C516.71 23.7394 516.494 23.5449 516.219 23.4087C515.943 23.2693 515.622 23.1996 515.256 23.1996C514.883 23.1996 514.557 23.2693 514.278 23.4087C514 23.5449 513.784 23.7394 513.632 23.9923C513.479 24.2419 513.405 24.5353 513.408 24.8725C513.405 25.2161 513.481 25.516 513.636 25.7721C513.795 26.0282 514.014 26.2276 514.293 26.3702C514.572 26.5129 514.893 26.5842 515.256 26.5842ZM521.086 30.9705C520.846 30.9705 520.64 30.8846 520.469 30.7128C520.297 30.541 520.211 30.3351 520.211 30.0952C520.211 29.8553 520.297 29.6495 520.469 29.4776C520.64 29.3058 520.846 29.2199 521.086 29.2199C521.326 29.2199 521.532 29.3058 521.704 29.4776C521.876 29.6495 521.961 29.8553 521.961 30.0952C521.961 30.2541 521.921 30.4 521.84 30.5329C521.762 30.6658 521.657 30.7728 521.524 30.8538C521.394 30.9316 521.248 30.9705 521.086 30.9705ZM521.086 25.9326C520.846 25.9326 520.64 25.8467 520.469 25.6749C520.297 25.503 520.211 25.2972 520.211 25.0573C520.211 24.8174 520.297 24.6115 520.469 24.4397C520.64 24.2679 520.846 24.1819 521.086 24.1819C521.326 24.1819 521.532 24.2679 521.704 24.4397C521.876 24.6115 521.961 24.8174 521.961 25.0573C521.961 25.2161 521.921 25.362 521.84 25.4949C521.762 25.6278 521.657 25.7348 521.524 25.8159C521.394 25.8937 521.248 25.9326 521.086 25.9326ZM523.494 30.2022V29.2102L527.871 22.2854H528.59V23.8221H528.104L524.797 29.0546V29.1324H530.691V30.2022H523.494ZM528.182 32.2446V29.9007V29.4387V22.2854H529.33V32.2446H528.182ZM535.488 32.3808C534.755 32.3808 534.131 32.1814 533.616 31.7827C533.1 31.3807 532.707 30.7987 532.434 30.0369C532.162 29.2718 532.026 28.3478 532.026 27.265C532.026 26.1887 532.162 25.2696 532.434 24.5078C532.71 23.7427 533.105 23.1591 533.621 22.7571C534.139 22.3519 534.762 22.1492 535.488 22.1492C536.214 22.1492 536.835 22.3519 537.351 22.7571C537.869 23.1591 538.265 23.7427 538.537 24.5078C538.813 25.2696 538.95 26.1887 538.95 27.265C538.95 28.3478 538.814 29.2718 538.542 30.0369C538.27 30.7987 537.876 31.3807 537.36 31.7827C536.845 32.1814 536.221 32.3808 535.488 32.3808ZM535.488 31.311C536.214 31.311 536.778 30.9608 537.18 30.2606C537.582 29.5603 537.783 28.5618 537.783 27.265C537.783 26.4027 537.691 25.6684 537.506 25.0621C537.325 24.4559 537.062 23.9939 536.718 23.6762C536.378 23.3585 535.968 23.1996 535.488 23.1996C534.768 23.1996 534.206 23.5546 533.801 24.2646C533.395 24.9714 533.193 25.9715 533.193 27.265C533.193 28.1274 533.284 28.8601 533.465 29.4631C533.647 30.066 533.908 30.5248 534.248 30.8393C534.592 31.1537 535.005 31.311 535.488 31.311Z" fill="#421DFF"/>
<path d="M555.77 23.0997C555.99 22.9493 556.292 22.9687 556.491 23.1603C556.718 23.3798 556.725 23.7424 556.506 23.9698L547.597 33.1964C547.487 33.3108 547.334 33.3743 547.175 33.3712C547.015 33.3681 546.864 33.2985 546.759 33.1798L542.782 28.7257L543.209 28.3448L543.635 27.963L547.202 31.9572L555.682 23.1749L555.77 23.0997ZM542.828 27.9171C543.063 27.7072 543.425 27.7279 543.635 27.963L542.782 28.7257C542.572 28.4899 542.592 28.1276 542.828 27.9171Z" fill="#421DFF"/>
<path d="M559.134 23.0997C559.353 22.9493 559.655 22.9687 559.854 23.1603C560.082 23.3798 560.088 23.7424 559.869 23.9698L550.961 33.1964C550.85 33.3108 550.697 33.3743 550.538 33.3712C550.379 33.3681 550.228 33.2985 550.122 33.1798L546.145 28.7257L546.572 28.3448L546.999 27.963L550.565 31.9572L559.046 23.1749L559.134 23.0997ZM546.191 27.9171C546.427 27.7072 546.788 27.7279 546.999 27.963L546.145 28.7257C545.935 28.4899 545.955 28.1276 546.191 27.9171Z" fill="#421DFF"/>
<path opacity="0.8" d="M556.004 48C559.277 48 560.913 47.9997 562.254 48.3682C565.757 49.3311 568.494 52.0683 569.457 55.5713C569.743 56.6132 569.805 57.8343 569.819 59.8633L569.907 59.6992C569.91 59.8136 570.417 79.8738 571.656 83.2178C574.274 90.2777 581.317 91.8271 581.317 91.8271C581.299 91.8273 568.406 91.92 563.4 90.2773C561.694 89.7174 560.094 88.9101 558.81 88.1631C557.263 89.0408 555.599 89.7385 553.841 90.2217C551.011 90.9996 547.556 91 540.646 91H238.5C237.669 91 237.254 91.0003 236.902 90.9883C226.074 90.6187 217.381 81.9258 217.012 71.0977C217 70.7464 217 70.3308 217 69.5C217 68.6692 217 68.2536 217.012 67.9023C217.381 57.0742 226.074 48.3813 236.902 48.0117C237.254 47.9997 237.669 48 238.5 48H556.004Z" fill="#D4C5FF"/>
<path d="M244.719 66.5918H242.89C242.781 66.0655 242.592 65.6031 242.321 65.2047C242.056 64.8063 241.731 64.4718 241.347 64.2013C240.969 63.9258 240.548 63.7193 240.086 63.5815C239.624 63.4438 239.141 63.375 238.64 63.375C237.725 63.375 236.896 63.6061 236.153 64.0685C235.416 64.5308 234.828 65.2121 234.39 66.1122C233.957 67.0123 233.741 68.1165 233.741 69.4249C233.741 70.7333 233.957 71.8375 234.39 72.7376C234.828 73.6377 235.416 74.319 236.153 74.7813C236.896 75.2437 237.725 75.4749 238.64 75.4749C239.141 75.4749 239.624 75.406 240.086 75.2683C240.548 75.1306 240.969 74.9264 241.347 74.6559C241.731 74.3805 242.056 74.0435 242.321 73.6451C242.592 73.2418 242.781 72.7794 242.89 72.2581H244.719C244.582 73.0303 244.331 73.7214 243.967 74.3313C243.603 74.9412 243.15 75.4601 242.609 75.888C242.068 76.311 241.461 76.6332 240.787 76.8546C240.118 77.0759 239.402 77.1866 238.64 77.1866C237.351 77.1866 236.205 76.8718 235.202 76.2422C234.198 75.6126 233.409 74.7174 232.833 73.5566C232.258 72.3958 231.97 71.0186 231.97 69.4249C231.97 67.8313 232.258 66.454 232.833 65.2932C233.409 64.1324 234.198 63.2372 235.202 62.6076C236.205 61.9781 237.351 61.6633 238.64 61.6633C239.402 61.6633 240.118 61.7739 240.787 61.9953C241.461 62.2166 242.068 62.5412 242.609 62.9692C243.15 63.3922 243.603 63.9086 243.967 64.5185C244.331 65.1235 244.582 65.8146 244.719 66.5918ZM246.791 67.2705V65.6474H255.998V67.2705H252.28V76.98H250.539V67.2705H246.791ZM261.285 77.2456C260.567 77.2456 259.915 77.1103 259.33 76.8398C258.744 76.5644 258.279 76.1684 257.935 75.6519C257.591 75.1306 257.419 74.501 257.419 73.7632C257.419 73.1139 257.547 72.5876 257.802 72.1843C258.058 71.776 258.4 71.4563 258.828 71.2251C259.256 70.994 259.728 70.8218 260.244 70.7087C260.766 70.5906 261.29 70.4972 261.816 70.4283C262.505 70.3398 263.063 70.2734 263.491 70.2291C263.924 70.1799 264.238 70.0988 264.435 69.9856C264.637 69.8725 264.738 69.6758 264.738 69.3954V69.3364C264.738 68.6084 264.538 68.0428 264.14 67.6394C263.746 67.2361 263.149 67.0344 262.347 67.0344C261.516 67.0344 260.864 67.2164 260.392 67.5804C259.92 67.9444 259.588 68.333 259.396 68.7461L257.743 68.1559C258.038 67.4673 258.432 66.9311 258.924 66.5475C259.421 66.1589 259.962 65.8884 260.547 65.7359C261.137 65.5785 261.718 65.4998 262.288 65.4998C262.652 65.4998 263.07 65.5441 263.542 65.6326C264.019 65.7162 264.479 65.8908 264.922 66.1565C265.37 66.4221 265.741 66.8229 266.036 67.3591C266.331 67.8952 266.479 68.6133 266.479 69.5134V76.98H264.738V75.4454H264.649C264.531 75.6913 264.334 75.9544 264.059 76.2348C263.783 76.5152 263.417 76.7537 262.959 76.9505C262.502 77.1472 261.944 77.2456 261.285 77.2456ZM261.55 75.6815C262.239 75.6815 262.819 75.5462 263.292 75.2757C263.769 75.0051 264.128 74.6559 264.369 74.228C264.615 73.8001 264.738 73.35 264.738 72.8778V71.2842C264.664 71.3727 264.501 71.4539 264.251 71.5276C264.005 71.5965 263.719 71.658 263.395 71.7121C263.075 71.7613 262.763 71.8055 262.458 71.8449C262.158 71.8793 261.914 71.9088 261.727 71.9334C261.275 71.9925 260.852 72.0884 260.458 72.2212C260.07 72.3491 259.755 72.5433 259.514 72.804C259.278 73.0598 259.16 73.409 259.16 73.8517C259.16 74.4567 259.384 74.9141 259.831 75.224C260.284 75.529 260.857 75.6815 261.55 75.6815ZM268.115 67.2705V65.6474H277.323V67.2705H273.604V76.98H271.863V67.2705H268.115ZM281.368 69.7495H284.614C285.942 69.7495 286.958 70.0865 287.661 70.7603C288.364 71.4342 288.716 72.2876 288.716 73.3205C288.716 73.9993 288.559 74.6166 288.244 75.1724C287.929 75.7233 287.467 76.1635 286.857 76.493C286.247 76.8177 285.499 76.98 284.614 76.98H279.862V65.6474H281.604V75.3568H284.614C285.303 75.3568 285.868 75.1748 286.311 74.8108C286.754 74.4469 286.975 73.9796 286.975 73.409C286.975 72.809 286.754 72.3195 286.311 71.9408C285.868 71.5621 285.303 71.3727 284.614 71.3727H281.368V69.7495ZM298.184 76.98V67.241H295.174C294.495 67.241 293.961 67.3984 293.573 67.7132C293.184 68.028 292.99 68.4609 292.99 69.0117C292.99 69.5528 293.164 69.9783 293.514 70.2881C293.868 70.598 294.352 70.753 294.967 70.753H298.627V72.3761H294.967C294.2 72.3761 293.538 72.2408 292.982 71.9703C292.427 71.6998 291.999 71.3137 291.699 70.812C291.399 70.3054 291.249 69.7053 291.249 69.0117C291.249 68.3133 291.406 67.7132 291.721 67.2115C292.036 66.7098 292.486 66.3237 293.071 66.0532C293.661 65.7826 294.362 65.6474 295.174 65.6474H299.837V76.98H298.184ZM290.629 76.98L293.846 71.3432H295.734L292.518 76.98H290.629ZM308.876 76.98V65.6474H317.789V76.98H316.048V67.2705H310.618V76.98H308.876ZM320.969 81.2297V65.6474H322.651V67.4476H322.858C322.986 67.2509 323.163 67 323.389 66.6951C323.62 66.3852 323.95 66.1097 324.378 65.8687C324.81 65.6228 325.396 65.4998 326.134 65.4998C327.088 65.4998 327.929 65.7384 328.657 66.2155C329.385 66.6926 329.953 67.3689 330.361 68.2444C330.769 69.12 330.974 70.1529 330.974 71.3432C330.974 72.5433 330.769 73.5836 330.361 74.4641C329.953 75.3396 329.387 76.0184 328.664 76.5004C327.941 76.9775 327.108 77.2161 326.163 77.2161C325.435 77.2161 324.852 77.0956 324.415 76.8546C323.977 76.6086 323.64 76.3307 323.404 76.0208C323.168 75.706 322.986 75.4454 322.858 75.2388H322.71V81.2297H320.969ZM322.681 71.3137C322.681 72.1695 322.806 72.9245 323.057 73.5787C323.308 74.228 323.674 74.7371 324.156 75.106C324.638 75.47 325.229 75.6519 325.927 75.6519C326.655 75.6519 327.262 75.4601 327.749 75.0765C328.241 74.6879 328.61 74.1665 328.856 73.5123C329.107 72.8532 329.232 72.1203 329.232 71.3137C329.232 70.5169 329.109 69.7987 328.863 69.1593C328.622 68.515 328.256 68.0059 327.764 67.6321C327.277 67.2533 326.665 67.064 325.927 67.064C325.219 67.064 324.624 67.2435 324.142 67.6025C323.66 67.9567 323.296 68.4535 323.05 69.0929C322.804 69.7274 322.681 70.4677 322.681 71.3137ZM338.234 77.2161C337.21 77.2161 336.313 76.9726 335.541 76.4857C334.773 75.9987 334.173 75.3175 333.74 74.4419C333.312 73.5664 333.098 72.5433 333.098 71.3727C333.098 70.1922 333.312 69.1618 333.74 68.2813C334.173 67.4009 334.773 66.7172 335.541 66.2302C336.313 65.7433 337.21 65.4998 338.234 65.4998C339.257 65.4998 340.152 65.7433 340.919 66.2302C341.691 66.7172 342.291 67.4009 342.719 68.2813C343.152 69.1618 343.369 70.1922 343.369 71.3727C343.369 72.5433 343.152 73.5664 342.719 74.4419C342.291 75.3175 341.691 75.9987 340.919 76.4857C340.152 76.9726 339.257 77.2161 338.234 77.2161ZM338.234 75.6519C339.011 75.6519 339.65 75.4527 340.152 75.0543C340.654 74.6559 341.025 74.1321 341.266 73.4828C341.507 72.8335 341.627 72.1302 341.627 71.3727C341.627 70.6152 341.507 69.9094 341.266 69.2552C341.025 68.601 340.654 68.0723 340.152 67.6689C339.65 67.2656 339.011 67.064 338.234 67.064C337.456 67.064 336.817 67.2656 336.315 67.6689C335.814 68.0723 335.442 68.601 335.201 69.2552C334.96 69.9094 334.84 70.6152 334.84 71.3727C334.84 72.1302 334.96 72.8335 335.201 73.4828C335.442 74.1321 335.814 74.6559 336.315 75.0543C336.817 75.4527 337.456 75.6519 338.234 75.6519ZM346.027 76.98V65.6474H354.939V76.98H353.198V67.2705H347.768V76.98H346.027ZM361.454 77.2456C360.736 77.2456 360.084 77.1103 359.499 76.8398C358.913 76.5644 358.449 76.1684 358.104 75.6519C357.76 75.1306 357.588 74.501 357.588 73.7632C357.588 73.1139 357.716 72.5876 357.972 72.1843C358.227 71.776 358.569 71.4563 358.997 71.2251C359.425 70.994 359.897 70.8218 360.414 70.7087C360.935 70.5906 361.459 70.4972 361.985 70.4283C362.674 70.3398 363.232 70.2734 363.66 70.2291C364.093 70.1799 364.408 70.0988 364.604 69.9856C364.806 69.8725 364.907 69.6758 364.907 69.3954V69.3364C364.907 68.6084 364.708 68.0428 364.309 67.6394C363.916 67.2361 363.318 67.0344 362.516 67.0344C361.685 67.0344 361.033 67.2164 360.561 67.5804C360.089 67.9444 359.757 68.333 359.565 68.7461L357.912 68.1559C358.208 67.4673 358.601 66.9311 359.093 66.5475C359.59 66.1589 360.131 65.8884 360.716 65.7359C361.306 65.5785 361.887 65.4998 362.457 65.4998C362.821 65.4998 363.239 65.5441 363.712 65.6326C364.189 65.7162 364.649 65.8908 365.091 66.1565C365.539 66.4221 365.91 66.8229 366.205 67.3591C366.5 67.8952 366.648 68.6133 366.648 69.5134V76.98H364.907V75.4454H364.818C364.7 75.6913 364.503 75.9544 364.228 76.2348C363.953 76.5152 363.586 76.7537 363.129 76.9505C362.671 77.1472 362.113 77.2456 361.454 77.2456ZM361.72 75.6815C362.408 75.6815 362.989 75.5462 363.461 75.2757C363.938 75.0051 364.297 74.6559 364.538 74.228C364.784 73.8001 364.907 73.35 364.907 72.8778V71.2842C364.833 71.3727 364.671 71.4539 364.42 71.5276C364.174 71.5965 363.889 71.658 363.564 71.7121C363.244 71.7613 362.932 71.8055 362.627 71.8449C362.327 71.8793 362.084 71.9088 361.897 71.9334C361.444 71.9925 361.021 72.0884 360.628 72.2212C360.239 72.3491 359.924 72.5433 359.683 72.804C359.447 73.0598 359.329 73.409 359.329 73.8517C359.329 74.4567 359.553 74.9141 360 75.224C360.453 75.529 361.026 75.6815 361.72 75.6815ZM368.823 76.98V75.3568H369.236C369.575 75.3568 369.858 75.2904 370.084 75.1576C370.311 75.0199 370.493 74.7813 370.63 74.4419C370.773 74.0976 370.881 73.6205 370.955 73.0106C371.034 72.3958 371.09 71.6137 371.125 70.6644L371.331 65.6474H378.886V76.98H377.145V67.2705H372.984L372.807 71.3137C372.767 72.2433 372.684 73.0623 372.556 73.7706C372.433 74.4739 372.244 75.0642 371.988 75.5413C371.737 76.0184 371.403 76.3774 370.984 76.6185C370.566 76.8595 370.043 76.98 369.413 76.98H368.823ZM385.416 77.2456C384.698 77.2456 384.046 77.1103 383.461 76.8398C382.875 76.5644 382.411 76.1684 382.066 75.6519C381.722 75.1306 381.55 74.501 381.55 73.7632C381.55 73.1139 381.678 72.5876 381.933 72.1843C382.189 71.776 382.531 71.4563 382.959 71.2251C383.387 70.994 383.859 70.8218 384.376 70.7087C384.897 70.5906 385.421 70.4972 385.947 70.4283C386.636 70.3398 387.194 70.2734 387.622 70.2291C388.055 70.1799 388.369 70.0988 388.566 69.9856C388.768 69.8725 388.869 69.6758 388.869 69.3954V69.3364C388.869 68.6084 388.67 68.0428 388.271 67.6394C387.878 67.2361 387.28 67.0344 386.478 67.0344C385.647 67.0344 384.995 67.2164 384.523 67.5804C384.051 67.9444 383.719 68.333 383.527 68.7461L381.874 68.1559C382.17 67.4673 382.563 66.9311 383.055 66.5475C383.552 66.1589 384.093 65.8884 384.678 65.7359C385.268 65.5785 385.849 65.4998 386.419 65.4998C386.783 65.4998 387.201 65.5441 387.673 65.6326C388.151 65.7162 388.61 65.8908 389.053 66.1565C389.501 66.4221 389.872 66.8229 390.167 67.3591C390.462 67.8952 390.61 68.6133 390.61 69.5134V76.98H388.869V75.4454H388.78C388.662 75.6913 388.465 75.9544 388.19 76.2348C387.915 76.5152 387.548 76.7537 387.091 76.9505C386.633 77.1472 386.075 77.2456 385.416 77.2456ZM385.681 75.6815C386.37 75.6815 386.95 75.5462 387.423 75.2757C387.9 75.0051 388.259 74.6559 388.5 74.228C388.746 73.8001 388.869 73.35 388.869 72.8778V71.2842C388.795 71.3727 388.633 71.4539 388.382 71.5276C388.136 71.5965 387.851 71.658 387.526 71.7121C387.206 71.7613 386.894 71.8055 386.589 71.8449C386.289 71.8793 386.045 71.9088 385.859 71.9334C385.406 71.9925 384.983 72.0884 384.589 72.2212C384.201 72.3491 383.886 72.5433 383.645 72.804C383.409 73.0598 383.291 73.409 383.291 73.8517C383.291 74.4567 383.515 74.9141 383.962 75.224C384.415 75.529 384.988 75.6815 385.681 75.6815ZM408.042 61.3976L408.928 62.4601C408.583 62.7945 408.185 63.0282 407.732 63.161C407.28 63.2938 406.768 63.375 406.198 63.4045C405.627 63.434 404.993 63.4635 404.294 63.493C403.507 63.5225 402.856 63.7143 402.339 64.0685C401.823 64.4226 401.424 64.9342 401.144 65.6031C400.863 66.272 400.684 67.0935 400.605 68.0674H400.753C401.136 67.3591 401.668 66.8377 402.346 66.5032C403.025 66.1688 403.753 66.0015 404.53 66.0015C405.416 66.0015 406.213 66.2081 406.921 66.6213C407.629 67.0344 408.19 67.6468 408.603 68.4584C409.016 69.27 409.223 70.2709 409.223 71.4612C409.223 72.6466 409.011 73.6697 408.588 74.5305C408.17 75.3913 407.582 76.0553 406.825 76.5225C406.072 76.9849 405.189 77.2161 404.176 77.2161C403.163 77.2161 402.275 76.9775 401.513 76.5004C400.75 76.0184 400.158 75.3052 399.735 74.3608C399.312 73.4115 399.1 72.2384 399.1 70.8415V69.6315C399.1 67.1082 399.528 65.1949 400.384 63.8914C401.245 62.588 402.538 61.9141 404.265 61.8698C404.875 61.8502 405.418 61.8452 405.895 61.8551C406.372 61.8649 406.788 61.8428 407.142 61.7887C407.496 61.7346 407.796 61.6042 408.042 61.3976ZM404.176 75.6519C404.86 75.6519 405.448 75.4798 405.94 75.1355C406.436 74.7912 406.818 74.3067 407.083 73.682C407.349 73.0524 407.482 72.3122 407.482 71.4612C407.482 70.6349 407.346 69.9315 407.076 69.3511C406.81 68.7707 406.429 68.328 405.932 68.0231C405.435 67.7181 404.84 67.5657 404.147 67.5657C403.64 67.5657 403.185 67.6517 402.782 67.8239C402.378 67.996 402.034 68.2493 401.749 68.5838C401.464 68.9183 401.242 69.3265 401.085 69.8086C400.932 70.2906 400.851 70.8415 400.841 71.4612C400.841 72.7303 401.139 73.746 401.734 74.5084C402.329 75.2707 403.143 75.6519 404.176 75.6519ZM416.638 77.2161C415.546 77.2161 414.604 76.9751 413.812 76.493C413.025 76.0061 412.417 75.3273 411.99 74.4567C411.567 73.5812 411.355 72.563 411.355 71.4022C411.355 70.2414 411.567 69.2183 411.99 68.333C412.417 67.4427 413.013 66.7492 413.775 66.2524C414.542 65.7507 415.438 65.4998 416.461 65.4998C417.051 65.4998 417.634 65.5982 418.209 65.7949C418.785 65.9917 419.309 66.3114 419.781 66.7541C420.253 67.1918 420.629 67.7722 420.91 68.4953C421.19 69.2183 421.33 70.1086 421.33 71.1661V71.9039H412.595V70.3988H419.559C419.559 69.7594 419.431 69.1888 419.176 68.6871C418.925 68.1854 418.566 67.7895 418.099 67.4993C417.636 67.2091 417.09 67.064 416.461 67.064C415.767 67.064 415.167 67.2361 414.66 67.5804C414.159 67.9198 413.773 68.3625 413.502 68.9085C413.231 69.4544 413.096 70.0397 413.096 70.6644V71.6678C413.096 72.5237 413.244 73.2492 413.539 73.8443C413.839 74.4346 414.255 74.8846 414.786 75.1945C415.317 75.4995 415.934 75.6519 416.638 75.6519C417.095 75.6519 417.508 75.588 417.877 75.4601C418.251 75.3273 418.573 75.1306 418.844 74.8699C419.114 74.6043 419.323 74.2747 419.471 73.8812L421.153 74.3534C420.976 74.924 420.678 75.4257 420.26 75.8585C419.842 76.2864 419.326 76.6209 418.711 76.8619C418.096 77.098 417.405 77.2161 416.638 77.2161ZM423.27 74.0878H425.13C425.169 74.5993 425.4 74.9879 425.823 75.2535C426.251 75.5191 426.807 75.6519 427.491 75.6519C428.189 75.6519 428.787 75.5093 429.284 75.224C429.78 74.9338 430.029 74.4665 430.029 73.8222C430.029 73.4435 429.935 73.1139 429.748 72.8335C429.561 72.5483 429.298 72.3269 428.959 72.1695C428.62 72.0121 428.219 71.9334 427.756 71.9334H425.809V70.3693H427.756C428.45 70.3693 428.961 70.2119 429.291 69.8971C429.625 69.5823 429.793 69.1888 429.793 68.7166C429.793 68.21 429.613 67.8042 429.254 67.4993C428.895 67.1894 428.386 67.0344 427.727 67.0344C427.063 67.0344 426.509 67.1845 426.067 67.4845C425.624 67.7796 425.39 68.1608 425.366 68.6281H423.536C423.556 68.0182 423.743 67.4796 424.097 67.0123C424.451 66.5401 424.933 66.1712 425.543 65.9056C426.153 65.6351 426.851 65.4998 427.638 65.4998C428.435 65.4998 429.126 65.64 429.711 65.9204C430.302 66.1958 430.757 66.5721 431.076 67.0492C431.401 67.5214 431.563 68.0575 431.563 68.6576C431.563 69.297 431.384 69.8135 431.025 70.207C430.666 70.6005 430.216 70.8808 429.675 71.0481V71.1661C430.103 71.1956 430.474 71.3334 430.789 71.5793C431.108 71.8203 431.357 72.1376 431.534 72.531C431.711 72.9196 431.799 73.35 431.799 73.8222C431.799 74.5108 431.615 75.1109 431.246 75.6224C430.877 76.1291 430.371 76.5225 429.726 76.8029C429.082 77.0784 428.347 77.2161 427.52 77.2161C426.718 77.2161 426 77.0857 425.366 76.825C424.731 76.5594 424.227 76.193 423.853 75.7257C423.484 75.2535 423.29 74.7076 423.27 74.0878ZM440.089 76.98V65.6474H444.722C445.942 65.6474 446.911 65.9228 447.629 66.4737C448.347 67.0246 448.706 67.7526 448.706 68.6576C448.706 69.3462 448.502 69.8799 448.094 70.2586C447.686 70.6324 447.162 70.8858 446.522 71.0186C446.94 71.0776 447.346 71.2251 447.74 71.4612C448.138 71.6973 448.468 72.022 448.728 72.4351C448.989 72.8434 449.119 73.3451 449.119 73.9402C449.119 74.5206 448.972 75.0396 448.677 75.497C448.381 75.9544 447.958 76.316 447.408 76.5816C446.857 76.8472 446.198 76.98 445.43 76.98H440.089ZM441.741 75.3863H445.43C446.03 75.3863 446.5 75.2437 446.839 74.9584C447.179 74.6731 447.349 74.2846 447.349 73.7927C447.349 73.2074 447.179 72.7475 446.839 72.413C446.5 72.0736 446.03 71.9039 445.43 71.9039H441.741V75.3863ZM441.741 70.3988H444.722C445.189 70.3988 445.59 70.3349 445.925 70.207C446.259 70.0742 446.515 69.8873 446.692 69.6463C446.874 69.4003 446.965 69.1101 446.965 68.7756C446.965 68.2985 446.766 67.9247 446.367 67.6542C445.969 67.3787 445.42 67.241 444.722 67.241H441.741V70.3988ZM456.507 77.2161C455.415 77.2161 454.473 76.9751 453.681 76.493C452.894 76.0061 452.286 75.3273 451.858 74.4567C451.435 73.5812 451.224 72.563 451.224 71.4022C451.224 70.2414 451.435 69.2183 451.858 68.333C452.286 67.4427 452.881 66.7492 453.644 66.2524C454.411 65.7507 455.306 65.4998 456.329 65.4998C456.92 65.4998 457.503 65.5982 458.078 65.7949C458.654 65.9917 459.177 66.3114 459.65 66.7541C460.122 67.1918 460.498 67.7722 460.778 68.4953C461.059 69.2183 461.199 70.1086 461.199 71.1661V71.9039H452.463V70.3988H459.428C459.428 69.7594 459.3 69.1888 459.045 68.6871C458.794 68.1854 458.435 67.7895 457.967 67.4993C457.505 67.2091 456.959 67.064 456.329 67.064C455.636 67.064 455.036 67.2361 454.529 67.5804C454.028 67.9198 453.641 68.3625 453.371 68.9085C453.1 69.4544 452.965 70.0397 452.965 70.6644V71.6678C452.965 72.5237 453.113 73.2492 453.408 73.8443C453.708 74.4346 454.123 74.8846 454.655 75.1945C455.186 75.4995 455.803 75.6519 456.507 75.6519C456.964 75.6519 457.377 75.588 457.746 75.4601C458.12 75.3273 458.442 75.1306 458.713 74.8699C458.983 74.6043 459.192 74.2747 459.34 73.8812L461.022 74.3534C460.845 74.924 460.547 75.4257 460.129 75.8585C459.711 76.2864 459.195 76.6209 458.58 76.8619C457.965 77.098 457.274 77.2161 456.507 77.2161ZM468.451 77.2161C467.389 77.2161 466.474 76.9652 465.707 76.4635C464.94 75.9618 464.349 75.2707 463.936 74.3903C463.523 73.5099 463.316 72.504 463.316 71.3727C463.316 70.2217 463.528 69.206 463.951 68.3256C464.379 67.4402 464.974 66.7492 465.736 66.2524C466.504 65.7507 467.399 65.4998 468.422 65.4998C469.219 65.4998 469.937 65.6474 470.576 65.9425C471.216 66.2376 471.74 66.6508 472.148 67.182C472.556 67.7132 472.809 68.333 472.908 69.0413H471.167C471.034 68.5248 470.739 68.0674 470.281 67.6689C469.829 67.2656 469.219 67.064 468.451 67.064C467.773 67.064 467.178 67.241 466.666 67.5952C466.159 67.9444 465.763 68.4387 465.478 69.0781C465.198 69.7127 465.058 70.4578 465.058 71.3137C465.058 72.1892 465.195 72.9516 465.471 73.6009C465.751 74.2501 466.145 74.7543 466.651 75.1133C467.163 75.4724 467.763 75.6519 468.451 75.6519C468.904 75.6519 469.315 75.5732 469.684 75.4158C470.053 75.2584 470.365 75.0322 470.621 74.7371C470.876 74.4419 471.058 74.0878 471.167 73.6746H472.908C472.809 74.3436 472.566 74.9461 472.177 75.4822C471.794 76.0135 471.285 76.4365 470.65 76.7513C470.021 77.0611 469.288 77.2161 468.451 77.2161ZM474.56 67.2705V65.6474H483.768V67.2705H480.05V76.98H478.308V67.2705H474.56ZM488.049 74.4124L493.509 65.6474H495.516V76.98H493.775V68.2149L488.344 76.98H486.308V65.6474H488.049V74.4124Z" fill="black"/>
<path d="M511.104 80.4706C510.371 80.4706 509.747 80.2713 509.231 79.8725C508.716 79.4705 508.322 78.8886 508.05 78.1267C507.777 77.3616 507.641 76.4377 507.641 75.3549C507.641 74.2785 507.777 73.3595 508.05 72.5976C508.325 71.8325 508.721 71.249 509.236 70.847C509.755 70.4417 510.377 70.2391 511.104 70.2391C511.83 70.2391 512.451 70.4417 512.966 70.847C513.485 71.249 513.88 71.8325 514.153 72.5976C514.428 73.3595 514.566 74.2785 514.566 75.3549C514.566 76.4377 514.43 77.3616 514.157 78.1267C513.885 78.8886 513.491 79.4705 512.976 79.8725C512.46 80.2713 511.836 80.4706 511.104 80.4706ZM511.104 79.4008C511.83 79.4008 512.394 79.0507 512.796 78.3504C513.198 77.6502 513.399 76.6516 513.399 75.3549C513.399 74.4925 513.306 73.7582 513.122 73.152C512.94 72.5457 512.678 72.0838 512.334 71.766C511.993 71.4483 511.583 71.2895 511.104 71.2895C510.384 71.2895 509.821 71.6445 509.416 72.3545C509.011 73.0612 508.808 74.0613 508.808 75.3549C508.808 76.2172 508.899 76.9499 509.081 77.5529C509.262 78.1559 509.523 78.6146 509.864 78.9291C510.207 79.2436 510.621 79.4008 511.104 79.4008ZM519.33 80.4706C518.662 80.4706 518.072 80.3523 517.56 80.1156C517.051 79.8757 516.654 79.5467 516.369 79.1285C516.083 78.707 515.942 78.2272 515.945 77.6891C515.942 77.2676 516.025 76.8786 516.193 76.522C516.362 76.1621 516.592 75.8622 516.884 75.6223C517.179 75.3792 517.508 75.2252 517.871 75.1603V75.102C517.395 74.9788 517.015 74.7113 516.733 74.2996C516.451 73.8846 516.312 73.4129 516.315 72.8845C516.312 72.3788 516.44 71.9265 516.699 71.5278C516.959 71.129 517.315 70.8145 517.769 70.5844C518.226 70.3542 518.746 70.2391 519.33 70.2391C519.907 70.2391 520.423 70.3542 520.876 70.5844C521.33 70.8145 521.687 71.129 521.946 71.5278C522.209 71.9265 522.342 72.3788 522.345 72.8845C522.342 73.4129 522.198 73.8846 521.912 74.2996C521.63 74.7113 521.256 74.9788 520.789 75.102V75.1603C521.149 75.2252 521.473 75.3792 521.761 75.6223C522.05 75.8622 522.28 76.1621 522.452 76.522C522.624 76.8786 522.711 77.2676 522.715 77.6891C522.711 78.2272 522.565 78.707 522.277 79.1285C521.992 79.5467 521.595 79.8757 521.086 80.1156C520.58 80.3523 519.995 80.4706 519.33 80.4706ZM519.33 79.4008C519.781 79.4008 520.17 79.3279 520.497 79.182C520.825 79.0361 521.077 78.8302 521.256 78.5644C521.434 78.2985 521.525 77.9873 521.528 77.6307C521.525 77.2546 521.428 76.9223 521.236 76.6338C521.045 76.3453 520.784 76.1183 520.453 75.953C520.126 75.7877 519.751 75.705 519.33 75.705C518.905 75.705 518.526 75.7877 518.192 75.953C517.861 76.1183 517.6 76.3453 517.409 76.6338C517.221 76.9223 517.129 77.2546 517.132 77.6307C517.129 77.9873 517.215 78.2985 517.39 78.5644C517.568 78.8302 517.823 79.0361 518.153 79.182C518.484 79.3279 518.876 79.4008 519.33 79.4008ZM519.33 74.6741C519.687 74.6741 520.003 74.6027 520.278 74.4601C520.557 74.3174 520.776 74.1181 520.935 73.862C521.094 73.6058 521.175 73.306 521.178 72.9623C521.175 72.6252 521.095 72.3318 520.94 72.0821C520.784 71.8293 520.568 71.6347 520.293 71.4986C520.017 71.3592 519.696 71.2895 519.33 71.2895C518.957 71.2895 518.631 71.3592 518.353 71.4986C518.074 71.6347 517.858 71.8293 517.706 72.0821C517.553 72.3318 517.479 72.6252 517.482 72.9623C517.479 73.306 517.555 73.6058 517.711 73.862C517.87 74.1181 518.088 74.3174 518.367 74.4601C518.646 74.6027 518.967 74.6741 519.33 74.6741ZM525.16 79.0604C524.92 79.0604 524.715 78.9745 524.543 78.8027C524.371 78.6308 524.285 78.425 524.285 78.1851C524.285 77.9452 524.371 77.7393 524.543 77.5675C524.715 77.3957 524.92 77.3097 525.16 77.3097C525.4 77.3097 525.606 77.3957 525.778 77.5675C525.95 77.7393 526.036 77.9452 526.036 78.1851C526.036 78.3439 525.995 78.4898 525.914 78.6227C525.836 78.7557 525.731 78.8626 525.598 78.9437C525.468 79.0215 525.322 79.0604 525.16 79.0604ZM525.16 74.0224C524.92 74.0224 524.715 73.9365 524.543 73.7647C524.371 73.5929 524.285 73.387 524.285 73.1471C524.285 72.9072 524.371 72.7013 524.543 72.5295C524.715 72.3577 524.92 72.2718 525.16 72.2718C525.4 72.2718 525.606 72.3577 525.778 72.5295C525.95 72.7013 526.036 72.9072 526.036 73.1471C526.036 73.306 525.995 73.4518 525.914 73.5848C525.836 73.7177 525.731 73.8247 525.598 73.9057C525.468 73.9835 525.322 74.0224 525.16 74.0224ZM527.568 78.2921V77.3L531.945 70.3753H532.665V71.9119H532.178L528.872 77.1444V77.2222H534.765V78.2921H527.568ZM532.256 80.3345V77.9906V77.5286V70.3753H533.404V80.3345H532.256ZM539.681 70.3753V80.3345H538.475V71.6396H538.417L535.986 73.2541V72.0286L538.475 70.3753H539.681Z" fill="#421DFF"/>
<path d="M559.079 71.3777C559.298 71.2271 559.601 71.2464 559.8 71.4382C560.027 71.6577 560.034 72.0204 559.814 72.2478L550.906 81.4743C550.796 81.5887 550.642 81.6522 550.483 81.6491C550.324 81.646 550.173 81.5765 550.067 81.4577L546.091 77.0036L546.517 76.6228L546.944 76.2409L550.511 80.2351L558.991 71.4529L559.079 71.3777ZM546.137 76.195C546.372 75.985 546.734 76.0056 546.944 76.2409L546.091 77.0036C545.88 76.7678 545.901 76.4056 546.137 76.195Z" fill="#421DFF"/>
<path d="M562.134 71.2986C562.353 71.148 562.655 71.1673 562.854 71.3591C563.082 71.5786 563.088 71.9413 562.869 72.1687L553.961 81.3952C553.85 81.5096 553.697 81.5731 553.538 81.57C553.379 81.5669 553.228 81.4974 553.122 81.3786L549.145 76.9245L549.572 76.5437L549.999 76.1618L553.565 80.156L562.046 71.3738L562.134 71.2986ZM549.191 76.1159C549.427 75.9059 549.788 75.9265 549.999 76.1618L549.145 76.9245C548.935 76.6887 548.955 76.3265 549.191 76.1159Z" fill="#421DFF"/>
<path opacity="0.8" d="M41.832 97C35.4397 97 32.2435 96.9999 29.6113 97.6592C21.7371 99.6316 15.5887 105.78 13.6162 113.654C12.9569 116.286 12.957 119.483 12.957 125.875C12.957 128.781 12.9572 130.233 13.2568 131.43C14.1534 135.009 16.9481 137.804 20.5273 138.7C21.7237 139 23.1765 139 26.082 139H184C185.026 139 185.539 139 185.973 138.981C196.278 138.531 204.531 130.278 204.981 119.973C205 119.539 205 119.026 205 118C205 116.974 205 116.461 204.981 116.027C204.531 105.722 196.278 97.4685 185.973 97.0186C185.539 96.9996 185.026 97 184 97H41.832Z" fill="#BCA4FF"/>
<path d="M157.02 130.129C156.324 130.129 155.732 129.94 155.242 129.561C154.753 129.18 154.379 128.627 154.12 127.904C153.862 127.178 153.733 126.301 153.733 125.273C153.733 124.251 153.862 123.378 154.12 122.655C154.382 121.929 154.757 121.375 155.247 120.993C155.739 120.609 156.33 120.416 157.02 120.416C157.709 120.416 158.298 120.609 158.788 120.993C159.28 121.375 159.656 121.929 159.914 122.655C160.176 123.378 160.306 124.251 160.306 125.273C160.306 126.301 160.177 127.178 159.919 127.904C159.66 128.627 159.286 129.18 158.797 129.561C158.308 129.94 157.715 130.129 157.02 130.129ZM157.02 129.114C157.709 129.114 158.244 128.781 158.626 128.116C159.008 127.452 159.199 126.504 159.199 125.273C159.199 124.454 159.111 123.757 158.935 123.181C158.763 122.606 158.514 122.167 158.188 121.866C157.864 121.564 157.475 121.413 157.02 121.413C156.336 121.413 155.802 121.75 155.418 122.424C155.033 123.095 154.841 124.045 154.841 125.273C154.841 126.091 154.927 126.787 155.099 127.359C155.271 127.932 155.519 128.367 155.842 128.666C156.169 128.964 156.561 129.114 157.02 129.114ZM164.829 130.129C164.195 130.129 163.635 130.017 163.149 129.792C162.666 129.565 162.289 129.252 162.018 128.855C161.747 128.455 161.613 128 161.616 127.489C161.613 127.089 161.691 126.719 161.852 126.381C162.012 126.039 162.23 125.754 162.507 125.527C162.787 125.296 163.099 125.15 163.444 125.088V125.033C162.992 124.916 162.632 124.662 162.364 124.271C162.096 123.877 161.964 123.429 161.967 122.928C161.964 122.447 162.085 122.018 162.332 121.64C162.578 121.261 162.916 120.962 163.347 120.744C163.781 120.525 164.275 120.416 164.829 120.416C165.377 120.416 165.866 120.525 166.297 120.744C166.728 120.962 167.067 121.261 167.313 121.64C167.562 122.018 167.688 122.447 167.691 122.928C167.688 123.429 167.551 123.877 167.28 124.271C167.013 124.662 166.657 124.916 166.214 125.033V125.088C166.556 125.15 166.863 125.296 167.137 125.527C167.411 125.754 167.63 126.039 167.793 126.381C167.956 126.719 168.039 127.089 168.042 127.489C168.039 128 167.901 128.455 167.627 128.855C167.356 129.252 166.979 129.565 166.496 129.792C166.016 130.017 165.46 130.129 164.829 130.129ZM164.829 129.114C165.257 129.114 165.626 129.044 165.937 128.906C166.248 128.767 166.488 128.572 166.657 128.32C166.827 128.067 166.913 127.772 166.916 127.433C166.913 127.076 166.82 126.761 166.639 126.487C166.457 126.213 166.209 125.998 165.896 125.841C165.585 125.684 165.229 125.605 164.829 125.605C164.426 125.605 164.066 125.684 163.749 125.841C163.435 125.998 163.187 126.213 163.006 126.487C162.827 126.761 162.739 127.076 162.742 127.433C162.739 127.772 162.821 128.067 162.987 128.32C163.156 128.572 163.398 128.767 163.712 128.906C164.026 129.044 164.398 129.114 164.829 129.114ZM164.829 124.626C165.168 124.626 165.468 124.559 165.729 124.423C165.994 124.288 166.202 124.099 166.353 123.855C166.503 123.612 166.58 123.328 166.583 123.001C166.58 122.681 166.505 122.403 166.357 122.166C166.209 121.926 166.005 121.741 165.743 121.612C165.482 121.48 165.177 121.413 164.829 121.413C164.475 121.413 164.166 121.48 163.901 121.612C163.637 121.741 163.432 121.926 163.287 122.166C163.143 122.403 163.072 122.681 163.075 123.001C163.072 123.328 163.144 123.612 163.292 123.855C163.443 124.099 163.65 124.288 163.915 124.423C164.18 124.559 164.484 124.626 164.829 124.626ZM170.364 128.79C170.136 128.79 169.941 128.709 169.778 128.546C169.615 128.383 169.533 128.187 169.533 127.96C169.533 127.732 169.615 127.536 169.778 127.373C169.941 127.21 170.136 127.129 170.364 127.129C170.592 127.129 170.787 127.21 170.95 127.373C171.113 127.536 171.195 127.732 171.195 127.96C171.195 128.11 171.156 128.249 171.08 128.375C171.006 128.501 170.906 128.603 170.779 128.68C170.656 128.754 170.518 128.79 170.364 128.79ZM170.364 124.008C170.136 124.008 169.941 123.926 169.778 123.763C169.615 123.6 169.533 123.405 169.533 123.177C169.533 122.949 169.615 122.754 169.778 122.591C169.941 122.427 170.136 122.346 170.364 122.346C170.592 122.346 170.787 122.427 170.95 122.591C171.113 122.754 171.195 122.949 171.195 123.177C171.195 123.328 171.156 123.466 171.08 123.592C171.006 123.719 170.906 123.82 170.779 123.897C170.656 123.971 170.518 124.008 170.364 124.008ZM172.65 128.061V127.119L176.805 120.545H177.488V122.004H177.026L173.887 126.972V127.045H179.482V128.061H172.65ZM177.1 130V127.775V127.336V120.545H178.19V130H177.1ZM184.092 130.129C183.704 130.123 183.316 130.049 182.928 129.908C182.54 129.766 182.187 129.528 181.866 129.192C181.546 128.854 181.289 128.397 181.095 127.821C180.902 127.242 180.805 126.516 180.805 125.642C180.805 124.805 180.883 124.063 181.04 123.417C181.197 122.768 181.425 122.221 181.723 121.778C182.022 121.332 182.382 120.993 182.804 120.762C183.228 120.532 183.707 120.416 184.239 120.416C184.769 120.416 185.24 120.522 185.652 120.735C186.067 120.944 186.406 121.236 186.668 121.612C186.929 121.987 187.098 122.42 187.175 122.909H186.049C185.944 122.484 185.741 122.132 185.44 121.852C185.138 121.572 184.738 121.432 184.239 121.432C183.507 121.432 182.93 121.75 182.508 122.387C182.09 123.025 181.879 123.919 181.876 125.07H181.95C182.122 124.808 182.327 124.585 182.564 124.4C182.804 124.212 183.068 124.068 183.358 123.966C183.647 123.865 183.953 123.814 184.276 123.814C184.818 123.814 185.313 123.949 185.763 124.22C186.212 124.488 186.572 124.859 186.843 125.333C187.114 125.804 187.249 126.344 187.249 126.953C187.249 127.538 187.118 128.073 186.857 128.56C186.595 129.043 186.227 129.428 185.754 129.714C185.283 129.997 184.729 130.135 184.092 130.129ZM184.092 129.114C184.479 129.114 184.827 129.017 185.135 128.823C185.446 128.629 185.69 128.369 185.869 128.043C186.05 127.716 186.141 127.353 186.141 126.953C186.141 126.562 186.054 126.207 185.878 125.887C185.706 125.564 185.467 125.307 185.163 125.116C184.861 124.925 184.516 124.83 184.129 124.83C183.836 124.83 183.564 124.888 183.311 125.005C183.059 125.119 182.837 125.276 182.647 125.476C182.459 125.676 182.311 125.905 182.203 126.164C182.096 126.419 182.042 126.688 182.042 126.972C182.042 127.347 182.13 127.698 182.305 128.024C182.483 128.35 182.727 128.614 183.034 128.814C183.345 129.014 183.698 129.114 184.092 129.114Z" fill="#421DFF"/>
<path d="M41.4968 110.455V112.017H34.4798V125H32.7184V110.455H41.4968ZM42.8622 129.091V114.091H44.4815V115.824H44.6804C44.8035 115.634 44.974 115.393 45.1918 115.099C45.4143 114.801 45.7315 114.536 46.1435 114.304C46.5601 114.067 47.1236 113.949 47.8338 113.949C48.7524 113.949 49.562 114.179 50.2628 114.638C50.9635 115.097 51.5104 115.748 51.9034 116.591C52.2964 117.434 52.4929 118.428 52.4929 119.574C52.4929 120.729 52.2964 121.731 51.9034 122.578C51.5104 123.421 50.9659 124.074 50.2699 124.538C49.5739 124.998 48.7713 125.227 47.8622 125.227C47.1615 125.227 46.6004 125.111 46.179 124.879C45.7576 124.643 45.4332 124.375 45.206 124.077C44.9787 123.774 44.8035 123.523 44.6804 123.324H44.5384V129.091H42.8622ZM44.5099 119.545C44.5099 120.369 44.6307 121.096 44.8722 121.726C45.1136 122.351 45.4664 122.841 45.9304 123.196C46.3944 123.546 46.9626 123.722 47.6349 123.722C48.3357 123.722 48.9205 123.537 49.3892 123.168C49.8627 122.794 50.2178 122.292 50.4545 121.662C50.696 121.027 50.8168 120.322 50.8168 119.545C50.8168 118.778 50.6984 118.087 50.4616 117.472C50.2296 116.851 49.8769 116.361 49.4034 116.001C48.9347 115.637 48.3452 115.455 47.6349 115.455C46.9531 115.455 46.3802 115.627 45.9162 115.973C45.4522 116.314 45.1018 116.792 44.8651 117.408C44.6283 118.018 44.5099 118.731 44.5099 119.545ZM55.7386 129.091C55.4545 129.091 55.2012 129.067 54.9787 129.02C54.7562 128.977 54.6023 128.935 54.517 128.892L54.9432 127.415C55.3504 127.519 55.7102 127.557 56.0227 127.528C56.3352 127.5 56.6122 127.36 56.8537 127.109C57.0999 126.863 57.3248 126.463 57.5284 125.909L57.8409 125.057L53.8068 114.091H55.625L58.6364 122.784H58.75L61.7614 114.091H63.5795L58.9489 126.591C58.7405 127.154 58.4825 127.621 58.1747 127.99C57.867 128.364 57.5095 128.641 57.1023 128.821C56.6998 129.001 56.2453 129.091 55.7386 129.091ZM69.8331 125.227C68.8104 125.227 67.9297 124.986 67.1911 124.503C66.4524 124.02 65.8842 123.355 65.4865 122.507C65.0888 121.66 64.8899 120.691 64.8899 119.602C64.8899 118.494 65.0935 117.517 65.5007 116.669C65.9126 115.817 66.4856 115.152 67.2195 114.673C67.9581 114.19 68.8198 113.949 69.8047 113.949C70.5717 113.949 71.263 114.091 71.8786 114.375C72.4941 114.659 72.9983 115.057 73.3913 115.568C73.7843 116.08 74.0282 116.676 74.1229 117.358H72.4467C72.3189 116.861 72.0348 116.42 71.5945 116.037C71.1589 115.649 70.5717 115.455 69.8331 115.455C69.1797 115.455 68.6068 115.625 68.1143 115.966C67.6267 116.302 67.2455 116.778 66.9709 117.393C66.701 118.004 66.5661 118.722 66.5661 119.545C66.5661 120.388 66.6986 121.122 66.9638 121.747C67.2337 122.372 67.6125 122.857 68.1001 123.203C68.5926 123.549 69.1702 123.722 69.8331 123.722C70.2687 123.722 70.6641 123.646 71.0192 123.494C71.3743 123.343 71.675 123.125 71.9212 122.841C72.1674 122.557 72.3426 122.216 72.4467 121.818H74.1229C74.0282 122.462 73.7938 123.042 73.4197 123.558C73.0504 124.07 72.5604 124.477 71.9496 124.78C71.3435 125.078 70.638 125.227 69.8331 125.227ZM83.8743 118.778V120.341H77.8516V118.778H83.8743ZM78.2493 114.091V125H76.5732V114.091H78.2493ZM85.1527 114.091V125H83.4766V114.091H85.1527ZM92.7876 125.227C91.7365 125.227 90.8298 124.995 90.0675 124.531C89.3099 124.062 88.7251 123.409 88.3132 122.571C87.906 121.728 87.7024 120.748 87.7024 119.631C87.7024 118.513 87.906 117.528 88.3132 116.676C88.7251 115.819 89.2981 115.152 90.032 114.673C90.7706 114.19 91.6323 113.949 92.6172 113.949C93.1854 113.949 93.7464 114.044 94.3004 114.233C94.8544 114.422 95.3587 114.73 95.8132 115.156C96.2678 115.578 96.63 116.136 96.8999 116.832C97.1697 117.528 97.3047 118.385 97.3047 119.403V120.114H88.8956V118.665H95.6001C95.6001 118.049 95.477 117.5 95.2308 117.017C94.9893 116.534 94.6437 116.153 94.1939 115.874C93.7488 115.594 93.2232 115.455 92.6172 115.455C91.9496 115.455 91.3719 115.62 90.8842 115.952C90.4013 116.278 90.0296 116.705 89.7692 117.23C89.5088 117.756 89.3786 118.319 89.3786 118.92V119.886C89.3786 120.71 89.5206 121.409 89.8047 121.982C90.0935 122.55 90.4936 122.983 91.005 123.281C91.5163 123.575 92.1106 123.722 92.7876 123.722C93.228 123.722 93.6257 123.66 93.9808 123.537C94.3407 123.409 94.6508 123.22 94.9112 122.969C95.1716 122.713 95.3729 122.396 95.5149 122.017L97.1342 122.472C96.9638 123.021 96.6773 123.504 96.2749 123.92C95.8724 124.332 95.3752 124.654 94.7834 124.886C94.1915 125.114 93.5263 125.227 92.7876 125.227ZM107.156 118.778V120.341H101.133V118.778H107.156ZM101.531 114.091V125H99.8544V114.091H101.531ZM108.434 114.091V125H106.758V114.091H108.434ZM112.944 118.04H116.069C117.347 118.04 118.325 118.364 119.002 119.013C119.679 119.661 120.018 120.483 120.018 121.477C120.018 122.131 119.866 122.725 119.563 123.26C119.26 123.79 118.815 124.214 118.228 124.531C117.641 124.844 116.921 125 116.069 125H111.495V114.091H113.171V123.438H116.069C116.732 123.438 117.276 123.262 117.702 122.912C118.129 122.562 118.342 122.112 118.342 121.562C118.342 120.985 118.129 120.514 117.702 120.149C117.276 119.785 116.732 119.602 116.069 119.602H112.944V118.04ZM122.569 125V114.091H124.245V118.835H125.353L129.274 114.091H131.433L127.029 119.347L131.49 125H129.331L125.751 120.398H124.245V125H122.569ZM137.294 125.227C136.309 125.227 135.445 124.993 134.702 124.524C133.963 124.055 133.385 123.4 132.969 122.557C132.557 121.714 132.351 120.729 132.351 119.602C132.351 118.466 132.557 117.474 132.969 116.626C133.385 115.779 133.963 115.121 134.702 114.652C135.445 114.183 136.309 113.949 137.294 113.949C138.279 113.949 139.141 114.183 139.879 114.652C140.623 115.121 141.2 115.779 141.612 116.626C142.029 117.474 142.237 118.466 142.237 119.602C142.237 120.729 142.029 121.714 141.612 122.557C141.2 123.4 140.623 124.055 139.879 124.524C139.141 124.993 138.279 125.227 137.294 125.227ZM137.294 123.722C138.042 123.722 138.658 123.53 139.141 123.146C139.624 122.763 139.981 122.259 140.213 121.634C140.445 121.009 140.561 120.331 140.561 119.602C140.561 118.873 140.445 118.194 140.213 117.564C139.981 116.934 139.624 116.425 139.141 116.037C138.658 115.649 138.042 115.455 137.294 115.455C136.546 115.455 135.93 115.649 135.447 116.037C134.964 116.425 134.607 116.934 134.375 117.564C134.143 118.194 134.027 118.873 134.027 119.602C134.027 120.331 134.143 121.009 134.375 121.634C134.607 122.259 134.964 122.763 135.447 123.146C135.93 123.53 136.546 123.722 137.294 123.722Z" fill="black"/>
<path opacity="0.8" d="M31.1201 144C28.7871 144 27.6203 144 26.6396 144.117C19.0432 145.025 13.0549 151.014 12.1465 158.61C12.0292 159.591 12.0293 160.758 12.0293 163.091C12.0293 165.89 12.0293 167.29 12.1699 168.467C12.2906 169.476 12.4864 170.462 12.751 171.419C12.4855 174.136 12.118 176.573 11.6045 177.687C8.46324 184.498 0.0140793 185.997 0.000976069 185.999C0.0133027 185.999 15.5047 186.089 21.5186 184.503C22.0967 184.35 22.6645 184.178 23.2168 183.994C25.1719 184.946 27.3074 185.59 29.5615 185.859C30.7383 186 32.1388 186 34.9385 186H307C308.026 186 308.539 186 308.973 185.981C319.278 185.531 327.531 177.278 327.981 166.973C328 166.539 328 166.026 328 165C328 163.974 328 163.461 327.981 163.027C327.531 152.722 319.278 144.469 308.973 144.019C308.539 144 308.026 144 307 144H31.1201Z" fill="#BCA4FF"/>
<path d="M281.02 175.937C280.324 175.937 279.732 175.748 279.242 175.369C278.753 174.987 278.379 174.435 278.12 173.712C277.862 172.985 277.733 172.108 277.733 171.08C277.733 170.059 277.862 169.186 278.12 168.463C278.382 167.736 278.757 167.182 279.247 166.801C279.739 166.416 280.33 166.224 281.02 166.224C281.709 166.224 282.298 166.416 282.788 166.801C283.28 167.182 283.656 167.736 283.914 168.463C284.176 169.186 284.306 170.059 284.306 171.08C284.306 172.108 284.177 172.985 283.919 173.712C283.66 174.435 283.286 174.987 282.797 175.369C282.308 175.748 281.715 175.937 281.02 175.937ZM281.02 174.921C281.709 174.921 282.244 174.589 282.626 173.924C283.008 173.259 283.199 172.311 283.199 171.08C283.199 170.262 283.111 169.565 282.935 168.989C282.763 168.414 282.514 167.975 282.188 167.673C281.864 167.372 281.475 167.221 281.02 167.221C280.336 167.221 279.802 167.558 279.418 168.232C279.033 168.903 278.841 169.852 278.841 171.08C278.841 171.899 278.927 172.595 279.099 173.167C279.271 173.739 279.519 174.175 279.842 174.473C280.169 174.772 280.561 174.921 281.02 174.921ZM288.829 175.937C288.195 175.937 287.635 175.825 287.149 175.6C286.666 175.372 286.289 175.06 286.018 174.663C285.747 174.263 285.613 173.807 285.616 173.296C285.613 172.896 285.691 172.527 285.852 172.188C286.012 171.847 286.23 171.562 286.507 171.334C286.787 171.103 287.099 170.957 287.444 170.896V170.84C286.992 170.723 286.632 170.469 286.364 170.079C286.096 169.685 285.964 169.237 285.967 168.735C285.964 168.255 286.085 167.826 286.332 167.447C286.578 167.069 286.916 166.77 287.347 166.552C287.781 166.333 288.275 166.224 288.829 166.224C289.377 166.224 289.866 166.333 290.297 166.552C290.728 166.77 291.067 167.069 291.313 167.447C291.562 167.826 291.688 168.255 291.691 168.735C291.688 169.237 291.551 169.685 291.28 170.079C291.013 170.469 290.657 170.723 290.214 170.84V170.896C290.556 170.957 290.863 171.103 291.137 171.334C291.411 171.562 291.63 171.847 291.793 172.188C291.956 172.527 292.039 172.896 292.042 173.296C292.039 173.807 291.901 174.263 291.627 174.663C291.356 175.06 290.979 175.372 290.496 175.6C290.016 175.825 289.46 175.937 288.829 175.937ZM288.829 174.921C289.257 174.921 289.626 174.852 289.937 174.714C290.248 174.575 290.488 174.38 290.657 174.127C290.827 173.875 290.913 173.579 290.916 173.241C290.913 172.884 290.82 172.568 290.639 172.294C290.457 172.021 290.209 171.805 289.896 171.648C289.585 171.491 289.229 171.413 288.829 171.413C288.426 171.413 288.066 171.491 287.749 171.648C287.435 171.805 287.187 172.021 287.006 172.294C286.827 172.568 286.739 172.884 286.742 173.241C286.739 173.579 286.821 173.875 286.987 174.127C287.156 174.38 287.398 174.575 287.712 174.714C288.026 174.852 288.398 174.921 288.829 174.921ZM288.829 170.434C289.168 170.434 289.468 170.366 289.729 170.231C289.994 170.095 290.202 169.906 290.353 169.663C290.503 169.42 290.58 169.135 290.583 168.809C290.58 168.489 290.505 168.21 290.357 167.973C290.209 167.733 290.005 167.549 289.743 167.419C289.482 167.287 289.177 167.221 288.829 167.221C288.475 167.221 288.166 167.287 287.901 167.419C287.637 167.549 287.432 167.733 287.287 167.973C287.143 168.21 287.072 168.489 287.075 168.809C287.072 169.135 287.144 169.42 287.292 169.663C287.443 169.906 287.65 170.095 287.915 170.231C288.18 170.366 288.484 170.434 288.829 170.434ZM294.364 174.598C294.136 174.598 293.941 174.517 293.778 174.353C293.615 174.19 293.533 173.995 293.533 173.767C293.533 173.539 293.615 173.344 293.778 173.181C293.941 173.018 294.136 172.936 294.364 172.936C294.592 172.936 294.787 173.018 294.95 173.181C295.113 173.344 295.195 173.539 295.195 173.767C295.195 173.918 295.156 174.056 295.08 174.183C295.006 174.309 294.906 174.41 294.779 174.487C294.656 174.561 294.518 174.598 294.364 174.598ZM294.364 169.815C294.136 169.815 293.941 169.734 293.778 169.571C293.615 169.408 293.533 169.212 293.533 168.984C293.533 168.757 293.615 168.561 293.778 168.398C293.941 168.235 294.136 168.153 294.364 168.153C294.592 168.153 294.787 168.235 294.95 168.398C295.113 168.561 295.195 168.757 295.195 168.984C295.195 169.135 295.156 169.274 295.08 169.4C295.006 169.526 294.906 169.628 294.779 169.705C294.656 169.778 294.518 169.815 294.364 169.815ZM296.65 173.869V172.927L300.805 166.353H301.488V167.812H301.026L297.887 172.779V172.853H303.482V173.869H296.65ZM301.1 175.808V173.582V173.144V166.353H302.19V175.808H301.1ZM308.092 175.937C307.704 175.931 307.316 175.857 306.928 175.715C306.54 175.574 306.187 175.335 305.866 175C305.546 174.661 305.289 174.204 305.095 173.629C304.902 173.05 304.805 172.324 304.805 171.45C304.805 170.613 304.883 169.871 305.04 169.225C305.197 168.575 305.425 168.029 305.723 167.586C306.022 167.139 306.382 166.801 306.804 166.57C307.228 166.339 307.707 166.224 308.239 166.224C308.769 166.224 309.24 166.33 309.652 166.542C310.067 166.752 310.406 167.044 310.668 167.419C310.929 167.795 311.098 168.227 311.175 168.717H310.049C309.944 168.292 309.741 167.94 309.44 167.66C309.138 167.379 308.738 167.239 308.239 167.239C307.507 167.239 306.93 167.558 306.508 168.195C306.09 168.832 305.879 169.726 305.876 170.877H305.95C306.122 170.616 306.327 170.392 306.564 170.208C306.804 170.02 307.068 169.875 307.358 169.774C307.647 169.672 307.953 169.622 308.276 169.622C308.818 169.622 309.313 169.757 309.763 170.028C310.212 170.296 310.572 170.666 310.843 171.14C311.114 171.611 311.249 172.151 311.249 172.761C311.249 173.345 311.118 173.881 310.857 174.367C310.595 174.85 310.227 175.235 309.754 175.521C309.283 175.805 308.729 175.943 308.092 175.937ZM308.092 174.921C308.479 174.921 308.827 174.824 309.135 174.63C309.446 174.437 309.69 174.176 309.869 173.85C310.05 173.524 310.141 173.161 310.141 172.761C310.141 172.37 310.054 172.014 309.878 171.694C309.706 171.371 309.467 171.114 309.163 170.923C308.861 170.733 308.516 170.637 308.129 170.637C307.836 170.637 307.564 170.696 307.311 170.813C307.059 170.926 306.837 171.083 306.647 171.283C306.459 171.484 306.311 171.713 306.203 171.971C306.096 172.227 306.042 172.496 306.042 172.779C306.042 173.155 306.13 173.506 306.305 173.832C306.483 174.158 306.727 174.421 307.034 174.621C307.345 174.821 307.698 174.921 308.092 174.921Z" fill="#421DFF"/>
<path d="M26.7184 172V157.455H31.8036C32.8169 157.455 33.6526 157.63 34.3107 157.98C34.9689 158.326 35.4589 158.792 35.7809 159.379C36.1029 159.962 36.2638 160.608 36.2638 161.318C36.2638 161.943 36.1526 162.459 35.93 162.866C35.7122 163.274 35.4234 163.596 35.0636 163.832C34.7085 164.069 34.3226 164.244 33.9059 164.358V164.5C34.351 164.528 34.7984 164.685 35.2482 164.969C35.698 165.253 36.0745 165.66 36.3775 166.19C36.6805 166.721 36.832 167.369 36.832 168.136C36.832 168.866 36.6663 169.521 36.3349 170.104C36.0034 170.686 35.4802 171.148 34.7653 171.489C34.0503 171.83 33.1199 172 31.9741 172H26.7184ZM28.4798 170.438H31.9741C33.1246 170.438 33.9414 170.215 34.4244 169.77C34.9121 169.32 35.1559 168.776 35.1559 168.136C35.1559 167.644 35.0304 167.189 34.7795 166.773C34.5285 166.351 34.171 166.015 33.707 165.764C33.243 165.509 32.6938 165.381 32.0593 165.381H28.4798V170.438ZM28.4798 163.847H31.7468C32.2771 163.847 32.7553 163.742 33.1815 163.534C33.6123 163.326 33.9532 163.032 34.2042 162.653C34.4599 162.275 34.5877 161.83 34.5877 161.318C34.5877 160.679 34.3652 160.137 33.9201 159.692C33.475 159.242 32.7695 159.017 31.8036 159.017H28.4798V163.847ZM44.0728 172.227C43.0217 172.227 42.1149 171.995 41.3526 171.531C40.5951 171.062 40.0103 170.409 39.5984 169.571C39.1912 168.728 38.9876 167.748 38.9876 166.631C38.9876 165.513 39.1912 164.528 39.5984 163.676C40.0103 162.819 40.5832 162.152 41.3171 161.673C42.0558 161.19 42.9175 160.949 43.9023 160.949C44.4705 160.949 45.0316 161.044 45.5856 161.233C46.1396 161.422 46.6438 161.73 47.0984 162.156C47.5529 162.578 47.9151 163.136 48.185 163.832C48.4549 164.528 48.5898 165.385 48.5898 166.403V167.114H40.1808V165.665H46.8853C46.8853 165.049 46.7622 164.5 46.516 164.017C46.2745 163.534 45.9289 163.153 45.479 162.874C45.034 162.594 44.5084 162.455 43.9023 162.455C43.2347 162.455 42.6571 162.62 42.1694 162.952C41.6864 163.278 41.3147 163.705 41.0543 164.23C40.7939 164.756 40.6637 165.319 40.6637 165.92V166.886C40.6637 167.71 40.8058 168.409 41.0898 168.982C41.3787 169.55 41.7788 169.983 42.2901 170.281C42.8015 170.575 43.3957 170.722 44.0728 170.722C44.5131 170.722 44.9109 170.66 45.266 170.537C45.6258 170.409 45.936 170.22 46.1964 169.969C46.4568 169.713 46.658 169.396 46.8001 169.017L48.4194 169.472C48.2489 170.021 47.9625 170.504 47.56 170.92C47.1576 171.332 46.6604 171.654 46.0685 171.886C45.4767 172.114 44.8114 172.227 44.0728 172.227ZM51.1396 176.091V161.091H52.7589V162.824H52.9577C53.0808 162.634 53.2513 162.393 53.4691 162.099C53.6916 161.801 54.0089 161.536 54.4208 161.304C54.8375 161.067 55.4009 160.949 56.1112 160.949C57.0297 160.949 57.8394 161.179 58.5401 161.638C59.2409 162.097 59.7878 162.748 60.1808 163.591C60.5737 164.434 60.7702 165.428 60.7702 166.574C60.7702 167.729 60.5737 168.731 60.1808 169.578C59.7878 170.421 59.2433 171.074 58.5472 171.538C57.8512 171.998 57.0487 172.227 56.1396 172.227C55.4388 172.227 54.8777 172.111 54.4563 171.879C54.0349 171.643 53.7106 171.375 53.4833 171.077C53.256 170.774 53.0808 170.523 52.9577 170.324H52.8157V176.091H51.1396ZM52.7873 166.545C52.7873 167.369 52.908 168.096 53.1495 168.726C53.391 169.351 53.7437 169.841 54.2077 170.196C54.6718 170.546 55.2399 170.722 55.9123 170.722C56.613 170.722 57.1978 170.537 57.6665 170.168C58.14 169.794 58.4951 169.292 58.7319 168.662C58.9734 168.027 59.0941 167.322 59.0941 166.545C59.0941 165.778 58.9757 165.087 58.739 164.472C58.507 163.851 58.1542 163.361 57.6808 163.001C57.212 162.637 56.6225 162.455 55.9123 162.455C55.2305 162.455 54.6576 162.627 54.1935 162.973C53.7295 163.314 53.3791 163.792 53.1424 164.408C52.9057 165.018 52.7873 165.731 52.7873 166.545ZM70.6282 165.778V167.341H64.6055V165.778H70.6282ZM65.0032 161.091V172H63.3271V161.091H65.0032ZM71.9066 161.091V172H70.2305V161.091H71.9066ZM75.6566 176.091C75.3725 176.091 75.1192 176.067 74.8967 176.02C74.6741 175.977 74.5202 175.935 74.435 175.892L74.8612 174.415C75.2683 174.519 75.6282 174.557 75.9407 174.528C76.2532 174.5 76.5302 174.36 76.7717 174.109C77.0179 173.863 77.2428 173.463 77.4464 172.909L77.7589 172.057L73.7248 161.091H75.543L78.5543 169.784H78.668L81.6793 161.091H83.4975L78.8668 173.591C78.6585 174.154 78.4004 174.621 78.0927 174.99C77.7849 175.364 77.4274 175.641 77.0202 175.821C76.6178 176.001 76.1632 176.091 75.6566 176.091ZM89.7511 172.227C88.7283 172.227 87.8477 171.986 87.109 171.503C86.3704 171.02 85.8022 170.355 85.4045 169.507C85.0067 168.66 84.8079 167.691 84.8079 166.602C84.8079 165.494 85.0115 164.517 85.4187 163.669C85.8306 162.817 86.4035 162.152 87.1374 161.673C87.8761 161.19 88.7378 160.949 89.7227 160.949C90.4897 160.949 91.181 161.091 91.7965 161.375C92.4121 161.659 92.9163 162.057 93.3093 162.568C93.7023 163.08 93.9461 163.676 94.0408 164.358H92.3647C92.2369 163.861 91.9528 163.42 91.5124 163.037C91.0768 162.649 90.4897 162.455 89.7511 162.455C89.0977 162.455 88.5247 162.625 88.0323 162.966C87.5446 163.302 87.1635 163.778 86.8888 164.393C86.619 165.004 86.484 165.722 86.484 166.545C86.484 167.388 86.6166 168.122 86.8817 168.747C87.1516 169.372 87.5304 169.857 88.0181 170.203C88.5105 170.549 89.0882 170.722 89.7511 170.722C90.1867 170.722 90.582 170.646 90.9371 170.494C91.2923 170.343 91.5929 170.125 91.8391 169.841C92.0853 169.557 92.2605 169.216 92.3647 168.818H94.0408C93.9461 169.462 93.7118 170.042 93.3377 170.558C92.9684 171.07 92.4783 171.477 91.8675 171.78C91.2615 172.078 90.556 172.227 89.7511 172.227ZM97.94 165.04H101.065C102.343 165.04 103.321 165.364 103.998 166.013C104.675 166.661 105.014 167.483 105.014 168.477C105.014 169.131 104.862 169.725 104.559 170.26C104.256 170.79 103.811 171.214 103.224 171.531C102.637 171.844 101.917 172 101.065 172H96.4911V161.091H98.1673V170.438H101.065C101.728 170.438 102.272 170.262 102.699 169.912C103.125 169.562 103.338 169.112 103.338 168.562C103.338 167.985 103.125 167.514 102.699 167.149C102.272 166.785 101.728 166.602 101.065 166.602H97.94V165.04ZM113.19 172V161.091H114.866V165.835H115.974L119.895 161.091H122.054L117.651 166.347L122.111 172H119.952L116.372 167.398H114.866V172H113.19ZM133.989 172.227C132.967 172.227 132.086 171.986 131.347 171.503C130.609 171.02 130.04 170.355 129.643 169.507C129.245 168.66 129.046 167.691 129.046 166.602C129.046 165.494 129.25 164.517 129.657 163.669C130.069 162.817 130.642 162.152 131.376 161.673C132.114 161.19 132.976 160.949 133.961 160.949C134.728 160.949 135.419 161.091 136.035 161.375C136.65 161.659 137.155 162.057 137.548 162.568C137.941 163.08 138.184 163.676 138.279 164.358H136.603C136.475 163.861 136.191 163.42 135.751 163.037C135.315 162.649 134.728 162.455 133.989 162.455C133.336 162.455 132.763 162.625 132.271 162.966C131.783 163.302 131.402 163.778 131.127 164.393C130.857 165.004 130.722 165.722 130.722 166.545C130.722 167.388 130.855 168.122 131.12 168.747C131.39 169.372 131.769 169.857 132.256 170.203C132.749 170.549 133.326 170.722 133.989 170.722C134.425 170.722 134.82 170.646 135.175 170.494C135.531 170.343 135.831 170.125 136.077 169.841C136.324 169.557 136.499 169.216 136.603 168.818H138.279C138.184 169.462 137.95 170.042 137.576 170.558C137.207 171.07 136.717 171.477 136.106 171.78C135.5 172.078 134.794 172.227 133.989 172.227ZM139.87 162.653V161.091H148.734V162.653H145.154V172H143.478V162.653H139.87ZM153.822 172.256C153.131 172.256 152.504 172.125 151.94 171.865C151.377 171.6 150.929 171.219 150.598 170.722C150.267 170.22 150.101 169.614 150.101 168.903C150.101 168.278 150.224 167.772 150.47 167.384C150.716 166.991 151.045 166.683 151.457 166.46C151.869 166.238 152.324 166.072 152.821 165.963C153.323 165.849 153.827 165.759 154.334 165.693C154.997 165.608 155.534 165.544 155.946 165.501C156.363 165.454 156.666 165.376 156.855 165.267C157.049 165.158 157.146 164.969 157.146 164.699V164.642C157.146 163.941 156.955 163.397 156.571 163.009C156.192 162.62 155.617 162.426 154.845 162.426C154.045 162.426 153.418 162.601 152.963 162.952C152.509 163.302 152.189 163.676 152.004 164.074L150.413 163.506C150.697 162.843 151.076 162.327 151.55 161.957C152.028 161.583 152.549 161.323 153.112 161.176C153.68 161.025 154.239 160.949 154.788 160.949C155.139 160.949 155.541 160.991 155.996 161.077C156.455 161.157 156.898 161.325 157.324 161.581C157.755 161.837 158.112 162.223 158.396 162.739C158.68 163.255 158.822 163.946 158.822 164.812V172H157.146V170.523H157.061C156.947 170.759 156.758 171.013 156.493 171.283C156.228 171.553 155.875 171.782 155.435 171.972C154.994 172.161 154.457 172.256 153.822 172.256ZM154.078 170.75C154.741 170.75 155.3 170.62 155.754 170.359C156.214 170.099 156.559 169.763 156.791 169.351C157.028 168.939 157.146 168.506 157.146 168.051V166.517C157.075 166.602 156.919 166.68 156.678 166.751C156.441 166.818 156.166 166.877 155.854 166.929C155.546 166.976 155.245 167.019 154.952 167.057C154.663 167.09 154.429 167.118 154.249 167.142C153.813 167.199 153.406 167.291 153.027 167.419C152.653 167.542 152.35 167.729 152.118 167.98C151.891 168.226 151.777 168.562 151.777 168.989C151.777 169.571 151.992 170.011 152.423 170.31C152.859 170.603 153.411 170.75 154.078 170.75ZM160.397 162.653V161.091H169.261V162.653H165.681V172H164.005V162.653H160.397ZM173.155 165.04H176.28C177.558 165.04 178.536 165.364 179.213 166.013C179.89 166.661 180.229 167.483 180.229 168.477C180.229 169.131 180.077 169.725 179.774 170.26C179.471 170.79 179.026 171.214 178.439 171.531C177.852 171.844 177.132 172 176.28 172H171.706V161.091H173.382V170.438H176.28C176.943 170.438 177.487 170.262 177.913 169.912C178.339 169.562 178.553 169.112 178.553 168.562C178.553 167.985 178.339 167.514 177.913 167.149C177.487 166.785 176.943 166.602 176.28 166.602H173.155V165.04ZM189.343 172V162.625H186.445C185.792 162.625 185.278 162.777 184.904 163.08C184.53 163.383 184.343 163.799 184.343 164.33C184.343 164.85 184.511 165.26 184.847 165.558C185.188 165.857 185.654 166.006 186.246 166.006H189.769V167.568H186.246C185.507 167.568 184.871 167.438 184.336 167.178C183.801 166.917 183.389 166.545 183.1 166.062C182.811 165.575 182.667 164.997 182.667 164.33C182.667 163.657 182.818 163.08 183.121 162.597C183.424 162.114 183.857 161.742 184.421 161.482C184.989 161.221 185.664 161.091 186.445 161.091H190.934V172H189.343ZM182.07 172L185.167 166.574H186.985L183.888 172H182.07ZM199.977 169.727L203.783 161.091H205.374L200.658 172H199.295L194.664 161.091H196.227L199.977 169.727ZM195.687 161.091V172H194.011V161.091H195.687ZM204.266 172V161.091H205.942V172H204.266ZM214.011 162.653V161.091H222.874V162.653H219.295V172H217.619V162.653H214.011ZM229.185 172.227C228.2 172.227 227.336 171.993 226.592 171.524C225.854 171.055 225.276 170.4 224.859 169.557C224.447 168.714 224.241 167.729 224.241 166.602C224.241 165.466 224.447 164.474 224.859 163.626C225.276 162.779 225.854 162.121 226.592 161.652C227.336 161.183 228.2 160.949 229.185 160.949C230.17 160.949 231.031 161.183 231.77 161.652C232.513 162.121 233.091 162.779 233.503 163.626C233.92 164.474 234.128 165.466 234.128 166.602C234.128 167.729 233.92 168.714 233.503 169.557C233.091 170.4 232.513 171.055 231.77 171.524C231.031 171.993 230.17 172.227 229.185 172.227ZM229.185 170.722C229.933 170.722 230.548 170.53 231.031 170.146C231.514 169.763 231.872 169.259 232.104 168.634C232.336 168.009 232.452 167.331 232.452 166.602C232.452 165.873 232.336 165.194 232.104 164.564C231.872 163.934 231.514 163.425 231.031 163.037C230.548 162.649 229.933 162.455 229.185 162.455C228.437 162.455 227.821 162.649 227.338 163.037C226.855 163.425 226.498 163.934 226.266 164.564C226.034 165.194 225.918 165.873 225.918 166.602C225.918 167.331 226.034 168.009 226.266 168.634C226.498 169.259 226.855 169.763 227.338 170.146C227.821 170.53 228.437 170.722 229.185 170.722ZM243.419 161.091V162.653H238.363V172H236.686V161.091H243.419ZM243.783 175.125V170.438H244.692C244.915 170.205 245.107 169.955 245.268 169.685C245.429 169.415 245.568 169.095 245.687 168.726C245.81 168.352 245.914 167.897 245.999 167.362C246.085 166.822 246.16 166.171 246.227 165.409L246.596 161.091H253.528V170.438H255.204V175.125H253.528V172H245.46V175.125H243.783ZM246.596 170.438H251.852V162.653H248.158L247.874 165.409C247.756 166.55 247.609 167.547 247.434 168.399C247.259 169.251 246.979 169.931 246.596 170.438ZM260.639 172.256C259.948 172.256 259.32 172.125 258.757 171.865C258.193 171.6 257.746 171.219 257.414 170.722C257.083 170.22 256.917 169.614 256.917 168.903C256.917 168.278 257.04 167.772 257.287 167.384C257.533 166.991 257.862 166.683 258.274 166.46C258.686 166.238 259.14 166.072 259.637 165.963C260.139 165.849 260.644 165.759 261.15 165.693C261.813 165.608 262.35 165.544 262.762 165.501C263.179 165.454 263.482 165.376 263.672 165.267C263.866 165.158 263.963 164.969 263.963 164.699V164.642C263.963 163.941 263.771 163.397 263.387 163.009C263.009 162.62 262.433 162.426 261.662 162.426C260.861 162.426 260.234 162.601 259.779 162.952C259.325 163.302 259.005 163.676 258.821 164.074L257.23 163.506C257.514 162.843 257.893 162.327 258.366 161.957C258.844 161.583 259.365 161.323 259.929 161.176C260.497 161.025 261.056 160.949 261.605 160.949C261.955 160.949 262.358 160.991 262.812 161.077C263.271 161.157 263.714 161.325 264.14 161.581C264.571 161.837 264.929 162.223 265.213 162.739C265.497 163.255 265.639 163.946 265.639 164.812V172H263.963V170.523H263.877C263.764 170.759 263.574 171.013 263.309 171.283C263.044 171.553 262.691 171.782 262.251 171.972C261.811 172.161 261.273 172.256 260.639 172.256ZM260.895 170.75C261.557 170.75 262.116 170.62 262.571 170.359C263.03 170.099 263.376 169.763 263.608 169.351C263.844 168.939 263.963 168.506 263.963 168.051V166.517C263.892 166.602 263.735 166.68 263.494 166.751C263.257 166.818 262.983 166.877 262.67 166.929C262.362 166.976 262.062 167.019 261.768 167.057C261.479 167.09 261.245 167.118 261.065 167.142C260.629 167.199 260.222 167.291 259.843 167.419C259.469 167.542 259.166 167.729 258.934 167.98C258.707 168.226 258.593 168.562 258.593 168.989C258.593 169.571 258.809 170.011 259.24 170.31C259.675 170.603 260.227 170.75 260.895 170.75Z" fill="black"/>
</svg>
