<svg width="582" height="186" viewBox="0 0 582 186" fill="none" xmlns="http://www.w3.org/2000/svg">
<path opacity="0.9" d="M147 21.5C147 9.62588 156.626 0 168.5 0H541.333C548.835 0 552.586 0 555.628 0.965207C562.01 2.99048 567.01 7.99042 569.035 14.3724C570 17.4139 570 21.1648 570 28.6667C570 32.4176 570 34.2931 569.517 35.8138C568.505 39.0048 566.005 41.5048 562.814 42.5174C561.293 43 559.418 43 555.667 43H168.5C156.626 43 147 33.3741 147 21.5Z" fill="#D4C5FF"/>
<path d="M180.869 18.6855H179.039C178.931 18.1592 178.741 17.6969 178.471 17.2984C178.205 16.9 177.881 16.5656 177.497 16.295C177.118 16.0196 176.698 15.813 176.235 15.6753C175.773 15.5376 175.291 15.4687 174.789 15.4687C173.874 15.4687 173.046 15.6999 172.303 16.1622C171.565 16.6246 170.977 17.3058 170.54 18.2059C170.107 19.1061 169.89 20.2103 169.89 21.5187C169.89 22.827 170.107 23.9313 170.54 24.8314C170.977 25.7315 171.565 26.4127 172.303 26.8751C173.046 27.3374 173.874 27.5686 174.789 27.5686C175.291 27.5686 175.773 27.4998 176.235 27.362C176.698 27.2243 177.118 27.0202 177.497 26.7497C177.881 26.4742 178.205 26.1373 178.471 25.7389C178.741 25.3355 178.931 24.8732 179.039 24.3518H180.869C180.731 25.124 180.48 25.8151 180.116 26.425C179.752 27.0349 179.3 27.5539 178.759 27.9818C178.218 28.4048 177.61 28.727 176.936 28.9483C176.267 29.1696 175.552 29.2803 174.789 29.2803C173.501 29.2803 172.355 28.9655 171.351 28.3359C170.348 27.7063 169.558 26.8111 168.983 25.6503C168.407 24.4895 168.12 23.1123 168.12 21.5187C168.12 19.925 168.407 18.5478 168.983 17.387C169.558 16.2262 170.348 15.331 171.351 14.7014C172.355 14.0718 173.501 13.757 174.789 13.757C175.552 13.757 176.267 13.8677 176.936 14.089C177.61 14.3104 178.218 14.635 178.759 15.0629C179.3 15.4859 179.752 16.0024 180.116 16.6123C180.48 17.2173 180.731 17.9084 180.869 18.6855ZM188.341 29.3098C187.249 29.3098 186.307 29.0688 185.515 28.5868C184.728 28.0998 184.121 27.4211 183.693 26.5505C183.27 25.6749 183.058 24.6568 183.058 23.496C183.058 22.3352 183.27 21.3121 183.693 20.4267C184.121 19.5364 184.716 18.8429 185.478 18.3461C186.245 17.8444 187.141 17.5936 188.164 17.5936C188.754 17.5936 189.337 17.6919 189.912 17.8887C190.488 18.0854 191.012 18.4051 191.484 18.8478C191.956 19.2856 192.332 19.866 192.613 20.589C192.893 21.3121 193.033 22.2024 193.033 23.2599V23.9977H184.298V22.4926H191.262C191.262 21.8531 191.135 21.2826 190.879 20.7809C190.628 20.2792 190.269 19.8832 189.802 19.593C189.339 19.3028 188.793 19.1577 188.164 19.1577C187.47 19.1577 186.87 19.3299 186.363 19.6742C185.862 20.0135 185.476 20.4562 185.205 21.0022C184.935 21.5482 184.799 22.1335 184.799 22.7582V23.7616C184.799 24.6174 184.947 25.3429 185.242 25.9381C185.542 26.5283 185.958 26.9784 186.489 27.2883C187.02 27.5932 187.637 27.7457 188.341 27.7457C188.798 27.7457 189.211 27.6817 189.58 27.5539C189.954 27.4211 190.276 27.2243 190.547 26.9636C190.817 26.698 191.026 26.3685 191.174 25.975L192.856 26.4472C192.679 27.0177 192.381 27.5194 191.963 27.9523C191.545 28.3802 191.029 28.7147 190.414 28.9557C189.799 29.1918 189.108 29.3098 188.341 29.3098ZM195.682 33.3235V17.7411H197.364V19.5414H197.571C197.699 19.3446 197.876 19.0938 198.102 18.7888C198.333 18.4789 198.663 18.2035 199.091 17.9625C199.523 17.7165 200.109 17.5936 200.846 17.5936C201.801 17.5936 202.642 17.8321 203.37 18.3092C204.098 18.7863 204.666 19.4627 205.074 20.3382C205.482 21.2137 205.686 22.2466 205.686 23.4369C205.686 24.6371 205.482 25.6774 205.074 26.5578C204.666 27.4334 204.1 28.1121 203.377 28.5942C202.654 29.0713 201.82 29.3098 200.876 29.3098C200.148 29.3098 199.565 29.1893 199.127 28.9483C198.69 28.7024 198.353 28.4245 198.117 28.1146C197.881 27.7998 197.699 27.5391 197.571 27.3325H197.423V33.3235H195.682ZM197.394 23.4074C197.394 24.2633 197.519 25.0183 197.77 25.6725C198.021 26.3217 198.387 26.8308 198.869 27.1997C199.351 27.5637 199.941 27.7457 200.64 27.7457C201.368 27.7457 201.975 27.5539 202.462 27.1702C202.954 26.7816 203.323 26.2603 203.569 25.6061C203.82 24.947 203.945 24.2141 203.945 23.4074C203.945 22.6106 203.822 21.8925 203.576 21.2531C203.335 20.6087 202.969 20.0996 202.477 19.7258C201.99 19.3471 201.378 19.1577 200.64 19.1577C199.932 19.1577 199.336 19.3372 198.854 19.6963C198.372 20.0504 198.008 20.5472 197.762 21.1867C197.517 21.8212 197.394 22.5614 197.394 23.4074ZM208.343 29.0737V17.7411H212.976C214.196 17.7411 215.165 18.0166 215.883 18.5675C216.601 19.1184 216.96 19.8463 216.96 20.7513C216.96 21.44 216.756 21.9736 216.348 22.3524C215.939 22.7262 215.416 22.9795 214.776 23.1123C215.194 23.1713 215.6 23.3189 215.994 23.555C216.392 23.7911 216.721 24.1157 216.982 24.5289C217.243 24.9371 217.373 25.4388 217.373 26.034C217.373 26.6144 217.226 27.1333 216.931 27.5908C216.635 28.0482 216.212 28.4097 215.662 28.6753C215.111 28.9409 214.452 29.0737 213.684 29.0737H208.343ZM209.995 27.4801H213.684C214.284 27.4801 214.754 27.3374 215.093 27.0522C215.433 26.7669 215.602 26.3783 215.602 25.8864C215.602 25.3011 215.433 24.8412 215.093 24.5067C214.754 24.1674 214.284 23.9977 213.684 23.9977H209.995V27.4801ZM209.995 22.4926H212.976C213.443 22.4926 213.844 22.4286 214.179 22.3007C214.513 22.1679 214.769 21.981 214.946 21.74C215.128 21.4941 215.219 21.2039 215.219 20.8694C215.219 20.3923 215.02 20.0185 214.621 19.7479C214.223 19.4725 213.674 19.3348 212.976 19.3348H209.995V22.4926ZM224.76 29.3098C223.668 29.3098 222.727 29.0688 221.935 28.5868C221.148 28.0998 220.54 27.4211 220.112 26.5505C219.689 25.6749 219.478 24.6568 219.478 23.496C219.478 22.3352 219.689 21.3121 220.112 20.4267C220.54 19.5364 221.135 18.8429 221.898 18.3461C222.665 17.8444 223.56 17.5936 224.583 17.5936C225.174 17.5936 225.756 17.6919 226.332 17.8887C226.907 18.0854 227.431 18.4051 227.903 18.8478C228.376 19.2856 228.752 19.866 229.032 20.589C229.313 21.3121 229.453 22.2024 229.453 23.2599V23.9977H220.717V22.4926H227.682C227.682 21.8531 227.554 21.2826 227.298 20.7809C227.048 20.2792 226.689 19.8832 226.221 19.593C225.759 19.3028 225.213 19.1577 224.583 19.1577C223.89 19.1577 223.29 19.3299 222.783 19.6742C222.281 20.0135 221.895 20.4562 221.625 21.0022C221.354 21.5482 221.219 22.1335 221.219 22.7582V23.7616C221.219 24.6174 221.367 25.3429 221.662 25.9381C221.962 26.5283 222.377 26.9784 222.909 27.2883C223.44 27.5932 224.057 27.7457 224.76 27.7457C225.218 27.7457 225.631 27.6817 226 27.5539C226.374 27.4211 226.696 27.2243 226.966 26.9636C227.237 26.698 227.446 26.3685 227.594 25.975L229.276 26.4472C229.099 27.0177 228.801 27.5194 228.383 27.9523C227.965 28.3802 227.448 28.7147 226.834 28.9557C226.219 29.1918 225.528 29.3098 224.76 29.3098ZM232.102 33.3235V17.7411H233.784V19.5414H233.99C234.118 19.3446 234.295 19.0938 234.522 18.7888C234.753 18.4789 235.082 18.2035 235.51 17.9625C235.943 17.7165 236.528 17.5936 237.266 17.5936C238.22 17.5936 239.061 17.8321 239.789 18.3092C240.517 18.7863 241.085 19.4627 241.494 20.3382C241.902 21.2137 242.106 22.2466 242.106 23.4369C242.106 24.6371 241.902 25.6774 241.494 26.5578C241.085 27.4334 240.52 28.1121 239.797 28.5942C239.074 29.0713 238.24 29.3098 237.296 29.3098C236.568 29.3098 235.985 29.1893 235.547 28.9483C235.109 28.7024 234.772 28.4245 234.536 28.1146C234.3 27.7998 234.118 27.5391 233.99 27.3325H233.843V33.3235H232.102ZM233.813 23.4074C233.813 24.2633 233.939 25.0183 234.19 25.6725C234.44 26.3217 234.807 26.8308 235.289 27.1997C235.771 27.5637 236.361 27.7457 237.06 27.7457C237.788 27.7457 238.395 27.5539 238.882 27.1702C239.374 26.7816 239.743 26.2603 239.989 25.6061C240.239 24.947 240.365 24.2141 240.365 23.4074C240.365 22.6106 240.242 21.8925 239.996 21.2531C239.755 20.6087 239.389 20.0996 238.897 19.7258C238.41 19.3471 237.797 19.1577 237.06 19.1577C236.351 19.1577 235.756 19.3372 235.274 19.6963C234.792 20.0504 234.428 20.5472 234.182 21.1867C233.936 21.8212 233.813 22.5614 233.813 23.4074ZM255.209 29.3098C254.147 29.3098 253.232 29.059 252.465 28.5573C251.698 28.0556 251.107 27.3645 250.694 26.4841C250.281 25.6036 250.074 24.5977 250.074 23.4665C250.074 22.3155 250.286 21.2998 250.709 20.4193C251.137 19.534 251.732 18.8429 252.494 18.3461C253.262 17.8444 254.157 17.5936 255.18 17.5936C255.977 17.5936 256.695 17.7411 257.334 18.0362C257.974 18.3314 258.498 18.7445 258.906 19.2757C259.314 19.807 259.567 20.4267 259.666 21.135H257.925C257.792 20.6185 257.497 20.1611 257.039 19.7627C256.587 19.3594 255.977 19.1577 255.209 19.1577C254.531 19.1577 253.935 19.3348 253.424 19.6889C252.917 20.0381 252.521 20.5325 252.236 21.1719C251.956 21.8064 251.816 22.5516 251.816 23.4074C251.816 24.283 251.953 25.0453 252.229 25.6946C252.509 26.3439 252.903 26.848 253.409 27.2071C253.921 27.5662 254.521 27.7457 255.209 27.7457C255.662 27.7457 256.073 27.667 256.442 27.5096C256.81 27.3522 257.123 27.1259 257.379 26.8308C257.634 26.5357 257.816 26.1816 257.925 25.7684H259.666C259.567 26.4373 259.324 27.0399 258.935 27.576C258.552 28.1072 258.043 28.5302 257.408 28.845C256.778 29.1549 256.046 29.3098 255.209 29.3098ZM266.963 29.3098C265.871 29.3098 264.929 29.0688 264.137 28.5868C263.35 28.0998 262.742 27.4211 262.314 26.5505C261.891 25.6749 261.68 24.6568 261.68 23.496C261.68 22.3352 261.891 21.3121 262.314 20.4267C262.742 19.5364 263.338 18.8429 264.1 18.3461C264.867 17.8444 265.762 17.5936 266.786 17.5936C267.376 17.5936 267.959 17.6919 268.534 17.8887C269.11 18.0854 269.633 18.4051 270.106 18.8478C270.578 19.2856 270.954 19.866 271.234 20.589C271.515 21.3121 271.655 22.2024 271.655 23.2599V23.9977H262.919V22.4926H269.884C269.884 21.8531 269.756 21.2826 269.501 20.7809C269.25 20.2792 268.891 19.8832 268.423 19.593C267.961 19.3028 267.415 19.1577 266.786 19.1577C266.092 19.1577 265.492 19.3299 264.985 19.6742C264.484 20.0135 264.097 20.4562 263.827 21.0022C263.556 21.5482 263.421 22.1335 263.421 22.7582V23.7616C263.421 24.6174 263.569 25.3429 263.864 25.9381C264.164 26.5283 264.579 26.9784 265.111 27.2883C265.642 27.5932 266.259 27.7457 266.963 27.7457C267.42 27.7457 267.833 27.6817 268.202 27.5539C268.576 27.4211 268.898 27.2243 269.169 26.9636C269.439 26.698 269.648 26.3685 269.796 25.975L271.478 26.4472C271.301 27.0177 271.003 27.5194 270.585 27.9523C270.167 28.3802 269.651 28.7147 269.036 28.9557C268.421 29.1918 267.73 29.3098 266.963 29.3098ZM281.298 17.7411V19.3643H276.045V29.0737H274.304V17.7411H281.298ZM287.855 29.3098C286.832 29.3098 285.934 29.0664 285.162 28.5794C284.395 28.0925 283.795 27.4112 283.362 26.5357C282.934 25.6602 282.72 24.6371 282.72 23.4665C282.72 22.286 282.934 21.2555 283.362 20.3751C283.795 19.4946 284.395 18.8109 285.162 18.324C285.934 17.837 286.832 17.5936 287.855 17.5936C288.878 17.5936 289.773 17.837 290.541 18.324C291.313 18.8109 291.913 19.4946 292.341 20.3751C292.774 21.2555 292.99 22.286 292.99 23.4665C292.99 24.6371 292.774 25.6602 292.341 26.5357C291.913 27.4112 291.313 28.0925 290.541 28.5794C289.773 29.0664 288.878 29.3098 287.855 29.3098ZM287.855 27.7457C288.632 27.7457 289.272 27.5465 289.773 27.1481C290.275 26.7497 290.647 26.2258 290.888 25.5766C291.129 24.9273 291.249 24.2239 291.249 23.4665C291.249 22.709 291.129 22.0031 290.888 21.349C290.647 20.6948 290.275 20.166 289.773 19.7627C289.272 19.3594 288.632 19.1577 287.855 19.1577C287.078 19.1577 286.439 19.3594 285.937 19.7627C285.435 20.166 285.064 20.6948 284.823 21.349C284.582 22.0031 284.461 22.709 284.461 23.4665C284.461 24.2239 284.582 24.9273 284.823 25.5766C285.064 26.2258 285.435 26.7497 285.937 27.1481C286.439 27.5465 287.078 27.7457 287.855 27.7457ZM294.438 32.32V27.4506H295.383C295.614 27.2096 295.813 26.9489 295.98 26.6685C296.147 26.3881 296.293 26.0561 296.416 25.6725C296.543 25.2839 296.652 24.8117 296.74 24.2559C296.829 23.6952 296.907 23.0189 296.976 22.2269L297.36 17.7411H304.561V27.4506H306.302V32.32H304.561V29.0737H296.179V32.32H294.438ZM297.36 27.4506H302.82V19.3643H298.983L298.688 22.2269C298.565 23.4123 298.413 24.4477 298.231 25.3331C298.049 26.2184 297.758 26.9243 297.36 27.4506ZM316.198 22.6106V24.2338H309.941V22.6106H316.198ZM310.354 17.7411V29.0737H308.613V17.7411H310.354ZM317.526 17.7411V29.0737H315.785V17.7411H317.526ZM327.523 29.0737V19.3348H324.513C323.834 19.3348 323.3 19.4922 322.912 19.807C322.523 20.1218 322.329 20.5546 322.329 21.1055C322.329 21.6465 322.504 22.072 322.853 22.3819C323.207 22.6918 323.691 22.8467 324.306 22.8467H327.966V24.4699H324.306C323.539 24.4699 322.877 24.3346 322.322 24.0641C321.766 23.7935 321.338 23.4074 321.038 22.9057C320.738 22.3991 320.588 21.799 320.588 21.1055C320.588 20.407 320.745 19.807 321.06 19.3053C321.375 18.8036 321.825 18.4174 322.41 18.1469C323 17.8764 323.701 17.7411 324.513 17.7411H329.176V29.0737H327.523ZM319.968 29.0737L323.185 23.4369H325.074L321.857 29.0737H319.968ZM338.216 29.0737V17.7411H342.849C344.069 17.7411 345.038 18.0166 345.756 18.5675C346.474 19.1184 346.833 19.8463 346.833 20.7513C346.833 21.44 346.629 21.9736 346.221 22.3524C345.812 22.7262 345.289 22.9795 344.649 23.1123C345.067 23.1713 345.473 23.3189 345.867 23.555C346.265 23.7911 346.595 24.1157 346.855 24.5289C347.116 24.9371 347.246 25.4388 347.246 26.034C347.246 26.6144 347.099 27.1333 346.804 27.5908C346.508 28.0482 346.085 28.4097 345.535 28.6753C344.984 28.9409 344.325 29.0737 343.557 29.0737H338.216ZM339.868 27.4801H343.557C344.157 27.4801 344.627 27.3374 344.966 27.0522C345.306 26.7669 345.476 26.3783 345.476 25.8864C345.476 25.3011 345.306 24.8412 344.966 24.5067C344.627 24.1674 344.157 23.9977 343.557 23.9977H339.868V27.4801ZM339.868 22.4926H342.849C343.316 22.4926 343.717 22.4286 344.052 22.3007C344.386 22.1679 344.642 21.981 344.819 21.74C345.001 21.4941 345.092 21.2039 345.092 20.8694C345.092 20.3923 344.893 20.0185 344.494 19.7479C344.096 19.4725 343.547 19.3348 342.849 19.3348H339.868V22.4926ZM355.725 33.3235V17.7411H357.408V19.5414H357.614C357.742 19.3446 357.919 19.0938 358.145 18.7888C358.377 18.4789 358.706 18.2035 359.134 17.9625C359.567 17.7165 360.152 17.5936 360.89 17.5936C361.844 17.5936 362.685 17.8321 363.413 18.3092C364.141 18.7863 364.709 19.4627 365.118 20.3382C365.526 21.2137 365.73 22.2466 365.73 23.4369C365.73 24.6371 365.526 25.6774 365.118 26.5578C364.709 27.4334 364.144 28.1121 363.421 28.5942C362.698 29.0713 361.864 29.3098 360.92 29.3098C360.192 29.3098 359.609 29.1893 359.171 28.9483C358.733 28.7024 358.396 28.4245 358.16 28.1146C357.924 27.7998 357.742 27.5391 357.614 27.3325H357.467V33.3235H355.725ZM357.437 23.4074C357.437 24.2633 357.563 25.0183 357.813 25.6725C358.064 26.3217 358.431 26.8308 358.913 27.1997C359.395 27.5637 359.985 27.7457 360.683 27.7457C361.411 27.7457 362.019 27.5539 362.506 27.1702C362.998 26.7816 363.367 26.2603 363.613 25.6061C363.863 24.947 363.989 24.2141 363.989 23.4074C363.989 22.6106 363.866 21.8925 363.62 21.2531C363.379 20.6087 363.012 20.0996 362.521 19.7258C362.034 19.3471 361.421 19.1577 360.683 19.1577C359.975 19.1577 359.38 19.3372 358.898 19.6963C358.416 20.0504 358.052 20.5472 357.806 21.1867C357.56 21.8212 357.437 22.5614 357.437 23.4074ZM372.99 29.3098C371.967 29.3098 371.069 29.0664 370.297 28.5794C369.53 28.0925 368.93 27.4112 368.497 26.5357C368.069 25.6602 367.855 24.6371 367.855 23.4665C367.855 22.286 368.069 21.2555 368.497 20.3751C368.93 19.4946 369.53 18.8109 370.297 18.324C371.069 17.837 371.967 17.5936 372.99 17.5936C374.013 17.5936 374.908 17.837 375.676 18.324C376.448 18.8109 377.048 19.4946 377.476 20.3751C377.909 21.2555 378.125 22.286 378.125 23.4665C378.125 24.6371 377.909 25.6602 377.476 26.5357C377.048 27.4112 376.448 28.0925 375.676 28.5794C374.908 29.0664 374.013 29.3098 372.99 29.3098ZM372.99 27.7457C373.767 27.7457 374.407 27.5465 374.908 27.1481C375.41 26.7497 375.781 26.2258 376.022 25.5766C376.263 24.9273 376.384 24.2239 376.384 23.4665C376.384 22.709 376.263 22.0031 376.022 21.349C375.781 20.6948 375.41 20.166 374.908 19.7627C374.407 19.3594 373.767 19.1577 372.99 19.1577C372.213 19.1577 371.573 19.3594 371.072 19.7627C370.57 20.166 370.199 20.6948 369.958 21.349C369.717 22.0031 369.596 22.709 369.596 23.4665C369.596 24.2239 369.717 24.9273 369.958 25.5766C370.199 26.2258 370.57 26.7497 371.072 27.1481C371.573 27.5465 372.213 27.7457 372.99 27.7457ZM379.78 29.0737V27.4506H380.193C380.532 27.4506 380.815 27.3842 381.041 27.2514C381.267 27.1136 381.449 26.8751 381.587 26.5357C381.73 26.1914 381.838 25.7143 381.912 25.1044C381.99 24.4895 382.047 23.7075 382.081 22.7582L382.288 17.7411H389.843V29.0737H388.102V19.3643H383.941L383.764 23.4074C383.724 24.3371 383.641 25.156 383.513 25.8643C383.39 26.5677 383.2 27.1579 382.945 27.635C382.694 28.1121 382.359 28.4712 381.941 28.7122C381.523 28.9532 380.999 29.0737 380.37 29.0737H379.78ZM394.779 26.5062L400.239 17.7411H402.246V29.0737H400.504V20.3087L395.074 29.0737H393.038V17.7411H394.779V26.5062ZM420.014 17.7411V29.0737H418.272V17.7411H420.014ZM419.335 23.1418V24.765C418.941 24.9125 418.55 25.0429 418.162 25.156C417.773 25.2642 417.365 25.3503 416.937 25.4142C416.509 25.4733 416.039 25.5028 415.528 25.5028C414.244 25.5028 413.214 25.156 412.436 24.4625C411.664 23.7689 411.278 22.7287 411.278 21.3416V17.7116H413.019V21.3416C413.019 21.922 413.13 22.3991 413.351 22.7729C413.573 23.1467 413.873 23.4246 414.251 23.6066C414.63 23.7886 415.056 23.8796 415.528 23.8796C416.266 23.8796 416.932 23.8132 417.527 23.6804C418.127 23.5427 418.73 23.3632 419.335 23.1418ZM426.543 29.3393C425.825 29.3393 425.173 29.2041 424.588 28.9335C424.003 28.6581 423.538 28.2622 423.194 27.7457C422.849 27.2243 422.677 26.5947 422.677 25.8569C422.677 25.2077 422.805 24.6814 423.061 24.278C423.316 23.8698 423.658 23.5501 424.086 23.3189C424.514 23.0877 424.986 22.9156 425.503 22.8024C426.024 22.6844 426.548 22.5909 427.074 22.5221C427.763 22.4335 428.321 22.3671 428.749 22.3229C429.182 22.2737 429.497 22.1925 429.694 22.0794C429.895 21.9663 429.996 21.7695 429.996 21.4891V21.4301C429.996 20.7022 429.797 20.1365 429.398 19.7332C429.005 19.3299 428.407 19.1282 427.606 19.1282C426.774 19.1282 426.123 19.3102 425.65 19.6742C425.178 20.0381 424.846 20.4267 424.654 20.8399L423.002 20.2496C423.297 19.561 423.69 19.0249 424.182 18.6412C424.679 18.2527 425.22 17.9821 425.805 17.8297C426.396 17.6723 426.976 17.5936 427.547 17.5936C427.911 17.5936 428.329 17.6378 428.801 17.7264C429.278 17.81 429.738 17.9846 430.18 18.2502C430.628 18.5158 430.999 18.9167 431.295 19.4528C431.59 19.989 431.737 20.7071 431.737 21.6072V29.0737H429.996V27.5391H429.908C429.789 27.785 429.593 28.0482 429.317 28.3286C429.042 28.6089 428.675 28.8475 428.218 29.0442C427.761 29.241 427.202 29.3393 426.543 29.3393ZM426.809 27.7752C427.497 27.7752 428.078 27.6399 428.55 27.3694C429.027 27.0989 429.386 26.7497 429.627 26.3217C429.873 25.8938 429.996 25.4438 429.996 24.9716V23.3779C429.922 23.4665 429.76 23.5476 429.509 23.6214C429.263 23.6903 428.978 23.7517 428.653 23.8058C428.334 23.855 428.021 23.8993 427.716 23.9386C427.416 23.9731 427.173 24.0026 426.986 24.0272C426.533 24.0862 426.11 24.1821 425.717 24.3149C425.328 24.4428 425.013 24.6371 424.772 24.8978C424.536 25.1536 424.418 25.5028 424.418 25.9455C424.418 26.5505 424.642 27.0079 425.09 27.3178C425.542 27.6227 426.115 27.7752 426.809 27.7752ZM436.657 26.5062L442.116 17.7411H444.123V29.0737H442.382V20.3087L436.952 29.0737H434.915V17.7411H436.657V26.5062ZM440.965 13.9636H442.588C442.588 14.7604 442.313 15.4121 441.762 15.9188C441.211 16.4254 440.464 16.6787 439.519 16.6787C438.59 16.6787 437.849 16.4254 437.298 15.9188C436.752 15.4121 436.479 14.7604 436.479 13.9636H438.103C438.103 14.3472 438.208 14.6842 438.42 14.9744C438.636 15.2646 439.003 15.4097 439.519 15.4097C440.036 15.4097 440.405 15.2646 440.626 14.9744C440.852 14.6842 440.965 14.3472 440.965 13.9636ZM454.897 22.6106V24.2338H448.64V22.6106H454.897ZM449.053 17.7411V29.0737H447.312V17.7411H449.053ZM456.225 17.7411V29.0737H454.484V17.7411H456.225ZM461.146 26.5062L466.606 17.7411H468.612V29.0737H466.871V20.3087L461.441 29.0737H459.405V17.7411H461.146V26.5062ZM471.802 29.0737V17.7411H473.543V22.6696H474.694L478.766 17.7411H481.009L476.435 23.2008L481.068 29.0737H478.825L475.107 24.2928H473.543V29.0737H471.802ZM486.296 29.3393C485.578 29.3393 484.926 29.2041 484.341 28.9335C483.755 28.6581 483.29 28.2622 482.946 27.7457C482.602 27.2243 482.43 26.5947 482.43 25.8569C482.43 25.2077 482.558 24.6814 482.813 24.278C483.069 23.8698 483.411 23.5501 483.839 23.3189C484.267 23.0877 484.739 22.9156 485.255 22.8024C485.777 22.6844 486.301 22.5909 486.827 22.5221C487.516 22.4335 488.074 22.3671 488.502 22.3229C488.935 22.2737 489.249 22.1925 489.446 22.0794C489.648 21.9663 489.749 21.7695 489.749 21.4891V21.4301C489.749 20.7022 489.549 20.1365 489.151 19.7332C488.757 19.3299 488.16 19.1282 487.358 19.1282C486.527 19.1282 485.875 19.3102 485.403 19.6742C484.931 20.0381 484.599 20.4267 484.407 20.8399L482.754 20.2496C483.049 19.561 483.443 19.0249 483.935 18.6412C484.432 18.2527 484.973 17.9821 485.558 17.8297C486.148 17.6723 486.729 17.5936 487.299 17.5936C487.663 17.5936 488.081 17.6378 488.553 17.7264C489.03 17.81 489.49 17.9846 489.933 18.2502C490.381 18.5158 490.752 18.9167 491.047 19.4528C491.342 19.989 491.49 20.7071 491.49 21.6072V29.0737H489.749V27.5391H489.66C489.542 27.785 489.345 28.0482 489.07 28.3286C488.794 28.6089 488.428 28.8475 487.97 29.0442C487.513 29.241 486.955 29.3393 486.296 29.3393ZM486.561 27.7752C487.25 27.7752 487.83 27.6399 488.303 27.3694C488.78 27.0989 489.139 26.7497 489.38 26.3217C489.626 25.8938 489.749 25.4438 489.749 24.9716V23.3779C489.675 23.4665 489.512 23.5476 489.262 23.6214C489.016 23.6903 488.73 23.7517 488.406 23.8058C488.086 23.855 487.774 23.8993 487.469 23.9386C487.169 23.9731 486.925 24.0026 486.738 24.0272C486.286 24.0862 485.863 24.1821 485.469 24.3149C485.081 24.4428 484.766 24.6371 484.525 24.8978C484.289 25.1536 484.171 25.5028 484.171 25.9455C484.171 26.5505 484.395 27.0079 484.842 27.3178C485.295 27.6227 485.868 27.7752 486.561 27.7752Z" fill="black"/>
<path d="M507.029 32.3808C506.297 32.3808 505.673 32.1814 505.157 31.7827C504.642 31.3807 504.248 30.7987 503.975 30.0369C503.703 29.2718 503.567 28.3478 503.567 27.265C503.567 26.1887 503.703 25.2696 503.975 24.5078C504.251 23.7427 504.647 23.1591 505.162 22.7571C505.681 22.3519 506.303 22.1492 507.029 22.1492C507.756 22.1492 508.376 22.3519 508.892 22.7571C509.411 23.1591 509.806 23.7427 510.078 24.5078C510.354 25.2696 510.492 26.1887 510.492 27.265C510.492 28.3478 510.356 29.2718 510.083 30.0369C509.811 30.7987 509.417 31.3807 508.902 31.7827C508.386 32.1814 507.762 32.3808 507.029 32.3808ZM507.029 31.311C507.756 31.311 508.32 30.9608 508.722 30.2606C509.124 29.5603 509.325 28.5618 509.325 27.265C509.325 26.4027 509.232 25.6684 509.047 25.0621C508.866 24.4559 508.603 23.9939 508.26 23.6762C507.919 23.3585 507.509 23.1996 507.029 23.1996C506.31 23.1996 505.747 23.5546 505.342 24.2646C504.937 24.9714 504.734 25.9715 504.734 27.265C504.734 28.1274 504.825 28.8601 505.006 29.4631C505.188 30.066 505.449 30.5248 505.789 30.8393C506.133 31.1537 506.546 31.311 507.029 31.311ZM515.256 32.3808C514.588 32.3808 513.998 32.2625 513.486 32.0258C512.977 31.7859 512.58 31.4568 512.294 31.0386C512.009 30.6172 511.868 30.1374 511.871 29.5992C511.868 29.1778 511.951 28.7887 512.119 28.4321C512.288 28.0723 512.518 27.7724 512.81 27.5325C513.105 27.2893 513.434 27.1353 513.797 27.0705V27.0121C513.32 26.889 512.941 26.6215 512.659 26.2098C512.377 25.7948 512.238 25.3231 512.241 24.7947C512.238 24.2889 512.366 23.8367 512.625 23.4379C512.884 23.0392 513.241 22.7247 513.695 22.4945C514.152 22.2643 514.672 22.1492 515.256 22.1492C515.833 22.1492 516.348 22.2643 516.802 22.4945C517.256 22.7247 517.613 23.0392 517.872 23.4379C518.135 23.8367 518.268 24.2889 518.271 24.7947C518.268 25.3231 518.123 25.7948 517.838 26.2098C517.556 26.6215 517.182 26.889 516.715 27.0121V27.0705C517.075 27.1353 517.399 27.2893 517.687 27.5325C517.976 27.7724 518.206 28.0723 518.378 28.4321C518.55 28.7887 518.637 29.1778 518.64 29.5992C518.637 30.1374 518.491 30.6172 518.203 31.0386C517.917 31.4568 517.52 31.7859 517.011 32.0258C516.506 32.2625 515.92 32.3808 515.256 32.3808ZM515.256 31.311C515.706 31.311 516.095 31.238 516.423 31.0921C516.75 30.9462 517.003 30.7404 517.182 30.4745C517.36 30.2087 517.451 29.8975 517.454 29.5409C517.451 29.1648 517.353 28.8325 517.162 28.544C516.971 28.2554 516.71 28.0285 516.379 27.8632C516.052 27.6978 515.677 27.6151 515.256 27.6151C514.831 27.6151 514.452 27.6978 514.118 27.8632C513.787 28.0285 513.526 28.2554 513.335 28.544C513.147 28.8325 513.055 29.1648 513.058 29.5409C513.055 29.8975 513.14 30.2087 513.316 30.4745C513.494 30.7404 513.748 30.9462 514.079 31.0921C514.41 31.238 514.802 31.311 515.256 31.311ZM515.256 26.5842C515.612 26.5842 515.929 26.5129 516.204 26.3702C516.483 26.2276 516.702 26.0282 516.861 25.7721C517.019 25.516 517.1 25.2161 517.104 24.8725C517.1 24.5353 517.021 24.2419 516.865 23.9923C516.71 23.7394 516.494 23.5449 516.219 23.4087C515.943 23.2693 515.622 23.1996 515.256 23.1996C514.883 23.1996 514.557 23.2693 514.278 23.4087C514 23.5449 513.784 23.7394 513.632 23.9923C513.479 24.2419 513.405 24.5353 513.408 24.8725C513.405 25.2161 513.481 25.516 513.636 25.7721C513.795 26.0282 514.014 26.2276 514.293 26.3702C514.572 26.5129 514.893 26.5842 515.256 26.5842ZM521.086 30.9705C520.846 30.9705 520.64 30.8846 520.469 30.7128C520.297 30.541 520.211 30.3351 520.211 30.0952C520.211 29.8553 520.297 29.6495 520.469 29.4776C520.64 29.3058 520.846 29.2199 521.086 29.2199C521.326 29.2199 521.532 29.3058 521.704 29.4776C521.876 29.6495 521.961 29.8553 521.961 30.0952C521.961 30.2541 521.921 30.4 521.84 30.5329C521.762 30.6658 521.657 30.7728 521.524 30.8538C521.394 30.9316 521.248 30.9705 521.086 30.9705ZM521.086 25.9326C520.846 25.9326 520.64 25.8467 520.469 25.6749C520.297 25.503 520.211 25.2972 520.211 25.0573C520.211 24.8174 520.297 24.6115 520.469 24.4397C520.64 24.2679 520.846 24.1819 521.086 24.1819C521.326 24.1819 521.532 24.2679 521.704 24.4397C521.876 24.6115 521.961 24.8174 521.961 25.0573C521.961 25.2161 521.921 25.362 521.84 25.4949C521.762 25.6278 521.657 25.7348 521.524 25.8159C521.394 25.8937 521.248 25.9326 521.086 25.9326ZM523.494 30.2022V29.2102L527.871 22.2854H528.59V23.8221H528.104L524.797 29.0546V29.1324H530.691V30.2022H523.494ZM528.182 32.2446V29.9007V29.4387V22.2854H529.33V32.2446H528.182ZM535.488 32.3808C534.755 32.3808 534.131 32.1814 533.616 31.7827C533.1 31.3807 532.707 30.7987 532.434 30.0369C532.162 29.2718 532.026 28.3478 532.026 27.265C532.026 26.1887 532.162 25.2696 532.434 24.5078C532.71 23.7427 533.105 23.1591 533.621 22.7571C534.139 22.3519 534.762 22.1492 535.488 22.1492C536.214 22.1492 536.835 22.3519 537.351 22.7571C537.869 23.1591 538.265 23.7427 538.537 24.5078C538.813 25.2696 538.95 26.1887 538.95 27.265C538.95 28.3478 538.814 29.2718 538.542 30.0369C538.27 30.7987 537.876 31.3807 537.36 31.7827C536.845 32.1814 536.221 32.3808 535.488 32.3808ZM535.488 31.311C536.214 31.311 536.778 30.9608 537.18 30.2606C537.582 29.5603 537.783 28.5618 537.783 27.265C537.783 26.4027 537.691 25.6684 537.506 25.0621C537.325 24.4559 537.062 23.9939 536.718 23.6762C536.378 23.3585 535.968 23.1996 535.488 23.1996C534.768 23.1996 534.206 23.5546 533.801 24.2646C533.395 24.9714 533.193 25.9715 533.193 27.265C533.193 28.1274 533.284 28.8601 533.465 29.4631C533.647 30.066 533.908 30.5248 534.248 30.8393C534.592 31.1537 535.005 31.311 535.488 31.311Z" fill="#421DFF"/>
<path fill-rule="evenodd" clip-rule="evenodd" d="M556.492 23.1606C556.719 23.3802 556.725 23.7425 556.506 23.9699L547.598 33.1961C547.487 33.3106 547.334 33.3739 547.175 33.3708C547.016 33.3677 546.865 33.2985 546.759 33.1798L542.782 28.7257C542.572 28.4899 542.592 28.1281 542.828 27.9176C543.064 27.707 543.425 27.7275 543.636 27.9633L547.202 31.9576L555.682 23.1748C555.902 22.9474 556.264 22.941 556.492 23.1606Z" fill="#421DFF"/>
<path fill-rule="evenodd" clip-rule="evenodd" d="M559.855 23.1606C560.082 23.3802 560.089 23.7425 559.869 23.9699L550.961 33.1961C550.85 33.3106 550.697 33.3739 550.538 33.3708C550.379 33.3677 550.228 33.2985 550.122 33.1798L546.145 28.7257C545.935 28.4899 545.955 28.1281 546.191 27.9176C546.427 27.707 546.789 27.7275 546.999 27.9633L550.566 31.9576L559.046 23.1748C559.265 22.9474 559.628 22.941 559.855 23.1606Z" fill="#421DFF"/>
<path opacity="0.8" d="M555.688 48C558.961 48 560.598 47.9997 561.938 48.3682C565.441 49.3312 568.179 52.0683 569.142 55.5713C569.428 56.6131 569.49 57.8339 569.504 59.8623L569.594 59.6992C569.597 59.8123 570.118 79.8737 571.392 83.2178C574.074 90.2601 581.282 91.8195 581.317 91.8271C581.26 91.8275 568.045 91.9176 562.909 90.2773C561.222 89.7385 559.636 88.9707 558.343 88.248C556.839 89.0857 555.226 89.7542 553.525 90.2217C550.695 90.9996 547.24 91 540.331 91H154.01C153.179 91 152.763 91.0003 152.412 90.9883C141.584 90.6187 132.891 81.9258 132.521 71.0977C132.51 70.7464 132.51 70.3308 132.51 69.5C132.51 68.6692 132.51 68.2536 132.521 67.9023C132.891 57.0742 141.584 48.3813 152.412 48.0117C152.763 47.9997 153.179 48 154.01 48H555.688Z" fill="#D4C5FF"/>
<path d="M157.865 77.1866C156.892 77.1866 156.023 77.0193 155.261 76.6849C154.504 76.3504 153.901 75.8856 153.453 75.2904C153.011 74.6903 152.77 73.9944 152.73 73.2024H154.59C154.629 73.6894 154.796 74.1099 155.091 74.4641C155.386 74.8133 155.773 75.0838 156.25 75.2757C156.727 75.4675 157.256 75.5634 157.836 75.5634C158.485 75.5634 159.061 75.4503 159.562 75.224C160.064 74.9978 160.458 74.683 160.743 74.2796C161.028 73.8763 161.171 73.409 161.171 72.8778C161.171 72.322 161.033 71.8326 160.758 71.4096C160.482 70.9817 160.079 70.6472 159.548 70.4062C159.016 70.1652 158.367 70.0447 157.6 70.0447H156.39V68.4215H157.6C158.2 68.4215 158.726 68.3133 159.179 68.0969C159.636 67.8804 159.993 67.5755 160.249 67.182C160.509 66.7885 160.64 66.3262 160.64 65.7949C160.64 65.2834 160.526 64.8383 160.3 64.4595C160.074 64.0808 159.754 63.7857 159.341 63.5742C158.933 63.3627 158.451 63.2569 157.895 63.2569C157.374 63.2569 156.882 63.3528 156.419 63.5446C155.962 63.7316 155.588 64.0045 155.298 64.3636C155.008 64.7177 154.85 65.1457 154.826 65.6474H153.055C153.085 64.8555 153.323 64.1619 153.771 63.5668C154.218 62.9667 154.804 62.4994 155.527 62.165C156.255 61.8305 157.054 61.6633 157.924 61.6633C158.859 61.6633 159.661 61.8526 160.33 62.2314C160.999 62.6052 161.513 63.0995 161.872 63.7143C162.231 64.3292 162.41 64.9932 162.41 65.7064C162.41 66.5573 162.186 67.2828 161.739 67.8829C161.296 68.483 160.694 68.8986 159.931 69.1298V69.2478C160.886 69.4052 161.631 69.811 162.167 70.4652C162.703 71.1145 162.971 71.9187 162.971 72.8778C162.971 73.6992 162.747 74.437 162.3 75.0912C161.857 75.7405 161.252 76.252 160.485 76.6258C159.717 76.9997 158.844 77.1866 157.865 77.1866ZM169.353 77.2456C168.635 77.2456 167.983 77.1103 167.398 76.8398C166.813 76.5644 166.348 76.1684 166.003 75.6519C165.659 75.1306 165.487 74.501 165.487 73.7632C165.487 73.1139 165.615 72.5876 165.871 72.1843C166.126 71.776 166.468 71.4563 166.896 71.2251C167.324 70.994 167.796 70.8218 168.313 70.7087C168.834 70.5906 169.358 70.4972 169.884 70.4283C170.573 70.3398 171.131 70.2734 171.559 70.2291C171.992 70.1799 172.307 70.0988 172.503 69.9856C172.705 69.8725 172.806 69.6758 172.806 69.3954V69.3364C172.806 68.6084 172.607 68.0428 172.208 67.6394C171.815 67.2361 171.217 67.0344 170.415 67.0344C169.584 67.0344 168.932 67.2164 168.46 67.5804C167.988 67.9444 167.656 68.333 167.464 68.7461L165.812 68.1559C166.107 67.4673 166.5 66.9311 166.992 66.5475C167.489 66.1589 168.03 65.8884 168.615 65.7359C169.205 65.5785 169.786 65.4998 170.356 65.4998C170.72 65.4998 171.138 65.5441 171.611 65.6326C172.088 65.7162 172.548 65.8908 172.99 66.1565C173.438 66.4221 173.809 66.8229 174.104 67.3591C174.4 67.8952 174.547 68.6133 174.547 69.5134V76.98H172.806V75.4454H172.717C172.599 75.6913 172.403 75.9544 172.127 76.2348C171.852 76.5152 171.485 76.7537 171.028 76.9505C170.57 77.1472 170.012 77.2456 169.353 77.2456ZM169.619 75.6815C170.307 75.6815 170.888 75.5462 171.36 75.2757C171.837 75.0051 172.196 74.6559 172.437 74.228C172.683 73.8001 172.806 73.35 172.806 72.8778V71.2842C172.732 71.3727 172.57 71.4539 172.319 71.5276C172.073 71.5965 171.788 71.658 171.463 71.7121C171.143 71.7613 170.831 71.8055 170.526 71.8449C170.226 71.8793 169.983 71.9088 169.796 71.9334C169.343 71.9925 168.92 72.0884 168.527 72.2212C168.138 72.3491 167.823 72.5433 167.582 72.804C167.346 73.0598 167.228 73.409 167.228 73.8517C167.228 74.4567 167.452 74.9141 167.9 75.224C168.352 75.529 168.925 75.6815 169.619 75.6815ZM176.183 67.2705V65.6474H185.391V67.2705H181.672V76.98H179.931V67.2705H176.183ZM191.946 77.2161C190.923 77.2161 190.026 76.9726 189.253 76.4857C188.486 75.9987 187.886 75.3175 187.453 74.4419C187.025 73.5664 186.811 72.5433 186.811 71.3727C186.811 70.1922 187.025 69.1618 187.453 68.2813C187.886 67.4009 188.486 66.7172 189.253 66.2302C190.026 65.7433 190.923 65.4998 191.946 65.4998C192.969 65.4998 193.865 65.7433 194.632 66.2302C195.404 66.7172 196.004 67.4009 196.432 68.2813C196.865 69.1618 197.081 70.1922 197.081 71.3727C197.081 72.5433 196.865 73.5664 196.432 74.4419C196.004 75.3175 195.404 75.9987 194.632 76.4857C193.865 76.9726 192.969 77.2161 191.946 77.2161ZM191.946 75.6519C192.723 75.6519 193.363 75.4527 193.865 75.0543C194.366 74.6559 194.738 74.1321 194.979 73.4828C195.22 72.8335 195.34 72.1302 195.34 71.3727C195.34 70.6152 195.22 69.9094 194.979 69.2552C194.738 68.601 194.366 68.0723 193.865 67.6689C193.363 67.2656 192.723 67.064 191.946 67.064C191.169 67.064 190.53 67.2656 190.028 67.6689C189.526 68.0723 189.155 68.601 188.914 69.2552C188.673 69.9094 188.552 70.6152 188.552 71.3727C188.552 72.1302 188.673 72.8335 188.914 73.4828C189.155 74.1321 189.526 74.6559 190.028 75.0543C190.53 75.4527 191.169 75.6519 191.946 75.6519ZM209.331 67.123C208.937 67.1279 208.541 67.2287 208.143 67.4255C207.749 67.6222 207.42 67.8829 207.154 68.2075C206.893 68.5273 206.763 68.8839 206.763 69.2774H205.051C205.051 68.7855 205.169 68.3133 205.406 67.8608C205.642 67.4083 205.959 67.0049 206.357 66.6508C206.761 66.2966 207.218 66.0163 207.73 65.8097C208.246 65.6031 208.78 65.4998 209.331 65.4998C210.364 65.4998 211.239 65.7605 211.957 66.2819C212.68 66.8033 213.229 67.4919 213.603 68.3477C213.981 69.2036 214.171 70.1332 214.171 71.1366V71.5498C214.171 72.5483 213.981 73.4779 213.603 74.3387C213.229 75.1945 212.68 75.8831 211.957 76.4045C211.239 76.9259 210.364 77.1866 209.331 77.1866C208.504 77.1866 207.769 77.0046 207.125 76.6406C206.48 76.2717 205.974 75.7798 205.605 75.165C205.236 74.5502 205.051 73.8665 205.051 73.1139H206.763C206.763 73.5418 206.884 73.9427 207.125 74.3165C207.371 74.6854 207.688 74.9855 208.076 75.2166C208.47 75.4429 208.888 75.5585 209.331 75.5634C209.99 75.5585 210.551 75.3519 211.013 74.9437C211.475 74.5354 211.827 74.0239 212.068 73.409C212.309 72.7942 212.429 72.1744 212.429 71.5498V71.1366C212.429 70.4972 212.309 69.8725 212.068 69.2626C211.832 68.6478 211.483 68.1387 211.02 67.7353C210.563 67.332 210 67.1279 209.331 67.123ZM213.138 70.4578V72.081H208.18V70.4578H213.138ZM215.342 67.2705V65.6474H224.55V67.2705H220.831V76.98H219.09V67.2705H215.342ZM231.105 77.2161C230.082 77.2161 229.184 76.9726 228.412 76.4857C227.645 75.9987 227.045 75.3175 226.612 74.4419C226.184 73.5664 225.97 72.5433 225.97 71.3727C225.97 70.1922 226.184 69.1618 226.612 68.2813C227.045 67.4009 227.645 66.7172 228.412 66.2302C229.184 65.7433 230.082 65.4998 231.105 65.4998C232.128 65.4998 233.023 65.7433 233.791 66.2302C234.563 66.7172 235.163 67.4009 235.591 68.2813C236.024 69.1618 236.24 70.1922 236.24 71.3727C236.24 72.5433 236.024 73.5664 235.591 74.4419C235.163 75.3175 234.563 75.9987 233.791 76.4857C233.023 76.9726 232.128 77.2161 231.105 77.2161ZM231.105 75.6519C231.882 75.6519 232.522 75.4527 233.023 75.0543C233.525 74.6559 233.896 74.1321 234.137 73.4828C234.378 72.8335 234.499 72.1302 234.499 71.3727C234.499 70.6152 234.378 69.9094 234.137 69.2552C233.896 68.601 233.525 68.0723 233.023 67.6689C232.522 67.2656 231.882 67.064 231.105 67.064C230.328 67.064 229.688 67.2656 229.187 67.6689C228.685 68.0723 228.314 68.601 228.073 69.2552C227.832 69.9094 227.711 70.6152 227.711 71.3727C227.711 72.1302 227.832 72.8335 228.073 73.4828C228.314 74.1321 228.685 74.6559 229.187 75.0543C229.688 75.4527 230.328 75.6519 231.105 75.6519ZM244.741 76.98V65.6474H253.654V76.98H251.913V67.2705H246.483V76.98H244.741ZM261.438 77.2161C260.415 77.2161 259.517 76.9726 258.745 76.4857C257.978 75.9987 257.377 75.3175 256.945 74.4419C256.517 73.5664 256.303 72.5433 256.303 71.3727C256.303 70.1922 256.517 69.1618 256.945 68.2813C257.377 67.4009 257.978 66.7172 258.745 66.2302C259.517 65.7433 260.415 65.4998 261.438 65.4998C262.461 65.4998 263.356 65.7433 264.123 66.2302C264.896 66.7172 265.496 67.4009 265.924 68.2813C266.356 69.1618 266.573 70.1922 266.573 71.3727C266.573 72.5433 266.356 73.5664 265.924 74.4419C265.496 75.3175 264.896 75.9987 264.123 76.4857C263.356 76.9726 262.461 77.2161 261.438 77.2161ZM261.438 75.6519C262.215 75.6519 262.854 75.4527 263.356 75.0543C263.858 74.6559 264.229 74.1321 264.47 73.4828C264.711 72.8335 264.832 72.1302 264.832 71.3727C264.832 70.6152 264.711 69.9094 264.47 69.2552C264.229 68.601 263.858 68.0723 263.356 67.6689C262.854 67.2656 262.215 67.064 261.438 67.064C260.661 67.064 260.021 67.2656 259.52 67.6689C259.018 68.0723 258.646 68.601 258.405 69.2552C258.164 69.9094 258.044 70.6152 258.044 71.3727C258.044 72.1302 258.164 72.8335 258.405 73.4828C258.646 74.1321 259.018 74.6559 259.52 75.0543C260.021 75.4527 260.661 75.6519 261.438 75.6519ZM269.231 76.98V65.6474H273.864C275.084 65.6474 276.053 65.9228 276.771 66.4737C277.489 67.0246 277.848 67.7526 277.848 68.6576C277.848 69.3462 277.644 69.8799 277.236 70.2586C276.828 70.6324 276.304 70.8858 275.664 71.0186C276.082 71.0776 276.488 71.2251 276.882 71.4612C277.28 71.6973 277.61 72.022 277.87 72.4351C278.131 72.8434 278.261 73.3451 278.261 73.9402C278.261 74.5206 278.114 75.0396 277.819 75.497C277.524 75.9544 277.101 76.316 276.55 76.5816C275.999 76.8472 275.34 76.98 274.572 76.98H269.231ZM270.883 75.3863H274.572C275.173 75.3863 275.642 75.2437 275.982 74.9584C276.321 74.6731 276.491 74.2846 276.491 73.7927C276.491 73.2074 276.321 72.7475 275.982 72.413C275.642 72.0736 275.173 71.9039 274.572 71.9039H270.883V75.3863ZM270.883 70.3988H273.864C274.331 70.3988 274.732 70.3349 275.067 70.207C275.401 70.0742 275.657 69.8873 275.834 69.6463C276.016 69.4003 276.107 69.1101 276.107 68.7756C276.107 68.2985 275.908 67.9247 275.509 67.6542C275.111 67.3787 274.563 67.241 273.864 67.241H270.883V70.3988ZM285.501 77.2161C284.478 77.2161 283.58 76.9726 282.808 76.4857C282.041 75.9987 281.441 75.3175 281.008 74.4419C280.58 73.5664 280.366 72.5433 280.366 71.3727C280.366 70.1922 280.58 69.1618 281.008 68.2813C281.441 67.4009 282.041 66.7172 282.808 66.2302C283.58 65.7433 284.478 65.4998 285.501 65.4998C286.524 65.4998 287.419 65.7433 288.187 66.2302C288.959 66.7172 289.559 67.4009 289.987 68.2813C290.42 69.1618 290.636 70.1922 290.636 71.3727C290.636 72.5433 290.42 73.5664 289.987 74.4419C289.559 75.3175 288.959 75.9987 288.187 76.4857C287.419 76.9726 286.524 77.2161 285.501 77.2161ZM285.501 75.6519C286.278 75.6519 286.918 75.4527 287.419 75.0543C287.921 74.6559 288.292 74.1321 288.533 73.4828C288.774 72.8335 288.895 72.1302 288.895 71.3727C288.895 70.6152 288.774 69.9094 288.533 69.2552C288.292 68.601 287.921 68.0723 287.419 67.6689C286.918 67.2656 286.278 67.064 285.501 67.064C284.724 67.064 284.085 67.2656 283.583 67.6689C283.081 68.0723 282.71 68.601 282.469 69.2552C282.228 69.9094 282.107 70.6152 282.107 71.3727C282.107 72.1302 282.228 72.8335 282.469 73.4828C282.71 74.1321 283.081 74.6559 283.583 75.0543C284.085 75.4527 284.724 75.6519 285.501 75.6519ZM292.084 80.2263V75.3568H293.029C293.26 75.1158 293.459 74.8551 293.626 74.5748C293.793 74.2944 293.938 73.9624 294.061 73.5787C294.189 73.1901 294.298 72.718 294.386 72.1621C294.475 71.6014 294.553 70.9251 294.622 70.1332L295.006 65.6474H302.207V75.3568H303.948V80.2263H302.207V76.98H293.825V80.2263H292.084ZM295.006 75.3568H300.466V67.2705H296.629L296.334 70.1332C296.211 71.3186 296.058 72.354 295.876 73.2393C295.694 74.1247 295.404 74.8305 295.006 75.3568ZM310.893 80.2263V75.3568H311.837C312.068 75.1158 312.267 74.8551 312.435 74.5748C312.602 74.2944 312.747 73.9624 312.87 73.5787C312.998 73.1901 313.106 72.718 313.194 72.1621C313.283 71.6014 313.362 70.9251 313.431 70.1332L313.814 65.6474H321.015V75.3568H322.756V80.2263H321.015V76.98H312.634V80.2263H310.893ZM313.814 75.3568H319.274V67.2705H315.437L315.142 70.1332C315.019 71.3186 314.867 72.354 314.685 73.2393C314.503 74.1247 314.213 74.8305 313.814 75.3568ZM324.064 76.98V75.3568H324.477C324.817 75.3568 325.099 75.2904 325.326 75.1576C325.552 75.0199 325.734 74.7813 325.872 74.4419C326.014 74.0976 326.123 73.6205 326.196 73.0106C326.275 72.3958 326.332 71.6137 326.366 70.6644L326.573 65.6474H334.128V76.98H332.386V67.2705H328.225L328.048 71.3137C328.009 72.2433 327.925 73.0623 327.797 73.7706C327.674 74.4739 327.485 75.0642 327.229 75.5413C326.978 76.0184 326.644 76.3774 326.226 76.6185C325.808 76.8595 325.284 76.98 324.654 76.98H324.064ZM344.14 76.98V67.241H341.129C340.451 67.241 339.917 67.3984 339.528 67.7132C339.14 68.028 338.945 68.4609 338.945 69.0117C338.945 69.5528 339.12 69.9783 339.469 70.2881C339.823 70.598 340.308 70.753 340.923 70.753H344.582V72.3761H340.923C340.155 72.3761 339.494 72.2408 338.938 71.9703C338.382 71.6998 337.954 71.3137 337.654 70.812C337.354 70.3054 337.204 69.7053 337.204 69.0117C337.204 68.3133 337.362 67.7132 337.676 67.2115C337.991 66.7098 338.441 66.3237 339.027 66.0532C339.617 65.7826 340.318 65.6474 341.129 65.6474H345.792V76.98H344.14ZM336.585 76.98L339.801 71.3432H341.69L338.473 76.98H336.585ZM354.832 76.98V65.6474H363.745V76.98H362.004V67.2705H356.573V76.98H354.832ZM371.676 77.2161C370.584 77.2161 369.642 76.9751 368.85 76.493C368.063 76.0061 367.456 75.3273 367.028 74.4567C366.605 73.5812 366.393 72.563 366.393 71.4022C366.393 70.2414 366.605 69.2183 367.028 68.333C367.456 67.4427 368.051 66.7492 368.813 66.2524C369.581 65.7507 370.476 65.4998 371.499 65.4998C372.089 65.4998 372.672 65.5982 373.248 65.7949C373.823 65.9917 374.347 66.3114 374.819 66.7541C375.291 67.1918 375.668 67.7722 375.948 68.4953C376.228 69.2183 376.369 70.1086 376.369 71.1661V71.9039H367.633V70.3988H374.598C374.598 69.7594 374.47 69.1888 374.214 68.6871C373.963 68.1854 373.604 67.7895 373.137 67.4993C372.675 67.2091 372.129 67.064 371.499 67.064C370.806 67.064 370.205 67.2361 369.699 67.5804C369.197 67.9198 368.811 68.3625 368.54 68.9085C368.27 69.4544 368.135 70.0397 368.135 70.6644V71.6678C368.135 72.5237 368.282 73.2492 368.577 73.8443C368.877 74.4346 369.293 74.8846 369.824 75.1945C370.355 75.4995 370.973 75.6519 371.676 75.6519C372.134 75.6519 372.547 75.588 372.916 75.4601C373.289 75.3273 373.612 75.1306 373.882 74.8699C374.153 74.6043 374.362 74.2747 374.509 73.8812L376.191 74.3534C376.014 74.924 375.717 75.4257 375.299 75.8585C374.881 76.2864 374.364 76.6209 373.749 76.8619C373.135 77.098 372.443 77.2161 371.676 77.2161ZM379.017 81.2297V65.6474H380.699V67.4476H380.906C381.034 67.2509 381.211 67 381.437 66.6951C381.668 66.3852 381.998 66.1097 382.426 65.8687C382.859 65.6228 383.444 65.4998 384.182 65.4998C385.136 65.4998 385.977 65.7384 386.705 66.2155C387.433 66.6926 388.001 67.3689 388.409 68.2444C388.818 69.12 389.022 70.1529 389.022 71.3432C389.022 72.5433 388.818 73.5836 388.409 74.4641C388.001 75.3396 387.436 76.0184 386.712 76.5004C385.989 76.9775 385.156 77.2161 384.211 77.2161C383.483 77.2161 382.901 77.0956 382.463 76.8546C382.025 76.6086 381.688 76.3307 381.452 76.0208C381.216 75.706 381.034 75.4454 380.906 75.2388H380.758V81.2297H379.017ZM380.729 71.3137C380.729 72.1695 380.854 72.9245 381.105 73.5787C381.356 74.228 381.723 74.7371 382.205 75.106C382.687 75.47 383.277 75.6519 383.975 75.6519C384.703 75.6519 385.311 75.4601 385.798 75.0765C386.289 74.6879 386.658 74.1665 386.904 73.5123C387.155 72.8532 387.281 72.1203 387.281 71.3137C387.281 70.5169 387.158 69.7987 386.912 69.1593C386.671 68.515 386.304 68.0059 385.812 67.6321C385.325 67.2533 384.713 67.064 383.975 67.064C383.267 67.064 382.672 67.2435 382.19 67.6025C381.708 67.9567 381.344 68.4535 381.098 69.0929C380.852 69.7274 380.729 70.4677 380.729 71.3137ZM396.429 77.2161C395.337 77.2161 394.395 76.9751 393.604 76.493C392.817 76.0061 392.209 75.3273 391.781 74.4567C391.358 73.5812 391.147 72.563 391.147 71.4022C391.147 70.2414 391.358 69.2183 391.781 68.333C392.209 67.4427 392.804 66.7492 393.567 66.2524C394.334 65.7507 395.229 65.4998 396.252 65.4998C396.842 65.4998 397.425 65.5982 398.001 65.7949C398.576 65.9917 399.1 66.3114 399.572 66.7541C400.045 67.1918 400.421 67.7722 400.701 68.4953C400.982 69.2183 401.122 70.1086 401.122 71.1661V71.9039H392.386V70.3988H399.351C399.351 69.7594 399.223 69.1888 398.967 68.6871C398.717 68.1854 398.357 67.7895 397.89 67.4993C397.428 67.2091 396.882 67.064 396.252 67.064C395.559 67.064 394.959 67.2361 394.452 67.5804C393.95 67.9198 393.564 68.3625 393.294 68.9085C393.023 69.4544 392.888 70.0397 392.888 70.6644V71.6678C392.888 72.5237 393.035 73.2492 393.331 73.8443C393.631 74.4346 394.046 74.8846 394.577 75.1945C395.109 75.4995 395.726 75.6519 396.429 75.6519C396.887 75.6519 397.3 75.588 397.669 75.4601C398.043 75.3273 398.365 75.1306 398.635 74.8699C398.906 74.6043 399.115 74.2747 399.262 73.8812L400.945 74.3534C400.768 74.924 400.47 75.4257 400.052 75.8585C399.634 76.2864 399.117 76.6209 398.503 76.8619C397.888 77.098 397.197 77.2161 396.429 77.2161ZM403.062 74.0878H404.921C404.961 74.5993 405.192 74.9879 405.615 75.2535C406.043 75.5191 406.599 75.6519 407.282 75.6519C407.981 75.6519 408.578 75.5093 409.075 75.224C409.572 74.9338 409.82 74.4665 409.82 73.8222C409.82 73.4435 409.727 73.1139 409.54 72.8335C409.353 72.5483 409.09 72.3269 408.751 72.1695C408.411 72.0121 408.01 71.9334 407.548 71.9334H405.6V70.3693H407.548C408.241 70.3693 408.753 70.2119 409.083 69.8971C409.417 69.5823 409.584 69.1888 409.584 68.7166C409.584 68.21 409.405 67.8042 409.046 67.4993C408.687 67.1894 408.178 67.0344 407.518 67.0344C406.854 67.0344 406.301 67.1845 405.858 67.4845C405.416 67.7796 405.182 68.1608 405.157 68.6281H403.328C403.347 68.0182 403.534 67.4796 403.888 67.0123C404.243 66.5401 404.725 66.1712 405.335 65.9056C405.944 65.6351 406.643 65.4998 407.43 65.4998C408.227 65.4998 408.918 65.64 409.503 65.9204C410.093 66.1958 410.548 66.5721 410.868 67.0492C411.193 67.5214 411.355 68.0575 411.355 68.6576C411.355 69.297 411.175 69.8135 410.816 70.207C410.457 70.6005 410.007 70.8808 409.466 71.0481V71.1661C409.894 71.1956 410.266 71.3334 410.58 71.5793C410.9 71.8203 411.148 72.1376 411.325 72.531C411.503 72.9196 411.591 73.35 411.591 73.8222C411.591 74.5108 411.407 75.1109 411.038 75.6224C410.669 76.1291 410.162 76.5225 409.518 76.8029C408.874 77.0784 408.138 77.2161 407.312 77.2161C406.51 77.2161 405.792 77.0857 405.157 76.825C404.523 76.5594 404.019 76.193 403.645 75.7257C403.276 75.2535 403.082 74.7076 403.062 74.0878ZM417.372 77.2456C416.654 77.2456 416.002 77.1103 415.417 76.8398C414.831 76.5644 414.366 76.1684 414.022 75.6519C413.678 75.1306 413.506 74.501 413.506 73.7632C413.506 73.1139 413.634 72.5876 413.889 72.1843C414.145 71.776 414.487 71.4563 414.915 71.2251C415.343 70.994 415.815 70.8218 416.331 70.7087C416.853 70.5906 417.377 70.4972 417.903 70.4283C418.592 70.3398 419.15 70.2734 419.578 70.2291C420.011 70.1799 420.325 70.0988 420.522 69.9856C420.724 69.8725 420.825 69.6758 420.825 69.3954V69.3364C420.825 68.6084 420.625 68.0428 420.227 67.6394C419.834 67.2361 419.236 67.0344 418.434 67.0344C417.603 67.0344 416.951 67.2164 416.479 67.5804C416.007 67.9444 415.675 68.333 415.483 68.7461L413.83 68.1559C414.125 67.4673 414.519 66.9311 415.011 66.5475C415.508 66.1589 416.049 65.8884 416.634 65.7359C417.224 65.5785 417.805 65.4998 418.375 65.4998C418.739 65.4998 419.157 65.5441 419.629 65.6326C420.107 65.7162 420.566 65.8908 421.009 66.1565C421.457 66.4221 421.828 66.8229 422.123 67.3591C422.418 67.8952 422.566 68.6133 422.566 69.5134V76.98H420.825V75.4454H420.736C420.618 75.6913 420.421 75.9544 420.146 76.2348C419.87 76.5152 419.504 76.7537 419.047 76.9505C418.589 77.1472 418.031 77.2456 417.372 77.2456ZM417.637 75.6815C418.326 75.6815 418.906 75.5462 419.379 75.2757C419.856 75.0051 420.215 74.6559 420.456 74.228C420.702 73.8001 420.825 73.35 420.825 72.8778V71.2842C420.751 71.3727 420.589 71.4539 420.338 71.5276C420.092 71.5965 419.807 71.658 419.482 71.7121C419.162 71.7613 418.85 71.8055 418.545 71.8449C418.245 71.8793 418.001 71.9088 417.814 71.9334C417.362 71.9925 416.939 72.0884 416.545 72.2212C416.157 72.3491 415.842 72.5433 415.601 72.804C415.365 73.0598 415.247 73.409 415.247 73.8517C415.247 74.4567 415.471 74.9141 415.918 75.224C416.371 75.529 416.944 75.6815 417.637 75.6815ZM432.738 65.6474V67.2705H427.485V76.98H425.744V65.6474H432.738ZM435.28 81.2297V65.6474H436.962V67.4476H437.169C437.297 67.2509 437.474 67 437.7 66.6951C437.931 66.3852 438.261 66.1097 438.689 65.8687C439.121 65.6228 439.707 65.4998 440.445 65.4998C441.399 65.4998 442.24 65.7384 442.968 66.2155C443.696 66.6926 444.264 67.3689 444.672 68.2444C445.08 69.12 445.285 70.1529 445.285 71.3432C445.285 72.5433 445.08 73.5836 444.672 74.4641C444.264 75.3396 443.698 76.0184 442.975 76.5004C442.252 76.9775 441.419 77.2161 440.474 77.2161C439.746 77.2161 439.163 77.0956 438.726 76.8546C438.288 76.6086 437.951 76.3307 437.715 76.0208C437.479 75.706 437.297 75.4454 437.169 75.2388H437.021V81.2297H435.28ZM436.992 71.3137C436.992 72.1695 437.117 72.9245 437.368 73.5787C437.619 74.228 437.985 74.7371 438.467 75.106C438.949 75.47 439.54 75.6519 440.238 75.6519C440.966 75.6519 441.573 75.4601 442.06 75.0765C442.552 74.6879 442.921 74.1665 443.167 73.5123C443.418 72.8532 443.543 72.1203 443.543 71.3137C443.543 70.5169 443.42 69.7987 443.174 69.1593C442.933 68.515 442.567 68.0059 442.075 67.6321C441.588 67.2533 440.976 67.064 440.238 67.064C439.53 67.064 438.935 67.2435 438.453 67.6025C437.971 67.9567 437.607 68.4535 437.361 69.0929C437.115 69.7274 436.992 70.4677 436.992 71.3137ZM448.656 81.2297C448.361 81.2297 448.098 81.2051 447.867 81.1559C447.636 81.1117 447.476 81.0674 447.387 81.0231L447.83 79.4885C448.253 79.5967 448.627 79.6361 448.951 79.6065C449.276 79.577 449.564 79.4319 449.815 79.1712C450.07 78.9155 450.304 78.4998 450.516 77.9244L450.84 77.039L446.65 65.6474H448.538L451.667 74.678H451.785L454.913 65.6474H456.802L451.991 78.6327C451.775 79.218 451.507 79.7025 451.187 80.0861C450.867 80.4747 450.496 80.7624 450.073 80.9493C449.655 81.1363 449.183 81.2297 448.656 81.2297ZM458.392 74.0878H460.251C460.29 74.5993 460.521 74.9879 460.944 75.2535C461.372 75.5191 461.928 75.6519 462.612 75.6519C463.31 75.6519 463.908 75.5093 464.405 75.224C464.901 74.9338 465.15 74.4665 465.15 73.8222C465.15 73.4435 465.056 73.1139 464.869 72.8335C464.683 72.5483 464.419 72.3269 464.08 72.1695C463.741 72.0121 463.34 71.9334 462.877 71.9334H460.93V70.3693H462.877C463.571 70.3693 464.082 70.2119 464.412 69.8971C464.747 69.5823 464.914 69.1888 464.914 68.7166C464.914 68.21 464.734 67.8042 464.375 67.4993C464.016 67.1894 463.507 67.0344 462.848 67.0344C462.184 67.0344 461.631 67.1845 461.188 67.4845C460.745 67.7796 460.512 68.1608 460.487 68.6281H458.657C458.677 68.0182 458.864 67.4796 459.218 67.0123C459.572 66.5401 460.054 66.1712 460.664 65.9056C461.274 65.6351 461.972 65.4998 462.759 65.4998C463.556 65.4998 464.247 65.64 464.833 65.9204C465.423 66.1958 465.878 66.5721 466.198 67.0492C466.522 67.5214 466.684 68.0575 466.684 68.6576C466.684 69.297 466.505 69.8135 466.146 70.207C465.787 70.6005 465.337 70.8808 464.796 71.0481V71.1661C465.224 71.1956 465.595 71.3334 465.91 71.5793C466.229 71.8203 466.478 72.1376 466.655 72.531C466.832 72.9196 466.921 73.35 466.921 73.8222C466.921 74.5108 466.736 75.1109 466.367 75.6224C465.998 76.1291 465.492 76.5225 464.847 76.8029C464.203 77.0784 463.468 77.2161 462.641 77.2161C461.84 77.2161 461.121 77.0857 460.487 76.825C459.852 76.5594 459.348 76.193 458.974 75.7257C458.606 75.2535 458.411 74.7076 458.392 74.0878ZM469.366 76.98V65.6474H471.108V70.5759H472.259L476.331 65.6474H478.574L474 71.1071L478.633 76.98H476.39L472.672 72.199H471.108V76.98H469.366ZM482.267 74.4124L487.727 65.6474H489.733V76.98H487.992V68.2149L482.562 76.98H480.526V65.6474H482.267V74.4124ZM495.224 61.8698L495.077 72.7303H493.365L493.218 61.8698H495.224ZM494.221 77.098C493.857 77.098 493.545 76.9677 493.284 76.707C493.023 76.4463 492.893 76.134 492.893 75.77C492.893 75.406 493.023 75.0937 493.284 74.833C493.545 74.5723 493.857 74.4419 494.221 74.4419C494.585 74.4419 494.897 74.5723 495.158 74.833C495.419 75.0937 495.549 75.406 495.549 75.77C495.549 76.011 495.488 76.2323 495.365 76.434C495.247 76.6357 495.087 76.798 494.885 76.921C494.688 77.039 494.467 77.098 494.221 77.098Z" fill="black"/>
<path d="M511.104 80.4706C510.371 80.4706 509.747 80.2713 509.231 79.8725C508.716 79.4705 508.322 78.8886 508.05 78.1267C507.777 77.3616 507.641 76.4377 507.641 75.3549C507.641 74.2785 507.777 73.3595 508.05 72.5976C508.325 71.8325 508.721 71.249 509.236 70.847C509.755 70.4417 510.377 70.2391 511.104 70.2391C511.83 70.2391 512.451 70.4417 512.966 70.847C513.485 71.249 513.88 71.8325 514.153 72.5976C514.428 73.3595 514.566 74.2785 514.566 75.3549C514.566 76.4377 514.43 77.3616 514.157 78.1267C513.885 78.8886 513.491 79.4705 512.976 79.8725C512.46 80.2713 511.836 80.4706 511.104 80.4706ZM511.104 79.4008C511.83 79.4008 512.394 79.0507 512.796 78.3504C513.198 77.6502 513.399 76.6516 513.399 75.3549C513.399 74.4925 513.306 73.7582 513.122 73.152C512.94 72.5457 512.678 72.0838 512.334 71.766C511.993 71.4483 511.583 71.2895 511.104 71.2895C510.384 71.2895 509.821 71.6445 509.416 72.3545C509.011 73.0612 508.808 74.0613 508.808 75.3549C508.808 76.2172 508.899 76.9499 509.081 77.5529C509.262 78.1559 509.523 78.6146 509.864 78.9291C510.207 79.2436 510.621 79.4008 511.104 79.4008ZM519.33 80.4706C518.662 80.4706 518.072 80.3523 517.56 80.1156C517.051 79.8757 516.654 79.5467 516.369 79.1285C516.083 78.707 515.942 78.2272 515.945 77.6891C515.942 77.2676 516.025 76.8786 516.193 76.522C516.362 76.1621 516.592 75.8622 516.884 75.6223C517.179 75.3792 517.508 75.2252 517.871 75.1603V75.102C517.395 74.9788 517.015 74.7113 516.733 74.2996C516.451 73.8846 516.312 73.4129 516.315 72.8845C516.312 72.3788 516.44 71.9265 516.699 71.5278C516.959 71.129 517.315 70.8145 517.769 70.5844C518.226 70.3542 518.746 70.2391 519.33 70.2391C519.907 70.2391 520.423 70.3542 520.876 70.5844C521.33 70.8145 521.687 71.129 521.946 71.5278C522.209 71.9265 522.342 72.3788 522.345 72.8845C522.342 73.4129 522.198 73.8846 521.912 74.2996C521.63 74.7113 521.256 74.9788 520.789 75.102V75.1603C521.149 75.2252 521.473 75.3792 521.761 75.6223C522.05 75.8622 522.28 76.1621 522.452 76.522C522.624 76.8786 522.711 77.2676 522.715 77.6891C522.711 78.2272 522.565 78.707 522.277 79.1285C521.992 79.5467 521.595 79.8757 521.086 80.1156C520.58 80.3523 519.995 80.4706 519.33 80.4706ZM519.33 79.4008C519.781 79.4008 520.17 79.3279 520.497 79.182C520.825 79.0361 521.077 78.8302 521.256 78.5644C521.434 78.2985 521.525 77.9873 521.528 77.6307C521.525 77.2546 521.428 76.9223 521.236 76.6338C521.045 76.3453 520.784 76.1183 520.453 75.953C520.126 75.7877 519.751 75.705 519.33 75.705C518.905 75.705 518.526 75.7877 518.192 75.953C517.861 76.1183 517.6 76.3453 517.409 76.6338C517.221 76.9223 517.129 77.2546 517.132 77.6307C517.129 77.9873 517.215 78.2985 517.39 78.5644C517.568 78.8302 517.823 79.0361 518.153 79.182C518.484 79.3279 518.876 79.4008 519.33 79.4008ZM519.33 74.6741C519.687 74.6741 520.003 74.6027 520.278 74.4601C520.557 74.3174 520.776 74.1181 520.935 73.862C521.094 73.6058 521.175 73.306 521.178 72.9623C521.175 72.6252 521.095 72.3318 520.94 72.0821C520.784 71.8293 520.568 71.6347 520.293 71.4986C520.017 71.3592 519.696 71.2895 519.33 71.2895C518.957 71.2895 518.631 71.3592 518.353 71.4986C518.074 71.6347 517.858 71.8293 517.706 72.0821C517.553 72.3318 517.479 72.6252 517.482 72.9623C517.479 73.306 517.555 73.6058 517.711 73.862C517.87 74.1181 518.088 74.3174 518.367 74.4601C518.646 74.6027 518.967 74.6741 519.33 74.6741ZM525.16 79.0604C524.92 79.0604 524.715 78.9745 524.543 78.8027C524.371 78.6308 524.285 78.425 524.285 78.1851C524.285 77.9452 524.371 77.7393 524.543 77.5675C524.715 77.3957 524.92 77.3097 525.16 77.3097C525.4 77.3097 525.606 77.3957 525.778 77.5675C525.95 77.7393 526.036 77.9452 526.036 78.1851C526.036 78.3439 525.995 78.4898 525.914 78.6227C525.836 78.7557 525.731 78.8626 525.598 78.9437C525.468 79.0215 525.322 79.0604 525.16 79.0604ZM525.16 74.0224C524.92 74.0224 524.715 73.9365 524.543 73.7647C524.371 73.5929 524.285 73.387 524.285 73.1471C524.285 72.9072 524.371 72.7013 524.543 72.5295C524.715 72.3577 524.92 72.2718 525.16 72.2718C525.4 72.2718 525.606 72.3577 525.778 72.5295C525.95 72.7013 526.036 72.9072 526.036 73.1471C526.036 73.306 525.995 73.4518 525.914 73.5848C525.836 73.7177 525.731 73.8247 525.598 73.9057C525.468 73.9835 525.322 74.0224 525.16 74.0224ZM527.568 78.2921V77.3L531.945 70.3753H532.665V71.9119H532.178L528.872 77.1444V77.2222H534.765V78.2921H527.568ZM532.256 80.3345V77.9906V77.5286V70.3753H533.404V80.3345H532.256ZM539.681 70.3753V80.3345H538.475V71.6396H538.417L535.986 73.2541V72.0286L538.475 70.3753H539.681Z" fill="#421DFF"/>
<path fill-rule="evenodd" clip-rule="evenodd" d="M559.8 71.4384C560.028 71.658 560.034 72.0203 559.815 72.2477L550.906 81.474C550.796 81.5885 550.643 81.6518 550.483 81.6487C550.324 81.6456 550.174 81.5763 550.068 81.4576L546.091 77.0035C545.88 76.7677 545.901 76.4059 546.136 76.1954C546.372 75.9849 546.734 76.0053 546.945 76.2411L550.511 80.2354L558.991 71.4526C559.211 71.2252 559.573 71.2189 559.8 71.4384Z" fill="#421DFF"/>
<path fill-rule="evenodd" clip-rule="evenodd" d="M562.855 71.3593C563.082 71.5789 563.089 71.9412 562.869 72.1686L553.961 81.3949C553.85 81.5094 553.697 81.5727 553.538 81.5696C553.379 81.5665 553.228 81.4972 553.122 81.3785L549.145 76.9244C548.935 76.6886 548.955 76.3268 549.191 76.1163C549.427 75.9058 549.789 75.9262 549.999 76.162L553.566 80.1563L562.046 71.3735C562.265 71.1461 562.628 71.1398 562.855 71.3593Z" fill="#421DFF"/>
<path opacity="0.8" d="M199 118C199 116.974 199 116.461 198.981 116.027C198.531 105.721 190.279 97.4689 179.973 97.0189C179.539 97 179.026 97 178 97H41.832C35.4397 97 32.2436 97 29.6115 97.6593C21.7371 99.6317 15.5888 105.78 13.6163 113.654C12.957 116.287 12.957 119.483 12.957 125.875C12.957 128.781 12.957 130.233 13.2567 131.43C14.1533 135.009 16.948 137.804 20.5272 138.7C21.7236 139 23.1764 139 26.082 139H178C179.026 139 179.539 139 179.973 138.981C190.279 138.531 198.531 130.279 198.981 119.973C199 119.539 199 119.026 199 118Z" fill="#BCA4FF"/>
<path d="M152.02 130.129C151.324 130.129 150.732 129.94 150.242 129.561C149.753 129.18 149.379 128.627 149.12 127.904C148.862 127.178 148.733 126.301 148.733 125.273C148.733 124.251 148.862 123.378 149.12 122.655C149.382 121.929 149.757 121.375 150.247 120.993C150.739 120.609 151.33 120.416 152.02 120.416C152.709 120.416 153.298 120.609 153.788 120.993C154.28 121.375 154.656 121.929 154.914 122.655C155.176 123.378 155.306 124.251 155.306 125.273C155.306 126.301 155.177 127.178 154.919 127.904C154.66 128.627 154.286 129.18 153.797 129.561C153.308 129.94 152.715 130.129 152.02 130.129ZM152.02 129.114C152.709 129.114 153.244 128.781 153.626 128.116C154.008 127.452 154.199 126.504 154.199 125.273C154.199 124.454 154.111 123.757 153.935 123.181C153.763 122.606 153.514 122.167 153.188 121.866C152.864 121.564 152.475 121.413 152.02 121.413C151.336 121.413 150.802 121.75 150.418 122.424C150.033 123.095 149.841 124.045 149.841 125.273C149.841 126.091 149.927 126.787 150.099 127.359C150.271 127.932 150.519 128.367 150.842 128.666C151.169 128.964 151.561 129.114 152.02 129.114ZM159.829 130.129C159.195 130.129 158.635 130.017 158.149 129.792C157.666 129.565 157.289 129.252 157.018 128.855C156.747 128.455 156.613 128 156.616 127.489C156.613 127.089 156.691 126.719 156.852 126.381C157.012 126.039 157.23 125.754 157.507 125.527C157.787 125.296 158.099 125.15 158.444 125.088V125.033C157.992 124.916 157.632 124.662 157.364 124.271C157.096 123.877 156.964 123.429 156.967 122.928C156.964 122.447 157.085 122.018 157.332 121.64C157.578 121.261 157.916 120.962 158.347 120.744C158.781 120.525 159.275 120.416 159.829 120.416C160.377 120.416 160.866 120.525 161.297 120.744C161.728 120.962 162.067 121.261 162.313 121.64C162.562 122.018 162.688 122.447 162.691 122.928C162.688 123.429 162.551 123.877 162.28 124.271C162.013 124.662 161.657 124.916 161.214 125.033V125.088C161.556 125.15 161.863 125.296 162.137 125.527C162.411 125.754 162.63 126.039 162.793 126.381C162.956 126.719 163.039 127.089 163.042 127.489C163.039 128 162.901 128.455 162.627 128.855C162.356 129.252 161.979 129.565 161.496 129.792C161.016 130.017 160.46 130.129 159.829 130.129ZM159.829 129.114C160.257 129.114 160.626 129.044 160.937 128.906C161.248 128.767 161.488 128.572 161.657 128.32C161.827 128.067 161.913 127.772 161.916 127.433C161.913 127.076 161.82 126.761 161.639 126.487C161.457 126.213 161.209 125.998 160.896 125.841C160.585 125.684 160.229 125.605 159.829 125.605C159.426 125.605 159.066 125.684 158.749 125.841C158.435 125.998 158.187 126.213 158.006 126.487C157.827 126.761 157.739 127.076 157.742 127.433C157.739 127.772 157.821 128.067 157.987 128.32C158.156 128.572 158.398 128.767 158.712 128.906C159.026 129.044 159.398 129.114 159.829 129.114ZM159.829 124.626C160.168 124.626 160.468 124.559 160.729 124.423C160.994 124.288 161.202 124.099 161.353 123.855C161.503 123.612 161.58 123.328 161.583 123.001C161.58 122.681 161.505 122.403 161.357 122.166C161.209 121.926 161.005 121.741 160.743 121.612C160.482 121.48 160.177 121.413 159.829 121.413C159.475 121.413 159.166 121.48 158.901 121.612C158.637 121.741 158.432 121.926 158.287 122.166C158.143 122.403 158.072 122.681 158.075 123.001C158.072 123.328 158.144 123.612 158.292 123.855C158.443 124.099 158.65 124.288 158.915 124.423C159.18 124.559 159.484 124.626 159.829 124.626ZM165.364 128.79C165.136 128.79 164.941 128.709 164.778 128.546C164.615 128.383 164.533 128.187 164.533 127.96C164.533 127.732 164.615 127.536 164.778 127.373C164.941 127.21 165.136 127.129 165.364 127.129C165.592 127.129 165.787 127.21 165.95 127.373C166.113 127.536 166.195 127.732 166.195 127.96C166.195 128.11 166.156 128.249 166.08 128.375C166.006 128.501 165.906 128.603 165.779 128.68C165.656 128.754 165.518 128.79 165.364 128.79ZM165.364 124.008C165.136 124.008 164.941 123.926 164.778 123.763C164.615 123.6 164.533 123.405 164.533 123.177C164.533 122.949 164.615 122.754 164.778 122.591C164.941 122.427 165.136 122.346 165.364 122.346C165.592 122.346 165.787 122.427 165.95 122.591C166.113 122.754 166.195 122.949 166.195 123.177C166.195 123.328 166.156 123.466 166.08 123.592C166.006 123.719 165.906 123.82 165.779 123.897C165.656 123.971 165.518 124.008 165.364 124.008ZM167.65 128.061V127.119L171.805 120.545H172.488V122.004H172.026L168.887 126.972V127.045H174.482V128.061H167.65ZM172.1 130V127.775V127.336V120.545H173.19V130H172.1ZM179.092 130.129C178.704 130.123 178.316 130.049 177.928 129.908C177.54 129.766 177.187 129.528 176.866 129.192C176.546 128.854 176.289 128.397 176.095 127.821C175.902 127.242 175.805 126.516 175.805 125.642C175.805 124.805 175.883 124.063 176.04 123.417C176.197 122.768 176.425 122.221 176.723 121.778C177.022 121.332 177.382 120.993 177.804 120.762C178.228 120.532 178.707 120.416 179.239 120.416C179.769 120.416 180.24 120.522 180.652 120.735C181.067 120.944 181.406 121.236 181.668 121.612C181.929 121.987 182.098 122.42 182.175 122.909H181.049C180.944 122.484 180.741 122.132 180.44 121.852C180.138 121.572 179.738 121.432 179.239 121.432C178.507 121.432 177.93 121.75 177.508 122.387C177.09 123.025 176.879 123.919 176.876 125.07H176.95C177.122 124.808 177.327 124.585 177.564 124.4C177.804 124.212 178.068 124.068 178.358 123.966C178.647 123.865 178.953 123.814 179.276 123.814C179.818 123.814 180.313 123.949 180.763 124.22C181.212 124.488 181.572 124.859 181.843 125.333C182.114 125.804 182.249 126.344 182.249 126.953C182.249 127.538 182.118 128.073 181.857 128.56C181.595 129.043 181.227 129.428 180.754 129.714C180.283 129.997 179.729 130.135 179.092 130.129ZM179.092 129.114C179.479 129.114 179.827 129.017 180.135 128.823C180.446 128.629 180.69 128.369 180.869 128.043C181.05 127.716 181.141 127.353 181.141 126.953C181.141 126.562 181.054 126.207 180.878 125.887C180.706 125.564 180.467 125.307 180.163 125.116C179.861 124.925 179.516 124.83 179.129 124.83C178.836 124.83 178.564 124.888 178.311 125.005C178.059 125.119 177.837 125.276 177.647 125.476C177.459 125.676 177.311 125.905 177.203 126.164C177.096 126.419 177.042 126.688 177.042 126.972C177.042 127.347 177.13 127.698 177.305 128.024C177.483 128.35 177.727 128.614 178.034 128.814C178.345 129.014 178.698 129.114 179.092 129.114Z" fill="#421DFF"/>
<path d="M31.4684 125V123.381H31.8945C32.5006 123.381 32.9717 123.187 33.3079 122.798C33.6441 122.41 33.8855 121.783 34.0323 120.916C34.1838 120.05 34.2856 118.902 34.3377 117.472L34.5934 110.455H43.457V125H41.6957V112.017H36.2695L36.0423 117.812C35.9854 119.337 35.8458 120.634 35.6232 121.705C35.4007 122.775 35.0101 123.591 34.4513 124.155C33.8926 124.718 33.0782 125 32.0082 125H31.4684ZM49.9592 125.256C49.2679 125.256 48.6405 125.125 48.0771 124.865C47.5136 124.6 47.0662 124.219 46.7347 123.722C46.4033 123.22 46.2376 122.614 46.2376 121.903C46.2376 121.278 46.3607 120.772 46.6069 120.384C46.8531 119.991 47.1822 119.683 47.5941 119.46C48.006 119.238 48.4606 119.072 48.9577 118.963C49.4596 118.849 49.9639 118.759 50.4705 118.693C51.1334 118.608 51.6708 118.544 52.0827 118.501C52.4994 118.454 52.8024 118.376 52.9918 118.267C53.186 118.158 53.283 117.969 53.283 117.699V117.642C53.283 116.941 53.0913 116.397 52.7077 116.009C52.329 115.62 51.7537 115.426 50.9819 115.426C50.1817 115.426 49.5543 115.601 49.0998 115.952C48.6452 116.302 48.3256 116.676 48.141 117.074L46.5501 116.506C46.8342 115.843 47.2129 115.327 47.6864 114.957C48.1647 114.583 48.6855 114.323 49.2489 114.176C49.8171 114.025 50.3758 113.949 50.9251 113.949C51.2754 113.949 51.6779 113.991 52.1325 114.077C52.5917 114.157 53.0344 114.325 53.4606 114.581C53.8915 114.837 54.2489 115.223 54.533 115.739C54.8171 116.255 54.9592 116.946 54.9592 117.812V125H53.283V123.523H53.1978C53.0842 123.759 52.8948 124.013 52.6296 124.283C52.3645 124.553 52.0117 124.782 51.5714 124.972C51.131 125.161 50.5936 125.256 49.9592 125.256ZM50.2148 123.75C50.8777 123.75 51.4364 123.62 51.891 123.359C52.3503 123.099 52.6959 122.763 52.9279 122.351C53.1647 121.939 53.283 121.506 53.283 121.051V119.517C53.212 119.602 53.0558 119.68 52.8143 119.751C52.5775 119.818 52.3029 119.877 51.9904 119.929C51.6826 119.976 51.382 120.019 51.0884 120.057C50.7996 120.09 50.5652 120.118 50.3853 120.142C49.9497 120.199 49.5425 120.291 49.1637 120.419C48.7897 120.542 48.4866 120.729 48.2546 120.98C48.0273 121.226 47.9137 121.562 47.9137 121.989C47.9137 122.571 48.1291 123.011 48.56 123.31C48.9956 123.603 49.5472 123.75 50.2148 123.75ZM56.8537 128.125V123.438H57.7628C57.9853 123.205 58.1771 122.955 58.3381 122.685C58.4991 122.415 58.6387 122.095 58.7571 121.726C58.8802 121.352 58.9844 120.897 59.0696 120.362C59.1548 119.822 59.2306 119.171 59.2969 118.409L59.6662 114.091H66.598V123.438H68.2741V128.125H66.598V125H58.5298V128.125H56.8537ZM59.6662 123.438H64.9219V115.653H61.2287L60.9446 118.409C60.8262 119.55 60.6795 120.547 60.5043 121.399C60.3291 122.251 60.0497 122.931 59.6662 123.438ZM77.8001 118.778V120.341H71.7773V118.778H77.8001ZM72.1751 114.091V125H70.4989V114.091H72.1751ZM79.0785 114.091V125H77.4023V114.091H79.0785ZM86.7134 125.227C85.6623 125.227 84.7556 124.995 83.9933 124.531C83.2357 124.062 82.6509 123.409 82.239 122.571C81.8318 121.728 81.6282 120.748 81.6282 119.631C81.6282 118.513 81.8318 117.528 82.239 116.676C82.6509 115.819 83.2238 115.152 83.9577 114.673C84.6964 114.19 85.5581 113.949 86.543 113.949C87.1112 113.949 87.6722 114.044 88.2262 114.233C88.7802 114.422 89.2844 114.73 89.739 115.156C90.1935 115.578 90.5558 116.136 90.8256 116.832C91.0955 117.528 91.2305 118.385 91.2305 119.403V120.114H82.8214V118.665H89.5259C89.5259 118.049 89.4028 117.5 89.1566 117.017C88.9151 116.534 88.5695 116.153 88.1197 115.874C87.6746 115.594 87.149 115.455 86.543 115.455C85.8754 115.455 85.2977 115.62 84.81 115.952C84.3271 116.278 83.9554 116.705 83.695 117.23C83.4345 117.756 83.3043 118.319 83.3043 118.92V119.886C83.3043 120.71 83.4464 121.409 83.7305 121.982C84.0193 122.55 84.4194 122.983 84.9308 123.281C85.4421 123.575 86.0363 123.722 86.7134 123.722C87.1538 123.722 87.5515 123.66 87.9066 123.537C88.2665 123.409 88.5766 123.22 88.837 122.969C89.0974 122.713 89.2987 122.396 89.4407 122.017L91.06 122.472C90.8896 123.021 90.6031 123.504 90.2006 123.92C89.7982 124.332 89.301 124.654 88.7092 124.886C88.1173 125.114 87.4521 125.227 86.7134 125.227ZM101.081 118.778V120.341H95.0586V118.778H101.081ZM95.4563 114.091V125H93.7802V114.091H95.4563ZM102.36 114.091V125H100.684V114.091H102.36ZM106.87 118.04H109.995C111.273 118.04 112.251 118.364 112.928 119.013C113.605 119.661 113.944 120.483 113.944 121.477C113.944 122.131 113.792 122.725 113.489 123.26C113.186 123.79 112.741 124.214 112.154 124.531C111.567 124.844 110.847 125 109.995 125H105.421V114.091H107.097V123.438H109.995C110.658 123.438 111.202 123.262 111.628 122.912C112.054 122.562 112.267 122.112 112.267 121.562C112.267 120.985 112.054 120.514 111.628 120.149C111.202 119.785 110.658 119.602 109.995 119.602H106.87V118.04ZM116.495 125V114.091H118.171V118.835H119.279L123.2 114.091H125.359L120.955 119.347L125.415 125H123.256L119.677 120.398H118.171V125H116.495ZM131.22 125.227C130.235 125.227 129.371 124.993 128.627 124.524C127.889 124.055 127.311 123.4 126.895 122.557C126.483 121.714 126.277 120.729 126.277 119.602C126.277 118.466 126.483 117.474 126.895 116.626C127.311 115.779 127.889 115.121 128.627 114.652C129.371 114.183 130.235 113.949 131.22 113.949C132.205 113.949 133.066 114.183 133.805 114.652C134.548 115.121 135.126 115.779 135.538 116.626C135.955 117.474 136.163 118.466 136.163 119.602C136.163 120.729 135.955 121.714 135.538 122.557C135.126 123.4 134.548 124.055 133.805 124.524C133.066 124.993 132.205 125.227 131.22 125.227ZM131.22 123.722C131.968 123.722 132.583 123.53 133.066 123.146C133.549 122.763 133.907 122.259 134.139 121.634C134.371 121.009 134.487 120.331 134.487 119.602C134.487 118.873 134.371 118.194 134.139 117.564C133.907 116.934 133.549 116.425 133.066 116.037C132.583 115.649 131.968 115.455 131.22 115.455C130.472 115.455 129.856 115.649 129.373 116.037C128.89 116.425 128.533 116.934 128.301 117.564C128.069 118.194 127.953 118.873 127.953 119.602C127.953 120.331 128.069 121.009 128.301 121.634C128.533 122.259 128.89 122.763 129.373 123.146C129.856 123.53 130.472 123.722 131.22 123.722Z" fill="black"/>
<path opacity="0.8" fill-rule="evenodd" clip-rule="evenodd" d="M341.938 163.027C341.957 163.461 341.957 163.974 341.957 165C341.957 166.026 341.957 166.539 341.938 166.973C341.488 177.279 333.236 185.531 322.93 185.981C322.496 186 321.983 186 320.957 186H35.4499C32.6503 186 31.2504 186 30.0737 185.859C27.8918 185.598 25.8204 184.988 23.9168 184.086C23.4322 184.236 22.937 184.376 22.4344 184.503C16.1623 186.09 0.000976562 185.999 0.000976562 185.999C0.000976562 185.999 8.82047 184.503 12.0979 177.686C12.6273 176.585 13.0112 174.19 13.2874 171.509C13.01 170.524 12.806 169.508 12.6815 168.467C12.5408 167.29 12.5408 165.891 12.5408 163.091C12.5408 160.758 12.5408 159.591 12.6581 158.611C13.5664 151.014 19.5549 145.026 27.1516 144.117C28.1322 144 29.2987 144 31.6318 144H320.957C321.983 144 322.496 144 322.93 144.019C333.236 144.469 341.488 152.721 341.938 163.027Z" fill="#BCA4FF"/>
<path d="M296.02 175.937C295.324 175.937 294.732 175.748 294.242 175.369C293.753 174.987 293.379 174.435 293.12 173.712C292.862 172.985 292.733 172.108 292.733 171.08C292.733 170.059 292.862 169.186 293.12 168.463C293.382 167.736 293.757 167.182 294.247 166.801C294.739 166.416 295.33 166.224 296.02 166.224C296.709 166.224 297.298 166.416 297.788 166.801C298.28 167.182 298.656 167.736 298.914 168.463C299.176 169.186 299.306 170.059 299.306 171.08C299.306 172.108 299.177 172.985 298.919 173.712C298.66 174.435 298.286 174.987 297.797 175.369C297.308 175.748 296.715 175.937 296.02 175.937ZM296.02 174.921C296.709 174.921 297.244 174.589 297.626 173.924C298.008 173.259 298.199 172.311 298.199 171.08C298.199 170.262 298.111 169.565 297.935 168.989C297.763 168.414 297.514 167.975 297.188 167.673C296.864 167.372 296.475 167.221 296.02 167.221C295.336 167.221 294.802 167.558 294.418 168.232C294.033 168.903 293.841 169.852 293.841 171.08C293.841 171.899 293.927 172.595 294.099 173.167C294.271 173.739 294.519 174.175 294.842 174.473C295.169 174.772 295.561 174.921 296.02 174.921ZM303.829 175.937C303.195 175.937 302.635 175.825 302.149 175.6C301.666 175.372 301.289 175.06 301.018 174.663C300.747 174.263 300.613 173.807 300.616 173.296C300.613 172.896 300.691 172.527 300.852 172.188C301.012 171.847 301.23 171.562 301.507 171.334C301.787 171.103 302.099 170.957 302.444 170.896V170.84C301.992 170.723 301.632 170.469 301.364 170.079C301.096 169.685 300.964 169.237 300.967 168.735C300.964 168.255 301.085 167.826 301.332 167.447C301.578 167.069 301.916 166.77 302.347 166.552C302.781 166.333 303.275 166.224 303.829 166.224C304.377 166.224 304.866 166.333 305.297 166.552C305.728 166.77 306.067 167.069 306.313 167.447C306.562 167.826 306.688 168.255 306.691 168.735C306.688 169.237 306.551 169.685 306.28 170.079C306.013 170.469 305.657 170.723 305.214 170.84V170.896C305.556 170.957 305.863 171.103 306.137 171.334C306.411 171.562 306.63 171.847 306.793 172.188C306.956 172.527 307.039 172.896 307.042 173.296C307.039 173.807 306.901 174.263 306.627 174.663C306.356 175.06 305.979 175.372 305.496 175.6C305.016 175.825 304.46 175.937 303.829 175.937ZM303.829 174.921C304.257 174.921 304.626 174.852 304.937 174.714C305.248 174.575 305.488 174.38 305.657 174.127C305.827 173.875 305.913 173.579 305.916 173.241C305.913 172.884 305.82 172.568 305.639 172.294C305.457 172.021 305.209 171.805 304.896 171.648C304.585 171.491 304.229 171.413 303.829 171.413C303.426 171.413 303.066 171.491 302.749 171.648C302.435 171.805 302.187 172.021 302.006 172.294C301.827 172.568 301.739 172.884 301.742 173.241C301.739 173.579 301.821 173.875 301.987 174.127C302.156 174.38 302.398 174.575 302.712 174.714C303.026 174.852 303.398 174.921 303.829 174.921ZM303.829 170.434C304.168 170.434 304.468 170.366 304.729 170.231C304.994 170.095 305.202 169.906 305.353 169.663C305.503 169.42 305.58 169.135 305.583 168.809C305.58 168.489 305.505 168.21 305.357 167.973C305.209 167.733 305.005 167.549 304.743 167.419C304.482 167.287 304.177 167.221 303.829 167.221C303.475 167.221 303.166 167.287 302.901 167.419C302.637 167.549 302.432 167.733 302.287 167.973C302.143 168.21 302.072 168.489 302.075 168.809C302.072 169.135 302.144 169.42 302.292 169.663C302.443 169.906 302.65 170.095 302.915 170.231C303.18 170.366 303.484 170.434 303.829 170.434ZM309.364 174.598C309.136 174.598 308.941 174.517 308.778 174.353C308.615 174.19 308.533 173.995 308.533 173.767C308.533 173.539 308.615 173.344 308.778 173.181C308.941 173.018 309.136 172.936 309.364 172.936C309.592 172.936 309.787 173.018 309.95 173.181C310.113 173.344 310.195 173.539 310.195 173.767C310.195 173.918 310.156 174.056 310.08 174.183C310.006 174.309 309.906 174.41 309.779 174.487C309.656 174.561 309.518 174.598 309.364 174.598ZM309.364 169.815C309.136 169.815 308.941 169.734 308.778 169.571C308.615 169.408 308.533 169.212 308.533 168.984C308.533 168.757 308.615 168.561 308.778 168.398C308.941 168.235 309.136 168.153 309.364 168.153C309.592 168.153 309.787 168.235 309.95 168.398C310.113 168.561 310.195 168.757 310.195 168.984C310.195 169.135 310.156 169.274 310.08 169.4C310.006 169.526 309.906 169.628 309.779 169.705C309.656 169.778 309.518 169.815 309.364 169.815ZM311.65 173.869V172.927L315.805 166.353H316.488V167.812H316.026L312.887 172.779V172.853H318.482V173.869H311.65ZM316.1 175.808V173.582V173.144V166.353H317.19V175.808H316.1ZM323.092 175.937C322.704 175.931 322.316 175.857 321.928 175.715C321.54 175.574 321.187 175.335 320.866 175C320.546 174.661 320.289 174.204 320.095 173.629C319.902 173.05 319.805 172.324 319.805 171.45C319.805 170.613 319.883 169.871 320.04 169.225C320.197 168.575 320.425 168.029 320.723 167.586C321.022 167.139 321.382 166.801 321.804 166.57C322.228 166.339 322.707 166.224 323.239 166.224C323.769 166.224 324.24 166.33 324.652 166.542C325.067 166.752 325.406 167.044 325.668 167.419C325.929 167.795 326.098 168.227 326.175 168.717H325.049C324.944 168.292 324.741 167.94 324.44 167.66C324.138 167.379 323.738 167.239 323.239 167.239C322.507 167.239 321.93 167.558 321.508 168.195C321.09 168.832 320.879 169.726 320.876 170.877H320.95C321.122 170.616 321.327 170.392 321.564 170.208C321.804 170.02 322.068 169.875 322.358 169.774C322.647 169.672 322.953 169.622 323.276 169.622C323.818 169.622 324.313 169.757 324.763 170.028C325.212 170.296 325.572 170.666 325.843 171.14C326.114 171.611 326.249 172.151 326.249 172.761C326.249 173.345 326.118 173.881 325.857 174.367C325.595 174.85 325.227 175.235 324.754 175.521C324.283 175.805 323.729 175.943 323.092 175.937ZM323.092 174.921C323.479 174.921 323.827 174.824 324.135 174.63C324.446 174.437 324.69 174.176 324.869 173.85C325.05 173.524 325.141 173.161 325.141 172.761C325.141 172.37 325.054 172.014 324.878 171.694C324.706 171.371 324.467 171.114 324.163 170.923C323.861 170.733 323.516 170.637 323.129 170.637C322.836 170.637 322.564 170.696 322.311 170.813C322.059 170.926 321.837 171.083 321.647 171.283C321.459 171.484 321.311 171.713 321.203 171.971C321.096 172.227 321.042 172.496 321.042 172.779C321.042 173.155 321.13 173.506 321.305 173.832C321.483 174.158 321.727 174.421 322.034 174.621C322.345 174.821 322.698 174.921 323.092 174.921Z" fill="#421DFF"/>
<path d="M26.7184 172V157.455H31.8036C32.8169 157.455 33.6526 157.63 34.3107 157.98C34.9689 158.326 35.4589 158.792 35.7809 159.379C36.1029 159.962 36.2638 160.608 36.2638 161.318C36.2638 161.943 36.1526 162.459 35.93 162.866C35.7122 163.274 35.4234 163.596 35.0636 163.832C34.7085 164.069 34.3226 164.244 33.9059 164.358V164.5C34.351 164.528 34.7984 164.685 35.2482 164.969C35.698 165.253 36.0745 165.66 36.3775 166.19C36.6805 166.721 36.832 167.369 36.832 168.136C36.832 168.866 36.6663 169.521 36.3349 170.104C36.0034 170.686 35.4802 171.148 34.7653 171.489C34.0503 171.83 33.1199 172 31.9741 172H26.7184ZM28.4798 170.438H31.9741C33.1246 170.438 33.9414 170.215 34.4244 169.77C34.9121 169.32 35.1559 168.776 35.1559 168.136C35.1559 167.644 35.0304 167.189 34.7795 166.773C34.5285 166.351 34.171 166.015 33.707 165.764C33.243 165.509 32.6938 165.381 32.0593 165.381H28.4798V170.438ZM28.4798 163.847H31.7468C32.2771 163.847 32.7553 163.742 33.1815 163.534C33.6123 163.326 33.9532 163.032 34.2042 162.653C34.4599 162.275 34.5877 161.83 34.5877 161.318C34.5877 160.679 34.3652 160.137 33.9201 159.692C33.475 159.242 32.7695 159.017 31.8036 159.017H28.4798V163.847ZM44.0728 172.227C43.0217 172.227 42.1149 171.995 41.3526 171.531C40.5951 171.062 40.0103 170.409 39.5984 169.571C39.1912 168.728 38.9876 167.748 38.9876 166.631C38.9876 165.513 39.1912 164.528 39.5984 163.676C40.0103 162.819 40.5832 162.152 41.3171 161.673C42.0558 161.19 42.9175 160.949 43.9023 160.949C44.4705 160.949 45.0316 161.044 45.5856 161.233C46.1396 161.422 46.6438 161.73 47.0984 162.156C47.5529 162.578 47.9151 163.136 48.185 163.832C48.4549 164.528 48.5898 165.385 48.5898 166.403V167.114H40.1808V165.665H46.8853C46.8853 165.049 46.7622 164.5 46.516 164.017C46.2745 163.534 45.9289 163.153 45.479 162.874C45.034 162.594 44.5084 162.455 43.9023 162.455C43.2347 162.455 42.6571 162.62 42.1694 162.952C41.6864 163.278 41.3147 163.705 41.0543 164.23C40.7939 164.756 40.6637 165.319 40.6637 165.92V166.886C40.6637 167.71 40.8058 168.409 41.0898 168.982C41.3787 169.55 41.7788 169.983 42.2901 170.281C42.8015 170.575 43.3957 170.722 44.0728 170.722C44.5131 170.722 44.9109 170.66 45.266 170.537C45.6258 170.409 45.936 170.22 46.1964 169.969C46.4568 169.713 46.658 169.396 46.8001 169.017L48.4194 169.472C48.2489 170.021 47.9625 170.504 47.56 170.92C47.1576 171.332 46.6604 171.654 46.0685 171.886C45.4767 172.114 44.8114 172.227 44.0728 172.227ZM51.1396 176.091V161.091H52.7589V162.824H52.9577C53.0808 162.634 53.2513 162.393 53.4691 162.099C53.6916 161.801 54.0089 161.536 54.4208 161.304C54.8375 161.067 55.4009 160.949 56.1112 160.949C57.0297 160.949 57.8394 161.179 58.5401 161.638C59.2409 162.097 59.7878 162.748 60.1808 163.591C60.5737 164.434 60.7702 165.428 60.7702 166.574C60.7702 167.729 60.5737 168.731 60.1808 169.578C59.7878 170.421 59.2433 171.074 58.5472 171.538C57.8512 171.998 57.0487 172.227 56.1396 172.227C55.4388 172.227 54.8777 172.111 54.4563 171.879C54.0349 171.643 53.7106 171.375 53.4833 171.077C53.256 170.774 53.0808 170.523 52.9577 170.324H52.8157V176.091H51.1396ZM52.7873 166.545C52.7873 167.369 52.908 168.096 53.1495 168.726C53.391 169.351 53.7437 169.841 54.2077 170.196C54.6718 170.546 55.2399 170.722 55.9123 170.722C56.613 170.722 57.1978 170.537 57.6665 170.168C58.14 169.794 58.4951 169.292 58.7319 168.662C58.9734 168.027 59.0941 167.322 59.0941 166.545C59.0941 165.778 58.9757 165.087 58.739 164.472C58.507 163.851 58.1542 163.361 57.6808 163.001C57.212 162.637 56.6225 162.455 55.9123 162.455C55.2305 162.455 54.6576 162.627 54.1935 162.973C53.7295 163.314 53.3791 163.792 53.1424 164.408C52.9057 165.018 52.7873 165.731 52.7873 166.545ZM70.6282 165.778V167.341H64.6055V165.778H70.6282ZM65.0032 161.091V172H63.3271V161.091H65.0032ZM71.9066 161.091V172H70.2305V161.091H71.9066ZM75.6566 176.091C75.3725 176.091 75.1192 176.067 74.8967 176.02C74.6741 175.977 74.5202 175.935 74.435 175.892L74.8612 174.415C75.2683 174.519 75.6282 174.557 75.9407 174.528C76.2532 174.5 76.5302 174.36 76.7717 174.109C77.0179 173.863 77.2428 173.463 77.4464 172.909L77.7589 172.057L73.7248 161.091H75.543L78.5543 169.784H78.668L81.6793 161.091H83.4975L78.8668 173.591C78.6585 174.154 78.4004 174.621 78.0927 174.99C77.7849 175.364 77.4274 175.641 77.0202 175.821C76.6178 176.001 76.1632 176.091 75.6566 176.091ZM89.7511 172.227C88.7283 172.227 87.8477 171.986 87.109 171.503C86.3704 171.02 85.8022 170.355 85.4045 169.507C85.0067 168.66 84.8079 167.691 84.8079 166.602C84.8079 165.494 85.0115 164.517 85.4187 163.669C85.8306 162.817 86.4035 162.152 87.1374 161.673C87.8761 161.19 88.7378 160.949 89.7227 160.949C90.4897 160.949 91.181 161.091 91.7965 161.375C92.4121 161.659 92.9163 162.057 93.3093 162.568C93.7023 163.08 93.9461 163.676 94.0408 164.358H92.3647C92.2369 163.861 91.9528 163.42 91.5124 163.037C91.0768 162.649 90.4897 162.455 89.7511 162.455C89.0977 162.455 88.5247 162.625 88.0323 162.966C87.5446 163.302 87.1635 163.778 86.8888 164.393C86.619 165.004 86.484 165.722 86.484 166.545C86.484 167.388 86.6166 168.122 86.8817 168.747C87.1516 169.372 87.5304 169.857 88.0181 170.203C88.5105 170.549 89.0882 170.722 89.7511 170.722C90.1867 170.722 90.582 170.646 90.9371 170.494C91.2923 170.343 91.5929 170.125 91.8391 169.841C92.0853 169.557 92.2605 169.216 92.3647 168.818H94.0408C93.9461 169.462 93.7118 170.042 93.3377 170.558C92.9684 171.07 92.4783 171.477 91.8675 171.78C91.2615 172.078 90.556 172.227 89.7511 172.227ZM97.94 165.04H101.065C102.343 165.04 103.321 165.364 103.998 166.013C104.675 166.661 105.014 167.483 105.014 168.477C105.014 169.131 104.862 169.725 104.559 170.26C104.256 170.79 103.811 171.214 103.224 171.531C102.637 171.844 101.917 172 101.065 172H96.4911V161.091H98.1673V170.438H101.065C101.728 170.438 102.272 170.262 102.699 169.912C103.125 169.562 103.338 169.112 103.338 168.562C103.338 167.985 103.125 167.514 102.699 167.149C102.272 166.785 101.728 166.602 101.065 166.602H97.94V165.04ZM120.491 165.778V167.341H114.469V165.778H120.491ZM114.866 161.091V172H113.19V161.091H114.866ZM121.77 161.091V172H120.094V161.091H121.77ZM128.041 172.256C127.35 172.256 126.723 172.125 126.159 171.865C125.596 171.6 125.148 171.219 124.817 170.722C124.485 170.22 124.32 169.614 124.32 168.903C124.32 168.278 124.443 167.772 124.689 167.384C124.935 166.991 125.264 166.683 125.676 166.46C126.088 166.238 126.543 166.072 127.04 165.963C127.542 165.849 128.046 165.759 128.553 165.693C129.215 165.608 129.753 165.544 130.165 165.501C130.581 165.454 130.884 165.376 131.074 165.267C131.268 165.158 131.365 164.969 131.365 164.699V164.642C131.365 163.941 131.173 163.397 130.79 163.009C130.411 162.62 129.836 162.426 129.064 162.426C128.264 162.426 127.636 162.601 127.182 162.952C126.727 163.302 126.408 163.676 126.223 164.074L124.632 163.506C124.916 162.843 125.295 162.327 125.768 161.957C126.247 161.583 126.768 161.323 127.331 161.176C127.899 161.025 128.458 160.949 129.007 160.949C129.357 160.949 129.76 160.991 130.214 161.077C130.674 161.157 131.116 161.325 131.543 161.581C131.973 161.837 132.331 162.223 132.615 162.739C132.899 163.255 133.041 163.946 133.041 164.812V172H131.365V170.523H131.28C131.166 170.759 130.977 171.013 130.712 171.283C130.446 171.553 130.094 171.782 129.653 171.972C129.213 172.161 128.676 172.256 128.041 172.256ZM128.297 170.75C128.96 170.75 129.518 170.62 129.973 170.359C130.432 170.099 130.778 169.763 131.01 169.351C131.247 168.939 131.365 168.506 131.365 168.051V166.517C131.294 166.602 131.138 166.68 130.896 166.751C130.66 166.818 130.385 166.877 130.072 166.929C129.765 166.976 129.464 167.019 129.17 167.057C128.882 167.09 128.647 167.118 128.467 167.142C128.032 167.199 127.625 167.291 127.246 167.419C126.872 167.542 126.569 167.729 126.337 167.98C126.109 168.226 125.996 168.562 125.996 168.989C125.996 169.571 126.211 170.011 126.642 170.31C127.078 170.603 127.629 170.75 128.297 170.75ZM148.458 161.091V162.653H143.402V172H141.725V161.091H148.458ZM149.021 172V170.438H149.419C149.746 170.438 150.018 170.374 150.236 170.246C150.454 170.113 150.629 169.884 150.761 169.557C150.899 169.225 151.003 168.766 151.074 168.179C151.15 167.587 151.204 166.834 151.237 165.92L151.436 161.091H158.709V172H157.033V162.653H153.027L152.857 166.545C152.819 167.44 152.738 168.229 152.615 168.911C152.497 169.588 152.314 170.156 152.068 170.615C151.827 171.074 151.505 171.42 151.102 171.652C150.7 171.884 150.196 172 149.589 172H149.021ZM164.994 172.256C164.303 172.256 163.676 172.125 163.112 171.865C162.549 171.6 162.101 171.219 161.77 170.722C161.438 170.22 161.273 169.614 161.273 168.903C161.273 168.278 161.396 167.772 161.642 167.384C161.888 166.991 162.217 166.683 162.629 166.46C163.041 166.238 163.496 166.072 163.993 165.963C164.495 165.849 164.999 165.759 165.506 165.693C166.169 165.608 166.706 165.544 167.118 165.501C167.535 165.454 167.838 165.376 168.027 165.267C168.221 165.158 168.318 164.969 168.318 164.699V164.642C168.318 163.941 168.126 163.397 167.743 163.009C167.364 162.62 166.789 162.426 166.017 162.426C165.217 162.426 164.589 162.601 164.135 162.952C163.68 163.302 163.361 163.676 163.176 164.074L161.585 163.506C161.869 162.843 162.248 162.327 162.722 161.957C163.2 161.583 163.721 161.323 164.284 161.176C164.852 161.025 165.411 160.949 165.96 160.949C166.311 160.949 166.713 160.991 167.168 161.077C167.627 161.157 168.07 161.325 168.496 161.581C168.927 161.837 169.284 162.223 169.568 162.739C169.852 163.255 169.994 163.946 169.994 164.812V172H168.318V170.523H168.233C168.119 170.759 167.93 171.013 167.665 171.283C167.4 171.553 167.047 171.782 166.607 171.972C166.166 172.161 165.629 172.256 164.994 172.256ZM165.25 170.75C165.913 170.75 166.472 170.62 166.926 170.359C167.385 170.099 167.731 169.763 167.963 169.351C168.2 168.939 168.318 168.506 168.318 168.051V166.517C168.247 166.602 168.091 166.68 167.849 166.751C167.613 166.818 167.338 166.877 167.026 166.929C166.718 166.976 166.417 167.019 166.124 167.057C165.835 167.09 165.6 167.118 165.42 167.142C164.985 167.199 164.578 167.291 164.199 167.419C163.825 167.542 163.522 167.729 163.29 167.98C163.063 168.226 162.949 168.562 162.949 168.989C162.949 169.571 163.164 170.011 163.595 170.31C164.031 170.603 164.582 170.75 165.25 170.75ZM173.054 172V161.091H177.514C178.688 161.091 179.621 161.356 180.312 161.886C181.003 162.417 181.349 163.117 181.349 163.989C181.349 164.652 181.153 165.165 180.76 165.53C180.367 165.89 179.862 166.134 179.247 166.261C179.649 166.318 180.04 166.46 180.419 166.688C180.802 166.915 181.119 167.227 181.37 167.625C181.621 168.018 181.747 168.501 181.747 169.074C181.747 169.633 181.605 170.132 181.321 170.572C181.037 171.013 180.629 171.361 180.099 171.616C179.569 171.872 178.934 172 178.196 172H173.054ZM174.645 170.466H178.196C178.773 170.466 179.225 170.329 179.552 170.054C179.879 169.779 180.042 169.405 180.042 168.932C180.042 168.368 179.879 167.926 179.552 167.604C179.225 167.277 178.773 167.114 178.196 167.114H174.645V170.466ZM174.645 165.665H177.514C177.964 165.665 178.35 165.603 178.672 165.48C178.993 165.352 179.24 165.172 179.41 164.94C179.585 164.704 179.673 164.424 179.673 164.102C179.673 163.643 179.481 163.283 179.098 163.023C178.714 162.758 178.186 162.625 177.514 162.625H174.645V165.665ZM191.585 165.778V167.341H185.562V165.778H191.585ZM185.96 161.091V172H184.284V161.091H185.96ZM192.864 161.091V172H191.188V161.091H192.864ZM196.614 176.091C196.33 176.091 196.076 176.067 195.854 176.02C195.631 175.977 195.477 175.935 195.392 175.892L195.818 174.415C196.225 174.519 196.585 174.557 196.898 174.528C197.21 174.5 197.487 174.36 197.729 174.109C197.975 173.863 198.2 173.463 198.403 172.909L198.716 172.057L194.682 161.091H196.5L199.511 169.784H199.625L202.636 161.091H204.455L199.824 173.591C199.616 174.154 199.357 174.621 199.05 174.99C198.742 175.364 198.384 175.641 197.977 175.821C197.575 176.001 197.12 176.091 196.614 176.091ZM211.894 165.864V167.426H206.127V165.864H211.894ZM207.548 161.091V172H205.871V161.091H207.548ZM215.246 172.227C214.262 172.227 213.397 171.993 212.654 171.524C211.915 171.055 211.338 170.4 210.921 169.557C210.509 168.714 210.303 167.729 210.303 166.602C210.303 165.466 210.509 164.474 210.921 163.626C211.338 162.779 211.915 162.121 212.654 161.652C213.397 161.183 214.262 160.949 215.246 160.949C216.231 160.949 217.093 161.183 217.832 161.652C218.575 162.121 219.153 162.779 219.565 163.626C219.981 164.474 220.19 165.466 220.19 166.602C220.19 167.729 219.981 168.714 219.565 169.557C219.153 170.4 218.575 171.055 217.832 171.524C217.093 171.993 216.231 172.227 215.246 172.227ZM215.246 170.722C215.995 170.722 216.61 170.53 217.093 170.146C217.576 169.763 217.933 169.259 218.165 168.634C218.397 168.009 218.513 167.331 218.513 166.602C218.513 165.873 218.397 165.194 218.165 164.564C217.933 163.934 217.576 163.425 217.093 163.037C216.61 162.649 215.995 162.455 215.246 162.455C214.498 162.455 213.883 162.649 213.4 163.037C212.917 163.425 212.559 163.934 212.327 164.564C212.095 165.194 211.979 165.873 211.979 166.602C211.979 167.331 212.095 168.009 212.327 168.634C212.559 169.259 212.917 169.763 213.4 170.146C213.883 170.53 214.498 170.722 215.246 170.722ZM227.917 162.653V161.091H236.781V162.653H233.201V172H231.525V162.653H227.917ZM243.091 172.227C242.106 172.227 241.242 171.993 240.499 171.524C239.76 171.055 239.182 170.4 238.766 169.557C238.354 168.714 238.148 167.729 238.148 166.602C238.148 165.466 238.354 164.474 238.766 163.626C239.182 162.779 239.76 162.121 240.499 161.652C241.242 161.183 242.106 160.949 243.091 160.949C244.076 160.949 244.938 161.183 245.676 161.652C246.42 162.121 246.997 162.779 247.409 163.626C247.826 164.474 248.034 165.466 248.034 166.602C248.034 167.729 247.826 168.714 247.409 169.557C246.997 170.4 246.42 171.055 245.676 171.524C244.938 171.993 244.076 172.227 243.091 172.227ZM243.091 170.722C243.839 170.722 244.455 170.53 244.938 170.146C245.42 169.763 245.778 169.259 246.01 168.634C246.242 168.009 246.358 167.331 246.358 166.602C246.358 165.873 246.242 165.194 246.01 164.564C245.778 163.934 245.42 163.425 244.938 163.037C244.455 162.649 243.839 162.455 243.091 162.455C242.343 162.455 241.727 162.649 241.244 163.037C240.761 163.425 240.404 163.934 240.172 164.564C239.94 165.194 239.824 165.873 239.824 166.602C239.824 167.331 239.94 168.009 240.172 168.634C240.404 169.259 240.761 169.763 241.244 170.146C241.727 170.53 242.343 170.722 243.091 170.722ZM257.326 161.091V162.653H252.269V172H250.593V161.091H257.326ZM257.69 175.125V170.438H258.599C258.821 170.205 259.013 169.955 259.174 169.685C259.335 169.415 259.475 169.095 259.593 168.726C259.716 168.352 259.82 167.897 259.906 167.362C259.991 166.822 260.067 166.171 260.133 165.409L260.502 161.091H267.434V170.438H269.11V175.125H267.434V172H259.366V175.125H257.69ZM260.502 170.438H265.758V162.653H262.065L261.781 165.409C261.662 166.55 261.515 167.547 261.34 168.399C261.165 169.251 260.886 169.931 260.502 170.438ZM274.545 172.256C273.854 172.256 273.226 172.125 272.663 171.865C272.1 171.6 271.652 171.219 271.321 170.722C270.989 170.22 270.824 169.614 270.824 168.903C270.824 168.278 270.947 167.772 271.193 167.384C271.439 166.991 271.768 166.683 272.18 166.46C272.592 166.238 273.047 166.072 273.544 165.963C274.046 165.849 274.55 165.759 275.056 165.693C275.719 165.608 276.257 165.544 276.669 165.501C277.085 165.454 277.388 165.376 277.578 165.267C277.772 165.158 277.869 164.969 277.869 164.699V164.642C277.869 163.941 277.677 163.397 277.294 163.009C276.915 162.62 276.34 162.426 275.568 162.426C274.768 162.426 274.14 162.601 273.686 162.952C273.231 163.302 272.912 163.676 272.727 164.074L271.136 163.506C271.42 162.843 271.799 162.327 272.272 161.957C272.751 161.583 273.271 161.323 273.835 161.176C274.403 161.025 274.962 160.949 275.511 160.949C275.861 160.949 276.264 160.991 276.718 161.077C277.178 161.157 277.62 161.325 278.047 161.581C278.477 161.837 278.835 162.223 279.119 162.739C279.403 163.255 279.545 163.946 279.545 164.812V172H277.869V170.523H277.784C277.67 170.759 277.481 171.013 277.216 171.283C276.95 171.553 276.598 171.782 276.157 171.972C275.717 172.161 275.18 172.256 274.545 172.256ZM274.801 170.75C275.464 170.75 276.022 170.62 276.477 170.359C276.936 170.099 277.282 169.763 277.514 169.351C277.751 168.939 277.869 168.506 277.869 168.051V166.517C277.798 166.602 277.642 166.68 277.4 166.751C277.163 166.818 276.889 166.877 276.576 166.929C276.269 166.976 275.968 167.019 275.674 167.057C275.386 167.09 275.151 167.118 274.971 167.142C274.536 167.199 274.128 167.291 273.75 167.419C273.376 167.542 273.073 167.729 272.841 167.98C272.613 168.226 272.5 168.562 272.5 168.989C272.5 169.571 272.715 170.011 273.146 170.31C273.582 170.603 274.133 170.75 274.801 170.75Z" fill="black"/>
</svg>
