<svg width="582" height="186" viewBox="0 0 582 186" fill="none" xmlns="http://www.w3.org/2000/svg">
<path opacity="0.9" d="M193 21.5C193 9.62588 202.626 0 214.5 0H541.333C548.835 0 552.586 0 555.628 0.965207C562.01 2.99048 567.01 7.99042 569.035 14.3724C570 17.4139 570 21.1648 570 28.6667C570 32.4176 570 34.2931 569.517 35.8138C568.505 39.0048 566.005 41.5048 562.814 42.5174C561.293 43 559.418 43 555.667 43H214.5C202.626 43 193 33.3741 193 21.5Z" fill="#D4C5FF"/>
<path d="M217.827 29.0737L212.633 22.1384H210.774V29.0737H208.944V13.9636H210.774V20.5153H211.57L217.62 13.9636H219.804L213.695 20.6038L220.011 29.0737H217.827ZM225.474 29.3393C224.756 29.3393 224.104 29.2041 223.519 28.9335C222.934 28.6581 222.469 28.2622 222.125 27.7457C221.78 27.2243 221.608 26.5947 221.608 25.8569C221.608 25.2077 221.736 24.6814 221.992 24.278C222.248 23.8698 222.589 23.5501 223.017 23.3189C223.445 23.0877 223.917 22.9156 224.434 22.8024C224.955 22.6844 225.479 22.5909 226.005 22.5221C226.694 22.4335 227.252 22.3671 227.68 22.3229C228.113 22.2737 228.428 22.1925 228.625 22.0794C228.826 21.9663 228.927 21.7695 228.927 21.4891V21.4301C228.927 20.7022 228.728 20.1365 228.33 19.7332C227.936 19.3299 227.338 19.1282 226.537 19.1282C225.705 19.1282 225.054 19.3102 224.582 19.6742C224.109 20.0381 223.777 20.4267 223.585 20.8399L221.933 20.2496C222.228 19.561 222.621 19.0249 223.113 18.6412C223.61 18.2527 224.151 17.9821 224.736 17.8297C225.327 17.6723 225.907 17.5936 226.478 17.5936C226.842 17.5936 227.26 17.6378 227.732 17.7264C228.209 17.81 228.669 17.9846 229.112 18.2502C229.559 18.5158 229.931 18.9167 230.226 19.4528C230.521 19.989 230.668 20.7071 230.668 21.6072V29.0737H228.927V27.5391H228.839C228.721 27.785 228.524 28.0482 228.248 28.3286C227.973 28.6089 227.606 28.8475 227.149 29.0442C226.692 29.241 226.133 29.3393 225.474 29.3393ZM225.74 27.7752C226.428 27.7752 227.009 27.6399 227.481 27.3694C227.958 27.0989 228.317 26.7497 228.558 26.3217C228.804 25.8938 228.927 25.4438 228.927 24.9716V23.3779C228.853 23.4665 228.691 23.5476 228.44 23.6214C228.194 23.6903 227.909 23.7517 227.584 23.8058C227.265 23.855 226.952 23.8993 226.647 23.9386C226.347 23.9731 226.104 24.0026 225.917 24.0272C225.464 24.0862 225.041 24.1821 224.648 24.3149C224.259 24.4428 223.945 24.6371 223.704 24.8978C223.467 25.1536 223.349 25.5028 223.349 25.9455C223.349 26.5505 223.573 27.0079 224.021 27.3178C224.473 27.6227 225.046 27.7752 225.74 27.7752ZM233.138 29.0737L237.742 23.3189L233.197 17.7411H235.263L239.041 22.5811H239.985V17.7411H241.726V22.5811H242.641L246.419 17.7411H248.484L243.969 23.3189L248.543 29.0737H246.448L242.611 24.2043H241.726V29.0737H239.985V24.2043H239.1L235.233 29.0737H233.138ZM255.316 29.3098C254.224 29.3098 253.283 29.0688 252.491 28.5868C251.704 28.0998 251.096 27.4211 250.668 26.5505C250.245 25.6749 250.034 24.6568 250.034 23.496C250.034 22.3352 250.245 21.3121 250.668 20.4267C251.096 19.5364 251.691 18.8429 252.454 18.3461C253.221 17.8444 254.116 17.5936 255.139 17.5936C255.73 17.5936 256.312 17.6919 256.888 17.8887C257.463 18.0854 257.987 18.4051 258.459 18.8478C258.932 19.2856 259.308 19.866 259.588 20.589C259.869 21.3121 260.009 22.2024 260.009 23.2599V23.9977H251.273V22.4926H258.238C258.238 21.8531 258.11 21.2826 257.854 20.7809C257.604 20.2792 257.245 19.8832 256.777 19.593C256.315 19.3028 255.769 19.1577 255.139 19.1577C254.446 19.1577 253.846 19.3299 253.339 19.6742C252.837 20.0135 252.451 20.4562 252.181 21.0022C251.91 21.5482 251.775 22.1335 251.775 22.7582V23.7616C251.775 24.6174 251.923 25.3429 252.218 25.9381C252.518 26.5283 252.933 26.9784 253.465 27.2883C253.996 27.5932 254.613 27.7457 255.316 27.7457C255.774 27.7457 256.187 27.6817 256.556 27.5539C256.93 27.4211 257.252 27.2243 257.522 26.9636C257.793 26.698 258.002 26.3685 258.15 25.975L259.832 26.4472C259.655 27.0177 259.357 27.5194 258.939 27.9523C258.521 28.3802 258.004 28.7147 257.39 28.9557C256.775 29.1918 256.084 29.3098 255.316 29.3098ZM261.602 19.3643V17.7411H270.81V19.3643H267.092V29.0737H265.35V19.3643H261.602ZM277.366 29.3098C276.303 29.3098 275.388 29.059 274.621 28.5573C273.854 28.0556 273.263 27.3645 272.85 26.4841C272.437 25.6036 272.23 24.5977 272.23 23.4665C272.23 22.3155 272.442 21.2998 272.865 20.4193C273.293 19.534 273.888 18.8429 274.65 18.3461C275.418 17.8444 276.313 17.5936 277.336 17.5936C278.133 17.5936 278.851 17.7411 279.49 18.0362C280.13 18.3314 280.654 18.7445 281.062 19.2757C281.47 19.807 281.723 20.4267 281.822 21.135H280.081C279.948 20.6185 279.653 20.1611 279.195 19.7627C278.743 19.3594 278.133 19.1577 277.366 19.1577C276.687 19.1577 276.092 19.3348 275.58 19.6889C275.073 20.0381 274.678 20.5325 274.392 21.1719C274.112 21.8064 273.972 22.5516 273.972 23.4074C273.972 24.283 274.109 25.0453 274.385 25.6946C274.665 26.3439 275.059 26.848 275.565 27.2071C276.077 27.5662 276.677 27.7457 277.366 27.7457C277.818 27.7457 278.229 27.667 278.598 27.5096C278.967 27.3522 279.279 27.1259 279.535 26.8308C279.79 26.5357 279.972 26.1816 280.081 25.7684H281.822C281.723 26.4373 281.48 27.0399 281.091 27.576C280.708 28.1072 280.199 28.5302 279.564 28.845C278.935 29.1549 278.202 29.3098 277.366 29.3098ZM291.185 29.0737V19.3348H288.174C287.496 19.3348 286.962 19.4922 286.573 19.807C286.185 20.1218 285.99 20.5546 285.99 21.1055C285.99 21.6465 286.165 22.072 286.514 22.3819C286.868 22.6918 287.353 22.8467 287.968 22.8467H291.627V24.4699H287.968C287.2 24.4699 286.539 24.3346 285.983 24.0641C285.427 23.7935 284.999 23.4074 284.699 22.9057C284.399 22.3991 284.249 21.799 284.249 21.1055C284.249 20.407 284.407 19.807 284.721 19.3053C285.036 18.8036 285.486 18.4174 286.072 18.1469C286.662 17.8764 287.363 17.7411 288.174 17.7411H292.837V29.0737H291.185ZM283.629 29.0737L286.846 23.4369H288.735L285.518 29.0737H283.629ZM298.631 27.0079L298.513 27.8047C298.429 28.3654 298.301 28.9655 298.129 29.6049C297.962 30.2444 297.787 30.8469 297.605 31.4126C297.423 31.9782 297.273 32.4283 297.155 32.7627H295.827C295.891 32.4479 295.975 32.0323 296.078 31.5158C296.181 30.9994 296.285 30.4214 296.388 29.782C296.496 29.1475 296.585 28.4982 296.653 27.8342L296.742 27.0079H298.631ZM312.304 29.3098C311.242 29.3098 310.327 29.059 309.559 28.5573C308.792 28.0556 308.202 27.3645 307.789 26.4841C307.376 25.6036 307.169 24.5977 307.169 23.4665C307.169 22.3155 307.38 21.2998 307.803 20.4193C308.231 19.534 308.827 18.8429 309.589 18.3461C310.356 17.8444 311.251 17.5936 312.275 17.5936C313.071 17.5936 313.789 17.7411 314.429 18.0362C315.068 18.3314 315.592 18.7445 316 19.2757C316.409 19.807 316.662 20.4267 316.76 21.135H315.019C314.886 20.6185 314.591 20.1611 314.134 19.7627C313.681 19.3594 313.071 19.1577 312.304 19.1577C311.625 19.1577 311.03 19.3348 310.519 19.6889C310.012 20.0381 309.616 20.5325 309.331 21.1719C309.05 21.8064 308.91 22.5516 308.91 23.4074C308.91 24.283 309.048 25.0453 309.323 25.6946C309.604 26.3439 309.997 26.848 310.504 27.2071C311.015 27.5662 311.615 27.7457 312.304 27.7457C312.757 27.7457 313.167 27.667 313.536 27.5096C313.905 27.3522 314.217 27.1259 314.473 26.8308C314.729 26.5357 314.911 26.1816 315.019 25.7684H316.76C316.662 26.4373 316.419 27.0399 316.03 27.576C315.646 28.1072 315.137 28.5302 314.503 28.845C313.873 29.1549 313.14 29.3098 312.304 29.3098ZM318.413 19.3643V17.7411H327.621V19.3643H323.902V29.0737H322.161V19.3643H318.413ZM330.161 33.3235V17.7411H331.843V19.5414H332.049C332.177 19.3446 332.354 19.0938 332.581 18.7888C332.812 18.4789 333.141 18.2035 333.569 17.9625C334.002 17.7165 334.587 17.5936 335.325 17.5936C336.279 17.5936 337.121 17.8321 337.849 18.3092C338.577 18.7863 339.145 19.4627 339.553 20.3382C339.961 21.2137 340.165 22.2466 340.165 23.4369C340.165 24.6371 339.961 25.6774 339.553 26.5578C339.145 27.4334 338.579 28.1121 337.856 28.5942C337.133 29.0713 336.299 29.3098 335.355 29.3098C334.627 29.3098 334.044 29.1893 333.606 28.9483C333.168 28.7024 332.831 28.4245 332.595 28.1146C332.359 27.7998 332.177 27.5391 332.049 27.3325H331.902V33.3235H330.161ZM331.872 23.4074C331.872 24.2633 331.998 25.0183 332.249 25.6725C332.499 26.3217 332.866 26.8308 333.348 27.1997C333.83 27.5637 334.42 27.7457 335.119 27.7457C335.847 27.7457 336.454 27.5539 336.941 27.1702C337.433 26.7816 337.802 26.2603 338.048 25.6061C338.299 24.947 338.424 24.2141 338.424 23.4074C338.424 22.6106 338.301 21.8925 338.055 21.2531C337.814 20.6087 337.448 20.0996 336.956 19.7258C336.469 19.3471 335.856 19.1577 335.119 19.1577C334.41 19.1577 333.815 19.3372 333.333 19.6963C332.851 20.0504 332.487 20.5472 332.241 21.1867C331.995 21.8212 331.872 22.5614 331.872 23.4074ZM346.156 29.3393C345.438 29.3393 344.786 29.2041 344.201 28.9335C343.616 28.6581 343.151 28.2622 342.807 27.7457C342.462 27.2243 342.29 26.5947 342.29 25.8569C342.29 25.2077 342.418 24.6814 342.674 24.278C342.93 23.8698 343.271 23.5501 343.699 23.3189C344.127 23.0877 344.599 22.9156 345.116 22.8024C345.637 22.6844 346.161 22.5909 346.687 22.5221C347.376 22.4335 347.934 22.3671 348.362 22.3229C348.795 22.2737 349.11 22.1925 349.307 22.0794C349.508 21.9663 349.609 21.7695 349.609 21.4891V21.4301C349.609 20.7022 349.41 20.1365 349.011 19.7332C348.618 19.3299 348.02 19.1282 347.219 19.1282C346.387 19.1282 345.736 19.3102 345.263 19.6742C344.791 20.0381 344.459 20.4267 344.267 20.8399L342.615 20.2496C342.91 19.561 343.303 19.0249 343.795 18.6412C344.292 18.2527 344.833 17.9821 345.418 17.8297C346.009 17.6723 346.589 17.5936 347.16 17.5936C347.524 17.5936 347.942 17.6378 348.414 17.7264C348.891 17.81 349.351 17.9846 349.794 18.2502C350.241 18.5158 350.612 18.9167 350.908 19.4528C351.203 19.989 351.35 20.7071 351.35 21.6072V29.0737H349.609V27.5391H349.521C349.402 27.785 349.206 28.0482 348.93 28.3286C348.655 28.6089 348.288 28.8475 347.831 29.0442C347.374 29.241 346.815 29.3393 346.156 29.3393ZM346.422 27.7752C347.11 27.7752 347.691 27.6399 348.163 27.3694C348.64 27.0989 348.999 26.7497 349.24 26.3217C349.486 25.8938 349.609 25.4438 349.609 24.9716V23.3779C349.535 23.4665 349.373 23.5476 349.122 23.6214C348.876 23.6903 348.591 23.7517 348.266 23.8058C347.947 23.855 347.634 23.8993 347.329 23.9386C347.029 23.9731 346.786 24.0026 346.599 24.0272C346.146 24.0862 345.723 24.1821 345.33 24.3149C344.941 24.4428 344.626 24.6371 344.385 24.8978C344.149 25.1536 344.031 25.5028 344.031 25.9455C344.031 26.5505 344.255 27.0079 344.703 27.3178C345.155 27.6227 345.728 27.7752 346.422 27.7752ZM362.113 22.6106V24.2338H355.856V22.6106H362.113ZM356.27 17.7411V29.0737H354.528V17.7411H356.27ZM363.441 17.7411V29.0737H361.7V17.7411H363.441ZM368.362 26.5062L373.822 17.7411H375.829V29.0737H374.087V20.3087L368.657 29.0737H366.621V17.7411H368.362V26.5062ZM387.93 17.7411V27.4506H389.524V32.7332H387.783V29.0737H379.018V17.7411H380.759V27.4506H386.189V17.7411H387.93ZM395.541 29.3393C394.823 29.3393 394.171 29.2041 393.586 28.9335C393 28.6581 392.535 28.2622 392.191 27.7457C391.847 27.2243 391.675 26.5947 391.675 25.8569C391.675 25.2077 391.803 24.6814 392.058 24.278C392.314 23.8698 392.656 23.5501 393.084 23.3189C393.512 23.0877 393.984 22.9156 394.5 22.8024C395.022 22.6844 395.546 22.5909 396.072 22.5221C396.761 22.4335 397.319 22.3671 397.747 22.3229C398.18 22.2737 398.494 22.1925 398.691 22.0794C398.893 21.9663 398.994 21.7695 398.994 21.4891V21.4301C398.994 20.7022 398.794 20.1365 398.396 19.7332C398.003 19.3299 397.405 19.1282 396.603 19.1282C395.772 19.1282 395.12 19.3102 394.648 19.6742C394.176 20.0381 393.844 20.4267 393.652 20.8399L391.999 20.2496C392.294 19.561 392.688 19.0249 393.18 18.6412C393.677 18.2527 394.218 17.9821 394.803 17.8297C395.393 17.6723 395.974 17.5936 396.544 17.5936C396.908 17.5936 397.326 17.6378 397.798 17.7264C398.276 17.81 398.735 17.9846 399.178 18.2502C399.626 18.5158 399.997 18.9167 400.292 19.4528C400.587 19.989 400.735 20.7071 400.735 21.6072V29.0737H398.994V27.5391H398.905C398.787 27.785 398.59 28.0482 398.315 28.3286C398.039 28.6089 397.673 28.8475 397.216 29.0442C396.758 29.241 396.2 29.3393 395.541 29.3393ZM395.806 27.7752C396.495 27.7752 397.075 27.6399 397.548 27.3694C398.025 27.0989 398.384 26.7497 398.625 26.3217C398.871 25.8938 398.994 25.4438 398.994 24.9716V23.3779C398.92 23.4665 398.758 23.5476 398.507 23.6214C398.261 23.6903 397.976 23.7517 397.651 23.8058C397.331 23.855 397.019 23.8993 396.714 23.9386C396.414 23.9731 396.17 24.0026 395.983 24.0272C395.531 24.0862 395.108 24.1821 394.714 24.3149C394.326 24.4428 394.011 24.6371 393.77 24.8978C393.534 25.1536 393.416 25.5028 393.416 25.9455C393.416 26.5505 393.64 27.0079 394.087 27.3178C394.54 27.6227 395.113 27.7752 395.806 27.7752ZM409.756 29.0737V17.7411H418.669V29.0737H416.928V19.3643H411.498V29.0737H409.756ZM421.849 33.3235V17.7411H423.531V19.5414H423.738C423.866 19.3446 424.043 19.0938 424.269 18.7888C424.5 18.4789 424.83 18.2035 425.258 17.9625C425.69 17.7165 426.276 17.5936 427.013 17.5936C427.968 17.5936 428.809 17.8321 429.537 18.3092C430.265 18.7863 430.833 19.4627 431.241 20.3382C431.649 21.2137 431.853 22.2466 431.853 23.4369C431.853 24.6371 431.649 25.6774 431.241 26.5578C430.833 27.4334 430.267 28.1121 429.544 28.5942C428.821 29.0713 427.987 29.3098 427.043 29.3098C426.315 29.3098 425.732 29.1893 425.294 28.9483C424.857 28.7024 424.52 28.4245 424.284 28.1146C424.048 27.7998 423.866 27.5391 423.738 27.3325H423.59V33.3235H421.849ZM423.561 23.4074C423.561 24.2633 423.686 25.0183 423.937 25.6725C424.188 26.3217 424.554 26.8308 425.036 27.1997C425.518 27.5637 426.108 27.7457 426.807 27.7457C427.535 27.7457 428.142 27.5539 428.629 27.1702C429.121 26.7816 429.49 26.2603 429.736 25.6061C429.987 24.947 430.112 24.2141 430.112 23.4074C430.112 22.6106 429.989 21.8925 429.743 21.2531C429.502 20.6087 429.136 20.0996 428.644 19.7258C428.157 19.3471 427.545 19.1577 426.807 19.1577C426.099 19.1577 425.503 19.3372 425.021 19.6963C424.539 20.0504 424.175 20.5472 423.929 21.1867C423.684 21.8212 423.561 22.5614 423.561 23.4074ZM439.113 29.3098C438.09 29.3098 437.193 29.0664 436.42 28.5794C435.653 28.0925 435.053 27.4112 434.62 26.5357C434.192 25.6602 433.978 24.6371 433.978 23.4665C433.978 22.286 434.192 21.2555 434.62 20.3751C435.053 19.4946 435.653 18.8109 436.42 18.324C437.193 17.837 438.09 17.5936 439.113 17.5936C440.136 17.5936 441.032 17.837 441.799 18.324C442.571 18.8109 443.171 19.4946 443.599 20.3751C444.032 21.2555 444.248 22.286 444.248 23.4665C444.248 24.6371 444.032 25.6602 443.599 26.5357C443.171 27.4112 442.571 28.0925 441.799 28.5794C441.032 29.0664 440.136 29.3098 439.113 29.3098ZM439.113 27.7457C439.891 27.7457 440.53 27.5465 441.032 27.1481C441.533 26.7497 441.905 26.2258 442.146 25.5766C442.387 24.9273 442.507 24.2239 442.507 23.4665C442.507 22.709 442.387 22.0031 442.146 21.349C441.905 20.6948 441.533 20.166 441.032 19.7627C440.53 19.3594 439.891 19.1577 439.113 19.1577C438.336 19.1577 437.697 19.3594 437.195 19.7627C436.693 20.166 436.322 20.6948 436.081 21.349C435.84 22.0031 435.72 22.709 435.72 23.4665C435.72 24.2239 435.84 24.9273 436.081 25.5766C436.322 26.2258 436.693 26.7497 437.195 27.1481C437.697 27.5465 438.336 27.7457 439.113 27.7457ZM446.906 29.0737V17.7411H455.819V29.0737H454.078V19.3643H448.648V29.0737H446.906ZM462.334 29.3393C461.616 29.3393 460.964 29.2041 460.379 28.9335C459.793 28.6581 459.329 28.2622 458.984 27.7457C458.64 27.2243 458.468 26.5947 458.468 25.8569C458.468 25.2077 458.596 24.6814 458.851 24.278C459.107 23.8698 459.449 23.5501 459.877 23.3189C460.305 23.0877 460.777 22.9156 461.294 22.8024C461.815 22.6844 462.339 22.5909 462.865 22.5221C463.554 22.4335 464.112 22.3671 464.54 22.3229C464.973 22.2737 465.287 22.1925 465.484 22.0794C465.686 21.9663 465.787 21.7695 465.787 21.4891V21.4301C465.787 20.7022 465.588 20.1365 465.189 19.7332C464.796 19.3299 464.198 19.1282 463.396 19.1282C462.565 19.1282 461.913 19.3102 461.441 19.6742C460.969 20.0381 460.637 20.4267 460.445 20.8399L458.792 20.2496C459.087 19.561 459.481 19.0249 459.973 18.6412C460.47 18.2527 461.011 17.9821 461.596 17.8297C462.186 17.6723 462.767 17.5936 463.337 17.5936C463.701 17.5936 464.119 17.6378 464.591 17.7264C465.069 17.81 465.528 17.9846 465.971 18.2502C466.419 18.5158 466.79 18.9167 467.085 19.4528C467.38 19.989 467.528 20.7071 467.528 21.6072V29.0737H465.787V27.5391H465.698C465.58 27.785 465.383 28.0482 465.108 28.3286C464.832 28.6089 464.466 28.8475 464.009 29.0442C463.551 29.241 462.993 29.3393 462.334 29.3393ZM462.599 27.7752C463.288 27.7752 463.868 27.6399 464.341 27.3694C464.818 27.0989 465.177 26.7497 465.418 26.3217C465.664 25.8938 465.787 25.4438 465.787 24.9716V23.3779C465.713 23.4665 465.551 23.5476 465.3 23.6214C465.054 23.6903 464.769 23.7517 464.444 23.8058C464.124 23.855 463.812 23.8993 463.507 23.9386C463.207 23.9731 462.963 24.0026 462.776 24.0272C462.324 24.0862 461.901 24.1821 461.507 24.3149C461.119 24.4428 460.804 24.6371 460.563 24.8978C460.327 25.1536 460.209 25.5028 460.209 25.9455C460.209 26.5505 460.433 27.0079 460.88 27.3178C461.333 27.6227 461.906 27.7752 462.599 27.7752ZM469.703 29.0737V27.4506H470.116C470.455 27.4506 470.738 27.3842 470.964 27.2514C471.19 27.1136 471.372 26.8751 471.51 26.5357C471.653 26.1914 471.761 25.7143 471.835 25.1044C471.914 24.4895 471.97 23.7075 472.005 22.7582L472.211 17.7411H479.766V29.0737H478.025V19.3643H473.864L473.687 23.4074C473.647 24.3371 473.564 25.156 473.436 25.8643C473.313 26.5677 473.124 27.1579 472.868 27.635C472.617 28.1121 472.282 28.4712 471.864 28.7122C471.446 28.9532 470.922 29.0737 470.293 29.0737H469.703ZM486.296 29.3393C485.578 29.3393 484.926 29.2041 484.341 28.9335C483.755 28.6581 483.29 28.2622 482.946 27.7457C482.602 27.2243 482.43 26.5947 482.43 25.8569C482.43 25.2077 482.558 24.6814 482.813 24.278C483.069 23.8698 483.411 23.5501 483.839 23.3189C484.267 23.0877 484.739 22.9156 485.255 22.8024C485.777 22.6844 486.301 22.5909 486.827 22.5221C487.516 22.4335 488.074 22.3671 488.502 22.3229C488.935 22.2737 489.249 22.1925 489.446 22.0794C489.648 21.9663 489.749 21.7695 489.749 21.4891V21.4301C489.749 20.7022 489.549 20.1365 489.151 19.7332C488.757 19.3299 488.16 19.1282 487.358 19.1282C486.527 19.1282 485.875 19.3102 485.403 19.6742C484.931 20.0381 484.599 20.4267 484.407 20.8399L482.754 20.2496C483.049 19.561 483.443 19.0249 483.935 18.6412C484.432 18.2527 484.973 17.9821 485.558 17.8297C486.148 17.6723 486.729 17.5936 487.299 17.5936C487.663 17.5936 488.081 17.6378 488.553 17.7264C489.03 17.81 489.49 17.9846 489.933 18.2502C490.381 18.5158 490.752 18.9167 491.047 19.4528C491.342 19.989 491.49 20.7071 491.49 21.6072V29.0737H489.749V27.5391H489.66C489.542 27.785 489.345 28.0482 489.07 28.3286C488.794 28.6089 488.428 28.8475 487.97 29.0442C487.513 29.241 486.955 29.3393 486.296 29.3393ZM486.561 27.7752C487.25 27.7752 487.83 27.6399 488.303 27.3694C488.78 27.0989 489.139 26.7497 489.38 26.3217C489.626 25.8938 489.749 25.4438 489.749 24.9716V23.3779C489.675 23.4665 489.512 23.5476 489.262 23.6214C489.016 23.6903 488.73 23.7517 488.406 23.8058C488.086 23.855 487.774 23.8993 487.469 23.9386C487.169 23.9731 486.925 24.0026 486.738 24.0272C486.286 24.0862 485.863 24.1821 485.469 24.3149C485.081 24.4428 484.766 24.6371 484.525 24.8978C484.289 25.1536 484.171 25.5028 484.171 25.9455C484.171 26.5505 484.395 27.0079 484.842 27.3178C485.295 27.6227 485.868 27.7752 486.561 27.7752Z" fill="black"/>
<path d="M507.029 32.3807C506.297 32.3807 505.673 32.1813 505.157 31.7825C504.642 31.3805 504.248 30.7986 503.975 30.0368C503.703 29.2717 503.567 28.3477 503.567 27.2649C503.567 26.1886 503.703 25.2695 503.975 24.5076C504.251 23.7425 504.647 23.159 505.162 22.757C505.681 22.3517 506.303 22.1491 507.029 22.1491C507.756 22.1491 508.376 22.3517 508.892 22.757C509.411 23.159 509.806 23.7425 510.078 24.5076C510.354 25.2695 510.492 26.1886 510.492 27.2649C510.492 28.3477 510.356 29.2717 510.083 30.0368C509.811 30.7986 509.417 31.3805 508.902 31.7825C508.386 32.1813 507.762 32.3807 507.029 32.3807ZM507.029 31.3108C507.756 31.3108 508.32 30.9607 508.722 30.2604C509.124 29.5602 509.325 28.5617 509.325 27.2649C509.325 26.4025 509.232 25.6682 509.047 25.062C508.866 24.4558 508.603 23.9938 508.26 23.6761C507.919 23.3584 507.509 23.1995 507.029 23.1995C506.31 23.1995 505.747 23.5545 505.342 24.2645C504.937 24.9712 504.734 25.9714 504.734 27.2649C504.734 28.1273 504.825 28.8599 505.006 29.4629C505.188 30.0659 505.449 30.5247 505.789 30.8391C506.133 31.1536 506.546 31.3108 507.029 31.3108ZM515.256 32.3807C514.588 32.3807 513.998 32.2623 513.486 32.0257C512.977 31.7858 512.58 31.4567 512.294 31.0385C512.009 30.6171 511.868 30.1373 511.871 29.5991C511.868 29.1776 511.951 28.7886 512.119 28.432C512.288 28.0721 512.518 27.7723 512.81 27.5324C513.105 27.2892 513.434 27.1352 513.797 27.0704V27.012C513.32 26.8888 512.941 26.6214 512.659 26.2096C512.377 25.7947 512.238 25.323 512.241 24.7945C512.238 24.2888 512.366 23.8366 512.625 23.4378C512.884 23.039 513.241 22.7246 513.695 22.4944C514.152 22.2642 514.672 22.1491 515.256 22.1491C515.833 22.1491 516.348 22.2642 516.802 22.4944C517.256 22.7246 517.613 23.039 517.872 23.4378C518.135 23.8366 518.268 24.2888 518.271 24.7945C518.268 25.323 518.123 25.7947 517.838 26.2096C517.556 26.6214 517.182 26.8888 516.715 27.012V27.0704C517.075 27.1352 517.399 27.2892 517.687 27.5324C517.976 27.7723 518.206 28.0721 518.378 28.432C518.55 28.7886 518.637 29.1776 518.64 29.5991C518.637 30.1373 518.491 30.6171 518.203 31.0385C517.917 31.4567 517.52 31.7858 517.011 32.0257C516.506 32.2623 515.92 32.3807 515.256 32.3807ZM515.256 31.3108C515.706 31.3108 516.095 31.2379 516.423 31.092C516.75 30.9461 517.003 30.7402 517.182 30.4744C517.36 30.2086 517.451 29.8973 517.454 29.5407C517.451 29.1647 517.353 28.8324 517.162 28.5438C516.971 28.2553 516.71 28.0284 516.379 27.863C516.052 27.6977 515.677 27.615 515.256 27.615C514.831 27.615 514.452 27.6977 514.118 27.863C513.787 28.0284 513.526 28.2553 513.335 28.5438C513.147 28.8324 513.055 29.1647 513.058 29.5407C513.055 29.8973 513.14 30.2086 513.316 30.4744C513.494 30.7402 513.748 30.9461 514.079 31.092C514.41 31.2379 514.802 31.3108 515.256 31.3108ZM515.256 26.5841C515.612 26.5841 515.929 26.5128 516.204 26.3701C516.483 26.2275 516.702 26.0281 516.861 25.772C517.019 25.5159 517.1 25.216 517.104 24.8724C517.1 24.5352 517.021 24.2418 516.865 23.9922C516.71 23.7393 516.494 23.5448 516.219 23.4086C515.943 23.2692 515.622 23.1995 515.256 23.1995C514.883 23.1995 514.557 23.2692 514.278 23.4086C514 23.5448 513.784 23.7393 513.632 23.9922C513.479 24.2418 513.405 24.5352 513.408 24.8724C513.405 25.216 513.481 25.5159 513.636 25.772C513.795 26.0281 514.014 26.2275 514.293 26.3701C514.572 26.5128 514.893 26.5841 515.256 26.5841ZM521.086 30.9704C520.846 30.9704 520.64 30.8845 520.469 30.7127C520.297 30.5409 520.211 30.335 520.211 30.0951C520.211 29.8552 520.297 29.6493 520.469 29.4775C520.64 29.3057 520.846 29.2198 521.086 29.2198C521.326 29.2198 521.532 29.3057 521.704 29.4775C521.876 29.6493 521.961 29.8552 521.961 30.0951C521.961 30.254 521.921 30.3998 521.84 30.5328C521.762 30.6657 521.657 30.7727 521.524 30.8537C521.394 30.9315 521.248 30.9704 521.086 30.9704ZM521.086 25.9325C520.846 25.9325 520.64 25.8466 520.469 25.6747C520.297 25.5029 520.211 25.297 520.211 25.0571C520.211 24.8172 520.297 24.6114 520.469 24.4396C520.64 24.2677 520.846 24.1818 521.086 24.1818C521.326 24.1818 521.532 24.2677 521.704 24.4396C521.876 24.6114 521.961 24.8172 521.961 25.0571C521.961 25.216 521.921 25.3619 521.84 25.4948C521.762 25.6277 521.657 25.7347 521.524 25.8158C521.394 25.8936 521.248 25.9325 521.086 25.9325ZM523.494 30.2021V29.2101L527.871 22.2853H528.59V23.822H528.104L524.797 29.0544V29.1323H530.691V30.2021H523.494ZM528.182 32.2445V29.9006V29.4386V22.2853H529.33V32.2445H528.182ZM535.488 32.3807C534.755 32.3807 534.131 32.1813 533.616 31.7825C533.1 31.3805 532.707 30.7986 532.434 30.0368C532.162 29.2717 532.026 28.3477 532.026 27.2649C532.026 26.1886 532.162 25.2695 532.434 24.5076C532.71 23.7425 533.105 23.159 533.621 22.757C534.139 22.3517 534.762 22.1491 535.488 22.1491C536.214 22.1491 536.835 22.3517 537.351 22.757C537.869 23.159 538.265 23.7425 538.537 24.5076C538.813 25.2695 538.95 26.1886 538.95 27.2649C538.95 28.3477 538.814 29.2717 538.542 30.0368C538.27 30.7986 537.876 31.3805 537.36 31.7825C536.845 32.1813 536.221 32.3807 535.488 32.3807ZM535.488 31.3108C536.214 31.3108 536.778 30.9607 537.18 30.2604C537.582 29.5602 537.783 28.5617 537.783 27.2649C537.783 26.4025 537.691 25.6682 537.506 25.062C537.325 24.4558 537.062 23.9938 536.718 23.6761C536.378 23.3584 535.968 23.1995 535.488 23.1995C534.768 23.1995 534.206 23.5545 533.801 24.2645C533.395 24.9712 533.193 25.9714 533.193 27.2649C533.193 28.1273 533.284 28.8599 533.465 29.4629C533.647 30.0659 533.908 30.5247 534.248 30.8391C534.592 31.1536 535.005 31.3108 535.488 31.3108Z" fill="#421DFF"/>
<path fill-rule="evenodd" clip-rule="evenodd" d="M556.492 23.1606C556.719 23.3802 556.725 23.7425 556.506 23.9699L547.598 33.1961C547.487 33.3106 547.334 33.3739 547.175 33.3708C547.016 33.3677 546.865 33.2985 546.759 33.1798L542.782 28.7257C542.572 28.4899 542.592 28.1281 542.828 27.9176C543.064 27.707 543.425 27.7275 543.636 27.9633L547.202 31.9576L555.682 23.1748C555.902 22.9474 556.264 22.941 556.492 23.1606Z" fill="#421DFF"/>
<path fill-rule="evenodd" clip-rule="evenodd" d="M559.855 23.1606C560.082 23.3802 560.089 23.7425 559.869 23.9699L550.961 33.1961C550.85 33.3106 550.697 33.3739 550.538 33.3708C550.379 33.3677 550.228 33.2985 550.122 33.1798L546.145 28.7257C545.935 28.4899 545.955 28.1281 546.191 27.9176C546.427 27.707 546.789 27.7275 546.999 27.9633L550.566 31.9576L559.046 23.1748C559.265 22.9474 559.628 22.941 559.855 23.1606Z" fill="#421DFF"/>
<path opacity="0.8" d="M557.529 48C560.802 48 562.439 47.9997 563.779 48.3682C567.282 49.3312 570.019 52.0683 570.982 55.5713C571.269 56.6132 571.331 57.8343 571.345 59.8633L571.421 59.6992C571.423 59.8135 571.862 79.8738 572.938 83.2178C575.199 90.2492 581.267 91.8146 581.316 91.8271C581.242 91.8278 570.108 91.9156 565.778 90.2773C563.982 89.5978 562.321 88.5554 561.122 87.6963C559.359 88.7975 557.426 89.6554 555.366 90.2217C552.536 90.9996 549.081 91 542.172 91H228.5C227.669 91 227.254 91.0003 226.902 90.9883C216.074 90.6187 207.381 81.9258 207.012 71.0977C207 70.7464 207 70.3308 207 69.5C207 68.6692 207 68.2536 207.012 67.9023C207.381 57.0742 216.074 48.3813 226.902 48.0117C227.254 47.9997 227.669 48 228.5 48H557.529Z" fill="#D4C5FF"/>
<path d="M226.108 61.8698H228.292L233.427 74.4124H233.604L238.739 61.8698H240.923V76.98H239.212V65.4998H239.064L234.342 76.98H232.689L227.968 65.4998H227.82V76.98H226.108V61.8698ZM248.96 77.2161C247.937 77.2161 247.039 76.9726 246.267 76.4857C245.499 75.9987 244.899 75.3175 244.467 74.4419C244.039 73.5664 243.825 72.5433 243.825 71.3727C243.825 70.1922 244.039 69.1618 244.467 68.2813C244.899 67.4009 245.499 66.7172 246.267 66.2302C247.039 65.7433 247.937 65.4998 248.96 65.4998C249.983 65.4998 250.878 65.7433 251.645 66.2302C252.418 66.7172 253.018 67.4009 253.446 68.2813C253.878 69.1618 254.095 70.1922 254.095 71.3727C254.095 72.5433 253.878 73.5664 253.446 74.4419C253.018 75.3175 252.418 75.9987 251.645 76.4857C250.878 76.9726 249.983 77.2161 248.96 77.2161ZM248.96 75.6519C249.737 75.6519 250.376 75.4527 250.878 75.0543C251.38 74.6559 251.751 74.1321 251.992 73.4828C252.233 72.8335 252.354 72.1302 252.354 71.3727C252.354 70.6152 252.233 69.9094 251.992 69.2552C251.751 68.601 251.38 68.0723 250.878 67.6689C250.376 67.2656 249.737 67.064 248.96 67.064C248.183 67.064 247.543 67.2656 247.041 67.6689C246.54 68.0723 246.168 68.601 245.927 69.2552C245.686 69.9094 245.566 70.6152 245.566 71.3727C245.566 72.1302 245.686 72.8335 245.927 73.4828C246.168 74.1321 246.54 74.6559 247.041 75.0543C247.543 75.4527 248.183 75.6519 248.96 75.6519ZM255.578 76.98L260.182 71.2251L255.637 65.6474H257.703L261.48 70.4873H262.425V65.6474H264.166V70.4873H265.081L268.858 65.6474H270.924L266.409 71.2251L270.983 76.98H268.888L265.051 72.1105H264.166V76.98H262.425V72.1105H261.539L257.673 76.98H255.578ZM277.756 77.2161C276.664 77.2161 275.722 76.9751 274.93 76.493C274.143 76.0061 273.536 75.3273 273.108 74.4567C272.685 73.5812 272.473 72.563 272.473 71.4022C272.473 70.2414 272.685 69.2183 273.108 68.333C273.536 67.4427 274.131 66.7492 274.893 66.2524C275.661 65.7507 276.556 65.4998 277.579 65.4998C278.169 65.4998 278.752 65.5982 279.328 65.7949C279.903 65.9917 280.427 66.3114 280.899 66.7541C281.371 67.1918 281.748 67.7722 282.028 68.4953C282.308 69.2183 282.448 70.1086 282.448 71.1661V71.9039H273.713V70.3988H280.678C280.678 69.7594 280.55 69.1888 280.294 68.6871C280.043 68.1854 279.684 67.7895 279.217 67.4993C278.755 67.2091 278.209 67.064 277.579 67.064C276.885 67.064 276.285 67.2361 275.779 67.5804C275.277 67.9198 274.891 68.3625 274.62 68.9085C274.35 69.4544 274.215 70.0397 274.215 70.6644V71.6678C274.215 72.5237 274.362 73.2492 274.657 73.8443C274.957 74.4346 275.373 74.8846 275.904 75.1945C276.435 75.4995 277.053 75.6519 277.756 75.6519C278.214 75.6519 278.627 75.588 278.996 75.4601C279.369 75.3273 279.692 75.1306 279.962 74.8699C280.233 74.6043 280.442 74.2747 280.589 73.8812L282.271 74.3534C282.094 74.924 281.797 75.4257 281.379 75.8585C280.961 76.2864 280.444 76.6209 279.829 76.8619C279.214 77.098 278.523 77.2161 277.756 77.2161ZM284.042 67.2705V65.6474H293.25V67.2705H289.531V76.98H287.79V67.2705H284.042ZM306.385 77.2161C305.293 77.2161 304.351 76.9751 303.559 76.493C302.772 76.0061 302.164 75.3273 301.736 74.4567C301.313 73.5812 301.102 72.563 301.102 71.4022C301.102 70.2414 301.313 69.2183 301.736 68.333C302.164 67.4427 302.759 66.7492 303.522 66.2524C304.289 65.7507 305.184 65.4998 306.207 65.4998C306.798 65.4998 307.381 65.5982 307.956 65.7949C308.532 65.9917 309.055 66.3114 309.528 66.7541C310 67.1918 310.376 67.7722 310.656 68.4953C310.937 69.2183 311.077 70.1086 311.077 71.1661V71.9039H302.341V70.3988H309.306C309.306 69.7594 309.178 69.1888 308.923 68.6871C308.672 68.1854 308.313 67.7895 307.845 67.4993C307.383 67.2091 306.837 67.064 306.207 67.064C305.514 67.064 304.914 67.2361 304.407 67.5804C303.906 67.9198 303.519 68.3625 303.249 68.9085C302.978 69.4544 302.843 70.0397 302.843 70.6644V71.6678C302.843 72.5237 302.991 73.2492 303.286 73.8443C303.586 74.4346 304.001 74.8846 304.533 75.1945C305.064 75.4995 305.681 75.6519 306.385 75.6519C306.842 75.6519 307.255 75.588 307.624 75.4601C307.998 75.3273 308.32 75.1306 308.591 74.8699C308.861 74.6043 309.07 74.2747 309.218 73.8812L310.9 74.3534C310.723 74.924 310.425 75.4257 310.007 75.8585C309.589 76.2864 309.073 76.6209 308.458 76.8619C307.843 77.098 307.152 77.2161 306.385 77.2161ZM318.477 77.2161C317.385 77.2161 316.443 76.9751 315.651 76.493C314.864 76.0061 314.257 75.3273 313.829 74.4567C313.406 73.5812 313.194 72.563 313.194 71.4022C313.194 70.2414 313.406 69.2183 313.829 68.333C314.257 67.4427 314.852 66.7492 315.614 66.2524C316.382 65.7507 317.277 65.4998 318.3 65.4998C318.89 65.4998 319.473 65.5982 320.049 65.7949C320.624 65.9917 321.148 66.3114 321.62 66.7541C322.092 67.1918 322.469 67.7722 322.749 68.4953C323.029 69.2183 323.169 70.1086 323.169 71.1661V71.9039H314.434V70.3988H321.399C321.399 69.7594 321.271 69.1888 321.015 68.6871C320.764 68.1854 320.405 67.7895 319.938 67.4993C319.476 67.2091 318.93 67.064 318.3 67.064C317.606 67.064 317.006 67.2361 316.5 67.5804C315.998 67.9198 315.612 68.3625 315.341 68.9085C315.071 69.4544 314.936 70.0397 314.936 70.6644V71.6678C314.936 72.5237 315.083 73.2492 315.378 73.8443C315.678 74.4346 316.094 74.8846 316.625 75.1945C317.156 75.4995 317.774 75.6519 318.477 75.6519C318.935 75.6519 319.348 75.588 319.717 75.4601C320.09 75.3273 320.413 75.1306 320.683 74.8699C320.954 74.6043 321.163 74.2747 321.31 73.8812L322.992 74.3534C322.815 74.924 322.518 75.4257 322.1 75.8585C321.682 76.2864 321.165 76.6209 320.55 76.8619C319.935 77.098 319.244 77.2161 318.477 77.2161ZM316.087 63.7586C315.777 63.7586 315.501 63.6406 315.26 63.4045C315.024 63.1634 314.906 62.888 314.906 62.5781C314.906 62.2387 315.024 61.9584 315.26 61.737C315.501 61.5108 315.777 61.3976 316.087 61.3976C316.426 61.3976 316.706 61.5108 316.928 61.737C317.154 61.9584 317.267 62.2387 317.267 62.5781C317.267 62.888 317.154 63.1634 316.928 63.4045C316.706 63.6406 316.426 63.7586 316.087 63.7586ZM320.336 63.7586C320.026 63.7586 319.751 63.6406 319.51 63.4045C319.274 63.1634 319.156 62.888 319.156 62.5781C319.156 62.2387 319.274 61.9584 319.51 61.737C319.751 61.5108 320.026 61.3976 320.336 61.3976C320.676 61.3976 320.956 61.5108 321.177 61.737C321.404 61.9584 321.517 62.2387 321.517 62.5781C321.517 62.888 321.404 63.1634 321.177 63.4045C320.956 63.6406 320.676 63.7586 320.336 63.7586ZM339.246 70.5169V72.14H332.99V70.5169H339.246ZM333.403 65.6474V76.98H331.662V65.6474H333.403ZM340.574 65.6474V76.98H338.833V65.6474H340.574ZM348.506 77.2161C347.414 77.2161 346.472 76.9751 345.68 76.493C344.893 76.0061 344.285 75.3273 343.857 74.4567C343.434 73.5812 343.223 72.563 343.223 71.4022C343.223 70.2414 343.434 69.2183 343.857 68.333C344.285 67.4427 344.88 66.7492 345.643 66.2524C346.41 65.7507 347.305 65.4998 348.328 65.4998C348.919 65.4998 349.502 65.5982 350.077 65.7949C350.653 65.9917 351.176 66.3114 351.649 66.7541C352.121 67.1918 352.497 67.7722 352.777 68.4953C353.058 69.2183 353.198 70.1086 353.198 71.1661V71.9039H344.462V70.3988H351.427C351.427 69.7594 351.299 69.1888 351.044 68.6871C350.793 68.1854 350.434 67.7895 349.966 67.4993C349.504 67.2091 348.958 67.064 348.328 67.064C347.635 67.064 347.035 67.2361 346.528 67.5804C346.027 67.9198 345.64 68.3625 345.37 68.9085C345.099 69.4544 344.964 70.0397 344.964 70.6644V71.6678C344.964 72.5237 345.112 73.2492 345.407 73.8443C345.707 74.4346 346.122 74.8846 346.654 75.1945C347.185 75.4995 347.802 75.6519 348.506 75.6519C348.963 75.6519 349.376 75.588 349.745 75.4601C350.119 75.3273 350.441 75.1306 350.712 74.8699C350.982 74.6043 351.191 74.2747 351.339 73.8812L353.021 74.3534C352.844 74.924 352.546 75.4257 352.128 75.8585C351.71 76.2864 351.194 76.6209 350.579 76.8619C349.964 77.098 349.273 77.2161 348.506 77.2161ZM370.101 61.3976L370.986 62.4601C370.642 62.7945 370.244 63.0282 369.791 63.161C369.339 63.2938 368.827 63.375 368.256 63.4045C367.686 63.434 367.051 63.4635 366.353 63.493C365.566 63.5225 364.914 63.7143 364.398 64.0685C363.881 64.4226 363.483 64.9342 363.203 65.6031C362.922 66.272 362.743 67.0935 362.664 68.0674H362.811C363.195 67.3591 363.726 66.8377 364.405 66.5032C365.084 66.1688 365.812 66.0015 366.589 66.0015C367.474 66.0015 368.271 66.2081 368.979 66.6213C369.688 67.0344 370.248 67.6468 370.662 68.4584C371.075 69.27 371.281 70.2709 371.281 71.4612C371.281 72.6466 371.07 73.6697 370.647 74.5305C370.229 75.3913 369.641 76.0553 368.884 76.5225C368.131 76.9849 367.248 77.2161 366.235 77.2161C365.222 77.2161 364.334 76.9775 363.571 76.5004C362.809 76.0184 362.216 75.3052 361.793 74.3608C361.37 73.4115 361.159 72.2384 361.159 70.8415V69.6315C361.159 67.1082 361.587 65.1949 362.443 63.8914C363.303 62.588 364.597 61.9141 366.323 61.8698C366.933 61.8502 367.477 61.8452 367.954 61.8551C368.431 61.8649 368.847 61.8428 369.201 61.7887C369.555 61.7346 369.855 61.6042 370.101 61.3976ZM366.235 75.6519C366.919 75.6519 367.506 75.4798 367.998 75.1355C368.495 74.7912 368.876 74.3067 369.142 73.682C369.407 73.0524 369.54 72.3122 369.54 71.4612C369.54 70.6349 369.405 69.9315 369.134 69.3511C368.869 68.7707 368.488 68.328 367.991 68.0231C367.494 67.7181 366.899 67.5657 366.205 67.5657C365.699 67.5657 365.244 67.6517 364.84 67.8239C364.437 67.996 364.093 68.2493 363.808 68.5838C363.522 68.9183 363.301 69.3265 363.143 69.8086C362.991 70.2906 362.91 70.8415 362.9 71.4612C362.9 72.7303 363.198 73.746 363.793 74.5084C364.388 75.2707 365.202 75.6519 366.235 75.6519ZM375.45 69.7495H378.696C380.024 69.7495 381.04 70.0865 381.743 70.7603C382.447 71.4342 382.798 72.2876 382.798 73.3205C382.798 73.9993 382.641 74.6166 382.326 75.1724C382.011 75.7233 381.549 76.1635 380.939 76.493C380.329 76.8177 379.582 76.98 378.696 76.98H373.945V65.6474H375.686V75.3568H378.696C379.385 75.3568 379.951 75.1748 380.393 74.8108C380.836 74.4469 381.057 73.9796 381.057 73.409C381.057 72.809 380.836 72.3195 380.393 71.9408C379.951 71.5621 379.385 71.3727 378.696 71.3727H375.45V69.7495ZM384.599 76.98V65.6474H386.34V76.98H384.599ZM388.524 76.98V75.3568H388.937C389.276 75.3568 389.559 75.2904 389.785 75.1576C390.012 75.0199 390.194 74.7813 390.331 74.4419C390.474 74.0976 390.582 73.6205 390.656 73.0106C390.735 72.3958 390.791 71.6137 390.826 70.6644L391.032 65.6474H398.587V76.98H396.846V67.2705H392.685L392.508 71.3137C392.469 72.2433 392.385 73.0623 392.257 73.7706C392.134 74.4739 391.945 75.0642 391.689 75.5413C391.438 76.0184 391.104 76.3774 390.686 76.6185C390.267 76.8595 389.744 76.98 389.114 76.98H388.524ZM406.386 77.2161C405.363 77.2161 404.465 76.9726 403.693 76.4857C402.926 75.9987 402.326 75.3175 401.893 74.4419C401.465 73.5664 401.251 72.5433 401.251 71.3727C401.251 70.1922 401.465 69.1618 401.893 68.2813C402.326 67.4009 402.926 66.7172 403.693 66.2302C404.465 65.7433 405.363 65.4998 406.386 65.4998C407.409 65.4998 408.304 65.7433 409.072 66.2302C409.844 66.7172 410.444 67.4009 410.872 68.2813C411.305 69.1618 411.521 70.1922 411.521 71.3727C411.521 72.5433 411.305 73.5664 410.872 74.4419C410.444 75.3175 409.844 75.9987 409.072 76.4857C408.304 76.9726 407.409 77.2161 406.386 77.2161ZM406.386 75.6519C407.163 75.6519 407.803 75.4527 408.304 75.0543C408.806 74.6559 409.177 74.1321 409.418 73.4828C409.659 72.8335 409.78 72.1302 409.78 71.3727C409.78 70.6152 409.659 69.9094 409.418 69.2552C409.177 68.601 408.806 68.0723 408.304 67.6689C407.803 67.2656 407.163 67.064 406.386 67.064C405.609 67.064 404.969 67.2656 404.468 67.6689C403.966 68.0723 403.595 68.601 403.354 69.2552C403.113 69.9094 402.992 70.6152 402.992 71.3727C402.992 72.1302 403.113 72.8335 403.354 73.4828C403.595 74.1321 403.966 74.6559 404.468 75.0543C404.969 75.4527 405.609 75.6519 406.386 75.6519ZM420.022 76.98V65.6474H424.656C425.876 65.6474 426.845 65.9228 427.563 66.4737C428.281 67.0246 428.64 67.7526 428.64 68.6576C428.64 69.3462 428.436 69.8799 428.027 70.2586C427.619 70.6324 427.095 70.8858 426.456 71.0186C426.874 71.0776 427.28 71.2251 427.673 71.4612C428.072 71.6973 428.401 72.022 428.662 72.4351C428.923 72.8434 429.053 73.3451 429.053 73.9402C429.053 74.5206 428.905 75.0396 428.61 75.497C428.315 75.9544 427.892 76.316 427.341 76.5816C426.79 76.8472 426.131 76.98 425.364 76.98H420.022ZM421.675 75.3863H425.364C425.964 75.3863 426.434 75.2437 426.773 74.9584C427.113 74.6731 427.282 74.2846 427.282 73.7927C427.282 73.2074 427.113 72.7475 426.773 72.413C426.434 72.0736 425.964 71.9039 425.364 71.9039H421.675V75.3863ZM421.675 70.3988H424.656C425.123 70.3988 425.524 70.3349 425.858 70.207C426.193 70.0742 426.449 69.8873 426.626 69.6463C426.808 69.4003 426.899 69.1101 426.899 68.7756C426.899 68.2985 426.699 67.9247 426.301 67.6542C425.903 67.3787 425.354 67.241 424.656 67.241H421.675V70.3988ZM436.293 77.2161C435.27 77.2161 434.372 76.9726 433.6 76.4857C432.832 75.9987 432.232 75.3175 431.799 74.4419C431.372 73.5664 431.158 72.5433 431.158 71.3727C431.158 70.1922 431.372 69.1618 431.799 68.2813C432.232 67.4009 432.832 66.7172 433.6 66.2302C434.372 65.7433 435.27 65.4998 436.293 65.4998C437.316 65.4998 438.211 65.7433 438.978 66.2302C439.75 66.7172 440.351 67.4009 440.778 68.2813C441.211 69.1618 441.428 70.1922 441.428 71.3727C441.428 72.5433 441.211 73.5664 440.778 74.4419C440.351 75.3175 439.75 75.9987 438.978 76.4857C438.211 76.9726 437.316 77.2161 436.293 77.2161ZM436.293 75.6519C437.07 75.6519 437.709 75.4527 438.211 75.0543C438.713 74.6559 439.084 74.1321 439.325 73.4828C439.566 72.8335 439.687 72.1302 439.687 71.3727C439.687 70.6152 439.566 69.9094 439.325 69.2552C439.084 68.601 438.713 68.0723 438.211 67.6689C437.709 67.2656 437.07 67.064 436.293 67.064C435.515 67.064 434.876 67.2656 434.374 67.6689C433.873 68.0723 433.501 68.601 433.26 69.2552C433.019 69.9094 432.899 70.6152 432.899 71.3727C432.899 72.1302 433.019 72.8335 433.26 73.4828C433.501 74.1321 433.873 74.6559 434.374 75.0543C434.876 75.4527 435.515 75.6519 436.293 75.6519ZM448.69 77.2161C447.666 77.2161 446.769 76.9726 445.997 76.4857C445.229 75.9987 444.629 75.3175 444.196 74.4419C443.768 73.5664 443.554 72.5433 443.554 71.3727C443.554 70.1922 443.768 69.1618 444.196 68.2813C444.629 67.4009 445.229 66.7172 445.997 66.2302C446.769 65.7433 447.666 65.4998 448.69 65.4998C449.713 65.4998 450.608 65.7433 451.375 66.2302C452.147 66.7172 452.747 67.4009 453.175 68.2813C453.608 69.1618 453.825 70.1922 453.825 71.3727C453.825 72.5433 453.608 73.5664 453.175 74.4419C452.747 75.3175 452.147 75.9987 451.375 76.4857C450.608 76.9726 449.713 77.2161 448.69 77.2161ZM448.69 75.6519C449.467 75.6519 450.106 75.4527 450.608 75.0543C451.11 74.6559 451.481 74.1321 451.722 73.4828C451.963 72.8335 452.083 72.1302 452.083 71.3727C452.083 70.6152 451.963 69.9094 451.722 69.2552C451.481 68.601 451.11 68.0723 450.608 67.6689C450.106 67.2656 449.467 67.064 448.69 67.064C447.912 67.064 447.273 67.2656 446.771 67.6689C446.27 68.0723 445.898 68.601 445.657 69.2552C445.416 69.9094 445.296 70.6152 445.296 71.3727C445.296 72.1302 445.416 72.8335 445.657 73.4828C445.898 74.1321 446.27 74.6559 446.771 75.0543C447.273 75.4527 447.912 75.6519 448.69 75.6519ZM464.893 61.3976L465.779 62.4601C465.435 62.7945 465.036 63.0282 464.584 63.161C464.131 63.2938 463.62 63.375 463.049 63.4045C462.478 63.434 461.844 63.4635 461.145 63.493C460.358 63.5225 459.707 63.7143 459.19 64.0685C458.674 64.4226 458.275 64.9342 457.995 65.6031C457.715 66.272 457.535 67.0935 457.456 68.0674H457.604C457.988 67.3591 458.519 66.8377 459.198 66.5032C459.876 66.1688 460.604 66.0015 461.382 66.0015C462.267 66.0015 463.064 66.2081 463.772 66.6213C464.48 67.0344 465.041 67.6468 465.454 68.4584C465.867 69.27 466.074 70.2709 466.074 71.4612C466.074 72.6466 465.862 73.6697 465.439 74.5305C465.021 75.3913 464.434 76.0553 463.676 76.5225C462.924 76.9849 462.041 77.2161 461.027 77.2161C460.014 77.2161 459.126 76.9775 458.364 76.5004C457.602 76.0184 457.009 75.3052 456.586 74.3608C456.163 73.4115 455.951 72.2384 455.951 70.8415V69.6315C455.951 67.1082 456.379 65.1949 457.235 63.8914C458.096 62.588 459.389 61.9141 461.116 61.8698C461.726 61.8502 462.269 61.8452 462.746 61.8551C463.224 61.8649 463.639 61.8428 463.993 61.7887C464.347 61.7346 464.648 61.6042 464.893 61.3976ZM461.027 75.6519C461.711 75.6519 462.299 75.4798 462.791 75.1355C463.288 74.7912 463.669 74.3067 463.934 73.682C464.2 73.0524 464.333 72.3122 464.333 71.4612C464.333 70.6349 464.197 69.9315 463.927 69.3511C463.661 68.7707 463.28 68.328 462.783 68.0231C462.287 67.7181 461.691 67.5657 460.998 67.5657C460.491 67.5657 460.036 67.6517 459.633 67.8239C459.23 67.996 458.885 68.2493 458.6 68.5838C458.315 68.9183 458.093 69.3265 457.936 69.8086C457.784 70.2906 457.702 70.8415 457.693 71.4612C457.693 72.7303 457.99 73.746 458.585 74.5084C459.18 75.2707 459.994 75.6519 461.027 75.6519ZM484.202 75.3568L483.995 80.2263H482.195V76.98H480.719V75.3568H484.202ZM468.737 65.6474H470.479V75.3568H474.758V65.6474H476.499V75.3568H480.778V65.6474H482.519V76.98H468.737V65.6474ZM491.364 77.2161C490.272 77.2161 489.33 76.9751 488.538 76.493C487.751 76.0061 487.144 75.3273 486.716 74.4567C486.293 73.5812 486.081 72.563 486.081 71.4022C486.081 70.2414 486.293 69.2183 486.716 68.333C487.144 67.4427 487.739 66.7492 488.501 66.2524C489.269 65.7507 490.164 65.4998 491.187 65.4998C491.777 65.4998 492.36 65.5982 492.935 65.7949C493.511 65.9917 494.035 66.3114 494.507 66.7541C494.979 67.1918 495.355 67.7722 495.636 68.4953C495.916 69.2183 496.056 70.1086 496.056 71.1661V71.9039H487.321V70.3988H494.286C494.286 69.7594 494.158 69.1888 493.902 68.6871C493.651 68.1854 493.292 67.7895 492.825 67.4993C492.362 67.2091 491.816 67.064 491.187 67.064C490.493 67.064 489.893 67.2361 489.387 67.5804C488.885 67.9198 488.499 68.3625 488.228 68.9085C487.958 69.4544 487.822 70.0397 487.822 70.6644V71.6678C487.822 72.5237 487.97 73.2492 488.265 73.8443C488.565 74.4346 488.981 74.8846 489.512 75.1945C490.043 75.4995 490.661 75.6519 491.364 75.6519C491.821 75.6519 492.234 75.588 492.603 75.4601C492.977 75.3273 493.299 75.1306 493.57 74.8699C493.84 74.6043 494.049 74.2747 494.197 73.8812L495.879 74.3534C495.702 74.924 495.405 75.4257 494.986 75.8585C494.568 76.2864 494.052 76.6209 493.437 76.8619C492.822 77.098 492.131 77.2161 491.364 77.2161Z" fill="black"/>
<path d="M511.104 80.4708C510.371 80.4708 509.747 80.2714 509.231 79.8726C508.716 79.4706 508.322 78.8887 508.05 78.1268C507.777 77.3617 507.641 76.4378 507.641 75.355C507.641 74.2787 507.777 73.3596 508.05 72.5977C508.325 71.8326 508.721 71.2491 509.236 70.8471C509.755 70.4418 510.377 70.2392 511.104 70.2392C511.83 70.2392 512.451 70.4418 512.966 70.8471C513.485 71.2491 513.88 71.8326 514.153 72.5977C514.428 73.3596 514.566 74.2787 514.566 75.355C514.566 76.4378 514.43 77.3617 514.157 78.1268C513.885 78.8887 513.491 79.4706 512.976 79.8726C512.46 80.2714 511.836 80.4708 511.104 80.4708ZM511.104 79.4009C511.83 79.4009 512.394 79.0508 512.796 78.3505C513.198 77.6503 513.399 76.6518 513.399 75.355C513.399 74.4926 513.306 73.7583 513.122 73.1521C512.94 72.5459 512.678 72.0839 512.334 71.7662C511.993 71.4485 511.583 71.2896 511.104 71.2896C510.384 71.2896 509.821 71.6446 509.416 72.3546C509.011 73.0613 508.808 74.0615 508.808 75.355C508.808 76.2173 508.899 76.95 509.081 77.553C509.262 78.156 509.523 78.6147 509.864 78.9292C510.207 79.2437 510.621 79.4009 511.104 79.4009ZM519.33 80.4708C518.662 80.4708 518.072 80.3524 517.56 80.1158C517.051 79.8759 516.654 79.5468 516.369 79.1286C516.083 78.7071 515.942 78.2273 515.945 77.6892C515.942 77.2677 516.025 76.8787 516.193 76.5221C516.362 76.1622 516.592 75.8623 516.884 75.6224C517.179 75.3793 517.508 75.2253 517.871 75.1605V75.1021C517.395 74.9789 517.015 74.7115 516.733 74.2997C516.451 73.8848 516.312 73.4131 516.315 72.8846C516.312 72.3789 516.44 71.9266 516.699 71.5279C516.959 71.1291 517.315 70.8147 517.769 70.5845C518.226 70.3543 518.746 70.2392 519.33 70.2392C519.907 70.2392 520.423 70.3543 520.876 70.5845C521.33 70.8147 521.687 71.1291 521.946 71.5279C522.209 71.9266 522.342 72.3789 522.345 72.8846C522.342 73.4131 522.198 73.8848 521.912 74.2997C521.63 74.7115 521.256 74.9789 520.789 75.1021V75.1605C521.149 75.2253 521.473 75.3793 521.761 75.6224C522.05 75.8623 522.28 76.1622 522.452 76.5221C522.624 76.8787 522.711 77.2677 522.715 77.6892C522.711 78.2273 522.565 78.7071 522.277 79.1286C521.992 79.5468 521.595 79.8759 521.086 80.1158C520.58 80.3524 519.995 80.4708 519.33 80.4708ZM519.33 79.4009C519.781 79.4009 520.17 79.328 520.497 79.1821C520.825 79.0362 521.077 78.8303 521.256 78.5645C521.434 78.2987 521.525 77.9874 521.528 77.6308C521.525 77.2548 521.428 76.9225 521.236 76.6339C521.045 76.3454 520.784 76.1185 520.453 75.9531C520.126 75.7878 519.751 75.7051 519.33 75.7051C518.905 75.7051 518.526 75.7878 518.192 75.9531C517.861 76.1185 517.6 76.3454 517.409 76.6339C517.221 76.9225 517.129 77.2548 517.132 77.6308C517.129 77.9874 517.215 78.2987 517.39 78.5645C517.568 78.8303 517.823 79.0362 518.153 79.1821C518.484 79.328 518.876 79.4009 519.33 79.4009ZM519.33 74.6742C519.687 74.6742 520.003 74.6029 520.278 74.4602C520.557 74.3176 520.776 74.1182 520.935 73.8621C521.094 73.606 521.175 73.3061 521.178 72.9624C521.175 72.6253 521.095 72.3319 520.94 72.0823C520.784 71.8294 520.568 71.6349 520.293 71.4987C520.017 71.3593 519.696 71.2896 519.33 71.2896C518.957 71.2896 518.631 71.3593 518.353 71.4987C518.074 71.6349 517.858 71.8294 517.706 72.0823C517.553 72.3319 517.479 72.6253 517.482 72.9624C517.479 73.3061 517.555 73.606 517.711 73.8621C517.87 74.1182 518.088 74.3176 518.367 74.4602C518.646 74.6029 518.967 74.6742 519.33 74.6742ZM525.16 79.0605C524.92 79.0605 524.715 78.9746 524.543 78.8028C524.371 78.631 524.285 78.4251 524.285 78.1852C524.285 77.9453 524.371 77.7394 524.543 77.5676C524.715 77.3958 524.92 77.3099 525.16 77.3099C525.4 77.3099 525.606 77.3958 525.778 77.5676C525.95 77.7394 526.036 77.9453 526.036 78.1852C526.036 78.344 525.995 78.4899 525.914 78.6229C525.836 78.7558 525.731 78.8628 525.598 78.9438C525.468 79.0216 525.322 79.0605 525.16 79.0605ZM525.16 74.0226C524.92 74.0226 524.715 73.9366 524.543 73.7648C524.371 73.593 524.285 73.3871 524.285 73.1472C524.285 72.9073 524.371 72.7015 524.543 72.5296C524.715 72.3578 524.92 72.2719 525.16 72.2719C525.4 72.2719 525.606 72.3578 525.778 72.5296C525.95 72.7015 526.036 72.9073 526.036 73.1472C526.036 73.3061 525.995 73.452 525.914 73.5849C525.836 73.7178 525.731 73.8248 525.598 73.9058C525.468 73.9836 525.322 74.0226 525.16 74.0226ZM527.568 78.2922V77.3001L531.945 70.3754H532.665V71.9121H532.178L528.872 77.1445V77.2223H534.765V78.2922H527.568ZM532.256 80.3346V77.9907V77.5287V70.3754H533.404V80.3346H532.256ZM539.681 70.3754V80.3346H538.475V71.6397H538.417L535.986 73.2542V72.0288L538.475 70.3754H539.681Z" fill="#421DFF"/>
<path fill-rule="evenodd" clip-rule="evenodd" d="M559.8 71.4386C560.028 71.6581 560.034 72.0205 559.815 72.2479L550.906 81.4741C550.796 81.5886 550.643 81.6519 550.483 81.6488C550.324 81.6457 550.174 81.5765 550.068 81.4577L546.091 77.0037C545.88 76.7679 545.901 76.406 546.136 76.1955C546.372 75.985 546.734 76.0055 546.945 76.2413L550.511 80.2355L558.991 71.4528C559.211 71.2253 559.573 71.219 559.8 71.4386Z" fill="#421DFF"/>
<path fill-rule="evenodd" clip-rule="evenodd" d="M562.855 71.3593C563.082 71.5789 563.089 71.9412 562.869 72.1686L553.961 81.3949C553.85 81.5094 553.697 81.5727 553.538 81.5696C553.379 81.5665 553.228 81.4972 553.122 81.3785L549.145 76.9244C548.935 76.6886 548.955 76.3268 549.191 76.1163C549.427 75.9058 549.789 75.9262 549.999 76.162L553.566 80.1563L562.046 71.3735C562.265 71.1461 562.628 71.1398 562.855 71.3593Z" fill="#421DFF"/>
<path opacity="0.8" d="M147.957 118C147.957 116.974 147.957 116.461 147.938 116.027C147.488 105.721 139.236 97.4689 128.93 97.0189C128.496 97 127.983 97 126.957 97H41.832C35.4397 97 32.2436 97 29.6115 97.6593C21.7371 99.6317 15.5888 105.78 13.6163 113.654C12.957 116.287 12.957 119.483 12.957 125.875C12.957 128.781 12.957 130.233 13.2567 131.43C14.1533 135.009 16.948 137.804 20.5272 138.7C21.7236 139 23.1764 139 26.082 139H126.957C127.983 139 128.496 139 128.93 138.981C139.236 138.531 147.488 130.279 147.938 119.973C147.957 119.539 147.957 119.026 147.957 118Z" fill="#BCA4FF"/>
<path d="M100.02 128.937C99.324 128.937 98.7315 128.748 98.2422 128.369C97.7528 127.987 97.3789 127.435 97.1204 126.712C96.8619 125.985 96.7326 125.108 96.7326 124.08C96.7326 123.059 96.8619 122.186 97.1204 121.463C97.382 120.736 97.7575 120.182 98.2468 119.801C98.7392 119.416 99.3301 119.224 100.02 119.224C100.709 119.224 101.298 119.416 101.788 119.801C102.28 120.182 102.656 120.736 102.914 121.463C103.176 122.186 103.306 123.059 103.306 124.08C103.306 125.108 103.177 125.985 102.919 126.712C102.66 127.435 102.286 127.987 101.797 128.369C101.308 128.748 100.715 128.937 100.02 128.937ZM100.02 127.921C100.709 127.921 101.244 127.589 101.626 126.924C102.008 126.259 102.199 125.311 102.199 124.08C102.199 123.262 102.111 122.565 101.935 121.989C101.763 121.414 101.514 120.975 101.188 120.673C100.864 120.372 100.475 120.221 100.02 120.221C99.3363 120.221 98.8023 120.558 98.4176 121.232C98.0329 121.903 97.8406 122.852 97.8406 124.08C97.8406 124.899 97.9267 125.595 98.0991 126.167C98.2714 126.739 98.5192 127.175 98.8423 127.473C99.1686 127.772 99.561 127.921 100.02 127.921ZM107.829 128.937C107.195 128.937 106.635 128.825 106.149 128.6C105.666 128.372 105.289 128.06 105.018 127.663C104.747 127.263 104.613 126.807 104.616 126.296C104.613 125.896 104.691 125.527 104.852 125.188C105.012 124.847 105.23 124.562 105.507 124.334C105.787 124.103 106.099 123.957 106.444 123.896V123.84C105.992 123.723 105.632 123.469 105.364 123.079C105.096 122.685 104.964 122.237 104.967 121.735C104.964 121.255 105.085 120.826 105.332 120.447C105.578 120.069 105.916 119.77 106.347 119.552C106.781 119.333 107.275 119.224 107.829 119.224C108.377 119.224 108.866 119.333 109.297 119.552C109.728 119.77 110.067 120.069 110.313 120.447C110.562 120.826 110.688 121.255 110.691 121.735C110.688 122.237 110.551 122.685 110.28 123.079C110.013 123.469 109.657 123.723 109.214 123.84V123.896C109.556 123.957 109.863 124.103 110.137 124.334C110.411 124.562 110.63 124.847 110.793 125.188C110.956 125.527 111.039 125.896 111.042 126.296C111.039 126.807 110.901 127.263 110.627 127.663C110.356 128.06 109.979 128.372 109.496 128.6C109.016 128.825 108.46 128.937 107.829 128.937ZM107.829 127.921C108.257 127.921 108.626 127.852 108.937 127.714C109.248 127.575 109.488 127.38 109.657 127.127C109.827 126.875 109.913 126.579 109.916 126.241C109.913 125.884 109.82 125.568 109.639 125.294C109.457 125.021 109.209 124.805 108.896 124.648C108.585 124.491 108.229 124.413 107.829 124.413C107.426 124.413 107.066 124.491 106.749 124.648C106.435 124.805 106.187 125.021 106.006 125.294C105.827 125.568 105.739 125.884 105.742 126.241C105.739 126.579 105.821 126.875 105.987 127.127C106.156 127.38 106.398 127.575 106.712 127.714C107.026 127.852 107.398 127.921 107.829 127.921ZM107.829 123.434C108.168 123.434 108.468 123.366 108.729 123.231C108.994 123.095 109.202 122.906 109.353 122.663C109.503 122.42 109.58 122.135 109.583 121.809C109.58 121.489 109.505 121.21 109.357 120.973C109.209 120.733 109.005 120.549 108.743 120.419C108.482 120.287 108.177 120.221 107.829 120.221C107.475 120.221 107.166 120.287 106.901 120.419C106.637 120.549 106.432 120.733 106.287 120.973C106.143 121.21 106.072 121.489 106.075 121.809C106.072 122.135 106.144 122.42 106.292 122.663C106.443 122.906 106.65 123.095 106.915 123.231C107.18 123.366 107.484 123.434 107.829 123.434ZM113.364 127.598C113.136 127.598 112.941 127.517 112.778 127.353C112.615 127.19 112.533 126.995 112.533 126.767C112.533 126.539 112.615 126.344 112.778 126.181C112.941 126.018 113.136 125.936 113.364 125.936C113.592 125.936 113.787 126.018 113.95 126.181C114.113 126.344 114.195 126.539 114.195 126.767C114.195 126.918 114.156 127.056 114.08 127.183C114.006 127.309 113.906 127.41 113.779 127.487C113.656 127.561 113.518 127.598 113.364 127.598ZM113.364 122.815C113.136 122.815 112.941 122.734 112.778 122.571C112.615 122.408 112.533 122.212 112.533 121.984C112.533 121.757 112.615 121.561 112.778 121.398C112.941 121.235 113.136 121.153 113.364 121.153C113.592 121.153 113.787 121.235 113.95 121.398C114.113 121.561 114.195 121.757 114.195 121.984C114.195 122.135 114.156 122.274 114.08 122.4C114.006 122.526 113.906 122.628 113.779 122.705C113.656 122.778 113.518 122.815 113.364 122.815ZM115.65 126.869V125.927L119.805 119.353H120.488V120.812H120.026L116.887 125.779V125.853H122.482V126.869H115.65ZM120.1 128.808V126.582V126.144V119.353H121.19V128.808H120.1ZM127.092 128.937C126.704 128.931 126.316 128.857 125.928 128.715C125.54 128.574 125.187 128.335 124.866 128C124.546 127.661 124.289 127.204 124.095 126.629C123.902 126.05 123.805 125.324 123.805 124.45C123.805 123.613 123.883 122.871 124.04 122.225C124.197 121.575 124.425 121.029 124.723 120.586C125.022 120.139 125.382 119.801 125.804 119.57C126.228 119.339 126.707 119.224 127.239 119.224C127.769 119.224 128.24 119.33 128.652 119.542C129.067 119.752 129.406 120.044 129.668 120.419C129.929 120.795 130.098 121.227 130.175 121.717H129.049C128.944 121.292 128.741 120.94 128.44 120.66C128.138 120.379 127.738 120.239 127.239 120.239C126.507 120.239 125.93 120.558 125.508 121.195C125.09 121.832 124.879 122.726 124.876 123.877H124.95C125.122 123.616 125.327 123.392 125.564 123.208C125.804 123.02 126.068 122.875 126.358 122.774C126.647 122.672 126.953 122.622 127.276 122.622C127.818 122.622 128.313 122.757 128.763 123.028C129.212 123.296 129.572 123.666 129.843 124.14C130.114 124.611 130.249 125.151 130.249 125.761C130.249 126.345 130.118 126.881 129.857 127.367C129.595 127.85 129.227 128.235 128.754 128.521C128.283 128.805 127.729 128.943 127.092 128.937ZM127.092 127.921C127.479 127.921 127.827 127.824 128.135 127.63C128.446 127.437 128.69 127.176 128.869 126.85C129.05 126.524 129.141 126.161 129.141 125.761C129.141 125.37 129.054 125.014 128.878 124.694C128.706 124.371 128.467 124.114 128.163 123.923C127.861 123.733 127.516 123.637 127.129 123.637C126.836 123.637 126.564 123.696 126.311 123.813C126.059 123.926 125.837 124.083 125.647 124.283C125.459 124.484 125.311 124.713 125.203 124.971C125.096 125.227 125.042 125.496 125.042 125.779C125.042 126.155 125.13 126.506 125.305 126.832C125.483 127.158 125.727 127.421 126.034 127.621C126.345 127.821 126.698 127.921 127.092 127.921Z" fill="#421DFF"/>
<path d="M32.7184 125V110.455H34.4798V116.932H42.2354V110.455H43.9968V125H42.2354V118.494H34.4798V125H32.7184ZM48.3754 129.091C48.0913 129.091 47.8379 129.067 47.6154 129.02C47.3929 128.977 47.239 128.935 47.1538 128.892L47.5799 127.415C47.9871 127.519 48.3469 127.557 48.6594 127.528C48.9719 127.5 49.2489 127.36 49.4904 127.109C49.7366 126.863 49.9615 126.463 50.1651 125.909L50.4776 125.057L46.4435 114.091H48.2617L51.2731 122.784H51.3867L54.3981 114.091H56.2163L51.5856 126.591C51.3772 127.154 51.1192 127.621 50.8114 127.99C50.5037 128.364 50.1462 128.641 49.739 128.821C49.3365 129.001 48.882 129.091 48.3754 129.091ZM68.4854 125.227C67.5006 125.227 66.6365 124.993 65.8931 124.524C65.1545 124.055 64.5768 123.4 64.1602 122.557C63.7482 121.714 63.5423 120.729 63.5423 119.602C63.5423 118.466 63.7482 117.474 64.1602 116.626C64.5768 115.779 65.1545 115.121 65.8931 114.652C66.6365 114.183 67.5006 113.949 68.4854 113.949C69.4703 113.949 70.332 114.183 71.0707 114.652C71.814 115.121 72.3917 115.779 72.8036 116.626C73.2203 117.474 73.4286 118.466 73.4286 119.602C73.4286 120.729 73.2203 121.714 72.8036 122.557C72.3917 123.4 71.814 124.055 71.0707 124.524C70.332 124.993 69.4703 125.227 68.4854 125.227ZM68.4854 123.722C69.2335 123.722 69.8491 123.53 70.332 123.146C70.815 122.763 71.1725 122.259 71.4045 121.634C71.6365 121.009 71.7525 120.331 71.7525 119.602C71.7525 118.873 71.6365 118.194 71.4045 117.564C71.1725 116.934 70.815 116.425 70.332 116.037C69.8491 115.649 69.2335 115.455 68.4854 115.455C67.7373 115.455 67.1218 115.649 66.6388 116.037C66.1559 116.425 65.7984 116.934 65.5664 117.564C65.3344 118.194 65.2184 118.873 65.2184 119.602C65.2184 120.331 65.3344 121.009 65.5664 121.634C65.7984 122.259 66.1559 122.763 66.6388 123.146C67.1218 123.53 67.7373 123.722 68.4854 123.722ZM75.9872 125V114.091H77.6634V118.835H78.7713L82.6918 114.091H84.8509L80.4474 119.347L84.9077 125H82.7486L79.169 120.398H77.6634V125H75.9872Z" fill="black"/>
<path opacity="0.8" fill-rule="evenodd" clip-rule="evenodd" d="M341.938 163.027C341.957 163.461 341.957 163.974 341.957 165C341.957 166.026 341.957 166.539 341.938 166.973C341.488 177.279 333.236 185.531 322.93 185.981C322.496 186 321.983 186 320.957 186H35.4499C32.6503 186 31.2504 186 30.0737 185.859C27.8918 185.598 25.8204 184.988 23.9168 184.086C23.4322 184.236 22.937 184.376 22.4344 184.503C16.1623 186.09 0.000976562 185.999 0.000976562 185.999C0.000976562 185.999 8.82047 184.503 12.0979 177.686C12.6273 176.585 13.0112 174.19 13.2874 171.509C13.01 170.524 12.806 169.508 12.6815 168.467C12.5408 167.29 12.5408 165.891 12.5408 163.091C12.5408 160.758 12.5408 159.591 12.6581 158.611C13.5664 151.014 19.5549 145.026 27.1516 144.117C28.1322 144 29.2987 144 31.6318 144H320.957C321.983 144 322.496 144 322.93 144.019C333.236 144.469 341.488 152.721 341.938 163.027Z" fill="#BCA4FF"/>
<path d="M296.02 175.937C295.324 175.937 294.732 175.748 294.242 175.369C293.753 174.987 293.379 174.435 293.12 173.712C292.862 172.985 292.733 172.108 292.733 171.08C292.733 170.059 292.862 169.186 293.12 168.463C293.382 167.736 293.757 167.182 294.247 166.801C294.739 166.416 295.33 166.224 296.02 166.224C296.709 166.224 297.298 166.416 297.788 166.801C298.28 167.182 298.656 167.736 298.914 168.463C299.176 169.186 299.306 170.059 299.306 171.08C299.306 172.108 299.177 172.985 298.919 173.712C298.66 174.435 298.286 174.987 297.797 175.369C297.308 175.748 296.715 175.937 296.02 175.937ZM296.02 174.921C296.709 174.921 297.244 174.589 297.626 173.924C298.008 173.259 298.199 172.311 298.199 171.08C298.199 170.262 298.111 169.565 297.935 168.989C297.763 168.414 297.514 167.975 297.188 167.673C296.864 167.372 296.475 167.221 296.02 167.221C295.336 167.221 294.802 167.558 294.418 168.232C294.033 168.903 293.841 169.852 293.841 171.08C293.841 171.899 293.927 172.595 294.099 173.167C294.271 173.739 294.519 174.175 294.842 174.473C295.169 174.772 295.561 174.921 296.02 174.921ZM303.829 175.937C303.195 175.937 302.635 175.825 302.149 175.6C301.666 175.372 301.289 175.06 301.018 174.663C300.747 174.263 300.613 173.807 300.616 173.296C300.613 172.896 300.691 172.527 300.852 172.188C301.012 171.847 301.23 171.562 301.507 171.334C301.787 171.103 302.099 170.957 302.444 170.896V170.84C301.992 170.723 301.632 170.469 301.364 170.079C301.096 169.685 300.964 169.237 300.967 168.735C300.964 168.255 301.085 167.826 301.332 167.447C301.578 167.069 301.916 166.77 302.347 166.552C302.781 166.333 303.275 166.224 303.829 166.224C304.377 166.224 304.866 166.333 305.297 166.552C305.728 166.77 306.067 167.069 306.313 167.447C306.562 167.826 306.688 168.255 306.691 168.735C306.688 169.237 306.551 169.685 306.28 170.079C306.013 170.469 305.657 170.723 305.214 170.84V170.896C305.556 170.957 305.863 171.103 306.137 171.334C306.411 171.562 306.63 171.847 306.793 172.188C306.956 172.527 307.039 172.896 307.042 173.296C307.039 173.807 306.901 174.263 306.627 174.663C306.356 175.06 305.979 175.372 305.496 175.6C305.016 175.825 304.46 175.937 303.829 175.937ZM303.829 174.921C304.257 174.921 304.626 174.852 304.937 174.714C305.248 174.575 305.488 174.38 305.657 174.127C305.827 173.875 305.913 173.579 305.916 173.241C305.913 172.884 305.82 172.568 305.639 172.294C305.457 172.021 305.209 171.805 304.896 171.648C304.585 171.491 304.229 171.413 303.829 171.413C303.426 171.413 303.066 171.491 302.749 171.648C302.435 171.805 302.187 172.021 302.006 172.294C301.827 172.568 301.739 172.884 301.742 173.241C301.739 173.579 301.821 173.875 301.987 174.127C302.156 174.38 302.398 174.575 302.712 174.714C303.026 174.852 303.398 174.921 303.829 174.921ZM303.829 170.434C304.168 170.434 304.468 170.366 304.729 170.231C304.994 170.095 305.202 169.906 305.353 169.663C305.503 169.42 305.58 169.135 305.583 168.809C305.58 168.489 305.505 168.21 305.357 167.973C305.209 167.733 305.005 167.549 304.743 167.419C304.482 167.287 304.177 167.221 303.829 167.221C303.475 167.221 303.166 167.287 302.901 167.419C302.637 167.549 302.432 167.733 302.287 167.973C302.143 168.21 302.072 168.489 302.075 168.809C302.072 169.135 302.144 169.42 302.292 169.663C302.443 169.906 302.65 170.095 302.915 170.231C303.18 170.366 303.484 170.434 303.829 170.434ZM309.364 174.598C309.136 174.598 308.941 174.517 308.778 174.353C308.615 174.19 308.533 173.995 308.533 173.767C308.533 173.539 308.615 173.344 308.778 173.181C308.941 173.018 309.136 172.936 309.364 172.936C309.592 172.936 309.787 173.018 309.95 173.181C310.113 173.344 310.195 173.539 310.195 173.767C310.195 173.918 310.156 174.056 310.08 174.183C310.006 174.309 309.906 174.41 309.779 174.487C309.656 174.561 309.518 174.598 309.364 174.598ZM309.364 169.815C309.136 169.815 308.941 169.734 308.778 169.571C308.615 169.408 308.533 169.212 308.533 168.984C308.533 168.757 308.615 168.561 308.778 168.398C308.941 168.235 309.136 168.153 309.364 168.153C309.592 168.153 309.787 168.235 309.95 168.398C310.113 168.561 310.195 168.757 310.195 168.984C310.195 169.135 310.156 169.274 310.08 169.4C310.006 169.526 309.906 169.628 309.779 169.705C309.656 169.778 309.518 169.815 309.364 169.815ZM311.65 173.869V172.927L315.805 166.353H316.488V167.812H316.026L312.887 172.779V172.853H318.482V173.869H311.65ZM316.1 175.808V173.582V173.144V166.353H317.19V175.808H316.1ZM323.092 175.937C322.704 175.931 322.316 175.857 321.928 175.715C321.54 175.574 321.187 175.335 320.866 175C320.546 174.661 320.289 174.204 320.095 173.629C319.902 173.05 319.805 172.324 319.805 171.45C319.805 170.613 319.883 169.871 320.04 169.225C320.197 168.575 320.425 168.029 320.723 167.586C321.022 167.139 321.382 166.801 321.804 166.57C322.228 166.339 322.707 166.224 323.239 166.224C323.769 166.224 324.24 166.33 324.652 166.542C325.067 166.752 325.406 167.044 325.668 167.419C325.929 167.795 326.098 168.227 326.175 168.717H325.049C324.944 168.292 324.741 167.94 324.44 167.66C324.138 167.379 323.738 167.239 323.239 167.239C322.507 167.239 321.93 167.558 321.508 168.195C321.09 168.832 320.879 169.726 320.876 170.877H320.95C321.122 170.616 321.327 170.392 321.564 170.208C321.804 170.02 322.068 169.875 322.358 169.774C322.647 169.672 322.953 169.622 323.276 169.622C323.818 169.622 324.313 169.757 324.763 170.028C325.212 170.296 325.572 170.666 325.843 171.14C326.114 171.611 326.249 172.151 326.249 172.761C326.249 173.345 326.118 173.881 325.857 174.367C325.595 174.85 325.227 175.235 324.754 175.521C324.283 175.805 323.729 175.943 323.092 175.937ZM323.092 174.921C323.479 174.921 323.827 174.824 324.135 174.63C324.446 174.437 324.69 174.176 324.869 173.85C325.05 173.524 325.141 173.161 325.141 172.761C325.141 172.37 325.054 172.014 324.878 171.694C324.706 171.371 324.467 171.114 324.163 170.923C323.861 170.733 323.516 170.637 323.129 170.637C322.836 170.637 322.564 170.696 322.311 170.813C322.059 170.926 321.837 171.083 321.647 171.283C321.459 171.484 321.311 171.713 321.203 171.971C321.096 172.227 321.042 172.496 321.042 172.779C321.042 173.155 321.13 173.506 321.305 173.832C321.483 174.158 321.727 174.421 322.034 174.621C322.345 174.821 322.698 174.921 323.092 174.921Z" fill="#421DFF"/>
<path d="M26.7184 172V157.455H31.8036C32.8169 157.455 33.6526 157.63 34.3107 157.98C34.9689 158.326 35.4589 158.792 35.7809 159.379C36.1029 159.962 36.2638 160.608 36.2638 161.318C36.2638 161.943 36.1526 162.459 35.93 162.866C35.7122 163.274 35.4234 163.596 35.0636 163.832C34.7085 164.069 34.3226 164.244 33.9059 164.358V164.5C34.351 164.528 34.7984 164.685 35.2482 164.969C35.698 165.253 36.0745 165.66 36.3775 166.19C36.6805 166.721 36.832 167.369 36.832 168.136C36.832 168.866 36.6663 169.521 36.3349 170.104C36.0034 170.686 35.4802 171.148 34.7653 171.489C34.0503 171.83 33.1199 172 31.9741 172H26.7184ZM28.4798 170.438H31.9741C33.1246 170.438 33.9414 170.215 34.4244 169.77C34.9121 169.32 35.1559 168.776 35.1559 168.136C35.1559 167.644 35.0304 167.189 34.7795 166.773C34.5285 166.351 34.171 166.015 33.707 165.764C33.243 165.509 32.6938 165.381 32.0593 165.381H28.4798V170.438ZM28.4798 163.847H31.7468C32.2771 163.847 32.7553 163.742 33.1815 163.534C33.6123 163.326 33.9532 163.032 34.2042 162.653C34.4599 162.275 34.5877 161.83 34.5877 161.318C34.5877 160.679 34.3652 160.137 33.9201 159.692C33.475 159.242 32.7695 159.017 31.8036 159.017H28.4798V163.847ZM44.0728 172.227C43.0217 172.227 42.1149 171.995 41.3526 171.531C40.5951 171.062 40.0103 170.409 39.5984 169.571C39.1912 168.728 38.9876 167.748 38.9876 166.631C38.9876 165.513 39.1912 164.528 39.5984 163.676C40.0103 162.819 40.5832 162.152 41.3171 161.673C42.0558 161.19 42.9175 160.949 43.9023 160.949C44.4705 160.949 45.0316 161.044 45.5856 161.233C46.1396 161.422 46.6438 161.73 47.0984 162.156C47.5529 162.578 47.9151 163.136 48.185 163.832C48.4549 164.528 48.5898 165.385 48.5898 166.403V167.114H40.1808V165.665H46.8853C46.8853 165.049 46.7622 164.5 46.516 164.017C46.2745 163.534 45.9289 163.153 45.479 162.874C45.034 162.594 44.5084 162.455 43.9023 162.455C43.2347 162.455 42.6571 162.62 42.1694 162.952C41.6864 163.278 41.3147 163.705 41.0543 164.23C40.7939 164.756 40.6637 165.319 40.6637 165.92V166.886C40.6637 167.71 40.8058 168.409 41.0898 168.982C41.3787 169.55 41.7788 169.983 42.2901 170.281C42.8015 170.575 43.3957 170.722 44.0728 170.722C44.5131 170.722 44.9109 170.66 45.266 170.537C45.6258 170.409 45.936 170.22 46.1964 169.969C46.4568 169.713 46.658 169.396 46.8001 169.017L48.4194 169.472C48.2489 170.021 47.9625 170.504 47.56 170.92C47.1576 171.332 46.6604 171.654 46.0685 171.886C45.4767 172.114 44.8114 172.227 44.0728 172.227ZM51.1396 176.091V161.091H52.7589V162.824H52.9577C53.0808 162.634 53.2513 162.393 53.4691 162.099C53.6916 161.801 54.0089 161.536 54.4208 161.304C54.8375 161.067 55.4009 160.949 56.1112 160.949C57.0297 160.949 57.8394 161.179 58.5401 161.638C59.2409 162.097 59.7878 162.748 60.1808 163.591C60.5737 164.434 60.7702 165.428 60.7702 166.574C60.7702 167.729 60.5737 168.731 60.1808 169.578C59.7878 170.421 59.2433 171.074 58.5472 171.538C57.8512 171.998 57.0487 172.227 56.1396 172.227C55.4388 172.227 54.8777 172.111 54.4563 171.879C54.0349 171.643 53.7106 171.375 53.4833 171.077C53.256 170.774 53.0808 170.523 52.9577 170.324H52.8157V176.091H51.1396ZM52.7873 166.545C52.7873 167.369 52.908 168.096 53.1495 168.726C53.391 169.351 53.7437 169.841 54.2077 170.196C54.6718 170.546 55.2399 170.722 55.9123 170.722C56.613 170.722 57.1978 170.537 57.6665 170.168C58.14 169.794 58.4951 169.292 58.7319 168.662C58.9734 168.027 59.0941 167.322 59.0941 166.545C59.0941 165.778 58.9757 165.087 58.739 164.472C58.507 163.851 58.1542 163.361 57.6808 163.001C57.212 162.637 56.6225 162.455 55.9123 162.455C55.2305 162.455 54.6576 162.627 54.1935 162.973C53.7295 163.314 53.3791 163.792 53.1424 164.408C52.9057 165.018 52.7873 165.731 52.7873 166.545ZM70.6282 165.778V167.341H64.6055V165.778H70.6282ZM65.0032 161.091V172H63.3271V161.091H65.0032ZM71.9066 161.091V172H70.2305V161.091H71.9066ZM75.6566 176.091C75.3725 176.091 75.1192 176.067 74.8967 176.02C74.6741 175.977 74.5202 175.935 74.435 175.892L74.8612 174.415C75.2683 174.519 75.6282 174.557 75.9407 174.528C76.2532 174.5 76.5302 174.36 76.7717 174.109C77.0179 173.863 77.2428 173.463 77.4464 172.909L77.7589 172.057L73.7248 161.091H75.543L78.5543 169.784H78.668L81.6793 161.091H83.4975L78.8668 173.591C78.6585 174.154 78.4004 174.621 78.0927 174.99C77.7849 175.364 77.4274 175.641 77.0202 175.821C76.6178 176.001 76.1632 176.091 75.6566 176.091ZM89.7511 172.227C88.7283 172.227 87.8477 171.986 87.109 171.503C86.3704 171.02 85.8022 170.355 85.4045 169.507C85.0067 168.66 84.8079 167.691 84.8079 166.602C84.8079 165.494 85.0115 164.517 85.4187 163.669C85.8306 162.817 86.4035 162.152 87.1374 161.673C87.8761 161.19 88.7378 160.949 89.7227 160.949C90.4897 160.949 91.181 161.091 91.7965 161.375C92.4121 161.659 92.9163 162.057 93.3093 162.568C93.7023 163.08 93.9461 163.676 94.0408 164.358H92.3647C92.2369 163.861 91.9528 163.42 91.5124 163.037C91.0768 162.649 90.4897 162.455 89.7511 162.455C89.0977 162.455 88.5247 162.625 88.0323 162.966C87.5446 163.302 87.1635 163.778 86.8888 164.393C86.619 165.004 86.484 165.722 86.484 166.545C86.484 167.388 86.6166 168.122 86.8817 168.747C87.1516 169.372 87.5304 169.857 88.0181 170.203C88.5105 170.549 89.0882 170.722 89.7511 170.722C90.1867 170.722 90.582 170.646 90.9371 170.494C91.2923 170.343 91.5929 170.125 91.8391 169.841C92.0853 169.557 92.2605 169.216 92.3647 168.818H94.0408C93.9461 169.462 93.7118 170.042 93.3377 170.558C92.9684 171.07 92.4783 171.477 91.8675 171.78C91.2615 172.078 90.556 172.227 89.7511 172.227ZM97.94 165.04H101.065C102.343 165.04 103.321 165.364 103.998 166.013C104.675 166.661 105.014 167.483 105.014 168.477C105.014 169.131 104.862 169.725 104.559 170.26C104.256 170.79 103.811 171.214 103.224 171.531C102.637 171.844 101.917 172 101.065 172H96.4911V161.091H98.1673V170.438H101.065C101.728 170.438 102.272 170.262 102.699 169.912C103.125 169.562 103.338 169.112 103.338 168.562C103.338 167.985 103.125 167.514 102.699 167.149C102.272 166.785 101.728 166.602 101.065 166.602H97.94V165.04ZM120.491 165.778V167.341H114.469V165.778H120.491ZM114.866 161.091V172H113.19V161.091H114.866ZM121.77 161.091V172H120.094V161.091H121.77ZM128.041 172.256C127.35 172.256 126.723 172.125 126.159 171.865C125.596 171.6 125.148 171.219 124.817 170.722C124.485 170.22 124.32 169.614 124.32 168.903C124.32 168.278 124.443 167.772 124.689 167.384C124.935 166.991 125.264 166.683 125.676 166.46C126.088 166.238 126.543 166.072 127.04 165.963C127.542 165.849 128.046 165.759 128.553 165.693C129.215 165.608 129.753 165.544 130.165 165.501C130.581 165.454 130.884 165.376 131.074 165.267C131.268 165.158 131.365 164.969 131.365 164.699V164.642C131.365 163.941 131.173 163.397 130.79 163.009C130.411 162.62 129.836 162.426 129.064 162.426C128.264 162.426 127.636 162.601 127.182 162.952C126.727 163.302 126.408 163.676 126.223 164.074L124.632 163.506C124.916 162.843 125.295 162.327 125.768 161.957C126.247 161.583 126.768 161.323 127.331 161.176C127.899 161.025 128.458 160.949 129.007 160.949C129.357 160.949 129.76 160.991 130.214 161.077C130.674 161.157 131.116 161.325 131.543 161.581C131.973 161.837 132.331 162.223 132.615 162.739C132.899 163.255 133.041 163.946 133.041 164.812V172H131.365V170.523H131.28C131.166 170.759 130.977 171.013 130.712 171.283C130.446 171.553 130.094 171.782 129.653 171.972C129.213 172.161 128.676 172.256 128.041 172.256ZM128.297 170.75C128.96 170.75 129.518 170.62 129.973 170.359C130.432 170.099 130.778 169.763 131.01 169.351C131.247 168.939 131.365 168.506 131.365 168.051V166.517C131.294 166.602 131.138 166.68 130.896 166.751C130.66 166.818 130.385 166.877 130.072 166.929C129.765 166.976 129.464 167.019 129.17 167.057C128.882 167.09 128.647 167.118 128.467 167.142C128.032 167.199 127.625 167.291 127.246 167.419C126.872 167.542 126.569 167.729 126.337 167.98C126.109 168.226 125.996 168.562 125.996 168.989C125.996 169.571 126.211 170.011 126.642 170.31C127.078 170.603 127.629 170.75 128.297 170.75ZM148.458 161.091V162.653H143.402V172H141.725V161.091H148.458ZM149.021 172V170.438H149.419C149.746 170.438 150.018 170.374 150.236 170.246C150.454 170.113 150.629 169.884 150.761 169.557C150.899 169.225 151.003 168.766 151.074 168.179C151.15 167.587 151.204 166.834 151.237 165.92L151.436 161.091H158.709V172H157.033V162.653H153.027L152.857 166.545C152.819 167.44 152.738 168.229 152.615 168.911C152.497 169.588 152.314 170.156 152.068 170.615C151.827 171.074 151.505 171.42 151.102 171.652C150.7 171.884 150.196 172 149.589 172H149.021ZM164.994 172.256C164.303 172.256 163.676 172.125 163.112 171.865C162.549 171.6 162.101 171.219 161.77 170.722C161.438 170.22 161.273 169.614 161.273 168.903C161.273 168.278 161.396 167.772 161.642 167.384C161.888 166.991 162.217 166.683 162.629 166.46C163.041 166.238 163.496 166.072 163.993 165.963C164.495 165.849 164.999 165.759 165.506 165.693C166.169 165.608 166.706 165.544 167.118 165.501C167.535 165.454 167.838 165.376 168.027 165.267C168.221 165.158 168.318 164.969 168.318 164.699V164.642C168.318 163.941 168.126 163.397 167.743 163.009C167.364 162.62 166.789 162.426 166.017 162.426C165.217 162.426 164.589 162.601 164.135 162.952C163.68 163.302 163.361 163.676 163.176 164.074L161.585 163.506C161.869 162.843 162.248 162.327 162.722 161.957C163.2 161.583 163.721 161.323 164.284 161.176C164.852 161.025 165.411 160.949 165.96 160.949C166.311 160.949 166.713 160.991 167.168 161.077C167.627 161.157 168.07 161.325 168.496 161.581C168.927 161.837 169.284 162.223 169.568 162.739C169.852 163.255 169.994 163.946 169.994 164.812V172H168.318V170.523H168.233C168.119 170.759 167.93 171.013 167.665 171.283C167.4 171.553 167.047 171.782 166.607 171.972C166.166 172.161 165.629 172.256 164.994 172.256ZM165.25 170.75C165.913 170.75 166.472 170.62 166.926 170.359C167.385 170.099 167.731 169.763 167.963 169.351C168.2 168.939 168.318 168.506 168.318 168.051V166.517C168.247 166.602 168.091 166.68 167.849 166.751C167.613 166.818 167.338 166.877 167.026 166.929C166.718 166.976 166.417 167.019 166.124 167.057C165.835 167.09 165.6 167.118 165.42 167.142C164.985 167.199 164.578 167.291 164.199 167.419C163.825 167.542 163.522 167.729 163.29 167.98C163.063 168.226 162.949 168.562 162.949 168.989C162.949 169.571 163.164 170.011 163.595 170.31C164.031 170.603 164.582 170.75 165.25 170.75ZM173.054 172V161.091H177.514C178.688 161.091 179.621 161.356 180.312 161.886C181.003 162.417 181.349 163.117 181.349 163.989C181.349 164.652 181.153 165.165 180.76 165.53C180.367 165.89 179.862 166.134 179.247 166.261C179.649 166.318 180.04 166.46 180.419 166.688C180.802 166.915 181.119 167.227 181.37 167.625C181.621 168.018 181.747 168.501 181.747 169.074C181.747 169.633 181.605 170.132 181.321 170.572C181.037 171.013 180.629 171.361 180.099 171.616C179.569 171.872 178.934 172 178.196 172H173.054ZM174.645 170.466H178.196C178.773 170.466 179.225 170.329 179.552 170.054C179.879 169.779 180.042 169.405 180.042 168.932C180.042 168.368 179.879 167.926 179.552 167.604C179.225 167.277 178.773 167.114 178.196 167.114H174.645V170.466ZM174.645 165.665H177.514C177.964 165.665 178.35 165.603 178.672 165.48C178.993 165.352 179.24 165.172 179.41 164.94C179.585 164.704 179.673 164.424 179.673 164.102C179.673 163.643 179.481 163.283 179.098 163.023C178.714 162.758 178.186 162.625 177.514 162.625H174.645V165.665ZM191.585 165.778V167.341H185.562V165.778H191.585ZM185.96 161.091V172H184.284V161.091H185.96ZM192.864 161.091V172H191.188V161.091H192.864ZM196.614 176.091C196.33 176.091 196.076 176.067 195.854 176.02C195.631 175.977 195.477 175.935 195.392 175.892L195.818 174.415C196.225 174.519 196.585 174.557 196.898 174.528C197.21 174.5 197.487 174.36 197.729 174.109C197.975 173.863 198.2 173.463 198.403 172.909L198.716 172.057L194.682 161.091H196.5L199.511 169.784H199.625L202.636 161.091H204.455L199.824 173.591C199.616 174.154 199.357 174.621 199.05 174.99C198.742 175.364 198.384 175.641 197.977 175.821C197.575 176.001 197.12 176.091 196.614 176.091ZM211.894 165.864V167.426H206.127V165.864H211.894ZM207.548 161.091V172H205.871V161.091H207.548ZM215.246 172.227C214.262 172.227 213.397 171.993 212.654 171.524C211.915 171.055 211.338 170.4 210.921 169.557C210.509 168.714 210.303 167.729 210.303 166.602C210.303 165.466 210.509 164.474 210.921 163.626C211.338 162.779 211.915 162.121 212.654 161.652C213.397 161.183 214.262 160.949 215.246 160.949C216.231 160.949 217.093 161.183 217.832 161.652C218.575 162.121 219.153 162.779 219.565 163.626C219.981 164.474 220.19 165.466 220.19 166.602C220.19 167.729 219.981 168.714 219.565 169.557C219.153 170.4 218.575 171.055 217.832 171.524C217.093 171.993 216.231 172.227 215.246 172.227ZM215.246 170.722C215.995 170.722 216.61 170.53 217.093 170.146C217.576 169.763 217.933 169.259 218.165 168.634C218.397 168.009 218.513 167.331 218.513 166.602C218.513 165.873 218.397 165.194 218.165 164.564C217.933 163.934 217.576 163.425 217.093 163.037C216.61 162.649 215.995 162.455 215.246 162.455C214.498 162.455 213.883 162.649 213.4 163.037C212.917 163.425 212.559 163.934 212.327 164.564C212.095 165.194 211.979 165.873 211.979 166.602C211.979 167.331 212.095 168.009 212.327 168.634C212.559 169.259 212.917 169.763 213.4 170.146C213.883 170.53 214.498 170.722 215.246 170.722ZM227.917 162.653V161.091H236.781V162.653H233.201V172H231.525V162.653H227.917ZM243.091 172.227C242.106 172.227 241.242 171.993 240.499 171.524C239.76 171.055 239.182 170.4 238.766 169.557C238.354 168.714 238.148 167.729 238.148 166.602C238.148 165.466 238.354 164.474 238.766 163.626C239.182 162.779 239.76 162.121 240.499 161.652C241.242 161.183 242.106 160.949 243.091 160.949C244.076 160.949 244.938 161.183 245.676 161.652C246.42 162.121 246.997 162.779 247.409 163.626C247.826 164.474 248.034 165.466 248.034 166.602C248.034 167.729 247.826 168.714 247.409 169.557C246.997 170.4 246.42 171.055 245.676 171.524C244.938 171.993 244.076 172.227 243.091 172.227ZM243.091 170.722C243.839 170.722 244.455 170.53 244.938 170.146C245.42 169.763 245.778 169.259 246.01 168.634C246.242 168.009 246.358 167.331 246.358 166.602C246.358 165.873 246.242 165.194 246.01 164.564C245.778 163.934 245.42 163.425 244.938 163.037C244.455 162.649 243.839 162.455 243.091 162.455C242.343 162.455 241.727 162.649 241.244 163.037C240.761 163.425 240.404 163.934 240.172 164.564C239.94 165.194 239.824 165.873 239.824 166.602C239.824 167.331 239.94 168.009 240.172 168.634C240.404 169.259 240.761 169.763 241.244 170.146C241.727 170.53 242.343 170.722 243.091 170.722ZM257.326 161.091V162.653H252.269V172H250.593V161.091H257.326ZM257.69 175.125V170.438H258.599C258.821 170.205 259.013 169.955 259.174 169.685C259.335 169.415 259.475 169.095 259.593 168.726C259.716 168.352 259.82 167.897 259.906 167.362C259.991 166.822 260.067 166.171 260.133 165.409L260.502 161.091H267.434V170.438H269.11V175.125H267.434V172H259.366V175.125H257.69ZM260.502 170.438H265.758V162.653H262.065L261.781 165.409C261.662 166.55 261.515 167.547 261.34 168.399C261.165 169.251 260.886 169.931 260.502 170.438ZM274.545 172.256C273.854 172.256 273.226 172.125 272.663 171.865C272.1 171.6 271.652 171.219 271.321 170.722C270.989 170.22 270.824 169.614 270.824 168.903C270.824 168.278 270.947 167.772 271.193 167.384C271.439 166.991 271.768 166.683 272.18 166.46C272.592 166.238 273.047 166.072 273.544 165.963C274.046 165.849 274.55 165.759 275.056 165.693C275.719 165.608 276.257 165.544 276.669 165.501C277.085 165.454 277.388 165.376 277.578 165.267C277.772 165.158 277.869 164.969 277.869 164.699V164.642C277.869 163.941 277.677 163.397 277.294 163.009C276.915 162.62 276.34 162.426 275.568 162.426C274.768 162.426 274.14 162.601 273.686 162.952C273.231 163.302 272.912 163.676 272.727 164.074L271.136 163.506C271.42 162.843 271.799 162.327 272.272 161.957C272.751 161.583 273.271 161.323 273.835 161.176C274.403 161.025 274.962 160.949 275.511 160.949C275.861 160.949 276.264 160.991 276.718 161.077C277.178 161.157 277.62 161.325 278.047 161.581C278.477 161.837 278.835 162.223 279.119 162.739C279.403 163.255 279.545 163.946 279.545 164.812V172H277.869V170.523H277.784C277.67 170.759 277.481 171.013 277.216 171.283C276.95 171.553 276.598 171.782 276.157 171.972C275.717 172.161 275.18 172.256 274.545 172.256ZM274.801 170.75C275.464 170.75 276.022 170.62 276.477 170.359C276.936 170.099 277.282 169.763 277.514 169.351C277.751 168.939 277.869 168.506 277.869 168.051V166.517C277.798 166.602 277.642 166.68 277.4 166.751C277.163 166.818 276.889 166.877 276.576 166.929C276.269 166.976 275.968 167.019 275.674 167.057C275.386 167.09 275.151 167.118 274.971 167.142C274.536 167.199 274.128 167.291 273.75 167.419C273.376 167.542 273.073 167.729 272.841 167.98C272.613 168.226 272.5 168.562 272.5 168.989C272.5 169.571 272.715 170.011 273.146 170.31C273.582 170.603 274.133 170.75 274.801 170.75Z" fill="black"/>
</svg>
