<svg width="582" height="186" viewBox="0 0 582 186" fill="none" xmlns="http://www.w3.org/2000/svg">
<path opacity="0.9" d="M234 21.5C234 9.62588 243.626 0 255.5 0H541.333C548.835 0 552.586 0 555.628 0.965207C562.01 2.99048 567.01 7.99042 569.035 14.3724C570 17.4139 570 21.1648 570 28.6667C570 32.4176 570 34.2931 569.517 35.8138C568.505 39.0048 566.005 41.5048 562.814 42.5174C561.293 43 559.418 43 555.667 43H255.5C243.626 43 234 33.3741 234 21.5Z" fill="#D4C5FF"/>
<path d="M254.864 13.9636H256.694V19.0101C256.694 19.7578 256.825 20.3456 257.085 20.7735C257.346 21.1965 257.715 21.4965 258.192 21.6736C258.669 21.8458 259.232 21.9318 259.882 21.9318C260.29 21.9318 260.686 21.9171 261.069 21.8876C261.453 21.8531 261.827 21.8064 262.191 21.7474C262.56 21.6884 262.919 21.617 263.268 21.5334C263.622 21.4498 263.969 21.3563 264.308 21.2531V22.9057C263.979 23.009 263.652 23.1025 263.327 23.1861C263.007 23.2697 262.673 23.341 262.324 23.4C261.979 23.4591 261.608 23.5058 261.21 23.5402C260.811 23.5697 260.368 23.5845 259.882 23.5845C258.839 23.5845 257.941 23.4345 257.189 23.1344C256.441 22.8344 255.865 22.3499 255.462 21.681C255.064 21.012 254.864 20.1218 254.864 19.0101V13.9636ZM264.072 13.9636H265.902V29.0737H264.072V13.9636ZM274.084 29.3098C272.992 29.3098 272.05 29.0688 271.258 28.5868C270.471 28.0998 269.864 27.4211 269.436 26.5505C269.013 25.6749 268.802 24.6568 268.802 23.496C268.802 22.3352 269.013 21.3121 269.436 20.4267C269.864 19.5364 270.459 18.8429 271.222 18.3461C271.989 17.8444 272.884 17.5936 273.907 17.5936C274.497 17.5936 275.08 17.6919 275.656 17.8887C276.231 18.0854 276.755 18.4051 277.227 18.8478C277.699 19.2856 278.076 19.866 278.356 20.589C278.636 21.3121 278.777 22.2024 278.777 23.2599V23.9977H270.041V22.4926H277.006C277.006 21.8531 276.878 21.2826 276.622 20.7809C276.371 20.2792 276.012 19.8832 275.545 19.593C275.083 19.3028 274.537 19.1577 273.907 19.1577C273.214 19.1577 272.613 19.3299 272.107 19.6742C271.605 20.0135 271.219 20.4562 270.949 21.0022C270.678 21.5482 270.543 22.1335 270.543 22.7582V23.7616C270.543 24.6174 270.69 25.3429 270.985 25.9381C271.285 26.5283 271.701 26.9784 272.232 27.2883C272.764 27.5932 273.381 27.7457 274.084 27.7457C274.542 27.7457 274.955 27.6817 275.324 27.5539C275.698 27.4211 276.02 27.2243 276.29 26.9636C276.561 26.698 276.77 26.3685 276.917 25.975L278.6 26.4472C278.422 27.0177 278.125 27.5194 277.707 27.9523C277.289 28.3802 276.772 28.7147 276.157 28.9557C275.543 29.1918 274.851 29.3098 274.084 29.3098ZM271.694 15.8524C271.384 15.8524 271.108 15.7343 270.867 15.4982C270.631 15.2572 270.513 14.9818 270.513 14.6719C270.513 14.3325 270.631 14.0521 270.867 13.8308C271.108 13.6045 271.384 13.4914 271.694 13.4914C272.033 13.4914 272.313 13.6045 272.535 13.8308C272.761 14.0521 272.874 14.3325 272.874 14.6719C272.874 14.9818 272.761 15.2572 272.535 15.4982C272.313 15.7343 272.033 15.8524 271.694 15.8524ZM275.943 15.8524C275.634 15.8524 275.358 15.7343 275.117 15.4982C274.881 15.2572 274.763 14.9818 274.763 14.6719C274.763 14.3325 274.881 14.0521 275.117 13.8308C275.358 13.6045 275.634 13.4914 275.943 13.4914C276.283 13.4914 276.563 13.6045 276.785 13.8308C277.011 14.0521 277.124 14.3325 277.124 14.6719C277.124 14.9818 277.011 15.2572 276.785 15.4982C276.563 15.7343 276.283 15.8524 275.943 15.8524ZM280.37 19.3643V17.7411H289.578V19.3643H285.859V29.0737H284.118V19.3643H280.37ZM296.133 29.3098C295.11 29.3098 294.213 29.0664 293.44 28.5794C292.673 28.0925 292.073 27.4112 291.64 26.5357C291.212 25.6602 290.998 24.6371 290.998 23.4665C290.998 22.286 291.212 21.2555 291.64 20.3751C292.073 19.4946 292.673 18.8109 293.44 18.324C294.213 17.837 295.11 17.5936 296.133 17.5936C297.156 17.5936 298.052 17.837 298.819 18.324C299.591 18.8109 300.191 19.4946 300.619 20.3751C301.052 21.2555 301.268 22.286 301.268 23.4665C301.268 24.6371 301.052 25.6602 300.619 26.5357C300.191 27.4112 299.591 28.0925 298.819 28.5794C298.052 29.0664 297.156 29.3098 296.133 29.3098ZM296.133 27.7457C296.91 27.7457 297.55 27.5465 298.052 27.1481C298.553 26.7497 298.925 26.2258 299.166 25.5766C299.407 24.9273 299.527 24.2239 299.527 23.4665C299.527 22.709 299.407 22.0031 299.166 21.349C298.925 20.6948 298.553 20.166 298.052 19.7627C297.55 19.3594 296.91 19.1577 296.133 19.1577C295.356 19.1577 294.717 19.3594 294.215 19.7627C293.713 20.166 293.342 20.6948 293.101 21.349C292.86 22.0031 292.739 22.709 292.739 23.4665C292.739 24.2239 292.86 24.9273 293.101 25.5766C293.342 26.2258 293.713 26.7497 294.215 27.1481C294.717 27.5465 295.356 27.7457 296.133 27.7457ZM314.374 29.3098C313.311 29.3098 312.396 29.059 311.629 28.5573C310.862 28.0556 310.271 27.3645 309.858 26.4841C309.445 25.6036 309.238 24.5977 309.238 23.4665C309.238 22.3155 309.45 21.2998 309.873 20.4193C310.301 19.534 310.896 18.8429 311.658 18.3461C312.426 17.8444 313.321 17.5936 314.344 17.5936C315.141 17.5936 315.859 17.7411 316.498 18.0362C317.138 18.3314 317.662 18.7445 318.07 19.2757C318.478 19.807 318.732 20.4267 318.83 21.135H317.089C316.956 20.6185 316.661 20.1611 316.203 19.7627C315.751 19.3594 315.141 19.1577 314.374 19.1577C313.695 19.1577 313.1 19.3348 312.588 19.6889C312.081 20.0381 311.686 20.5325 311.4 21.1719C311.12 21.8064 310.98 22.5516 310.98 23.4074C310.98 24.283 311.117 25.0453 311.393 25.6946C311.673 26.3439 312.067 26.848 312.573 27.2071C313.085 27.5662 313.685 27.7457 314.374 27.7457C314.826 27.7457 315.237 27.667 315.606 27.5096C315.975 27.3522 316.287 27.1259 316.543 26.8308C316.798 26.5357 316.98 26.1816 317.089 25.7684H318.83C318.732 26.4373 318.488 27.0399 318.099 27.576C317.716 28.1072 317.207 28.5302 316.572 28.845C315.943 29.1549 315.21 29.3098 314.374 29.3098ZM326.127 29.3098C325.035 29.3098 324.093 29.0688 323.301 28.5868C322.514 28.0998 321.907 27.4211 321.479 26.5505C321.056 25.6749 320.844 24.6568 320.844 23.496C320.844 22.3352 321.056 21.3121 321.479 20.4267C321.907 19.5364 322.502 18.8429 323.264 18.3461C324.031 17.8444 324.927 17.5936 325.95 17.5936C326.54 17.5936 327.123 17.6919 327.698 17.8887C328.274 18.0854 328.798 18.4051 329.27 18.8478C329.742 19.2856 330.118 19.866 330.399 20.589C330.679 21.3121 330.819 22.2024 330.819 23.2599V23.9977H322.084V22.4926H329.048C329.048 21.8531 328.921 21.2826 328.665 20.7809C328.414 20.2792 328.055 19.8832 327.588 19.593C327.125 19.3028 326.579 19.1577 325.95 19.1577C325.256 19.1577 324.656 19.3299 324.149 19.6742C323.648 20.0135 323.262 20.4562 322.991 21.0022C322.721 21.5482 322.585 22.1335 322.585 22.7582V23.7616C322.585 24.6174 322.733 25.3429 323.028 25.9381C323.328 26.5283 323.744 26.9784 324.275 27.2883C324.806 27.5932 325.423 27.7457 326.127 27.7457C326.584 27.7457 326.997 27.6817 327.366 27.5539C327.74 27.4211 328.062 27.2243 328.333 26.9636C328.603 26.698 328.812 26.3685 328.96 25.975L330.642 26.4472C330.465 27.0177 330.167 27.5194 329.749 27.9523C329.331 28.3802 328.815 28.7147 328.2 28.9557C327.585 29.1918 326.894 29.3098 326.127 29.3098ZM333.468 33.3235V17.7411H335.15V19.5414H335.357C335.484 19.3446 335.662 19.0938 335.888 18.7888C336.119 18.4789 336.449 18.2035 336.876 17.9625C337.309 17.7165 337.895 17.5936 338.632 17.5936C339.587 17.5936 340.428 17.8321 341.156 18.3092C341.884 18.7863 342.452 19.4627 342.86 20.3382C343.268 21.2137 343.472 22.2466 343.472 23.4369C343.472 24.6371 343.268 25.6774 342.86 26.5578C342.452 27.4334 341.886 28.1121 341.163 28.5942C340.44 29.0713 339.606 29.3098 338.662 29.3098C337.934 29.3098 337.351 29.1893 336.913 28.9483C336.476 28.7024 336.139 28.4245 335.903 28.1146C335.666 27.7998 335.484 27.5391 335.357 27.3325H335.209V33.3235H333.468ZM335.18 23.4074C335.18 24.2633 335.305 25.0183 335.556 25.6725C335.807 26.3217 336.173 26.8308 336.655 27.1997C337.137 27.5637 337.727 27.7457 338.426 27.7457C339.154 27.7457 339.761 27.5539 340.248 27.1702C340.74 26.7816 341.109 26.2603 341.355 25.6061C341.606 24.947 341.731 24.2141 341.731 23.4074C341.731 22.6106 341.608 21.8925 341.362 21.2531C341.121 20.6087 340.755 20.0996 340.263 19.7258C339.776 19.3471 339.164 19.1577 338.426 19.1577C337.718 19.1577 337.122 19.3372 336.64 19.6963C336.158 20.0504 335.794 20.5472 335.548 21.1867C335.303 21.8212 335.18 22.5614 335.18 23.4074ZM346.128 29.0737V17.7411H350.762C351.982 17.7411 352.951 18.0166 353.669 18.5675C354.387 19.1184 354.746 19.8463 354.746 20.7513C354.746 21.44 354.542 21.9736 354.134 22.3524C353.725 22.7262 353.202 22.9795 352.562 23.1123C352.98 23.1713 353.386 23.3189 353.779 23.555C354.178 23.7911 354.507 24.1157 354.768 24.5289C355.029 24.9371 355.159 25.4388 355.159 26.034C355.159 26.6144 355.012 27.1333 354.716 27.5908C354.421 28.0482 353.998 28.4097 353.447 28.6753C352.897 28.9409 352.237 29.0737 351.47 29.0737H346.128ZM347.781 27.4801H351.47C352.07 27.4801 352.54 27.3374 352.879 27.0522C353.219 26.7669 353.388 26.3783 353.388 25.8864C353.388 25.3011 353.219 24.8412 352.879 24.5067C352.54 24.1674 352.07 23.9977 351.47 23.9977H347.781V27.4801ZM347.781 22.4926H350.762C351.229 22.4926 351.63 22.4286 351.964 22.3007C352.299 22.1679 352.555 21.981 352.732 21.74C352.914 21.4941 353.005 21.2039 353.005 20.8694C353.005 20.3923 352.806 20.0185 352.407 19.7479C352.009 19.4725 351.46 19.3348 350.762 19.3348H347.781V22.4926ZM362.546 29.3098C361.454 29.3098 360.513 29.0688 359.721 28.5868C358.934 28.0998 358.326 27.4211 357.898 26.5505C357.475 25.6749 357.264 24.6568 357.264 23.496C357.264 22.3352 357.475 21.3121 357.898 20.4267C358.326 19.5364 358.921 18.8429 359.684 18.3461C360.451 17.8444 361.346 17.5936 362.369 17.5936C362.96 17.5936 363.542 17.6919 364.118 17.8887C364.693 18.0854 365.217 18.4051 365.689 18.8478C366.162 19.2856 366.538 19.866 366.818 20.589C367.099 21.3121 367.239 22.2024 367.239 23.2599V23.9977H358.503V22.4926H365.468C365.468 21.8531 365.34 21.2826 365.084 20.7809C364.834 20.2792 364.474 19.8832 364.007 19.593C363.545 19.3028 362.999 19.1577 362.369 19.1577C361.676 19.1577 361.076 19.3299 360.569 19.6742C360.067 20.0135 359.681 20.4562 359.411 21.0022C359.14 21.5482 359.005 22.1335 359.005 22.7582V23.7616C359.005 24.6174 359.152 25.3429 359.448 25.9381C359.748 26.5283 360.163 26.9784 360.694 27.2883C361.226 27.5932 361.843 27.7457 362.546 27.7457C363.004 27.7457 363.417 27.6817 363.786 27.5539C364.16 27.4211 364.482 27.2243 364.752 26.9636C365.023 26.698 365.232 26.3685 365.38 25.975L367.062 26.4472C366.885 27.0177 366.587 27.5194 366.169 27.9523C365.751 28.3802 365.234 28.7147 364.62 28.9557C364.005 29.1918 363.314 29.3098 362.546 29.3098ZM369.887 33.3235V17.7411H371.57V19.5414H371.776C371.904 19.3446 372.081 19.0938 372.307 18.7888C372.539 18.4789 372.868 18.2035 373.296 17.9625C373.729 17.7165 374.314 17.5936 375.052 17.5936C376.006 17.5936 376.847 17.8321 377.575 18.3092C378.303 18.7863 378.871 19.4627 379.28 20.3382C379.688 21.2137 379.892 22.2466 379.892 23.4369C379.892 24.6371 379.688 25.6774 379.28 26.5578C378.871 27.4334 378.306 28.1121 377.583 28.5942C376.86 29.0713 376.026 29.3098 375.082 29.3098C374.354 29.3098 373.771 29.1893 373.333 28.9483C372.895 28.7024 372.558 28.4245 372.322 28.1146C372.086 27.7998 371.904 27.5391 371.776 27.3325H371.629V33.3235H369.887ZM371.599 23.4074C371.599 24.2633 371.725 25.0183 371.975 25.6725C372.226 26.3217 372.593 26.8308 373.075 27.1997C373.557 27.5637 374.147 27.7457 374.845 27.7457C375.573 27.7457 376.181 27.5539 376.668 27.1702C377.16 26.7816 377.529 26.2603 377.775 25.6061C378.025 24.947 378.151 24.2141 378.151 23.4074C378.151 22.6106 378.028 21.8925 377.782 21.2531C377.541 20.6087 377.174 20.0996 376.683 19.7258C376.196 19.3471 375.583 19.1577 374.845 19.1577C374.137 19.1577 373.542 19.3372 373.06 19.6963C372.578 20.0504 372.214 20.5472 371.968 21.1867C371.722 21.8212 371.599 22.5614 371.599 23.4074ZM384.053 21.8433H387.3C388.628 21.8433 389.643 22.1802 390.347 22.8541C391.05 23.5279 391.402 24.3813 391.402 25.4142C391.402 26.093 391.244 26.7103 390.93 27.2661C390.615 27.817 390.152 28.2572 389.542 28.5868C388.933 28.9114 388.185 29.0737 387.3 29.0737H382.548V17.7411H384.289V27.4506H387.3C387.988 27.4506 388.554 27.2686 388.997 26.9046C389.439 26.5406 389.661 26.0733 389.661 25.5028C389.661 24.9027 389.439 24.4133 388.997 24.0346C388.554 23.6558 387.988 23.4665 387.3 23.4665H384.053V21.8433ZM393.202 29.0737V17.7411H394.943V29.0737H393.202ZM403.266 26.1816H405.125C405.164 26.6931 405.395 27.0817 405.818 27.3473C406.246 27.6129 406.802 27.7457 407.486 27.7457C408.184 27.7457 408.782 27.603 409.279 27.3178C409.775 27.0276 410.024 26.5603 410.024 25.9159C410.024 25.5372 409.93 25.2077 409.743 24.9273C409.557 24.642 409.293 24.4207 408.954 24.2633C408.615 24.1059 408.214 24.0272 407.751 24.0272H405.804V22.463H407.751C408.445 22.463 408.956 22.3056 409.286 21.9909C409.62 21.6761 409.788 21.2826 409.788 20.8104C409.788 20.3038 409.608 19.898 409.249 19.593C408.89 19.2831 408.381 19.1282 407.722 19.1282C407.058 19.1282 406.504 19.2782 406.062 19.5782C405.619 19.8734 405.385 20.2546 405.361 20.7218H403.531C403.551 20.1119 403.738 19.5733 404.092 19.1061C404.446 18.6339 404.928 18.265 405.538 17.9994C406.148 17.7288 406.846 17.5936 407.633 17.5936C408.43 17.5936 409.121 17.7337 409.707 18.0141C410.297 18.2896 410.752 18.6658 411.071 19.1429C411.396 19.6151 411.558 20.1513 411.558 20.7513C411.558 21.3908 411.379 21.9072 411.02 22.3007C410.661 22.6942 410.211 22.9746 409.67 23.1418V23.2599C410.098 23.2894 410.469 23.4271 410.784 23.673C411.103 23.9141 411.352 24.2313 411.529 24.6248C411.706 25.0134 411.795 25.4438 411.795 25.9159C411.795 26.6046 411.61 27.2046 411.241 27.7162C410.872 28.2228 410.366 28.6163 409.721 28.8967C409.077 29.1721 408.342 29.3098 407.515 29.3098C406.714 29.3098 405.995 29.1795 405.361 28.9188C404.726 28.6532 404.222 28.2867 403.848 27.8195C403.48 27.3473 403.285 26.8013 403.266 26.1816ZM417.575 29.3393C416.857 29.3393 416.205 29.2041 415.62 28.9335C415.035 28.6581 414.57 28.2622 414.226 27.7457C413.881 27.2243 413.709 26.5947 413.709 25.8569C413.709 25.2077 413.837 24.6814 414.093 24.278C414.349 23.8698 414.69 23.5501 415.118 23.3189C415.546 23.0877 416.018 22.9156 416.535 22.8024C417.056 22.6844 417.58 22.5909 418.106 22.5221C418.795 22.4335 419.353 22.3671 419.781 22.3229C420.214 22.2737 420.529 22.1925 420.726 22.0794C420.927 21.9663 421.028 21.7695 421.028 21.4891V21.4301C421.028 20.7022 420.829 20.1365 420.43 19.7332C420.037 19.3299 419.439 19.1282 418.638 19.1282C417.806 19.1282 417.155 19.3102 416.682 19.6742C416.21 20.0381 415.878 20.4267 415.686 20.8399L414.034 20.2496C414.329 19.561 414.722 19.0249 415.214 18.6412C415.711 18.2527 416.252 17.9821 416.837 17.8297C417.428 17.6723 418.008 17.5936 418.579 17.5936C418.943 17.5936 419.361 17.6378 419.833 17.7264C420.31 17.81 420.77 17.9846 421.213 18.2502C421.66 18.5158 422.031 18.9167 422.327 19.4528C422.622 19.989 422.769 20.7071 422.769 21.6072V29.0737H421.028V27.5391H420.94C420.821 27.785 420.625 28.0482 420.349 28.3286C420.074 28.6089 419.707 28.8475 419.25 29.0442C418.793 29.241 418.234 29.3393 417.575 29.3393ZM417.841 27.7752C418.529 27.7752 419.11 27.6399 419.582 27.3694C420.059 27.0989 420.418 26.7497 420.659 26.3217C420.905 25.8938 421.028 25.4438 421.028 24.9716V23.3779C420.954 23.4665 420.792 23.5476 420.541 23.6214C420.295 23.6903 420.01 23.7517 419.685 23.8058C419.366 23.855 419.053 23.8993 418.748 23.9386C418.448 23.9731 418.205 24.0026 418.018 24.0272C417.565 24.0862 417.142 24.1821 416.749 24.3149C416.36 24.4428 416.045 24.6371 415.804 24.8978C415.568 25.1536 415.45 25.5028 415.45 25.9455C415.45 26.5505 415.674 27.0079 416.122 27.3178C416.574 27.6227 417.147 27.7752 417.841 27.7752ZM432.942 17.7411V19.3643H427.689V29.0737H425.947V17.7411H432.942ZM436.605 33.3235C436.31 33.3235 436.047 33.2989 435.815 33.2497C435.584 33.2054 435.424 33.1611 435.336 33.1169L435.779 31.5822C436.202 31.6905 436.575 31.7298 436.9 31.7003C437.225 31.6708 437.512 31.5257 437.763 31.265C438.019 31.0092 438.253 30.5936 438.464 30.0181L438.789 29.1328L434.598 17.7411H436.487L439.615 26.7718H439.733L442.861 17.7411H444.75L439.94 30.7264C439.723 31.3117 439.455 31.7962 439.136 32.1799C438.816 32.5684 438.444 32.8562 438.021 33.0431C437.603 33.23 437.131 33.3235 436.605 33.3235ZM445.091 29.0737V27.4506H445.505C445.844 27.4506 446.127 27.3842 446.353 27.2514C446.579 27.1136 446.761 26.8751 446.899 26.5357C447.042 26.1914 447.15 25.7143 447.224 25.1044C447.302 24.4895 447.359 23.7075 447.393 22.7582L447.6 17.7411H455.155V29.0737H453.414V19.3643H449.253L449.076 23.4074C449.036 24.3371 448.953 25.156 448.825 25.8643C448.702 26.5677 448.512 27.1579 448.257 27.635C448.006 28.1121 447.671 28.4712 447.253 28.7122C446.835 28.9532 446.311 29.0737 445.682 29.0737H445.091ZM465.167 29.0737V19.3348H462.157C461.478 19.3348 460.944 19.4922 460.556 19.807C460.167 20.1218 459.973 20.5546 459.973 21.1055C459.973 21.6465 460.147 22.072 460.497 22.3819C460.851 22.6918 461.335 22.8467 461.95 22.8467H465.61V24.4699H461.95C461.183 24.4699 460.521 24.3346 459.965 24.0641C459.41 23.7935 458.982 23.4074 458.682 22.9057C458.382 22.3991 458.232 21.799 458.232 21.1055C458.232 20.407 458.389 19.807 458.704 19.3053C459.019 18.8036 459.469 18.4174 460.054 18.1469C460.644 17.8764 461.345 17.7411 462.157 17.7411H466.82V29.0737H465.167ZM457.612 29.0737L460.829 23.4369H462.717L459.501 29.0737H457.612ZM469.013 29.0737V27.4506H469.426C469.765 27.4506 470.048 27.3842 470.274 27.2514C470.501 27.1136 470.683 26.8751 470.82 26.5357C470.963 26.1914 471.071 25.7143 471.145 25.1044C471.224 24.4895 471.28 23.7075 471.315 22.7582L471.521 17.7411H479.076V29.0737H477.335V19.3643H473.174L472.997 23.4074C472.957 24.3371 472.874 25.156 472.746 25.8643C472.623 26.5677 472.434 27.1579 472.178 27.635C471.927 28.1121 471.593 28.4712 471.174 28.7122C470.756 28.9532 470.233 29.0737 469.603 29.0737H469.013ZM484.012 26.5062L489.472 17.7411H491.479V29.0737H489.738V20.3087L484.307 29.0737H482.271V17.7411H484.012V26.5062Z" fill="black"/>
<path d="M507.029 32.3808C506.297 32.3808 505.673 32.1814 505.157 31.7827C504.642 31.3807 504.248 30.7987 503.975 30.0369C503.703 29.2718 503.567 28.3478 503.567 27.265C503.567 26.1887 503.703 25.2696 503.975 24.5078C504.251 23.7427 504.647 23.1591 505.162 22.7571C505.681 22.3519 506.303 22.1492 507.029 22.1492C507.756 22.1492 508.376 22.3519 508.892 22.7571C509.411 23.1591 509.806 23.7427 510.078 24.5078C510.354 25.2696 510.492 26.1887 510.492 27.265C510.492 28.3478 510.356 29.2718 510.083 30.0369C509.811 30.7987 509.417 31.3807 508.902 31.7827C508.386 32.1814 507.762 32.3808 507.029 32.3808ZM507.029 31.311C507.756 31.311 508.32 30.9608 508.722 30.2606C509.124 29.5603 509.325 28.5618 509.325 27.265C509.325 26.4027 509.232 25.6684 509.047 25.0621C508.866 24.4559 508.603 23.9939 508.26 23.6762C507.919 23.3585 507.509 23.1996 507.029 23.1996C506.31 23.1996 505.747 23.5546 505.342 24.2646C504.937 24.9714 504.734 25.9715 504.734 27.265C504.734 28.1274 504.825 28.8601 505.006 29.4631C505.188 30.066 505.449 30.5248 505.789 30.8393C506.133 31.1537 506.546 31.311 507.029 31.311ZM515.256 32.3808C514.588 32.3808 513.998 32.2625 513.486 32.0258C512.977 31.7859 512.58 31.4568 512.294 31.0386C512.009 30.6172 511.868 30.1374 511.871 29.5992C511.868 29.1778 511.951 28.7887 512.119 28.4321C512.288 28.0723 512.518 27.7724 512.81 27.5325C513.105 27.2893 513.434 27.1353 513.797 27.0705V27.0121C513.32 26.889 512.941 26.6215 512.659 26.2098C512.377 25.7948 512.238 25.3231 512.241 24.7947C512.238 24.2889 512.366 23.8367 512.625 23.4379C512.884 23.0392 513.241 22.7247 513.695 22.4945C514.152 22.2643 514.672 22.1492 515.256 22.1492C515.833 22.1492 516.348 22.2643 516.802 22.4945C517.256 22.7247 517.613 23.0392 517.872 23.4379C518.135 23.8367 518.268 24.2889 518.271 24.7947C518.268 25.3231 518.123 25.7948 517.838 26.2098C517.556 26.6215 517.182 26.889 516.715 27.0121V27.0705C517.075 27.1353 517.399 27.2893 517.687 27.5325C517.976 27.7724 518.206 28.0723 518.378 28.4321C518.55 28.7887 518.637 29.1778 518.64 29.5992C518.637 30.1374 518.491 30.6172 518.203 31.0386C517.917 31.4568 517.52 31.7859 517.011 32.0258C516.506 32.2625 515.92 32.3808 515.256 32.3808ZM515.256 31.311C515.706 31.311 516.095 31.238 516.423 31.0921C516.75 30.9462 517.003 30.7404 517.182 30.4745C517.36 30.2087 517.451 29.8975 517.454 29.5409C517.451 29.1648 517.353 28.8325 517.162 28.544C516.971 28.2554 516.71 28.0285 516.379 27.8632C516.052 27.6978 515.677 27.6151 515.256 27.6151C514.831 27.6151 514.452 27.6978 514.118 27.8632C513.787 28.0285 513.526 28.2554 513.335 28.544C513.147 28.8325 513.055 29.1648 513.058 29.5409C513.055 29.8975 513.14 30.2087 513.316 30.4745C513.494 30.7404 513.748 30.9462 514.079 31.0921C514.41 31.238 514.802 31.311 515.256 31.311ZM515.256 26.5842C515.612 26.5842 515.929 26.5129 516.204 26.3702C516.483 26.2276 516.702 26.0282 516.861 25.7721C517.019 25.516 517.1 25.2161 517.104 24.8725C517.1 24.5353 517.021 24.2419 516.865 23.9923C516.71 23.7394 516.494 23.5449 516.219 23.4087C515.943 23.2693 515.622 23.1996 515.256 23.1996C514.883 23.1996 514.557 23.2693 514.278 23.4087C514 23.5449 513.784 23.7394 513.632 23.9923C513.479 24.2419 513.405 24.5353 513.408 24.8725C513.405 25.2161 513.481 25.516 513.636 25.7721C513.795 26.0282 514.014 26.2276 514.293 26.3702C514.572 26.5129 514.893 26.5842 515.256 26.5842ZM521.086 30.9705C520.846 30.9705 520.64 30.8846 520.469 30.7128C520.297 30.541 520.211 30.3351 520.211 30.0952C520.211 29.8553 520.297 29.6495 520.469 29.4776C520.64 29.3058 520.846 29.2199 521.086 29.2199C521.326 29.2199 521.532 29.3058 521.704 29.4776C521.876 29.6495 521.961 29.8553 521.961 30.0952C521.961 30.2541 521.921 30.4 521.84 30.5329C521.762 30.6658 521.657 30.7728 521.524 30.8538C521.394 30.9316 521.248 30.9705 521.086 30.9705ZM521.086 25.9326C520.846 25.9326 520.64 25.8467 520.469 25.6749C520.297 25.503 520.211 25.2972 520.211 25.0573C520.211 24.8174 520.297 24.6115 520.469 24.4397C520.64 24.2679 520.846 24.1819 521.086 24.1819C521.326 24.1819 521.532 24.2679 521.704 24.4397C521.876 24.6115 521.961 24.8174 521.961 25.0573C521.961 25.2161 521.921 25.362 521.84 25.4949C521.762 25.6278 521.657 25.7348 521.524 25.8159C521.394 25.8937 521.248 25.9326 521.086 25.9326ZM523.494 30.2022V29.2102L527.871 22.2854H528.59V23.8221H528.104L524.797 29.0546V29.1324H530.691V30.2022H523.494ZM528.182 32.2446V29.9007V29.4387V22.2854H529.33V32.2446H528.182ZM535.488 32.3808C534.755 32.3808 534.131 32.1814 533.616 31.7827C533.1 31.3807 532.707 30.7987 532.434 30.0369C532.162 29.2718 532.026 28.3478 532.026 27.265C532.026 26.1887 532.162 25.2696 532.434 24.5078C532.71 23.7427 533.105 23.1591 533.621 22.7571C534.139 22.3519 534.762 22.1492 535.488 22.1492C536.214 22.1492 536.835 22.3519 537.351 22.7571C537.869 23.1591 538.265 23.7427 538.537 24.5078C538.813 25.2696 538.95 26.1887 538.95 27.265C538.95 28.3478 538.814 29.2718 538.542 30.0369C538.27 30.7987 537.876 31.3807 537.36 31.7827C536.845 32.1814 536.221 32.3808 535.488 32.3808ZM535.488 31.311C536.214 31.311 536.778 30.9608 537.18 30.2606C537.582 29.5603 537.783 28.5618 537.783 27.265C537.783 26.4027 537.691 25.6684 537.506 25.0621C537.325 24.4559 537.062 23.9939 536.718 23.6762C536.378 23.3585 535.968 23.1996 535.488 23.1996C534.768 23.1996 534.206 23.5546 533.801 24.2646C533.395 24.9714 533.193 25.9715 533.193 27.265C533.193 28.1274 533.284 28.8601 533.465 29.4631C533.647 30.066 533.908 30.5248 534.248 30.8393C534.592 31.1537 535.005 31.311 535.488 31.311Z" fill="#421DFF"/>
<path fill-rule="evenodd" clip-rule="evenodd" d="M556.492 23.1606C556.719 23.3802 556.725 23.7425 556.506 23.9699L547.598 33.1961C547.487 33.3106 547.334 33.3739 547.175 33.3708C547.016 33.3677 546.865 33.2985 546.759 33.1798L542.782 28.7257C542.572 28.4899 542.592 28.1281 542.828 27.9176C543.064 27.707 543.425 27.7275 543.636 27.9633L547.202 31.9576L555.682 23.1748C555.902 22.9474 556.264 22.941 556.492 23.1606Z" fill="#421DFF"/>
<path fill-rule="evenodd" clip-rule="evenodd" d="M559.855 23.1606C560.082 23.3802 560.089 23.7425 559.869 23.9699L550.961 33.1961C550.85 33.3106 550.697 33.3739 550.538 33.3708C550.379 33.3677 550.228 33.2985 550.122 33.1798L546.145 28.7257C545.935 28.4899 545.955 28.1281 546.191 27.9176C546.427 27.707 546.789 27.7275 546.999 27.9633L550.566 31.9576L559.046 23.1748C559.265 22.9474 559.628 22.941 559.855 23.1606Z" fill="#421DFF"/>
<path opacity="0.8" d="M555.688 48C558.961 48 560.598 47.9997 561.938 48.3682C565.441 49.3312 568.179 52.0683 569.142 55.5713C569.428 56.6131 569.49 57.8339 569.504 59.8623L569.594 59.6992C569.597 59.8123 570.118 79.8737 571.392 83.2178C574.074 90.2601 581.282 91.8195 581.317 91.8271C581.26 91.8275 568.045 91.9176 562.909 90.2773C561.222 89.7385 559.636 88.9707 558.343 88.248C556.839 89.0857 555.226 89.7542 553.525 90.2217C550.695 90.9996 547.24 91 540.331 91H188.01C187.179 91 186.763 91.0003 186.412 90.9883C175.584 90.6187 166.891 81.9258 166.521 71.0977C166.51 70.7464 166.51 70.3308 166.51 69.5C166.51 68.6692 166.51 68.2536 166.521 67.9023C166.891 57.0742 175.584 48.3813 186.412 48.0117C186.763 47.9997 187.179 48 188.01 48H555.688Z" fill="#D4C5FF"/>
<path d="M186.463 76.98V61.8698H195.582V63.493H188.292V68.2149H192.129C193.211 68.2149 194.123 68.392 194.866 68.7461C195.614 69.1003 196.179 69.5995 196.563 70.2439C196.952 70.8882 197.146 71.6481 197.146 72.5237C197.146 73.3992 196.952 74.1714 196.563 74.8404C196.179 75.5093 195.614 76.0331 194.866 76.4119C194.123 76.7906 193.211 76.98 192.129 76.98H186.463ZM188.292 75.3863H192.129C192.818 75.3863 193.4 75.2486 193.877 74.9732C194.36 74.6928 194.723 74.3337 194.969 73.896C195.22 73.4533 195.346 72.986 195.346 72.4942C195.346 71.7711 195.068 71.1489 194.512 70.6275C193.956 70.1012 193.162 69.8381 192.129 69.8381H188.292V75.3863ZM201.043 81.2297C200.748 81.2297 200.485 81.2051 200.254 81.1559C200.023 81.1117 199.863 81.0674 199.774 81.0231L200.217 79.4885C200.64 79.5967 201.014 79.6361 201.338 79.6065C201.663 79.577 201.951 79.4319 202.202 79.1712C202.457 78.9155 202.691 78.4998 202.903 77.9244L203.227 77.039L199.037 65.6474H200.925L204.054 74.678H204.172L207.3 65.6474H209.189L204.378 78.6327C204.162 79.218 203.894 79.7025 203.574 80.0861C203.254 80.4747 202.883 80.7624 202.46 80.9493C202.042 81.1363 201.57 81.2297 201.043 81.2297ZM209.323 80.2263V75.3568H210.268C210.499 75.1158 210.698 74.8551 210.865 74.5748C211.033 74.2944 211.178 73.9624 211.301 73.5787C211.428 73.1901 211.537 72.718 211.625 72.1621C211.714 71.6014 211.792 70.9251 211.861 70.1332L212.245 65.6474H219.446V75.3568H221.187V80.2263H219.446V76.98H211.065V80.2263H209.323ZM212.245 75.3568H217.705V67.2705H213.868L213.573 70.1332C213.45 71.3186 213.298 72.354 213.116 73.2393C212.934 74.1247 212.643 74.8305 212.245 75.3568ZM228.25 77.2161C227.158 77.2161 226.216 76.9751 225.424 76.493C224.637 76.0061 224.03 75.3273 223.602 74.4567C223.179 73.5812 222.967 72.563 222.967 71.4022C222.967 70.2414 223.179 69.2183 223.602 68.333C224.03 67.4427 224.625 66.7492 225.387 66.2524C226.154 65.7507 227.05 65.4998 228.073 65.4998C228.663 65.4998 229.246 65.5982 229.821 65.7949C230.397 65.9917 230.921 66.3114 231.393 66.7541C231.865 67.1918 232.241 67.7722 232.522 68.4953C232.802 69.2183 232.942 70.1086 232.942 71.1661V71.9039H224.207V70.3988H231.171C231.171 69.7594 231.044 69.1888 230.788 68.6871C230.537 68.1854 230.178 67.7895 229.711 67.4993C229.248 67.2091 228.702 67.064 228.073 67.064C227.379 67.064 226.779 67.2361 226.272 67.5804C225.771 67.9198 225.385 68.3625 225.114 68.9085C224.844 69.4544 224.708 70.0397 224.708 70.6644V71.6678C224.708 72.5237 224.856 73.2492 225.151 73.8443C225.451 74.4346 225.867 74.8846 226.398 75.1945C226.929 75.4995 227.546 75.6519 228.25 75.6519C228.707 75.6519 229.12 75.588 229.489 75.4601C229.863 75.3273 230.185 75.1306 230.456 74.8699C230.726 74.6043 230.935 74.2747 231.083 73.8812L232.765 74.3534C232.588 74.924 232.29 75.4257 231.872 75.8585C231.454 76.2864 230.938 76.6209 230.323 76.8619C229.708 77.098 229.017 77.2161 228.25 77.2161ZM241.788 74.619L245.743 65.6474H247.396L242.497 76.98H241.08L236.27 65.6474H237.893L241.788 74.619ZM237.332 65.6474V76.98H235.591V65.6474H237.332ZM246.245 76.98V65.6474H247.986V76.98H246.245ZM257.017 76.98V65.6474H265.929V76.98H264.188V67.2705H258.758V76.98H257.017ZM269.109 81.2297V65.6474H270.791V67.4476H270.998C271.126 67.2509 271.303 67 271.529 66.6951C271.76 66.3852 272.09 66.1097 272.518 65.8687C272.951 65.6228 273.536 65.4998 274.274 65.4998C275.228 65.4998 276.069 65.7384 276.797 66.2155C277.525 66.6926 278.093 67.3689 278.501 68.2444C278.91 69.12 279.114 70.1529 279.114 71.3432C279.114 72.5433 278.91 73.5836 278.501 74.4641C278.093 75.3396 277.527 76.0184 276.804 76.5004C276.081 76.9775 275.248 77.2161 274.303 77.2161C273.575 77.2161 272.992 77.0956 272.555 76.8546C272.117 76.6086 271.78 76.3307 271.544 76.0208C271.308 75.706 271.126 75.4454 270.998 75.2388H270.85V81.2297H269.109ZM270.821 71.3137C270.821 72.1695 270.946 72.9245 271.197 73.5787C271.448 74.228 271.814 74.7371 272.296 75.106C272.778 75.47 273.369 75.6519 274.067 75.6519C274.795 75.6519 275.403 75.4601 275.889 75.0765C276.381 74.6879 276.75 74.1665 276.996 73.5123C277.247 72.8532 277.372 72.1203 277.372 71.3137C277.372 70.5169 277.249 69.7987 277.004 69.1593C276.763 68.515 276.396 68.0059 275.904 67.6321C275.417 67.2533 274.805 67.064 274.067 67.064C273.359 67.064 272.764 67.2435 272.282 67.6025C271.8 67.9567 271.436 68.4535 271.19 69.0929C270.944 69.7274 270.821 70.4677 270.821 71.3137ZM283.511 74.4124L288.971 65.6474H290.977V76.98H289.236V68.2149L283.806 76.98H281.77V65.6474H283.511V74.4124ZM294.167 76.98V65.6474H298.8C300.02 65.6474 300.989 65.9228 301.707 66.4737C302.425 67.0246 302.784 67.7526 302.784 68.6576C302.784 69.3462 302.58 69.8799 302.172 70.2586C301.763 70.6324 301.24 70.8858 300.6 71.0186C301.018 71.0776 301.424 71.2251 301.818 71.4612C302.216 71.6973 302.546 72.022 302.806 72.4351C303.067 72.8434 303.197 73.3451 303.197 73.9402C303.197 74.5206 303.05 75.0396 302.755 75.497C302.459 75.9544 302.036 76.316 301.486 76.5816C300.935 76.8472 300.276 76.98 299.508 76.98H294.167ZM295.819 75.3863H299.508C300.108 75.3863 300.578 75.2437 300.917 74.9584C301.257 74.6731 301.427 74.2846 301.427 73.7927C301.427 73.2074 301.257 72.7475 300.917 72.413C300.578 72.0736 300.108 71.9039 299.508 71.9039H295.819V75.3863ZM295.819 70.3988H298.8C299.267 70.3988 299.668 70.3349 300.003 70.207C300.337 70.0742 300.593 69.8873 300.77 69.6463C300.952 69.4003 301.043 69.1101 301.043 68.7756C301.043 68.2985 300.844 67.9247 300.445 67.6542C300.047 67.3787 299.498 67.241 298.8 67.241H295.819V70.3988ZM310.437 77.2161C309.414 77.2161 308.516 76.9726 307.744 76.4857C306.977 75.9987 306.377 75.3175 305.944 74.4419C305.516 73.5664 305.302 72.5433 305.302 71.3727C305.302 70.1922 305.516 69.1618 305.944 68.2813C306.377 67.4009 306.977 66.7172 307.744 66.2302C308.516 65.7433 309.414 65.4998 310.437 65.4998C311.46 65.4998 312.355 65.7433 313.123 66.2302C313.895 66.7172 314.495 67.4009 314.923 68.2813C315.356 69.1618 315.572 70.1922 315.572 71.3727C315.572 72.5433 315.356 73.5664 314.923 74.4419C314.495 75.3175 313.895 75.9987 313.123 76.4857C312.355 76.9726 311.46 77.2161 310.437 77.2161ZM310.437 75.6519C311.214 75.6519 311.854 75.4527 312.355 75.0543C312.857 74.6559 313.228 74.1321 313.469 73.4828C313.71 72.8335 313.831 72.1302 313.831 71.3727C313.831 70.6152 313.71 69.9094 313.469 69.2552C313.228 68.601 312.857 68.0723 312.355 67.6689C311.854 67.2656 311.214 67.064 310.437 67.064C309.66 67.064 309.02 67.2656 308.519 67.6689C308.017 68.0723 307.646 68.601 307.405 69.2552C307.164 69.9094 307.043 70.6152 307.043 71.3727C307.043 72.1302 307.164 72.8335 307.405 73.4828C307.646 74.1321 308.017 74.6559 308.519 75.0543C309.02 75.4527 309.66 75.6519 310.437 75.6519ZM317.02 80.2263V75.3568H317.964C318.196 75.1158 318.395 74.8551 318.562 74.5748C318.729 74.2944 318.874 73.9624 318.997 73.5787C319.125 73.1901 319.233 72.718 319.322 72.1621C319.41 71.6014 319.489 70.9251 319.558 70.1332L319.942 65.6474H327.143V75.3568H328.884V80.2263H327.143V76.98H318.761V80.2263H317.02ZM319.942 75.3568H325.401V67.2705H321.565L321.27 70.1332C321.147 71.3186 320.994 72.354 320.812 73.2393C320.63 74.1247 320.34 74.8305 319.942 75.3568ZM332.936 74.4124L338.396 65.6474H340.403V76.98H338.661V68.2149L333.231 76.98H331.195V65.6474H332.936V74.4124ZM342.05 67.2705V65.6474H351.258V67.2705H347.539V76.98H345.798V67.2705H342.05ZM355.303 69.7495H358.549C359.877 69.7495 360.893 70.0865 361.596 70.7603C362.299 71.4342 362.651 72.2876 362.651 73.3205C362.651 73.9993 362.494 74.6166 362.179 75.1724C361.864 75.7233 361.402 76.1635 360.792 76.493C360.182 76.8177 359.434 76.98 358.549 76.98H353.797V65.6474H355.539V75.3568H358.549C359.237 75.3568 359.803 75.1748 360.246 74.8108C360.688 74.4469 360.91 73.9796 360.91 73.409C360.91 72.809 360.688 72.3195 360.246 71.9408C359.803 71.5621 359.237 71.3727 358.549 71.3727H355.303V69.7495ZM372.886 74.4124L378.346 65.6474H380.353V76.98H378.611V68.2149L373.181 76.98H371.145V65.6474H372.886V74.4124ZM384.84 65.6474L387.555 70.2808L390.271 65.6474H392.277L388.618 71.3137L392.277 76.98H390.271L387.555 72.5827L384.84 76.98H382.834L386.434 71.3137L382.834 65.6474H384.84ZM400.605 76.98V65.6474H405.239C406.458 65.6474 407.427 65.9228 408.146 66.4737C408.864 67.0246 409.223 67.7526 409.223 68.6576C409.223 69.3462 409.019 69.8799 408.61 70.2586C408.202 70.6324 407.678 70.8858 407.039 71.0186C407.457 71.0776 407.863 71.2251 408.256 71.4612C408.655 71.6973 408.984 72.022 409.245 72.4351C409.506 72.8434 409.636 73.3451 409.636 73.9402C409.636 74.5206 409.488 75.0396 409.193 75.497C408.898 75.9544 408.475 76.316 407.924 76.5816C407.373 76.8472 406.714 76.98 405.947 76.98H400.605ZM402.258 75.3863H405.947C406.547 75.3863 407.017 75.2437 407.356 74.9584C407.696 74.6731 407.865 74.2846 407.865 73.7927C407.865 73.2074 407.696 72.7475 407.356 72.413C407.017 72.0736 406.547 71.9039 405.947 71.9039H402.258V75.3863ZM402.258 70.3988H405.239C405.706 70.3988 406.107 70.3349 406.441 70.207C406.776 70.0742 407.032 69.8873 407.209 69.6463C407.391 69.4003 407.482 69.1101 407.482 68.7756C407.482 68.2985 407.282 67.9247 406.884 67.6542C406.486 67.3787 405.937 67.241 405.239 67.241H402.258V70.3988ZM426.851 65.6474V76.98H425.109V65.6474H426.851ZM426.172 71.0481V72.6712C425.778 72.8188 425.387 72.9491 424.999 73.0623C424.61 73.1705 424.202 73.2566 423.774 73.3205C423.346 73.3795 422.876 73.409 422.365 73.409C421.081 73.409 420.051 73.0623 419.273 72.3687C418.501 71.6752 418.115 70.6349 418.115 69.2478V65.6179H419.856V69.2478C419.856 69.8282 419.967 70.3054 420.188 70.6792C420.41 71.053 420.71 71.3309 421.088 71.5129C421.467 71.6949 421.893 71.7859 422.365 71.7859C423.103 71.7859 423.769 71.7195 424.364 71.5867C424.964 71.4489 425.567 71.2694 426.172 71.0481ZM430.761 81.2297C430.466 81.2297 430.203 81.2051 429.972 81.1559C429.74 81.1117 429.581 81.0674 429.492 81.0231L429.935 79.4885C430.358 79.5967 430.731 79.6361 431.056 79.6065C431.381 79.577 431.668 79.4319 431.919 79.1712C432.175 78.9155 432.409 78.4998 432.62 77.9244L432.945 77.039L428.754 65.6474H430.643L433.771 74.678H433.889L437.018 65.6474H438.906L434.096 78.6327C433.879 79.218 433.611 79.7025 433.292 80.0861C432.972 80.4747 432.601 80.7624 432.178 80.9493C431.759 81.1363 431.287 81.2297 430.761 81.2297ZM441.205 76.98V65.6474H445.838C447.058 65.6474 448.027 65.9228 448.745 66.4737C449.463 67.0246 449.822 67.7526 449.822 68.6576C449.822 69.3462 449.618 69.8799 449.21 70.2586C448.801 70.6324 448.278 70.8858 447.638 71.0186C448.056 71.0776 448.462 71.2251 448.856 71.4612C449.254 71.6973 449.584 72.022 449.844 72.4351C450.105 72.8434 450.235 73.3451 450.235 73.9402C450.235 74.5206 450.088 75.0396 449.793 75.497C449.497 75.9544 449.074 76.316 448.524 76.5816C447.973 76.8472 447.314 76.98 446.546 76.98H441.205ZM442.857 75.3863H446.546C447.146 75.3863 447.616 75.2437 447.955 74.9584C448.295 74.6731 448.465 74.2846 448.465 73.7927C448.465 73.2074 448.295 72.7475 447.955 72.413C447.616 72.0736 447.146 71.9039 446.546 71.9039H442.857V75.3863ZM442.857 70.3988H445.838C446.305 70.3988 446.706 70.3349 447.041 70.207C447.375 70.0742 447.631 69.8873 447.808 69.6463C447.99 69.4003 448.081 69.1101 448.081 68.7756C448.081 68.2985 447.882 67.9247 447.483 67.6542C447.085 67.3787 446.536 67.241 445.838 67.241H442.857V70.3988ZM457.475 77.2161C456.412 77.2161 455.498 76.9652 454.73 76.4635C453.963 75.9618 453.373 75.2707 452.96 74.3903C452.546 73.5099 452.34 72.504 452.34 71.3727C452.34 70.2217 452.551 69.206 452.974 68.3256C453.402 67.4402 453.997 66.7492 454.76 66.2524C455.527 65.7507 456.422 65.4998 457.445 65.4998C458.242 65.4998 458.96 65.6474 459.6 65.9425C460.239 66.2376 460.763 66.6508 461.171 67.182C461.58 67.7132 461.833 68.333 461.931 69.0413H460.19C460.057 68.5248 459.762 68.0674 459.305 67.6689C458.852 67.2656 458.242 67.064 457.475 67.064C456.796 67.064 456.201 67.241 455.689 67.5952C455.183 67.9444 454.787 68.4387 454.502 69.0781C454.221 69.7127 454.081 70.4578 454.081 71.3137C454.081 72.1892 454.219 72.9516 454.494 73.6009C454.775 74.2501 455.168 74.7543 455.675 75.1133C456.186 75.4724 456.786 75.6519 457.475 75.6519C457.927 75.6519 458.338 75.5732 458.707 75.4158C459.076 75.2584 459.388 75.0322 459.644 74.7371C459.9 74.4419 460.082 74.0878 460.19 73.6746H461.931C461.833 74.3436 461.589 74.9461 461.201 75.4822C460.817 76.0135 460.308 76.4365 459.674 76.7513C459.044 77.0611 458.311 77.2161 457.475 77.2161ZM463.584 67.2705V65.6474H472.792V67.2705H469.073V76.98H467.332V67.2705H463.584ZM475.332 76.98V65.6474H479.965C481.185 65.6474 482.154 65.9228 482.872 66.4737C483.59 67.0246 483.949 67.7526 483.949 68.6576C483.949 69.3462 483.745 69.8799 483.337 70.2586C482.928 70.6324 482.405 70.8858 481.765 71.0186C482.183 71.0776 482.589 71.2251 482.982 71.4612C483.381 71.6973 483.71 72.022 483.971 72.4351C484.232 72.8434 484.362 73.3451 484.362 73.9402C484.362 74.5206 484.215 75.0396 483.919 75.497C483.624 75.9544 483.201 76.316 482.65 76.5816C482.1 76.8472 481.44 76.98 480.673 76.98H475.332ZM476.984 75.3863H480.673C481.273 75.3863 481.743 75.2437 482.082 74.9584C482.422 74.6731 482.591 74.2846 482.591 73.7927C482.591 73.2074 482.422 72.7475 482.082 72.413C481.743 72.0736 481.273 71.9039 480.673 71.9039H476.984V75.3863ZM476.984 70.3988H479.965C480.432 70.3988 480.833 70.3349 481.167 70.207C481.502 70.0742 481.758 69.8873 481.935 69.6463C482.117 69.4003 482.208 69.1101 482.208 68.7756C482.208 68.2985 482.009 67.9247 481.61 67.6542C481.212 67.3787 480.663 67.241 479.965 67.241H476.984V70.3988ZM490.333 77.2456C489.615 77.2456 488.963 77.1103 488.378 76.8398C487.792 76.5644 487.327 76.1684 486.983 75.6519C486.639 75.1306 486.467 74.501 486.467 73.7632C486.467 73.1139 486.595 72.5876 486.85 72.1843C487.106 71.776 487.448 71.4563 487.876 71.2251C488.304 70.994 488.776 70.8218 489.293 70.7087C489.814 70.5906 490.338 70.4972 490.864 70.4283C491.553 70.3398 492.111 70.2734 492.539 70.2291C492.972 70.1799 493.286 70.0988 493.483 69.9856C493.685 69.8725 493.786 69.6758 493.786 69.3954V69.3364C493.786 68.6084 493.586 68.0428 493.188 67.6394C492.795 67.2361 492.197 67.0344 491.395 67.0344C490.564 67.0344 489.912 67.2164 489.44 67.5804C488.968 67.9444 488.636 68.333 488.444 68.7461L486.791 68.1559C487.086 67.4673 487.48 66.9311 487.972 66.5475C488.469 66.1589 489.01 65.8884 489.595 65.7359C490.185 65.5785 490.766 65.4998 491.336 65.4998C491.7 65.4998 492.118 65.5441 492.59 65.6326C493.068 65.7162 493.527 65.8908 493.97 66.1565C494.418 66.4221 494.789 66.8229 495.084 67.3591C495.379 67.8952 495.527 68.6133 495.527 69.5134V76.98H493.786V75.4454H493.697C493.579 75.6913 493.382 75.9544 493.107 76.2348C492.831 76.5152 492.465 76.7537 492.008 76.9505C491.55 77.1472 490.992 77.2456 490.333 77.2456ZM490.598 75.6815C491.287 75.6815 491.867 75.5462 492.34 75.2757C492.817 75.0051 493.176 74.6559 493.417 74.228C493.663 73.8001 493.786 73.35 493.786 72.8778V71.2842C493.712 71.3727 493.55 71.4539 493.299 71.5276C493.053 71.5965 492.768 71.658 492.443 71.7121C492.123 71.7613 491.811 71.8055 491.506 71.8449C491.206 71.8793 490.962 71.9088 490.775 71.9334C490.323 71.9925 489.9 72.0884 489.506 72.2212C489.118 72.3491 488.803 72.5433 488.562 72.804C488.326 73.0598 488.208 73.409 488.208 73.8517C488.208 74.4567 488.432 74.9141 488.879 75.224C489.332 75.529 489.905 75.6815 490.598 75.6815Z" fill="black"/>
<path d="M511.104 80.4706C510.371 80.4706 509.747 80.2713 509.231 79.8725C508.716 79.4705 508.322 78.8886 508.05 78.1267C507.777 77.3616 507.641 76.4377 507.641 75.3549C507.641 74.2785 507.777 73.3595 508.05 72.5976C508.325 71.8325 508.721 71.249 509.236 70.847C509.755 70.4417 510.377 70.2391 511.104 70.2391C511.83 70.2391 512.451 70.4417 512.966 70.847C513.485 71.249 513.88 71.8325 514.153 72.5976C514.428 73.3595 514.566 74.2785 514.566 75.3549C514.566 76.4377 514.43 77.3616 514.157 78.1267C513.885 78.8886 513.491 79.4705 512.976 79.8725C512.46 80.2713 511.836 80.4706 511.104 80.4706ZM511.104 79.4008C511.83 79.4008 512.394 79.0507 512.796 78.3504C513.198 77.6502 513.399 76.6516 513.399 75.3549C513.399 74.4925 513.306 73.7582 513.122 73.152C512.94 72.5457 512.678 72.0838 512.334 71.766C511.993 71.4483 511.583 71.2895 511.104 71.2895C510.384 71.2895 509.821 71.6445 509.416 72.3545C509.011 73.0612 508.808 74.0613 508.808 75.3549C508.808 76.2172 508.899 76.9499 509.081 77.5529C509.262 78.1559 509.523 78.6146 509.864 78.9291C510.207 79.2436 510.621 79.4008 511.104 79.4008ZM519.33 80.4706C518.662 80.4706 518.072 80.3523 517.56 80.1156C517.051 79.8757 516.654 79.5467 516.369 79.1285C516.083 78.707 515.942 78.2272 515.945 77.6891C515.942 77.2676 516.025 76.8786 516.193 76.522C516.362 76.1621 516.592 75.8622 516.884 75.6223C517.179 75.3792 517.508 75.2252 517.871 75.1603V75.102C517.395 74.9788 517.015 74.7113 516.733 74.2996C516.451 73.8846 516.312 73.4129 516.315 72.8845C516.312 72.3788 516.44 71.9265 516.699 71.5278C516.959 71.129 517.315 70.8145 517.769 70.5844C518.226 70.3542 518.746 70.2391 519.33 70.2391C519.907 70.2391 520.423 70.3542 520.876 70.5844C521.33 70.8145 521.687 71.129 521.946 71.5278C522.209 71.9265 522.342 72.3788 522.345 72.8845C522.342 73.4129 522.198 73.8846 521.912 74.2996C521.63 74.7113 521.256 74.9788 520.789 75.102V75.1603C521.149 75.2252 521.473 75.3792 521.761 75.6223C522.05 75.8622 522.28 76.1621 522.452 76.522C522.624 76.8786 522.711 77.2676 522.715 77.6891C522.711 78.2272 522.565 78.707 522.277 79.1285C521.992 79.5467 521.595 79.8757 521.086 80.1156C520.58 80.3523 519.995 80.4706 519.33 80.4706ZM519.33 79.4008C519.781 79.4008 520.17 79.3279 520.497 79.182C520.825 79.0361 521.077 78.8302 521.256 78.5644C521.434 78.2985 521.525 77.9873 521.528 77.6307C521.525 77.2546 521.428 76.9223 521.236 76.6338C521.045 76.3453 520.784 76.1183 520.453 75.953C520.126 75.7877 519.751 75.705 519.33 75.705C518.905 75.705 518.526 75.7877 518.192 75.953C517.861 76.1183 517.6 76.3453 517.409 76.6338C517.221 76.9223 517.129 77.2546 517.132 77.6307C517.129 77.9873 517.215 78.2985 517.39 78.5644C517.568 78.8302 517.823 79.0361 518.153 79.182C518.484 79.3279 518.876 79.4008 519.33 79.4008ZM519.33 74.6741C519.687 74.6741 520.003 74.6027 520.278 74.4601C520.557 74.3174 520.776 74.1181 520.935 73.862C521.094 73.6058 521.175 73.306 521.178 72.9623C521.175 72.6252 521.095 72.3318 520.94 72.0821C520.784 71.8293 520.568 71.6347 520.293 71.4986C520.017 71.3592 519.696 71.2895 519.33 71.2895C518.957 71.2895 518.631 71.3592 518.353 71.4986C518.074 71.6347 517.858 71.8293 517.706 72.0821C517.553 72.3318 517.479 72.6252 517.482 72.9623C517.479 73.306 517.555 73.6058 517.711 73.862C517.87 74.1181 518.088 74.3174 518.367 74.4601C518.646 74.6027 518.967 74.6741 519.33 74.6741ZM525.16 79.0604C524.92 79.0604 524.715 78.9745 524.543 78.8027C524.371 78.6308 524.285 78.425 524.285 78.1851C524.285 77.9452 524.371 77.7393 524.543 77.5675C524.715 77.3957 524.92 77.3097 525.16 77.3097C525.4 77.3097 525.606 77.3957 525.778 77.5675C525.95 77.7393 526.036 77.9452 526.036 78.1851C526.036 78.3439 525.995 78.4898 525.914 78.6227C525.836 78.7557 525.731 78.8626 525.598 78.9437C525.468 79.0215 525.322 79.0604 525.16 79.0604ZM525.16 74.0224C524.92 74.0224 524.715 73.9365 524.543 73.7647C524.371 73.5929 524.285 73.387 524.285 73.1471C524.285 72.9072 524.371 72.7013 524.543 72.5295C524.715 72.3577 524.92 72.2718 525.16 72.2718C525.4 72.2718 525.606 72.3577 525.778 72.5295C525.95 72.7013 526.036 72.9072 526.036 73.1471C526.036 73.306 525.995 73.4518 525.914 73.5848C525.836 73.7177 525.731 73.8247 525.598 73.9057C525.468 73.9835 525.322 74.0224 525.16 74.0224ZM527.568 78.2921V77.3L531.945 70.3753H532.665V71.9119H532.178L528.872 77.1444V77.2222H534.765V78.2921H527.568ZM532.256 80.3345V77.9906V77.5286V70.3753H533.404V80.3345H532.256ZM539.681 70.3753V80.3345H538.475V71.6396H538.417L535.986 73.2541V72.0286L538.475 70.3753H539.681Z" fill="#421DFF"/>
<path fill-rule="evenodd" clip-rule="evenodd" d="M559.8 71.4384C560.028 71.658 560.034 72.0203 559.815 72.2477L550.906 81.474C550.796 81.5885 550.643 81.6518 550.483 81.6487C550.324 81.6456 550.174 81.5763 550.068 81.4576L546.091 77.0035C545.88 76.7677 545.901 76.4059 546.136 76.1954C546.372 75.9849 546.734 76.0053 546.945 76.2411L550.511 80.2354L558.991 71.4526C559.211 71.2252 559.573 71.2189 559.8 71.4384Z" fill="#421DFF"/>
<path fill-rule="evenodd" clip-rule="evenodd" d="M562.855 71.3593C563.082 71.5789 563.089 71.9412 562.869 72.1686L553.961 81.3949C553.85 81.5094 553.697 81.5727 553.538 81.5696C553.379 81.5665 553.228 81.4972 553.122 81.3785L549.145 76.9244C548.935 76.6886 548.955 76.3268 549.191 76.1163C549.427 75.9058 549.789 75.9262 549.999 76.162L553.566 80.1563L562.046 71.3735C562.265 71.1461 562.628 71.1398 562.855 71.3593Z" fill="#421DFF"/>
<path opacity="0.8" d="M140 118C140 116.974 140 116.461 139.981 116.027C139.531 105.721 131.279 97.4689 120.973 97.0189C120.539 97 120.026 97 119 97H41.832C35.4397 97 32.2436 97 29.6115 97.6593C21.7371 99.6317 15.5888 105.78 13.6163 113.654C12.957 116.287 12.957 119.483 12.957 125.875C12.957 128.781 12.957 130.233 13.2567 131.43C14.1533 135.009 16.948 137.804 20.5272 138.7C21.7236 139 23.1764 139 26.082 139H119C120.026 139 120.539 139 120.973 138.981C131.279 138.531 139.531 130.279 139.981 119.973C140 119.539 140 119.026 140 118Z" fill="#BCA4FF"/>
<path d="M94.0195 130.129C93.324 130.129 92.7315 129.94 92.2422 129.561C91.7528 129.18 91.3789 128.627 91.1204 127.904C90.8619 127.178 90.7326 126.301 90.7326 125.273C90.7326 124.251 90.8619 123.378 91.1204 122.655C91.382 121.929 91.7575 121.375 92.2468 120.993C92.7392 120.609 93.3301 120.416 94.0195 120.416C94.7089 120.416 95.2983 120.609 95.7876 120.993C96.2801 121.375 96.6555 121.929 96.9141 122.655C97.1757 123.378 97.3065 124.251 97.3065 125.273C97.3065 126.301 97.1772 127.178 96.9187 127.904C96.6602 128.627 96.2862 129.18 95.7969 129.561C95.3075 129.94 94.7151 130.129 94.0195 130.129ZM94.0195 129.114C94.7089 129.114 95.2444 128.781 95.6261 128.116C96.0077 127.452 96.1985 126.504 96.1985 125.273C96.1985 124.454 96.1108 123.757 95.9354 123.181C95.763 122.606 95.5137 122.167 95.1875 121.866C94.8643 121.564 94.475 121.413 94.0195 121.413C93.3363 121.413 92.8023 121.75 92.4176 122.424C92.0329 123.095 91.8406 124.045 91.8406 125.273C91.8406 126.091 91.9267 126.787 92.0991 127.359C92.2714 127.932 92.5192 128.367 92.8423 128.666C93.1686 128.964 93.561 129.114 94.0195 129.114ZM101.829 130.129C101.195 130.129 100.635 130.017 100.149 129.792C99.6655 129.565 99.2885 129.252 99.0177 128.855C98.7469 128.455 98.613 128 98.6161 127.489C98.613 127.089 98.6915 126.719 98.8515 126.381C99.0115 126.039 99.2301 125.754 99.507 125.527C99.7871 125.296 100.099 125.15 100.444 125.088V125.033C99.9918 124.916 99.6317 124.662 99.3639 124.271C99.0962 123.877 98.9638 123.429 98.9669 122.928C98.9638 122.447 99.0854 122.018 99.3316 121.64C99.5778 121.261 99.9164 120.962 100.347 120.744C100.781 120.525 101.275 120.416 101.829 120.416C102.377 120.416 102.866 120.525 103.297 120.744C103.728 120.962 104.067 121.261 104.313 121.64C104.562 122.018 104.688 122.447 104.691 122.928C104.688 123.429 104.551 123.877 104.28 124.271C104.013 124.662 103.657 124.916 103.214 125.033V125.088C103.556 125.15 103.863 125.296 104.137 125.527C104.411 125.754 104.63 126.039 104.793 126.381C104.956 126.719 105.039 127.089 105.042 127.489C105.039 128 104.901 128.455 104.627 128.855C104.356 129.252 103.979 129.565 103.496 129.792C103.016 130.017 102.46 130.129 101.829 130.129ZM101.829 129.114C102.257 129.114 102.626 129.044 102.937 128.906C103.248 128.767 103.488 128.572 103.657 128.32C103.827 128.067 103.913 127.772 103.916 127.433C103.913 127.076 103.82 126.761 103.639 126.487C103.457 126.213 103.209 125.998 102.896 125.841C102.585 125.684 102.229 125.605 101.829 125.605C101.426 125.605 101.066 125.684 100.749 125.841C100.435 125.998 100.187 126.213 100.006 126.487C99.8271 126.761 99.7394 127.076 99.7425 127.433C99.7394 127.772 99.821 128.067 99.9872 128.32C100.156 128.572 100.398 128.767 100.712 128.906C101.026 129.044 101.398 129.114 101.829 129.114ZM101.829 124.626C102.168 124.626 102.468 124.559 102.729 124.423C102.994 124.288 103.202 124.099 103.353 123.855C103.503 123.612 103.58 123.328 103.583 123.001C103.58 122.681 103.505 122.403 103.357 122.166C103.209 121.926 103.005 121.741 102.743 121.612C102.482 121.48 102.177 121.413 101.829 121.413C101.475 121.413 101.166 121.48 100.901 121.612C100.637 121.741 100.432 121.926 100.287 122.166C100.143 122.403 100.072 122.681 100.075 123.001C100.072 123.328 100.144 123.612 100.292 123.855C100.443 124.099 100.65 124.288 100.915 124.423C101.18 124.559 101.484 124.626 101.829 124.626ZM107.364 128.79C107.136 128.79 106.941 128.709 106.778 128.546C106.615 128.383 106.533 128.187 106.533 127.96C106.533 127.732 106.615 127.536 106.778 127.373C106.941 127.21 107.136 127.129 107.364 127.129C107.592 127.129 107.787 127.21 107.95 127.373C108.113 127.536 108.195 127.732 108.195 127.96C108.195 128.11 108.156 128.249 108.08 128.375C108.006 128.501 107.906 128.603 107.779 128.68C107.656 128.754 107.518 128.79 107.364 128.79ZM107.364 124.008C107.136 124.008 106.941 123.926 106.778 123.763C106.615 123.6 106.533 123.405 106.533 123.177C106.533 122.949 106.615 122.754 106.778 122.591C106.941 122.427 107.136 122.346 107.364 122.346C107.592 122.346 107.787 122.427 107.95 122.591C108.113 122.754 108.195 122.949 108.195 123.177C108.195 123.328 108.156 123.466 108.08 123.592C108.006 123.719 107.906 123.82 107.779 123.897C107.656 123.971 107.518 124.008 107.364 124.008ZM109.65 128.061V127.119L113.805 120.545H114.488V122.004H114.026L110.887 126.972V127.045H116.482V128.061H109.65ZM114.1 130V127.775V127.336V120.545H115.19V130H114.1ZM121.092 130.129C120.704 130.123 120.316 130.049 119.928 129.908C119.54 129.766 119.187 129.528 118.866 129.192C118.546 128.854 118.289 128.397 118.095 127.821C117.902 127.242 117.805 126.516 117.805 125.642C117.805 124.805 117.883 124.063 118.04 123.417C118.197 122.768 118.425 122.221 118.723 121.778C119.022 121.332 119.382 120.993 119.804 120.762C120.228 120.532 120.707 120.416 121.239 120.416C121.769 120.416 122.24 120.522 122.652 120.735C123.067 120.944 123.406 121.236 123.668 121.612C123.929 121.987 124.098 122.42 124.175 122.909H123.049C122.944 122.484 122.741 122.132 122.44 121.852C122.138 121.572 121.738 121.432 121.239 121.432C120.507 121.432 119.93 121.75 119.508 122.387C119.09 123.025 118.879 123.919 118.876 125.07H118.95C119.122 124.808 119.327 124.585 119.564 124.4C119.804 124.212 120.068 124.068 120.358 123.966C120.647 123.865 120.953 123.814 121.276 123.814C121.818 123.814 122.313 123.949 122.763 124.22C123.212 124.488 123.572 124.859 123.843 125.333C124.114 125.804 124.249 126.344 124.249 126.953C124.249 127.538 124.118 128.073 123.857 128.56C123.595 129.043 123.227 129.428 122.754 129.714C122.283 129.997 121.729 130.135 121.092 130.129ZM121.092 129.114C121.479 129.114 121.827 129.017 122.135 128.823C122.446 128.629 122.69 128.369 122.869 128.043C123.05 127.716 123.141 127.353 123.141 126.953C123.141 126.562 123.054 126.207 122.878 125.887C122.706 125.564 122.467 125.307 122.163 125.116C121.861 124.925 121.516 124.83 121.129 124.83C120.836 124.83 120.564 124.888 120.311 125.005C120.059 125.119 119.837 125.276 119.647 125.476C119.459 125.676 119.311 125.905 119.203 126.164C119.096 126.419 119.042 126.688 119.042 126.972C119.042 127.347 119.13 127.698 119.305 128.024C119.483 128.35 119.727 128.614 120.034 128.814C120.345 129.014 120.698 129.114 121.092 129.114Z" fill="#421DFF"/>
<path d="M32.7184 125V110.455H41.4968V112.017H34.4798V116.562H38.1729C39.2146 116.562 40.0929 116.733 40.8079 117.074C41.5276 117.415 42.0721 117.895 42.4414 118.516C42.8155 119.136 43.0025 119.867 43.0025 120.71C43.0025 121.553 42.8155 122.296 42.4414 122.94C42.0721 123.584 41.5276 124.089 40.8079 124.453C40.0929 124.818 39.2146 125 38.1729 125H32.7184ZM34.4798 123.466H38.1729C38.8358 123.466 39.3969 123.333 39.8562 123.068C40.3202 122.798 40.6706 122.453 40.9073 122.031C41.1488 121.605 41.2695 121.155 41.2695 120.682C41.2695 119.986 41.002 119.387 40.467 118.885C39.9319 118.378 39.1673 118.125 38.1729 118.125H34.4798V123.466ZM44.7088 125V123.438H45.1065C45.4332 123.438 45.7055 123.374 45.9233 123.246C46.1411 123.113 46.3163 122.884 46.4489 122.557C46.5862 122.225 46.6903 121.766 46.7614 121.179C46.8371 120.587 46.8916 119.834 46.9247 118.92L47.1236 114.091H54.3963V125H52.7202V115.653H48.7145L48.544 119.545C48.5062 120.44 48.4257 121.229 48.3026 121.911C48.1842 122.588 48.0019 123.156 47.7557 123.615C47.5142 124.074 47.1922 124.42 46.7898 124.652C46.3873 124.884 45.883 125 45.277 125H44.7088ZM59.1477 122.528L64.4034 114.091H66.3352V125H64.6591V116.562L59.4318 125H57.4716V114.091H59.1477V122.528ZM76.7063 118.778V120.341H70.6836V118.778H76.7063ZM71.0813 114.091V125H69.4052V114.091H71.0813ZM77.9847 114.091V125H76.3086V114.091H77.9847Z" fill="black"/>
<path opacity="0.8" fill-rule="evenodd" clip-rule="evenodd" d="M341.938 163.027C341.957 163.461 341.957 163.974 341.957 165C341.957 166.026 341.957 166.539 341.938 166.973C341.488 177.279 333.236 185.531 322.93 185.981C322.496 186 321.983 186 320.957 186H35.4499C32.6503 186 31.2504 186 30.0737 185.859C27.8918 185.598 25.8204 184.988 23.9168 184.086C23.4322 184.236 22.937 184.376 22.4344 184.503C16.1623 186.09 0.000976562 185.999 0.000976562 185.999C0.000976562 185.999 8.82047 184.503 12.0979 177.686C12.6273 176.585 13.0112 174.19 13.2874 171.509C13.01 170.524 12.806 169.508 12.6815 168.467C12.5408 167.29 12.5408 165.891 12.5408 163.091C12.5408 160.758 12.5408 159.591 12.6581 158.611C13.5664 151.014 19.5549 145.026 27.1516 144.117C28.1322 144 29.2987 144 31.6318 144H320.957C321.983 144 322.496 144 322.93 144.019C333.236 144.469 341.488 152.721 341.938 163.027Z" fill="#BCA4FF"/>
<path d="M296.02 175.937C295.324 175.937 294.732 175.748 294.242 175.369C293.753 174.987 293.379 174.435 293.12 173.712C292.862 172.985 292.733 172.108 292.733 171.08C292.733 170.059 292.862 169.186 293.12 168.463C293.382 167.736 293.757 167.182 294.247 166.801C294.739 166.416 295.33 166.224 296.02 166.224C296.709 166.224 297.298 166.416 297.788 166.801C298.28 167.182 298.656 167.736 298.914 168.463C299.176 169.186 299.306 170.059 299.306 171.08C299.306 172.108 299.177 172.985 298.919 173.712C298.66 174.435 298.286 174.987 297.797 175.369C297.308 175.748 296.715 175.937 296.02 175.937ZM296.02 174.921C296.709 174.921 297.244 174.589 297.626 173.924C298.008 173.259 298.199 172.311 298.199 171.08C298.199 170.262 298.111 169.565 297.935 168.989C297.763 168.414 297.514 167.975 297.188 167.673C296.864 167.372 296.475 167.221 296.02 167.221C295.336 167.221 294.802 167.558 294.418 168.232C294.033 168.903 293.841 169.852 293.841 171.08C293.841 171.899 293.927 172.595 294.099 173.167C294.271 173.739 294.519 174.175 294.842 174.473C295.169 174.772 295.561 174.921 296.02 174.921ZM303.829 175.937C303.195 175.937 302.635 175.825 302.149 175.6C301.666 175.372 301.289 175.06 301.018 174.663C300.747 174.263 300.613 173.807 300.616 173.296C300.613 172.896 300.691 172.527 300.852 172.188C301.012 171.847 301.23 171.562 301.507 171.334C301.787 171.103 302.099 170.957 302.444 170.896V170.84C301.992 170.723 301.632 170.469 301.364 170.079C301.096 169.685 300.964 169.237 300.967 168.735C300.964 168.255 301.085 167.826 301.332 167.447C301.578 167.069 301.916 166.77 302.347 166.552C302.781 166.333 303.275 166.224 303.829 166.224C304.377 166.224 304.866 166.333 305.297 166.552C305.728 166.77 306.067 167.069 306.313 167.447C306.562 167.826 306.688 168.255 306.691 168.735C306.688 169.237 306.551 169.685 306.28 170.079C306.013 170.469 305.657 170.723 305.214 170.84V170.896C305.556 170.957 305.863 171.103 306.137 171.334C306.411 171.562 306.63 171.847 306.793 172.188C306.956 172.527 307.039 172.896 307.042 173.296C307.039 173.807 306.901 174.263 306.627 174.663C306.356 175.06 305.979 175.372 305.496 175.6C305.016 175.825 304.46 175.937 303.829 175.937ZM303.829 174.921C304.257 174.921 304.626 174.852 304.937 174.714C305.248 174.575 305.488 174.38 305.657 174.127C305.827 173.875 305.913 173.579 305.916 173.241C305.913 172.884 305.82 172.568 305.639 172.294C305.457 172.021 305.209 171.805 304.896 171.648C304.585 171.491 304.229 171.413 303.829 171.413C303.426 171.413 303.066 171.491 302.749 171.648C302.435 171.805 302.187 172.021 302.006 172.294C301.827 172.568 301.739 172.884 301.742 173.241C301.739 173.579 301.821 173.875 301.987 174.127C302.156 174.38 302.398 174.575 302.712 174.714C303.026 174.852 303.398 174.921 303.829 174.921ZM303.829 170.434C304.168 170.434 304.468 170.366 304.729 170.231C304.994 170.095 305.202 169.906 305.353 169.663C305.503 169.42 305.58 169.135 305.583 168.809C305.58 168.489 305.505 168.21 305.357 167.973C305.209 167.733 305.005 167.549 304.743 167.419C304.482 167.287 304.177 167.221 303.829 167.221C303.475 167.221 303.166 167.287 302.901 167.419C302.637 167.549 302.432 167.733 302.287 167.973C302.143 168.21 302.072 168.489 302.075 168.809C302.072 169.135 302.144 169.42 302.292 169.663C302.443 169.906 302.65 170.095 302.915 170.231C303.18 170.366 303.484 170.434 303.829 170.434ZM309.364 174.598C309.136 174.598 308.941 174.517 308.778 174.353C308.615 174.19 308.533 173.995 308.533 173.767C308.533 173.539 308.615 173.344 308.778 173.181C308.941 173.018 309.136 172.936 309.364 172.936C309.592 172.936 309.787 173.018 309.95 173.181C310.113 173.344 310.195 173.539 310.195 173.767C310.195 173.918 310.156 174.056 310.08 174.183C310.006 174.309 309.906 174.41 309.779 174.487C309.656 174.561 309.518 174.598 309.364 174.598ZM309.364 169.815C309.136 169.815 308.941 169.734 308.778 169.571C308.615 169.408 308.533 169.212 308.533 168.984C308.533 168.757 308.615 168.561 308.778 168.398C308.941 168.235 309.136 168.153 309.364 168.153C309.592 168.153 309.787 168.235 309.95 168.398C310.113 168.561 310.195 168.757 310.195 168.984C310.195 169.135 310.156 169.274 310.08 169.4C310.006 169.526 309.906 169.628 309.779 169.705C309.656 169.778 309.518 169.815 309.364 169.815ZM311.65 173.869V172.927L315.805 166.353H316.488V167.812H316.026L312.887 172.779V172.853H318.482V173.869H311.65ZM316.1 175.808V173.582V173.144V166.353H317.19V175.808H316.1ZM323.092 175.937C322.704 175.931 322.316 175.857 321.928 175.715C321.54 175.574 321.187 175.335 320.866 175C320.546 174.661 320.289 174.204 320.095 173.629C319.902 173.05 319.805 172.324 319.805 171.45C319.805 170.613 319.883 169.871 320.04 169.225C320.197 168.575 320.425 168.029 320.723 167.586C321.022 167.139 321.382 166.801 321.804 166.57C322.228 166.339 322.707 166.224 323.239 166.224C323.769 166.224 324.24 166.33 324.652 166.542C325.067 166.752 325.406 167.044 325.668 167.419C325.929 167.795 326.098 168.227 326.175 168.717H325.049C324.944 168.292 324.741 167.94 324.44 167.66C324.138 167.379 323.738 167.239 323.239 167.239C322.507 167.239 321.93 167.558 321.508 168.195C321.09 168.832 320.879 169.726 320.876 170.877H320.95C321.122 170.616 321.327 170.392 321.564 170.208C321.804 170.02 322.068 169.875 322.358 169.774C322.647 169.672 322.953 169.622 323.276 169.622C323.818 169.622 324.313 169.757 324.763 170.028C325.212 170.296 325.572 170.666 325.843 171.14C326.114 171.611 326.249 172.151 326.249 172.761C326.249 173.345 326.118 173.881 325.857 174.367C325.595 174.85 325.227 175.235 324.754 175.521C324.283 175.805 323.729 175.943 323.092 175.937ZM323.092 174.921C323.479 174.921 323.827 174.824 324.135 174.63C324.446 174.437 324.69 174.176 324.869 173.85C325.05 173.524 325.141 173.161 325.141 172.761C325.141 172.37 325.054 172.014 324.878 171.694C324.706 171.371 324.467 171.114 324.163 170.923C323.861 170.733 323.516 170.637 323.129 170.637C322.836 170.637 322.564 170.696 322.311 170.813C322.059 170.926 321.837 171.083 321.647 171.283C321.459 171.484 321.311 171.713 321.203 171.971C321.096 172.227 321.042 172.496 321.042 172.779C321.042 173.155 321.13 173.506 321.305 173.832C321.483 174.158 321.727 174.421 322.034 174.621C322.345 174.821 322.698 174.921 323.092 174.921Z" fill="#421DFF"/>
<path d="M26.7184 172V157.455H31.8036C32.8169 157.455 33.6526 157.63 34.3107 157.98C34.9689 158.326 35.4589 158.792 35.7809 159.379C36.1029 159.962 36.2638 160.608 36.2638 161.318C36.2638 161.943 36.1526 162.459 35.93 162.866C35.7122 163.274 35.4234 163.596 35.0636 163.832C34.7085 164.069 34.3226 164.244 33.9059 164.358V164.5C34.351 164.528 34.7984 164.685 35.2482 164.969C35.698 165.253 36.0745 165.66 36.3775 166.19C36.6805 166.721 36.832 167.369 36.832 168.136C36.832 168.866 36.6663 169.521 36.3349 170.104C36.0034 170.686 35.4802 171.148 34.7653 171.489C34.0503 171.83 33.1199 172 31.9741 172H26.7184ZM28.4798 170.438H31.9741C33.1246 170.438 33.9414 170.215 34.4244 169.77C34.9121 169.32 35.1559 168.776 35.1559 168.136C35.1559 167.644 35.0304 167.189 34.7795 166.773C34.5285 166.351 34.171 166.015 33.707 165.764C33.243 165.509 32.6938 165.381 32.0593 165.381H28.4798V170.438ZM28.4798 163.847H31.7468C32.2771 163.847 32.7553 163.742 33.1815 163.534C33.6123 163.326 33.9532 163.032 34.2042 162.653C34.4599 162.275 34.5877 161.83 34.5877 161.318C34.5877 160.679 34.3652 160.137 33.9201 159.692C33.475 159.242 32.7695 159.017 31.8036 159.017H28.4798V163.847ZM44.0728 172.227C43.0217 172.227 42.1149 171.995 41.3526 171.531C40.5951 171.062 40.0103 170.409 39.5984 169.571C39.1912 168.728 38.9876 167.748 38.9876 166.631C38.9876 165.513 39.1912 164.528 39.5984 163.676C40.0103 162.819 40.5832 162.152 41.3171 161.673C42.0558 161.19 42.9175 160.949 43.9023 160.949C44.4705 160.949 45.0316 161.044 45.5856 161.233C46.1396 161.422 46.6438 161.73 47.0984 162.156C47.5529 162.578 47.9151 163.136 48.185 163.832C48.4549 164.528 48.5898 165.385 48.5898 166.403V167.114H40.1808V165.665H46.8853C46.8853 165.049 46.7622 164.5 46.516 164.017C46.2745 163.534 45.9289 163.153 45.479 162.874C45.034 162.594 44.5084 162.455 43.9023 162.455C43.2347 162.455 42.6571 162.62 42.1694 162.952C41.6864 163.278 41.3147 163.705 41.0543 164.23C40.7939 164.756 40.6637 165.319 40.6637 165.92V166.886C40.6637 167.71 40.8058 168.409 41.0898 168.982C41.3787 169.55 41.7788 169.983 42.2901 170.281C42.8015 170.575 43.3957 170.722 44.0728 170.722C44.5131 170.722 44.9109 170.66 45.266 170.537C45.6258 170.409 45.936 170.22 46.1964 169.969C46.4568 169.713 46.658 169.396 46.8001 169.017L48.4194 169.472C48.2489 170.021 47.9625 170.504 47.56 170.92C47.1576 171.332 46.6604 171.654 46.0685 171.886C45.4767 172.114 44.8114 172.227 44.0728 172.227ZM51.1396 176.091V161.091H52.7589V162.824H52.9577C53.0808 162.634 53.2513 162.393 53.4691 162.099C53.6916 161.801 54.0089 161.536 54.4208 161.304C54.8375 161.067 55.4009 160.949 56.1112 160.949C57.0297 160.949 57.8394 161.179 58.5401 161.638C59.2409 162.097 59.7878 162.748 60.1808 163.591C60.5737 164.434 60.7702 165.428 60.7702 166.574C60.7702 167.729 60.5737 168.731 60.1808 169.578C59.7878 170.421 59.2433 171.074 58.5472 171.538C57.8512 171.998 57.0487 172.227 56.1396 172.227C55.4388 172.227 54.8777 172.111 54.4563 171.879C54.0349 171.643 53.7106 171.375 53.4833 171.077C53.256 170.774 53.0808 170.523 52.9577 170.324H52.8157V176.091H51.1396ZM52.7873 166.545C52.7873 167.369 52.908 168.096 53.1495 168.726C53.391 169.351 53.7437 169.841 54.2077 170.196C54.6718 170.546 55.2399 170.722 55.9123 170.722C56.613 170.722 57.1978 170.537 57.6665 170.168C58.14 169.794 58.4951 169.292 58.7319 168.662C58.9734 168.027 59.0941 167.322 59.0941 166.545C59.0941 165.778 58.9757 165.087 58.739 164.472C58.507 163.851 58.1542 163.361 57.6808 163.001C57.212 162.637 56.6225 162.455 55.9123 162.455C55.2305 162.455 54.6576 162.627 54.1935 162.973C53.7295 163.314 53.3791 163.792 53.1424 164.408C52.9057 165.018 52.7873 165.731 52.7873 166.545ZM70.6282 165.778V167.341H64.6055V165.778H70.6282ZM65.0032 161.091V172H63.3271V161.091H65.0032ZM71.9066 161.091V172H70.2305V161.091H71.9066ZM75.6566 176.091C75.3725 176.091 75.1192 176.067 74.8967 176.02C74.6741 175.977 74.5202 175.935 74.435 175.892L74.8612 174.415C75.2683 174.519 75.6282 174.557 75.9407 174.528C76.2532 174.5 76.5302 174.36 76.7717 174.109C77.0179 173.863 77.2428 173.463 77.4464 172.909L77.7589 172.057L73.7248 161.091H75.543L78.5543 169.784H78.668L81.6793 161.091H83.4975L78.8668 173.591C78.6585 174.154 78.4004 174.621 78.0927 174.99C77.7849 175.364 77.4274 175.641 77.0202 175.821C76.6178 176.001 76.1632 176.091 75.6566 176.091ZM89.7511 172.227C88.7283 172.227 87.8477 171.986 87.109 171.503C86.3704 171.02 85.8022 170.355 85.4045 169.507C85.0067 168.66 84.8079 167.691 84.8079 166.602C84.8079 165.494 85.0115 164.517 85.4187 163.669C85.8306 162.817 86.4035 162.152 87.1374 161.673C87.8761 161.19 88.7378 160.949 89.7227 160.949C90.4897 160.949 91.181 161.091 91.7965 161.375C92.4121 161.659 92.9163 162.057 93.3093 162.568C93.7023 163.08 93.9461 163.676 94.0408 164.358H92.3647C92.2369 163.861 91.9528 163.42 91.5124 163.037C91.0768 162.649 90.4897 162.455 89.7511 162.455C89.0977 162.455 88.5247 162.625 88.0323 162.966C87.5446 163.302 87.1635 163.778 86.8888 164.393C86.619 165.004 86.484 165.722 86.484 166.545C86.484 167.388 86.6166 168.122 86.8817 168.747C87.1516 169.372 87.5304 169.857 88.0181 170.203C88.5105 170.549 89.0882 170.722 89.7511 170.722C90.1867 170.722 90.582 170.646 90.9371 170.494C91.2923 170.343 91.5929 170.125 91.8391 169.841C92.0853 169.557 92.2605 169.216 92.3647 168.818H94.0408C93.9461 169.462 93.7118 170.042 93.3377 170.558C92.9684 171.07 92.4783 171.477 91.8675 171.78C91.2615 172.078 90.556 172.227 89.7511 172.227ZM97.94 165.04H101.065C102.343 165.04 103.321 165.364 103.998 166.013C104.675 166.661 105.014 167.483 105.014 168.477C105.014 169.131 104.862 169.725 104.559 170.26C104.256 170.79 103.811 171.214 103.224 171.531C102.637 171.844 101.917 172 101.065 172H96.4911V161.091H98.1673V170.438H101.065C101.728 170.438 102.272 170.262 102.699 169.912C103.125 169.562 103.338 169.112 103.338 168.562C103.338 167.985 103.125 167.514 102.699 167.149C102.272 166.785 101.728 166.602 101.065 166.602H97.94V165.04ZM120.491 165.778V167.341H114.469V165.778H120.491ZM114.866 161.091V172H113.19V161.091H114.866ZM121.77 161.091V172H120.094V161.091H121.77ZM128.041 172.256C127.35 172.256 126.723 172.125 126.159 171.865C125.596 171.6 125.148 171.219 124.817 170.722C124.485 170.22 124.32 169.614 124.32 168.903C124.32 168.278 124.443 167.772 124.689 167.384C124.935 166.991 125.264 166.683 125.676 166.46C126.088 166.238 126.543 166.072 127.04 165.963C127.542 165.849 128.046 165.759 128.553 165.693C129.215 165.608 129.753 165.544 130.165 165.501C130.581 165.454 130.884 165.376 131.074 165.267C131.268 165.158 131.365 164.969 131.365 164.699V164.642C131.365 163.941 131.173 163.397 130.79 163.009C130.411 162.62 129.836 162.426 129.064 162.426C128.264 162.426 127.636 162.601 127.182 162.952C126.727 163.302 126.408 163.676 126.223 164.074L124.632 163.506C124.916 162.843 125.295 162.327 125.768 161.957C126.247 161.583 126.768 161.323 127.331 161.176C127.899 161.025 128.458 160.949 129.007 160.949C129.357 160.949 129.76 160.991 130.214 161.077C130.674 161.157 131.116 161.325 131.543 161.581C131.973 161.837 132.331 162.223 132.615 162.739C132.899 163.255 133.041 163.946 133.041 164.812V172H131.365V170.523H131.28C131.166 170.759 130.977 171.013 130.712 171.283C130.446 171.553 130.094 171.782 129.653 171.972C129.213 172.161 128.676 172.256 128.041 172.256ZM128.297 170.75C128.96 170.75 129.518 170.62 129.973 170.359C130.432 170.099 130.778 169.763 131.01 169.351C131.247 168.939 131.365 168.506 131.365 168.051V166.517C131.294 166.602 131.138 166.68 130.896 166.751C130.66 166.818 130.385 166.877 130.072 166.929C129.765 166.976 129.464 167.019 129.17 167.057C128.882 167.09 128.647 167.118 128.467 167.142C128.032 167.199 127.625 167.291 127.246 167.419C126.872 167.542 126.569 167.729 126.337 167.98C126.109 168.226 125.996 168.562 125.996 168.989C125.996 169.571 126.211 170.011 126.642 170.31C127.078 170.603 127.629 170.75 128.297 170.75ZM148.458 161.091V162.653H143.402V172H141.725V161.091H148.458ZM149.021 172V170.438H149.419C149.746 170.438 150.018 170.374 150.236 170.246C150.454 170.113 150.629 169.884 150.761 169.557C150.899 169.225 151.003 168.766 151.074 168.179C151.15 167.587 151.204 166.834 151.237 165.92L151.436 161.091H158.709V172H157.033V162.653H153.027L152.857 166.545C152.819 167.44 152.738 168.229 152.615 168.911C152.497 169.588 152.314 170.156 152.068 170.615C151.827 171.074 151.505 171.42 151.102 171.652C150.7 171.884 150.196 172 149.589 172H149.021ZM164.994 172.256C164.303 172.256 163.676 172.125 163.112 171.865C162.549 171.6 162.101 171.219 161.77 170.722C161.438 170.22 161.273 169.614 161.273 168.903C161.273 168.278 161.396 167.772 161.642 167.384C161.888 166.991 162.217 166.683 162.629 166.46C163.041 166.238 163.496 166.072 163.993 165.963C164.495 165.849 164.999 165.759 165.506 165.693C166.169 165.608 166.706 165.544 167.118 165.501C167.535 165.454 167.838 165.376 168.027 165.267C168.221 165.158 168.318 164.969 168.318 164.699V164.642C168.318 163.941 168.126 163.397 167.743 163.009C167.364 162.62 166.789 162.426 166.017 162.426C165.217 162.426 164.589 162.601 164.135 162.952C163.68 163.302 163.361 163.676 163.176 164.074L161.585 163.506C161.869 162.843 162.248 162.327 162.722 161.957C163.2 161.583 163.721 161.323 164.284 161.176C164.852 161.025 165.411 160.949 165.96 160.949C166.311 160.949 166.713 160.991 167.168 161.077C167.627 161.157 168.07 161.325 168.496 161.581C168.927 161.837 169.284 162.223 169.568 162.739C169.852 163.255 169.994 163.946 169.994 164.812V172H168.318V170.523H168.233C168.119 170.759 167.93 171.013 167.665 171.283C167.4 171.553 167.047 171.782 166.607 171.972C166.166 172.161 165.629 172.256 164.994 172.256ZM165.25 170.75C165.913 170.75 166.472 170.62 166.926 170.359C167.385 170.099 167.731 169.763 167.963 169.351C168.2 168.939 168.318 168.506 168.318 168.051V166.517C168.247 166.602 168.091 166.68 167.849 166.751C167.613 166.818 167.338 166.877 167.026 166.929C166.718 166.976 166.417 167.019 166.124 167.057C165.835 167.09 165.6 167.118 165.42 167.142C164.985 167.199 164.578 167.291 164.199 167.419C163.825 167.542 163.522 167.729 163.29 167.98C163.063 168.226 162.949 168.562 162.949 168.989C162.949 169.571 163.164 170.011 163.595 170.31C164.031 170.603 164.582 170.75 165.25 170.75ZM173.054 172V161.091H177.514C178.688 161.091 179.621 161.356 180.312 161.886C181.003 162.417 181.349 163.117 181.349 163.989C181.349 164.652 181.153 165.165 180.76 165.53C180.367 165.89 179.862 166.134 179.247 166.261C179.649 166.318 180.04 166.46 180.419 166.688C180.802 166.915 181.119 167.227 181.37 167.625C181.621 168.018 181.747 168.501 181.747 169.074C181.747 169.633 181.605 170.132 181.321 170.572C181.037 171.013 180.629 171.361 180.099 171.616C179.569 171.872 178.934 172 178.196 172H173.054ZM174.645 170.466H178.196C178.773 170.466 179.225 170.329 179.552 170.054C179.879 169.779 180.042 169.405 180.042 168.932C180.042 168.368 179.879 167.926 179.552 167.604C179.225 167.277 178.773 167.114 178.196 167.114H174.645V170.466ZM174.645 165.665H177.514C177.964 165.665 178.35 165.603 178.672 165.48C178.993 165.352 179.24 165.172 179.41 164.94C179.585 164.704 179.673 164.424 179.673 164.102C179.673 163.643 179.481 163.283 179.098 163.023C178.714 162.758 178.186 162.625 177.514 162.625H174.645V165.665ZM191.585 165.778V167.341H185.562V165.778H191.585ZM185.96 161.091V172H184.284V161.091H185.96ZM192.864 161.091V172H191.188V161.091H192.864ZM196.614 176.091C196.33 176.091 196.076 176.067 195.854 176.02C195.631 175.977 195.477 175.935 195.392 175.892L195.818 174.415C196.225 174.519 196.585 174.557 196.898 174.528C197.21 174.5 197.487 174.36 197.729 174.109C197.975 173.863 198.2 173.463 198.403 172.909L198.716 172.057L194.682 161.091H196.5L199.511 169.784H199.625L202.636 161.091H204.455L199.824 173.591C199.616 174.154 199.357 174.621 199.05 174.99C198.742 175.364 198.384 175.641 197.977 175.821C197.575 176.001 197.12 176.091 196.614 176.091ZM211.894 165.864V167.426H206.127V165.864H211.894ZM207.548 161.091V172H205.871V161.091H207.548ZM215.246 172.227C214.262 172.227 213.397 171.993 212.654 171.524C211.915 171.055 211.338 170.4 210.921 169.557C210.509 168.714 210.303 167.729 210.303 166.602C210.303 165.466 210.509 164.474 210.921 163.626C211.338 162.779 211.915 162.121 212.654 161.652C213.397 161.183 214.262 160.949 215.246 160.949C216.231 160.949 217.093 161.183 217.832 161.652C218.575 162.121 219.153 162.779 219.565 163.626C219.981 164.474 220.19 165.466 220.19 166.602C220.19 167.729 219.981 168.714 219.565 169.557C219.153 170.4 218.575 171.055 217.832 171.524C217.093 171.993 216.231 172.227 215.246 172.227ZM215.246 170.722C215.995 170.722 216.61 170.53 217.093 170.146C217.576 169.763 217.933 169.259 218.165 168.634C218.397 168.009 218.513 167.331 218.513 166.602C218.513 165.873 218.397 165.194 218.165 164.564C217.933 163.934 217.576 163.425 217.093 163.037C216.61 162.649 215.995 162.455 215.246 162.455C214.498 162.455 213.883 162.649 213.4 163.037C212.917 163.425 212.559 163.934 212.327 164.564C212.095 165.194 211.979 165.873 211.979 166.602C211.979 167.331 212.095 168.009 212.327 168.634C212.559 169.259 212.917 169.763 213.4 170.146C213.883 170.53 214.498 170.722 215.246 170.722ZM227.917 162.653V161.091H236.781V162.653H233.201V172H231.525V162.653H227.917ZM243.091 172.227C242.106 172.227 241.242 171.993 240.499 171.524C239.76 171.055 239.182 170.4 238.766 169.557C238.354 168.714 238.148 167.729 238.148 166.602C238.148 165.466 238.354 164.474 238.766 163.626C239.182 162.779 239.76 162.121 240.499 161.652C241.242 161.183 242.106 160.949 243.091 160.949C244.076 160.949 244.938 161.183 245.676 161.652C246.42 162.121 246.997 162.779 247.409 163.626C247.826 164.474 248.034 165.466 248.034 166.602C248.034 167.729 247.826 168.714 247.409 169.557C246.997 170.4 246.42 171.055 245.676 171.524C244.938 171.993 244.076 172.227 243.091 172.227ZM243.091 170.722C243.839 170.722 244.455 170.53 244.938 170.146C245.42 169.763 245.778 169.259 246.01 168.634C246.242 168.009 246.358 167.331 246.358 166.602C246.358 165.873 246.242 165.194 246.01 164.564C245.778 163.934 245.42 163.425 244.938 163.037C244.455 162.649 243.839 162.455 243.091 162.455C242.343 162.455 241.727 162.649 241.244 163.037C240.761 163.425 240.404 163.934 240.172 164.564C239.94 165.194 239.824 165.873 239.824 166.602C239.824 167.331 239.94 168.009 240.172 168.634C240.404 169.259 240.761 169.763 241.244 170.146C241.727 170.53 242.343 170.722 243.091 170.722ZM257.326 161.091V162.653H252.269V172H250.593V161.091H257.326ZM257.69 175.125V170.438H258.599C258.821 170.205 259.013 169.955 259.174 169.685C259.335 169.415 259.475 169.095 259.593 168.726C259.716 168.352 259.82 167.897 259.906 167.362C259.991 166.822 260.067 166.171 260.133 165.409L260.502 161.091H267.434V170.438H269.11V175.125H267.434V172H259.366V175.125H257.69ZM260.502 170.438H265.758V162.653H262.065L261.781 165.409C261.662 166.55 261.515 167.547 261.34 168.399C261.165 169.251 260.886 169.931 260.502 170.438ZM274.545 172.256C273.854 172.256 273.226 172.125 272.663 171.865C272.1 171.6 271.652 171.219 271.321 170.722C270.989 170.22 270.824 169.614 270.824 168.903C270.824 168.278 270.947 167.772 271.193 167.384C271.439 166.991 271.768 166.683 272.18 166.46C272.592 166.238 273.047 166.072 273.544 165.963C274.046 165.849 274.55 165.759 275.056 165.693C275.719 165.608 276.257 165.544 276.669 165.501C277.085 165.454 277.388 165.376 277.578 165.267C277.772 165.158 277.869 164.969 277.869 164.699V164.642C277.869 163.941 277.677 163.397 277.294 163.009C276.915 162.62 276.34 162.426 275.568 162.426C274.768 162.426 274.14 162.601 273.686 162.952C273.231 163.302 272.912 163.676 272.727 164.074L271.136 163.506C271.42 162.843 271.799 162.327 272.272 161.957C272.751 161.583 273.271 161.323 273.835 161.176C274.403 161.025 274.962 160.949 275.511 160.949C275.861 160.949 276.264 160.991 276.718 161.077C277.178 161.157 277.62 161.325 278.047 161.581C278.477 161.837 278.835 162.223 279.119 162.739C279.403 163.255 279.545 163.946 279.545 164.812V172H277.869V170.523H277.784C277.67 170.759 277.481 171.013 277.216 171.283C276.95 171.553 276.598 171.782 276.157 171.972C275.717 172.161 275.18 172.256 274.545 172.256ZM274.801 170.75C275.464 170.75 276.022 170.62 276.477 170.359C276.936 170.099 277.282 169.763 277.514 169.351C277.751 168.939 277.869 168.506 277.869 168.051V166.517C277.798 166.602 277.642 166.68 277.4 166.751C277.163 166.818 276.889 166.877 276.576 166.929C276.269 166.976 275.968 167.019 275.674 167.057C275.386 167.09 275.151 167.118 274.971 167.142C274.536 167.199 274.128 167.291 273.75 167.419C273.376 167.542 273.073 167.729 272.841 167.98C272.613 168.226 272.5 168.562 272.5 168.989C272.5 169.571 272.715 170.011 273.146 170.31C273.582 170.603 274.133 170.75 274.801 170.75Z" fill="black"/>
</svg>
