<svg width="582" height="186" viewBox="0 0 582 186" fill="none" xmlns="http://www.w3.org/2000/svg">
<path opacity="0.9" d="M375 21.5C375 9.62588 384.626 0 396.5 0H541.333C548.835 0 552.586 0 555.628 0.965207C562.01 2.99048 567.01 7.99042 569.035 14.3724C570 17.4139 570 21.1648 570 28.6667C570 32.4176 570 34.2931 569.517 35.8138C568.505 39.0048 566.005 41.5048 562.814 42.5174C561.293 43 559.418 43 555.667 43H396.5C384.626 43 375 33.3741 375 21.5Z" fill="#D4C5FF"/>
<path d="M396.48 32.7332V27.4506H397.454C397.788 27.1456 398.103 26.7152 398.398 26.1594C398.698 25.5987 398.951 24.8511 399.158 23.9165C399.369 22.977 399.51 21.7843 399.578 20.3382L399.903 13.9636H408.875V27.4506H410.616V32.7037H408.875V29.0737H398.221V32.7332H396.48ZM399.637 27.4506H407.133V15.5868H401.556L401.32 20.3382C401.261 21.44 401.157 22.4385 401.01 23.3336C400.862 24.2239 400.673 25.0134 400.442 25.702C400.21 26.3857 399.942 26.9685 399.637 27.4506ZM416.48 29.3393C415.761 29.3393 415.11 29.2041 414.524 28.9335C413.939 28.6581 413.474 28.2622 413.13 27.7457C412.786 27.2243 412.613 26.5947 412.613 25.8569C412.613 25.2077 412.741 24.6814 412.997 24.278C413.253 23.8698 413.595 23.5501 414.023 23.3189C414.451 23.0877 414.923 22.9156 415.439 22.8024C415.961 22.6844 416.484 22.5909 417.011 22.5221C417.699 22.4335 418.258 22.3671 418.686 22.3229C419.118 22.2737 419.433 22.1925 419.63 22.0794C419.832 21.9663 419.932 21.7695 419.932 21.4891V21.4301C419.932 20.7022 419.733 20.1365 419.335 19.7332C418.941 19.3299 418.344 19.1282 417.542 19.1282C416.711 19.1282 416.059 19.3102 415.587 19.6742C415.115 20.0381 414.783 20.4267 414.591 20.8399L412.938 20.2496C413.233 19.561 413.627 19.0249 414.119 18.6412C414.615 18.2527 415.156 17.9821 415.742 17.8297C416.332 17.6723 416.912 17.5936 417.483 17.5936C417.847 17.5936 418.265 17.6378 418.737 17.7264C419.214 17.81 419.674 17.9846 420.117 18.2502C420.564 18.5158 420.936 18.9167 421.231 19.4528C421.526 19.989 421.674 20.7071 421.674 21.6072V29.0737H419.932V27.5391H419.844C419.726 27.785 419.529 28.0482 419.254 28.3286C418.978 28.6089 418.612 28.8475 418.154 29.0442C417.697 29.241 417.139 29.3393 416.48 29.3393ZM416.745 27.7752C417.434 27.7752 418.014 27.6399 418.486 27.3694C418.963 27.0989 419.323 26.7497 419.564 26.3217C419.809 25.8938 419.932 25.4438 419.932 24.9716V23.3779C419.859 23.4665 419.696 23.5476 419.445 23.6214C419.2 23.6903 418.914 23.7517 418.59 23.8058C418.27 23.855 417.958 23.8993 417.653 23.9386C417.353 23.9731 417.109 24.0026 416.922 24.0272C416.47 24.0862 416.047 24.1821 415.653 24.3149C415.265 24.4428 414.95 24.6371 414.709 24.8978C414.473 25.1536 414.355 25.5028 414.355 25.9455C414.355 26.5505 414.578 27.0079 415.026 27.3178C415.479 27.6227 416.052 27.7752 416.745 27.7752ZM438.28 22.6106V24.2338H432.023V22.6106H438.28ZM432.436 17.7411V29.0737H430.695V17.7411H432.436ZM439.608 17.7411V29.0737H437.867V17.7411H439.608ZM443.503 33.3235C443.208 33.3235 442.945 33.2989 442.714 33.2497C442.483 33.2054 442.323 33.1611 442.234 33.1169L442.677 31.5822C443.1 31.6905 443.474 31.7298 443.798 31.7003C444.123 31.6708 444.411 31.5257 444.662 31.265C444.917 31.0092 445.151 30.5936 445.363 30.0181L445.687 29.1328L441.496 17.7411H443.385L446.514 26.7718H446.632L449.76 17.7411H451.649L446.838 30.7264C446.622 31.3117 446.354 31.7962 446.034 32.1799C445.714 32.5684 445.343 32.8562 444.92 33.0431C444.502 33.23 444.03 33.3235 443.503 33.3235ZM467.375 22.6106V24.2338H461.118V22.6106H467.375ZM461.531 17.7411V29.0737H459.79V17.7411H461.531ZM468.703 17.7411V29.0737H466.962V17.7411H468.703ZM476.634 29.3098C475.542 29.3098 474.6 29.0688 473.808 28.5868C473.021 28.0998 472.414 27.4211 471.986 26.5505C471.563 25.6749 471.352 24.6568 471.352 23.496C471.352 22.3352 471.563 21.3121 471.986 20.4267C472.414 19.5364 473.009 18.8429 473.772 18.3461C474.539 17.8444 475.434 17.5936 476.457 17.5936C477.047 17.5936 477.63 17.6919 478.206 17.8887C478.781 18.0854 479.305 18.4051 479.777 18.8478C480.249 19.2856 480.626 19.866 480.906 20.589C481.186 21.3121 481.327 22.2024 481.327 23.2599V23.9977H472.591V22.4926H479.556C479.556 21.8531 479.428 21.2826 479.172 20.7809C478.921 20.2792 478.562 19.8832 478.095 19.593C477.633 19.3028 477.087 19.1577 476.457 19.1577C475.764 19.1577 475.164 19.3299 474.657 19.6742C474.155 20.0135 473.769 20.4562 473.499 21.0022C473.228 21.5482 473.093 22.1335 473.093 22.7582V23.7616C473.093 24.6174 473.24 25.3429 473.535 25.9381C473.835 26.5283 474.251 26.9784 474.782 27.2883C475.314 27.5932 475.931 27.7457 476.634 27.7457C477.092 27.7457 477.505 27.6817 477.874 27.5539C478.248 27.4211 478.57 27.2243 478.84 26.9636C479.111 26.698 479.32 26.3685 479.467 25.975L481.15 26.4472C480.972 27.0177 480.675 27.5194 480.257 27.9523C479.839 28.3802 479.322 28.7147 478.707 28.9557C478.093 29.1918 477.402 29.3098 476.634 29.3098ZM482.92 19.3643V17.7411H492.128V19.3643H488.409V29.0737H486.668V19.3643H482.92Z" fill="black"/>
<path d="M507.029 32.3808C506.297 32.3808 505.673 32.1814 505.157 31.7827C504.642 31.3807 504.248 30.7987 503.975 30.0369C503.703 29.2718 503.567 28.3478 503.567 27.265C503.567 26.1887 503.703 25.2696 503.975 24.5078C504.251 23.7427 504.647 23.1591 505.162 22.7571C505.681 22.3519 506.303 22.1492 507.029 22.1492C507.756 22.1492 508.376 22.3519 508.892 22.7571C509.411 23.1591 509.806 23.7427 510.078 24.5078C510.354 25.2696 510.492 26.1887 510.492 27.265C510.492 28.3478 510.356 29.2718 510.083 30.0369C509.811 30.7987 509.417 31.3807 508.902 31.7827C508.386 32.1814 507.762 32.3808 507.029 32.3808ZM507.029 31.311C507.756 31.311 508.32 30.9608 508.722 30.2606C509.124 29.5603 509.325 28.5618 509.325 27.265C509.325 26.4027 509.232 25.6684 509.047 25.0621C508.866 24.4559 508.603 23.9939 508.26 23.6762C507.919 23.3585 507.509 23.1996 507.029 23.1996C506.31 23.1996 505.747 23.5546 505.342 24.2646C504.937 24.9714 504.734 25.9715 504.734 27.265C504.734 28.1274 504.825 28.8601 505.006 29.4631C505.188 30.066 505.449 30.5248 505.789 30.8393C506.133 31.1537 506.546 31.311 507.029 31.311ZM515.256 32.3808C514.588 32.3808 513.998 32.2625 513.486 32.0258C512.977 31.7859 512.58 31.4568 512.294 31.0386C512.009 30.6172 511.868 30.1374 511.871 29.5992C511.868 29.1778 511.951 28.7887 512.119 28.4321C512.288 28.0723 512.518 27.7724 512.81 27.5325C513.105 27.2893 513.434 27.1353 513.797 27.0705V27.0121C513.32 26.889 512.941 26.6215 512.659 26.2098C512.377 25.7948 512.238 25.3231 512.241 24.7947C512.238 24.2889 512.366 23.8367 512.625 23.4379C512.884 23.0392 513.241 22.7247 513.695 22.4945C514.152 22.2643 514.672 22.1492 515.256 22.1492C515.833 22.1492 516.348 22.2643 516.802 22.4945C517.256 22.7247 517.613 23.0392 517.872 23.4379C518.135 23.8367 518.268 24.2889 518.271 24.7947C518.268 25.3231 518.123 25.7948 517.838 26.2098C517.556 26.6215 517.182 26.889 516.715 27.0121V27.0705C517.075 27.1353 517.399 27.2893 517.687 27.5325C517.976 27.7724 518.206 28.0723 518.378 28.4321C518.55 28.7887 518.637 29.1778 518.64 29.5992C518.637 30.1374 518.491 30.6172 518.203 31.0386C517.917 31.4568 517.52 31.7859 517.011 32.0258C516.506 32.2625 515.92 32.3808 515.256 32.3808ZM515.256 31.311C515.706 31.311 516.095 31.238 516.423 31.0921C516.75 30.9462 517.003 30.7404 517.182 30.4745C517.36 30.2087 517.451 29.8975 517.454 29.5409C517.451 29.1648 517.353 28.8325 517.162 28.544C516.971 28.2554 516.71 28.0285 516.379 27.8632C516.052 27.6978 515.677 27.6151 515.256 27.6151C514.831 27.6151 514.452 27.6978 514.118 27.8632C513.787 28.0285 513.526 28.2554 513.335 28.544C513.147 28.8325 513.055 29.1648 513.058 29.5409C513.055 29.8975 513.14 30.2087 513.316 30.4745C513.494 30.7404 513.748 30.9462 514.079 31.0921C514.41 31.238 514.802 31.311 515.256 31.311ZM515.256 26.5842C515.612 26.5842 515.929 26.5129 516.204 26.3702C516.483 26.2276 516.702 26.0282 516.861 25.7721C517.019 25.516 517.1 25.2161 517.104 24.8725C517.1 24.5353 517.021 24.2419 516.865 23.9923C516.71 23.7394 516.494 23.5449 516.219 23.4087C515.943 23.2693 515.622 23.1996 515.256 23.1996C514.883 23.1996 514.557 23.2693 514.278 23.4087C514 23.5449 513.784 23.7394 513.632 23.9923C513.479 24.2419 513.405 24.5353 513.408 24.8725C513.405 25.2161 513.481 25.516 513.636 25.7721C513.795 26.0282 514.014 26.2276 514.293 26.3702C514.572 26.5129 514.893 26.5842 515.256 26.5842ZM521.086 30.9705C520.846 30.9705 520.64 30.8846 520.469 30.7128C520.297 30.541 520.211 30.3351 520.211 30.0952C520.211 29.8553 520.297 29.6495 520.469 29.4776C520.64 29.3058 520.846 29.2199 521.086 29.2199C521.326 29.2199 521.532 29.3058 521.704 29.4776C521.876 29.6495 521.961 29.8553 521.961 30.0952C521.961 30.2541 521.921 30.4 521.84 30.5329C521.762 30.6658 521.657 30.7728 521.524 30.8538C521.394 30.9316 521.248 30.9705 521.086 30.9705ZM521.086 25.9326C520.846 25.9326 520.64 25.8467 520.469 25.6749C520.297 25.503 520.211 25.2972 520.211 25.0573C520.211 24.8174 520.297 24.6115 520.469 24.4397C520.64 24.2679 520.846 24.1819 521.086 24.1819C521.326 24.1819 521.532 24.2679 521.704 24.4397C521.876 24.6115 521.961 24.8174 521.961 25.0573C521.961 25.2161 521.921 25.362 521.84 25.4949C521.762 25.6278 521.657 25.7348 521.524 25.8159C521.394 25.8937 521.248 25.9326 521.086 25.9326ZM523.494 30.2022V29.2102L527.871 22.2854H528.59V23.8221H528.104L524.797 29.0546V29.1324H530.691V30.2022H523.494ZM528.182 32.2446V29.9007V29.4387V22.2854H529.33V32.2446H528.182ZM535.488 32.3808C534.755 32.3808 534.131 32.1814 533.616 31.7827C533.1 31.3807 532.707 30.7987 532.434 30.0369C532.162 29.2718 532.026 28.3478 532.026 27.265C532.026 26.1887 532.162 25.2696 532.434 24.5078C532.71 23.7427 533.105 23.1591 533.621 22.7571C534.139 22.3519 534.762 22.1492 535.488 22.1492C536.214 22.1492 536.835 22.3519 537.351 22.7571C537.869 23.1591 538.265 23.7427 538.537 24.5078C538.813 25.2696 538.95 26.1887 538.95 27.265C538.95 28.3478 538.814 29.2718 538.542 30.0369C538.27 30.7987 537.876 31.3807 537.36 31.7827C536.845 32.1814 536.221 32.3808 535.488 32.3808ZM535.488 31.311C536.214 31.311 536.778 30.9608 537.18 30.2606C537.582 29.5603 537.783 28.5618 537.783 27.265C537.783 26.4027 537.691 25.6684 537.506 25.0621C537.325 24.4559 537.062 23.9939 536.718 23.6762C536.378 23.3585 535.968 23.1996 535.488 23.1996C534.768 23.1996 534.206 23.5546 533.801 24.2646C533.395 24.9714 533.193 25.9715 533.193 27.265C533.193 28.1274 533.284 28.8601 533.465 29.4631C533.647 30.066 533.908 30.5248 534.248 30.8393C534.592 31.1537 535.005 31.311 535.488 31.311Z" fill="#421DFF"/>
<path fill-rule="evenodd" clip-rule="evenodd" d="M556.492 23.1606C556.719 23.3802 556.725 23.7425 556.506 23.9699L547.598 33.1961C547.487 33.3106 547.334 33.3739 547.175 33.3708C547.016 33.3677 546.865 33.2985 546.759 33.1798L542.782 28.7257C542.572 28.4899 542.592 28.1281 542.828 27.9176C543.064 27.707 543.425 27.7275 543.636 27.9633L547.202 31.9576L555.682 23.1748C555.902 22.9474 556.264 22.941 556.492 23.1606Z" fill="#421DFF"/>
<path fill-rule="evenodd" clip-rule="evenodd" d="M559.855 23.1606C560.082 23.3802 560.089 23.7425 559.869 23.9699L550.961 33.1961C550.85 33.3106 550.697 33.3739 550.538 33.3708C550.379 33.3677 550.228 33.2985 550.122 33.1798L546.145 28.7257C545.935 28.4899 545.955 28.1281 546.191 27.9176C546.427 27.707 546.789 27.7275 546.999 27.9633L550.566 31.9576L559.046 23.1748C559.265 22.9474 559.628 22.941 559.855 23.1606Z" fill="#421DFF"/>
<path opacity="0.8" d="M555.688 48C558.961 48 560.598 47.9997 561.938 48.3682C565.442 49.3311 568.178 52.0683 569.142 55.5713C569.428 56.6129 569.491 57.8335 569.505 59.8613L569.594 59.6992C569.597 59.8123 570.118 79.8737 571.392 83.2178C574.074 90.2601 581.282 91.8195 581.317 91.8271C581.26 91.8275 568.045 91.9176 562.909 90.2773C561.222 89.7385 559.636 88.9707 558.343 88.248C556.839 89.0857 555.226 89.7542 553.525 90.2217C550.695 90.9996 547.241 91 540.332 91H228.5C227.669 91 227.254 91.0003 226.902 90.9883C216.074 90.6187 207.381 81.9258 207.012 71.0977C207 70.7464 207 70.3308 207 69.5C207 68.6692 207 68.2536 207.012 67.9023C207.381 57.0742 216.074 48.3813 226.902 48.0117C227.254 47.9997 227.669 48 228.5 48H555.688Z" fill="#D4C5FF"/>
<path d="M236.583 66.5918H234.753C234.645 66.0655 234.456 65.6031 234.185 65.2047C233.92 64.8063 233.595 64.4718 233.211 64.2013C232.833 63.9258 232.412 63.7193 231.95 63.5815C231.487 63.4438 231.005 63.375 230.504 63.375C229.589 63.375 228.76 63.6061 228.017 64.0685C227.28 64.5308 226.692 65.2121 226.254 66.1122C225.821 67.0123 225.605 68.1165 225.605 69.4249C225.605 70.7333 225.821 71.8375 226.254 72.7376C226.692 73.6377 227.28 74.319 228.017 74.7813C228.76 75.2437 229.589 75.4749 230.504 75.4749C231.005 75.4749 231.487 75.406 231.95 75.2683C232.412 75.1306 232.833 74.9264 233.211 74.6559C233.595 74.3805 233.92 74.0435 234.185 73.6451C234.456 73.2418 234.645 72.7794 234.753 72.2581H236.583C236.445 73.0303 236.195 73.7214 235.831 74.3313C235.467 74.9412 235.014 75.4601 234.473 75.888C233.932 76.311 233.325 76.6332 232.651 76.8546C231.982 77.0759 231.266 77.1866 230.504 77.1866C229.215 77.1866 228.069 76.8718 227.066 76.2422C226.062 75.6126 225.273 74.7174 224.697 73.5566C224.122 72.3958 223.834 71.0186 223.834 69.4249C223.834 67.8313 224.122 66.454 224.697 65.2932C225.273 64.1324 226.062 63.2372 227.066 62.6076C228.069 61.9781 229.215 61.6633 230.504 61.6633C231.266 61.6633 231.982 61.7739 232.651 61.9953C233.325 62.2166 233.932 62.5412 234.473 62.9692C235.014 63.3922 235.467 63.9086 235.831 64.5185C236.195 65.1235 236.445 65.8146 236.583 66.5918ZM244.055 77.2161C242.963 77.2161 242.021 76.9751 241.229 76.493C240.442 76.0061 239.835 75.3273 239.407 74.4567C238.984 73.5812 238.773 72.563 238.773 71.4022C238.773 70.2414 238.984 69.2183 239.407 68.333C239.835 67.4427 240.43 66.7492 241.193 66.2524C241.96 65.7507 242.855 65.4998 243.878 65.4998C244.468 65.4998 245.051 65.5982 245.627 65.7949C246.202 65.9917 246.726 66.3114 247.198 66.7541C247.67 67.1918 248.047 67.7722 248.327 68.4953C248.607 69.2183 248.748 70.1086 248.748 71.1661V71.9039H240.012V70.3988H246.977C246.977 69.7594 246.849 69.1888 246.593 68.6871C246.342 68.1854 245.983 67.7895 245.516 67.4993C245.054 67.2091 244.508 67.064 243.878 67.064C243.185 67.064 242.585 67.2361 242.078 67.5804C241.576 67.9198 241.19 68.3625 240.92 68.9085C240.649 69.4544 240.514 70.0397 240.514 70.6644V71.6678C240.514 72.5237 240.661 73.2492 240.956 73.8443C241.257 74.4346 241.672 74.8846 242.203 75.1945C242.735 75.4995 243.352 75.6519 244.055 75.6519C244.513 75.6519 244.926 75.588 245.295 75.4601C245.669 75.3273 245.991 75.1306 246.261 74.8699C246.532 74.6043 246.741 74.2747 246.888 73.8812L248.571 74.3534C248.393 74.924 248.096 75.4257 247.678 75.8585C247.26 76.2864 246.743 76.6209 246.128 76.8619C245.514 77.098 244.823 77.2161 244.055 77.2161ZM251.396 81.2297V65.6474H253.079V67.4476H253.285C253.413 67.2509 253.59 67 253.816 66.6951C254.048 66.3852 254.377 66.1097 254.805 65.8687C255.238 65.6228 255.823 65.4998 256.561 65.4998C257.515 65.4998 258.356 65.7384 259.084 66.2155C259.812 66.6926 260.38 67.3689 260.789 68.2444C261.197 69.12 261.401 70.1529 261.401 71.3432C261.401 72.5433 261.197 73.5836 260.789 74.4641C260.38 75.3396 259.815 76.0184 259.092 76.5004C258.369 76.9775 257.535 77.2161 256.59 77.2161C255.862 77.2161 255.28 77.0956 254.842 76.8546C254.404 76.6086 254.067 76.3307 253.831 76.0208C253.595 75.706 253.413 75.4454 253.285 75.2388H253.138V81.2297H251.396ZM253.108 71.3137C253.108 72.1695 253.233 72.9245 253.484 73.5787C253.735 74.228 254.102 74.7371 254.584 75.106C255.066 75.47 255.656 75.6519 256.354 75.6519C257.082 75.6519 257.69 75.4601 258.177 75.0765C258.669 74.6879 259.037 74.1665 259.283 73.5123C259.534 72.8532 259.66 72.1203 259.66 71.3137C259.66 70.5169 259.537 69.7987 259.291 69.1593C259.05 68.515 258.683 68.0059 258.191 67.6321C257.705 67.2533 257.092 67.064 256.354 67.064C255.646 67.064 255.051 67.2435 254.569 67.6025C254.087 67.9567 253.723 68.4535 253.477 69.0929C253.231 69.7274 253.108 70.4677 253.108 71.3137ZM264.057 76.98V65.6474H268.69C269.91 65.6474 270.879 65.9228 271.597 66.4737C272.315 67.0246 272.674 67.7526 272.674 68.6576C272.674 69.3462 272.47 69.8799 272.062 70.2586C271.654 70.6324 271.13 70.8858 270.491 71.0186C270.909 71.0776 271.314 71.2251 271.708 71.4612C272.106 71.6973 272.436 72.022 272.697 72.4351C272.957 72.8434 273.088 73.3451 273.088 73.9402C273.088 74.5206 272.94 75.0396 272.645 75.497C272.35 75.9544 271.927 76.316 271.376 76.5816C270.825 76.8472 270.166 76.98 269.399 76.98H264.057ZM265.71 75.3863H269.399C269.999 75.3863 270.468 75.2437 270.808 74.9584C271.147 74.6731 271.317 74.2846 271.317 73.7927C271.317 73.2074 271.147 72.7475 270.808 72.413C270.468 72.0736 269.999 71.9039 269.399 71.9039H265.71V75.3863ZM265.71 70.3988H268.69C269.158 70.3988 269.559 70.3349 269.893 70.207C270.227 70.0742 270.483 69.8873 270.66 69.6463C270.842 69.4003 270.933 69.1101 270.933 68.7756C270.933 68.2985 270.734 67.9247 270.336 67.6542C269.937 67.3787 269.389 67.241 268.69 67.241H265.71V70.3988ZM280.475 77.2161C279.383 77.2161 278.441 76.9751 277.649 76.493C276.862 76.0061 276.255 75.3273 275.827 74.4567C275.404 73.5812 275.192 72.563 275.192 71.4022C275.192 70.2414 275.404 69.2183 275.827 68.333C276.255 67.4427 276.85 66.7492 277.612 66.2524C278.38 65.7507 279.275 65.4998 280.298 65.4998C280.888 65.4998 281.471 65.5982 282.046 65.7949C282.622 65.9917 283.146 66.3114 283.618 66.7541C284.09 67.1918 284.466 67.7722 284.747 68.4953C285.027 69.2183 285.167 70.1086 285.167 71.1661V71.9039H276.432V70.3988H283.397C283.397 69.7594 283.269 69.1888 283.013 68.6871C282.762 68.1854 282.403 67.7895 281.936 67.4993C281.473 67.2091 280.927 67.064 280.298 67.064C279.604 67.064 279.004 67.2361 278.498 67.5804C277.996 67.9198 277.61 68.3625 277.339 68.9085C277.069 69.4544 276.933 70.0397 276.933 70.6644V71.6678C276.933 72.5237 277.081 73.2492 277.376 73.8443C277.676 74.4346 278.092 74.8846 278.623 75.1945C279.154 75.4995 279.772 75.6519 280.475 75.6519C280.932 75.6519 281.345 75.588 281.714 75.4601C282.088 75.3273 282.41 75.1306 282.681 74.8699C282.951 74.6043 283.16 74.2747 283.308 73.8812L284.99 74.3534C284.813 74.924 284.516 75.4257 284.097 75.8585C283.679 76.2864 283.163 76.6209 282.548 76.8619C281.933 77.098 281.242 77.2161 280.475 77.2161ZM287.816 81.2297V65.6474H289.498V67.4476H289.705C289.833 67.2509 290.01 67 290.236 66.6951C290.467 66.3852 290.797 66.1097 291.225 65.8687C291.657 65.6228 292.243 65.4998 292.981 65.4998C293.935 65.4998 294.776 65.7384 295.504 66.2155C296.232 66.6926 296.8 67.3689 297.208 68.2444C297.616 69.12 297.821 70.1529 297.821 71.3432C297.821 72.5433 297.616 73.5836 297.208 74.4641C296.8 75.3396 296.234 76.0184 295.511 76.5004C294.788 76.9775 293.954 77.2161 293.01 77.2161C292.282 77.2161 291.699 77.0956 291.262 76.8546C290.824 76.6086 290.487 76.3307 290.251 76.0208C290.015 75.706 289.833 75.4454 289.705 75.2388H289.557V81.2297H287.816ZM289.528 71.3137C289.528 72.1695 289.653 72.9245 289.904 73.5787C290.155 74.228 290.521 74.7371 291.003 75.106C291.485 75.47 292.076 75.6519 292.774 75.6519C293.502 75.6519 294.109 75.4601 294.596 75.0765C295.088 74.6879 295.457 74.1665 295.703 73.5123C295.954 72.8532 296.079 72.1203 296.079 71.3137C296.079 70.5169 295.956 69.7987 295.71 69.1593C295.469 68.515 295.103 68.0059 294.611 67.6321C294.124 67.2533 293.512 67.064 292.774 67.064C292.066 67.064 291.471 67.2435 290.989 67.6025C290.506 67.9567 290.143 68.4535 289.897 69.0929C289.651 69.7274 289.528 70.4677 289.528 71.3137ZM306.32 76.98V65.6474H315.233V76.98H313.491V67.2705H308.061V76.98H306.32ZM323.164 77.2161C322.072 77.2161 321.13 76.9751 320.338 76.493C319.551 76.0061 318.944 75.3273 318.516 74.4567C318.093 73.5812 317.881 72.563 317.881 71.4022C317.881 70.2414 318.093 69.2183 318.516 68.333C318.944 67.4427 319.539 66.7492 320.301 66.2524C321.069 65.7507 321.964 65.4998 322.987 65.4998C323.577 65.4998 324.16 65.5982 324.735 65.7949C325.311 65.9917 325.835 66.3114 326.307 66.7541C326.779 67.1918 327.155 67.7722 327.436 68.4953C327.716 69.2183 327.856 70.1086 327.856 71.1661V71.9039H319.121V70.3988H326.086C326.086 69.7594 325.958 69.1888 325.702 68.6871C325.451 68.1854 325.092 67.7895 324.625 67.4993C324.162 67.2091 323.616 67.064 322.987 67.064C322.293 67.064 321.693 67.2361 321.187 67.5804C320.685 67.9198 320.299 68.3625 320.028 68.9085C319.758 69.4544 319.623 70.0397 319.623 70.6644V71.6678C319.623 72.5237 319.77 73.2492 320.065 73.8443C320.365 74.4346 320.781 74.8846 321.312 75.1945C321.843 75.4995 322.461 75.6519 323.164 75.6519C323.621 75.6519 324.035 75.588 324.403 75.4601C324.777 75.3273 325.099 75.1306 325.37 74.8699C325.641 74.6043 325.85 74.2747 325.997 73.8812L327.679 74.3534C327.502 74.924 327.205 75.4257 326.787 75.8585C326.368 76.2864 325.852 76.6209 325.237 76.8619C324.622 77.098 323.931 77.2161 323.164 77.2161ZM330.505 81.2297V65.6474H332.187V67.4476H332.394C332.522 67.2509 332.699 67 332.925 66.6951C333.156 66.3852 333.486 66.1097 333.914 65.8687C334.347 65.6228 334.932 65.4998 335.67 65.4998C336.624 65.4998 337.465 65.7384 338.193 66.2155C338.921 66.6926 339.489 67.3689 339.897 68.2444C340.306 69.12 340.51 70.1529 340.51 71.3432C340.51 72.5433 340.306 73.5836 339.897 74.4641C339.489 75.3396 338.923 76.0184 338.2 76.5004C337.477 76.9775 336.644 77.2161 335.699 77.2161C334.971 77.2161 334.388 77.0956 333.951 76.8546C333.513 76.6086 333.176 76.3307 332.94 76.0208C332.704 75.706 332.522 75.4454 332.394 75.2388H332.246V81.2297H330.505ZM332.217 71.3137C332.217 72.1695 332.342 72.9245 332.593 73.5787C332.844 74.228 333.21 74.7371 333.692 75.106C334.174 75.47 334.765 75.6519 335.463 75.6519C336.191 75.6519 336.799 75.4601 337.285 75.0765C337.777 74.6879 338.146 74.1665 338.392 73.5123C338.643 72.8532 338.768 72.1203 338.768 71.3137C338.768 70.5169 338.645 69.7987 338.4 69.1593C338.159 68.515 337.792 68.0059 337.3 67.6321C336.813 67.2533 336.201 67.064 335.463 67.064C334.755 67.064 334.16 67.2435 333.678 67.6025C333.196 67.9567 332.832 68.4535 332.586 69.0929C332.34 69.7274 332.217 70.4677 332.217 71.3137ZM347.917 77.2161C346.825 77.2161 345.883 76.9751 345.091 76.493C344.304 76.0061 343.697 75.3273 343.269 74.4567C342.846 73.5812 342.635 72.563 342.635 71.4022C342.635 70.2414 342.846 69.2183 343.269 68.333C343.697 67.4427 344.292 66.7492 345.054 66.2524C345.822 65.7507 346.717 65.4998 347.74 65.4998C348.33 65.4998 348.913 65.5982 349.489 65.7949C350.064 65.9917 350.588 66.3114 351.06 66.7541C351.532 67.1918 351.909 67.7722 352.189 68.4953C352.469 69.2183 352.61 70.1086 352.61 71.1661V71.9039H343.874V70.3988H350.839C350.839 69.7594 350.711 69.1888 350.455 68.6871C350.204 68.1854 349.845 67.7895 349.378 67.4993C348.916 67.2091 348.37 67.064 347.74 67.064C347.047 67.064 346.446 67.2361 345.94 67.5804C345.438 67.9198 345.052 68.3625 344.782 68.9085C344.511 69.4544 344.376 70.0397 344.376 70.6644V71.6678C344.376 72.5237 344.523 73.2492 344.818 73.8443C345.118 74.4346 345.534 74.8846 346.065 75.1945C346.596 75.4995 347.214 75.6519 347.917 75.6519C348.375 75.6519 348.788 75.588 349.157 75.4601C349.53 75.3273 349.853 75.1306 350.123 74.8699C350.394 74.6043 350.603 74.2747 350.75 73.8812L352.432 74.3534C352.255 74.924 351.958 75.4257 351.54 75.8585C351.122 76.2864 350.605 76.6209 349.99 76.8619C349.376 77.098 348.684 77.2161 347.917 77.2161ZM359.862 77.2161C358.8 77.2161 357.885 76.9652 357.118 76.4635C356.35 75.9618 355.76 75.2707 355.347 74.3903C354.934 73.5099 354.727 72.504 354.727 71.3727C354.727 70.2217 354.939 69.206 355.362 68.3256C355.789 67.4402 356.385 66.7492 357.147 66.2524C357.914 65.7507 358.81 65.4998 359.833 65.4998C360.629 65.4998 361.348 65.6474 361.987 65.9425C362.626 66.2376 363.15 66.6508 363.559 67.182C363.967 67.7132 364.22 68.333 364.318 69.0413H362.577C362.444 68.5248 362.149 68.0674 361.692 67.6689C361.239 67.2656 360.629 67.064 359.862 67.064C359.183 67.064 358.588 67.241 358.077 67.5952C357.57 67.9444 357.174 68.4387 356.889 69.0781C356.608 69.7127 356.468 70.4578 356.468 71.3137C356.468 72.1892 356.606 72.9516 356.881 73.6009C357.162 74.2501 357.555 74.7543 358.062 75.1133C358.573 75.4724 359.174 75.6519 359.862 75.6519C360.315 75.6519 360.725 75.5732 361.094 75.4158C361.463 75.2584 361.775 75.0322 362.031 74.7371C362.287 74.4419 362.469 74.0878 362.577 73.6746H364.318C364.22 74.3436 363.977 74.9461 363.588 75.4822C363.204 76.0135 362.695 76.4365 362.061 76.7513C361.431 77.0611 360.698 77.2161 359.862 77.2161ZM365.971 67.2705V65.6474H375.179V67.2705H371.46V76.98H369.719V67.2705H365.971ZM380.465 77.2456C379.747 77.2456 379.095 77.1103 378.51 76.8398C377.925 76.5644 377.46 76.1684 377.116 75.6519C376.771 75.1306 376.599 74.501 376.599 73.7632C376.599 73.1139 376.727 72.5876 376.983 72.1843C377.239 71.776 377.58 71.4563 378.008 71.2251C378.436 70.994 378.908 70.8218 379.425 70.7087C379.946 70.5906 380.47 70.4972 380.996 70.4283C381.685 70.3398 382.243 70.2734 382.671 70.2291C383.104 70.1799 383.419 70.0988 383.616 69.9856C383.817 69.8725 383.918 69.6758 383.918 69.3954V69.3364C383.918 68.6084 383.719 68.0428 383.32 67.6394C382.927 67.2361 382.329 67.0344 381.528 67.0344C380.696 67.0344 380.045 67.2164 379.572 67.5804C379.1 67.9444 378.768 68.333 378.576 68.7461L376.924 68.1559C377.219 67.4673 377.612 66.9311 378.104 66.5475C378.601 66.1589 379.142 65.8884 379.727 65.7359C380.318 65.5785 380.898 65.4998 381.469 65.4998C381.833 65.4998 382.251 65.5441 382.723 65.6326C383.2 65.7162 383.66 65.8908 384.103 66.1565C384.55 66.4221 384.921 66.8229 385.217 67.3591C385.512 67.8952 385.659 68.6133 385.659 69.5134V76.98H383.918V75.4454H383.83C383.712 75.6913 383.515 75.9544 383.239 76.2348C382.964 76.5152 382.597 76.7537 382.14 76.9505C381.683 77.1472 381.124 77.2456 380.465 77.2456ZM380.731 75.6815C381.419 75.6815 382 75.5462 382.472 75.2757C382.949 75.0051 383.308 74.6559 383.549 74.228C383.795 73.8001 383.918 73.35 383.918 72.8778V71.2842C383.844 71.3727 383.682 71.4539 383.431 71.5276C383.185 71.5965 382.9 71.658 382.575 71.7121C382.256 71.7613 381.943 71.8055 381.638 71.8449C381.338 71.8793 381.095 71.9088 380.908 71.9334C380.455 71.9925 380.032 72.0884 379.639 72.2212C379.25 72.3491 378.935 72.5433 378.694 72.804C378.458 73.0598 378.34 73.409 378.34 73.8517C378.34 74.4567 378.564 74.9141 379.012 75.224C379.464 75.529 380.037 75.6815 380.731 75.6815ZM387.834 76.98V75.3568H388.247C388.587 75.3568 388.869 75.2904 389.096 75.1576C389.322 75.0199 389.504 74.7813 389.642 74.4419C389.784 74.0976 389.892 73.6205 389.966 73.0106C390.045 72.3958 390.101 71.6137 390.136 70.6644L390.342 65.6474H397.898V76.98H396.156V67.2705H391.995L391.818 71.3137C391.779 72.2433 391.695 73.0623 391.567 73.7706C391.444 74.4739 391.255 75.0642 390.999 75.5413C390.748 76.0184 390.414 76.3774 389.996 76.6185C389.578 76.8595 389.054 76.98 388.424 76.98H387.834ZM411.539 77.2161C410.516 77.2161 409.619 76.9726 408.846 76.4857C408.079 75.9987 407.479 75.3175 407.046 74.4419C406.618 73.5664 406.404 72.5433 406.404 71.3727C406.404 70.1922 406.618 69.1618 407.046 68.2813C407.479 67.4009 408.079 66.7172 408.846 66.2302C409.619 65.7433 410.516 65.4998 411.539 65.4998C412.563 65.4998 413.458 65.7433 414.225 66.2302C414.997 66.7172 415.597 67.4009 416.025 68.2813C416.458 69.1618 416.675 70.1922 416.675 71.3727C416.675 72.5433 416.458 73.5664 416.025 74.4419C415.597 75.3175 414.997 75.9987 414.225 76.4857C413.458 76.9726 412.563 77.2161 411.539 77.2161ZM411.539 75.6519C412.317 75.6519 412.956 75.4527 413.458 75.0543C413.959 74.6559 414.331 74.1321 414.572 73.4828C414.813 72.8335 414.933 72.1302 414.933 71.3727C414.933 70.6152 414.813 69.9094 414.572 69.2552C414.331 68.601 413.959 68.0723 413.458 67.6689C412.956 67.2656 412.317 67.064 411.539 67.064C410.762 67.064 410.123 67.2656 409.621 67.6689C409.119 68.0723 408.748 68.601 408.507 69.2552C408.266 69.9094 408.146 70.6152 408.146 71.3727C408.146 72.1302 408.266 72.8335 408.507 73.4828C408.748 74.1321 409.119 74.6559 409.621 75.0543C410.123 75.4527 410.762 75.6519 411.539 75.6519ZM417.851 67.2705V65.6474H427.059V67.2705H423.341V76.98H421.599V67.2705H417.851ZM429.599 76.98V65.6474H434.232C435.452 65.6474 436.421 65.9228 437.139 66.4737C437.857 67.0246 438.216 67.7526 438.216 68.6576C438.216 69.3462 438.012 69.8799 437.604 70.2586C437.196 70.6324 436.672 70.8858 436.033 71.0186C436.451 71.0776 436.856 71.2251 437.25 71.4612C437.648 71.6973 437.978 72.022 438.239 72.4351C438.499 72.8434 438.63 73.3451 438.63 73.9402C438.63 74.5206 438.482 75.0396 438.187 75.497C437.892 75.9544 437.469 76.316 436.918 76.5816C436.367 76.8472 435.708 76.98 434.941 76.98H429.599ZM431.252 75.3863H434.941C435.541 75.3863 436.01 75.2437 436.35 74.9584C436.689 74.6731 436.859 74.2846 436.859 73.7927C436.859 73.2074 436.689 72.7475 436.35 72.413C436.01 72.0736 435.541 71.9039 434.941 71.9039H431.252V75.3863ZM431.252 70.3988H434.232C434.7 70.3988 435.1 70.3349 435.435 70.207C435.769 70.0742 436.025 69.8873 436.202 69.6463C436.384 69.4003 436.475 69.1101 436.475 68.7756C436.475 68.2985 436.276 67.9247 435.878 67.6542C435.479 67.3787 434.931 67.241 434.232 67.241H431.252V70.3988ZM446.017 77.2161C444.925 77.2161 443.983 76.9751 443.191 76.493C442.404 76.0061 441.797 75.3273 441.369 74.4567C440.946 73.5812 440.734 72.563 440.734 71.4022C440.734 70.2414 440.946 69.2183 441.369 68.333C441.797 67.4427 442.392 66.7492 443.154 66.2524C443.922 65.7507 444.817 65.4998 445.84 65.4998C446.43 65.4998 447.013 65.5982 447.588 65.7949C448.164 65.9917 448.688 66.3114 449.16 66.7541C449.632 67.1918 450.008 67.7722 450.289 68.4953C450.569 69.2183 450.709 70.1086 450.709 71.1661V71.9039H441.974V70.3988H448.939C448.939 69.7594 448.811 69.1888 448.555 68.6871C448.304 68.1854 447.945 67.7895 447.478 67.4993C447.015 67.2091 446.469 67.064 445.84 67.064C445.146 67.064 444.546 67.2361 444.04 67.5804C443.538 67.9198 443.152 68.3625 442.881 68.9085C442.611 69.4544 442.475 70.0397 442.475 70.6644V71.6678C442.475 72.5237 442.623 73.2492 442.918 73.8443C443.218 74.4346 443.634 74.8846 444.165 75.1945C444.696 75.4995 445.313 75.6519 446.017 75.6519C446.474 75.6519 446.887 75.588 447.256 75.4601C447.63 75.3273 447.952 75.1306 448.223 74.8699C448.493 74.6043 448.702 74.2747 448.85 73.8812L450.532 74.3534C450.355 74.924 450.058 75.4257 449.639 75.8585C449.221 76.2864 448.705 76.6209 448.09 76.8619C447.475 77.098 446.784 77.2161 446.017 77.2161ZM462.094 65.6474V76.98H460.352V65.6474H462.094ZM461.415 71.0481V72.6712C461.021 72.8188 460.63 72.9491 460.242 73.0623C459.853 73.1705 459.445 73.2566 459.017 73.3205C458.589 73.3795 458.119 73.409 457.608 73.409C456.324 73.409 455.293 73.0623 454.516 72.3687C453.744 71.6752 453.358 70.6349 453.358 69.2478V65.6179H455.099V69.2478C455.099 69.8282 455.21 70.3054 455.431 70.6792C455.653 71.053 455.953 71.3309 456.331 71.5129C456.71 71.6949 457.135 71.7859 457.608 71.7859C458.345 71.7859 459.012 71.7195 459.607 71.5867C460.207 71.4489 460.81 71.2694 461.415 71.0481ZM468.623 77.2456C467.905 77.2456 467.253 77.1103 466.668 76.8398C466.083 76.5644 465.618 76.1684 465.273 75.6519C464.929 75.1306 464.757 74.501 464.757 73.7632C464.757 73.1139 464.885 72.5876 465.141 72.1843C465.396 71.776 465.738 71.4563 466.166 71.2251C466.594 70.994 467.066 70.8218 467.583 70.7087C468.104 70.5906 468.628 70.4972 469.154 70.4283C469.843 70.3398 470.401 70.2734 470.829 70.2291C471.262 70.1799 471.577 70.0988 471.773 69.9856C471.975 69.8725 472.076 69.6758 472.076 69.3954V69.3364C472.076 68.6084 471.877 68.0428 471.478 67.6394C471.085 67.2361 470.487 67.0344 469.685 67.0344C468.854 67.0344 468.202 67.2164 467.73 67.5804C467.258 67.9444 466.926 68.333 466.734 68.7461L465.082 68.1559C465.377 67.4673 465.77 66.9311 466.262 66.5475C466.759 66.1589 467.3 65.8884 467.885 65.7359C468.475 65.5785 469.056 65.4998 469.626 65.4998C469.99 65.4998 470.409 65.5441 470.881 65.6326C471.358 65.7162 471.818 65.8908 472.26 66.1565C472.708 66.4221 473.079 66.8229 473.374 67.3591C473.67 67.8952 473.817 68.6133 473.817 69.5134V76.98H472.076V75.4454H471.987C471.869 75.6913 471.673 75.9544 471.397 76.2348C471.122 76.5152 470.755 76.7537 470.298 76.9505C469.84 77.1472 469.282 77.2456 468.623 77.2456ZM468.889 75.6815C469.577 75.6815 470.158 75.5462 470.63 75.2757C471.107 75.0051 471.466 74.6559 471.707 74.228C471.953 73.8001 472.076 73.35 472.076 72.8778V71.2842C472.002 71.3727 471.84 71.4539 471.589 71.5276C471.343 71.5965 471.058 71.658 470.733 71.7121C470.413 71.7613 470.101 71.8055 469.796 71.8449C469.496 71.8793 469.253 71.9088 469.066 71.9334C468.613 71.9925 468.19 72.0884 467.797 72.2212C467.408 72.3491 467.093 72.5433 466.852 72.804C466.616 73.0598 466.498 73.409 466.498 73.8517C466.498 74.4567 466.722 74.9141 467.17 75.224C467.622 75.529 468.195 75.6815 468.889 75.6815ZM475.453 67.2705V65.6474H484.661V67.2705H480.942V76.98H479.201V67.2705H475.453ZM488.706 69.7495H491.952C493.28 69.7495 494.296 70.0865 494.999 70.7603C495.703 71.4342 496.054 72.2876 496.054 73.3205C496.054 73.9993 495.897 74.6166 495.582 75.1724C495.267 75.7233 494.805 76.1635 494.195 76.493C493.585 76.8177 492.838 76.98 491.952 76.98H487.201V65.6474H488.942V75.3568H491.952C492.641 75.3568 493.207 75.1748 493.649 74.8108C494.092 74.4469 494.313 73.9796 494.313 73.409C494.313 72.809 494.092 72.3195 493.649 71.9408C493.207 71.5621 492.641 71.3727 491.952 71.3727H488.706V69.7495Z" fill="black"/>
<path d="M511.104 80.4706C510.371 80.4706 509.747 80.2713 509.231 79.8725C508.716 79.4705 508.322 78.8886 508.05 78.1267C507.777 77.3616 507.641 76.4377 507.641 75.3549C507.641 74.2785 507.777 73.3595 508.05 72.5976C508.325 71.8325 508.721 71.249 509.236 70.847C509.755 70.4417 510.377 70.2391 511.104 70.2391C511.83 70.2391 512.451 70.4417 512.966 70.847C513.485 71.249 513.88 71.8325 514.153 72.5976C514.428 73.3595 514.566 74.2785 514.566 75.3549C514.566 76.4377 514.43 77.3616 514.157 78.1267C513.885 78.8886 513.491 79.4705 512.976 79.8725C512.46 80.2713 511.836 80.4706 511.104 80.4706ZM511.104 79.4008C511.83 79.4008 512.394 79.0507 512.796 78.3504C513.198 77.6502 513.399 76.6516 513.399 75.3549C513.399 74.4925 513.306 73.7582 513.122 73.152C512.94 72.5457 512.678 72.0838 512.334 71.766C511.993 71.4483 511.583 71.2895 511.104 71.2895C510.384 71.2895 509.821 71.6445 509.416 72.3545C509.011 73.0612 508.808 74.0613 508.808 75.3549C508.808 76.2172 508.899 76.9499 509.081 77.5529C509.262 78.1559 509.523 78.6146 509.864 78.9291C510.207 79.2436 510.621 79.4008 511.104 79.4008ZM519.33 80.4706C518.662 80.4706 518.072 80.3523 517.56 80.1156C517.051 79.8757 516.654 79.5467 516.369 79.1285C516.083 78.707 515.942 78.2272 515.945 77.6891C515.942 77.2676 516.025 76.8786 516.193 76.522C516.362 76.1621 516.592 75.8622 516.884 75.6223C517.179 75.3792 517.508 75.2252 517.871 75.1603V75.102C517.395 74.9788 517.015 74.7113 516.733 74.2996C516.451 73.8846 516.312 73.4129 516.315 72.8845C516.312 72.3788 516.44 71.9265 516.699 71.5278C516.959 71.129 517.315 70.8145 517.769 70.5844C518.226 70.3542 518.746 70.2391 519.33 70.2391C519.907 70.2391 520.423 70.3542 520.876 70.5844C521.33 70.8145 521.687 71.129 521.946 71.5278C522.209 71.9265 522.342 72.3788 522.345 72.8845C522.342 73.4129 522.198 73.8846 521.912 74.2996C521.63 74.7113 521.256 74.9788 520.789 75.102V75.1603C521.149 75.2252 521.473 75.3792 521.761 75.6223C522.05 75.8622 522.28 76.1621 522.452 76.522C522.624 76.8786 522.711 77.2676 522.715 77.6891C522.711 78.2272 522.565 78.707 522.277 79.1285C521.992 79.5467 521.595 79.8757 521.086 80.1156C520.58 80.3523 519.995 80.4706 519.33 80.4706ZM519.33 79.4008C519.781 79.4008 520.17 79.3279 520.497 79.182C520.825 79.0361 521.077 78.8302 521.256 78.5644C521.434 78.2985 521.525 77.9873 521.528 77.6307C521.525 77.2546 521.428 76.9223 521.236 76.6338C521.045 76.3453 520.784 76.1183 520.453 75.953C520.126 75.7877 519.751 75.705 519.33 75.705C518.905 75.705 518.526 75.7877 518.192 75.953C517.861 76.1183 517.6 76.3453 517.409 76.6338C517.221 76.9223 517.129 77.2546 517.132 77.6307C517.129 77.9873 517.215 78.2985 517.39 78.5644C517.568 78.8302 517.823 79.0361 518.153 79.182C518.484 79.3279 518.876 79.4008 519.33 79.4008ZM519.33 74.6741C519.687 74.6741 520.003 74.6027 520.278 74.4601C520.557 74.3174 520.776 74.1181 520.935 73.862C521.094 73.6058 521.175 73.306 521.178 72.9623C521.175 72.6252 521.095 72.3318 520.94 72.0821C520.784 71.8293 520.568 71.6347 520.293 71.4986C520.017 71.3592 519.696 71.2895 519.33 71.2895C518.957 71.2895 518.631 71.3592 518.353 71.4986C518.074 71.6347 517.858 71.8293 517.706 72.0821C517.553 72.3318 517.479 72.6252 517.482 72.9623C517.479 73.306 517.555 73.6058 517.711 73.862C517.87 74.1181 518.088 74.3174 518.367 74.4601C518.646 74.6027 518.967 74.6741 519.33 74.6741ZM525.16 79.0604C524.92 79.0604 524.715 78.9745 524.543 78.8027C524.371 78.6308 524.285 78.425 524.285 78.1851C524.285 77.9452 524.371 77.7393 524.543 77.5675C524.715 77.3957 524.92 77.3097 525.16 77.3097C525.4 77.3097 525.606 77.3957 525.778 77.5675C525.95 77.7393 526.036 77.9452 526.036 78.1851C526.036 78.3439 525.995 78.4898 525.914 78.6227C525.836 78.7557 525.731 78.8626 525.598 78.9437C525.468 79.0215 525.322 79.0604 525.16 79.0604ZM525.16 74.0224C524.92 74.0224 524.715 73.9365 524.543 73.7647C524.371 73.5929 524.285 73.387 524.285 73.1471C524.285 72.9072 524.371 72.7013 524.543 72.5295C524.715 72.3577 524.92 72.2718 525.16 72.2718C525.4 72.2718 525.606 72.3577 525.778 72.5295C525.95 72.7013 526.036 72.9072 526.036 73.1471C526.036 73.306 525.995 73.4518 525.914 73.5848C525.836 73.7177 525.731 73.8247 525.598 73.9057C525.468 73.9835 525.322 74.0224 525.16 74.0224ZM527.568 78.2921V77.3L531.945 70.3753H532.665V71.9119H532.178L528.872 77.1444V77.2222H534.765V78.2921H527.568ZM532.256 80.3345V77.9906V77.5286V70.3753H533.404V80.3345H532.256ZM539.681 70.3753V80.3345H538.475V71.6396H538.417L535.986 73.2541V72.0286L538.475 70.3753H539.681Z" fill="#421DFF"/>
<path fill-rule="evenodd" clip-rule="evenodd" d="M559.8 71.4384C560.028 71.658 560.034 72.0203 559.815 72.2477L550.906 81.474C550.796 81.5885 550.643 81.6518 550.483 81.6487C550.324 81.6456 550.174 81.5763 550.068 81.4576L546.091 77.0035C545.88 76.7677 545.901 76.4059 546.136 76.1954C546.372 75.9849 546.734 76.0053 546.945 76.2411L550.511 80.2354L558.991 71.4526C559.211 71.2252 559.573 71.2189 559.8 71.4384Z" fill="#421DFF"/>
<path fill-rule="evenodd" clip-rule="evenodd" d="M562.855 71.3593C563.082 71.5789 563.089 71.9412 562.869 72.1686L553.961 81.3949C553.85 81.5094 553.697 81.5727 553.538 81.5696C553.379 81.5665 553.228 81.4972 553.122 81.3785L549.145 76.9244C548.935 76.6886 548.955 76.3268 549.191 76.1163C549.427 75.9058 549.789 75.9262 549.999 76.162L553.566 80.1563L562.046 71.3735C562.265 71.1461 562.628 71.1398 562.855 71.3593Z" fill="#421DFF"/>
<path opacity="0.8" d="M212.957 118C212.957 116.974 212.957 116.461 212.938 116.027C212.488 105.721 204.236 97.4689 193.93 97.0189C193.496 97 192.983 97 191.957 97H41.832C35.4397 97 32.2436 97 29.6115 97.6593C21.7371 99.6317 15.5888 105.78 13.6163 113.654C12.957 116.287 12.957 119.483 12.957 125.875C12.957 128.781 12.957 130.233 13.2567 131.43C14.1533 135.009 16.948 137.804 20.5272 138.7C21.7236 139 23.1764 139 26.082 139H191.957C192.983 139 193.496 139 193.93 138.981C204.236 138.531 212.488 130.279 212.938 119.973C212.957 119.539 212.957 119.026 212.957 118Z" fill="#BCA4FF"/>
<path d="M164.02 130.129C163.324 130.129 162.732 129.94 162.242 129.561C161.753 129.18 161.379 128.627 161.12 127.904C160.862 127.178 160.733 126.301 160.733 125.273C160.733 124.251 160.862 123.378 161.12 122.655C161.382 121.929 161.757 121.375 162.247 120.993C162.739 120.609 163.33 120.416 164.02 120.416C164.709 120.416 165.298 120.609 165.788 120.993C166.28 121.375 166.656 121.929 166.914 122.655C167.176 123.378 167.306 124.251 167.306 125.273C167.306 126.301 167.177 127.178 166.919 127.904C166.66 128.627 166.286 129.18 165.797 129.561C165.308 129.94 164.715 130.129 164.02 130.129ZM164.02 129.114C164.709 129.114 165.244 128.781 165.626 128.116C166.008 127.452 166.199 126.504 166.199 125.273C166.199 124.454 166.111 123.757 165.935 123.181C165.763 122.606 165.514 122.167 165.188 121.866C164.864 121.564 164.475 121.413 164.02 121.413C163.336 121.413 162.802 121.75 162.418 122.424C162.033 123.095 161.841 124.045 161.841 125.273C161.841 126.091 161.927 126.787 162.099 127.359C162.271 127.932 162.519 128.367 162.842 128.666C163.169 128.964 163.561 129.114 164.02 129.114ZM171.829 130.129C171.195 130.129 170.635 130.017 170.149 129.792C169.666 129.565 169.289 129.252 169.018 128.855C168.747 128.455 168.613 128 168.616 127.489C168.613 127.089 168.691 126.719 168.852 126.381C169.012 126.039 169.23 125.754 169.507 125.527C169.787 125.296 170.099 125.15 170.444 125.088V125.033C169.992 124.916 169.632 124.662 169.364 124.271C169.096 123.877 168.964 123.429 168.967 122.928C168.964 122.447 169.085 122.018 169.332 121.64C169.578 121.261 169.916 120.962 170.347 120.744C170.781 120.525 171.275 120.416 171.829 120.416C172.377 120.416 172.866 120.525 173.297 120.744C173.728 120.962 174.067 121.261 174.313 121.64C174.562 122.018 174.688 122.447 174.691 122.928C174.688 123.429 174.551 123.877 174.28 124.271C174.013 124.662 173.657 124.916 173.214 125.033V125.088C173.556 125.15 173.863 125.296 174.137 125.527C174.411 125.754 174.63 126.039 174.793 126.381C174.956 126.719 175.039 127.089 175.042 127.489C175.039 128 174.901 128.455 174.627 128.855C174.356 129.252 173.979 129.565 173.496 129.792C173.016 130.017 172.46 130.129 171.829 130.129ZM171.829 129.114C172.257 129.114 172.626 129.044 172.937 128.906C173.248 128.767 173.488 128.572 173.657 128.32C173.827 128.067 173.913 127.772 173.916 127.433C173.913 127.076 173.82 126.761 173.639 126.487C173.457 126.213 173.209 125.998 172.896 125.841C172.585 125.684 172.229 125.605 171.829 125.605C171.426 125.605 171.066 125.684 170.749 125.841C170.435 125.998 170.187 126.213 170.006 126.487C169.827 126.761 169.739 127.076 169.742 127.433C169.739 127.772 169.821 128.067 169.987 128.32C170.156 128.572 170.398 128.767 170.712 128.906C171.026 129.044 171.398 129.114 171.829 129.114ZM171.829 124.626C172.168 124.626 172.468 124.559 172.729 124.423C172.994 124.288 173.202 124.099 173.353 123.855C173.503 123.612 173.58 123.328 173.583 123.001C173.58 122.681 173.505 122.403 173.357 122.166C173.209 121.926 173.005 121.741 172.743 121.612C172.482 121.48 172.177 121.413 171.829 121.413C171.475 121.413 171.166 121.48 170.901 121.612C170.637 121.741 170.432 121.926 170.287 122.166C170.143 122.403 170.072 122.681 170.075 123.001C170.072 123.328 170.144 123.612 170.292 123.855C170.443 124.099 170.65 124.288 170.915 124.423C171.18 124.559 171.484 124.626 171.829 124.626ZM177.364 128.79C177.136 128.79 176.941 128.709 176.778 128.546C176.615 128.383 176.533 128.187 176.533 127.96C176.533 127.732 176.615 127.536 176.778 127.373C176.941 127.21 177.136 127.129 177.364 127.129C177.592 127.129 177.787 127.21 177.95 127.373C178.113 127.536 178.195 127.732 178.195 127.96C178.195 128.11 178.156 128.249 178.08 128.375C178.006 128.501 177.906 128.603 177.779 128.68C177.656 128.754 177.518 128.79 177.364 128.79ZM177.364 124.008C177.136 124.008 176.941 123.926 176.778 123.763C176.615 123.6 176.533 123.405 176.533 123.177C176.533 122.949 176.615 122.754 176.778 122.591C176.941 122.427 177.136 122.346 177.364 122.346C177.592 122.346 177.787 122.427 177.95 122.591C178.113 122.754 178.195 122.949 178.195 123.177C178.195 123.328 178.156 123.466 178.08 123.592C178.006 123.719 177.906 123.82 177.779 123.897C177.656 123.971 177.518 124.008 177.364 124.008ZM179.65 128.061V127.119L183.805 120.545H184.488V122.004H184.026L180.887 126.972V127.045H186.482V128.061H179.65ZM184.1 130V127.775V127.336V120.545H185.19V130H184.1ZM191.092 130.129C190.704 130.123 190.316 130.049 189.928 129.908C189.54 129.766 189.187 129.528 188.866 129.192C188.546 128.854 188.289 128.397 188.095 127.821C187.902 127.242 187.805 126.516 187.805 125.642C187.805 124.805 187.883 124.063 188.04 123.417C188.197 122.768 188.425 122.221 188.723 121.778C189.022 121.332 189.382 120.993 189.804 120.762C190.228 120.532 190.707 120.416 191.239 120.416C191.769 120.416 192.24 120.522 192.652 120.735C193.067 120.944 193.406 121.236 193.668 121.612C193.929 121.987 194.098 122.42 194.175 122.909H193.049C192.944 122.484 192.741 122.132 192.44 121.852C192.138 121.572 191.738 121.432 191.239 121.432C190.507 121.432 189.93 121.75 189.508 122.387C189.09 123.025 188.879 123.919 188.876 125.07H188.95C189.122 124.808 189.327 124.585 189.564 124.4C189.804 124.212 190.068 124.068 190.358 123.966C190.647 123.865 190.953 123.814 191.276 123.814C191.818 123.814 192.313 123.949 192.763 124.22C193.212 124.488 193.572 124.859 193.843 125.333C194.114 125.804 194.249 126.344 194.249 126.953C194.249 127.538 194.118 128.073 193.857 128.56C193.595 129.043 193.227 129.428 192.754 129.714C192.283 129.997 191.729 130.135 191.092 130.129ZM191.092 129.114C191.479 129.114 191.827 129.017 192.135 128.823C192.446 128.629 192.69 128.369 192.869 128.043C193.05 127.716 193.141 127.353 193.141 126.953C193.141 126.562 193.054 126.207 192.878 125.887C192.706 125.564 192.467 125.307 192.163 125.116C191.861 124.925 191.516 124.83 191.129 124.83C190.836 124.83 190.564 124.888 190.311 125.005C190.059 125.119 189.837 125.276 189.647 125.476C189.459 125.676 189.311 125.905 189.203 126.164C189.096 126.419 189.042 126.688 189.042 126.972C189.042 127.347 189.13 127.698 189.305 128.024C189.483 128.35 189.727 128.614 190.034 128.814C190.345 129.014 190.698 129.114 191.092 129.114Z" fill="#421DFF"/>
<path d="M32.7184 125V110.455H34.4798V116.932H42.2354V110.455H43.9968V125H42.2354V118.494H34.4798V125H32.7184ZM51.8697 125.227C50.8185 125.227 49.9118 124.995 49.1495 124.531C48.3919 124.062 47.8072 123.409 47.3952 122.571C46.988 121.728 46.7844 120.748 46.7844 119.631C46.7844 118.513 46.988 117.528 47.3952 116.676C47.8072 115.819 48.3801 115.152 49.114 114.673C49.8526 114.19 50.7144 113.949 51.6992 113.949C52.2674 113.949 52.8285 114.044 53.3825 114.233C53.9364 114.422 54.4407 114.73 54.8952 115.156C55.3498 115.578 55.712 116.136 55.9819 116.832C56.2518 117.528 56.3867 118.385 56.3867 119.403V120.114H47.9776V118.665H54.6822C54.6822 118.049 54.5591 117.5 54.3129 117.017C54.0714 116.534 53.7257 116.153 53.2759 115.874C52.8308 115.594 52.3053 115.455 51.6992 115.455C51.0316 115.455 50.454 115.62 49.9663 115.952C49.4833 116.278 49.1116 116.705 48.8512 117.23C48.5908 117.756 48.4606 118.319 48.4606 118.92V119.886C48.4606 120.71 48.6026 121.409 48.8867 121.982C49.1755 122.55 49.5756 122.983 50.087 123.281C50.5984 123.575 51.1926 123.722 51.8697 123.722C52.31 123.722 52.7077 123.66 53.0629 123.537C53.4227 123.409 53.7328 123.22 53.9933 122.969C54.2537 122.713 54.4549 122.396 54.5969 122.017L56.2163 122.472C56.0458 123.021 55.7594 123.504 55.3569 123.92C54.9544 124.332 54.4573 124.654 53.8654 124.886C53.2736 125.114 52.6083 125.227 51.8697 125.227ZM58.9364 125V114.091H63.3967C64.5709 114.091 65.5037 114.356 66.195 114.886C66.8862 115.417 67.2319 116.117 67.2319 116.989C67.2319 117.652 67.0354 118.165 66.6424 118.53C66.2494 118.89 65.7451 119.134 65.1296 119.261C65.5321 119.318 65.9227 119.46 66.3015 119.688C66.685 119.915 67.0022 120.227 67.2532 120.625C67.5041 121.018 67.6296 121.501 67.6296 122.074C67.6296 122.633 67.4876 123.132 67.2035 123.572C66.9194 124.013 66.5122 124.361 65.9819 124.616C65.4516 124.872 64.8171 125 64.0785 125H58.9364ZM60.5273 123.466H64.0785C64.6561 123.466 65.1083 123.329 65.435 123.054C65.7617 122.779 65.9251 122.405 65.9251 121.932C65.9251 121.368 65.7617 120.926 65.435 120.604C65.1083 120.277 64.6561 120.114 64.0785 120.114H60.5273V123.466ZM60.5273 118.665H63.3967C63.8465 118.665 64.2324 118.603 64.5543 118.48C64.8763 118.352 65.1225 118.172 65.293 117.94C65.4682 117.704 65.5558 117.424 65.5558 117.102C65.5558 116.643 65.364 116.283 64.9805 116.023C64.5969 115.758 64.069 115.625 63.3967 115.625H60.5273V118.665ZM74.5987 125.227C73.6139 125.227 72.7498 124.993 72.0064 124.524C71.2678 124.055 70.6901 123.4 70.2734 122.557C69.8615 121.714 69.6555 120.729 69.6555 119.602C69.6555 118.466 69.8615 117.474 70.2734 116.626C70.6901 115.779 71.2678 115.121 72.0064 114.652C72.7498 114.183 73.6139 113.949 74.5987 113.949C75.5836 113.949 76.4453 114.183 77.1839 114.652C77.9273 115.121 78.505 115.779 78.9169 116.626C79.3336 117.474 79.5419 118.466 79.5419 119.602C79.5419 120.729 79.3336 121.714 78.9169 122.557C78.505 123.4 77.9273 124.055 77.1839 124.524C76.4453 124.993 75.5836 125.227 74.5987 125.227ZM74.5987 123.722C75.3468 123.722 75.9624 123.53 76.4453 123.146C76.9283 122.763 77.2857 122.259 77.5178 121.634C77.7498 121.009 77.8658 120.331 77.8658 119.602C77.8658 118.873 77.7498 118.194 77.5178 117.564C77.2857 116.934 76.9283 116.425 76.4453 116.037C75.9624 115.649 75.3468 115.455 74.5987 115.455C73.8506 115.455 73.2351 115.649 72.7521 116.037C72.2692 116.425 71.9117 116.934 71.6797 117.564C71.4477 118.194 71.3317 118.873 71.3317 119.602C71.3317 120.331 71.4477 121.009 71.6797 121.634C71.9117 122.259 72.2692 122.763 72.7521 123.146C73.2351 123.53 73.8506 123.722 74.5987 123.722ZM82.1005 125V114.091H86.5607C87.735 114.091 88.6677 114.356 89.359 114.886C90.0503 115.417 90.396 116.117 90.396 116.989C90.396 117.652 90.1995 118.165 89.8065 118.53C89.4135 118.89 88.9092 119.134 88.2937 119.261C88.6961 119.318 89.0868 119.46 89.4656 119.688C89.8491 119.915 90.1663 120.227 90.4173 120.625C90.6682 121.018 90.7937 121.501 90.7937 122.074C90.7937 122.633 90.6516 123.132 90.3675 123.572C90.0835 124.013 89.6763 124.361 89.146 124.616C88.6156 124.872 87.9812 125 87.2425 125H82.1005ZM83.6914 123.466H87.2425C87.8202 123.466 88.2724 123.329 88.5991 123.054C88.9258 122.779 89.0891 122.405 89.0891 121.932C89.0891 121.368 88.9258 120.926 88.5991 120.604C88.2724 120.277 87.8202 120.114 87.2425 120.114H83.6914V123.466ZM83.6914 118.665H86.5607C87.0105 118.665 87.3964 118.603 87.7184 118.48C88.0404 118.352 88.2866 118.172 88.457 117.94C88.6322 117.704 88.7198 117.424 88.7198 117.102C88.7198 116.643 88.5281 116.283 88.1445 116.023C87.761 115.758 87.2331 115.625 86.5607 115.625H83.6914V118.665ZM93.331 129.091V114.091H94.9503V115.824H95.1491C95.2723 115.634 95.4427 115.393 95.6605 115.099C95.883 114.801 96.2003 114.536 96.6122 114.304C97.0289 114.067 97.5923 113.949 98.3026 113.949C99.2211 113.949 100.031 114.179 100.732 114.638C101.432 115.097 101.979 115.748 102.372 116.591C102.765 117.434 102.962 118.428 102.962 119.574C102.962 120.729 102.765 121.731 102.372 122.578C101.979 123.421 101.435 124.074 100.739 124.538C100.043 124.998 99.2401 125.227 98.331 125.227C97.6302 125.227 97.0691 125.111 96.6477 124.879C96.2263 124.643 95.902 124.375 95.6747 124.077C95.4474 123.774 95.2723 123.523 95.1491 123.324H95.0071V129.091H93.331ZM94.9787 119.545C94.9787 120.369 95.0994 121.096 95.3409 121.726C95.5824 122.351 95.9351 122.841 96.3991 123.196C96.8632 123.546 97.4313 123.722 98.1037 123.722C98.8045 123.722 99.3892 123.537 99.858 123.168C100.331 122.794 100.687 122.292 100.923 121.662C101.165 121.027 101.286 120.322 101.286 119.545C101.286 118.778 101.167 118.087 100.93 117.472C100.698 116.851 100.346 116.361 99.8722 116.001C99.4034 115.637 98.8139 115.455 98.1037 115.455C97.4219 115.455 96.849 115.627 96.3849 115.973C95.9209 116.314 95.5705 116.792 95.3338 117.408C95.0971 118.018 94.9787 118.731 94.9787 119.545ZM110.092 125.227C109.041 125.227 108.134 124.995 107.372 124.531C106.615 124.062 106.03 123.409 105.618 122.571C105.211 121.728 105.007 120.748 105.007 119.631C105.007 118.513 105.211 117.528 105.618 116.676C106.03 115.819 106.603 115.152 107.337 114.673C108.075 114.19 108.937 113.949 109.922 113.949C110.49 113.949 111.051 114.044 111.605 114.233C112.159 114.422 112.663 114.73 113.118 115.156C113.572 115.578 113.935 116.136 114.205 116.832C114.474 117.528 114.609 118.385 114.609 119.403V120.114H106.2V118.665H112.905C112.905 118.049 112.782 117.5 112.536 117.017C112.294 116.534 111.948 116.153 111.499 115.874C111.054 115.594 110.528 115.455 109.922 115.455C109.254 115.455 108.677 115.62 108.189 115.952C107.706 116.278 107.334 116.705 107.074 117.23C106.813 117.756 106.683 118.319 106.683 118.92V119.886C106.683 120.71 106.825 121.409 107.109 121.982C107.398 122.55 107.798 122.983 108.31 123.281C108.821 123.575 109.415 123.722 110.092 123.722C110.533 123.722 110.93 123.66 111.286 123.537C111.645 123.409 111.955 123.22 112.216 122.969C112.476 122.713 112.678 122.396 112.82 122.017L114.439 122.472C114.268 123.021 113.982 123.504 113.58 123.92C113.177 124.332 112.68 124.654 112.088 124.886C111.496 125.114 110.831 125.227 110.092 125.227ZM123.125 122.727L126.932 114.091H128.523L123.807 125H122.443L117.812 114.091H119.375L123.125 122.727ZM118.835 114.091V125H117.159V114.091H118.835ZM127.415 125V114.091H129.091V125H127.415ZM138.722 125V115.625H135.824C135.17 115.625 134.657 115.777 134.283 116.08C133.909 116.383 133.722 116.799 133.722 117.33C133.722 117.85 133.89 118.26 134.226 118.558C134.567 118.857 135.033 119.006 135.625 119.006H139.148V120.568H135.625C134.886 120.568 134.25 120.438 133.714 120.178C133.179 119.917 132.768 119.545 132.479 119.062C132.19 118.575 132.045 117.997 132.045 117.33C132.045 116.657 132.197 116.08 132.5 115.597C132.803 115.114 133.236 114.742 133.8 114.482C134.368 114.221 135.043 114.091 135.824 114.091H140.312V125H138.722ZM131.449 125L134.545 119.574H136.364L133.267 125H131.449ZM143.986 118.864C143.986 117.074 144.218 115.429 144.682 113.928C145.151 112.422 145.819 111.037 146.685 109.773H148.162C147.821 110.241 147.502 110.819 147.203 111.506C146.91 112.187 146.652 112.938 146.429 113.757C146.207 114.571 146.032 115.414 145.904 116.286C145.781 117.157 145.719 118.016 145.719 118.864C145.719 119.991 145.828 121.134 146.046 122.294C146.264 123.454 146.557 124.531 146.926 125.526C147.296 126.52 147.708 127.33 148.162 127.955H146.685C145.819 126.69 145.151 125.308 144.682 123.807C144.218 122.301 143.986 120.653 143.986 118.864Z" fill="black"/>
<path opacity="0.8" fill-rule="evenodd" clip-rule="evenodd" d="M341.938 163.027C341.957 163.461 341.957 163.974 341.957 165C341.957 166.026 341.957 166.539 341.938 166.973C341.488 177.279 333.236 185.531 322.93 185.981C322.496 186 321.983 186 320.957 186H35.4499C32.6503 186 31.2504 186 30.0737 185.859C27.8918 185.598 25.8204 184.988 23.9168 184.086C23.4322 184.236 22.937 184.376 22.4344 184.503C16.1623 186.09 0.000976562 185.999 0.000976562 185.999C0.000976562 185.999 8.82047 184.503 12.0979 177.686C12.6273 176.585 13.0112 174.19 13.2874 171.509C13.01 170.524 12.806 169.508 12.6815 168.467C12.5408 167.29 12.5408 165.891 12.5408 163.091C12.5408 160.758 12.5408 159.591 12.6581 158.611C13.5664 151.014 19.5549 145.026 27.1516 144.117C28.1322 144 29.2987 144 31.6318 144H320.957C321.983 144 322.496 144 322.93 144.019C333.236 144.469 341.488 152.721 341.938 163.027Z" fill="#BCA4FF"/>
<path d="M296.02 175.937C295.324 175.937 294.732 175.748 294.242 175.369C293.753 174.987 293.379 174.435 293.12 173.712C292.862 172.985 292.733 172.108 292.733 171.08C292.733 170.059 292.862 169.186 293.12 168.463C293.382 167.736 293.757 167.182 294.247 166.801C294.739 166.416 295.33 166.224 296.02 166.224C296.709 166.224 297.298 166.416 297.788 166.801C298.28 167.182 298.656 167.736 298.914 168.463C299.176 169.186 299.306 170.059 299.306 171.08C299.306 172.108 299.177 172.985 298.919 173.712C298.66 174.435 298.286 174.987 297.797 175.369C297.308 175.748 296.715 175.937 296.02 175.937ZM296.02 174.921C296.709 174.921 297.244 174.589 297.626 173.924C298.008 173.259 298.199 172.311 298.199 171.08C298.199 170.262 298.111 169.565 297.935 168.989C297.763 168.414 297.514 167.975 297.188 167.673C296.864 167.372 296.475 167.221 296.02 167.221C295.336 167.221 294.802 167.558 294.418 168.232C294.033 168.903 293.841 169.852 293.841 171.08C293.841 171.899 293.927 172.595 294.099 173.167C294.271 173.739 294.519 174.175 294.842 174.473C295.169 174.772 295.561 174.921 296.02 174.921ZM303.829 175.937C303.195 175.937 302.635 175.825 302.149 175.6C301.666 175.372 301.289 175.06 301.018 174.663C300.747 174.263 300.613 173.807 300.616 173.296C300.613 172.896 300.691 172.527 300.852 172.188C301.012 171.847 301.23 171.562 301.507 171.334C301.787 171.103 302.099 170.957 302.444 170.896V170.84C301.992 170.723 301.632 170.469 301.364 170.079C301.096 169.685 300.964 169.237 300.967 168.735C300.964 168.255 301.085 167.826 301.332 167.447C301.578 167.069 301.916 166.77 302.347 166.552C302.781 166.333 303.275 166.224 303.829 166.224C304.377 166.224 304.866 166.333 305.297 166.552C305.728 166.77 306.067 167.069 306.313 167.447C306.562 167.826 306.688 168.255 306.691 168.735C306.688 169.237 306.551 169.685 306.28 170.079C306.013 170.469 305.657 170.723 305.214 170.84V170.896C305.556 170.957 305.863 171.103 306.137 171.334C306.411 171.562 306.63 171.847 306.793 172.188C306.956 172.527 307.039 172.896 307.042 173.296C307.039 173.807 306.901 174.263 306.627 174.663C306.356 175.06 305.979 175.372 305.496 175.6C305.016 175.825 304.46 175.937 303.829 175.937ZM303.829 174.921C304.257 174.921 304.626 174.852 304.937 174.714C305.248 174.575 305.488 174.38 305.657 174.127C305.827 173.875 305.913 173.579 305.916 173.241C305.913 172.884 305.82 172.568 305.639 172.294C305.457 172.021 305.209 171.805 304.896 171.648C304.585 171.491 304.229 171.413 303.829 171.413C303.426 171.413 303.066 171.491 302.749 171.648C302.435 171.805 302.187 172.021 302.006 172.294C301.827 172.568 301.739 172.884 301.742 173.241C301.739 173.579 301.821 173.875 301.987 174.127C302.156 174.38 302.398 174.575 302.712 174.714C303.026 174.852 303.398 174.921 303.829 174.921ZM303.829 170.434C304.168 170.434 304.468 170.366 304.729 170.231C304.994 170.095 305.202 169.906 305.353 169.663C305.503 169.42 305.58 169.135 305.583 168.809C305.58 168.489 305.505 168.21 305.357 167.973C305.209 167.733 305.005 167.549 304.743 167.419C304.482 167.287 304.177 167.221 303.829 167.221C303.475 167.221 303.166 167.287 302.901 167.419C302.637 167.549 302.432 167.733 302.287 167.973C302.143 168.21 302.072 168.489 302.075 168.809C302.072 169.135 302.144 169.42 302.292 169.663C302.443 169.906 302.65 170.095 302.915 170.231C303.18 170.366 303.484 170.434 303.829 170.434ZM309.364 174.598C309.136 174.598 308.941 174.517 308.778 174.353C308.615 174.19 308.533 173.995 308.533 173.767C308.533 173.539 308.615 173.344 308.778 173.181C308.941 173.018 309.136 172.936 309.364 172.936C309.592 172.936 309.787 173.018 309.95 173.181C310.113 173.344 310.195 173.539 310.195 173.767C310.195 173.918 310.156 174.056 310.08 174.183C310.006 174.309 309.906 174.41 309.779 174.487C309.656 174.561 309.518 174.598 309.364 174.598ZM309.364 169.815C309.136 169.815 308.941 169.734 308.778 169.571C308.615 169.408 308.533 169.212 308.533 168.984C308.533 168.757 308.615 168.561 308.778 168.398C308.941 168.235 309.136 168.153 309.364 168.153C309.592 168.153 309.787 168.235 309.95 168.398C310.113 168.561 310.195 168.757 310.195 168.984C310.195 169.135 310.156 169.274 310.08 169.4C310.006 169.526 309.906 169.628 309.779 169.705C309.656 169.778 309.518 169.815 309.364 169.815ZM311.65 173.869V172.927L315.805 166.353H316.488V167.812H316.026L312.887 172.779V172.853H318.482V173.869H311.65ZM316.1 175.808V173.582V173.144V166.353H317.19V175.808H316.1ZM323.092 175.937C322.704 175.931 322.316 175.857 321.928 175.715C321.54 175.574 321.187 175.335 320.866 175C320.546 174.661 320.289 174.204 320.095 173.629C319.902 173.05 319.805 172.324 319.805 171.45C319.805 170.613 319.883 169.871 320.04 169.225C320.197 168.575 320.425 168.029 320.723 167.586C321.022 167.139 321.382 166.801 321.804 166.57C322.228 166.339 322.707 166.224 323.239 166.224C323.769 166.224 324.24 166.33 324.652 166.542C325.067 166.752 325.406 167.044 325.668 167.419C325.929 167.795 326.098 168.227 326.175 168.717H325.049C324.944 168.292 324.741 167.94 324.44 167.66C324.138 167.379 323.738 167.239 323.239 167.239C322.507 167.239 321.93 167.558 321.508 168.195C321.09 168.832 320.879 169.726 320.876 170.877H320.95C321.122 170.616 321.327 170.392 321.564 170.208C321.804 170.02 322.068 169.875 322.358 169.774C322.647 169.672 322.953 169.622 323.276 169.622C323.818 169.622 324.313 169.757 324.763 170.028C325.212 170.296 325.572 170.666 325.843 171.14C326.114 171.611 326.249 172.151 326.249 172.761C326.249 173.345 326.118 173.881 325.857 174.367C325.595 174.85 325.227 175.235 324.754 175.521C324.283 175.805 323.729 175.943 323.092 175.937ZM323.092 174.921C323.479 174.921 323.827 174.824 324.135 174.63C324.446 174.437 324.69 174.176 324.869 173.85C325.05 173.524 325.141 173.161 325.141 172.761C325.141 172.37 325.054 172.014 324.878 171.694C324.706 171.371 324.467 171.114 324.163 170.923C323.861 170.733 323.516 170.637 323.129 170.637C322.836 170.637 322.564 170.696 322.311 170.813C322.059 170.926 321.837 171.083 321.647 171.283C321.459 171.484 321.311 171.713 321.203 171.971C321.096 172.227 321.042 172.496 321.042 172.779C321.042 173.155 321.13 173.506 321.305 173.832C321.483 174.158 321.727 174.421 322.034 174.621C322.345 174.821 322.698 174.921 323.092 174.921Z" fill="#421DFF"/>
<path d="M26.7184 172V157.455H31.8036C32.8169 157.455 33.6526 157.63 34.3107 157.98C34.9689 158.326 35.4589 158.792 35.7809 159.379C36.1029 159.962 36.2638 160.608 36.2638 161.318C36.2638 161.943 36.1526 162.459 35.93 162.866C35.7122 163.274 35.4234 163.596 35.0636 163.832C34.7085 164.069 34.3226 164.244 33.9059 164.358V164.5C34.351 164.528 34.7984 164.685 35.2482 164.969C35.698 165.253 36.0745 165.66 36.3775 166.19C36.6805 166.721 36.832 167.369 36.832 168.136C36.832 168.866 36.6663 169.521 36.3349 170.104C36.0034 170.686 35.4802 171.148 34.7653 171.489C34.0503 171.83 33.1199 172 31.9741 172H26.7184ZM28.4798 170.438H31.9741C33.1246 170.438 33.9414 170.215 34.4244 169.77C34.9121 169.32 35.1559 168.776 35.1559 168.136C35.1559 167.644 35.0304 167.189 34.7795 166.773C34.5285 166.351 34.171 166.015 33.707 165.764C33.243 165.509 32.6938 165.381 32.0593 165.381H28.4798V170.438ZM28.4798 163.847H31.7468C32.2771 163.847 32.7553 163.742 33.1815 163.534C33.6123 163.326 33.9532 163.032 34.2042 162.653C34.4599 162.275 34.5877 161.83 34.5877 161.318C34.5877 160.679 34.3652 160.137 33.9201 159.692C33.475 159.242 32.7695 159.017 31.8036 159.017H28.4798V163.847ZM44.0728 172.227C43.0217 172.227 42.1149 171.995 41.3526 171.531C40.5951 171.062 40.0103 170.409 39.5984 169.571C39.1912 168.728 38.9876 167.748 38.9876 166.631C38.9876 165.513 39.1912 164.528 39.5984 163.676C40.0103 162.819 40.5832 162.152 41.3171 161.673C42.0558 161.19 42.9175 160.949 43.9023 160.949C44.4705 160.949 45.0316 161.044 45.5856 161.233C46.1396 161.422 46.6438 161.73 47.0984 162.156C47.5529 162.578 47.9151 163.136 48.185 163.832C48.4549 164.528 48.5898 165.385 48.5898 166.403V167.114H40.1808V165.665H46.8853C46.8853 165.049 46.7622 164.5 46.516 164.017C46.2745 163.534 45.9289 163.153 45.479 162.874C45.034 162.594 44.5084 162.455 43.9023 162.455C43.2347 162.455 42.6571 162.62 42.1694 162.952C41.6864 163.278 41.3147 163.705 41.0543 164.23C40.7939 164.756 40.6637 165.319 40.6637 165.92V166.886C40.6637 167.71 40.8058 168.409 41.0898 168.982C41.3787 169.55 41.7788 169.983 42.2901 170.281C42.8015 170.575 43.3957 170.722 44.0728 170.722C44.5131 170.722 44.9109 170.66 45.266 170.537C45.6258 170.409 45.936 170.22 46.1964 169.969C46.4568 169.713 46.658 169.396 46.8001 169.017L48.4194 169.472C48.2489 170.021 47.9625 170.504 47.56 170.92C47.1576 171.332 46.6604 171.654 46.0685 171.886C45.4767 172.114 44.8114 172.227 44.0728 172.227ZM51.1396 176.091V161.091H52.7589V162.824H52.9577C53.0808 162.634 53.2513 162.393 53.4691 162.099C53.6916 161.801 54.0089 161.536 54.4208 161.304C54.8375 161.067 55.4009 160.949 56.1112 160.949C57.0297 160.949 57.8394 161.179 58.5401 161.638C59.2409 162.097 59.7878 162.748 60.1808 163.591C60.5737 164.434 60.7702 165.428 60.7702 166.574C60.7702 167.729 60.5737 168.731 60.1808 169.578C59.7878 170.421 59.2433 171.074 58.5472 171.538C57.8512 171.998 57.0487 172.227 56.1396 172.227C55.4388 172.227 54.8777 172.111 54.4563 171.879C54.0349 171.643 53.7106 171.375 53.4833 171.077C53.256 170.774 53.0808 170.523 52.9577 170.324H52.8157V176.091H51.1396ZM52.7873 166.545C52.7873 167.369 52.908 168.096 53.1495 168.726C53.391 169.351 53.7437 169.841 54.2077 170.196C54.6718 170.546 55.2399 170.722 55.9123 170.722C56.613 170.722 57.1978 170.537 57.6665 170.168C58.14 169.794 58.4951 169.292 58.7319 168.662C58.9734 168.027 59.0941 167.322 59.0941 166.545C59.0941 165.778 58.9757 165.087 58.739 164.472C58.507 163.851 58.1542 163.361 57.6808 163.001C57.212 162.637 56.6225 162.455 55.9123 162.455C55.2305 162.455 54.6576 162.627 54.1935 162.973C53.7295 163.314 53.3791 163.792 53.1424 164.408C52.9057 165.018 52.7873 165.731 52.7873 166.545ZM70.6282 165.778V167.341H64.6055V165.778H70.6282ZM65.0032 161.091V172H63.3271V161.091H65.0032ZM71.9066 161.091V172H70.2305V161.091H71.9066ZM75.6566 176.091C75.3725 176.091 75.1192 176.067 74.8967 176.02C74.6741 175.977 74.5202 175.935 74.435 175.892L74.8612 174.415C75.2683 174.519 75.6282 174.557 75.9407 174.528C76.2532 174.5 76.5302 174.36 76.7717 174.109C77.0179 173.863 77.2428 173.463 77.4464 172.909L77.7589 172.057L73.7248 161.091H75.543L78.5543 169.784H78.668L81.6793 161.091H83.4975L78.8668 173.591C78.6585 174.154 78.4004 174.621 78.0927 174.99C77.7849 175.364 77.4274 175.641 77.0202 175.821C76.6178 176.001 76.1632 176.091 75.6566 176.091ZM89.7511 172.227C88.7283 172.227 87.8477 171.986 87.109 171.503C86.3704 171.02 85.8022 170.355 85.4045 169.507C85.0067 168.66 84.8079 167.691 84.8079 166.602C84.8079 165.494 85.0115 164.517 85.4187 163.669C85.8306 162.817 86.4035 162.152 87.1374 161.673C87.8761 161.19 88.7378 160.949 89.7227 160.949C90.4897 160.949 91.181 161.091 91.7965 161.375C92.4121 161.659 92.9163 162.057 93.3093 162.568C93.7023 163.08 93.9461 163.676 94.0408 164.358H92.3647C92.2369 163.861 91.9528 163.42 91.5124 163.037C91.0768 162.649 90.4897 162.455 89.7511 162.455C89.0977 162.455 88.5247 162.625 88.0323 162.966C87.5446 163.302 87.1635 163.778 86.8888 164.393C86.619 165.004 86.484 165.722 86.484 166.545C86.484 167.388 86.6166 168.122 86.8817 168.747C87.1516 169.372 87.5304 169.857 88.0181 170.203C88.5105 170.549 89.0882 170.722 89.7511 170.722C90.1867 170.722 90.582 170.646 90.9371 170.494C91.2923 170.343 91.5929 170.125 91.8391 169.841C92.0853 169.557 92.2605 169.216 92.3647 168.818H94.0408C93.9461 169.462 93.7118 170.042 93.3377 170.558C92.9684 171.07 92.4783 171.477 91.8675 171.78C91.2615 172.078 90.556 172.227 89.7511 172.227ZM97.94 165.04H101.065C102.343 165.04 103.321 165.364 103.998 166.013C104.675 166.661 105.014 167.483 105.014 168.477C105.014 169.131 104.862 169.725 104.559 170.26C104.256 170.79 103.811 171.214 103.224 171.531C102.637 171.844 101.917 172 101.065 172H96.4911V161.091H98.1673V170.438H101.065C101.728 170.438 102.272 170.262 102.699 169.912C103.125 169.562 103.338 169.112 103.338 168.562C103.338 167.985 103.125 167.514 102.699 167.149C102.272 166.785 101.728 166.602 101.065 166.602H97.94V165.04ZM120.491 165.778V167.341H114.469V165.778H120.491ZM114.866 161.091V172H113.19V161.091H114.866ZM121.77 161.091V172H120.094V161.091H121.77ZM128.041 172.256C127.35 172.256 126.723 172.125 126.159 171.865C125.596 171.6 125.148 171.219 124.817 170.722C124.485 170.22 124.32 169.614 124.32 168.903C124.32 168.278 124.443 167.772 124.689 167.384C124.935 166.991 125.264 166.683 125.676 166.46C126.088 166.238 126.543 166.072 127.04 165.963C127.542 165.849 128.046 165.759 128.553 165.693C129.215 165.608 129.753 165.544 130.165 165.501C130.581 165.454 130.884 165.376 131.074 165.267C131.268 165.158 131.365 164.969 131.365 164.699V164.642C131.365 163.941 131.173 163.397 130.79 163.009C130.411 162.62 129.836 162.426 129.064 162.426C128.264 162.426 127.636 162.601 127.182 162.952C126.727 163.302 126.408 163.676 126.223 164.074L124.632 163.506C124.916 162.843 125.295 162.327 125.768 161.957C126.247 161.583 126.768 161.323 127.331 161.176C127.899 161.025 128.458 160.949 129.007 160.949C129.357 160.949 129.76 160.991 130.214 161.077C130.674 161.157 131.116 161.325 131.543 161.581C131.973 161.837 132.331 162.223 132.615 162.739C132.899 163.255 133.041 163.946 133.041 164.812V172H131.365V170.523H131.28C131.166 170.759 130.977 171.013 130.712 171.283C130.446 171.553 130.094 171.782 129.653 171.972C129.213 172.161 128.676 172.256 128.041 172.256ZM128.297 170.75C128.96 170.75 129.518 170.62 129.973 170.359C130.432 170.099 130.778 169.763 131.01 169.351C131.247 168.939 131.365 168.506 131.365 168.051V166.517C131.294 166.602 131.138 166.68 130.896 166.751C130.66 166.818 130.385 166.877 130.072 166.929C129.765 166.976 129.464 167.019 129.17 167.057C128.882 167.09 128.647 167.118 128.467 167.142C128.032 167.199 127.625 167.291 127.246 167.419C126.872 167.542 126.569 167.729 126.337 167.98C126.109 168.226 125.996 168.562 125.996 168.989C125.996 169.571 126.211 170.011 126.642 170.31C127.078 170.603 127.629 170.75 128.297 170.75ZM148.458 161.091V162.653H143.402V172H141.725V161.091H148.458ZM149.021 172V170.438H149.419C149.746 170.438 150.018 170.374 150.236 170.246C150.454 170.113 150.629 169.884 150.761 169.557C150.899 169.225 151.003 168.766 151.074 168.179C151.15 167.587 151.204 166.834 151.237 165.92L151.436 161.091H158.709V172H157.033V162.653H153.027L152.857 166.545C152.819 167.44 152.738 168.229 152.615 168.911C152.497 169.588 152.314 170.156 152.068 170.615C151.827 171.074 151.505 171.42 151.102 171.652C150.7 171.884 150.196 172 149.589 172H149.021ZM164.994 172.256C164.303 172.256 163.676 172.125 163.112 171.865C162.549 171.6 162.101 171.219 161.77 170.722C161.438 170.22 161.273 169.614 161.273 168.903C161.273 168.278 161.396 167.772 161.642 167.384C161.888 166.991 162.217 166.683 162.629 166.46C163.041 166.238 163.496 166.072 163.993 165.963C164.495 165.849 164.999 165.759 165.506 165.693C166.169 165.608 166.706 165.544 167.118 165.501C167.535 165.454 167.838 165.376 168.027 165.267C168.221 165.158 168.318 164.969 168.318 164.699V164.642C168.318 163.941 168.126 163.397 167.743 163.009C167.364 162.62 166.789 162.426 166.017 162.426C165.217 162.426 164.589 162.601 164.135 162.952C163.68 163.302 163.361 163.676 163.176 164.074L161.585 163.506C161.869 162.843 162.248 162.327 162.722 161.957C163.2 161.583 163.721 161.323 164.284 161.176C164.852 161.025 165.411 160.949 165.96 160.949C166.311 160.949 166.713 160.991 167.168 161.077C167.627 161.157 168.07 161.325 168.496 161.581C168.927 161.837 169.284 162.223 169.568 162.739C169.852 163.255 169.994 163.946 169.994 164.812V172H168.318V170.523H168.233C168.119 170.759 167.93 171.013 167.665 171.283C167.4 171.553 167.047 171.782 166.607 171.972C166.166 172.161 165.629 172.256 164.994 172.256ZM165.25 170.75C165.913 170.75 166.472 170.62 166.926 170.359C167.385 170.099 167.731 169.763 167.963 169.351C168.2 168.939 168.318 168.506 168.318 168.051V166.517C168.247 166.602 168.091 166.68 167.849 166.751C167.613 166.818 167.338 166.877 167.026 166.929C166.718 166.976 166.417 167.019 166.124 167.057C165.835 167.09 165.6 167.118 165.42 167.142C164.985 167.199 164.578 167.291 164.199 167.419C163.825 167.542 163.522 167.729 163.29 167.98C163.063 168.226 162.949 168.562 162.949 168.989C162.949 169.571 163.164 170.011 163.595 170.31C164.031 170.603 164.582 170.75 165.25 170.75ZM173.054 172V161.091H177.514C178.688 161.091 179.621 161.356 180.312 161.886C181.003 162.417 181.349 163.117 181.349 163.989C181.349 164.652 181.153 165.165 180.76 165.53C180.367 165.89 179.862 166.134 179.247 166.261C179.649 166.318 180.04 166.46 180.419 166.688C180.802 166.915 181.119 167.227 181.37 167.625C181.621 168.018 181.747 168.501 181.747 169.074C181.747 169.633 181.605 170.132 181.321 170.572C181.037 171.013 180.629 171.361 180.099 171.616C179.569 171.872 178.934 172 178.196 172H173.054ZM174.645 170.466H178.196C178.773 170.466 179.225 170.329 179.552 170.054C179.879 169.779 180.042 169.405 180.042 168.932C180.042 168.368 179.879 167.926 179.552 167.604C179.225 167.277 178.773 167.114 178.196 167.114H174.645V170.466ZM174.645 165.665H177.514C177.964 165.665 178.35 165.603 178.672 165.48C178.993 165.352 179.24 165.172 179.41 164.94C179.585 164.704 179.673 164.424 179.673 164.102C179.673 163.643 179.481 163.283 179.098 163.023C178.714 162.758 178.186 162.625 177.514 162.625H174.645V165.665ZM191.585 165.778V167.341H185.562V165.778H191.585ZM185.96 161.091V172H184.284V161.091H185.96ZM192.864 161.091V172H191.188V161.091H192.864ZM196.614 176.091C196.33 176.091 196.076 176.067 195.854 176.02C195.631 175.977 195.477 175.935 195.392 175.892L195.818 174.415C196.225 174.519 196.585 174.557 196.898 174.528C197.21 174.5 197.487 174.36 197.729 174.109C197.975 173.863 198.2 173.463 198.403 172.909L198.716 172.057L194.682 161.091H196.5L199.511 169.784H199.625L202.636 161.091H204.455L199.824 173.591C199.616 174.154 199.357 174.621 199.05 174.99C198.742 175.364 198.384 175.641 197.977 175.821C197.575 176.001 197.12 176.091 196.614 176.091ZM211.894 165.864V167.426H206.127V165.864H211.894ZM207.548 161.091V172H205.871V161.091H207.548ZM215.246 172.227C214.262 172.227 213.397 171.993 212.654 171.524C211.915 171.055 211.338 170.4 210.921 169.557C210.509 168.714 210.303 167.729 210.303 166.602C210.303 165.466 210.509 164.474 210.921 163.626C211.338 162.779 211.915 162.121 212.654 161.652C213.397 161.183 214.262 160.949 215.246 160.949C216.231 160.949 217.093 161.183 217.832 161.652C218.575 162.121 219.153 162.779 219.565 163.626C219.981 164.474 220.19 165.466 220.19 166.602C220.19 167.729 219.981 168.714 219.565 169.557C219.153 170.4 218.575 171.055 217.832 171.524C217.093 171.993 216.231 172.227 215.246 172.227ZM215.246 170.722C215.995 170.722 216.61 170.53 217.093 170.146C217.576 169.763 217.933 169.259 218.165 168.634C218.397 168.009 218.513 167.331 218.513 166.602C218.513 165.873 218.397 165.194 218.165 164.564C217.933 163.934 217.576 163.425 217.093 163.037C216.61 162.649 215.995 162.455 215.246 162.455C214.498 162.455 213.883 162.649 213.4 163.037C212.917 163.425 212.559 163.934 212.327 164.564C212.095 165.194 211.979 165.873 211.979 166.602C211.979 167.331 212.095 168.009 212.327 168.634C212.559 169.259 212.917 169.763 213.4 170.146C213.883 170.53 214.498 170.722 215.246 170.722ZM227.917 162.653V161.091H236.781V162.653H233.201V172H231.525V162.653H227.917ZM243.091 172.227C242.106 172.227 241.242 171.993 240.499 171.524C239.76 171.055 239.182 170.4 238.766 169.557C238.354 168.714 238.148 167.729 238.148 166.602C238.148 165.466 238.354 164.474 238.766 163.626C239.182 162.779 239.76 162.121 240.499 161.652C241.242 161.183 242.106 160.949 243.091 160.949C244.076 160.949 244.938 161.183 245.676 161.652C246.42 162.121 246.997 162.779 247.409 163.626C247.826 164.474 248.034 165.466 248.034 166.602C248.034 167.729 247.826 168.714 247.409 169.557C246.997 170.4 246.42 171.055 245.676 171.524C244.938 171.993 244.076 172.227 243.091 172.227ZM243.091 170.722C243.839 170.722 244.455 170.53 244.938 170.146C245.42 169.763 245.778 169.259 246.01 168.634C246.242 168.009 246.358 167.331 246.358 166.602C246.358 165.873 246.242 165.194 246.01 164.564C245.778 163.934 245.42 163.425 244.938 163.037C244.455 162.649 243.839 162.455 243.091 162.455C242.343 162.455 241.727 162.649 241.244 163.037C240.761 163.425 240.404 163.934 240.172 164.564C239.94 165.194 239.824 165.873 239.824 166.602C239.824 167.331 239.94 168.009 240.172 168.634C240.404 169.259 240.761 169.763 241.244 170.146C241.727 170.53 242.343 170.722 243.091 170.722ZM257.326 161.091V162.653H252.269V172H250.593V161.091H257.326ZM257.69 175.125V170.438H258.599C258.821 170.205 259.013 169.955 259.174 169.685C259.335 169.415 259.475 169.095 259.593 168.726C259.716 168.352 259.82 167.897 259.906 167.362C259.991 166.822 260.067 166.171 260.133 165.409L260.502 161.091H267.434V170.438H269.11V175.125H267.434V172H259.366V175.125H257.69ZM260.502 170.438H265.758V162.653H262.065L261.781 165.409C261.662 166.55 261.515 167.547 261.34 168.399C261.165 169.251 260.886 169.931 260.502 170.438ZM274.545 172.256C273.854 172.256 273.226 172.125 272.663 171.865C272.1 171.6 271.652 171.219 271.321 170.722C270.989 170.22 270.824 169.614 270.824 168.903C270.824 168.278 270.947 167.772 271.193 167.384C271.439 166.991 271.768 166.683 272.18 166.46C272.592 166.238 273.047 166.072 273.544 165.963C274.046 165.849 274.55 165.759 275.056 165.693C275.719 165.608 276.257 165.544 276.669 165.501C277.085 165.454 277.388 165.376 277.578 165.267C277.772 165.158 277.869 164.969 277.869 164.699V164.642C277.869 163.941 277.677 163.397 277.294 163.009C276.915 162.62 276.34 162.426 275.568 162.426C274.768 162.426 274.14 162.601 273.686 162.952C273.231 163.302 272.912 163.676 272.727 164.074L271.136 163.506C271.42 162.843 271.799 162.327 272.272 161.957C272.751 161.583 273.271 161.323 273.835 161.176C274.403 161.025 274.962 160.949 275.511 160.949C275.861 160.949 276.264 160.991 276.718 161.077C277.178 161.157 277.62 161.325 278.047 161.581C278.477 161.837 278.835 162.223 279.119 162.739C279.403 163.255 279.545 163.946 279.545 164.812V172H277.869V170.523H277.784C277.67 170.759 277.481 171.013 277.216 171.283C276.95 171.553 276.598 171.782 276.157 171.972C275.717 172.161 275.18 172.256 274.545 172.256ZM274.801 170.75C275.464 170.75 276.022 170.62 276.477 170.359C276.936 170.099 277.282 169.763 277.514 169.351C277.751 168.939 277.869 168.506 277.869 168.051V166.517C277.798 166.602 277.642 166.68 277.4 166.751C277.163 166.818 276.889 166.877 276.576 166.929C276.269 166.976 275.968 167.019 275.674 167.057C275.386 167.09 275.151 167.118 274.971 167.142C274.536 167.199 274.128 167.291 273.75 167.419C273.376 167.542 273.073 167.729 272.841 167.98C272.613 168.226 272.5 168.562 272.5 168.989C272.5 169.571 272.715 170.011 273.146 170.31C273.582 170.603 274.133 170.75 274.801 170.75Z" fill="black"/>
</svg>
