<svg width="582" height="186" viewBox="0 0 582 186" fill="none" xmlns="http://www.w3.org/2000/svg">
<path opacity="0.9" d="M426 21.5C426 9.62588 435.626 0 447.5 0H541.333C548.835 0 552.586 0 555.628 0.965207C562.01 2.99048 567.01 7.99042 569.035 14.3724C570 17.4139 570 21.1648 570 28.6667C570 32.4176 570 34.2931 569.517 35.8138C568.505 39.0048 566.005 41.5048 562.814 42.5174C561.293 43 559.418 43 555.667 43H447.5C435.626 43 426 33.3741 426 21.5Z" fill="#D4C5FF"/>
<path d="M444.464 29.0737V13.9636H453.583V15.5868H446.294V20.3087H450.131C451.213 20.3087 452.125 20.4857 452.868 20.8399C453.615 21.194 454.181 21.6933 454.565 22.3376C454.953 22.982 455.148 23.7419 455.148 24.6174C455.148 25.4929 454.953 26.2652 454.565 26.9341C454.181 27.603 453.615 28.1269 452.868 28.5056C452.125 28.8844 451.213 29.0737 450.131 29.0737H444.464ZM446.294 27.4801H450.131C450.819 27.4801 451.402 27.3424 451.879 27.0669C452.361 26.7866 452.725 26.4275 452.971 25.9897C453.222 25.547 453.347 25.0798 453.347 24.5879C453.347 23.8649 453.069 23.2427 452.514 22.7213C451.958 22.195 451.164 21.9318 450.131 21.9318H446.294V27.4801ZM456.92 29.0737V27.4506H457.333C457.673 27.4506 457.956 27.3842 458.182 27.2514C458.408 27.1136 458.59 26.8751 458.728 26.5357C458.87 26.1914 458.979 25.7143 459.052 25.1044C459.131 24.4895 459.188 23.7075 459.222 22.7582L459.429 17.7411H466.984V29.0737H465.243V19.3643H461.081L460.904 23.4074C460.865 24.3371 460.781 25.156 460.653 25.8643C460.53 26.5677 460.341 27.1579 460.085 27.635C459.834 28.1121 459.5 28.4712 459.082 28.7122C458.664 28.9532 458.14 29.0737 457.51 29.0737H456.92ZM471.92 26.5062L477.379 17.7411H479.386V29.0737H477.645V20.3087L472.215 29.0737H470.178V17.7411H471.92V26.5062ZM490.16 22.6106V24.2338H483.903V22.6106H490.16ZM484.317 17.7411V29.0737H482.575V17.7411H484.317ZM491.488 17.7411V29.0737H489.747V17.7411H491.488Z" fill="black"/>
<path d="M507.029 32.3808C506.297 32.3808 505.673 32.1814 505.157 31.7827C504.642 31.3807 504.248 30.7987 503.975 30.0369C503.703 29.2718 503.567 28.3478 503.567 27.265C503.567 26.1887 503.703 25.2696 503.975 24.5078C504.251 23.7427 504.647 23.1591 505.162 22.7571C505.681 22.3519 506.303 22.1492 507.029 22.1492C507.756 22.1492 508.376 22.3519 508.892 22.7571C509.411 23.1591 509.806 23.7427 510.078 24.5078C510.354 25.2696 510.492 26.1887 510.492 27.265C510.492 28.3478 510.356 29.2718 510.083 30.0369C509.811 30.7987 509.417 31.3807 508.902 31.7827C508.386 32.1814 507.762 32.3808 507.029 32.3808ZM507.029 31.311C507.756 31.311 508.32 30.9608 508.722 30.2606C509.124 29.5603 509.325 28.5618 509.325 27.265C509.325 26.4027 509.232 25.6684 509.047 25.0621C508.866 24.4559 508.603 23.9939 508.26 23.6762C507.919 23.3585 507.509 23.1996 507.029 23.1996C506.31 23.1996 505.747 23.5546 505.342 24.2646C504.937 24.9714 504.734 25.9715 504.734 27.265C504.734 28.1274 504.825 28.8601 505.006 29.4631C505.188 30.066 505.449 30.5248 505.789 30.8393C506.133 31.1537 506.546 31.311 507.029 31.311ZM515.256 32.3808C514.588 32.3808 513.998 32.2625 513.486 32.0258C512.977 31.7859 512.58 31.4568 512.294 31.0386C512.009 30.6172 511.868 30.1374 511.871 29.5992C511.868 29.1778 511.951 28.7887 512.119 28.4321C512.288 28.0723 512.518 27.7724 512.81 27.5325C513.105 27.2893 513.434 27.1353 513.797 27.0705V27.0121C513.32 26.889 512.941 26.6215 512.659 26.2098C512.377 25.7948 512.238 25.3231 512.241 24.7947C512.238 24.2889 512.366 23.8367 512.625 23.4379C512.884 23.0392 513.241 22.7247 513.695 22.4945C514.152 22.2643 514.672 22.1492 515.256 22.1492C515.833 22.1492 516.348 22.2643 516.802 22.4945C517.256 22.7247 517.613 23.0392 517.872 23.4379C518.135 23.8367 518.268 24.2889 518.271 24.7947C518.268 25.3231 518.123 25.7948 517.838 26.2098C517.556 26.6215 517.182 26.889 516.715 27.0121V27.0705C517.075 27.1353 517.399 27.2893 517.687 27.5325C517.976 27.7724 518.206 28.0723 518.378 28.4321C518.55 28.7887 518.637 29.1778 518.64 29.5992C518.637 30.1374 518.491 30.6172 518.203 31.0386C517.917 31.4568 517.52 31.7859 517.011 32.0258C516.506 32.2625 515.92 32.3808 515.256 32.3808ZM515.256 31.311C515.706 31.311 516.095 31.238 516.423 31.0921C516.75 30.9462 517.003 30.7404 517.182 30.4745C517.36 30.2087 517.451 29.8975 517.454 29.5409C517.451 29.1648 517.353 28.8325 517.162 28.544C516.971 28.2554 516.71 28.0285 516.379 27.8632C516.052 27.6978 515.677 27.6151 515.256 27.6151C514.831 27.6151 514.452 27.6978 514.118 27.8632C513.787 28.0285 513.526 28.2554 513.335 28.544C513.147 28.8325 513.055 29.1648 513.058 29.5409C513.055 29.8975 513.14 30.2087 513.316 30.4745C513.494 30.7404 513.748 30.9462 514.079 31.0921C514.41 31.238 514.802 31.311 515.256 31.311ZM515.256 26.5842C515.612 26.5842 515.929 26.5129 516.204 26.3702C516.483 26.2276 516.702 26.0282 516.861 25.7721C517.019 25.516 517.1 25.2161 517.104 24.8725C517.1 24.5353 517.021 24.2419 516.865 23.9923C516.71 23.7394 516.494 23.5449 516.219 23.4087C515.943 23.2693 515.622 23.1996 515.256 23.1996C514.883 23.1996 514.557 23.2693 514.278 23.4087C514 23.5449 513.784 23.7394 513.632 23.9923C513.479 24.2419 513.405 24.5353 513.408 24.8725C513.405 25.2161 513.481 25.516 513.636 25.7721C513.795 26.0282 514.014 26.2276 514.293 26.3702C514.572 26.5129 514.893 26.5842 515.256 26.5842ZM521.086 30.9705C520.846 30.9705 520.64 30.8846 520.469 30.7128C520.297 30.541 520.211 30.3351 520.211 30.0952C520.211 29.8553 520.297 29.6495 520.469 29.4776C520.64 29.3058 520.846 29.2199 521.086 29.2199C521.326 29.2199 521.532 29.3058 521.704 29.4776C521.876 29.6495 521.961 29.8553 521.961 30.0952C521.961 30.2541 521.921 30.4 521.84 30.5329C521.762 30.6658 521.657 30.7728 521.524 30.8538C521.394 30.9316 521.248 30.9705 521.086 30.9705ZM521.086 25.9326C520.846 25.9326 520.64 25.8467 520.469 25.6749C520.297 25.503 520.211 25.2972 520.211 25.0573C520.211 24.8174 520.297 24.6115 520.469 24.4397C520.64 24.2679 520.846 24.1819 521.086 24.1819C521.326 24.1819 521.532 24.2679 521.704 24.4397C521.876 24.6115 521.961 24.8174 521.961 25.0573C521.961 25.2161 521.921 25.362 521.84 25.4949C521.762 25.6278 521.657 25.7348 521.524 25.8159C521.394 25.8937 521.248 25.9326 521.086 25.9326ZM523.494 30.2022V29.2102L527.871 22.2854H528.59V23.8221H528.104L524.797 29.0546V29.1324H530.691V30.2022H523.494ZM528.182 32.2446V29.9007V29.4387V22.2854H529.33V32.2446H528.182ZM535.488 32.3808C534.755 32.3808 534.131 32.1814 533.616 31.7827C533.1 31.3807 532.707 30.7987 532.434 30.0369C532.162 29.2718 532.026 28.3478 532.026 27.265C532.026 26.1887 532.162 25.2696 532.434 24.5078C532.71 23.7427 533.105 23.1591 533.621 22.7571C534.139 22.3519 534.762 22.1492 535.488 22.1492C536.214 22.1492 536.835 22.3519 537.351 22.7571C537.869 23.1591 538.265 23.7427 538.537 24.5078C538.813 25.2696 538.95 26.1887 538.95 27.265C538.95 28.3478 538.814 29.2718 538.542 30.0369C538.27 30.7987 537.876 31.3807 537.36 31.7827C536.845 32.1814 536.221 32.3808 535.488 32.3808ZM535.488 31.311C536.214 31.311 536.778 30.9608 537.18 30.2606C537.582 29.5603 537.783 28.5618 537.783 27.265C537.783 26.4027 537.691 25.6684 537.506 25.0621C537.325 24.4559 537.062 23.9939 536.718 23.6762C536.378 23.3585 535.968 23.1996 535.488 23.1996C534.768 23.1996 534.206 23.5546 533.801 24.2646C533.395 24.9714 533.193 25.9715 533.193 27.265C533.193 28.1274 533.284 28.8601 533.465 29.4631C533.647 30.066 533.908 30.5248 534.248 30.8393C534.592 31.1537 535.005 31.311 535.488 31.311Z" fill="#421DFF"/>
<path fill-rule="evenodd" clip-rule="evenodd" d="M556.492 23.1606C556.719 23.3802 556.725 23.7425 556.506 23.9699L547.598 33.1961C547.487 33.3106 547.334 33.3739 547.175 33.3708C547.016 33.3677 546.865 33.2985 546.759 33.1798L542.782 28.7257C542.572 28.4899 542.592 28.1281 542.828 27.9176C543.064 27.707 543.425 27.7275 543.636 27.9633L547.202 31.9576L555.682 23.1748C555.902 22.9474 556.264 22.941 556.492 23.1606Z" fill="#421DFF"/>
<path fill-rule="evenodd" clip-rule="evenodd" d="M559.855 23.1606C560.082 23.3802 560.089 23.7425 559.869 23.9699L550.961 33.1961C550.85 33.3106 550.697 33.3739 550.538 33.3708C550.379 33.3677 550.228 33.2985 550.122 33.1798L546.145 28.7257C545.935 28.4899 545.955 28.1281 546.191 27.9176C546.427 27.707 546.789 27.7275 546.999 27.9633L550.566 31.9576L559.046 23.1748C559.265 22.9474 559.628 22.941 559.855 23.1606Z" fill="#421DFF"/>
<path opacity="0.8" d="M557.53 48C560.803 48 562.44 47.9997 563.78 48.3682C567.283 49.3312 570.02 52.0683 570.983 55.5713C571.27 56.6129 571.331 57.8336 571.346 59.8613L571.421 59.6992C571.423 59.8135 571.862 79.8738 572.938 83.2178C575.199 90.2492 581.267 91.8146 581.316 91.8271C581.242 91.8278 570.108 91.9156 565.778 90.2773C563.982 89.5978 562.321 88.5554 561.122 87.6963C559.359 88.7973 557.427 89.6555 555.367 90.2217C552.537 90.9996 549.082 91 542.173 91H286.852C286.021 91 285.605 91.0003 285.254 90.9883C274.426 90.6187 265.733 81.9258 265.363 71.0977C265.351 70.7464 265.352 70.3308 265.352 69.5C265.352 68.6692 265.351 68.2536 265.363 67.9023C265.733 57.0742 274.426 48.3813 285.254 48.0117C285.605 47.9997 286.021 48 286.852 48H557.53Z" fill="#D4C5FF"/>
<path d="M284.387 61.8698H286.217V66.9164C286.217 67.664 286.347 68.2518 286.608 68.6797C286.869 69.1027 287.238 69.4028 287.715 69.5798C288.192 69.752 288.755 69.8381 289.404 69.8381C289.812 69.8381 290.208 69.8233 290.592 69.7938C290.976 69.7594 291.35 69.7127 291.714 69.6536C292.082 69.5946 292.441 69.5233 292.791 69.4397C293.145 69.356 293.492 69.2626 293.831 69.1593V70.812C293.501 70.9153 293.174 71.0087 292.85 71.0923C292.53 71.176 292.196 71.2473 291.846 71.3063C291.502 71.3653 291.131 71.4121 290.732 71.4465C290.334 71.476 289.891 71.4907 289.404 71.4907C288.361 71.4907 287.464 71.3407 286.711 71.0407C285.964 70.7407 285.388 70.2562 284.985 69.5872C284.586 68.9183 284.387 68.028 284.387 66.9164V61.8698ZM293.595 61.8698H295.425V76.98H293.595V61.8698ZM303.607 77.2161C302.515 77.2161 301.573 76.9751 300.781 76.493C299.994 76.0061 299.387 75.3273 298.959 74.4567C298.536 73.5812 298.324 72.563 298.324 71.4022C298.324 70.2414 298.536 69.2183 298.959 68.333C299.387 67.4427 299.982 66.7492 300.744 66.2524C301.511 65.7507 302.407 65.4998 303.43 65.4998C304.02 65.4998 304.603 65.5982 305.178 65.7949C305.754 65.9917 306.278 66.3114 306.75 66.7541C307.222 67.1918 307.598 67.7722 307.879 68.4953C308.159 69.2183 308.299 70.1086 308.299 71.1661V71.9039H299.564V70.3988H306.529C306.529 69.7594 306.401 69.1888 306.145 68.6871C305.894 68.1854 305.535 67.7895 305.068 67.4993C304.605 67.2091 304.059 67.064 303.43 67.064C302.736 67.064 302.136 67.2361 301.63 67.5804C301.128 67.9198 300.742 68.3625 300.471 68.9085C300.201 69.4544 300.065 70.0397 300.065 70.6644V71.6678C300.065 72.5237 300.213 73.2492 300.508 73.8443C300.808 74.4346 301.224 74.8846 301.755 75.1945C302.286 75.4995 302.903 75.6519 303.607 75.6519C304.064 75.6519 304.477 75.588 304.846 75.4601C305.22 75.3273 305.542 75.1306 305.813 74.8699C306.083 74.6043 306.292 74.2747 306.44 73.8812L308.122 74.3534C307.945 74.924 307.648 75.4257 307.229 75.8585C306.811 76.2864 306.295 76.6209 305.68 76.8619C305.065 77.098 304.374 77.2161 303.607 77.2161ZM301.216 63.7586C300.906 63.7586 300.631 63.6406 300.39 63.4045C300.154 63.1634 300.036 62.888 300.036 62.5781C300.036 62.2387 300.154 61.9584 300.39 61.737C300.631 61.5108 300.906 61.3976 301.216 61.3976C301.556 61.3976 301.836 61.5108 302.057 61.737C302.284 61.9584 302.397 62.2387 302.397 62.5781C302.397 62.888 302.284 63.1634 302.057 63.4045C301.836 63.6406 301.556 63.7586 301.216 63.7586ZM305.466 63.7586C305.156 63.7586 304.881 63.6406 304.64 63.4045C304.404 63.1634 304.286 62.888 304.286 62.5781C304.286 62.2387 304.404 61.9584 304.64 61.737C304.881 61.5108 305.156 61.3976 305.466 61.3976C305.805 61.3976 306.086 61.5108 306.307 61.737C306.533 61.9584 306.647 62.2387 306.647 62.5781C306.647 62.888 306.533 63.1634 306.307 63.4045C306.086 63.6406 305.805 63.7586 305.466 63.7586ZM309.893 67.2705V65.6474H319.101V67.2705H315.382V76.98H313.641V67.2705H309.893ZM325.656 77.2161C324.633 77.2161 323.735 76.9726 322.963 76.4857C322.196 75.9987 321.596 75.3175 321.163 74.4419C320.735 73.5664 320.521 72.5433 320.521 71.3727C320.521 70.1922 320.735 69.1618 321.163 68.2813C321.596 67.4009 322.196 66.7172 322.963 66.2302C323.735 65.7433 324.633 65.4998 325.656 65.4998C326.679 65.4998 327.574 65.7433 328.342 66.2302C329.114 66.7172 329.714 67.4009 330.142 68.2813C330.575 69.1618 330.791 70.1922 330.791 71.3727C330.791 72.5433 330.575 73.5664 330.142 74.4419C329.714 75.3175 329.114 75.9987 328.342 76.4857C327.574 76.9726 326.679 77.2161 325.656 77.2161ZM325.656 75.6519C326.433 75.6519 327.073 75.4527 327.574 75.0543C328.076 74.6559 328.447 74.1321 328.688 73.4828C328.929 72.8335 329.05 72.1302 329.05 71.3727C329.05 70.6152 328.929 69.9094 328.688 69.2552C328.447 68.601 328.076 68.0723 327.574 67.6689C327.073 67.2656 326.433 67.064 325.656 67.064C324.879 67.064 324.239 67.2656 323.738 67.6689C323.236 68.0723 322.865 68.601 322.624 69.2552C322.383 69.9094 322.262 70.6152 322.262 71.3727C322.262 72.1302 322.383 72.8335 322.624 73.4828C322.865 74.1321 323.236 74.6559 323.738 75.0543C324.239 75.4527 324.879 75.6519 325.656 75.6519ZM343.896 77.2161C342.834 77.2161 341.919 76.9652 341.152 76.4635C340.384 75.9618 339.794 75.2707 339.381 74.3903C338.968 73.5099 338.761 72.504 338.761 71.3727C338.761 70.2217 338.973 69.206 339.396 68.3256C339.824 67.4402 340.419 66.7492 341.181 66.2524C341.948 65.7507 342.844 65.4998 343.867 65.4998C344.664 65.4998 345.382 65.6474 346.021 65.9425C346.661 66.2376 347.184 66.6508 347.593 67.182C348.001 67.7132 348.254 68.333 348.353 69.0413H346.611C346.479 68.5248 346.183 68.0674 345.726 67.6689C345.273 67.2656 344.664 67.064 343.896 67.064C343.217 67.064 342.622 67.241 342.111 67.5952C341.604 67.9444 341.208 68.4387 340.923 69.0781C340.643 69.7127 340.502 70.4578 340.502 71.3137C340.502 72.1892 340.64 72.9516 340.916 73.6009C341.196 74.2501 341.589 74.7543 342.096 75.1133C342.608 75.4724 343.208 75.6519 343.896 75.6519C344.349 75.6519 344.759 75.5732 345.128 75.4158C345.497 75.2584 345.81 75.0322 346.065 74.7371C346.321 74.4419 346.503 74.0878 346.611 73.6746H348.353C348.254 74.3436 348.011 74.9461 347.622 75.4822C347.238 76.0135 346.729 76.4365 346.095 76.7513C345.465 77.0611 344.732 77.2161 343.896 77.2161ZM350.005 67.2705V65.6474H359.213V67.2705H355.494V76.98H353.753V67.2705H350.005ZM361.753 81.2297V65.6474H363.435V67.4476H363.642C363.769 67.2509 363.947 67 364.173 66.6951C364.404 66.3852 364.734 66.1097 365.161 65.8687C365.594 65.6228 366.18 65.4998 366.917 65.4998C367.872 65.4998 368.713 65.7384 369.441 66.2155C370.169 66.6926 370.737 67.3689 371.145 68.2444C371.553 69.12 371.757 70.1529 371.757 71.3432C371.757 72.5433 371.553 73.5836 371.145 74.4641C370.737 75.3396 370.171 76.0184 369.448 76.5004C368.725 76.9775 367.891 77.2161 366.947 77.2161C366.219 77.2161 365.636 77.0956 365.198 76.8546C364.761 76.6086 364.424 76.3307 364.188 76.0208C363.951 75.706 363.769 75.4454 363.642 75.2388H363.494V81.2297H361.753ZM363.465 71.3137C363.465 72.1695 363.59 72.9245 363.841 73.5787C364.092 74.228 364.458 74.7371 364.94 75.106C365.422 75.47 366.012 75.6519 366.711 75.6519C367.439 75.6519 368.046 75.4601 368.533 75.0765C369.025 74.6879 369.394 74.1665 369.64 73.5123C369.891 72.8532 370.016 72.1203 370.016 71.3137C370.016 70.5169 369.893 69.7987 369.647 69.1593C369.406 68.515 369.04 68.0059 368.548 67.6321C368.061 67.2533 367.449 67.064 366.711 67.064C366.003 67.064 365.407 67.2435 364.925 67.6025C364.443 67.9567 364.079 68.4535 363.833 69.0929C363.588 69.7274 363.465 70.4677 363.465 71.3137ZM377.748 77.2456C377.03 77.2456 376.378 77.1103 375.793 76.8398C375.208 76.5644 374.743 76.1684 374.399 75.6519C374.054 75.1306 373.882 74.501 373.882 73.7632C373.882 73.1139 374.01 72.5876 374.266 72.1843C374.522 71.776 374.864 71.4563 375.291 71.2251C375.719 70.994 376.192 70.8218 376.708 70.7087C377.229 70.5906 377.753 70.4972 378.28 70.4283C378.968 70.3398 379.526 70.2734 379.954 70.2291C380.387 70.1799 380.702 70.0988 380.899 69.9856C381.1 69.8725 381.201 69.6758 381.201 69.3954V69.3364C381.201 68.6084 381.002 68.0428 380.604 67.6394C380.21 67.2361 379.613 67.0344 378.811 67.0344C377.98 67.0344 377.328 67.2164 376.856 67.5804C376.383 67.9444 376.051 68.333 375.86 68.7461L374.207 68.1559C374.502 67.4673 374.896 66.9311 375.387 66.5475C375.884 66.1589 376.425 65.8884 377.011 65.7359C377.601 65.5785 378.181 65.4998 378.752 65.4998C379.116 65.4998 379.534 65.5441 380.006 65.6326C380.483 65.7162 380.943 65.8908 381.386 66.1565C381.833 66.4221 382.205 66.8229 382.5 67.3591C382.795 67.8952 382.942 68.6133 382.942 69.5134V76.98H381.201V75.4454H381.113C380.995 75.6913 380.798 75.9544 380.522 76.2348C380.247 76.5152 379.881 76.7537 379.423 76.9505C378.966 77.1472 378.407 77.2456 377.748 77.2456ZM378.014 75.6815C378.703 75.6815 379.283 75.5462 379.755 75.2757C380.232 75.0051 380.591 74.6559 380.832 74.228C381.078 73.8001 381.201 73.35 381.201 72.8778V71.2842C381.127 71.3727 380.965 71.4539 380.714 71.5276C380.468 71.5965 380.183 71.658 379.858 71.7121C379.539 71.7613 379.226 71.8055 378.921 71.8449C378.621 71.8793 378.378 71.9088 378.191 71.9334C377.739 71.9925 377.315 72.0884 376.922 72.2212C376.533 72.3491 376.219 72.5433 375.978 72.804C375.742 73.0598 375.623 73.409 375.623 73.8517C375.623 74.4567 375.847 74.9141 376.295 75.224C376.747 75.529 377.32 75.6815 378.014 75.6815ZM393.705 70.5169V72.14H387.449V70.5169H393.705ZM387.862 65.6474V76.98H386.121V65.6474H387.862ZM395.033 65.6474V76.98H393.292V65.6474H395.033ZM399.954 74.4124L405.414 65.6474H407.421V76.98H405.68V68.2149L400.249 76.98H398.213V65.6474H399.954V74.4124ZM419.523 65.6474V75.3568H421.116V80.6395H419.375V76.98H410.61V65.6474H412.351V75.3568H417.781V65.6474H419.523ZM427.133 77.2456C426.415 77.2456 425.763 77.1103 425.178 76.8398C424.592 76.5644 424.128 76.1684 423.783 75.6519C423.439 75.1306 423.267 74.501 423.267 73.7632C423.267 73.1139 423.395 72.5876 423.651 72.1843C423.906 71.776 424.248 71.4563 424.676 71.2251C425.104 70.994 425.576 70.8218 426.093 70.7087C426.614 70.5906 427.138 70.4972 427.664 70.4283C428.353 70.3398 428.911 70.2734 429.339 70.2291C429.772 70.1799 430.087 70.0988 430.283 69.9856C430.485 69.8725 430.586 69.6758 430.586 69.3954V69.3364C430.586 68.6084 430.387 68.0428 429.988 67.6394C429.595 67.2361 428.997 67.0344 428.195 67.0344C427.364 67.0344 426.712 67.2164 426.24 67.5804C425.768 67.9444 425.436 68.333 425.244 68.7461L423.592 68.1559C423.887 67.4673 424.28 66.9311 424.772 66.5475C425.269 66.1589 425.81 65.8884 426.395 65.7359C426.985 65.5785 427.566 65.4998 428.136 65.4998C428.5 65.4998 428.918 65.5441 429.391 65.6326C429.868 65.7162 430.328 65.8908 430.77 66.1565C431.218 66.4221 431.589 66.8229 431.884 67.3591C432.18 67.8952 432.327 68.6133 432.327 69.5134V76.98H430.586V75.4454H430.497C430.379 75.6913 430.183 75.9544 429.907 76.2348C429.632 76.5152 429.265 76.7537 428.808 76.9505C428.35 77.1472 427.792 77.2456 427.133 77.2456ZM427.399 75.6815C428.087 75.6815 428.668 75.5462 429.14 75.2757C429.617 75.0051 429.976 74.6559 430.217 74.228C430.463 73.8001 430.586 73.35 430.586 72.8778V71.2842C430.512 71.3727 430.35 71.4539 430.099 71.5276C429.853 71.5965 429.568 71.658 429.243 71.7121C428.923 71.7613 428.611 71.8055 428.306 71.8449C428.006 71.8793 427.763 71.9088 427.576 71.9334C427.123 71.9925 426.7 72.0884 426.307 72.2212C425.918 72.3491 425.603 72.5433 425.362 72.804C425.126 73.0598 425.008 73.409 425.008 73.8517C425.008 74.4567 425.232 74.9141 425.68 75.224C426.132 75.529 426.705 75.6815 427.399 75.6815ZM440.699 67.2705V65.6474H449.907V67.2705H446.188V76.98H444.447V67.2705H440.699ZM453.568 81.2297C453.273 81.2297 453.01 81.2051 452.779 81.1559C452.548 81.1117 452.388 81.0674 452.299 81.0231L452.742 79.4885C453.165 79.5967 453.539 79.6361 453.863 79.6065C454.188 79.577 454.476 79.4319 454.727 79.1712C454.982 78.9155 455.216 78.4998 455.428 77.9244L455.752 77.039L451.562 65.6474H453.45L456.579 74.678H456.697L459.825 65.6474H461.714L456.903 78.6327C456.687 79.218 456.419 79.7025 456.099 80.0861C455.779 80.4747 455.408 80.7624 454.985 80.9493C454.567 81.1363 454.095 81.2297 453.568 81.2297ZM464.012 76.98V65.6474H472.925V76.98H471.183V67.2705H465.753V76.98H464.012ZM477.846 74.4124L483.305 65.6474H485.312V76.98H483.571V68.2149L478.141 76.98H476.104V65.6474H477.846V74.4124ZM486.959 67.2705V65.6474H496.167V67.2705H492.449V76.98H490.707V67.2705H486.959Z" fill="black"/>
<path d="M511.104 80.4706C510.371 80.4706 509.747 80.2713 509.231 79.8725C508.716 79.4705 508.322 78.8886 508.05 78.1267C507.777 77.3616 507.641 76.4377 507.641 75.3549C507.641 74.2785 507.777 73.3595 508.05 72.5976C508.325 71.8325 508.721 71.249 509.236 70.847C509.755 70.4417 510.377 70.2391 511.104 70.2391C511.83 70.2391 512.451 70.4417 512.966 70.847C513.485 71.249 513.88 71.8325 514.153 72.5976C514.428 73.3595 514.566 74.2785 514.566 75.3549C514.566 76.4377 514.43 77.3616 514.157 78.1267C513.885 78.8886 513.491 79.4705 512.976 79.8725C512.46 80.2713 511.836 80.4706 511.104 80.4706ZM511.104 79.4008C511.83 79.4008 512.394 79.0507 512.796 78.3504C513.198 77.6502 513.399 76.6516 513.399 75.3549C513.399 74.4925 513.306 73.7582 513.122 73.152C512.94 72.5457 512.678 72.0838 512.334 71.766C511.993 71.4483 511.583 71.2895 511.104 71.2895C510.384 71.2895 509.821 71.6445 509.416 72.3545C509.011 73.0612 508.808 74.0613 508.808 75.3549C508.808 76.2172 508.899 76.9499 509.081 77.5529C509.262 78.1559 509.523 78.6146 509.864 78.9291C510.207 79.2436 510.621 79.4008 511.104 79.4008ZM519.33 80.4706C518.662 80.4706 518.072 80.3523 517.56 80.1156C517.051 79.8757 516.654 79.5467 516.369 79.1285C516.083 78.707 515.942 78.2272 515.945 77.6891C515.942 77.2676 516.025 76.8786 516.193 76.522C516.362 76.1621 516.592 75.8622 516.884 75.6223C517.179 75.3792 517.508 75.2252 517.871 75.1603V75.102C517.395 74.9788 517.015 74.7113 516.733 74.2996C516.451 73.8846 516.312 73.4129 516.315 72.8845C516.312 72.3788 516.44 71.9265 516.699 71.5278C516.959 71.129 517.315 70.8145 517.769 70.5844C518.226 70.3542 518.746 70.2391 519.33 70.2391C519.907 70.2391 520.423 70.3542 520.876 70.5844C521.33 70.8145 521.687 71.129 521.946 71.5278C522.209 71.9265 522.342 72.3788 522.345 72.8845C522.342 73.4129 522.198 73.8846 521.912 74.2996C521.63 74.7113 521.256 74.9788 520.789 75.102V75.1603C521.149 75.2252 521.473 75.3792 521.761 75.6223C522.05 75.8622 522.28 76.1621 522.452 76.522C522.624 76.8786 522.711 77.2676 522.715 77.6891C522.711 78.2272 522.565 78.707 522.277 79.1285C521.992 79.5467 521.595 79.8757 521.086 80.1156C520.58 80.3523 519.995 80.4706 519.33 80.4706ZM519.33 79.4008C519.781 79.4008 520.17 79.3279 520.497 79.182C520.825 79.0361 521.077 78.8302 521.256 78.5644C521.434 78.2985 521.525 77.9873 521.528 77.6307C521.525 77.2546 521.428 76.9223 521.236 76.6338C521.045 76.3453 520.784 76.1183 520.453 75.953C520.126 75.7877 519.751 75.705 519.33 75.705C518.905 75.705 518.526 75.7877 518.192 75.953C517.861 76.1183 517.6 76.3453 517.409 76.6338C517.221 76.9223 517.129 77.2546 517.132 77.6307C517.129 77.9873 517.215 78.2985 517.39 78.5644C517.568 78.8302 517.823 79.0361 518.153 79.182C518.484 79.3279 518.876 79.4008 519.33 79.4008ZM519.33 74.6741C519.687 74.6741 520.003 74.6027 520.278 74.4601C520.557 74.3174 520.776 74.1181 520.935 73.862C521.094 73.6058 521.175 73.306 521.178 72.9623C521.175 72.6252 521.095 72.3318 520.94 72.0821C520.784 71.8293 520.568 71.6347 520.293 71.4986C520.017 71.3592 519.696 71.2895 519.33 71.2895C518.957 71.2895 518.631 71.3592 518.353 71.4986C518.074 71.6347 517.858 71.8293 517.706 72.0821C517.553 72.3318 517.479 72.6252 517.482 72.9623C517.479 73.306 517.555 73.6058 517.711 73.862C517.87 74.1181 518.088 74.3174 518.367 74.4601C518.646 74.6027 518.967 74.6741 519.33 74.6741ZM525.16 79.0604C524.92 79.0604 524.715 78.9745 524.543 78.8027C524.371 78.6308 524.285 78.425 524.285 78.1851C524.285 77.9452 524.371 77.7393 524.543 77.5675C524.715 77.3957 524.92 77.3097 525.16 77.3097C525.4 77.3097 525.606 77.3957 525.778 77.5675C525.95 77.7393 526.036 77.9452 526.036 78.1851C526.036 78.3439 525.995 78.4898 525.914 78.6227C525.836 78.7557 525.731 78.8626 525.598 78.9437C525.468 79.0215 525.322 79.0604 525.16 79.0604ZM525.16 74.0224C524.92 74.0224 524.715 73.9365 524.543 73.7647C524.371 73.5929 524.285 73.387 524.285 73.1471C524.285 72.9072 524.371 72.7013 524.543 72.5295C524.715 72.3577 524.92 72.2718 525.16 72.2718C525.4 72.2718 525.606 72.3577 525.778 72.5295C525.95 72.7013 526.036 72.9072 526.036 73.1471C526.036 73.306 525.995 73.4518 525.914 73.5848C525.836 73.7177 525.731 73.8247 525.598 73.9057C525.468 73.9835 525.322 74.0224 525.16 74.0224ZM527.568 78.2921V77.3L531.945 70.3753H532.665V71.9119H532.178L528.872 77.1444V77.2222H534.765V78.2921H527.568ZM532.256 80.3345V77.9906V77.5286V70.3753H533.404V80.3345H532.256ZM539.681 70.3753V80.3345H538.475V71.6396H538.417L535.986 73.2541V72.0286L538.475 70.3753H539.681Z" fill="#421DFF"/>
<path fill-rule="evenodd" clip-rule="evenodd" d="M559.8 71.4384C560.028 71.658 560.034 72.0203 559.815 72.2477L550.906 81.474C550.796 81.5885 550.643 81.6518 550.483 81.6487C550.324 81.6456 550.174 81.5763 550.068 81.4576L546.091 77.0035C545.88 76.7677 545.901 76.4059 546.136 76.1954C546.372 75.9849 546.734 76.0053 546.945 76.2411L550.511 80.2354L558.991 71.4526C559.211 71.2252 559.573 71.2189 559.8 71.4384Z" fill="#421DFF"/>
<path fill-rule="evenodd" clip-rule="evenodd" d="M562.855 71.3593C563.082 71.5789 563.089 71.9412 562.869 72.1686L553.961 81.3949C553.85 81.5094 553.697 81.5727 553.538 81.5696C553.379 81.5665 553.228 81.4972 553.122 81.3785L549.145 76.9244C548.935 76.6886 548.955 76.3268 549.191 76.1163C549.427 75.9058 549.789 75.9262 549.999 76.162L553.566 80.1563L562.046 71.3735C562.265 71.1461 562.628 71.1398 562.855 71.3593Z" fill="#421DFF"/>
<path opacity="0.8" d="M183 118C183 116.974 183 116.461 182.981 116.027C182.531 105.721 174.279 97.4689 163.973 97.0189C163.539 97 163.026 97 162 97H41.8311C35.4388 97 32.2426 97 29.6105 97.6593C21.7361 99.6317 15.5878 105.78 13.6154 113.654C12.9561 116.287 12.9561 119.483 12.9561 125.875C12.9561 128.781 12.9561 130.233 13.2557 131.43C14.1523 135.009 16.947 137.804 20.5262 138.7C21.7227 139 23.1755 139 26.0811 139H162C163.026 139 163.539 139 163.973 138.981C174.279 138.531 182.531 130.279 182.981 119.973C183 119.539 183 119.026 183 118Z" fill="#BCA4FF"/>
<path d="M136.02 130.129C135.324 130.129 134.732 129.94 134.242 129.561C133.753 129.18 133.379 128.627 133.12 127.904C132.862 127.178 132.733 126.301 132.733 125.273C132.733 124.251 132.862 123.378 133.12 122.655C133.382 121.929 133.757 121.375 134.247 120.993C134.739 120.609 135.33 120.416 136.02 120.416C136.709 120.416 137.298 120.609 137.788 120.993C138.28 121.375 138.656 121.929 138.914 122.655C139.176 123.378 139.306 124.251 139.306 125.273C139.306 126.301 139.177 127.178 138.919 127.904C138.66 128.627 138.286 129.18 137.797 129.561C137.308 129.94 136.715 130.129 136.02 130.129ZM136.02 129.114C136.709 129.114 137.244 128.781 137.626 128.116C138.008 127.452 138.199 126.504 138.199 125.273C138.199 124.454 138.111 123.757 137.935 123.181C137.763 122.606 137.514 122.167 137.188 121.866C136.864 121.564 136.475 121.413 136.02 121.413C135.336 121.413 134.802 121.75 134.418 122.424C134.033 123.095 133.841 124.045 133.841 125.273C133.841 126.091 133.927 126.787 134.099 127.359C134.271 127.932 134.519 128.367 134.842 128.666C135.169 128.964 135.561 129.114 136.02 129.114ZM143.829 130.129C143.195 130.129 142.635 130.017 142.149 129.792C141.666 129.565 141.289 129.252 141.018 128.855C140.747 128.455 140.613 128 140.616 127.489C140.613 127.089 140.691 126.719 140.852 126.381C141.012 126.039 141.23 125.754 141.507 125.527C141.787 125.296 142.099 125.15 142.444 125.088V125.033C141.992 124.916 141.632 124.662 141.364 124.271C141.096 123.877 140.964 123.429 140.967 122.928C140.964 122.447 141.085 122.018 141.332 121.64C141.578 121.261 141.916 120.962 142.347 120.744C142.781 120.525 143.275 120.416 143.829 120.416C144.377 120.416 144.866 120.525 145.297 120.744C145.728 120.962 146.067 121.261 146.313 121.64C146.562 122.018 146.688 122.447 146.691 122.928C146.688 123.429 146.551 123.877 146.28 124.271C146.013 124.662 145.657 124.916 145.214 125.033V125.088C145.556 125.15 145.863 125.296 146.137 125.527C146.411 125.754 146.63 126.039 146.793 126.381C146.956 126.719 147.039 127.089 147.042 127.489C147.039 128 146.901 128.455 146.627 128.855C146.356 129.252 145.979 129.565 145.496 129.792C145.016 130.017 144.46 130.129 143.829 130.129ZM143.829 129.114C144.257 129.114 144.626 129.044 144.937 128.906C145.248 128.767 145.488 128.572 145.657 128.32C145.827 128.067 145.913 127.772 145.916 127.433C145.913 127.076 145.82 126.761 145.639 126.487C145.457 126.213 145.209 125.998 144.896 125.841C144.585 125.684 144.229 125.605 143.829 125.605C143.426 125.605 143.066 125.684 142.749 125.841C142.435 125.998 142.187 126.213 142.006 126.487C141.827 126.761 141.739 127.076 141.742 127.433C141.739 127.772 141.821 128.067 141.987 128.32C142.156 128.572 142.398 128.767 142.712 128.906C143.026 129.044 143.398 129.114 143.829 129.114ZM143.829 124.626C144.168 124.626 144.468 124.559 144.729 124.423C144.994 124.288 145.202 124.099 145.353 123.855C145.503 123.612 145.58 123.328 145.583 123.001C145.58 122.681 145.505 122.403 145.357 122.166C145.209 121.926 145.005 121.741 144.743 121.612C144.482 121.48 144.177 121.413 143.829 121.413C143.475 121.413 143.166 121.48 142.901 121.612C142.637 121.741 142.432 121.926 142.287 122.166C142.143 122.403 142.072 122.681 142.075 123.001C142.072 123.328 142.144 123.612 142.292 123.855C142.443 124.099 142.65 124.288 142.915 124.423C143.18 124.559 143.484 124.626 143.829 124.626ZM149.364 128.79C149.136 128.79 148.941 128.709 148.778 128.546C148.615 128.383 148.533 128.187 148.533 127.96C148.533 127.732 148.615 127.536 148.778 127.373C148.941 127.21 149.136 127.129 149.364 127.129C149.592 127.129 149.787 127.21 149.95 127.373C150.113 127.536 150.195 127.732 150.195 127.96C150.195 128.11 150.156 128.249 150.08 128.375C150.006 128.501 149.906 128.603 149.779 128.68C149.656 128.754 149.518 128.79 149.364 128.79ZM149.364 124.008C149.136 124.008 148.941 123.926 148.778 123.763C148.615 123.6 148.533 123.405 148.533 123.177C148.533 122.949 148.615 122.754 148.778 122.591C148.941 122.427 149.136 122.346 149.364 122.346C149.592 122.346 149.787 122.427 149.95 122.591C150.113 122.754 150.195 122.949 150.195 123.177C150.195 123.328 150.156 123.466 150.08 123.592C150.006 123.719 149.906 123.82 149.779 123.897C149.656 123.971 149.518 124.008 149.364 124.008ZM151.65 128.061V127.119L155.805 120.545H156.488V122.004H156.026L152.887 126.972V127.045H158.482V128.061H151.65ZM156.1 130V127.775V127.336V120.545H157.19V130H156.1ZM163.092 130.129C162.704 130.123 162.316 130.049 161.928 129.908C161.54 129.766 161.187 129.528 160.866 129.192C160.546 128.854 160.289 128.397 160.095 127.821C159.902 127.242 159.805 126.516 159.805 125.642C159.805 124.805 159.883 124.063 160.04 123.417C160.197 122.768 160.425 122.221 160.723 121.778C161.022 121.332 161.382 120.993 161.804 120.762C162.228 120.532 162.707 120.416 163.239 120.416C163.769 120.416 164.24 120.522 164.652 120.735C165.067 120.944 165.406 121.236 165.668 121.612C165.929 121.987 166.098 122.42 166.175 122.909H165.049C164.944 122.484 164.741 122.132 164.44 121.852C164.138 121.572 163.738 121.432 163.239 121.432C162.507 121.432 161.93 121.75 161.508 122.387C161.09 123.025 160.879 123.919 160.876 125.07H160.95C161.122 124.808 161.327 124.585 161.564 124.4C161.804 124.212 162.068 124.068 162.358 123.966C162.647 123.865 162.953 123.814 163.276 123.814C163.818 123.814 164.313 123.949 164.763 124.22C165.212 124.488 165.572 124.859 165.843 125.333C166.114 125.804 166.249 126.344 166.249 126.953C166.249 127.538 166.118 128.073 165.857 128.56C165.595 129.043 165.227 129.428 164.754 129.714C164.283 129.997 163.729 130.135 163.092 130.129ZM163.092 129.114C163.479 129.114 163.827 129.017 164.135 128.823C164.446 128.629 164.69 128.369 164.869 128.043C165.05 127.716 165.141 127.353 165.141 126.953C165.141 126.562 165.054 126.207 164.878 125.887C164.706 125.564 164.467 125.307 164.163 125.116C163.861 124.925 163.516 124.83 163.129 124.83C162.836 124.83 162.564 124.888 162.311 125.005C162.059 125.119 161.837 125.276 161.647 125.476C161.459 125.676 161.311 125.905 161.203 126.164C161.096 126.419 161.042 126.688 161.042 126.972C161.042 127.347 161.13 127.698 161.305 128.024C161.483 128.35 161.727 128.614 162.034 128.814C162.345 129.014 162.698 129.114 163.092 129.114Z" fill="#421DFF"/>
<path d="M32.7184 125V110.455H34.4798V116.932H42.2354V110.455H43.9968V125H42.2354V118.494H34.4798V125H32.7184ZM48.3754 129.091C48.0913 129.091 47.8379 129.067 47.6154 129.02C47.3929 128.977 47.239 128.935 47.1538 128.892L47.5799 127.415C47.9871 127.519 48.3469 127.557 48.6594 127.528C48.9719 127.5 49.2489 127.36 49.4904 127.109C49.7366 126.863 49.9615 126.463 50.1651 125.909L50.4776 125.057L46.4435 114.091H48.2617L51.2731 122.784H51.3867L54.3981 114.091H56.2163L51.5856 126.591C51.3772 127.154 51.1192 127.621 50.8114 127.99C50.5037 128.364 50.1462 128.641 49.739 128.821C49.3365 129.001 48.882 129.091 48.3754 129.091ZM63.0877 125V123.438H63.4854C63.8121 123.438 64.0844 123.374 64.3022 123.246C64.52 123.113 64.6952 122.884 64.8278 122.557C64.9651 122.225 65.0692 121.766 65.1403 121.179C65.216 120.587 65.2705 119.834 65.3036 118.92L65.5025 114.091H72.7752V125H71.0991V115.653H67.0934L66.9229 119.545C66.8851 120.44 66.8046 121.229 66.6815 121.911C66.5631 122.588 66.3808 123.156 66.1346 123.615C65.8931 124.074 65.5711 124.42 65.1687 124.652C64.7662 124.884 64.262 125 63.6559 125H63.0877ZM79.0607 125.256C78.3694 125.256 77.7421 125.125 77.1786 124.865C76.6152 124.6 76.1677 124.219 75.8363 123.722C75.5049 123.22 75.3391 122.614 75.3391 121.903C75.3391 121.278 75.4622 120.772 75.7085 120.384C75.9547 119.991 76.2837 119.683 76.6957 119.46C77.1076 119.238 77.5621 119.072 78.0593 118.963C78.5612 118.849 79.0655 118.759 79.5721 118.693C80.235 118.608 80.7724 118.544 81.1843 118.501C81.601 118.454 81.904 118.376 82.0934 118.267C82.2875 118.158 82.3846 117.969 82.3846 117.699V117.642C82.3846 116.941 82.1928 116.397 81.8093 116.009C81.4305 115.62 80.8552 115.426 80.0835 115.426C79.2833 115.426 78.6559 115.601 78.2013 115.952C77.7468 116.302 77.4272 116.676 77.2425 117.074L75.6516 116.506C75.9357 115.843 76.3145 115.327 76.788 114.957C77.2662 114.583 77.7871 114.323 78.3505 114.176C78.9187 114.025 79.4774 113.949 80.0266 113.949C80.377 113.949 80.7795 113.991 81.234 114.077C81.6933 114.157 82.136 114.325 82.5621 114.581C82.993 114.837 83.3505 115.223 83.6346 115.739C83.9187 116.255 84.0607 116.946 84.0607 117.812V125H82.3846V123.523H82.2994C82.1857 123.759 81.9963 124.013 81.7312 124.283C81.466 124.553 81.1133 124.782 80.6729 124.972C80.2326 125.161 79.6952 125.256 79.0607 125.256ZM79.3164 123.75C79.9793 123.75 80.538 123.62 80.9925 123.359C81.4518 123.099 81.7975 122.763 82.0295 122.351C82.2662 121.939 82.3846 121.506 82.3846 121.051V119.517C82.3136 119.602 82.1573 119.68 81.9158 119.751C81.6791 119.818 81.4045 119.877 81.092 119.929C80.7842 119.976 80.4835 120.019 80.19 120.057C79.9012 120.09 79.6668 120.118 79.4869 120.142C79.0513 120.199 78.6441 120.291 78.2653 120.419C77.8912 120.542 77.5882 120.729 77.3562 120.98C77.1289 121.226 77.0153 121.562 77.0153 121.989C77.0153 122.571 77.2307 123.011 77.6616 123.31C78.0972 123.603 78.6488 123.75 79.3164 123.75ZM85.9553 128.125V123.438H86.8643C87.0869 123.205 87.2786 122.955 87.4396 122.685C87.6006 122.415 87.7403 122.095 87.8587 121.726C87.9818 121.352 88.0859 120.897 88.1712 120.362C88.2564 119.822 88.3321 119.171 88.3984 118.409L88.7678 114.091H95.6996V123.438H97.3757V128.125H95.6996V125H87.6314V128.125H85.9553ZM88.7678 123.438H94.0234V115.653H90.3303L90.0462 118.409C89.9278 119.55 89.781 120.547 89.6058 121.399C89.4306 122.251 89.1513 122.931 88.7678 123.438ZM106.902 118.778V120.341H100.879V118.778H106.902ZM101.277 114.091V125H99.6005V114.091H101.277ZM108.18 114.091V125H106.504V114.091H108.18ZM115.673 125.227C114.688 125.227 113.824 124.993 113.081 124.524C112.342 124.055 111.764 123.4 111.348 122.557C110.936 121.714 110.73 120.729 110.73 119.602C110.73 118.466 110.936 117.474 111.348 116.626C111.764 115.779 112.342 115.121 113.081 114.652C113.824 114.183 114.688 113.949 115.673 113.949C116.658 113.949 117.52 114.183 118.258 114.652C119.002 115.121 119.579 115.779 119.991 116.626C120.408 117.474 120.616 118.466 120.616 119.602C120.616 120.729 120.408 121.714 119.991 122.557C119.579 123.4 119.002 124.055 118.258 124.524C117.52 124.993 116.658 125.227 115.673 125.227ZM115.673 123.722C116.421 123.722 117.037 123.53 117.52 123.146C118.002 122.763 118.36 122.259 118.592 121.634C118.824 121.009 118.94 120.331 118.94 119.602C118.94 118.873 118.824 118.194 118.592 117.564C118.36 116.934 118.002 116.425 117.52 116.037C117.037 115.649 116.421 115.455 115.673 115.455C114.925 115.455 114.309 115.649 113.826 116.037C113.343 116.425 112.986 116.934 112.754 117.564C112.522 118.194 112.406 118.873 112.406 119.602C112.406 120.331 112.522 121.009 112.754 121.634C112.986 122.259 113.343 122.763 113.826 123.146C114.309 123.53 114.925 123.722 115.673 123.722Z" fill="black"/>
<path opacity="0.8" fill-rule="evenodd" clip-rule="evenodd" d="M341.938 163.027C341.957 163.461 341.957 163.974 341.957 165C341.957 166.026 341.957 166.539 341.938 166.973C341.488 177.279 333.236 185.531 322.93 185.981C322.496 186 321.983 186 320.957 186H35.4499C32.6503 186 31.2504 186 30.0737 185.859C27.8918 185.598 25.8204 184.988 23.9168 184.086C23.4322 184.236 22.937 184.376 22.4344 184.503C16.1623 186.09 0.000976562 185.999 0.000976562 185.999C0.000976562 185.999 8.82047 184.503 12.0979 177.686C12.6273 176.585 13.0112 174.19 13.2874 171.509C13.01 170.524 12.806 169.508 12.6815 168.467C12.5408 167.29 12.5408 165.891 12.5408 163.091C12.5408 160.758 12.5408 159.591 12.6581 158.611C13.5664 151.014 19.5549 145.026 27.1516 144.117C28.1322 144 29.2987 144 31.6318 144H320.957C321.983 144 322.496 144 322.93 144.019C333.236 144.469 341.488 152.721 341.938 163.027Z" fill="#BCA4FF"/>
<path d="M296.02 175.937C295.324 175.937 294.732 175.748 294.242 175.369C293.753 174.987 293.379 174.435 293.12 173.712C292.862 172.985 292.733 172.108 292.733 171.08C292.733 170.059 292.862 169.186 293.12 168.463C293.382 167.736 293.757 167.182 294.247 166.801C294.739 166.416 295.33 166.224 296.02 166.224C296.709 166.224 297.298 166.416 297.788 166.801C298.28 167.182 298.656 167.736 298.914 168.463C299.176 169.186 299.306 170.059 299.306 171.08C299.306 172.108 299.177 172.985 298.919 173.712C298.66 174.435 298.286 174.987 297.797 175.369C297.308 175.748 296.715 175.937 296.02 175.937ZM296.02 174.921C296.709 174.921 297.244 174.589 297.626 173.924C298.008 173.259 298.199 172.311 298.199 171.08C298.199 170.262 298.111 169.565 297.935 168.989C297.763 168.414 297.514 167.975 297.188 167.673C296.864 167.372 296.475 167.221 296.02 167.221C295.336 167.221 294.802 167.558 294.418 168.232C294.033 168.903 293.841 169.852 293.841 171.08C293.841 171.899 293.927 172.595 294.099 173.167C294.271 173.739 294.519 174.175 294.842 174.473C295.169 174.772 295.561 174.921 296.02 174.921ZM303.829 175.937C303.195 175.937 302.635 175.825 302.149 175.6C301.666 175.372 301.289 175.06 301.018 174.663C300.747 174.263 300.613 173.807 300.616 173.296C300.613 172.896 300.691 172.527 300.852 172.188C301.012 171.847 301.23 171.562 301.507 171.334C301.787 171.103 302.099 170.957 302.444 170.896V170.84C301.992 170.723 301.632 170.469 301.364 170.079C301.096 169.685 300.964 169.237 300.967 168.735C300.964 168.255 301.085 167.826 301.332 167.447C301.578 167.069 301.916 166.77 302.347 166.552C302.781 166.333 303.275 166.224 303.829 166.224C304.377 166.224 304.866 166.333 305.297 166.552C305.728 166.77 306.067 167.069 306.313 167.447C306.562 167.826 306.688 168.255 306.691 168.735C306.688 169.237 306.551 169.685 306.28 170.079C306.013 170.469 305.657 170.723 305.214 170.84V170.896C305.556 170.957 305.863 171.103 306.137 171.334C306.411 171.562 306.63 171.847 306.793 172.188C306.956 172.527 307.039 172.896 307.042 173.296C307.039 173.807 306.901 174.263 306.627 174.663C306.356 175.06 305.979 175.372 305.496 175.6C305.016 175.825 304.46 175.937 303.829 175.937ZM303.829 174.921C304.257 174.921 304.626 174.852 304.937 174.714C305.248 174.575 305.488 174.38 305.657 174.127C305.827 173.875 305.913 173.579 305.916 173.241C305.913 172.884 305.82 172.568 305.639 172.294C305.457 172.021 305.209 171.805 304.896 171.648C304.585 171.491 304.229 171.413 303.829 171.413C303.426 171.413 303.066 171.491 302.749 171.648C302.435 171.805 302.187 172.021 302.006 172.294C301.827 172.568 301.739 172.884 301.742 173.241C301.739 173.579 301.821 173.875 301.987 174.127C302.156 174.38 302.398 174.575 302.712 174.714C303.026 174.852 303.398 174.921 303.829 174.921ZM303.829 170.434C304.168 170.434 304.468 170.366 304.729 170.231C304.994 170.095 305.202 169.906 305.353 169.663C305.503 169.42 305.58 169.135 305.583 168.809C305.58 168.489 305.505 168.21 305.357 167.973C305.209 167.733 305.005 167.549 304.743 167.419C304.482 167.287 304.177 167.221 303.829 167.221C303.475 167.221 303.166 167.287 302.901 167.419C302.637 167.549 302.432 167.733 302.287 167.973C302.143 168.21 302.072 168.489 302.075 168.809C302.072 169.135 302.144 169.42 302.292 169.663C302.443 169.906 302.65 170.095 302.915 170.231C303.18 170.366 303.484 170.434 303.829 170.434ZM309.364 174.598C309.136 174.598 308.941 174.517 308.778 174.353C308.615 174.19 308.533 173.995 308.533 173.767C308.533 173.539 308.615 173.344 308.778 173.181C308.941 173.018 309.136 172.936 309.364 172.936C309.592 172.936 309.787 173.018 309.95 173.181C310.113 173.344 310.195 173.539 310.195 173.767C310.195 173.918 310.156 174.056 310.08 174.183C310.006 174.309 309.906 174.41 309.779 174.487C309.656 174.561 309.518 174.598 309.364 174.598ZM309.364 169.815C309.136 169.815 308.941 169.734 308.778 169.571C308.615 169.408 308.533 169.212 308.533 168.984C308.533 168.757 308.615 168.561 308.778 168.398C308.941 168.235 309.136 168.153 309.364 168.153C309.592 168.153 309.787 168.235 309.95 168.398C310.113 168.561 310.195 168.757 310.195 168.984C310.195 169.135 310.156 169.274 310.08 169.4C310.006 169.526 309.906 169.628 309.779 169.705C309.656 169.778 309.518 169.815 309.364 169.815ZM311.65 173.869V172.927L315.805 166.353H316.488V167.812H316.026L312.887 172.779V172.853H318.482V173.869H311.65ZM316.1 175.808V173.582V173.144V166.353H317.19V175.808H316.1ZM323.092 175.937C322.704 175.931 322.316 175.857 321.928 175.715C321.54 175.574 321.187 175.335 320.866 175C320.546 174.661 320.289 174.204 320.095 173.629C319.902 173.05 319.805 172.324 319.805 171.45C319.805 170.613 319.883 169.871 320.04 169.225C320.197 168.575 320.425 168.029 320.723 167.586C321.022 167.139 321.382 166.801 321.804 166.57C322.228 166.339 322.707 166.224 323.239 166.224C323.769 166.224 324.24 166.33 324.652 166.542C325.067 166.752 325.406 167.044 325.668 167.419C325.929 167.795 326.098 168.227 326.175 168.717H325.049C324.944 168.292 324.741 167.94 324.44 167.66C324.138 167.379 323.738 167.239 323.239 167.239C322.507 167.239 321.93 167.558 321.508 168.195C321.09 168.832 320.879 169.726 320.876 170.877H320.95C321.122 170.616 321.327 170.392 321.564 170.208C321.804 170.02 322.068 169.875 322.358 169.774C322.647 169.672 322.953 169.622 323.276 169.622C323.818 169.622 324.313 169.757 324.763 170.028C325.212 170.296 325.572 170.666 325.843 171.14C326.114 171.611 326.249 172.151 326.249 172.761C326.249 173.345 326.118 173.881 325.857 174.367C325.595 174.85 325.227 175.235 324.754 175.521C324.283 175.805 323.729 175.943 323.092 175.937ZM323.092 174.921C323.479 174.921 323.827 174.824 324.135 174.63C324.446 174.437 324.69 174.176 324.869 173.85C325.05 173.524 325.141 173.161 325.141 172.761C325.141 172.37 325.054 172.014 324.878 171.694C324.706 171.371 324.467 171.114 324.163 170.923C323.861 170.733 323.516 170.637 323.129 170.637C322.836 170.637 322.564 170.696 322.311 170.813C322.059 170.926 321.837 171.083 321.647 171.283C321.459 171.484 321.311 171.713 321.203 171.971C321.096 172.227 321.042 172.496 321.042 172.779C321.042 173.155 321.13 173.506 321.305 173.832C321.483 174.158 321.727 174.421 322.034 174.621C322.345 174.821 322.698 174.921 323.092 174.921Z" fill="#421DFF"/>
<path d="M26.7184 172V157.455H31.8036C32.8169 157.455 33.6526 157.63 34.3107 157.98C34.9689 158.326 35.4589 158.792 35.7809 159.379C36.1029 159.962 36.2638 160.608 36.2638 161.318C36.2638 161.943 36.1526 162.459 35.93 162.866C35.7122 163.274 35.4234 163.596 35.0636 163.832C34.7085 164.069 34.3226 164.244 33.9059 164.358V164.5C34.351 164.528 34.7984 164.685 35.2482 164.969C35.698 165.253 36.0745 165.66 36.3775 166.19C36.6805 166.721 36.832 167.369 36.832 168.136C36.832 168.866 36.6663 169.521 36.3349 170.104C36.0034 170.686 35.4802 171.148 34.7653 171.489C34.0503 171.83 33.1199 172 31.9741 172H26.7184ZM28.4798 170.438H31.9741C33.1246 170.438 33.9414 170.215 34.4244 169.77C34.9121 169.32 35.1559 168.776 35.1559 168.136C35.1559 167.644 35.0304 167.189 34.7795 166.773C34.5285 166.351 34.171 166.015 33.707 165.764C33.243 165.509 32.6938 165.381 32.0593 165.381H28.4798V170.438ZM28.4798 163.847H31.7468C32.2771 163.847 32.7553 163.742 33.1815 163.534C33.6123 163.326 33.9532 163.032 34.2042 162.653C34.4599 162.275 34.5877 161.83 34.5877 161.318C34.5877 160.679 34.3652 160.137 33.9201 159.692C33.475 159.242 32.7695 159.017 31.8036 159.017H28.4798V163.847ZM44.0728 172.227C43.0217 172.227 42.1149 171.995 41.3526 171.531C40.5951 171.062 40.0103 170.409 39.5984 169.571C39.1912 168.728 38.9876 167.748 38.9876 166.631C38.9876 165.513 39.1912 164.528 39.5984 163.676C40.0103 162.819 40.5832 162.152 41.3171 161.673C42.0558 161.19 42.9175 160.949 43.9023 160.949C44.4705 160.949 45.0316 161.044 45.5856 161.233C46.1396 161.422 46.6438 161.73 47.0984 162.156C47.5529 162.578 47.9151 163.136 48.185 163.832C48.4549 164.528 48.5898 165.385 48.5898 166.403V167.114H40.1808V165.665H46.8853C46.8853 165.049 46.7622 164.5 46.516 164.017C46.2745 163.534 45.9289 163.153 45.479 162.874C45.034 162.594 44.5084 162.455 43.9023 162.455C43.2347 162.455 42.6571 162.62 42.1694 162.952C41.6864 163.278 41.3147 163.705 41.0543 164.23C40.7939 164.756 40.6637 165.319 40.6637 165.92V166.886C40.6637 167.71 40.8058 168.409 41.0898 168.982C41.3787 169.55 41.7788 169.983 42.2901 170.281C42.8015 170.575 43.3957 170.722 44.0728 170.722C44.5131 170.722 44.9109 170.66 45.266 170.537C45.6258 170.409 45.936 170.22 46.1964 169.969C46.4568 169.713 46.658 169.396 46.8001 169.017L48.4194 169.472C48.2489 170.021 47.9625 170.504 47.56 170.92C47.1576 171.332 46.6604 171.654 46.0685 171.886C45.4767 172.114 44.8114 172.227 44.0728 172.227ZM51.1396 176.091V161.091H52.7589V162.824H52.9577C53.0808 162.634 53.2513 162.393 53.4691 162.099C53.6916 161.801 54.0089 161.536 54.4208 161.304C54.8375 161.067 55.4009 160.949 56.1112 160.949C57.0297 160.949 57.8394 161.179 58.5401 161.638C59.2409 162.097 59.7878 162.748 60.1808 163.591C60.5737 164.434 60.7702 165.428 60.7702 166.574C60.7702 167.729 60.5737 168.731 60.1808 169.578C59.7878 170.421 59.2433 171.074 58.5472 171.538C57.8512 171.998 57.0487 172.227 56.1396 172.227C55.4388 172.227 54.8777 172.111 54.4563 171.879C54.0349 171.643 53.7106 171.375 53.4833 171.077C53.256 170.774 53.0808 170.523 52.9577 170.324H52.8157V176.091H51.1396ZM52.7873 166.545C52.7873 167.369 52.908 168.096 53.1495 168.726C53.391 169.351 53.7437 169.841 54.2077 170.196C54.6718 170.546 55.2399 170.722 55.9123 170.722C56.613 170.722 57.1978 170.537 57.6665 170.168C58.14 169.794 58.4951 169.292 58.7319 168.662C58.9734 168.027 59.0941 167.322 59.0941 166.545C59.0941 165.778 58.9757 165.087 58.739 164.472C58.507 163.851 58.1542 163.361 57.6808 163.001C57.212 162.637 56.6225 162.455 55.9123 162.455C55.2305 162.455 54.6576 162.627 54.1935 162.973C53.7295 163.314 53.3791 163.792 53.1424 164.408C52.9057 165.018 52.7873 165.731 52.7873 166.545ZM70.6282 165.778V167.341H64.6055V165.778H70.6282ZM65.0032 161.091V172H63.3271V161.091H65.0032ZM71.9066 161.091V172H70.2305V161.091H71.9066ZM75.6566 176.091C75.3725 176.091 75.1192 176.067 74.8967 176.02C74.6741 175.977 74.5202 175.935 74.435 175.892L74.8612 174.415C75.2683 174.519 75.6282 174.557 75.9407 174.528C76.2532 174.5 76.5302 174.36 76.7717 174.109C77.0179 173.863 77.2428 173.463 77.4464 172.909L77.7589 172.057L73.7248 161.091H75.543L78.5543 169.784H78.668L81.6793 161.091H83.4975L78.8668 173.591C78.6585 174.154 78.4004 174.621 78.0927 174.99C77.7849 175.364 77.4274 175.641 77.0202 175.821C76.6178 176.001 76.1632 176.091 75.6566 176.091ZM89.7511 172.227C88.7283 172.227 87.8477 171.986 87.109 171.503C86.3704 171.02 85.8022 170.355 85.4045 169.507C85.0067 168.66 84.8079 167.691 84.8079 166.602C84.8079 165.494 85.0115 164.517 85.4187 163.669C85.8306 162.817 86.4035 162.152 87.1374 161.673C87.8761 161.19 88.7378 160.949 89.7227 160.949C90.4897 160.949 91.181 161.091 91.7965 161.375C92.4121 161.659 92.9163 162.057 93.3093 162.568C93.7023 163.08 93.9461 163.676 94.0408 164.358H92.3647C92.2369 163.861 91.9528 163.42 91.5124 163.037C91.0768 162.649 90.4897 162.455 89.7511 162.455C89.0977 162.455 88.5247 162.625 88.0323 162.966C87.5446 163.302 87.1635 163.778 86.8888 164.393C86.619 165.004 86.484 165.722 86.484 166.545C86.484 167.388 86.6166 168.122 86.8817 168.747C87.1516 169.372 87.5304 169.857 88.0181 170.203C88.5105 170.549 89.0882 170.722 89.7511 170.722C90.1867 170.722 90.582 170.646 90.9371 170.494C91.2923 170.343 91.5929 170.125 91.8391 169.841C92.0853 169.557 92.2605 169.216 92.3647 168.818H94.0408C93.9461 169.462 93.7118 170.042 93.3377 170.558C92.9684 171.07 92.4783 171.477 91.8675 171.78C91.2615 172.078 90.556 172.227 89.7511 172.227ZM97.94 165.04H101.065C102.343 165.04 103.321 165.364 103.998 166.013C104.675 166.661 105.014 167.483 105.014 168.477C105.014 169.131 104.862 169.725 104.559 170.26C104.256 170.79 103.811 171.214 103.224 171.531C102.637 171.844 101.917 172 101.065 172H96.4911V161.091H98.1673V170.438H101.065C101.728 170.438 102.272 170.262 102.699 169.912C103.125 169.562 103.338 169.112 103.338 168.562C103.338 167.985 103.125 167.514 102.699 167.149C102.272 166.785 101.728 166.602 101.065 166.602H97.94V165.04ZM120.491 165.778V167.341H114.469V165.778H120.491ZM114.866 161.091V172H113.19V161.091H114.866ZM121.77 161.091V172H120.094V161.091H121.77ZM128.041 172.256C127.35 172.256 126.723 172.125 126.159 171.865C125.596 171.6 125.148 171.219 124.817 170.722C124.485 170.22 124.32 169.614 124.32 168.903C124.32 168.278 124.443 167.772 124.689 167.384C124.935 166.991 125.264 166.683 125.676 166.46C126.088 166.238 126.543 166.072 127.04 165.963C127.542 165.849 128.046 165.759 128.553 165.693C129.215 165.608 129.753 165.544 130.165 165.501C130.581 165.454 130.884 165.376 131.074 165.267C131.268 165.158 131.365 164.969 131.365 164.699V164.642C131.365 163.941 131.173 163.397 130.79 163.009C130.411 162.62 129.836 162.426 129.064 162.426C128.264 162.426 127.636 162.601 127.182 162.952C126.727 163.302 126.408 163.676 126.223 164.074L124.632 163.506C124.916 162.843 125.295 162.327 125.768 161.957C126.247 161.583 126.768 161.323 127.331 161.176C127.899 161.025 128.458 160.949 129.007 160.949C129.357 160.949 129.76 160.991 130.214 161.077C130.674 161.157 131.116 161.325 131.543 161.581C131.973 161.837 132.331 162.223 132.615 162.739C132.899 163.255 133.041 163.946 133.041 164.812V172H131.365V170.523H131.28C131.166 170.759 130.977 171.013 130.712 171.283C130.446 171.553 130.094 171.782 129.653 171.972C129.213 172.161 128.676 172.256 128.041 172.256ZM128.297 170.75C128.96 170.75 129.518 170.62 129.973 170.359C130.432 170.099 130.778 169.763 131.01 169.351C131.247 168.939 131.365 168.506 131.365 168.051V166.517C131.294 166.602 131.138 166.68 130.896 166.751C130.66 166.818 130.385 166.877 130.072 166.929C129.765 166.976 129.464 167.019 129.17 167.057C128.882 167.09 128.647 167.118 128.467 167.142C128.032 167.199 127.625 167.291 127.246 167.419C126.872 167.542 126.569 167.729 126.337 167.98C126.109 168.226 125.996 168.562 125.996 168.989C125.996 169.571 126.211 170.011 126.642 170.31C127.078 170.603 127.629 170.75 128.297 170.75ZM148.458 161.091V162.653H143.402V172H141.725V161.091H148.458ZM149.021 172V170.438H149.419C149.746 170.438 150.018 170.374 150.236 170.246C150.454 170.113 150.629 169.884 150.761 169.557C150.899 169.225 151.003 168.766 151.074 168.179C151.15 167.587 151.204 166.834 151.237 165.92L151.436 161.091H158.709V172H157.033V162.653H153.027L152.857 166.545C152.819 167.44 152.738 168.229 152.615 168.911C152.497 169.588 152.314 170.156 152.068 170.615C151.827 171.074 151.505 171.42 151.102 171.652C150.7 171.884 150.196 172 149.589 172H149.021ZM164.994 172.256C164.303 172.256 163.676 172.125 163.112 171.865C162.549 171.6 162.101 171.219 161.77 170.722C161.438 170.22 161.273 169.614 161.273 168.903C161.273 168.278 161.396 167.772 161.642 167.384C161.888 166.991 162.217 166.683 162.629 166.46C163.041 166.238 163.496 166.072 163.993 165.963C164.495 165.849 164.999 165.759 165.506 165.693C166.169 165.608 166.706 165.544 167.118 165.501C167.535 165.454 167.838 165.376 168.027 165.267C168.221 165.158 168.318 164.969 168.318 164.699V164.642C168.318 163.941 168.126 163.397 167.743 163.009C167.364 162.62 166.789 162.426 166.017 162.426C165.217 162.426 164.589 162.601 164.135 162.952C163.68 163.302 163.361 163.676 163.176 164.074L161.585 163.506C161.869 162.843 162.248 162.327 162.722 161.957C163.2 161.583 163.721 161.323 164.284 161.176C164.852 161.025 165.411 160.949 165.96 160.949C166.311 160.949 166.713 160.991 167.168 161.077C167.627 161.157 168.07 161.325 168.496 161.581C168.927 161.837 169.284 162.223 169.568 162.739C169.852 163.255 169.994 163.946 169.994 164.812V172H168.318V170.523H168.233C168.119 170.759 167.93 171.013 167.665 171.283C167.4 171.553 167.047 171.782 166.607 171.972C166.166 172.161 165.629 172.256 164.994 172.256ZM165.25 170.75C165.913 170.75 166.472 170.62 166.926 170.359C167.385 170.099 167.731 169.763 167.963 169.351C168.2 168.939 168.318 168.506 168.318 168.051V166.517C168.247 166.602 168.091 166.68 167.849 166.751C167.613 166.818 167.338 166.877 167.026 166.929C166.718 166.976 166.417 167.019 166.124 167.057C165.835 167.09 165.6 167.118 165.42 167.142C164.985 167.199 164.578 167.291 164.199 167.419C163.825 167.542 163.522 167.729 163.29 167.98C163.063 168.226 162.949 168.562 162.949 168.989C162.949 169.571 163.164 170.011 163.595 170.31C164.031 170.603 164.582 170.75 165.25 170.75ZM173.054 172V161.091H177.514C178.688 161.091 179.621 161.356 180.312 161.886C181.003 162.417 181.349 163.117 181.349 163.989C181.349 164.652 181.153 165.165 180.76 165.53C180.367 165.89 179.862 166.134 179.247 166.261C179.649 166.318 180.04 166.46 180.419 166.688C180.802 166.915 181.119 167.227 181.37 167.625C181.621 168.018 181.747 168.501 181.747 169.074C181.747 169.633 181.605 170.132 181.321 170.572C181.037 171.013 180.629 171.361 180.099 171.616C179.569 171.872 178.934 172 178.196 172H173.054ZM174.645 170.466H178.196C178.773 170.466 179.225 170.329 179.552 170.054C179.879 169.779 180.042 169.405 180.042 168.932C180.042 168.368 179.879 167.926 179.552 167.604C179.225 167.277 178.773 167.114 178.196 167.114H174.645V170.466ZM174.645 165.665H177.514C177.964 165.665 178.35 165.603 178.672 165.48C178.993 165.352 179.24 165.172 179.41 164.94C179.585 164.704 179.673 164.424 179.673 164.102C179.673 163.643 179.481 163.283 179.098 163.023C178.714 162.758 178.186 162.625 177.514 162.625H174.645V165.665ZM191.585 165.778V167.341H185.562V165.778H191.585ZM185.96 161.091V172H184.284V161.091H185.96ZM192.864 161.091V172H191.188V161.091H192.864ZM196.614 176.091C196.33 176.091 196.076 176.067 195.854 176.02C195.631 175.977 195.477 175.935 195.392 175.892L195.818 174.415C196.225 174.519 196.585 174.557 196.898 174.528C197.21 174.5 197.487 174.36 197.729 174.109C197.975 173.863 198.2 173.463 198.403 172.909L198.716 172.057L194.682 161.091H196.5L199.511 169.784H199.625L202.636 161.091H204.455L199.824 173.591C199.616 174.154 199.357 174.621 199.05 174.99C198.742 175.364 198.384 175.641 197.977 175.821C197.575 176.001 197.12 176.091 196.614 176.091ZM211.894 165.864V167.426H206.127V165.864H211.894ZM207.548 161.091V172H205.871V161.091H207.548ZM215.246 172.227C214.262 172.227 213.397 171.993 212.654 171.524C211.915 171.055 211.338 170.4 210.921 169.557C210.509 168.714 210.303 167.729 210.303 166.602C210.303 165.466 210.509 164.474 210.921 163.626C211.338 162.779 211.915 162.121 212.654 161.652C213.397 161.183 214.262 160.949 215.246 160.949C216.231 160.949 217.093 161.183 217.832 161.652C218.575 162.121 219.153 162.779 219.565 163.626C219.981 164.474 220.19 165.466 220.19 166.602C220.19 167.729 219.981 168.714 219.565 169.557C219.153 170.4 218.575 171.055 217.832 171.524C217.093 171.993 216.231 172.227 215.246 172.227ZM215.246 170.722C215.995 170.722 216.61 170.53 217.093 170.146C217.576 169.763 217.933 169.259 218.165 168.634C218.397 168.009 218.513 167.331 218.513 166.602C218.513 165.873 218.397 165.194 218.165 164.564C217.933 163.934 217.576 163.425 217.093 163.037C216.61 162.649 215.995 162.455 215.246 162.455C214.498 162.455 213.883 162.649 213.4 163.037C212.917 163.425 212.559 163.934 212.327 164.564C212.095 165.194 211.979 165.873 211.979 166.602C211.979 167.331 212.095 168.009 212.327 168.634C212.559 169.259 212.917 169.763 213.4 170.146C213.883 170.53 214.498 170.722 215.246 170.722ZM227.917 162.653V161.091H236.781V162.653H233.201V172H231.525V162.653H227.917ZM243.091 172.227C242.106 172.227 241.242 171.993 240.499 171.524C239.76 171.055 239.182 170.4 238.766 169.557C238.354 168.714 238.148 167.729 238.148 166.602C238.148 165.466 238.354 164.474 238.766 163.626C239.182 162.779 239.76 162.121 240.499 161.652C241.242 161.183 242.106 160.949 243.091 160.949C244.076 160.949 244.938 161.183 245.676 161.652C246.42 162.121 246.997 162.779 247.409 163.626C247.826 164.474 248.034 165.466 248.034 166.602C248.034 167.729 247.826 168.714 247.409 169.557C246.997 170.4 246.42 171.055 245.676 171.524C244.938 171.993 244.076 172.227 243.091 172.227ZM243.091 170.722C243.839 170.722 244.455 170.53 244.938 170.146C245.42 169.763 245.778 169.259 246.01 168.634C246.242 168.009 246.358 167.331 246.358 166.602C246.358 165.873 246.242 165.194 246.01 164.564C245.778 163.934 245.42 163.425 244.938 163.037C244.455 162.649 243.839 162.455 243.091 162.455C242.343 162.455 241.727 162.649 241.244 163.037C240.761 163.425 240.404 163.934 240.172 164.564C239.94 165.194 239.824 165.873 239.824 166.602C239.824 167.331 239.94 168.009 240.172 168.634C240.404 169.259 240.761 169.763 241.244 170.146C241.727 170.53 242.343 170.722 243.091 170.722ZM257.326 161.091V162.653H252.269V172H250.593V161.091H257.326ZM257.69 175.125V170.438H258.599C258.821 170.205 259.013 169.955 259.174 169.685C259.335 169.415 259.475 169.095 259.593 168.726C259.716 168.352 259.82 167.897 259.906 167.362C259.991 166.822 260.067 166.171 260.133 165.409L260.502 161.091H267.434V170.438H269.11V175.125H267.434V172H259.366V175.125H257.69ZM260.502 170.438H265.758V162.653H262.065L261.781 165.409C261.662 166.55 261.515 167.547 261.34 168.399C261.165 169.251 260.886 169.931 260.502 170.438ZM274.545 172.256C273.854 172.256 273.226 172.125 272.663 171.865C272.1 171.6 271.652 171.219 271.321 170.722C270.989 170.22 270.824 169.614 270.824 168.903C270.824 168.278 270.947 167.772 271.193 167.384C271.439 166.991 271.768 166.683 272.18 166.46C272.592 166.238 273.047 166.072 273.544 165.963C274.046 165.849 274.55 165.759 275.056 165.693C275.719 165.608 276.257 165.544 276.669 165.501C277.085 165.454 277.388 165.376 277.578 165.267C277.772 165.158 277.869 164.969 277.869 164.699V164.642C277.869 163.941 277.677 163.397 277.294 163.009C276.915 162.62 276.34 162.426 275.568 162.426C274.768 162.426 274.14 162.601 273.686 162.952C273.231 163.302 272.912 163.676 272.727 164.074L271.136 163.506C271.42 162.843 271.799 162.327 272.272 161.957C272.751 161.583 273.271 161.323 273.835 161.176C274.403 161.025 274.962 160.949 275.511 160.949C275.861 160.949 276.264 160.991 276.718 161.077C277.178 161.157 277.62 161.325 278.047 161.581C278.477 161.837 278.835 162.223 279.119 162.739C279.403 163.255 279.545 163.946 279.545 164.812V172H277.869V170.523H277.784C277.67 170.759 277.481 171.013 277.216 171.283C276.95 171.553 276.598 171.782 276.157 171.972C275.717 172.161 275.18 172.256 274.545 172.256ZM274.801 170.75C275.464 170.75 276.022 170.62 276.477 170.359C276.936 170.099 277.282 169.763 277.514 169.351C277.751 168.939 277.869 168.506 277.869 168.051V166.517C277.798 166.602 277.642 166.68 277.4 166.751C277.163 166.818 276.889 166.877 276.576 166.929C276.269 166.976 275.968 167.019 275.674 167.057C275.386 167.09 275.151 167.118 274.971 167.142C274.536 167.199 274.128 167.291 273.75 167.419C273.376 167.542 273.073 167.729 272.841 167.98C272.613 168.226 272.5 168.562 272.5 168.989C272.5 169.571 272.715 170.011 273.146 170.31C273.582 170.603 274.133 170.75 274.801 170.75Z" fill="black"/>
</svg>
