<svg width="582" height="186" viewBox="0 0 582 186" fill="none" xmlns="http://www.w3.org/2000/svg">
<path opacity="0.9" d="M283 21.5C283 9.62588 292.626 0 304.5 0H541.333C548.835 0 552.586 0 555.628 0.965207C562.01 2.99048 567.01 7.99042 569.035 14.3724C570 17.4139 570 21.1648 570 28.6667V28.6667C570 32.4176 570 34.2931 569.517 35.8138C568.505 39.0048 566.005 41.5048 562.814 42.5174C561.293 43 559.418 43 555.667 43H304.5C292.626 43 283 33.3741 283 21.5V21.5Z" fill="#D4C5FF"/>
<path d="M311.686 29.0742L306.492 22.1389H304.633V29.0742H302.803V13.9641H304.633V20.5157H305.43L311.48 13.9641H313.663L307.554 20.6043L313.87 29.0742H311.686ZM319.918 29.3103C318.826 29.3103 317.884 29.0693 317.092 28.5873C316.305 28.1003 315.698 27.4215 315.27 26.5509C314.847 25.6754 314.636 24.6573 314.636 23.4965C314.636 22.3356 314.847 21.3126 315.27 20.4272C315.698 19.5369 316.293 18.8434 317.055 18.3466C317.823 17.8449 318.718 17.5941 319.741 17.5941C320.331 17.5941 320.914 17.6924 321.49 17.8892C322.065 18.0859 322.589 18.4056 323.061 18.8483C323.533 19.2861 323.91 19.8665 324.19 20.5895C324.47 21.3126 324.611 22.2028 324.611 23.2604V23.9982H315.875V22.493H322.84C322.84 21.8536 322.712 21.2831 322.456 20.7813C322.205 20.2796 321.846 19.8837 321.379 19.5935C320.917 19.3033 320.371 19.1582 319.741 19.1582C319.048 19.1582 318.447 19.3303 317.941 19.6746C317.439 20.014 317.053 20.4567 316.783 21.0027C316.512 21.5487 316.377 22.134 316.377 22.7587V23.7621C316.377 24.6179 316.524 25.3434 316.819 25.9386C317.119 26.5288 317.535 26.9789 318.066 27.2887C318.597 27.5937 319.215 27.7462 319.918 27.7462C320.376 27.7462 320.789 27.6822 321.158 27.5544C321.531 27.4215 321.854 27.2248 322.124 26.9641C322.395 26.6985 322.604 26.369 322.751 25.9755L324.433 26.4477C324.256 27.0182 323.959 27.5199 323.541 27.9528C323.123 28.3807 322.606 28.7152 321.991 28.9562C321.377 29.1923 320.685 29.3103 319.918 29.3103ZM329 26.5067L334.46 17.7416H336.467V29.0742H334.726V20.3092L329.296 29.0742H327.259V17.7416H329V26.5067ZM333.309 13.9641H334.932C334.932 14.7609 334.657 15.4126 334.106 15.9192C333.555 16.4259 332.808 16.6792 331.863 16.6792C330.934 16.6792 330.193 16.4259 329.642 15.9192C329.096 15.4126 328.823 14.7609 328.823 13.9641H330.447C330.447 14.3477 330.552 14.6847 330.764 14.9749C330.98 15.2651 331.347 15.4102 331.863 15.4102C332.38 15.4102 332.748 15.2651 332.97 14.9749C333.196 14.6847 333.309 14.3477 333.309 13.9641ZM344.26 29.3103C343.198 29.3103 342.283 29.0595 341.515 28.5578C340.748 28.0561 340.158 27.365 339.745 26.4845C339.332 25.6041 339.125 24.5982 339.125 23.4669C339.125 22.316 339.336 21.3003 339.759 20.4198C340.187 19.5345 340.783 18.8434 341.545 18.3466C342.312 17.8449 343.207 17.5941 344.23 17.5941C345.027 17.5941 345.745 17.7416 346.385 18.0367C347.024 18.3319 347.548 18.745 347.956 19.2762C348.365 19.8075 348.618 20.4272 348.716 21.1355H346.975C346.842 20.619 346.547 20.1616 346.09 19.7632C345.637 19.3599 345.027 19.1582 344.26 19.1582C343.581 19.1582 342.986 19.3353 342.475 19.6894C341.968 20.0386 341.572 20.533 341.287 21.1724C341.006 21.8069 340.866 22.5521 340.866 23.4079C340.866 24.2834 341.004 25.0458 341.279 25.6951C341.56 26.3444 341.953 26.8485 342.46 27.2076C342.971 27.5666 343.571 27.7462 344.26 27.7462C344.713 27.7462 345.123 27.6675 345.492 27.5101C345.861 27.3527 346.173 27.1264 346.429 26.8313C346.685 26.5362 346.867 26.182 346.975 25.7689H348.716C348.618 26.4378 348.374 27.0404 347.986 27.5765C347.602 28.1077 347.093 28.5307 346.459 28.8455C345.829 29.1554 345.096 29.3103 344.26 29.3103ZM356.397 29.0742L361.001 23.3194L356.456 17.7416H358.522L362.299 22.5816H363.244V17.7416H364.985V22.5816H365.9L369.677 17.7416H371.743L367.228 23.3194L371.802 29.0742H369.707L365.87 24.2047H364.985V29.0742H363.244V24.2047H362.358L358.492 29.0742H356.397ZM378.575 29.3103C377.483 29.3103 376.541 29.0693 375.749 28.5873C374.962 28.1003 374.355 27.4215 373.927 26.5509C373.504 25.6754 373.292 24.6573 373.292 23.4965C373.292 22.3356 373.504 21.3126 373.927 20.4272C374.355 19.5369 374.95 18.8434 375.712 18.3466C376.48 17.8449 377.375 17.5941 378.398 17.5941C378.988 17.5941 379.571 17.6924 380.147 17.8892C380.722 18.0859 381.246 18.4056 381.718 18.8483C382.19 19.2861 382.567 19.8665 382.847 20.5895C383.127 21.3126 383.267 22.2028 383.267 23.2604V23.9982H374.532V22.493H381.497C381.497 21.8536 381.369 21.2831 381.113 20.7813C380.862 20.2796 380.503 19.8837 380.036 19.5935C379.574 19.3033 379.028 19.1582 378.398 19.1582C377.704 19.1582 377.104 19.3303 376.598 19.6746C376.096 20.014 375.71 20.4567 375.439 21.0027C375.169 21.5487 375.034 22.134 375.034 22.7587V23.7621C375.034 24.6179 375.181 25.3434 375.476 25.9386C375.776 26.5288 376.192 26.9789 376.723 27.2887C377.254 27.5937 377.872 27.7462 378.575 27.7462C379.033 27.7462 379.446 27.6822 379.815 27.5544C380.188 27.4215 380.511 27.2248 380.781 26.9641C381.052 26.6985 381.261 26.369 381.408 25.9755L383.09 26.4477C382.913 27.0182 382.616 27.5199 382.198 27.9528C381.78 28.3807 381.263 28.7152 380.648 28.9562C380.033 29.1923 379.342 29.3103 378.575 29.3103ZM376.185 15.8528C375.875 15.8528 375.599 15.7348 375.358 15.4987C375.122 15.2577 375.004 14.9822 375.004 14.6724C375.004 14.333 375.122 14.0526 375.358 13.8313C375.599 13.605 375.875 13.4919 376.185 13.4919C376.524 13.4919 376.804 13.605 377.026 13.8313C377.252 14.0526 377.365 14.333 377.365 14.6724C377.365 14.9822 377.252 15.2577 377.026 15.4987C376.804 15.7348 376.524 15.8528 376.185 15.8528ZM380.434 15.8528C380.124 15.8528 379.849 15.7348 379.608 15.4987C379.372 15.2577 379.254 14.9822 379.254 14.6724C379.254 14.333 379.372 14.0526 379.608 13.8313C379.849 13.605 380.124 13.4919 380.434 13.4919C380.774 13.4919 381.054 13.605 381.275 13.8313C381.502 14.0526 381.615 14.333 381.615 14.6724C381.615 14.9822 381.502 15.2577 381.275 15.4987C381.054 15.7348 380.774 15.8528 380.434 15.8528ZM390.52 29.3103C389.458 29.3103 388.543 29.0595 387.775 28.5578C387.008 28.0561 386.418 27.365 386.005 26.4845C385.592 25.6041 385.385 24.5982 385.385 23.4669C385.385 22.316 385.596 21.3003 386.019 20.4198C386.447 19.5345 387.043 18.8434 387.805 18.3466C388.572 17.8449 389.467 17.5941 390.491 17.5941C391.287 17.5941 392.005 17.7416 392.645 18.0367C393.284 18.3319 393.808 18.745 394.216 19.2762C394.625 19.8075 394.878 20.4272 394.976 21.1355H393.235C393.102 20.619 392.807 20.1616 392.35 19.7632C391.897 19.3599 391.287 19.1582 390.52 19.1582C389.841 19.1582 389.246 19.3353 388.735 19.6894C388.228 20.0386 387.832 20.533 387.547 21.1724C387.266 21.8069 387.126 22.5521 387.126 23.4079C387.126 24.2834 387.264 25.0458 387.539 25.6951C387.82 26.3444 388.213 26.8485 388.72 27.2076C389.231 27.5666 389.831 27.7462 390.52 27.7462C390.973 27.7462 391.383 27.6675 391.752 27.5101C392.121 27.3527 392.433 27.1264 392.689 26.8313C392.945 26.5362 393.127 26.182 393.235 25.7689H394.976C394.878 26.4378 394.635 27.0404 394.246 27.5765C393.862 28.1077 393.353 28.5307 392.719 28.8455C392.089 29.1554 391.356 29.3103 390.52 29.3103ZM396.629 19.3648V17.7416H405.837V19.3648H402.118V29.0742H400.377V19.3648H396.629ZM408.377 29.0742V17.7416H410.118V22.6701H411.269L415.341 17.7416H417.584L413.01 23.2013L417.643 29.0742H415.401L411.682 24.2933H410.118V29.0742H408.377ZM423.673 29.3103C422.65 29.3103 421.752 29.0668 420.98 28.5799C420.213 28.0929 419.613 27.4117 419.18 26.5362C418.752 25.6607 418.538 24.6376 418.538 23.4669C418.538 22.2865 418.752 21.256 419.18 20.3756C419.613 19.4951 420.213 18.8114 420.98 18.3245C421.752 17.8375 422.65 17.5941 423.673 17.5941C424.696 17.5941 425.591 17.8375 426.359 18.3245C427.131 18.8114 427.731 19.4951 428.159 20.3756C428.592 21.256 428.808 22.2865 428.808 23.4669C428.808 24.6376 428.592 25.6607 428.159 26.5362C427.731 27.4117 427.131 28.0929 426.359 28.5799C425.591 29.0668 424.696 29.3103 423.673 29.3103ZM423.673 27.7462C424.45 27.7462 425.09 27.547 425.591 27.1486C426.093 26.7501 426.464 26.2263 426.705 25.577C426.946 24.9278 427.067 24.2244 427.067 23.4669C427.067 22.7095 426.946 22.0036 426.705 21.3495C426.464 20.6953 426.093 20.1665 425.591 19.7632C425.09 19.3599 424.45 19.1582 423.673 19.1582C422.896 19.1582 422.257 19.3599 421.755 19.7632C421.253 20.1665 420.882 20.6953 420.641 21.3495C420.4 22.0036 420.279 22.7095 420.279 23.4669C420.279 24.2244 420.4 24.9278 420.641 25.577C420.882 26.2263 421.253 26.7501 421.755 27.1486C422.257 27.547 422.896 27.7462 423.673 27.7462ZM436.66 19.3648V17.7416H445.868V19.3648H442.149V29.0742H440.408V19.3648H436.66ZM449.529 33.3239C449.234 33.3239 448.971 33.2994 448.74 33.2502C448.509 33.2059 448.349 33.1616 448.26 33.1174L448.703 31.5827C449.126 31.6909 449.5 31.7303 449.824 31.7008C450.149 31.6713 450.437 31.5262 450.688 31.2655C450.943 31.0097 451.177 30.5941 451.389 30.0186L451.713 29.1332L447.522 17.7416H449.411L452.54 26.7723H452.658L455.786 17.7416H457.675L452.864 30.7269C452.648 31.3122 452.38 31.7967 452.06 32.1804C451.74 32.5689 451.369 32.8567 450.946 33.0436C450.528 33.2305 450.056 33.3239 449.529 33.3239ZM459.973 29.0742V17.7416H468.885V29.0742H467.144V19.3648H461.714V29.0742H459.973ZM473.807 26.5067L479.266 17.7416H481.273V29.0742H479.532V20.3092L474.102 29.0742H472.065V17.7416H473.807V26.5067ZM482.92 19.3648V17.7416H492.128V19.3648H488.409V29.0742H486.668V19.3648H482.92Z" fill="black"/>
<path d="M507.029 32.3803C506.297 32.3803 505.673 32.1809 505.157 31.7822C504.642 31.3802 504.248 30.7982 503.975 30.0364C503.703 29.2713 503.567 28.3473 503.567 27.2645C503.567 26.1882 503.703 25.2691 503.975 24.5073C504.251 23.7422 504.647 23.1586 505.162 22.7566C505.681 22.3514 506.303 22.1488 507.029 22.1488C507.756 22.1488 508.376 22.3514 508.892 22.7566C509.411 23.1586 509.806 23.7422 510.078 24.5073C510.354 25.2691 510.492 26.1882 510.492 27.2645C510.492 28.3473 510.356 29.2713 510.083 30.0364C509.811 30.7982 509.417 31.3802 508.902 31.7822C508.386 32.1809 507.762 32.3803 507.029 32.3803ZM507.029 31.3105C507.756 31.3105 508.32 30.9603 508.722 30.2601C509.124 29.5598 509.325 28.5613 509.325 27.2645C509.325 26.4022 509.232 25.6679 509.047 25.0616C508.866 24.4554 508.603 23.9934 508.26 23.6757C507.919 23.358 507.509 23.1991 507.029 23.1991C506.31 23.1991 505.747 23.5541 505.342 24.2641C504.937 24.9709 504.734 25.971 504.734 27.2645C504.734 28.1269 504.825 28.8596 505.006 29.4626C505.188 30.0656 505.449 30.5243 505.789 30.8388C506.133 31.1532 506.546 31.3105 507.029 31.3105ZM515.256 32.3803C514.588 32.3803 513.998 32.262 513.486 32.0253C512.977 31.7854 512.58 31.4564 512.294 31.0381C512.009 30.6167 511.868 30.1369 511.871 29.5987C511.868 29.1773 511.951 28.7882 512.119 28.4316C512.288 28.0718 512.518 27.7719 512.81 27.532C513.105 27.2888 513.434 27.1349 513.797 27.07V27.0117C513.32 26.8885 512.941 26.621 512.659 26.2093C512.377 25.7943 512.238 25.3226 512.241 24.7942C512.238 24.2884 512.366 23.8362 512.625 23.4374C512.884 23.0387 513.241 22.7242 513.695 22.494C514.152 22.2638 514.672 22.1488 515.256 22.1488C515.833 22.1488 516.348 22.2638 516.802 22.494C517.256 22.7242 517.613 23.0387 517.872 23.4374C518.135 23.8362 518.268 24.2884 518.271 24.7942C518.268 25.3226 518.123 25.7943 517.838 26.2093C517.556 26.621 517.182 26.8885 516.715 27.0117V27.07C517.075 27.1349 517.399 27.2888 517.687 27.532C517.976 27.7719 518.206 28.0718 518.378 28.4316C518.55 28.7882 518.637 29.1773 518.64 29.5987C518.637 30.1369 518.491 30.6167 518.203 31.0381C517.917 31.4564 517.52 31.7854 517.011 32.0253C516.506 32.262 515.92 32.3803 515.256 32.3803ZM515.256 31.3105C515.706 31.3105 516.095 31.2375 516.423 31.0916C516.75 30.9457 517.003 30.7399 517.182 30.474C517.36 30.2082 517.451 29.897 517.454 29.5404C517.451 29.1643 517.353 28.832 517.162 28.5435C516.971 28.2549 516.71 28.028 516.379 27.8627C516.052 27.6973 515.677 27.6147 515.256 27.6147C514.831 27.6147 514.452 27.6973 514.118 27.8627C513.787 28.028 513.526 28.2549 513.335 28.5435C513.147 28.832 513.055 29.1643 513.058 29.5404C513.055 29.897 513.14 30.2082 513.316 30.474C513.494 30.7399 513.748 30.9457 514.079 31.0916C514.41 31.2375 514.802 31.3105 515.256 31.3105ZM515.256 26.5837C515.612 26.5837 515.929 26.5124 516.204 26.3698C516.483 26.2271 516.702 26.0277 516.861 25.7716C517.019 25.5155 517.1 25.2156 517.104 24.872C517.1 24.5348 517.021 24.2414 516.865 23.9918C516.71 23.7389 516.494 23.5444 516.219 23.4083C515.943 23.2688 515.622 23.1991 515.256 23.1991C514.883 23.1991 514.557 23.2688 514.278 23.4083C514 23.5444 513.784 23.7389 513.632 23.9918C513.479 24.2414 513.405 24.5348 513.408 24.872C513.405 25.2156 513.481 25.5155 513.636 25.7716C513.795 26.0277 514.014 26.2271 514.293 26.3698C514.572 26.5124 514.893 26.5837 515.256 26.5837ZM521.086 30.9701C520.846 30.9701 520.64 30.8841 520.469 30.7123C520.297 30.5405 520.211 30.3346 520.211 30.0947C520.211 29.8548 520.297 29.649 520.469 29.4772C520.64 29.3053 520.846 29.2194 521.086 29.2194C521.326 29.2194 521.532 29.3053 521.704 29.4772C521.876 29.649 521.961 29.8548 521.961 30.0947C521.961 30.2536 521.921 30.3995 521.84 30.5324C521.762 30.6653 521.657 30.7723 521.524 30.8534C521.394 30.9312 521.248 30.9701 521.086 30.9701ZM521.086 25.9321C520.846 25.9321 520.64 25.8462 520.469 25.6744C520.297 25.5025 520.211 25.2967 520.211 25.0568C520.211 24.8169 520.297 24.611 520.469 24.4392C520.64 24.2674 520.846 24.1815 521.086 24.1815C521.326 24.1815 521.532 24.2674 521.704 24.4392C521.876 24.611 521.961 24.8169 521.961 25.0568C521.961 25.2156 521.921 25.3615 521.84 25.4944C521.762 25.6274 521.657 25.7343 521.524 25.8154C521.394 25.8932 521.248 25.9321 521.086 25.9321ZM523.494 30.2017V29.2097L527.871 22.2849H528.59V23.8216H528.104L524.797 29.0541V29.1319H530.691V30.2017H523.494ZM528.182 32.2441V29.9002V29.4382V22.2849H529.33V32.2441H528.182ZM535.488 32.3803C534.755 32.3803 534.131 32.1809 533.616 31.7822C533.1 31.3802 532.707 30.7982 532.434 30.0364C532.162 29.2713 532.026 28.3473 532.026 27.2645C532.026 26.1882 532.162 25.2691 532.434 24.5073C532.71 23.7422 533.105 23.1586 533.621 22.7566C534.139 22.3514 534.762 22.1488 535.488 22.1488C536.214 22.1488 536.835 22.3514 537.351 22.7566C537.869 23.1586 538.265 23.7422 538.537 24.5073C538.813 25.2691 538.95 26.1882 538.95 27.2645C538.95 28.3473 538.814 29.2713 538.542 30.0364C538.27 30.7982 537.876 31.3802 537.36 31.7822C536.845 32.1809 536.221 32.3803 535.488 32.3803ZM535.488 31.3105C536.214 31.3105 536.778 30.9603 537.18 30.2601C537.582 29.5598 537.783 28.5613 537.783 27.2645C537.783 26.4022 537.691 25.6679 537.506 25.0616C537.325 24.4554 537.062 23.9934 536.718 23.6757C536.378 23.358 535.968 23.1991 535.488 23.1991C534.768 23.1991 534.206 23.5541 533.801 24.2641C533.395 24.9709 533.193 25.971 533.193 27.2645C533.193 28.1269 533.284 28.8596 533.465 29.4626C533.647 30.0656 533.908 30.5243 534.248 30.8388C534.592 31.1532 535.005 31.3105 535.488 31.3105Z" fill="#421DFF"/>
<path d="M555.77 23.0997C555.99 22.9494 556.292 22.9686 556.491 23.1602C556.718 23.3797 556.725 23.7424 556.506 23.9698L547.597 33.1963C547.487 33.3107 547.334 33.3742 547.175 33.3712C547.015 33.368 546.865 33.2985 546.759 33.1797L542.782 28.7256L543.209 28.3448L543.635 27.9629L547.202 31.9571L555.682 23.1749L555.77 23.0997ZM542.828 27.917C543.064 27.7073 543.425 27.7278 543.635 27.9629L542.782 28.7256C542.572 28.4898 542.592 28.1275 542.828 27.917Z" fill="#421DFF"/>
<path d="M559.134 23.0997C559.353 22.9494 559.655 22.9686 559.854 23.1602C560.082 23.3797 560.088 23.7424 559.869 23.9698L550.961 33.1963C550.85 33.3107 550.697 33.3742 550.538 33.3712C550.379 33.368 550.228 33.2985 550.122 33.1797L546.145 28.7256L546.572 28.3448L546.999 27.9629L550.565 31.9571L559.046 23.1749L559.134 23.0997ZM546.191 27.917C546.427 27.7073 546.788 27.7278 546.999 27.9629L546.145 28.7256C545.935 28.4898 545.955 28.1275 546.191 27.917Z" fill="#421DFF"/>
<path opacity="0.8" d="M553.008 48C556.281 48 557.917 47.9997 559.258 48.3682C562.761 49.3312 565.498 52.0683 566.461 55.5713C566.747 56.6127 566.809 57.8332 566.823 59.8604L566.932 59.6992C566.932 59.6992 567.569 79.8635 569.137 83.2178C572.424 90.2511 581.25 91.8153 581.317 91.8271C581.231 91.8276 565.028 91.9177 558.729 90.2783C557.227 89.8874 555.791 89.3737 554.509 88.8467C553.342 89.4079 552.118 89.8716 550.845 90.2217C548.015 90.9996 544.56 91 537.65 91H143.5C142.669 91 142.254 91.0003 141.902 90.9883C131.074 90.6187 122.381 81.9258 122.012 71.0977C122 70.7464 122 70.3308 122 69.5C122 68.6692 122 68.2536 122.012 67.9023C122.381 57.0742 131.074 48.3813 141.902 48.0117C142.254 47.9997 142.669 48 143.5 48H553.008Z" fill="#D4C5FF"/>
<path d="M144.17 77.1871C143.196 77.1871 142.328 77.0198 141.566 76.6853C140.808 76.3509 140.206 75.8861 139.758 75.2909C139.315 74.6908 139.074 73.9948 139.035 73.2029H140.894C140.934 73.6899 141.101 74.1104 141.396 74.4646C141.691 74.8138 142.077 75.0843 142.554 75.2762C143.031 75.468 143.56 75.5639 144.141 75.5639C144.79 75.5639 145.365 75.4508 145.867 75.2245C146.369 74.9982 146.762 74.6835 147.047 74.2801C147.333 73.8768 147.475 73.4095 147.475 72.8783C147.475 72.3225 147.338 71.8331 147.062 71.4101C146.787 70.9822 146.383 70.6477 145.852 70.4067C145.321 70.1657 144.672 70.0452 143.904 70.0452H142.694V68.422H143.904C144.505 68.422 145.031 68.3138 145.483 68.0974C145.941 67.8809 146.297 67.576 146.553 67.1825C146.814 66.789 146.944 66.3266 146.944 65.7954C146.944 65.2839 146.831 64.8387 146.605 64.46C146.379 64.0813 146.059 63.7861 145.646 63.5746C145.237 63.3631 144.755 63.2574 144.2 63.2574C143.678 63.2574 143.186 63.3533 142.724 63.5451C142.267 63.732 141.893 64.005 141.603 64.3641C141.312 64.7182 141.155 65.1462 141.13 65.6479H139.36C139.389 64.856 139.628 64.1624 140.075 63.5673C140.523 62.9672 141.108 62.4999 141.831 62.1654C142.559 61.831 143.358 61.6637 144.229 61.6637C145.164 61.6637 145.965 61.8531 146.634 62.2319C147.303 62.6057 147.817 63.1 148.176 63.7148C148.535 64.3297 148.715 64.9937 148.715 65.7069C148.715 66.5578 148.491 67.2833 148.043 67.8834C147.601 68.4835 146.998 68.8991 146.236 69.1303V69.2483C147.19 69.4057 147.935 69.8115 148.471 70.4657C149.008 71.115 149.276 71.9192 149.276 72.8783C149.276 73.6997 149.052 74.4375 148.604 75.0917C148.162 75.741 147.557 76.2525 146.789 76.6263C146.022 77.0001 145.149 77.1871 144.17 77.1871ZM155.658 77.2461C154.939 77.2461 154.288 77.1108 153.702 76.8403C153.117 76.5648 152.652 76.1689 152.308 75.6524C151.964 75.1311 151.792 74.5015 151.792 73.7637C151.792 73.1144 151.919 72.5881 152.175 72.1848C152.431 71.7765 152.773 71.4568 153.201 71.2256C153.629 70.9945 154.101 70.8223 154.617 70.7092C155.139 70.5911 155.663 70.4977 156.189 70.4288C156.877 70.3403 157.436 70.2739 157.864 70.2296C158.296 70.1804 158.611 70.0993 158.808 69.9861C159.01 69.873 159.11 69.6763 159.11 69.3959V69.3369C159.11 68.6089 158.911 68.0433 158.513 67.6399C158.119 67.2366 157.522 67.0349 156.72 67.0349C155.889 67.0349 155.237 67.2169 154.765 67.5809C154.293 67.9449 153.961 68.3335 153.769 68.7466L152.116 68.1564C152.411 67.4678 152.805 66.9316 153.297 66.548C153.793 66.1594 154.334 65.8889 154.92 65.7364C155.51 65.579 156.09 65.5003 156.661 65.5003C157.025 65.5003 157.443 65.5446 157.915 65.6331C158.392 65.7167 158.852 65.8913 159.295 66.1569C159.743 66.4226 160.114 66.8234 160.409 67.3596C160.704 67.8957 160.852 68.6138 160.852 69.5139V76.9805H159.11V75.4458H159.022C158.904 75.6918 158.707 75.9549 158.432 76.2353C158.156 76.5157 157.79 76.7542 157.332 76.951C156.875 77.1477 156.317 77.2461 155.658 77.2461ZM155.923 75.6819C156.612 75.6819 157.192 75.5467 157.664 75.2762C158.142 75.0056 158.501 74.6564 158.742 74.2285C158.988 73.8006 159.11 73.3505 159.11 72.8783V71.2847C159.037 71.3732 158.874 71.4543 158.624 71.5281C158.378 71.597 158.092 71.6585 157.768 71.7126C157.448 71.7618 157.136 71.806 156.831 71.8454C156.531 71.8798 156.287 71.9093 156.1 71.9339C155.648 71.9929 155.225 72.0889 154.831 72.2217C154.443 72.3495 154.128 72.5438 153.887 72.8045C153.651 73.0603 153.533 73.4095 153.533 73.8522C153.533 74.4572 153.757 74.9146 154.204 75.2245C154.657 75.5295 155.23 75.6819 155.923 75.6819ZM162.488 67.271V65.6479H171.696V67.271H167.977V76.9805H166.236V67.271H162.488ZM178.251 77.2166C177.228 77.2166 176.33 76.9731 175.558 76.4861C174.791 75.9992 174.191 75.318 173.758 74.4424C173.33 73.5669 173.116 72.5438 173.116 71.3732C173.116 70.1927 173.33 69.1623 173.758 68.2818C174.191 67.4014 174.791 66.7177 175.558 66.2307C176.33 65.7438 177.228 65.5003 178.251 65.5003C179.274 65.5003 180.169 65.7438 180.936 66.2307C181.709 66.7177 182.309 67.4014 182.737 68.2818C183.17 69.1623 183.386 70.1927 183.386 71.3732C183.386 72.5438 183.17 73.5669 182.737 74.4424C182.309 75.318 181.709 75.9992 180.936 76.4861C180.169 76.9731 179.274 77.2166 178.251 77.2166ZM178.251 75.6524C179.028 75.6524 179.667 75.4532 180.169 75.0548C180.671 74.6564 181.042 74.1326 181.283 73.4833C181.524 72.834 181.645 72.1307 181.645 71.3732C181.645 70.6157 181.524 69.9099 181.283 69.2557C181.042 68.6015 180.671 68.0728 180.169 67.6694C179.667 67.2661 179.028 67.0644 178.251 67.0644C177.474 67.0644 176.834 67.2661 176.333 67.6694C175.831 68.0728 175.46 68.6015 175.219 69.2557C174.977 69.9099 174.857 70.6157 174.857 71.3732C174.857 72.1307 174.977 72.834 175.219 73.4833C175.46 74.1326 175.831 74.6564 176.333 75.0548C176.834 75.4532 177.474 75.6524 178.251 75.6524ZM196.639 77.2166C195.547 77.2166 194.605 76.9756 193.813 76.4935C193.026 76.0066 192.418 75.3278 191.991 74.4572C191.568 73.5817 191.356 72.5635 191.356 71.4027C191.356 70.2419 191.568 69.2188 191.991 68.3335C192.418 67.4432 193.014 66.7496 193.776 66.2529C194.543 65.7512 195.439 65.5003 196.462 65.5003C197.052 65.5003 197.635 65.5987 198.21 65.7954C198.786 65.9922 199.31 66.3119 199.782 66.7546C200.254 67.1923 200.63 67.7727 200.911 68.4958C201.191 69.2188 201.331 70.1091 201.331 71.1666V71.9044H192.596V70.3993H199.56C199.56 69.7599 199.432 69.1893 199.177 68.6876C198.926 68.1859 198.567 67.7899 198.1 67.4997C197.637 67.2095 197.091 67.0644 196.462 67.0644C195.768 67.0644 195.168 67.2366 194.661 67.5809C194.16 67.9203 193.774 68.363 193.503 68.9089C193.233 69.4549 193.097 70.0402 193.097 70.6649V71.6683C193.097 72.5242 193.245 73.2497 193.54 73.8448C193.84 74.4351 194.256 74.8851 194.787 75.195C195.318 75.5 195.935 75.6524 196.639 75.6524C197.096 75.6524 197.509 75.5885 197.878 75.4606C198.252 75.3278 198.574 75.1311 198.845 74.8704C199.115 74.6048 199.324 74.2752 199.472 73.8817L201.154 74.3539C200.977 74.9245 200.679 75.4262 200.261 75.859C199.843 76.2869 199.327 76.6214 198.712 76.8624C198.097 77.0985 197.406 77.2166 196.639 77.2166ZM208.584 77.2166C207.521 77.2166 206.606 76.9657 205.839 76.464C205.072 75.9623 204.481 75.2712 204.068 74.3908C203.655 73.5104 203.449 72.5045 203.449 71.3732C203.449 70.2222 203.66 69.2065 204.083 68.3261C204.511 67.4407 205.106 66.7496 205.869 66.2529C206.636 65.7512 207.531 65.5003 208.554 65.5003C209.351 65.5003 210.069 65.6479 210.709 65.943C211.348 66.2381 211.872 66.6513 212.28 67.1825C212.688 67.7137 212.942 68.3335 213.04 69.0417H211.299C211.166 68.5253 210.871 68.0678 210.413 67.6694C209.961 67.2661 209.351 67.0644 208.584 67.0644C207.905 67.0644 207.31 67.2415 206.798 67.5957C206.292 67.9449 205.896 68.4392 205.61 69.0786C205.33 69.7131 205.19 70.4583 205.19 71.3142C205.19 72.1897 205.328 72.9521 205.603 73.6013C205.883 74.2506 206.277 74.7548 206.783 75.1138C207.295 75.4729 207.895 75.6524 208.584 75.6524C209.036 75.6524 209.447 75.5737 209.816 75.4163C210.185 75.2589 210.497 75.0327 210.753 74.7376C211.009 74.4424 211.191 74.0883 211.299 73.6751H213.04C212.942 74.3441 212.698 74.9466 212.31 75.4827C211.926 76.014 211.417 76.437 210.782 76.7518C210.153 77.0616 209.42 77.2166 208.584 77.2166ZM214.693 67.271V65.6479H223.9V67.271H220.182V76.9805H218.441V67.271H214.693ZM227.945 69.75H231.192C232.52 69.75 233.535 70.087 234.239 70.7608C234.942 71.4347 235.294 72.2881 235.294 73.321C235.294 73.9998 235.136 74.6171 234.822 75.1729C234.507 75.7237 234.045 76.164 233.435 76.4935C232.825 76.8182 232.077 76.9805 231.192 76.9805H226.44V65.6479H228.181V75.3573H231.192C231.88 75.3573 232.446 75.1753 232.889 74.8113C233.331 74.4474 233.553 73.9801 233.553 73.4095C233.553 72.8094 233.331 72.32 232.889 71.9413C232.446 71.5626 231.88 71.3732 231.192 71.3732H227.945V69.75ZM243.788 76.9805V65.6479H245.529V70.5764H246.68L250.753 65.6479H252.996L248.421 71.1076L253.055 76.9805H250.812L247.093 72.1995H245.529V76.9805H243.788ZM256.068 81.2302C255.773 81.2302 255.51 81.2056 255.279 81.1564C255.048 81.1121 254.888 81.0679 254.799 81.0236L255.242 79.489C255.665 79.5972 256.039 79.6365 256.364 79.607C256.688 79.5775 256.976 79.4324 257.227 79.1717C257.483 78.916 257.716 78.5003 257.928 77.9249L258.252 77.0395L254.062 65.6479H255.95L259.079 74.6785H259.197L262.325 65.6479H264.214L259.403 78.6331C259.187 79.2185 258.919 79.703 258.599 80.0866C258.279 80.4752 257.908 80.7629 257.485 80.9498C257.067 81.1367 256.595 81.2302 256.068 81.2302ZM274.903 65.6479V76.9805H273.161V65.6479H274.903ZM274.224 71.0486V72.6717C273.83 72.8193 273.439 72.9496 273.051 73.0628C272.662 73.171 272.254 73.257 271.826 73.321C271.398 73.38 270.928 73.4095 270.417 73.4095C269.133 73.4095 268.103 73.0628 267.325 72.3692C266.553 71.6757 266.167 70.6354 266.167 69.2483V65.6184H267.908V69.2483C267.908 69.8287 268.019 70.3058 268.24 70.6797C268.462 71.0535 268.762 71.3314 269.14 71.5134C269.519 71.6954 269.945 71.7864 270.417 71.7864C271.155 71.7864 271.821 71.72 272.416 71.5872C273.016 71.4494 273.619 71.2699 274.224 71.0486ZM281.432 77.2461C280.714 77.2461 280.062 77.1108 279.477 76.8403C278.892 76.5648 278.427 76.1689 278.083 75.6524C277.738 75.1311 277.566 74.5015 277.566 73.7637C277.566 73.1144 277.694 72.5881 277.95 72.1848C278.206 71.7765 278.547 71.4568 278.975 71.2256C279.403 70.9945 279.875 70.8223 280.392 70.7092C280.913 70.5911 281.437 70.4977 281.963 70.4288C282.652 70.3403 283.21 70.2739 283.638 70.2296C284.071 70.1804 284.386 70.0993 284.583 69.9861C284.784 69.873 284.885 69.6763 284.885 69.3959V69.3369C284.885 68.6089 284.686 68.0433 284.287 67.6399C283.894 67.2366 283.296 67.0349 282.495 67.0349C281.663 67.0349 281.012 67.2169 280.539 67.5809C280.067 67.9449 279.735 68.3335 279.543 68.7466L277.891 68.1564C278.186 67.4678 278.579 66.9316 279.071 66.548C279.568 66.1594 280.109 65.8889 280.694 65.7364C281.285 65.579 281.865 65.5003 282.436 65.5003C282.8 65.5003 283.218 65.5446 283.69 65.6331C284.167 65.7167 284.627 65.8913 285.07 66.1569C285.517 66.4226 285.888 66.8234 286.184 67.3596C286.479 67.8957 286.626 68.6138 286.626 69.5139V76.9805H284.885V75.4458H284.797C284.678 75.6918 284.482 75.9549 284.206 76.2353C283.931 76.5157 283.564 76.7542 283.107 76.951C282.65 77.1477 282.091 77.2461 281.432 77.2461ZM281.698 75.6819C282.386 75.6819 282.967 75.5467 283.439 75.2762C283.916 75.0056 284.275 74.6564 284.516 74.2285C284.762 73.8006 284.885 73.3505 284.885 72.8783V71.2847C284.811 71.3732 284.649 71.4543 284.398 71.5281C284.152 71.597 283.867 71.6585 283.542 71.7126C283.223 71.7618 282.91 71.806 282.605 71.8454C282.305 71.8798 282.062 71.9093 281.875 71.9339C281.422 71.9929 280.999 72.0889 280.606 72.2217C280.217 72.3495 279.902 72.5438 279.661 72.8045C279.425 73.0603 279.307 73.4095 279.307 73.8522C279.307 74.4572 279.531 74.9146 279.979 75.2245C280.431 75.5295 281.004 75.6819 281.698 75.6819ZM294.438 80.2268V75.3573H295.382C295.613 75.1163 295.812 74.8556 295.98 74.5752C296.147 74.2949 296.292 73.9629 296.415 73.5792C296.543 73.1906 296.651 72.7184 296.74 72.1626C296.828 71.6019 296.907 70.9256 296.976 70.1337L297.359 65.6479H304.56V75.3573H306.302V80.2268H304.56V76.9805H296.179V80.2268H294.438ZM297.359 75.3573H302.819V67.271H298.983L298.687 70.1337C298.564 71.3191 298.412 72.3545 298.23 73.2398C298.048 74.1252 297.758 74.831 297.359 75.3573ZM308.613 81.2302V65.6479H310.295V67.4481H310.501C310.629 67.2513 310.806 67.0005 311.033 66.6955C311.264 66.3857 311.593 66.1102 312.021 65.8692C312.454 65.6233 313.04 65.5003 313.777 65.5003C314.732 65.5003 315.573 65.7389 316.301 66.216C317.029 66.6931 317.597 67.3694 318.005 68.2449C318.413 69.1204 318.617 70.1534 318.617 71.3437C318.617 72.5438 318.413 73.5841 318.005 74.4646C317.597 75.3401 317.031 76.0189 316.308 76.5009C315.585 76.978 314.751 77.2166 313.807 77.2166C313.079 77.2166 312.496 77.0961 312.058 76.855C311.62 76.6091 311.284 76.3312 311.047 76.0213C310.811 75.7065 310.629 75.4458 310.501 75.2393H310.354V81.2302H308.613ZM310.324 71.3142C310.324 72.17 310.45 72.925 310.701 73.5792C310.952 74.2285 311.318 74.7376 311.8 75.1065C312.282 75.4704 312.872 75.6524 313.571 75.6524C314.299 75.6524 314.906 75.4606 315.393 75.0769C315.885 74.6884 316.254 74.167 316.5 73.5128C316.751 72.8537 316.876 72.1208 316.876 71.3142C316.876 70.5173 316.753 69.7992 316.507 69.1598C316.266 68.5154 315.9 68.0064 315.408 67.6325C314.921 67.2538 314.309 67.0644 313.571 67.0644C312.862 67.0644 312.267 67.244 311.785 67.603C311.303 67.9572 310.939 68.454 310.693 69.0934C310.447 69.7279 310.324 70.4682 310.324 71.3142ZM321.989 81.2302C321.694 81.2302 321.431 81.2056 321.2 81.1564C320.968 81.1121 320.809 81.0679 320.72 81.0236L321.163 79.489C321.586 79.5972 321.96 79.6365 322.284 79.607C322.609 79.5775 322.897 79.4324 323.147 79.1717C323.403 78.916 323.637 78.5003 323.848 77.9249L324.173 77.0395L319.982 65.6479H321.871L324.999 74.6785H325.117L328.246 65.6479H330.134L325.324 78.6331C325.107 79.2185 324.839 79.703 324.52 80.0866C324.2 80.4752 323.829 80.7629 323.406 80.9498C322.988 81.1367 322.515 81.2302 321.989 81.2302ZM339.427 65.6479V67.271H334.174V76.9805H332.433V65.6479H339.427ZM343.71 74.4129L349.17 65.6479H351.176V76.9805H349.435V68.2154L344.005 76.9805H341.969V65.6479H343.71V74.4129ZM355.664 65.6479L358.379 70.2812L361.094 65.6479H363.101L359.442 71.3142L363.101 76.9805H361.094L358.379 72.5832L355.664 76.9805H353.657L357.258 71.3142L353.657 65.6479H355.664ZM379.014 70.5173V72.1405H372.757V70.5173H379.014ZM373.17 65.6479V76.9805H371.429V65.6479H373.17ZM380.342 65.6479V76.9805H378.6V65.6479H380.342ZM386.856 77.2461C386.138 77.2461 385.487 77.1108 384.901 76.8403C384.316 76.5648 383.851 76.1689 383.507 75.6524C383.162 75.1311 382.99 74.5015 382.99 73.7637C382.99 73.1144 383.118 72.5881 383.374 72.1848C383.63 71.7765 383.972 71.4568 384.4 71.2256C384.827 70.9945 385.3 70.8223 385.816 70.7092C386.337 70.5911 386.861 70.4977 387.388 70.4288C388.076 70.3403 388.634 70.2739 389.062 70.2296C389.495 70.1804 389.81 70.0993 390.007 69.9861C390.208 69.873 390.309 69.6763 390.309 69.3959V69.3369C390.309 68.6089 390.11 68.0433 389.712 67.6399C389.318 67.2366 388.721 67.0349 387.919 67.0349C387.088 67.0349 386.436 67.2169 385.964 67.5809C385.491 67.9449 385.159 68.3335 384.968 68.7466L383.315 68.1564C383.61 67.4678 384.004 66.9316 384.495 66.548C384.992 66.1594 385.533 65.8889 386.119 65.7364C386.709 65.579 387.289 65.5003 387.86 65.5003C388.224 65.5003 388.642 65.5446 389.114 65.6331C389.591 65.7167 390.051 65.8913 390.494 66.1569C390.941 66.4226 391.313 66.8234 391.608 67.3596C391.903 67.8957 392.05 68.6138 392.05 69.5139V76.9805H390.309V75.4458H390.221C390.103 75.6918 389.906 75.9549 389.631 76.2353C389.355 76.5157 388.989 76.7542 388.531 76.951C388.074 77.1477 387.515 77.2461 386.856 77.2461ZM387.122 75.6819C387.811 75.6819 388.391 75.5467 388.863 75.2762C389.34 75.0056 389.699 74.6564 389.94 74.2285C390.186 73.8006 390.309 73.3505 390.309 72.8783V71.2847C390.235 71.3732 390.073 71.4543 389.822 71.5281C389.576 71.597 389.291 71.6585 388.966 71.7126C388.647 71.7618 388.334 71.806 388.029 71.8454C387.729 71.8798 387.486 71.9093 387.299 71.9339C386.847 71.9929 386.424 72.0889 386.03 72.2217C385.641 72.3495 385.327 72.5438 385.086 72.8045C384.85 73.0603 384.732 73.4095 384.732 73.8522C384.732 74.4572 384.955 74.9146 385.403 75.2245C385.855 75.5295 386.428 75.6819 387.122 75.6819ZM401.072 76.9805V65.6479H409.985V76.9805H408.243V67.271H402.813V76.9805H401.072ZM417.768 77.2166C416.745 77.2166 415.848 76.9731 415.075 76.4861C414.308 75.9992 413.708 75.318 413.275 74.4424C412.847 73.5669 412.633 72.5438 412.633 71.3732C412.633 70.1927 412.847 69.1623 413.275 68.2818C413.708 67.4014 414.308 66.7177 415.075 66.2307C415.848 65.7438 416.745 65.5003 417.768 65.5003C418.791 65.5003 419.687 65.7438 420.454 66.2307C421.226 66.7177 421.826 67.4014 422.254 68.2818C422.687 69.1623 422.903 70.1927 422.903 71.3732C422.903 72.5438 422.687 73.5669 422.254 74.4424C421.826 75.318 421.226 75.9992 420.454 76.4861C419.687 76.9731 418.791 77.2166 417.768 77.2166ZM417.768 75.6524C418.545 75.6524 419.185 75.4532 419.687 75.0548C420.188 74.6564 420.56 74.1326 420.801 73.4833C421.042 72.834 421.162 72.1307 421.162 71.3732C421.162 70.6157 421.042 69.9099 420.801 69.2557C420.56 68.6015 420.188 68.0728 419.687 67.6694C419.185 67.2661 418.545 67.0644 417.768 67.0644C416.991 67.0644 416.352 67.2661 415.85 67.6694C415.348 68.0728 414.977 68.6015 414.736 69.2557C414.495 69.9099 414.374 70.6157 414.374 71.3732C414.374 72.1307 414.495 72.834 414.736 73.4833C414.977 74.1326 415.348 74.6564 415.85 75.0548C416.352 75.4532 416.991 75.6524 417.768 75.6524ZM434.297 65.6479V76.9805H432.556V65.6479H434.297ZM433.618 71.0486V72.6717C433.225 72.8193 432.834 72.9496 432.445 73.0628C432.056 73.171 431.648 73.257 431.22 73.321C430.792 73.38 430.323 73.4095 429.811 73.4095C428.527 73.4095 427.497 73.0628 426.72 72.3692C425.947 71.6757 425.561 70.6354 425.561 69.2483V65.6184H427.303V69.2483C427.303 69.8287 427.413 70.3058 427.635 70.6797C427.856 71.0535 428.156 71.3314 428.535 71.5134C428.913 71.6954 429.339 71.7864 429.811 71.7864C430.549 71.7864 431.215 71.72 431.811 71.5872C432.411 71.4494 433.013 71.2699 433.618 71.0486ZM439.233 74.4129L444.692 65.6479H446.699V76.9805H444.958V68.2154L439.528 76.9805H437.492V65.6479H439.233V74.4129ZM448.346 67.271V65.6479H457.554V67.271H453.836V76.9805H452.094V67.271H448.346ZM462.841 77.2461C462.122 77.2461 461.471 77.1108 460.885 76.8403C460.3 76.5648 459.835 76.1689 459.491 75.6524C459.147 75.1311 458.974 74.5015 458.974 73.7637C458.974 73.1144 459.102 72.5881 459.358 72.1848C459.614 71.7765 459.956 71.4568 460.384 71.2256C460.812 70.9945 461.284 70.8223 461.8 70.7092C462.322 70.5911 462.845 70.4977 463.372 70.4288C464.06 70.3403 464.619 70.2739 465.047 70.2296C465.479 70.1804 465.794 70.0993 465.991 69.9861C466.193 69.873 466.293 69.6763 466.293 69.3959V69.3369C466.293 68.6089 466.094 68.0433 465.696 67.6399C465.302 67.2366 464.705 67.0349 463.903 67.0349C463.072 67.0349 462.42 67.2169 461.948 67.5809C461.476 67.9449 461.144 68.3335 460.952 68.7466L459.299 68.1564C459.594 67.4678 459.988 66.9316 460.48 66.548C460.976 66.1594 461.517 65.8889 462.103 65.7364C462.693 65.579 463.273 65.5003 463.844 65.5003C464.208 65.5003 464.626 65.5446 465.098 65.6331C465.575 65.7167 466.035 65.8913 466.478 66.1569C466.925 66.4226 467.297 66.8234 467.592 67.3596C467.887 67.8957 468.035 68.6138 468.035 69.5139V76.9805H466.293V75.4458H466.205C466.087 75.6918 465.89 75.9549 465.615 76.2353C465.339 76.5157 464.973 76.7542 464.515 76.951C464.058 77.1477 463.5 77.2461 462.841 77.2461ZM463.106 75.6819C463.795 75.6819 464.375 75.5467 464.847 75.2762C465.324 75.0056 465.684 74.6564 465.925 74.2285C466.17 73.8006 466.293 73.3505 466.293 72.8783V71.2847C466.22 71.3732 466.057 71.4543 465.806 71.5281C465.561 71.597 465.275 71.6585 464.951 71.7126C464.631 71.7618 464.319 71.806 464.014 71.8454C463.714 71.8798 463.47 71.9093 463.283 71.9339C462.831 71.9929 462.408 72.0889 462.014 72.2217C461.626 72.3495 461.311 72.5438 461.07 72.8045C460.834 73.0603 460.716 73.4095 460.716 73.8522C460.716 74.4572 460.939 74.9146 461.387 75.2245C461.84 75.5295 462.413 75.6819 463.106 75.6819ZM469.671 67.271V65.6479H478.878V67.271H475.16V76.9805H473.419V67.271H469.671ZM482.923 69.75H486.17C487.498 69.75 488.513 70.087 489.217 70.7608C489.92 71.4347 490.272 72.2881 490.272 73.321C490.272 73.9998 490.115 74.6171 489.8 75.1729C489.485 75.7237 489.023 76.164 488.413 76.4935C487.803 76.8182 487.055 76.9805 486.17 76.9805H481.418V65.6479H483.16V75.3573H486.17C486.858 75.3573 487.424 75.1753 487.867 74.8113C488.309 74.4474 488.531 73.9801 488.531 73.4095C488.531 72.8094 488.309 72.32 487.867 71.9413C487.424 71.5626 486.858 71.3732 486.17 71.3732H482.923V69.75ZM495.224 61.8703L495.077 72.7307H493.365L493.218 61.8703H495.224ZM494.221 77.0985C493.857 77.0985 493.545 76.9682 493.284 76.7075C493.023 76.4468 492.893 76.1345 492.893 75.7705C492.893 75.4065 493.023 75.0942 493.284 74.8335C493.545 74.5728 493.857 74.4424 494.221 74.4424C494.585 74.4424 494.897 74.5728 495.158 74.8335C495.419 75.0942 495.549 75.4065 495.549 75.7705C495.549 76.0115 495.488 76.2328 495.365 76.4345C495.247 76.6362 495.087 76.7985 494.885 76.9214C494.688 77.0395 494.467 77.0985 494.221 77.0985Z" fill="black"/>
<path d="M511.104 80.4711C510.371 80.4711 509.747 80.2717 509.231 79.873C508.716 79.471 508.322 78.8891 508.05 78.1272C507.777 77.3621 507.641 76.4382 507.641 75.3554C507.641 74.279 507.777 73.3599 508.05 72.5981C508.325 71.833 508.721 71.2494 509.236 70.8474C509.755 70.4422 510.377 70.2396 511.104 70.2396C511.83 70.2396 512.451 70.4422 512.966 70.8474C513.485 71.2494 513.88 71.833 514.153 72.5981C514.428 73.3599 514.566 74.279 514.566 75.3554C514.566 76.4382 514.43 77.3621 514.157 78.1272C513.885 78.8891 513.491 79.471 512.976 79.873C512.46 80.2717 511.836 80.4711 511.104 80.4711ZM511.104 79.4013C511.83 79.4013 512.394 79.0512 512.796 78.3509C513.198 77.6506 513.399 76.6521 513.399 75.3554C513.399 74.493 513.306 73.7587 513.122 73.1525C512.94 72.5462 512.678 72.0842 512.334 71.7665C511.993 71.4488 511.583 71.29 511.104 71.29C510.384 71.29 509.821 71.645 509.416 72.3549C509.011 73.0617 508.808 74.0618 508.808 75.3554C508.808 76.2177 508.899 76.9504 509.081 77.5534C509.262 78.1564 509.523 78.6151 509.864 78.9296C510.207 79.2441 510.621 79.4013 511.104 79.4013ZM519.33 80.4711C518.662 80.4711 518.072 80.3528 517.56 80.1161C517.051 79.8762 516.654 79.5472 516.369 79.129C516.083 78.7075 515.942 78.2277 515.945 77.6895C515.942 77.2681 516.025 76.8791 516.193 76.5224C516.362 76.1626 516.592 75.8627 516.884 75.6228C517.179 75.3797 517.508 75.2257 517.871 75.1608V75.1025C517.395 74.9793 517.015 74.7118 516.733 74.3001C516.451 73.8851 516.312 73.4134 516.315 72.885C516.312 72.3793 516.44 71.927 516.699 71.5282C516.959 71.1295 517.315 70.815 517.769 70.5848C518.226 70.3547 518.746 70.2396 519.33 70.2396C519.907 70.2396 520.423 70.3547 520.876 70.5848C521.33 70.815 521.687 71.1295 521.946 71.5282C522.209 71.927 522.342 72.3793 522.345 72.885C522.342 73.4134 522.198 73.8851 521.912 74.3001C521.63 74.7118 521.256 74.9793 520.789 75.1025V75.1608C521.149 75.2257 521.473 75.3797 521.761 75.6228C522.05 75.8627 522.28 76.1626 522.452 76.5224C522.624 76.8791 522.711 77.2681 522.715 77.6895C522.711 78.2277 522.565 78.7075 522.277 79.129C521.992 79.5472 521.595 79.8762 521.086 80.1161C520.58 80.3528 519.995 80.4711 519.33 80.4711ZM519.33 79.4013C519.781 79.4013 520.17 79.3283 520.497 79.1825C520.825 79.0366 521.077 78.8307 521.256 78.5649C521.434 78.299 521.525 77.9878 521.528 77.6312C521.525 77.2551 521.428 76.9228 521.236 76.6343C521.045 76.3458 520.784 76.1188 520.453 75.9535C520.126 75.7881 519.751 75.7055 519.33 75.7055C518.905 75.7055 518.526 75.7881 518.192 75.9535C517.861 76.1188 517.6 76.3458 517.409 76.6343C517.221 76.9228 517.129 77.2551 517.132 77.6312C517.129 77.9878 517.215 78.299 517.39 78.5649C517.568 78.8307 517.823 79.0366 518.153 79.1825C518.484 79.3283 518.876 79.4013 519.33 79.4013ZM519.33 74.6745C519.687 74.6745 520.003 74.6032 520.278 74.4606C520.557 74.3179 520.776 74.1186 520.935 73.8624C521.094 73.6063 521.175 73.3064 521.178 72.9628C521.175 72.6256 521.095 72.3322 520.94 72.0826C520.784 71.8297 520.568 71.6352 520.293 71.4991C520.017 71.3597 519.696 71.29 519.33 71.29C518.957 71.29 518.631 71.3597 518.353 71.4991C518.074 71.6352 517.858 71.8297 517.706 72.0826C517.553 72.3322 517.479 72.6256 517.482 72.9628C517.479 73.3064 517.555 73.6063 517.711 73.8624C517.87 74.1186 518.088 74.3179 518.367 74.4606C518.646 74.6032 518.967 74.6745 519.33 74.6745ZM525.16 79.0609C524.92 79.0609 524.715 78.975 524.543 78.8031C524.371 78.6313 524.285 78.4255 524.285 78.1856C524.285 77.9457 524.371 77.7398 524.543 77.568C524.715 77.3961 524.92 77.3102 525.16 77.3102C525.4 77.3102 525.606 77.3961 525.778 77.568C525.95 77.7398 526.036 77.9457 526.036 78.1856C526.036 78.3444 525.995 78.4903 525.914 78.6232C525.836 78.7561 525.731 78.8631 525.598 78.9442C525.468 79.022 525.322 79.0609 525.16 79.0609ZM525.16 74.0229C524.92 74.0229 524.715 73.937 524.543 73.7652C524.371 73.5934 524.285 73.3875 524.285 73.1476C524.285 72.9077 524.371 72.7018 524.543 72.53C524.715 72.3582 524.92 72.2723 525.16 72.2723C525.4 72.2723 525.606 72.3582 525.778 72.53C525.95 72.7018 526.036 72.9077 526.036 73.1476C526.036 73.3065 525.995 73.4523 525.914 73.5853C525.836 73.7182 525.731 73.8252 525.598 73.9062C525.468 73.984 525.322 74.0229 525.16 74.0229ZM527.568 78.2925V77.3005L531.945 70.3757H532.665V71.9124H532.178L528.872 77.1449V77.2227H534.765V78.2925H527.568ZM532.256 80.335V77.991V77.5291V70.3757H533.404V80.335H532.256ZM539.681 70.3757V80.335H538.475V71.6401H538.417L535.986 73.2546V72.0291L538.475 70.3757H539.681Z" fill="#421DFF"/>
<path d="M559.079 71.3781C559.298 71.2276 559.601 71.2469 559.8 71.4387C560.027 71.6582 560.034 72.0209 559.814 72.2483L550.906 81.4748C550.796 81.5892 550.642 81.6527 550.483 81.6496C550.324 81.6465 550.173 81.5769 550.067 81.4582L546.091 77.0041L546.517 76.6233L546.944 76.2414L550.511 80.2356L558.991 71.4533L559.079 71.3781ZM546.137 76.1955C546.372 75.9855 546.734 76.0061 546.944 76.2414L546.091 77.0041C545.88 76.7683 545.901 76.4061 546.137 76.1955Z" fill="#421DFF"/>
<path d="M562.134 71.299C562.353 71.1485 562.655 71.1678 562.854 71.3596C563.082 71.5791 563.088 71.9418 562.869 72.1692L553.961 81.3957C553.85 81.5101 553.697 81.5736 553.538 81.5705C553.379 81.5674 553.228 81.4978 553.122 81.3791L549.145 76.925L549.572 76.5442L549.999 76.1623L553.565 80.1565L562.046 71.3742L562.134 71.299ZM549.191 76.1164C549.427 75.9064 549.788 75.927 549.999 76.1623L549.145 76.925C548.935 76.6892 548.955 76.3269 549.191 76.1164Z" fill="#421DFF"/>
<path opacity="0.8" d="M41.875 97C35.4827 97 32.2864 96.9999 29.6543 97.6592C21.78 99.6316 15.6316 105.78 13.6592 113.654C12.9999 116.286 13 119.483 13 125.875C13 128.781 13.0001 130.233 13.2998 131.43C14.1964 135.009 16.9911 137.804 20.5703 138.7C21.7667 139 23.2195 139 26.125 139H122.043C123.069 139 123.582 139 124.016 138.981C134.321 138.531 142.574 130.278 143.024 119.973C143.043 119.539 143.043 119.026 143.043 118C143.043 116.974 143.043 116.461 143.024 116.027C142.574 105.722 134.321 97.4685 124.016 97.0186C123.582 96.9996 123.069 97 122.043 97H41.875Z" fill="#BCA4FF"/>
<path d="M92.0625 130.129C91.367 130.129 90.7745 129.94 90.2852 129.561C89.7958 129.18 89.4219 128.627 89.1634 127.904C88.9048 127.178 88.7756 126.301 88.7756 125.273C88.7756 124.251 88.9048 123.378 89.1634 122.655C89.425 121.929 89.8004 121.375 90.2898 120.993C90.7822 120.609 91.3731 120.416 92.0625 120.416C92.7519 120.416 93.3413 120.609 93.8306 120.993C94.323 121.375 94.6985 121.929 94.957 122.655C95.2186 123.378 95.3494 124.251 95.3494 125.273C95.3494 126.301 95.2202 127.178 94.9616 127.904C94.7031 128.627 94.3292 129.18 93.8398 129.561C93.3505 129.94 92.758 130.129 92.0625 130.129ZM92.0625 129.114C92.7519 129.114 93.2874 128.781 93.669 128.116C94.0507 127.452 94.2415 126.504 94.2415 125.273C94.2415 124.454 94.1538 123.757 93.9783 123.181C93.806 122.606 93.5567 122.167 93.2305 121.866C92.9073 121.564 92.518 121.413 92.0625 121.413C91.3793 121.413 90.8453 121.75 90.4606 122.424C90.0759 123.095 89.8835 124.045 89.8835 125.273C89.8835 126.091 89.9697 126.787 90.142 127.359C90.3144 127.932 90.5621 128.367 90.8853 128.666C91.2115 128.964 91.6039 129.114 92.0625 129.114ZM99.8721 130.129C99.2381 130.129 98.678 130.017 98.1917 129.792C97.7085 129.565 97.3315 129.252 97.0607 128.855C96.7898 128.455 96.656 128 96.659 127.489C96.656 127.089 96.7344 126.719 96.8945 126.381C97.0545 126.039 97.273 125.754 97.55 125.527C97.8301 125.296 98.1425 125.15 98.4872 125.088V125.033C98.0347 124.916 97.6747 124.662 97.4069 124.271C97.1391 123.877 97.0068 123.429 97.0099 122.928C97.0068 122.447 97.1284 122.018 97.3746 121.64C97.6208 121.261 97.9593 120.962 98.3902 120.744C98.8242 120.525 99.3181 120.416 99.8721 120.416C100.42 120.416 100.909 120.525 101.34 120.744C101.771 120.962 102.11 121.261 102.356 121.64C102.605 122.018 102.731 122.447 102.734 122.928C102.731 123.429 102.594 123.877 102.323 124.271C102.056 124.662 101.7 124.916 101.257 125.033V125.088C101.599 125.15 101.906 125.296 102.18 125.527C102.454 125.754 102.673 126.039 102.836 126.381C102.999 126.719 103.082 127.089 103.085 127.489C103.082 128 102.944 128.455 102.67 128.855C102.399 129.252 102.022 129.565 101.539 129.792C101.059 130.017 100.503 130.129 99.8721 130.129ZM99.8721 129.114C100.3 129.114 100.669 129.044 100.98 128.906C101.291 128.767 101.531 128.572 101.7 128.32C101.869 128.067 101.956 127.772 101.959 127.433C101.956 127.076 101.863 126.761 101.682 126.487C101.5 126.213 101.252 125.998 100.939 125.841C100.628 125.684 100.272 125.605 99.8721 125.605C99.4689 125.605 99.1088 125.684 98.7918 125.841C98.4779 125.998 98.2302 126.213 98.0486 126.487C97.8701 126.761 97.7824 127.076 97.7855 127.433C97.7824 127.772 97.8639 128.067 98.0301 128.32C98.1994 128.572 98.441 128.767 98.7549 128.906C99.0688 129.044 99.4412 129.114 99.8721 129.114ZM99.8721 124.626C100.211 124.626 100.511 124.559 100.772 124.423C101.037 124.288 101.245 124.099 101.396 123.855C101.546 123.612 101.623 123.328 101.626 123.001C101.623 122.681 101.548 122.403 101.4 122.166C101.252 121.926 101.048 121.741 100.786 121.612C100.525 121.48 100.22 121.413 99.8721 121.413C99.5182 121.413 99.2089 121.48 98.9442 121.612C98.6795 121.741 98.4748 121.926 98.3302 122.166C98.1855 122.403 98.1148 122.681 98.1178 123.001C98.1148 123.328 98.1871 123.612 98.3348 123.855C98.4856 124.099 98.6934 124.288 98.958 124.423C99.2227 124.559 99.5274 124.626 99.8721 124.626ZM105.407 128.79C105.179 128.79 104.984 128.709 104.821 128.546C104.658 128.383 104.576 128.187 104.576 127.96C104.576 127.732 104.658 127.536 104.821 127.373C104.984 127.21 105.179 127.129 105.407 127.129C105.635 127.129 105.83 127.21 105.993 127.373C106.156 127.536 106.238 127.732 106.238 127.96C106.238 128.11 106.199 128.249 106.122 128.375C106.049 128.501 105.949 128.603 105.822 128.68C105.699 128.754 105.561 128.79 105.407 128.79ZM105.407 124.008C105.179 124.008 104.984 123.926 104.821 123.763C104.658 123.6 104.576 123.405 104.576 123.177C104.576 122.949 104.658 122.754 104.821 122.591C104.984 122.427 105.179 122.346 105.407 122.346C105.635 122.346 105.83 122.427 105.993 122.591C106.156 122.754 106.238 122.949 106.238 123.177C106.238 123.328 106.199 123.466 106.122 123.592C106.049 123.719 105.949 123.82 105.822 123.897C105.699 123.971 105.561 124.008 105.407 124.008ZM107.693 128.061V127.119L111.848 120.545H112.531V122.004H112.069L108.93 126.972V127.045H114.525V128.061H107.693ZM112.143 130V127.775V127.336V120.545H113.233V130H112.143ZM119.135 130.129C118.747 130.123 118.359 130.049 117.971 129.908C117.583 129.766 117.229 129.528 116.909 129.192C116.589 128.854 116.332 128.397 116.138 127.821C115.945 127.242 115.848 126.516 115.848 125.642C115.848 124.805 115.926 124.063 116.083 123.417C116.24 122.768 116.468 122.221 116.766 121.778C117.065 121.332 117.425 120.993 117.847 120.762C118.271 120.532 118.75 120.416 119.282 120.416C119.812 120.416 120.283 120.522 120.695 120.735C121.11 120.944 121.449 121.236 121.711 121.612C121.972 121.987 122.141 122.42 122.218 122.909H121.092C120.987 122.484 120.784 122.132 120.483 121.852C120.181 121.572 119.781 121.432 119.282 121.432C118.55 121.432 117.973 121.75 117.551 122.387C117.133 123.025 116.922 123.919 116.919 125.07H116.992C117.165 124.808 117.37 124.585 117.606 124.4C117.847 124.212 118.111 124.068 118.401 123.966C118.69 123.865 118.996 123.814 119.319 123.814C119.861 123.814 120.356 123.949 120.806 124.22C121.255 124.488 121.615 124.859 121.886 125.333C122.157 125.804 122.292 126.344 122.292 126.953C122.292 127.538 122.161 128.073 121.9 128.56C121.638 129.043 121.27 129.428 120.796 129.714C120.326 129.997 119.772 130.135 119.135 130.129ZM119.135 129.114C119.522 129.114 119.87 129.017 120.178 128.823C120.489 128.629 120.733 128.369 120.912 128.043C121.093 127.716 121.184 127.353 121.184 126.953C121.184 126.562 121.097 126.207 120.921 125.887C120.749 125.564 120.51 125.307 120.206 125.116C119.904 124.925 119.559 124.83 119.171 124.83C118.879 124.83 118.607 124.888 118.354 125.005C118.102 125.119 117.88 125.276 117.69 125.476C117.502 125.676 117.354 125.905 117.246 126.164C117.139 126.419 117.085 126.688 117.085 126.972C117.085 127.347 117.173 127.698 117.348 128.024C117.526 128.35 117.77 128.614 118.077 128.814C118.388 129.014 118.741 129.114 119.135 129.114Z" fill="#421DFF"/>
<path d="M45.0341 117.727C45.0341 119.261 44.7571 120.587 44.2031 121.705C43.6491 122.822 42.8892 123.684 41.9233 124.29C40.9574 124.896 39.8542 125.199 38.6136 125.199C37.3731 125.199 36.2699 124.896 35.304 124.29C34.3381 123.684 33.5781 122.822 33.0241 121.705C32.4702 120.587 32.1932 119.261 32.1932 117.727C32.1932 116.193 32.4702 114.867 33.0241 113.75C33.5781 112.633 34.3381 111.771 35.304 111.165C36.2699 110.559 37.3731 110.256 38.6136 110.256C39.8542 110.256 40.9574 110.559 41.9233 111.165C42.8892 111.771 43.6491 112.633 44.2031 113.75C44.7571 114.867 45.0341 116.193 45.0341 117.727ZM43.3295 117.727C43.3295 116.468 43.1188 115.405 42.6974 114.538C42.2808 113.672 41.715 113.016 41 112.571C40.2898 112.126 39.4943 111.903 38.6136 111.903C37.733 111.903 36.9351 112.126 36.2202 112.571C35.5099 113.016 34.9441 113.672 34.5227 114.538C34.1061 115.405 33.8977 116.468 33.8977 117.727C33.8977 118.987 34.1061 120.05 34.5227 120.916C34.9441 121.783 35.5099 122.438 36.2202 122.884C36.9351 123.329 37.733 123.551 38.6136 123.551C39.4943 123.551 40.2898 123.329 41 122.884C41.715 122.438 42.2808 121.783 42.6974 120.916C43.1188 120.05 43.3295 118.987 43.3295 117.727ZM47.7685 125V114.091H49.4446V118.835H50.5526L54.473 114.091H56.6321L52.2287 119.347L56.6889 125H54.5298L50.9503 120.398H49.4446V125H47.7685ZM61.7209 125.256C61.0296 125.256 60.4022 125.125 59.8388 124.865C59.2753 124.6 58.8279 124.219 58.4964 123.722C58.165 123.22 57.9993 122.614 57.9993 121.903C57.9993 121.278 58.1224 120.772 58.3686 120.384C58.6148 119.991 58.9439 119.683 59.3558 119.46C59.7678 119.238 60.2223 119.072 60.7195 118.963C61.2214 118.849 61.7256 118.759 62.2322 118.693C62.8951 118.608 63.4325 118.544 63.8445 118.501C64.2611 118.454 64.5642 118.376 64.7536 118.267C64.9477 118.158 65.0447 117.969 65.0447 117.699V117.642C65.0447 116.941 64.853 116.397 64.4695 116.009C64.0907 115.62 63.5154 115.426 62.7436 115.426C61.9434 115.426 61.3161 115.601 60.8615 115.952C60.407 116.302 60.0874 116.676 59.9027 117.074L58.3118 116.506C58.5959 115.843 58.9747 115.327 59.4482 114.957C59.9264 114.583 60.4472 114.323 61.0107 114.176C61.5788 114.025 62.1375 113.949 62.6868 113.949C63.0372 113.949 63.4396 113.991 63.8942 114.077C64.3535 114.157 64.7962 114.325 65.2223 114.581C65.6532 114.837 66.0107 115.223 66.2947 115.739C66.5788 116.255 66.7209 116.946 66.7209 117.812V125H65.0447V123.523H64.9595C64.8459 123.759 64.6565 124.013 64.3913 124.283C64.1262 124.553 63.7734 124.782 63.3331 124.972C62.8928 125.161 62.3554 125.256 61.7209 125.256ZM61.9766 123.75C62.6394 123.75 63.1982 123.62 63.6527 123.359C64.112 123.099 64.4576 122.763 64.6896 122.351C64.9264 121.939 65.0447 121.506 65.0447 121.051V119.517C64.9737 119.602 64.8175 119.68 64.576 119.751C64.3393 119.818 64.0646 119.877 63.7521 119.929C63.4444 119.976 63.1437 120.019 62.8501 120.057C62.5613 120.09 62.3269 120.118 62.147 120.142C61.7114 120.199 61.3042 120.291 60.9254 120.419C60.5514 120.542 60.2483 120.729 60.0163 120.98C59.7891 121.226 59.6754 121.562 59.6754 121.989C59.6754 122.571 59.8909 123.011 60.3217 123.31C60.7573 123.603 61.3089 123.75 61.9766 123.75ZM69.7802 125V114.091H71.4563V118.835H72.5643L76.4847 114.091H78.6438L74.2404 119.347L78.7006 125H76.5415L72.962 120.398H71.4563V125H69.7802Z" fill="black"/>
<path opacity="0.8" d="M30.9365 144C28.6035 144 27.4367 144 26.4561 144.117C18.8597 145.026 12.8713 151.014 11.9629 158.61C11.8456 159.591 11.8457 160.758 11.8457 163.091C11.8457 165.89 11.8457 167.29 11.9863 168.467C12.1058 169.466 12.2992 170.442 12.5596 171.389C12.2979 174.118 11.9353 176.569 11.4277 177.687C8.33505 184.497 0.0174831 185.996 0.000976069 185.999C0.0195015 185.999 15.2694 186.089 21.1904 184.503C21.7952 184.341 22.3891 184.158 22.9648 183.961C24.9386 184.931 27.0983 185.587 29.3789 185.859C30.5556 186 31.9555 186 34.7549 186H302C303.026 186 303.539 186 303.973 185.981C314.278 185.531 322.531 177.278 322.981 166.973C323 166.539 323 166.026 323 165C323 163.974 323 163.461 322.981 163.027C322.531 152.722 314.278 144.469 303.973 144.019C303.539 144 303.026 144 302 144H30.9365Z" fill="#BCA4FF"/>
<path d="M273.02 175.937C272.324 175.937 271.732 175.748 271.242 175.369C270.753 174.987 270.379 174.435 270.12 173.712C269.862 172.985 269.733 172.108 269.733 171.08C269.733 170.059 269.862 169.186 270.12 168.463C270.382 167.736 270.757 167.182 271.247 166.801C271.739 166.416 272.33 166.224 273.02 166.224C273.709 166.224 274.298 166.416 274.788 166.801C275.28 167.182 275.656 167.736 275.914 168.463C276.176 169.186 276.306 170.059 276.306 171.08C276.306 172.108 276.177 172.985 275.919 173.712C275.66 174.435 275.286 174.987 274.797 175.369C274.308 175.748 273.715 175.937 273.02 175.937ZM273.02 174.921C273.709 174.921 274.244 174.589 274.626 173.924C275.008 173.259 275.199 172.311 275.199 171.08C275.199 170.262 275.111 169.565 274.935 168.989C274.763 168.414 274.514 167.975 274.188 167.673C273.864 167.372 273.475 167.221 273.02 167.221C272.336 167.221 271.802 167.558 271.418 168.232C271.033 168.903 270.841 169.852 270.841 171.08C270.841 171.899 270.927 172.595 271.099 173.167C271.271 173.739 271.519 174.175 271.842 174.473C272.169 174.772 272.561 174.921 273.02 174.921ZM280.829 175.937C280.195 175.937 279.635 175.825 279.149 175.6C278.666 175.372 278.289 175.06 278.018 174.663C277.747 174.263 277.613 173.807 277.616 173.296C277.613 172.896 277.691 172.527 277.852 172.188C278.012 171.847 278.23 171.562 278.507 171.334C278.787 171.103 279.099 170.957 279.444 170.896V170.84C278.992 170.723 278.632 170.469 278.364 170.079C278.096 169.685 277.964 169.237 277.967 168.735C277.964 168.255 278.085 167.826 278.332 167.447C278.578 167.069 278.916 166.77 279.347 166.552C279.781 166.333 280.275 166.224 280.829 166.224C281.377 166.224 281.866 166.333 282.297 166.552C282.728 166.77 283.067 167.069 283.313 167.447C283.562 167.826 283.688 168.255 283.691 168.735C283.688 169.237 283.551 169.685 283.28 170.079C283.013 170.469 282.657 170.723 282.214 170.84V170.896C282.556 170.957 282.863 171.103 283.137 171.334C283.411 171.562 283.63 171.847 283.793 172.188C283.956 172.527 284.039 172.896 284.042 173.296C284.039 173.807 283.901 174.263 283.627 174.663C283.356 175.06 282.979 175.372 282.496 175.6C282.016 175.825 281.46 175.937 280.829 175.937ZM280.829 174.921C281.257 174.921 281.626 174.852 281.937 174.714C282.248 174.575 282.488 174.38 282.657 174.127C282.827 173.875 282.913 173.579 282.916 173.241C282.913 172.884 282.82 172.568 282.639 172.294C282.457 172.021 282.209 171.805 281.896 171.648C281.585 171.491 281.229 171.413 280.829 171.413C280.426 171.413 280.066 171.491 279.749 171.648C279.435 171.805 279.187 172.021 279.006 172.294C278.827 172.568 278.739 172.884 278.742 173.241C278.739 173.579 278.821 173.875 278.987 174.127C279.156 174.38 279.398 174.575 279.712 174.714C280.026 174.852 280.398 174.921 280.829 174.921ZM280.829 170.434C281.168 170.434 281.468 170.366 281.729 170.231C281.994 170.095 282.202 169.906 282.353 169.663C282.503 169.42 282.58 169.135 282.583 168.809C282.58 168.489 282.505 168.21 282.357 167.973C282.209 167.733 282.005 167.549 281.743 167.419C281.482 167.287 281.177 167.221 280.829 167.221C280.475 167.221 280.166 167.287 279.901 167.419C279.637 167.549 279.432 167.733 279.287 167.973C279.143 168.21 279.072 168.489 279.075 168.809C279.072 169.135 279.144 169.42 279.292 169.663C279.443 169.906 279.65 170.095 279.915 170.231C280.18 170.366 280.484 170.434 280.829 170.434ZM286.364 174.598C286.136 174.598 285.941 174.517 285.778 174.353C285.615 174.19 285.533 173.995 285.533 173.767C285.533 173.539 285.615 173.344 285.778 173.181C285.941 173.018 286.136 172.936 286.364 172.936C286.592 172.936 286.787 173.018 286.95 173.181C287.113 173.344 287.195 173.539 287.195 173.767C287.195 173.918 287.156 174.056 287.08 174.183C287.006 174.309 286.906 174.41 286.779 174.487C286.656 174.561 286.518 174.598 286.364 174.598ZM286.364 169.815C286.136 169.815 285.941 169.734 285.778 169.571C285.615 169.408 285.533 169.212 285.533 168.984C285.533 168.757 285.615 168.561 285.778 168.398C285.941 168.235 286.136 168.153 286.364 168.153C286.592 168.153 286.787 168.235 286.95 168.398C287.113 168.561 287.195 168.757 287.195 168.984C287.195 169.135 287.156 169.274 287.08 169.4C287.006 169.526 286.906 169.628 286.779 169.705C286.656 169.778 286.518 169.815 286.364 169.815ZM288.65 173.869V172.927L292.805 166.353H293.488V167.812H293.026L289.887 172.779V172.853H295.482V173.869H288.65ZM293.1 175.808V173.582V173.144V166.353H294.19V175.808H293.1ZM300.092 175.937C299.704 175.931 299.316 175.857 298.928 175.715C298.54 175.574 298.187 175.335 297.866 175C297.546 174.661 297.289 174.204 297.095 173.629C296.902 173.05 296.805 172.324 296.805 171.45C296.805 170.613 296.883 169.871 297.04 169.225C297.197 168.575 297.425 168.029 297.723 167.586C298.022 167.139 298.382 166.801 298.804 166.57C299.228 166.339 299.707 166.224 300.239 166.224C300.769 166.224 301.24 166.33 301.652 166.542C302.067 166.752 302.406 167.044 302.668 167.419C302.929 167.795 303.098 168.227 303.175 168.717H302.049C301.944 168.292 301.741 167.94 301.44 167.66C301.138 167.379 300.738 167.239 300.239 167.239C299.507 167.239 298.93 167.558 298.508 168.195C298.09 168.832 297.879 169.726 297.876 170.877H297.95C298.122 170.616 298.327 170.392 298.564 170.208C298.804 170.02 299.068 169.875 299.358 169.774C299.647 169.672 299.953 169.622 300.276 169.622C300.818 169.622 301.313 169.757 301.763 170.028C302.212 170.296 302.572 170.666 302.843 171.14C303.114 171.611 303.249 172.151 303.249 172.761C303.249 173.345 303.118 173.881 302.857 174.367C302.595 174.85 302.227 175.235 301.754 175.521C301.283 175.805 300.729 175.943 300.092 175.937ZM300.092 174.921C300.479 174.921 300.827 174.824 301.135 174.63C301.446 174.437 301.69 174.176 301.869 173.85C302.05 173.524 302.141 173.161 302.141 172.761C302.141 172.37 302.054 172.014 301.878 171.694C301.706 171.371 301.467 171.114 301.163 170.923C300.861 170.733 300.516 170.637 300.129 170.637C299.836 170.637 299.564 170.696 299.311 170.813C299.059 170.926 298.837 171.083 298.647 171.283C298.459 171.484 298.311 171.713 298.203 171.971C298.096 172.227 298.042 172.496 298.042 172.779C298.042 173.155 298.13 173.506 298.305 173.832C298.483 174.158 298.727 174.421 299.034 174.621C299.345 174.821 299.698 174.921 300.092 174.921Z" fill="#421DFF"/>
<path d="M26.7184 172V157.455H31.8036C32.8169 157.455 33.6526 157.63 34.3107 157.98C34.9689 158.326 35.4589 158.792 35.7809 159.379C36.1029 159.962 36.2638 160.608 36.2638 161.318C36.2638 161.943 36.1526 162.459 35.93 162.866C35.7122 163.274 35.4234 163.596 35.0636 163.832C34.7085 164.069 34.3226 164.244 33.9059 164.358V164.5C34.351 164.528 34.7984 164.685 35.2482 164.969C35.698 165.253 36.0745 165.66 36.3775 166.19C36.6805 166.721 36.832 167.369 36.832 168.136C36.832 168.866 36.6663 169.521 36.3349 170.104C36.0034 170.686 35.4802 171.148 34.7653 171.489C34.0503 171.83 33.1199 172 31.9741 172H26.7184ZM28.4798 170.438H31.9741C33.1246 170.438 33.9414 170.215 34.4244 169.77C34.9121 169.32 35.1559 168.776 35.1559 168.136C35.1559 167.644 35.0304 167.189 34.7795 166.773C34.5285 166.351 34.171 166.015 33.707 165.764C33.243 165.509 32.6938 165.381 32.0593 165.381H28.4798V170.438ZM28.4798 163.847H31.7468C32.2771 163.847 32.7553 163.742 33.1815 163.534C33.6123 163.326 33.9532 163.032 34.2042 162.653C34.4599 162.275 34.5877 161.83 34.5877 161.318C34.5877 160.679 34.3652 160.137 33.9201 159.692C33.475 159.242 32.7695 159.017 31.8036 159.017H28.4798V163.847ZM44.0728 172.227C43.0217 172.227 42.1149 171.995 41.3526 171.531C40.5951 171.062 40.0103 170.409 39.5984 169.571C39.1912 168.728 38.9876 167.748 38.9876 166.631C38.9876 165.513 39.1912 164.528 39.5984 163.676C40.0103 162.819 40.5832 162.152 41.3171 161.673C42.0558 161.19 42.9175 160.949 43.9023 160.949C44.4705 160.949 45.0316 161.044 45.5856 161.233C46.1396 161.422 46.6438 161.73 47.0984 162.156C47.5529 162.578 47.9151 163.136 48.185 163.832C48.4549 164.528 48.5898 165.385 48.5898 166.403V167.114H40.1808V165.665H46.8853C46.8853 165.049 46.7622 164.5 46.516 164.017C46.2745 163.534 45.9289 163.153 45.479 162.874C45.034 162.594 44.5084 162.455 43.9023 162.455C43.2347 162.455 42.6571 162.62 42.1694 162.952C41.6864 163.278 41.3147 163.705 41.0543 164.23C40.7939 164.756 40.6637 165.319 40.6637 165.92V166.886C40.6637 167.71 40.8058 168.409 41.0898 168.982C41.3787 169.55 41.7788 169.983 42.2901 170.281C42.8015 170.575 43.3957 170.722 44.0728 170.722C44.5131 170.722 44.9109 170.66 45.266 170.537C45.6258 170.409 45.936 170.22 46.1964 169.969C46.4568 169.713 46.658 169.396 46.8001 169.017L48.4194 169.472C48.2489 170.021 47.9625 170.504 47.56 170.92C47.1576 171.332 46.6604 171.654 46.0685 171.886C45.4767 172.114 44.8114 172.227 44.0728 172.227ZM51.1396 176.091V161.091H52.7589V162.824H52.9577C53.0808 162.634 53.2513 162.393 53.4691 162.099C53.6916 161.801 54.0089 161.536 54.4208 161.304C54.8375 161.067 55.4009 160.949 56.1112 160.949C57.0297 160.949 57.8394 161.179 58.5401 161.638C59.2409 162.097 59.7878 162.748 60.1808 163.591C60.5737 164.434 60.7702 165.428 60.7702 166.574C60.7702 167.729 60.5737 168.731 60.1808 169.578C59.7878 170.421 59.2433 171.074 58.5472 171.538C57.8512 171.998 57.0487 172.227 56.1396 172.227C55.4388 172.227 54.8777 172.111 54.4563 171.879C54.0349 171.643 53.7106 171.375 53.4833 171.077C53.256 170.774 53.0808 170.523 52.9577 170.324H52.8157V176.091H51.1396ZM52.7873 166.545C52.7873 167.369 52.908 168.096 53.1495 168.726C53.391 169.351 53.7437 169.841 54.2077 170.196C54.6718 170.546 55.2399 170.722 55.9123 170.722C56.613 170.722 57.1978 170.537 57.6665 170.168C58.14 169.794 58.4951 169.292 58.7319 168.662C58.9734 168.027 59.0941 167.322 59.0941 166.545C59.0941 165.778 58.9757 165.087 58.739 164.472C58.507 163.851 58.1542 163.361 57.6808 163.001C57.212 162.637 56.6225 162.455 55.9123 162.455C55.2305 162.455 54.6576 162.627 54.1935 162.973C53.7295 163.314 53.3791 163.792 53.1424 164.408C52.9057 165.018 52.7873 165.731 52.7873 166.545ZM70.6282 165.778V167.341H64.6055V165.778H70.6282ZM65.0032 161.091V172H63.3271V161.091H65.0032ZM71.9066 161.091V172H70.2305V161.091H71.9066ZM75.6566 176.091C75.3725 176.091 75.1192 176.067 74.8967 176.02C74.6741 175.977 74.5202 175.935 74.435 175.892L74.8612 174.415C75.2683 174.519 75.6282 174.557 75.9407 174.528C76.2532 174.5 76.5302 174.36 76.7717 174.109C77.0179 173.863 77.2428 173.463 77.4464 172.909L77.7589 172.057L73.7248 161.091H75.543L78.5543 169.784H78.668L81.6793 161.091H83.4975L78.8668 173.591C78.6585 174.154 78.4004 174.621 78.0927 174.99C77.7849 175.364 77.4274 175.641 77.0202 175.821C76.6178 176.001 76.1632 176.091 75.6566 176.091ZM89.7511 172.227C88.7283 172.227 87.8477 171.986 87.109 171.503C86.3704 171.02 85.8022 170.355 85.4045 169.507C85.0067 168.66 84.8079 167.691 84.8079 166.602C84.8079 165.494 85.0115 164.517 85.4187 163.669C85.8306 162.817 86.4035 162.152 87.1374 161.673C87.8761 161.19 88.7378 160.949 89.7227 160.949C90.4897 160.949 91.181 161.091 91.7965 161.375C92.4121 161.659 92.9163 162.057 93.3093 162.568C93.7023 163.08 93.9461 163.676 94.0408 164.358H92.3647C92.2369 163.861 91.9528 163.42 91.5124 163.037C91.0768 162.649 90.4897 162.455 89.7511 162.455C89.0977 162.455 88.5247 162.625 88.0323 162.966C87.5446 163.302 87.1635 163.778 86.8888 164.393C86.619 165.004 86.484 165.722 86.484 166.545C86.484 167.388 86.6166 168.122 86.8817 168.747C87.1516 169.372 87.5304 169.857 88.0181 170.203C88.5105 170.549 89.0882 170.722 89.7511 170.722C90.1867 170.722 90.582 170.646 90.9371 170.494C91.2923 170.343 91.5929 170.125 91.8391 169.841C92.0853 169.557 92.2605 169.216 92.3647 168.818H94.0408C93.9461 169.462 93.7118 170.042 93.3377 170.558C92.9684 171.07 92.4783 171.477 91.8675 171.78C91.2615 172.078 90.556 172.227 89.7511 172.227ZM97.94 165.04H101.065C102.343 165.04 103.321 165.364 103.998 166.013C104.675 166.661 105.014 167.483 105.014 168.477C105.014 169.131 104.862 169.725 104.559 170.26C104.256 170.79 103.811 171.214 103.224 171.531C102.637 171.844 101.917 172 101.065 172H96.4911V161.091H98.1673V170.438H101.065C101.728 170.438 102.272 170.262 102.699 169.912C103.125 169.562 103.338 169.112 103.338 168.562C103.338 167.985 103.125 167.514 102.699 167.149C102.272 166.785 101.728 166.602 101.065 166.602H97.94V165.04ZM113.19 172V161.091H114.866V165.835H115.974L119.895 161.091H122.054L117.651 166.347L122.111 172H119.952L116.372 167.398H114.866V172H113.19ZM129.558 172V161.091H131.234V165.835H132.342L136.262 161.091H138.421L134.018 166.347L138.478 172H136.319L132.739 167.398H131.234V172H129.558ZM144.424 172.227C143.373 172.227 142.467 171.995 141.704 171.531C140.947 171.062 140.362 170.409 139.95 169.571C139.543 168.728 139.339 167.748 139.339 166.631C139.339 165.513 139.543 164.528 139.95 163.676C140.362 162.819 140.935 162.152 141.669 161.673C142.407 161.19 143.269 160.949 144.254 160.949C144.822 160.949 145.383 161.044 145.937 161.233C146.491 161.422 146.995 161.73 147.45 162.156C147.904 162.578 148.267 163.136 148.537 163.832C148.806 164.528 148.941 165.385 148.941 166.403V167.114H140.532V165.665H147.237C147.237 165.049 147.114 164.5 146.868 164.017C146.626 163.534 146.28 163.153 145.831 162.874C145.386 162.594 144.86 162.455 144.254 162.455C143.586 162.455 143.009 162.62 142.521 162.952C142.038 163.278 141.666 163.705 141.406 164.23C141.145 164.756 141.015 165.319 141.015 165.92V166.886C141.015 167.71 141.157 168.409 141.441 168.982C141.73 169.55 142.13 169.983 142.642 170.281C143.153 170.575 143.747 170.722 144.424 170.722C144.865 170.722 145.262 170.66 145.618 170.537C145.977 170.409 146.288 170.22 146.548 169.969C146.808 169.713 147.01 169.396 147.152 169.017L148.771 169.472C148.6 170.021 148.314 170.504 147.912 170.92C147.509 171.332 147.012 171.654 146.42 171.886C145.828 172.114 145.163 172.227 144.424 172.227ZM153.167 169.528L158.423 161.091H160.355V172H158.679V163.562L153.451 172H151.491V161.091H153.167V169.528ZM157.315 157.455H158.877C158.877 158.222 158.612 158.849 158.082 159.337C157.552 159.824 156.832 160.068 155.923 160.068C155.028 160.068 154.315 159.824 153.785 159.337C153.26 158.849 152.997 158.222 152.997 157.455H154.559C154.559 157.824 154.661 158.148 154.865 158.428C155.073 158.707 155.426 158.847 155.923 158.847C156.42 158.847 156.775 158.707 156.988 158.428C157.206 158.148 157.315 157.824 157.315 157.455ZM167.857 172.227C166.834 172.227 165.953 171.986 165.214 171.503C164.476 171.02 163.908 170.355 163.51 169.507C163.112 168.66 162.913 167.691 162.913 166.602C162.913 165.494 163.117 164.517 163.524 163.669C163.936 162.817 164.509 162.152 165.243 161.673C165.982 161.19 166.843 160.949 167.828 160.949C168.595 160.949 169.286 161.091 169.902 161.375C170.518 161.659 171.022 162.057 171.415 162.568C171.808 163.08 172.052 163.676 172.146 164.358H170.47C170.342 163.861 170.058 163.42 169.618 163.037C169.182 162.649 168.595 162.455 167.857 162.455C167.203 162.455 166.63 162.625 166.138 162.966C165.65 163.302 165.269 163.778 164.994 164.393C164.724 165.004 164.589 165.722 164.589 166.545C164.589 167.388 164.722 168.122 164.987 168.747C165.257 169.372 165.636 169.857 166.124 170.203C166.616 170.549 167.194 170.722 167.857 170.722C168.292 170.722 168.688 170.646 169.043 170.494C169.398 170.343 169.698 170.125 169.945 169.841C170.191 169.557 170.366 169.216 170.47 168.818H172.146C172.052 169.462 171.817 170.042 171.443 170.558C171.074 171.07 170.584 171.477 169.973 171.78C169.367 172.078 168.661 172.227 167.857 172.227ZM177.807 172.256C177.116 172.256 176.488 172.125 175.925 171.865C175.361 171.6 174.914 171.219 174.582 170.722C174.251 170.22 174.085 169.614 174.085 168.903C174.085 168.278 174.208 167.772 174.455 167.384C174.701 166.991 175.03 166.683 175.442 166.46C175.854 166.238 176.308 166.072 176.805 165.963C177.307 165.849 177.812 165.759 178.318 165.693C178.981 165.608 179.518 165.544 179.93 165.501C180.347 165.454 180.65 165.376 180.839 165.267C181.034 165.158 181.131 164.969 181.131 164.699V164.642C181.131 163.941 180.939 163.397 180.555 163.009C180.177 162.62 179.601 162.426 178.83 162.426C178.029 162.426 177.402 162.601 176.947 162.952C176.493 163.302 176.173 163.676 175.989 164.074L174.398 163.506C174.682 162.843 175.061 162.327 175.534 161.957C176.012 161.583 176.533 161.323 177.097 161.176C177.665 161.025 178.223 160.949 178.773 160.949C179.123 160.949 179.526 160.991 179.98 161.077C180.439 161.157 180.882 161.325 181.308 161.581C181.739 161.837 182.097 162.223 182.381 162.739C182.665 163.255 182.807 163.946 182.807 164.812V172H181.131V170.523H181.045C180.932 170.759 180.742 171.013 180.477 171.283C180.212 171.553 179.859 171.782 179.419 171.972C178.979 172.161 178.441 172.256 177.807 172.256ZM178.062 170.75C178.725 170.75 179.284 170.62 179.739 170.359C180.198 170.099 180.544 169.763 180.776 169.351C181.012 168.939 181.131 168.506 181.131 168.051V166.517C181.06 166.602 180.903 166.68 180.662 166.751C180.425 166.818 180.151 166.877 179.838 166.929C179.53 166.976 179.23 167.019 178.936 167.057C178.647 167.09 178.413 167.118 178.233 167.142C177.797 167.199 177.39 167.291 177.011 167.419C176.637 167.542 176.334 167.729 176.102 167.98C175.875 168.226 175.761 168.562 175.761 168.989C175.761 169.571 175.977 170.011 176.408 170.31C176.843 170.603 177.395 170.75 178.062 170.75ZM191.832 169.727L195.639 161.091H197.23L192.514 172H191.15L186.52 161.091H188.082L191.832 169.727ZM187.542 161.091V172H185.866V161.091H187.542ZM196.122 172V161.091H197.798V172H196.122ZM205.866 162.653V161.091H214.73V162.653H211.15V172H209.474V162.653H205.866ZM221.04 172.227C220.055 172.227 219.191 171.993 218.448 171.524C217.709 171.055 217.132 170.4 216.715 169.557C216.303 168.714 216.097 167.729 216.097 166.602C216.097 165.466 216.303 164.474 216.715 163.626C217.132 162.779 217.709 162.121 218.448 161.652C219.191 161.183 220.055 160.949 221.04 160.949C222.025 160.949 222.887 161.183 223.625 161.652C224.369 162.121 224.946 162.779 225.358 163.626C225.775 164.474 225.983 165.466 225.983 166.602C225.983 167.729 225.775 168.714 225.358 169.557C224.946 170.4 224.369 171.055 223.625 171.524C222.887 171.993 222.025 172.227 221.04 172.227ZM221.04 170.722C221.788 170.722 222.404 170.53 222.887 170.146C223.37 169.763 223.727 169.259 223.959 168.634C224.191 168.009 224.307 167.331 224.307 166.602C224.307 165.873 224.191 165.194 223.959 164.564C223.727 163.934 223.37 163.425 222.887 163.037C222.404 162.649 221.788 162.455 221.04 162.455C220.292 162.455 219.676 162.649 219.194 163.037C218.711 163.425 218.353 163.934 218.121 164.564C217.889 165.194 217.773 165.873 217.773 166.602C217.773 167.331 217.889 168.009 218.121 168.634C218.353 169.259 218.711 169.763 219.194 170.146C219.676 170.53 220.292 170.722 221.04 170.722ZM235.275 161.091V162.653H230.218V172H228.542V161.091H235.275ZM235.639 175.125V170.438H236.548C236.77 170.205 236.962 169.955 237.123 169.685C237.284 169.415 237.424 169.095 237.542 168.726C237.665 168.352 237.77 167.897 237.855 167.362C237.94 166.822 238.016 166.171 238.082 165.409L238.451 161.091H245.383V170.438H247.059V175.125H245.383V172H237.315V175.125H235.639ZM238.451 170.438H243.707V162.653H240.014L239.73 165.409C239.611 166.55 239.465 167.547 239.289 168.399C239.114 169.251 238.835 169.931 238.451 170.438ZM252.494 172.256C251.803 172.256 251.176 172.125 250.612 171.865C250.049 171.6 249.601 171.219 249.27 170.722C248.938 170.22 248.773 169.614 248.773 168.903C248.773 168.278 248.896 167.772 249.142 167.384C249.388 166.991 249.717 166.683 250.129 166.46C250.541 166.238 250.996 166.072 251.493 165.963C251.995 165.849 252.499 165.759 253.006 165.693C253.669 165.608 254.206 165.544 254.618 165.501C255.035 165.454 255.338 165.376 255.527 165.267C255.721 165.158 255.818 164.969 255.818 164.699V164.642C255.818 163.941 255.626 163.397 255.243 163.009C254.864 162.62 254.289 162.426 253.517 162.426C252.717 162.426 252.089 162.601 251.635 162.952C251.18 163.302 250.861 163.676 250.676 164.074L249.085 163.506C249.369 162.843 249.748 162.327 250.222 161.957C250.7 161.583 251.221 161.323 251.784 161.176C252.352 161.025 252.911 160.949 253.46 160.949C253.811 160.949 254.213 160.991 254.668 161.077C255.127 161.157 255.57 161.325 255.996 161.581C256.427 161.837 256.784 162.223 257.068 162.739C257.352 163.255 257.494 163.946 257.494 164.812V172H255.818V170.523H255.733C255.619 170.759 255.43 171.013 255.165 171.283C254.9 171.553 254.547 171.782 254.107 171.972C253.666 172.161 253.129 172.256 252.494 172.256ZM252.75 170.75C253.413 170.75 253.972 170.62 254.426 170.359C254.885 170.099 255.231 169.763 255.463 169.351C255.7 168.939 255.818 168.506 255.818 168.051V166.517C255.747 166.602 255.591 166.68 255.349 166.751C255.113 166.818 254.838 166.877 254.526 166.929C254.218 166.976 253.917 167.019 253.624 167.057C253.335 167.09 253.1 167.118 252.92 167.142C252.485 167.199 252.078 167.291 251.699 167.419C251.325 167.542 251.022 167.729 250.79 167.98C250.563 168.226 250.449 168.562 250.449 168.989C250.449 169.571 250.664 170.011 251.095 170.31C251.531 170.603 252.082 170.75 252.75 170.75Z" fill="black"/>
</svg>
